<?xml version="1.0" encoding="UTF-8" standalone="no"?>
<!DOCTYPE svg PUBLIC "-//W3C//DTD SVG 1.1//EN" "http://www.w3.org/Graphics/SVG/1.1/DTD/svg11.dtd">
<svg xmlns="http://www.w3.org/2000/svg" version="1.1" viewBox="0 0 180 180">
<g stroke-width="2.00" fill="none" stroke-linecap="butt">
<path stroke="#927a6d" vector-effect="non-scaling-stroke" d="
  M 113.65 76.75
  C 110.55 71.92 107.32 75.24 103.62 76.45
  Q 103.14 76.60 102.67 76.42
  Q 96.59 74.11 93.10 68.68
  Q 92.77 68.18 92.18 68.27
  Q 80.86 69.91 70.86 64.46
  Q 70.27 64.14 70.08 64.78
  C 68.84 69.14 69.67 75.10 69.88 79.70
  C 70.17 85.97 71.77 89.90 75.88 94.11
  C 82.26 100.64 92.37 99.97 99.06 94.35
  C 100.78 92.90 101.18 90.74 101.71 88.66
  A 2.23 2.23 0.0 0 1 104.03 86.97
  Q 113.07 87.60 114.21 79.50
  Q 114.43 77.95 113.65 76.75"
/>
<path stroke="#533d3e" vector-effect="non-scaling-stroke" d="
  M 48.70 94.75
  C 50.39 118.36 49.17 142.17 50.27 163.75
  Q 50.32 164.86 51.18 165.19
  Q 51.77 165.42 51.75 164.79
  C 51.00 141.05 51.16 117.32 50.47 93.58
  C 50.35 89.24 49.54 84.72 44.53 84.16
  Q 32.65 82.84 31.91 94.05
  C 31.83 95.26 32.59 96.48 33.50 97.16
  A 0.47 0.47 0.0 0 0 34.24 96.66
  C 32.37 89.31 38.53 82.82 45.61 86.68
  C 48.85 88.44 48.46 91.44 48.70 94.75"
/>
<path stroke="#533d3e" vector-effect="non-scaling-stroke" d="
  M 110.65 125.09
  C 113.01 127.58 113.60 131.81 113.05 135.12
  Q 112.94 135.76 113.57 135.60
  L 119.66 134.04
  A 1.60 1.60 0.0 0 0 120.86 132.44
  C 120.44 118.54 118.96 105.48 110.93 93.00
  Q 110.68 92.60 110.20 92.53
  C 107.99 92.23 107.00 92.85 105.88 94.87
  C 102.87 100.31 95.95 101.51 94.22 108.21
  Q 94.07 108.80 94.66 108.66
  Q 103.57 106.45 105.01 115.27
  Q 105.11 115.93 105.70 115.59
  C 111.70 112.12 109.52 123.89 110.65 125.09"
/>
<path stroke="#533d3e" vector-effect="non-scaling-stroke" d="
  M 137.19 115.75
  C 138.00 106.85 133.60 91.76 120.93 98.20
  A 0.46 0.46 0.0 0 0 120.72 98.80
  Q 124.66 107.47 125.46 116.98
  Q 125.49 117.42 125.93 117.39
  L 136.33 116.60
  A 0.94 0.93 -89.6 0 0 137.19 115.75"
/>
<path stroke="#533d3e" vector-effect="non-scaling-stroke" d="
  M 67.92 130.15
  L 90.47 129.92
  A 0.47 0.46 -24.7 0 0 90.78 129.10
  C 88.48 127.13 83.76 121.96 84.46 118.57
  Q 84.57 118.06 84.12 117.77
  C 78.53 114.25 75.71 107.09 74.28 100.91
  Q 74.16 100.38 73.77 100.01
  L 70.91 97.25
  Q 70.59 96.94 70.35 97.31
  Q 69.20 99.07 68.90 101.26
  Q 66.99 115.27 67.37 129.62
  Q 67.38 130.16 67.92 130.15"
/>
<path stroke="#927a6d" vector-effect="non-scaling-stroke" d="
  M 89.07 104.83
  L 81.23 103.95
  Q 80.83 103.90 80.97 104.28
  Q 82.43 108.33 85.19 111.66
  A 0.54 0.53 -51.4 0 0 86.08 111.56
  L 89.29 105.23
  Q 89.46 104.87 89.07 104.83"
/>
<path stroke="#98989a" vector-effect="non-scaling-stroke" d="
  M 94.93 125.82
  Q 95.45 126.46 96.22 126.15
  L 101.18 124.15
  Q 101.80 123.90 101.62 123.25
  L 99.03 114.32
  Q 98.86 113.70 98.22 113.75
  C 95.30 113.97 92.02 117.08 90.21 118.86
  Q 89.67 119.40 90.15 120.00
  L 94.93 125.82"
/>
<path stroke="#533d3e" vector-effect="non-scaling-stroke" d="
  M 139.93 122.63
  Q 133.32 122.17 126.78 123.06
  A 0.59 0.59 0.0 0 0 126.76 124.23
  C 128.79 124.57 139.89 125.84 140.47 123.37
  A 0.60 0.60 0.0 0 0 139.93 122.63"
/>
<path stroke="#927a6d" vector-effect="non-scaling-stroke" d="
  M 56.74 134.06
  A 0.31 0.31 0.0 0 0 57.01 134.37
  L 60.90 134.85
  A 0.31 0.31 0.0 0 0 61.25 134.54
  L 61.25 127.98
  A 0.31 0.31 0.0 0 0 60.89 127.67
  L 57.02 128.32
  A 0.31 0.31 0.0 0 0 56.76 128.62
  L 56.74 134.06"
/>
<path stroke="#927a6d" vector-effect="non-scaling-stroke" d="
  M 97.79 135.62
  C 103.16 137.03 109.24 138.42 107.18 129.82
  Q 106.79 128.21 105.21 128.70
  C 102.62 129.49 96.49 131.16 96.78 134.42
  A 1.38 1.38 0.0 0 0 97.79 135.62"
/>
<path stroke="#533d3e" vector-effect="non-scaling-stroke" d="
  M 137.21 130.54
  L 127.39 130.43
  Q 126.64 130.42 126.66 131.17
  L 127.00 145.26
  A 0.83 0.83 0.0 0 0 127.71 146.06
  C 137.47 147.44 141.81 139.16 137.85 130.94
  A 0.71 0.70 -12.5 0 0 137.21 130.54"
/>
<path stroke="#533d3e" vector-effect="non-scaling-stroke" d="
  M 67.46 135.75
  A 0.32 0.32 0.0 0 0 67.14 136.09
  L 67.30 139.27
  A 0.32 0.32 0.0 0 0 67.63 139.58
  L 92.34 139.30
  A 0.32 0.32 0.0 0 0 92.62 138.82
  L 91.00 135.91
  A 0.32 0.32 0.0 0 0 90.72 135.75
  L 67.46 135.75"
/>
<path stroke="#98989a" vector-effect="non-scaling-stroke" d="
  M 108.24 142.56
  L 103.31 142.36
  Q 102.76 142.34 102.89 142.87
  Q 103.96 147.20 105.28 151.45
  C 106.27 154.63 111.49 151.84 113.44 150.93
  A 1.29 1.29 0.0 0 0 113.91 148.96
  L 109.28 143.09
  Q 108.88 142.59 108.24 142.56"
/>
<path stroke="#533d3e" vector-effect="non-scaling-stroke" d="
  M 67.94 145.56
  A 0.70 0.70 0.0 0 0 67.26 146.22
  C 66.83 152.68 66.54 158.33 67.52 164.82
  Q 67.59 165.32 68.06 165.50
  C 71.51 166.89 79.62 165.83 83.59 165.66
  A 0.85 0.85 0.0 0 0 84.41 164.80
  C 84.34 161.02 83.78 155.96 85.79 152.79
  Q 89.64 146.70 98.02 148.68
  Q 98.71 148.85 98.56 148.15
  L 97.95 145.44
  Q 97.85 144.97 97.37 144.98
  L 67.94 145.56"
/>
<path stroke="#533d3e" vector-effect="non-scaling-stroke" d="
  M 118.85 154.33
  Q 113.14 158.19 106.29 158.86
  Q 105.64 158.92 105.68 159.58
  L 105.96 164.75
  Q 106.00 165.54 106.80 165.55
  L 120.18 165.75
  Q 121.38 165.77 121.37 164.57
  L 121.35 145.92
  Q 121.35 145.17 120.60 145.23
  L 118.86 145.37
  Q 118.11 145.44 118.54 146.05
  Q 121.06 149.60 119.51 153.51
  Q 119.31 154.02 118.85 154.33"
/>
<path stroke="#927a6d" vector-effect="non-scaling-stroke" d="
  M 83.9719 75.3894
  A 2.54 2.54 0.0 0 0 81.3923 72.8896
  L 81.1924 72.8927
  A 2.54 2.54 0.0 0 0 78.6926 75.4723
  L 78.9081 89.1906
  A 2.54 2.54 0.0 0 0 81.4877 91.6904
  L 81.6876 91.6873
  A 2.54 2.54 0.0 0 0 84.1874 89.1077
  L 83.9719 75.3894"
/>
</g>
<g fill="#38383c">
<path d="
  M 57.22 122.43
  L 61.21 122.17
  Q 61.79 122.14 61.78 121.55
  C 61.59 110.92 61.92 100.33 66.63 92.05
  Q 66.89 91.59 66.74 91.09
  Q 62.31 76.65 65.54 61.83
  Q 65.63 61.41 65.30 61.14
  C 61.48 58.03 52.87 49.19 58.57 44.83
  Q 58.94 44.55 59.41 44.51
  Q 62.65 44.23 65.39 42.37
  C 73.28 36.99 79.83 32.56 89.06 33.52
  Q 99.57 34.61 103.32 44.21
  Q 103.50 44.68 104.00 44.72
  C 116.13 45.62 119.97 59.48 113.81 68.57
  Q 113.52 68.99 113.93 69.30
  Q 125.31 77.87 115.71 89.01
  Q 115.41 89.37 115.67 89.75
  L 117.98 93.20
  Q 118.26 93.61 118.73 93.42
  C 135.82 86.16 144.97 102.02 142.61 116.66
  Q 142.53 117.15 142.92 117.47
  C 147.21 120.96 146.57 124.62 143.66 128.75
  Q 143.34 129.19 143.55 129.69
  C 148.51 141.39 141.25 152.59 128.16 151.86
  A 0.92 0.92 0.0 0 0 127.19 152.82
  C 127.42 158.19 129.24 170.26 121.75 171.19
  C 116.91 171.80 108.47 172.16 104.47 170.63
  C 97.12 167.82 103.07 157.70 96.96 154.45
  Q 94.32 153.05 91.09 154.70
  A 1.88 1.87 -15.4 0 0 90.08 156.47
  C 90.51 163.10 92.21 171.21 82.49 171.63
  C 76.83 171.88 67.66 172.96 63.81 169.16
  C 59.71 165.13 61.42 147.00 61.57 141.27
  Q 61.59 140.67 61.00 140.61
  L 57.55 140.24
  Q 56.90 140.16 56.93 140.82
  Q 57.56 156.29 57.49 162.93
  Q 57.48 163.67 56.91 165.36
  Q 56.76 165.82 56.90 166.29
  C 58.52 171.57 45.09 173.98 44.55 163.36
  C 43.39 140.36 43.80 117.35 43.60 94.33
  C 43.60 93.67 43.04 92.85 42.97 92.19
  A 1.18 1.17 -15.1 0 0 41.33 91.25
  C 39.34 92.13 39.14 92.97 39.90 95.03
  C 42.98 103.43 30.02 105.69 27.20 98.03
  C 20.78 80.58 47.74 70.23 54.60 85.54
  C 56.78 90.42 55.41 98.61 55.94 103.56
  Q 56.93 112.73 56.74 121.97
  Q 56.73 122.46 57.22 122.43
  Z
  M 113.65 76.75
  C 110.55 71.92 107.32 75.24 103.62 76.45
  Q 103.14 76.60 102.67 76.42
  Q 96.59 74.11 93.10 68.68
  Q 92.77 68.18 92.18 68.27
  Q 80.86 69.91 70.86 64.46
  Q 70.27 64.14 70.08 64.78
  C 68.84 69.14 69.67 75.10 69.88 79.70
  C 70.17 85.97 71.77 89.90 75.88 94.11
  C 82.26 100.64 92.37 99.97 99.06 94.35
  C 100.78 92.90 101.18 90.74 101.71 88.66
  A 2.23 2.23 0.0 0 1 104.03 86.97
  Q 113.07 87.60 114.21 79.50
  Q 114.43 77.95 113.65 76.75
  Z
  M 48.70 94.75
  C 50.39 118.36 49.17 142.17 50.27 163.75
  Q 50.32 164.86 51.18 165.19
  Q 51.77 165.42 51.75 164.79
  C 51.00 141.05 51.16 117.32 50.47 93.58
  C 50.35 89.24 49.54 84.72 44.53 84.16
  Q 32.65 82.84 31.91 94.05
  C 31.83 95.26 32.59 96.48 33.50 97.16
  A 0.47 0.47 0.0 0 0 34.24 96.66
  C 32.37 89.31 38.53 82.82 45.61 86.68
  C 48.85 88.44 48.46 91.44 48.70 94.75
  Z
  M 110.65 125.09
  C 113.01 127.58 113.60 131.81 113.05 135.12
  Q 112.94 135.76 113.57 135.60
  L 119.66 134.04
  A 1.60 1.60 0.0 0 0 120.86 132.44
  C 120.44 118.54 118.96 105.48 110.93 93.00
  Q 110.68 92.60 110.20 92.53
  C 107.99 92.23 107.00 92.85 105.88 94.87
  C 102.87 100.31 95.95 101.51 94.22 108.21
  Q 94.07 108.80 94.66 108.66
  Q 103.57 106.45 105.01 115.27
  Q 105.11 115.93 105.70 115.59
  C 111.70 112.12 109.52 123.89 110.65 125.09
  Z
  M 137.19 115.75
  C 138.00 106.85 133.60 91.76 120.93 98.20
  A 0.46 0.46 0.0 0 0 120.72 98.80
  Q 124.66 107.47 125.46 116.98
  Q 125.49 117.42 125.93 117.39
  L 136.33 116.60
  A 0.94 0.93 -89.6 0 0 137.19 115.75
  Z
  M 67.92 130.15
  L 90.47 129.92
  A 0.47 0.46 -24.7 0 0 90.78 129.10
  C 88.48 127.13 83.76 121.96 84.46 118.57
  Q 84.57 118.06 84.12 117.77
  C 78.53 114.25 75.71 107.09 74.28 100.91
  Q 74.16 100.38 73.77 100.01
  L 70.91 97.25
  Q 70.59 96.94 70.35 97.31
  Q 69.20 99.07 68.90 101.26
  Q 66.99 115.27 67.37 129.62
  Q 67.38 130.16 67.92 130.15
  Z
  M 89.07 104.83
  L 81.23 103.95
  Q 80.83 103.90 80.97 104.28
  Q 82.43 108.33 85.19 111.66
  A 0.54 0.53 -51.4 0 0 86.08 111.56
  L 89.29 105.23
  Q 89.46 104.87 89.07 104.83
  Z
  M 94.93 125.82
  Q 95.45 126.46 96.22 126.15
  L 101.18 124.15
  Q 101.80 123.90 101.62 123.25
  L 99.03 114.32
  Q 98.86 113.70 98.22 113.75
  C 95.30 113.97 92.02 117.08 90.21 118.86
  Q 89.67 119.40 90.15 120.00
  L 94.93 125.82
  Z
  M 139.93 122.63
  Q 133.32 122.17 126.78 123.06
  A 0.59 0.59 0.0 0 0 126.76 124.23
  C 128.79 124.57 139.89 125.84 140.47 123.37
  A 0.60 0.60 0.0 0 0 139.93 122.63
  Z
  M 56.74 134.06
  A 0.31 0.31 0.0 0 0 57.01 134.37
  L 60.90 134.85
  A 0.31 0.31 0.0 0 0 61.25 134.54
  L 61.25 127.98
  A 0.31 0.31 0.0 0 0 60.89 127.67
  L 57.02 128.32
  A 0.31 0.31 0.0 0 0 56.76 128.62
  L 56.74 134.06
  Z
  M 97.79 135.62
  C 103.16 137.03 109.24 138.42 107.18 129.82
  Q 106.79 128.21 105.21 128.70
  C 102.62 129.49 96.49 131.16 96.78 134.42
  A 1.38 1.38 0.0 0 0 97.79 135.62
  Z
  M 137.21 130.54
  L 127.39 130.43
  Q 126.64 130.42 126.66 131.17
  L 127.00 145.26
  A 0.83 0.83 0.0 0 0 127.71 146.06
  C 137.47 147.44 141.81 139.16 137.85 130.94
  A 0.71 0.70 -12.5 0 0 137.21 130.54
  Z
  M 67.46 135.75
  A 0.32 0.32 0.0 0 0 67.14 136.09
  L 67.30 139.27
  A 0.32 0.32 0.0 0 0 67.63 139.58
  L 92.34 139.30
  A 0.32 0.32 0.0 0 0 92.62 138.82
  L 91.00 135.91
  A 0.32 0.32 0.0 0 0 90.72 135.75
  L 67.46 135.75
  Z
  M 108.24 142.56
  L 103.31 142.36
  Q 102.76 142.34 102.89 142.87
  Q 103.96 147.20 105.28 151.45
  C 106.27 154.63 111.49 151.84 113.44 150.93
  A 1.29 1.29 0.0 0 0 113.91 148.96
  L 109.28 143.09
  Q 108.88 142.59 108.24 142.56
  Z
  M 67.94 145.56
  A 0.70 0.70 0.0 0 0 67.26 146.22
  C 66.83 152.68 66.54 158.33 67.52 164.82
  Q 67.59 165.32 68.06 165.50
  C 71.51 166.89 79.62 165.83 83.59 165.66
  A 0.85 0.85 0.0 0 0 84.41 164.80
  C 84.34 161.02 83.78 155.96 85.79 152.79
  Q 89.64 146.70 98.02 148.68
  Q 98.71 148.85 98.56 148.15
  L 97.95 145.44
  Q 97.85 144.97 97.37 144.98
  L 67.94 145.56
  Z
  M 118.85 154.33
  Q 113.14 158.19 106.29 158.86
  Q 105.64 158.92 105.68 159.58
  L 105.96 164.75
  Q 106.00 165.54 106.80 165.55
  L 120.18 165.75
  Q 121.38 165.77 121.37 164.57
  L 121.35 145.92
  Q 121.35 145.17 120.60 145.23
  L 118.86 145.37
  Q 118.11 145.44 118.54 146.05
  Q 121.06 149.60 119.51 153.51
  Q 119.31 154.02 118.85 154.33
  Z"
/>
<rect x="-2.64" y="-9.40" transform="translate(81.44,82.29) rotate(-0.9)" width="5.28" height="18.80" rx="2.54"/>
</g>
<g fill="#ebbc9e">
<path d="
  M 103.62 76.45
  C 107.32 75.24 110.55 71.92 113.65 76.75
  Q 114.43 77.95 114.21 79.50
  Q 113.07 87.60 104.03 86.97
  A 2.23 2.23 0.0 0 0 101.71 88.66
  C 101.18 90.74 100.78 92.90 99.06 94.35
  C 92.37 99.97 82.26 100.64 75.88 94.11
  C 71.77 89.90 70.17 85.97 69.88 79.70
  C 69.67 75.10 68.84 69.14 70.08 64.78
  Q 70.27 64.14 70.86 64.46
  Q 80.86 69.91 92.18 68.27
  Q 92.77 68.18 93.10 68.68
  Q 96.59 74.11 102.67 76.42
  Q 103.14 76.60 103.62 76.45
  Z
  M 83.9719 75.3894
  A 2.54 2.54 0.0 0 0 81.3923 72.8896
  L 81.1924 72.8927
  A 2.54 2.54 0.0 0 0 78.6926 75.4723
  L 78.9081 89.1906
  A 2.54 2.54 0.0 0 0 81.4877 91.6904
  L 81.6876 91.6873
  A 2.54 2.54 0.0 0 0 84.1874 89.1077
  L 83.9719 75.3894
  Z"
/>
<path d="
  M 81.23 103.95
  L 89.07 104.83
  Q 89.46 104.87 89.29 105.23
  L 86.08 111.56
  A 0.54 0.53 -51.4 0 1 85.19 111.66
  Q 82.43 108.33 80.97 104.28
  Q 80.83 103.90 81.23 103.95
  Z"
/>
<path d="
  M 56.74 134.06
  L 56.76 128.62
  A 0.31 0.31 0.0 0 1 57.02 128.32
  L 60.89 127.67
  A 0.31 0.31 0.0 0 1 61.25 127.98
  L 61.25 134.54
  A 0.31 0.31 0.0 0 1 60.90 134.85
  L 57.01 134.37
  A 0.31 0.31 0.0 0 1 56.74 134.06
  Z"
/>
<path d="
  M 97.79 135.62
  A 1.38 1.38 0.0 0 1 96.78 134.42
  C 96.49 131.16 102.62 129.49 105.21 128.70
  Q 106.79 128.21 107.18 129.82
  C 109.24 138.42 103.16 137.03 97.79 135.62
  Z"
/>
</g>
<g fill="#6e423f">
<path d="
  M 50.27 163.75
  C 49.17 142.17 50.39 118.36 48.70 94.75
  C 48.46 91.44 48.85 88.44 45.61 86.68
  C 38.53 82.82 32.37 89.31 34.24 96.66
  A 0.47 0.47 0.0 0 1 33.50 97.16
  C 32.59 96.48 31.83 95.26 31.91 94.05
  Q 32.65 82.84 44.53 84.16
  C 49.54 84.72 50.35 89.24 50.47 93.58
  C 51.16 117.32 51.00 141.05 51.75 164.79
  Q 51.77 165.42 51.18 165.19
  Q 50.32 164.86 50.27 163.75
  Z"
/>
<path d="
  M 110.65 125.09
  C 109.52 123.89 111.70 112.12 105.70 115.59
  Q 105.11 115.93 105.01 115.27
  Q 103.57 106.45 94.66 108.66
  Q 94.07 108.80 94.22 108.21
  C 95.95 101.51 102.87 100.31 105.88 94.87
  C 107.00 92.85 107.99 92.23 110.20 92.53
  Q 110.68 92.60 110.93 93.00
  C 118.96 105.48 120.44 118.54 120.86 132.44
  A 1.60 1.60 0.0 0 1 119.66 134.04
  L 113.57 135.60
  Q 112.94 135.76 113.05 135.12
  C 113.60 131.81 113.01 127.58 110.65 125.09
  Z"
/>
<path d="
  M 120.93 98.20
  C 133.60 91.76 138.00 106.85 137.19 115.75
  A 0.94 0.93 -89.6 0 1 136.33 116.60
  L 125.93 117.39
  Q 125.49 117.42 125.46 116.98
  Q 124.66 107.47 120.72 98.80
  A 0.46 0.46 0.0 0 1 120.93 98.20
  Z"
/>
<path d="
  M 90.47 129.92
  L 67.92 130.15
  Q 67.38 130.16 67.37 129.62
  Q 66.99 115.27 68.90 101.26
  Q 69.20 99.07 70.35 97.31
  Q 70.59 96.94 70.91 97.25
  L 73.77 100.01
  Q 74.16 100.38 74.28 100.91
  C 75.71 107.09 78.53 114.25 84.12 117.77
  Q 84.57 118.06 84.46 118.57
  C 83.76 121.96 88.48 127.13 90.78 129.10
  A 0.47 0.46 -24.7 0 1 90.47 129.92
  Z"
/>
<path d="
  M 139.93 122.63
  A 0.60 0.60 0.0 0 1 140.47 123.37
  C 139.89 125.84 128.79 124.57 126.76 124.23
  A 0.59 0.59 0.0 0 1 126.78 123.06
  Q 133.32 122.17 139.93 122.63
  Z"
/>
<path d="
  M 137.21 130.54
  A 0.71 0.70 -12.5 0 1 137.85 130.94
  C 141.81 139.16 137.47 147.44 127.71 146.06
  A 0.83 0.83 0.0 0 1 127.00 145.26
  L 126.66 131.17
  Q 126.64 130.42 127.39 130.43
  L 137.21 130.54
  Z"
/>
<path d="
  M 67.46 135.75
  L 90.72 135.75
  A 0.32 0.32 0.0 0 1 91.00 135.91
  L 92.62 138.82
  A 0.32 0.32 0.0 0 1 92.34 139.30
  L 67.63 139.58
  A 0.32 0.32 0.0 0 1 67.30 139.27
  L 67.14 136.09
  A 0.32 0.32 0.0 0 1 67.46 135.75
  Z"
/>
<path d="
  M 67.94 145.56
  L 97.37 144.98
  Q 97.85 144.97 97.95 145.44
  L 98.56 148.15
  Q 98.71 148.85 98.02 148.68
  Q 89.64 146.70 85.79 152.79
  C 83.78 155.96 84.34 161.02 84.41 164.80
  A 0.85 0.85 0.0 0 1 83.59 165.66
  C 79.62 165.83 71.51 166.89 68.06 165.50
  Q 67.59 165.32 67.52 164.82
  C 66.54 158.33 66.83 152.68 67.26 146.22
  A 0.70 0.70 0.0 0 1 67.94 145.56
  Z"
/>
<path d="
  M 119.51 153.51
  Q 121.06 149.60 118.54 146.05
  Q 118.11 145.44 118.86 145.37
  L 120.60 145.23
  Q 121.35 145.17 121.35 145.92
  L 121.37 164.57
  Q 121.38 165.77 120.18 165.75
  L 106.80 165.55
  Q 106.00 165.54 105.96 164.75
  L 105.68 159.58
  Q 105.64 158.92 106.29 158.86
  Q 113.14 158.19 118.85 154.33
  Q 119.31 154.02 119.51 153.51
  Z"
/>
</g>
<g fill="#f8f8f8">
<path d="
  M 94.93 125.82
  L 90.15 120.00
  Q 89.67 119.40 90.21 118.86
  C 92.02 117.08 95.30 113.97 98.22 113.75
  Q 98.86 113.70 99.03 114.32
  L 101.62 123.25
  Q 101.80 123.90 101.18 124.15
  L 96.22 126.15
  Q 95.45 126.46 94.93 125.82
  Z"
/>
<path d="
  M 109.28 143.09
  L 113.91 148.96
  A 1.29 1.29 0.0 0 1 113.44 150.93
  C 111.49 151.84 106.27 154.63 105.28 151.45
  Q 103.96 147.20 102.89 142.87
  Q 102.76 142.34 103.31 142.36
  L 108.24 142.56
  Q 108.88 142.59 109.28 143.09
  Z"
/>
</g>
</svg>
