<?xml version="1.0" encoding="UTF-8" standalone="no"?>
<!DOCTYPE svg PUBLIC "-//W3C//DTD SVG 1.1//EN" "http://www.w3.org/Graphics/SVG/1.1/DTD/svg11.dtd">
<svg xmlns="http://www.w3.org/2000/svg" version="1.1" viewBox="0 0 180 180">
<g stroke-width="2.00" fill="none" stroke-linecap="butt">
<path stroke="#533d3e" vector-effect="non-scaling-stroke" d="
  M 104.51 64.51
  C 103.01 56.96 97.51 52.25 89.73 51.57
  C 79.23 50.65 75.08 55.83 71.50 64.44
  A 0.80 0.80 0.0 0 0 72.21 65.55
  Q 88.12 66.18 104.01 65.15
  Q 104.62 65.11 104.51 64.51"
/>
<path stroke="#927a6d" vector-effect="non-scaling-stroke" d="
  M 112.08 75.27
  Q 109.77 73.83 110.08 76.53
  C 110.60 81.14 106.21 87.68 100.79 84.80
  C 97.01 82.80 96.24 75.84 96.35 72.03
  Q 96.36 71.52 95.86 71.53
  C 87.66 71.69 79.18 71.87 71.02 70.94
  Q 70.47 70.87 70.48 71.43
  C 70.62 77.32 70.25 84.29 72.76 89.33
  C 75.10 94.03 78.84 98.06 84.11 99.25
  C 91.17 100.83 99.95 98.75 102.29 90.93
  C 103.52 86.85 107.25 88.49 109.84 87.54
  C 114.89 85.69 117.86 78.89 112.08 75.27"
/>
<path stroke="#533d3e" vector-effect="non-scaling-stroke" d="
  M 101.62 71.98
  L 102.74 78.93
  A 0.77 0.77 0.0 0 0 104.27 78.84
  L 104.58 71.67
  Q 104.61 70.97 103.91 70.98
  L 102.41 71.03
  Q 101.47 71.05 101.62 71.98"
/>
<path stroke="#9c3d44" vector-effect="non-scaling-stroke" d="
  M 130.81 78.69
  Q 129.29 77.35 127.38 76.86
  Q 126.40 76.61 126.87 77.50
  Q 128.02 79.68 130.13 80.88
  Q 130.59 81.15 131.01 80.82
  C 131.54 80.39 131.93 78.85 130.81 78.69"
/>
<path stroke="#9c3d44" vector-effect="non-scaling-stroke" d="
  M 136.84 80.37
  L 136.10 83.11
  Q 135.87 83.98 136.70 83.63
  L 142.73 81.08
  A 0.56 0.56 0.0 0 0 142.51 80.00
  L 137.33 80.00
  A 0.52 0.51 -81.6 0 0 136.84 80.37"
/>
<path stroke="#9c3d44" vector-effect="non-scaling-stroke" d="
  M 128.83 89.24
  C 131.68 86.35 126.40 85.47 124.79 84.38
  A 0.50 0.49 -84.2 0 0 124.06 84.98
  Q 125.23 87.87 127.99 89.36
  Q 128.46 89.61 128.83 89.24"
/>
<path stroke="#9c3d44" vector-effect="non-scaling-stroke" d="
  M 142.80 88.32
  C 140.71 88.18 133.08 88.46 134.04 92.05
  Q 134.18 92.56 134.69 92.39
  L 142.97 89.64
  A 0.68 0.68 0.0 0 0 142.80 88.32"
/>
<path stroke="#533d3e" vector-effect="non-scaling-stroke" d="
  M 97.24 105.17
  L 101.33 106.59
  Q 101.81 106.76 102.20 106.42
  L 113.13 96.77
  Q 113.56 96.38 113.25 95.89
  L 111.81 93.69
  Q 111.49 93.20 111.06 93.60
  C 106.78 97.56 102.05 101.73 97.21 104.93
  A 0.14 0.14 0.0 0 0 97.24 105.17"
/>
<path stroke="#533d3e" vector-effect="non-scaling-stroke" d="
  M 47.43 132.71
  C 51.29 138.18 54.78 142.38 61.94 142.89
  Q 62.49 142.92 62.42 142.38
  L 62.19 140.49
  Q 62.13 139.95 61.60 139.84
  C 47.92 136.91 43.45 121.32 45.58 109.07
  C 46.02 106.54 51.17 99.48 50.70 96.88
  Q 50.58 96.21 50.03 96.60
  C 40.35 103.38 41.45 124.21 47.43 132.71"
/>
<path stroke="#533d3e" vector-effect="non-scaling-stroke" d="
  M 91.33 112.28
  C 87.09 109.17 83.68 106.02 78.94 103.72
  Q 75.00 101.81 72.22 98.37
  A 0.65 0.64 -54.1 0 0 71.11 98.55
  L 69.85 101.89
  A 1.31 1.31 0.0 0 0 70.40 103.47
  Q 80.78 109.75 90.25 117.32
  A 0.45 0.45 0.0 0 0 90.98 117.03
  L 91.54 112.78
  A 0.54 0.54 0.0 0 0 91.33 112.28"
/>
<path stroke="#533d3e" vector-effect="non-scaling-stroke" d="
  M 134.28 105.60
  C 134.33 101.86 125.54 100.19 122.84 99.86
  A 0.61 0.61 0.0 0 0 122.20 100.70
  C 126.92 112.21 127.92 126.34 127.73 138.56
  A 0.37 0.36 51.8 0 0 128.45 138.65
  C 130.73 127.99 134.14 116.38 134.28 105.60"
/>
<path stroke="#3d504e" vector-effect="non-scaling-stroke" d="
  M 115.92 101.63
  L 105.98 110.59
  Q 105.63 110.90 105.91 111.28
  C 109.32 115.70 112.32 118.63 111.24 124.65
  Q 111.16 125.13 111.44 125.52
  Q 114.79 130.17 114.17 136.06
  Q 114.09 136.82 114.82 136.61
  L 122.12 134.49
  A 0.87 0.86 -10.5 0 0 122.74 133.60
  C 122.06 123.42 120.51 111.01 116.18 101.68
  A 0.17 0.16 -33.1 0 0 115.92 101.63"
/>
<path stroke="#3d504e" vector-effect="non-scaling-stroke" d="
  M 76.42 114.24
  L 69.57 109.65
  Q 68.84 109.15 68.81 110.04
  L 68.35 122.15
  Q 68.34 122.54 68.62 122.27
  L 76.47 114.86
  A 0.40 0.40 0.0 0 0 76.42 114.24"
/>
<path stroke="#98989a" vector-effect="non-scaling-stroke" d="
  M 97.49 111.73
  L 96.06 120.72
  Q 95.92 121.60 96.78 121.38
  L 104.10 119.51
  Q 105.26 119.22 104.46 118.33
  L 98.29 111.49
  A 0.46 0.46 0.0 0 0 97.49 111.73"
/>
<path stroke="#533d3e" vector-effect="non-scaling-stroke" d="
  M 85.74 121.97
  A 0.48 0.48 0.0 0 0 85.72 121.22
  L 81.82 118.25
  A 0.48 0.48 0.0 0 0 81.19 118.29
  L 68.60 130.40
  A 0.48 0.48 0.0 0 0 68.95 131.23
  L 74.45 131.01
  A 0.48 0.48 0.0 0 0 74.73 130.90
  L 85.74 121.97"
/>
<path stroke="#3d504e" vector-effect="non-scaling-stroke" d="
  M 95.53 127.71
  Q 92.94 127.26 91.51 125.09
  Q 91.20 124.63 90.78 124.98
  L 84.09 130.59
  Q 83.60 131.00 84.24 131.00
  L 92.34 131.00
  Q 92.88 131.00 93.25 130.62
  L 95.68 128.19
  Q 96.07 127.81 95.53 127.71"
/>
<path stroke="#927a6d" vector-effect="non-scaling-stroke" d="
  M 62.39 133.92
  L 62.20 129.21
  Q 62.18 128.78 61.74 128.77
  Q 58.75 128.76 56.21 130.31
  Q 55.40 130.80 56.23 131.26
  L 61.75 134.31
  A 0.43 0.43 0.0 0 0 62.39 133.92"
/>
<path stroke="#927a6d" vector-effect="non-scaling-stroke" d="
  M 98.93 136.64
  C 104.38 138.08 111.32 138.97 107.85 130.12
  Q 107.66 129.63 107.13 129.69
  C 104.19 130.01 98.55 131.85 97.83 134.78
  A 1.56 1.55 -75.8 0 0 98.93 136.64"
/>
<path stroke="#533d3e" vector-effect="non-scaling-stroke" d="
  M 92.66 138.33
  L 92.27 137.26
  Q 92.08 136.73 91.52 136.73
  L 69.73 136.79
  Q 68.25 136.80 68.25 138.27
  L 68.25 139.93
  Q 68.25 140.60 68.92 140.60
  L 93.45 140.32
  A 0.45 0.44 -11.6 0 0 93.86 139.71
  Q 93.66 139.20 93.33 139.06
  Q 92.84 138.84 92.66 138.33"
/>
<path stroke="#9c3d44" vector-effect="non-scaling-stroke" d="
  M 116.51 146.72
  C 115.86 145.66 111.57 144.78 110.35 144.66
  Q 109.79 144.61 109.73 145.16
  Q 109.68 145.59 110.04 145.94
  Q 110.38 146.28 110.86 146.36
  L 116.16 147.23
  A 0.34 0.34 0.0 0 0 116.51 146.72"
/>
<path stroke="#9c3d44" vector-effect="non-scaling-stroke" d="
  M 104.5773 146.0063
  A 0.98 0.98 0.0 0 0 103.1941 145.9193
  L 99.8636 148.8555
  A 0.98 0.98 0.0 0 0 99.7766 150.2387
  L 99.8427 150.3137
  A 0.98 0.98 0.0 0 0 101.2259 150.4007
  L 104.5564 147.4645
  A 0.98 0.98 0.0 0 0 104.6434 146.0813
  L 104.5773 146.0063"
/>
<path stroke="#533d3e" vector-effect="non-scaling-stroke" d="
  M 69.63 167.00
  L 84.73 166.73
  A 0.80 0.80 0.0 0 0 85.52 165.92
  C 85.42 159.41 84.01 152.04 92.19 149.58
  Q 92.64 149.44 92.94 149.07
  L 94.92 146.59
  Q 95.32 146.09 94.68 146.10
  L 68.72 146.61
  Q 68.31 146.61 68.29 147.02
  C 67.97 153.53 67.12 159.80 68.67 166.26
  A 0.96 0.96 0.0 0 0 69.63 167.00"
/>
<path stroke="#9c3d44" vector-effect="non-scaling-stroke" d="
  M 118.15 154.07
  Q 115.35 152.53 112.19 152.00
  Q 111.35 151.86 111.51 152.69
  L 111.84 154.44
  Q 111.94 155.00 112.51 155.00
  L 117.67 155.00
  Q 118.06 155.00 118.21 154.63
  Q 118.30 154.42 118.23 154.17
  A 0.21 0.17 12.4 0 0 118.15 154.07"
/>
<path stroke="#9c3d44" vector-effect="non-scaling-stroke" d="
  M 105.17 153.93
  L 100.60 158.57
  Q 99.62 159.55 100.98 159.28
  C 103.02 158.86 108.45 157.11 105.99 153.98
  Q 105.61 153.49 105.17 153.93"
/>
<path stroke="#533d3e" vector-effect="non-scaling-stroke" d="
  M 113.99 160.32
  A 0.61 0.61 0.0 0 0 113.31 160.89
  C 113.11 163.68 109.95 165.05 108.34 162.48
  A 0.69 0.69 0.0 0 0 107.07 162.84
  L 107.07 165.54
  Q 107.07 166.27 107.79 166.36
  Q 114.68 167.18 121.57 166.45
  Q 122.17 166.38 122.19 165.78
  L 122.40 159.73
  Q 122.42 159.31 122.02 159.45
  Q 118.11 160.84 113.99 160.32"
/>
<path stroke="#927a6d" vector-effect="non-scaling-stroke" d="
  M 84.9799 76.3976
  A 2.50 2.50 0.0 0 0 82.4581 73.9195
  L 82.2581 73.9212
  A 2.50 2.50 0.0 0 0 79.7801 76.4430
  L 79.9001 90.2024
  A 2.50 2.50 0.0 0 0 82.4219 92.6805
  L 82.6219 92.6788
  A 2.50 2.50 0.0 0 0 85.0999 90.1570
  L 84.9799 76.3976"
/>
</g>
<g fill="#38383c">
<path d="
  M 111.28 69.38
  Q 117.94 70.56 120.41 76.90
  Q 120.78 77.86 121.02 76.86
  C 122.88 68.95 126.60 70.20 132.47 73.32
  Q 132.95 73.58 133.31 73.18
  Q 134.75 71.57 136.76 72.41
  Q 137.27 72.62 137.53 73.11
  L 138.23 74.38
  Q 138.50 74.89 139.08 74.82
  C 143.87 74.28 154.56 77.04 147.35 83.89
  Q 146.98 84.24 147.29 84.64
  C 153.48 92.86 142.17 95.98 135.85 97.56
  Q 135.03 97.77 135.77 98.19
  C 141.94 101.71 140.24 109.93 138.96 116.49
  Q 136.75 127.87 134.23 139.20
  C 133.11 144.24 131.67 148.26 128.51 150.61
  Q 128.08 150.92 128.11 151.45
  Q 128.65 163.00 127.99 167.50
  C 126.99 174.40 114.59 172.67 108.99 172.25
  Q 102.02 171.73 101.22 165.37
  Q 101.15 164.83 100.60 164.82
  C 95.80 164.78 93.00 160.54 95.76 156.26
  A 0.82 0.82 0.0 0 0 95.12 154.99
  Q 93.10 154.86 91.66 156.23
  Q 91.25 156.61 91.25 157.17
  C 91.24 163.04 93.24 172.46 84.07 172.68
  C 80.36 172.77 69.44 174.05 65.23 170.48
  C 61.28 167.14 62.03 154.40 62.56 149.75
  Q 62.62 149.20 62.09 149.06
  Q 58.45 148.07 55.03 147.21
  C 49.21 145.75 42.47 136.66 39.99 131.23
  C 35.16 120.72 35.98 100.87 45.66 92.92
  Q 48.18 90.85 50.92 91.10
  C 56.12 91.58 56.07 95.84 58.21 99.10
  Q 60.92 103.21 63.15 107.62
  Q 63.78 108.88 63.75 107.47
  Q 63.53 99.63 67.65 92.98
  A 1.89 1.87 -41.8 0 0 67.76 91.19
  C 63.82 82.72 64.07 64.24 69.54 56.20
  C 82.61 36.98 110.88 45.37 110.79 68.79
  Q 110.79 69.29 111.28 69.38
  Z
  M 104.51 64.51
  C 103.01 56.96 97.51 52.25 89.73 51.57
  C 79.23 50.65 75.08 55.83 71.50 64.44
  A 0.80 0.80 0.0 0 0 72.21 65.55
  Q 88.12 66.18 104.01 65.15
  Q 104.62 65.11 104.51 64.51
  Z
  M 112.08 75.27
  Q 109.77 73.83 110.08 76.53
  C 110.60 81.14 106.21 87.68 100.79 84.80
  C 97.01 82.80 96.24 75.84 96.35 72.03
  Q 96.36 71.52 95.86 71.53
  C 87.66 71.69 79.18 71.87 71.02 70.94
  Q 70.47 70.87 70.48 71.43
  C 70.62 77.32 70.25 84.29 72.76 89.33
  C 75.10 94.03 78.84 98.06 84.11 99.25
  C 91.17 100.83 99.95 98.75 102.29 90.93
  C 103.52 86.85 107.25 88.49 109.84 87.54
  C 114.89 85.69 117.86 78.89 112.08 75.27
  Z
  M 101.62 71.98
  L 102.74 78.93
  A 0.77 0.77 0.0 0 0 104.27 78.84
  L 104.58 71.67
  Q 104.61 70.97 103.91 70.98
  L 102.41 71.03
  Q 101.47 71.05 101.62 71.98
  Z
  M 130.81 78.69
  Q 129.29 77.35 127.38 76.86
  Q 126.40 76.61 126.87 77.50
  Q 128.02 79.68 130.13 80.88
  Q 130.59 81.15 131.01 80.82
  C 131.54 80.39 131.93 78.85 130.81 78.69
  Z
  M 136.84 80.37
  L 136.10 83.11
  Q 135.87 83.98 136.70 83.63
  L 142.73 81.08
  A 0.56 0.56 0.0 0 0 142.51 80.00
  L 137.33 80.00
  A 0.52 0.51 -81.6 0 0 136.84 80.37
  Z
  M 128.83 89.24
  C 131.68 86.35 126.40 85.47 124.79 84.38
  A 0.50 0.49 -84.2 0 0 124.06 84.98
  Q 125.23 87.87 127.99 89.36
  Q 128.46 89.61 128.83 89.24
  Z
  M 124.90 93.69
  Q 121.01 91.83 119.38 87.80
  Q 119.14 87.19 118.71 87.69
  L 116.73 90.02
  Q 116.39 90.42 116.69 90.85
  L 119.08 94.26
  Q 119.28 94.56 119.64 94.54
  L 124.79 94.24
  Q 125.91 94.17 124.90 93.69
  Z
  M 142.80 88.32
  C 140.71 88.18 133.08 88.46 134.04 92.05
  Q 134.18 92.56 134.69 92.39
  L 142.97 89.64
  A 0.68 0.68 0.0 0 0 142.80 88.32
  Z
  M 97.24 105.17
  L 101.33 106.59
  Q 101.81 106.76 102.20 106.42
  L 113.13 96.77
  Q 113.56 96.38 113.25 95.89
  L 111.81 93.69
  Q 111.49 93.20 111.06 93.60
  C 106.78 97.56 102.05 101.73 97.21 104.93
  A 0.14 0.14 0.0 0 0 97.24 105.17
  Z
  M 47.43 132.71
  C 51.29 138.18 54.78 142.38 61.94 142.89
  Q 62.49 142.92 62.42 142.38
  L 62.19 140.49
  Q 62.13 139.95 61.60 139.84
  C 47.92 136.91 43.45 121.32 45.58 109.07
  C 46.02 106.54 51.17 99.48 50.70 96.88
  Q 50.58 96.21 50.03 96.60
  C 40.35 103.38 41.45 124.21 47.43 132.71
  Z
  M 91.33 112.28
  C 87.09 109.17 83.68 106.02 78.94 103.72
  Q 75.00 101.81 72.22 98.37
  A 0.65 0.64 -54.1 0 0 71.11 98.55
  L 69.85 101.89
  A 1.31 1.31 0.0 0 0 70.40 103.47
  Q 80.78 109.75 90.25 117.32
  A 0.45 0.45 0.0 0 0 90.98 117.03
  L 91.54 112.78
  A 0.54 0.54 0.0 0 0 91.33 112.28
  Z
  M 134.28 105.60
  C 134.33 101.86 125.54 100.19 122.84 99.86
  A 0.61 0.61 0.0 0 0 122.20 100.70
  C 126.92 112.21 127.92 126.34 127.73 138.56
  A 0.37 0.36 51.8 0 0 128.45 138.65
  C 130.73 127.99 134.14 116.38 134.28 105.60
  Z
  M 115.92 101.63
  L 105.98 110.59
  Q 105.63 110.90 105.91 111.28
  C 109.32 115.70 112.32 118.63 111.24 124.65
  Q 111.16 125.13 111.44 125.52
  Q 114.79 130.17 114.17 136.06
  Q 114.09 136.82 114.82 136.61
  L 122.12 134.49
  A 0.87 0.86 -10.5 0 0 122.74 133.60
  C 122.06 123.42 120.51 111.01 116.18 101.68
  A 0.17 0.16 -33.1 0 0 115.92 101.63
  Z
  M 53.59 104.32
  C 49.41 110.16 50.07 118.99 52.63 125.34
  Q 52.86 125.91 53.36 125.56
  Q 57.21 122.97 61.88 123.26
  Q 62.38 123.29 62.50 122.80
  C 63.88 117.36 57.48 108.85 54.85 103.92
  A 0.66 0.65 55.4 0 0 53.85 103.73
  C 53.79 103.78 53.70 104.17 53.59 104.32
  Z
  M 76.42 114.24
  L 69.57 109.65
  Q 68.84 109.15 68.81 110.04
  L 68.35 122.15
  Q 68.34 122.54 68.62 122.27
  L 76.47 114.86
  A 0.40 0.40 0.0 0 0 76.42 114.24
  Z
  M 97.49 111.73
  L 96.06 120.72
  Q 95.92 121.60 96.78 121.38
  L 104.10 119.51
  Q 105.26 119.22 104.46 118.33
  L 98.29 111.49
  A 0.46 0.46 0.0 0 0 97.49 111.73
  Z
  M 85.74 121.97
  A 0.48 0.48 0.0 0 0 85.72 121.22
  L 81.82 118.25
  A 0.48 0.48 0.0 0 0 81.19 118.29
  L 68.60 130.40
  A 0.48 0.48 0.0 0 0 68.95 131.23
  L 74.45 131.01
  A 0.48 0.48 0.0 0 0 74.73 130.90
  L 85.74 121.97
  Z
  M 95.53 127.71
  Q 92.94 127.26 91.51 125.09
  Q 91.20 124.63 90.78 124.98
  L 84.09 130.59
  Q 83.60 131.00 84.24 131.00
  L 92.34 131.00
  Q 92.88 131.00 93.25 130.62
  L 95.68 128.19
  Q 96.07 127.81 95.53 127.71
  Z
  M 62.39 133.92
  L 62.20 129.21
  Q 62.18 128.78 61.74 128.77
  Q 58.75 128.76 56.21 130.31
  Q 55.40 130.80 56.23 131.26
  L 61.75 134.31
  A 0.43 0.43 0.0 0 0 62.39 133.92
  Z
  M 98.93 136.64
  C 104.38 138.08 111.32 138.97 107.85 130.12
  Q 107.66 129.63 107.13 129.69
  C 104.19 130.01 98.55 131.85 97.83 134.78
  A 1.56 1.55 -75.8 0 0 98.93 136.64
  Z
  M 92.66 138.33
  L 92.27 137.26
  Q 92.08 136.73 91.52 136.73
  L 69.73 136.79
  Q 68.25 136.80 68.25 138.27
  L 68.25 139.93
  Q 68.25 140.60 68.92 140.60
  L 93.45 140.32
  A 0.45 0.44 -11.6 0 0 93.86 139.71
  Q 93.66 139.20 93.33 139.06
  Q 92.84 138.84 92.66 138.33
  Z
  M 116.51 146.72
  C 115.86 145.66 111.57 144.78 110.35 144.66
  Q 109.79 144.61 109.73 145.16
  Q 109.68 145.59 110.04 145.94
  Q 110.38 146.28 110.86 146.36
  L 116.16 147.23
  A 0.34 0.34 0.0 0 0 116.51 146.72
  Z
  M 104.5773 146.0063
  A 0.98 0.98 0.0 0 0 103.1941 145.9193
  L 99.8636 148.8555
  A 0.98 0.98 0.0 0 0 99.7766 150.2387
  L 99.8427 150.3137
  A 0.98 0.98 0.0 0 0 101.2259 150.4007
  L 104.5564 147.4645
  A 0.98 0.98 0.0 0 0 104.6434 146.0813
  L 104.5773 146.0063
  Z
  M 69.63 167.00
  L 84.73 166.73
  A 0.80 0.80 0.0 0 0 85.52 165.92
  C 85.42 159.41 84.01 152.04 92.19 149.58
  Q 92.64 149.44 92.94 149.07
  L 94.92 146.59
  Q 95.32 146.09 94.68 146.10
  L 68.72 146.61
  Q 68.31 146.61 68.29 147.02
  C 67.97 153.53 67.12 159.80 68.67 166.26
  A 0.96 0.96 0.0 0 0 69.63 167.00
  Z
  M 118.15 154.07
  Q 115.35 152.53 112.19 152.00
  Q 111.35 151.86 111.51 152.69
  L 111.84 154.44
  Q 111.94 155.00 112.51 155.00
  L 117.67 155.00
  Q 118.06 155.00 118.21 154.63
  Q 118.30 154.42 118.23 154.17
  A 0.21 0.17 12.4 0 0 118.15 154.07
  Z
  M 105.17 153.93
  L 100.60 158.57
  Q 99.62 159.55 100.98 159.28
  C 103.02 158.86 108.45 157.11 105.99 153.98
  Q 105.61 153.49 105.17 153.93
  Z
  M 113.99 160.32
  A 0.61 0.61 0.0 0 0 113.31 160.89
  C 113.11 163.68 109.95 165.05 108.34 162.48
  A 0.69 0.69 0.0 0 0 107.07 162.84
  L 107.07 165.54
  Q 107.07 166.27 107.79 166.36
  Q 114.68 167.18 121.57 166.45
  Q 122.17 166.38 122.19 165.78
  L 122.40 159.73
  Q 122.42 159.31 122.02 159.45
  Q 118.11 160.84 113.99 160.32
  Z"
/>
<rect x="-2.60" y="-9.38" transform="translate(82.44,83.30) rotate(-0.5)" width="5.20" height="18.76" rx="2.50"/>
</g>
<g fill="#ebbc9e">
<path d="
  M 112.08 75.27
  C 117.86 78.89 114.89 85.69 109.84 87.54
  C 107.25 88.49 103.52 86.85 102.29 90.93
  C 99.95 98.75 91.17 100.83 84.11 99.25
  C 78.84 98.06 75.10 94.03 72.76 89.33
  C 70.25 84.29 70.62 77.32 70.48 71.43
  Q 70.47 70.87 71.02 70.94
  C 79.18 71.87 87.66 71.69 95.86 71.53
  Q 96.36 71.52 96.35 72.03
  C 96.24 75.84 97.01 82.80 100.79 84.80
  C 106.21 87.68 110.60 81.14 110.08 76.53
  Q 109.77 73.83 112.08 75.27
  Z
  M 84.9799 76.3976
  A 2.50 2.50 0.0 0 0 82.4581 73.9195
  L 82.2581 73.9212
  A 2.50 2.50 0.0 0 0 79.7801 76.4430
  L 79.9001 90.2024
  A 2.50 2.50 0.0 0 0 82.4219 92.6805
  L 82.6219 92.6788
  A 2.50 2.50 0.0 0 0 85.0999 90.1570
  L 84.9799 76.3976
  Z"
/>
<path d="
  M 62.39 133.92
  A 0.43 0.43 0.0 0 1 61.75 134.31
  L 56.23 131.26
  Q 55.40 130.80 56.21 130.31
  Q 58.75 128.76 61.74 128.77
  Q 62.18 128.78 62.20 129.21
  L 62.39 133.92
  Z"
/>
<path d="
  M 98.93 136.64
  A 1.56 1.55 -75.8 0 1 97.83 134.78
  C 98.55 131.85 104.19 130.01 107.13 129.69
  Q 107.66 129.63 107.85 130.12
  C 111.32 138.97 104.38 138.08 98.93 136.64
  Z"
/>
</g>
<g fill="#6e423f">
<path d="
  M 89.73 51.57
  C 97.51 52.25 103.01 56.96 104.51 64.51
  Q 104.62 65.11 104.01 65.15
  Q 88.12 66.18 72.21 65.55
  A 0.80 0.80 0.0 0 1 71.50 64.44
  C 75.08 55.83 79.23 50.65 89.73 51.57
  Z"
/>
<path d="
  M 102.41 71.03
  L 103.91 70.98
  Q 104.61 70.97 104.58 71.67
  L 104.27 78.84
  A 0.77 0.77 0.0 0 1 102.74 78.93
  L 101.62 71.98
  Q 101.47 71.05 102.41 71.03
  Z"
/>
<path d="
  M 97.24 105.17
  A 0.14 0.14 0.0 0 1 97.21 104.93
  C 102.05 101.73 106.78 97.56 111.06 93.60
  Q 111.49 93.20 111.81 93.69
  L 113.25 95.89
  Q 113.56 96.38 113.13 96.77
  L 102.20 106.42
  Q 101.81 106.76 101.33 106.59
  L 97.24 105.17
  Z"
/>
<path d="
  M 61.94 142.89
  C 54.78 142.38 51.29 138.18 47.43 132.71
  C 41.45 124.21 40.35 103.38 50.03 96.60
  Q 50.58 96.21 50.70 96.88
  C 51.17 99.48 46.02 106.54 45.58 109.07
  C 43.45 121.32 47.92 136.91 61.60 139.84
  Q 62.13 139.95 62.19 140.49
  L 62.42 142.38
  Q 62.49 142.92 61.94 142.89
  Z"
/>
<path d="
  M 91.33 112.28
  A 0.54 0.54 0.0 0 1 91.54 112.78
  L 90.98 117.03
  A 0.45 0.45 0.0 0 1 90.25 117.32
  Q 80.78 109.75 70.40 103.47
  A 1.31 1.31 0.0 0 1 69.85 101.89
  L 71.11 98.55
  A 0.65 0.64 -54.1 0 1 72.22 98.37
  Q 75.00 101.81 78.94 103.72
  C 83.68 106.02 87.09 109.17 91.33 112.28
  Z"
/>
<path d="
  M 122.84 99.86
  C 125.54 100.19 134.33 101.86 134.28 105.60
  C 134.14 116.38 130.73 127.99 128.45 138.65
  A 0.37 0.36 51.8 0 1 127.73 138.56
  C 127.92 126.34 126.92 112.21 122.20 100.70
  A 0.61 0.61 0.0 0 1 122.84 99.86
  Z"
/>
<path d="
  M 85.74 121.97
  L 74.73 130.90
  A 0.48 0.48 0.0 0 1 74.45 131.01
  L 68.95 131.23
  A 0.48 0.48 0.0 0 1 68.60 130.40
  L 81.19 118.29
  A 0.48 0.48 0.0 0 1 81.82 118.25
  L 85.72 121.22
  A 0.48 0.48 0.0 0 1 85.74 121.97
  Z"
/>
<path d="
  M 93.33 139.06
  Q 93.66 139.20 93.86 139.71
  A 0.45 0.44 -11.6 0 1 93.45 140.32
  L 68.92 140.60
  Q 68.25 140.60 68.25 139.93
  L 68.25 138.27
  Q 68.25 136.80 69.73 136.79
  L 91.52 136.73
  Q 92.08 136.73 92.27 137.26
  L 92.66 138.33
  Q 92.84 138.84 93.33 139.06
  Z"
/>
<path d="
  M 69.63 167.00
  A 0.96 0.96 0.0 0 1 68.67 166.26
  C 67.12 159.80 67.97 153.53 68.29 147.02
  Q 68.31 146.61 68.72 146.61
  L 94.68 146.10
  Q 95.32 146.09 94.92 146.59
  L 92.94 149.07
  Q 92.64 149.44 92.19 149.58
  C 84.01 152.04 85.42 159.41 85.52 165.92
  A 0.80 0.80 0.0 0 1 84.73 166.73
  L 69.63 167.00
  Z"
/>
<path d="
  M 113.99 160.32
  Q 118.11 160.84 122.02 159.45
  Q 122.42 159.31 122.40 159.73
  L 122.19 165.78
  Q 122.17 166.38 121.57 166.45
  Q 114.68 167.18 107.79 166.36
  Q 107.07 166.27 107.07 165.54
  L 107.07 162.84
  A 0.69 0.69 0.0 0 1 108.34 162.48
  C 109.95 165.05 113.11 163.68 113.31 160.89
  A 0.61 0.61 0.0 0 1 113.99 160.32
  Z"
/>
</g>
<g fill="#42685f">
<path d="
  M 115.92 101.63
  A 0.17 0.16 -33.1 0 1 116.18 101.68
  C 120.51 111.01 122.06 123.42 122.74 133.60
  A 0.87 0.86 -10.5 0 1 122.12 134.49
  L 114.82 136.61
  Q 114.09 136.82 114.17 136.06
  Q 114.79 130.17 111.44 125.52
  Q 111.16 125.13 111.24 124.65
  C 112.32 118.63 109.32 115.70 105.91 111.28
  Q 105.63 110.90 105.98 110.59
  L 115.92 101.63
  Z"
/>
<path d="
  M 76.42 114.24
  A 0.40 0.40 0.0 0 1 76.47 114.86
  L 68.62 122.27
  Q 68.34 122.54 68.35 122.15
  L 68.81 110.04
  Q 68.84 109.15 69.57 109.65
  L 76.42 114.24
  Z"
/>
<path d="
  M 95.53 127.71
  Q 96.07 127.81 95.68 128.19
  L 93.25 130.62
  Q 92.88 131.00 92.34 131.00
  L 84.24 131.00
  Q 83.60 131.00 84.09 130.59
  L 90.78 124.98
  Q 91.20 124.63 91.51 125.09
  Q 92.94 127.26 95.53 127.71
  Z"
/>
</g>
<g fill="#ff424c">
<path d="
  M 130.81 78.69
  C 131.93 78.85 131.54 80.39 131.01 80.82
  Q 130.59 81.15 130.13 80.88
  Q 128.02 79.68 126.87 77.50
  Q 126.40 76.61 127.38 76.86
  Q 129.29 77.35 130.81 78.69
  Z"
/>
<path d="
  M 136.84 80.37
  A 0.52 0.51 -81.6 0 1 137.33 80.00
  L 142.51 80.00
  A 0.56 0.56 0.0 0 1 142.73 81.08
  L 136.70 83.63
  Q 135.87 83.98 136.10 83.11
  L 136.84 80.37
  Z"
/>
<path d="
  M 124.79 84.38
  C 126.40 85.47 131.68 86.35 128.83 89.24
  Q 128.46 89.61 127.99 89.36
  Q 125.23 87.87 124.06 84.98
  A 0.50 0.49 -84.2 0 1 124.79 84.38
  Z"
/>
<path d="
  M 142.80 88.32
  A 0.68 0.68 0.0 0 1 142.97 89.64
  L 134.69 92.39
  Q 134.18 92.56 134.04 92.05
  C 133.08 88.46 140.71 88.18 142.80 88.32
  Z"
/>
<path d="
  M 110.35 144.66
  C 111.57 144.78 115.86 145.66 116.51 146.72
  A 0.34 0.34 0.0 0 1 116.16 147.23
  L 110.86 146.36
  Q 110.38 146.28 110.04 145.94
  Q 109.68 145.59 109.73 145.16
  Q 109.79 144.61 110.35 144.66
  Z"
/>
<rect x="-3.20" y="-1.03" transform="translate(102.21,148.16) rotate(-41.4)" width="6.40" height="2.06" rx="0.98"/>
<path d="
  M 118.15 154.07
  A 0.21 0.17 12.4 0 1 118.23 154.17
  Q 118.30 154.42 118.21 154.63
  Q 118.06 155.00 117.67 155.00
  L 112.51 155.00
  Q 111.94 155.00 111.84 154.44
  L 111.51 152.69
  Q 111.35 151.86 112.19 152.00
  Q 115.35 152.53 118.15 154.07
  Z"
/>
<path d="
  M 105.99 153.98
  C 108.45 157.11 103.02 158.86 100.98 159.28
  Q 99.62 159.55 100.60 158.57
  L 105.17 153.93
  Q 105.61 153.49 105.99 153.98
  Z"
/>
</g>
<path fill="#f8f8f8" d="
  M 97.49 111.73
  A 0.46 0.46 0.0 0 1 98.29 111.49
  L 104.46 118.33
  Q 105.26 119.22 104.10 119.51
  L 96.78 121.38
  Q 95.92 121.60 96.06 120.72
  L 97.49 111.73
  Z"
/>
</svg>
