<?xml version="1.0" encoding="UTF-8" standalone="no"?>
<!DOCTYPE svg PUBLIC "-//W3C//DTD SVG 1.1//EN" "http://www.w3.org/Graphics/SVG/1.1/DTD/svg11.dtd">
<svg xmlns="http://www.w3.org/2000/svg" version="1.1" viewBox="0 0 180 180">
<g stroke-width="2.00" fill="none" stroke-linecap="butt">
<path stroke="#533d3e" vector-effect="non-scaling-stroke" d="
  M 104.47 62.29
  C 101.37 54.74 96.05 50.07 87.79 50.22
  C 79.40 50.37 73.57 55.77 71.65 63.81
  A 0.61 0.60 -82.4 0 0 72.21 64.55
  Q 87.74 65.18 103.29 64.18
  Q 105.20 64.06 104.47 62.29"
/>
<path stroke="#927a6d" vector-effect="non-scaling-stroke" d="
  M 112.29 74.36
  Q 109.97 72.71 110.18 75.55
  C 110.46 79.12 108.19 83.74 104.18 84.34
  C 96.97 85.43 96.55 75.26 96.21 71.01
  Q 96.18 70.58 95.75 70.58
  C 87.59 70.70 79.13 70.86 71.01 69.94
  Q 70.45 69.87 70.47 70.44
  C 70.68 76.14 70.29 82.98 72.55 87.87
  C 77.83 99.27 90.47 102.48 100.22 94.21
  C 103.19 91.69 101.11 86.89 106.43 87.06
  C 113.17 87.27 119.07 79.19 112.29 74.36"
/>
<path stroke="#533d3e" vector-effect="non-scaling-stroke" d="
  M 104.21 78.06
  L 104.60 70.54
  Q 104.63 69.93 104.03 69.97
  L 102.17 70.08
  Q 101.49 70.12 101.60 70.79
  L 102.81 78.14
  A 0.71 0.70 -48.2 0 0 104.21 78.06"
/>
<path stroke="#533d3e" vector-effect="non-scaling-stroke" d="
  M 42.07 73.49
  Q 39.14 73.11 37.51 76.09
  C 33.71 83.05 35.77 95.62 38.59 103.30
  Q 45.88 123.11 52.60 143.12
  Q 52.78 143.64 53.32 143.54
  L 54.51 143.30
  Q 55.21 143.17 55.15 142.46
  Q 52.57 113.20 49.24 84.07
  C 48.80 80.23 46.61 74.09 42.07 73.49"
/>
<path stroke="#533d3e" vector-effect="non-scaling-stroke" d="
  M 102.97 99.90
  L 109.10 98.99
  Q 109.61 98.92 109.99 98.57
  L 113.16 95.65
  Q 113.60 95.24 113.25 94.75
  L 111.84 92.80
  Q 111.41 92.20 110.85 92.69
  L 102.85 99.65
  A 0.15 0.14 20.0 0 0 102.97 99.90"
/>
<path stroke="#533d3e" vector-effect="non-scaling-stroke" d="
  M 88.81 109.44
  Q 83.80 104.88 77.69 102.06
  Q 75.34 100.98 71.99 97.11
  Q 71.44 96.48 71.15 97.27
  L 69.77 101.04
  Q 69.53 101.70 70.11 102.09
  L 86.65 113.29
  Q 87.08 113.57 87.35 113.14
  L 89.30 110.04
  Q 89.46 109.79 89.23 109.61
  Q 89.00 109.43 88.81 109.44"
/>
<path stroke="#533d3e" vector-effect="non-scaling-stroke" d="
  M 130.40 131.50
  C 128.78 134.17 124.68 134.74 124.74 130.65
  Q 124.74 130.13 125.09 129.73
  L 130.04 123.98
  Q 130.44 123.52 130.29 122.94
  L 128.64 116.22
  Q 128.49 115.63 128.06 116.05
  Q 121.48 122.50 114.44 128.43
  C 112.38 130.18 109.88 129.04 109.78 126.44
  Q 109.76 125.96 110.06 125.58
  C 114.26 120.25 120.10 116.17 124.73 111.03
  Q 125.12 110.60 124.65 110.24
  L 120.37 106.97
  Q 119.89 106.60 119.46 107.02
  C 117.59 108.82 109.99 116.72 107.42 114.03
  C 104.82 111.32 111.38 106.95 113.13 105.80
  A 0.71 0.71 0.0 0 0 112.71 104.50
  C 99.22 105.00 90.75 113.33 88.78 126.27
  Q 88.68 126.91 89.29 126.68
  Q 92.45 125.46 93.02 129.01
  A 1.99 1.99 0.0 0 1 92.29 130.88
  L 89.42 133.15
  Q 88.87 133.58 89.16 134.22
  L 91.96 140.50
  Q 92.24 141.12 92.73 140.66
  Q 97.29 136.37 101.69 131.94
  C 105.47 128.15 108.52 134.05 105.25 136.79
  Q 100.76 140.53 96.68 144.67
  Q 96.26 145.10 96.79 145.36
  L 102.27 148.06
  Q 102.80 148.32 103.25 147.93
  Q 107.91 143.87 117.06 136.32
  C 120.68 133.33 124.40 137.32 120.34 140.66
  Q 115.58 144.59 110.79 148.62
  Q 110.26 149.06 110.95 149.14
  Q 121.48 150.31 127.66 142.70
  C 130.16 139.62 130.71 135.68 131.22 131.79
  A 0.44 0.44 0.0 0 0 130.40 131.50"
/>
<path stroke="#3d504e" vector-effect="non-scaling-stroke" d="
  M 76.42 113.22
  L 69.61 108.61
  Q 68.82 108.08 68.79 109.03
  L 68.40 120.94
  Q 68.38 121.51 68.79 121.12
  L 76.47 113.84
  A 0.40 0.40 0.0 0 0 76.42 113.22"
/>
<path stroke="#533d3e" vector-effect="non-scaling-stroke" d="
  M 74.56 129.84
  C 76.61 128.73 83.33 123.93 84.39 120.17
  Q 84.53 119.66 84.16 119.28
  L 82.21 117.34
  Q 81.68 116.81 81.14 117.33
  L 68.66 129.33
  Q 68.15 129.83 68.84 130.01
  Q 72.54 130.94 74.56 129.84"
/>
<path stroke="#927a6d" vector-effect="non-scaling-stroke" d="
  M 62.35 128.52
  Q 62.50 128.36 62.52 128.19
  Q 62.57 127.70 62.08 127.73
  L 60.31 127.82
  Q 59.61 127.85 59.66 128.55
  L 60.10 134.02
  Q 60.16 134.71 60.84 134.73
  L 61.74 134.76
  Q 62.25 134.78 62.25 134.26
  L 62.25 128.79
  Q 62.25 128.63 62.35 128.52"
/>
<path stroke="#533d3e" vector-effect="non-scaling-stroke" d="
  M 68.89 135.75
  A 0.64 0.64 0.0 0 0 68.25 136.39
  L 68.25 138.86
  A 0.64 0.64 0.0 0 0 68.89 139.50
  L 83.98 139.50
  A 0.64 0.64 0.0 0 0 84.59 138.68
  L 83.87 136.21
  A 0.64 0.64 0.0 0 0 83.26 135.75
  L 68.89 135.75"
/>
<path stroke="#533d3e" vector-effect="non-scaling-stroke" d="
  M 91.18 148.22
  L 88.53 145.57
  Q 88.23 145.27 87.82 145.27
  L 68.61 145.51
  Q 68.21 145.51 68.05 145.88
  Q 67.91 146.22 68.13 146.56
  Q 68.44 147.01 68.35 147.55
  Q 67.06 156.15 68.44 164.69
  Q 68.52 165.20 68.99 165.43
  C 72.39 167.04 80.67 165.74 84.67 165.72
  A 0.87 0.86 -1.0 0 0 85.53 164.84
  C 85.40 159.53 84.14 151.31 90.92 149.27
  Q 91.92 148.97 91.18 148.22"
/>
<path stroke="#533d3e" vector-effect="non-scaling-stroke" d="
  M 122.01 153.87
  C 116.21 155.60 112.00 154.70 106.35 154.67
  Q 105.76 154.67 105.93 155.24
  Q 107.19 159.47 106.79 163.95
  A 1.36 1.36 0.0 0 0 108.00 165.42
  Q 114.81 166.12 121.65 165.48
  Q 122.17 165.44 122.19 164.91
  L 122.56 154.30
  Q 122.58 153.70 122.01 153.87"
/>
<path stroke="#927a6d" vector-effect="non-scaling-stroke" d="
  M 84.97 75.49
  A 2.47 2.47 0.0 0 0 82.50 73.02
  L 82.32 73.02
  A 2.47 2.47 0.0 0 0 79.85 75.49
  L 79.85 89.23
  A 2.47 2.47 0.0 0 0 82.32 91.70
  L 82.50 91.70
  A 2.47 2.47 0.0 0 0 84.97 89.23
  L 84.97 75.49"
/>
<path stroke="#533d3e" vector-effect="non-scaling-stroke" d="
  M 103.3681 117.2939
  A 2.48 2.48 0.0 0 0 99.8770 116.9578
  L 95.2936 120.7361
  A 2.48 2.48 0.0 0 0 94.9574 124.2272
  L 95.0719 124.3661
  A 2.48 2.48 0.0 0 0 98.5630 124.7022
  L 103.1464 120.9239
  A 2.48 2.48 0.0 0 0 103.4826 117.4328
  L 103.3681 117.2939"
/>
</g>
<g fill="#38383c">
<path d="
  M 59.78 122.26
  L 62.07 122.23
  Q 62.81 122.22 62.79 121.49
  C 62.59 109.85 63.18 100.71 67.73 91.57
  Q 67.97 91.09 67.77 90.60
  C 64.04 81.21 63.84 64.05 69.52 55.21
  C 79.65 39.47 100.78 41.67 109.19 58.00
  Q 110.63 60.80 110.74 67.71
  Q 110.75 68.26 111.28 68.36
  C 121.97 70.55 123.76 81.55 116.79 88.89
  Q 116.40 89.30 116.72 89.78
  Q 120.36 95.17 122.72 101.27
  Q 122.91 101.77 123.37 102.04
  C 136.15 109.67 138.70 126.59 135.62 139.86
  C 134.61 144.25 131.59 147.36 128.50 150.41
  Q 128.13 150.78 128.15 151.29
  C 128.41 158.38 130.31 170.48 122.52 171.32
  Q 114.14 172.22 107.57 171.14
  C 100.00 169.89 101.88 163.93 100.70 158.55
  C 99.72 154.06 96.07 152.66 92.09 154.70
  A 1.87 1.86 -15.5 0 0 91.08 156.48
  C 91.33 160.09 91.89 165.86 90.15 168.68
  C 87.49 172.99 77.62 171.75 71.76 171.69
  C 67.39 171.65 63.72 169.88 63.12 165.29
  C 62.88 163.46 62.20 161.68 62.22 159.87
  Q 62.36 151.06 62.54 142.26
  Q 62.55 141.82 62.44 141.40
  Q 62.19 140.39 61.39 140.48
  Q 60.84 140.54 60.82 141.09
  L 60.61 145.82
  Q 60.58 146.41 60.13 146.80
  C 57.14 149.35 49.47 151.18 47.67 145.90
  Q 41.07 126.57 33.92 107.42
  C 30.04 97.03 26.62 80.35 33.75 71.63
  C 37.15 67.49 43.75 66.47 48.08 69.71
  C 52.66 73.16 55.00 81.23 55.50 86.76
  Q 57.35 107.34 59.12 121.69
  Q 59.19 122.26 59.78 122.26
  Z
  M 104.47 62.29
  C 101.37 54.74 96.05 50.07 87.79 50.22
  C 79.40 50.37 73.57 55.77 71.65 63.81
  A 0.61 0.60 -82.4 0 0 72.21 64.55
  Q 87.74 65.18 103.29 64.18
  Q 105.20 64.06 104.47 62.29
  Z
  M 112.29 74.36
  Q 109.97 72.71 110.18 75.55
  C 110.46 79.12 108.19 83.74 104.18 84.34
  C 96.97 85.43 96.55 75.26 96.21 71.01
  Q 96.18 70.58 95.75 70.58
  C 87.59 70.70 79.13 70.86 71.01 69.94
  Q 70.45 69.87 70.47 70.44
  C 70.68 76.14 70.29 82.98 72.55 87.87
  C 77.83 99.27 90.47 102.48 100.22 94.21
  C 103.19 91.69 101.11 86.89 106.43 87.06
  C 113.17 87.27 119.07 79.19 112.29 74.36
  Z
  M 104.21 78.06
  L 104.60 70.54
  Q 104.63 69.93 104.03 69.97
  L 102.17 70.08
  Q 101.49 70.12 101.60 70.79
  L 102.81 78.14
  A 0.71 0.70 -48.2 0 0 104.21 78.06
  Z
  M 42.07 73.49
  Q 39.14 73.11 37.51 76.09
  C 33.71 83.05 35.77 95.62 38.59 103.30
  Q 45.88 123.11 52.60 143.12
  Q 52.78 143.64 53.32 143.54
  L 54.51 143.30
  Q 55.21 143.17 55.15 142.46
  Q 52.57 113.20 49.24 84.07
  C 48.80 80.23 46.61 74.09 42.07 73.49
  Z
  M 102.97 99.90
  L 109.10 98.99
  Q 109.61 98.92 109.99 98.57
  L 113.16 95.65
  Q 113.60 95.24 113.25 94.75
  L 111.84 92.80
  Q 111.41 92.20 110.85 92.69
  L 102.85 99.65
  A 0.15 0.14 20.0 0 0 102.97 99.90
  Z
  M 88.81 109.44
  Q 83.80 104.88 77.69 102.06
  Q 75.34 100.98 71.99 97.11
  Q 71.44 96.48 71.15 97.27
  L 69.77 101.04
  Q 69.53 101.70 70.11 102.09
  L 86.65 113.29
  Q 87.08 113.57 87.35 113.14
  L 89.30 110.04
  Q 89.46 109.79 89.23 109.61
  Q 89.00 109.43 88.81 109.44
  Z
  M 130.40 131.50
  C 128.78 134.17 124.68 134.74 124.74 130.65
  Q 124.74 130.13 125.09 129.73
  L 130.04 123.98
  Q 130.44 123.52 130.29 122.94
  L 128.64 116.22
  Q 128.49 115.63 128.06 116.05
  Q 121.48 122.50 114.44 128.43
  C 112.38 130.18 109.88 129.04 109.78 126.44
  Q 109.76 125.96 110.06 125.58
  C 114.26 120.25 120.10 116.17 124.73 111.03
  Q 125.12 110.60 124.65 110.24
  L 120.37 106.97
  Q 119.89 106.60 119.46 107.02
  C 117.59 108.82 109.99 116.72 107.42 114.03
  C 104.82 111.32 111.38 106.95 113.13 105.80
  A 0.71 0.71 0.0 0 0 112.71 104.50
  C 99.22 105.00 90.75 113.33 88.78 126.27
  Q 88.68 126.91 89.29 126.68
  Q 92.45 125.46 93.02 129.01
  A 1.99 1.99 0.0 0 1 92.29 130.88
  L 89.42 133.15
  Q 88.87 133.58 89.16 134.22
  L 91.96 140.50
  Q 92.24 141.12 92.73 140.66
  Q 97.29 136.37 101.69 131.94
  C 105.47 128.15 108.52 134.05 105.25 136.79
  Q 100.76 140.53 96.68 144.67
  Q 96.26 145.10 96.79 145.36
  L 102.27 148.06
  Q 102.80 148.32 103.25 147.93
  Q 107.91 143.87 117.06 136.32
  C 120.68 133.33 124.40 137.32 120.34 140.66
  Q 115.58 144.59 110.79 148.62
  Q 110.26 149.06 110.95 149.14
  Q 121.48 150.31 127.66 142.70
  C 130.16 139.62 130.71 135.68 131.22 131.79
  A 0.44 0.44 0.0 0 0 130.40 131.50
  Z
  M 76.42 113.22
  L 69.61 108.61
  Q 68.82 108.08 68.79 109.03
  L 68.40 120.94
  Q 68.38 121.51 68.79 121.12
  L 76.47 113.84
  A 0.40 0.40 0.0 0 0 76.42 113.22
  Z
  M 74.56 129.84
  C 76.61 128.73 83.33 123.93 84.39 120.17
  Q 84.53 119.66 84.16 119.28
  L 82.21 117.34
  Q 81.68 116.81 81.14 117.33
  L 68.66 129.33
  Q 68.15 129.83 68.84 130.01
  Q 72.54 130.94 74.56 129.84
  Z
  M 62.35 128.52
  Q 62.50 128.36 62.52 128.19
  Q 62.57 127.70 62.08 127.73
  L 60.31 127.82
  Q 59.61 127.85 59.66 128.55
  L 60.10 134.02
  Q 60.16 134.71 60.84 134.73
  L 61.74 134.76
  Q 62.25 134.78 62.25 134.26
  L 62.25 128.79
  Q 62.25 128.63 62.35 128.52
  Z
  M 68.89 135.75
  A 0.64 0.64 0.0 0 0 68.25 136.39
  L 68.25 138.86
  A 0.64 0.64 0.0 0 0 68.89 139.50
  L 83.98 139.50
  A 0.64 0.64 0.0 0 0 84.59 138.68
  L 83.87 136.21
  A 0.64 0.64 0.0 0 0 83.26 135.75
  L 68.89 135.75
  Z
  M 91.18 148.22
  L 88.53 145.57
  Q 88.23 145.27 87.82 145.27
  L 68.61 145.51
  Q 68.21 145.51 68.05 145.88
  Q 67.91 146.22 68.13 146.56
  Q 68.44 147.01 68.35 147.55
  Q 67.06 156.15 68.44 164.69
  Q 68.52 165.20 68.99 165.43
  C 72.39 167.04 80.67 165.74 84.67 165.72
  A 0.87 0.86 -1.0 0 0 85.53 164.84
  C 85.40 159.53 84.14 151.31 90.92 149.27
  Q 91.92 148.97 91.18 148.22
  Z
  M 122.01 153.87
  C 116.21 155.60 112.00 154.70 106.35 154.67
  Q 105.76 154.67 105.93 155.24
  Q 107.19 159.47 106.79 163.95
  A 1.36 1.36 0.0 0 0 108.00 165.42
  Q 114.81 166.12 121.65 165.48
  Q 122.17 165.44 122.19 164.91
  L 122.56 154.30
  Q 122.58 153.70 122.01 153.87
  Z"
/>
<rect x="79.85" y="73.02" width="5.12" height="18.68" rx="2.47"/>
<rect x="-5.45" y="-2.57" transform="translate(99.22,120.83) rotate(-39.5)" width="10.90" height="5.14" rx="2.48"/>
</g>
<g fill="#ebbc9e">
<path d="
  M 112.29 74.36
  C 119.07 79.19 113.17 87.27 106.43 87.06
  C 101.11 86.89 103.19 91.69 100.22 94.21
  C 90.47 102.48 77.83 99.27 72.55 87.87
  C 70.29 82.98 70.68 76.14 70.47 70.44
  Q 70.45 69.87 71.01 69.94
  C 79.13 70.86 87.59 70.70 95.75 70.58
  Q 96.18 70.58 96.21 71.01
  C 96.55 75.26 96.97 85.43 104.18 84.34
  C 108.19 83.74 110.46 79.12 110.18 75.55
  Q 109.97 72.71 112.29 74.36
  Z
  M 84.97 75.49
  A 2.47 2.47 0.0 0 0 82.50 73.02
  L 82.32 73.02
  A 2.47 2.47 0.0 0 0 79.85 75.49
  L 79.85 89.23
  A 2.47 2.47 0.0 0 0 82.32 91.70
  L 82.50 91.70
  A 2.47 2.47 0.0 0 0 84.97 89.23
  L 84.97 75.49
  Z"
/>
<path d="
  M 62.25 128.79
  L 62.25 134.26
  Q 62.25 134.78 61.74 134.76
  L 60.84 134.73
  Q 60.16 134.71 60.10 134.02
  L 59.66 128.55
  Q 59.61 127.85 60.31 127.82
  L 62.08 127.73
  Q 62.57 127.70 62.52 128.19
  Q 62.50 128.36 62.35 128.52
  Q 62.25 128.63 62.25 128.79
  Z"
/>
</g>
<g fill="#6e423f">
<path d="
  M 87.79 50.22
  C 96.05 50.07 101.37 54.74 104.47 62.29
  Q 105.20 64.06 103.29 64.18
  Q 87.74 65.18 72.21 64.55
  A 0.61 0.60 -82.4 0 1 71.65 63.81
  C 73.57 55.77 79.40 50.37 87.79 50.22
  Z"
/>
<path d="
  M 104.21 78.06
  A 0.71 0.70 -48.2 0 1 102.81 78.14
  L 101.60 70.79
  Q 101.49 70.12 102.17 70.08
  L 104.03 69.97
  Q 104.63 69.93 104.60 70.54
  L 104.21 78.06
  Z"
/>
<path d="
  M 42.07 73.49
  C 46.61 74.09 48.80 80.23 49.24 84.07
  Q 52.57 113.20 55.15 142.46
  Q 55.21 143.17 54.51 143.30
  L 53.32 143.54
  Q 52.78 143.64 52.60 143.12
  Q 45.88 123.11 38.59 103.30
  C 35.77 95.62 33.71 83.05 37.51 76.09
  Q 39.14 73.11 42.07 73.49
  Z"
/>
<path d="
  M 102.97 99.90
  A 0.15 0.14 20.0 0 1 102.85 99.65
  L 110.85 92.69
  Q 111.41 92.20 111.84 92.80
  L 113.25 94.75
  Q 113.60 95.24 113.16 95.65
  L 109.99 98.57
  Q 109.61 98.92 109.10 98.99
  L 102.97 99.90
  Z"
/>
<path d="
  M 88.81 109.44
  Q 89.00 109.43 89.23 109.61
  Q 89.46 109.79 89.30 110.04
  L 87.35 113.14
  Q 87.08 113.57 86.65 113.29
  L 70.11 102.09
  Q 69.53 101.70 69.77 101.04
  L 71.15 97.27
  Q 71.44 96.48 71.99 97.11
  Q 75.34 100.98 77.69 102.06
  Q 83.80 104.88 88.81 109.44
  Z"
/>
<path d="
  M 124.74 130.65
  C 124.68 134.74 128.78 134.17 130.40 131.50
  A 0.44 0.44 0.0 0 1 131.22 131.79
  C 130.71 135.68 130.16 139.62 127.66 142.70
  Q 121.48 150.31 110.95 149.14
  Q 110.26 149.06 110.79 148.62
  Q 115.58 144.59 120.34 140.66
  C 124.40 137.32 120.68 133.33 117.06 136.32
  Q 107.91 143.87 103.25 147.93
  Q 102.80 148.32 102.27 148.06
  L 96.79 145.36
  Q 96.26 145.10 96.68 144.67
  Q 100.76 140.53 105.25 136.79
  C 108.52 134.05 105.47 128.15 101.69 131.94
  Q 97.29 136.37 92.73 140.66
  Q 92.24 141.12 91.96 140.50
  L 89.16 134.22
  Q 88.87 133.58 89.42 133.15
  L 92.29 130.88
  A 1.99 1.99 0.0 0 0 93.02 129.01
  Q 92.45 125.46 89.29 126.68
  Q 88.68 126.91 88.78 126.27
  C 90.75 113.33 99.22 105.00 112.71 104.50
  A 0.71 0.71 0.0 0 1 113.13 105.80
  C 111.38 106.95 104.82 111.32 107.42 114.03
  C 109.99 116.72 117.59 108.82 119.46 107.02
  Q 119.89 106.60 120.37 106.97
  L 124.65 110.24
  Q 125.12 110.60 124.73 111.03
  C 120.10 116.17 114.26 120.25 110.06 125.58
  Q 109.76 125.96 109.78 126.44
  C 109.88 129.04 112.38 130.18 114.44 128.43
  Q 121.48 122.50 128.06 116.05
  Q 128.49 115.63 128.64 116.22
  L 130.29 122.94
  Q 130.44 123.52 130.04 123.98
  L 125.09 129.73
  Q 124.74 130.13 124.74 130.65
  Z
  M 103.3681 117.2939
  A 2.48 2.48 0.0 0 0 99.8770 116.9578
  L 95.2936 120.7361
  A 2.48 2.48 0.0 0 0 94.9574 124.2272
  L 95.0719 124.3661
  A 2.48 2.48 0.0 0 0 98.5630 124.7022
  L 103.1464 120.9239
  A 2.48 2.48 0.0 0 0 103.4826 117.4328
  L 103.3681 117.2939
  Z"
/>
<path d="
  M 84.39 120.17
  C 83.33 123.93 76.61 128.73 74.56 129.84
  Q 72.54 130.94 68.84 130.01
  Q 68.15 129.83 68.66 129.33
  L 81.14 117.33
  Q 81.68 116.81 82.21 117.34
  L 84.16 119.28
  Q 84.53 119.66 84.39 120.17
  Z"
/>
<path d="
  M 68.89 135.75
  L 83.26 135.75
  A 0.64 0.64 0.0 0 1 83.87 136.21
  L 84.59 138.68
  A 0.64 0.64 0.0 0 1 83.98 139.50
  L 68.89 139.50
  A 0.64 0.64 0.0 0 1 68.25 138.86
  L 68.25 136.39
  A 0.64 0.64 0.0 0 1 68.89 135.75
  Z"
/>
<path d="
  M 91.18 148.22
  Q 91.92 148.97 90.92 149.27
  C 84.14 151.31 85.40 159.53 85.53 164.84
  A 0.87 0.86 -1.0 0 1 84.67 165.72
  C 80.67 165.74 72.39 167.04 68.99 165.43
  Q 68.52 165.20 68.44 164.69
  Q 67.06 156.15 68.35 147.55
  Q 68.44 147.01 68.13 146.56
  Q 67.91 146.22 68.05 145.88
  Q 68.21 145.51 68.61 145.51
  L 87.82 145.27
  Q 88.23 145.27 88.53 145.57
  L 91.18 148.22
  Z"
/>
<path d="
  M 106.35 154.67
  C 112.00 154.70 116.21 155.60 122.01 153.87
  Q 122.58 153.70 122.56 154.30
  L 122.19 164.91
  Q 122.17 165.44 121.65 165.48
  Q 114.81 166.12 108.00 165.42
  A 1.36 1.36 0.0 0 1 106.79 163.95
  Q 107.19 159.47 105.93 155.24
  Q 105.76 154.67 106.35 154.67
  Z"
/>
</g>
<path fill="#42685f" d="
  M 76.42 113.22
  A 0.40 0.40 0.0 0 1 76.47 113.84
  L 68.79 121.12
  Q 68.38 121.51 68.40 120.94
  L 68.79 109.03
  Q 68.82 108.08 69.61 108.61
  L 76.42 113.22
  Z"
/>
</svg>
