<?xml version="1.0" encoding="UTF-8" standalone="no"?>
<!DOCTYPE svg PUBLIC "-//W3C//DTD SVG 1.1//EN" "http://www.w3.org/Graphics/SVG/1.1/DTD/svg11.dtd">
<svg xmlns="http://www.w3.org/2000/svg" version="1.1" viewBox="0 0 180 180">
<g stroke-width="2.00" fill="none" stroke-linecap="butt">
<path stroke="#3d504e" vector-effect="non-scaling-stroke" d="
  M 70.75 69.04
  L 70.79 81.00"
/>
<path stroke="#927a6d" vector-effect="non-scaling-stroke" d="
  M 70.79 81.00
  C 72.30 96.20 87.79 104.78 100.29 94.17
  C 102.32 92.44 102.21 86.83 105.25 86.99
  C 115.88 87.57 118.82 74.32 110.30 74.11
  C 106.96 74.02 104.74 74.26 105.00 70.24
  C 106.70 44.16 71.54 43.22 70.75 69.04"
/>
<path stroke="#97927f" vector-effect="non-scaling-stroke" d="
  M 70.79 81.00
  L 79.71 81.50"
/>
<path stroke="#927a6d" vector-effect="non-scaling-stroke" d="
  M 79.71 81.50
  C 79.70 83.70 79.03 90.85 81.57 91.68
  C 86.26 93.20 85.33 83.93 85.29 81.50"
/>
<path stroke="#97927f" vector-effect="non-scaling-stroke" d="
  M 85.29 81.50
  C 88.97 81.12 100.03 81.84 101.46 78.22
  C 102.76 74.91 101.75 68.87 97.06 68.42
  Q 84.75 67.23 70.75 69.04"
/>
<path stroke="#3d504e" vector-effect="non-scaling-stroke" d="
  M 85.29 81.50
  L 84.77 74.74
  A 2.17 2.17 0.0 0 0 82.85 72.75
  Q 80.95 72.54 80.01 74.26
  Q 79.78 74.67 79.78 75.13
  L 79.71 81.50"
/>
<path stroke="#98989a" vector-effect="non-scaling-stroke" d="
  M 45.22 76.72
  C 40.53 74.19 34.39 71.76 29.14 70.80
  A 0.61 0.60 -81.1 0 0 28.43 71.32
  C 27.58 77.83 26.41 91.29 29.63 97.10
  Q 29.88 97.55 30.39 97.52
  Q 36.05 97.10 41.39 95.22
  C 45.54 93.77 46.80 96.33 48.09 99.76
  Q 48.28 100.25 48.80 100.25
  L 54.94 100.25
  Q 55.64 100.25 55.62 99.55
  L 55.06 79.08
  A 0.91 0.90 -3.0 0 0 54.08 78.20
  C 50.59 78.47 48.45 78.46 45.22 76.72"
/>
<path stroke="#927a6d" vector-effect="non-scaling-stroke" d="
  M 102.97 100.15
  C 107.87 98.95 111.42 98.77 114.91 99.42
  Q 115.86 99.60 115.39 98.76
  L 111.99 92.75
  Q 111.71 92.24 111.14 92.34
  L 108.23 92.82
  Q 107.75 92.90 107.56 93.34
  Q 105.93 97.10 102.72 99.66
  Q 101.73 100.45 102.97 100.15"
/>
<path stroke="#927a6d" vector-effect="non-scaling-stroke" d="
  M 72.27 97.40
  Q 72.11 97.14 71.85 96.99
  Q 71.41 96.72 71.20 97.19
  Q 69.98 99.90 69.80 101.28
  Q 67.97 115.30 68.14 129.64
  Q 68.15 130.19 68.69 130.18
  L 82.35 129.93
  Q 82.94 129.92 82.95 129.33
  Q 83.36 113.55 95.57 103.99
  Q 96.40 103.34 95.38 103.59
  C 86.30 105.82 79.18 104.26 72.52 97.71
  Q 72.37 97.57 72.27 97.40"
/>
<path stroke="#533d3e" vector-effect="non-scaling-stroke" d="
  M 130.40 131.50
  C 127.73 135.89 122.87 132.43 125.47 129.28
  Q 127.70 126.58 130.10 123.96
  Q 130.44 123.60 130.32 123.13
  L 128.68 116.33
  Q 128.52 115.66 128.02 116.14
  Q 121.65 122.22 115.06 128.05
  C 112.97 129.89 109.88 129.56 109.79 126.41
  Q 109.78 125.94 110.07 125.57
  C 114.22 120.25 120.11 116.14 124.73 111.03
  Q 125.11 110.60 124.65 110.25
  L 120.37 106.97
  Q 119.90 106.61 119.48 107.02
  C 117.64 108.76 108.77 118.30 106.77 112.90
  A 2.08 2.08 0.0 0 1 107.35 110.62
  L 113.13 105.56
  Q 113.45 105.29 113.04 105.22
  C 100.16 102.98 90.51 114.39 89.01 126.28
  Q 88.93 126.90 89.49 126.63
  L 90.15 126.32
  Q 90.59 126.11 91.04 126.29
  Q 93.19 127.17 93.00 129.75
  Q 92.96 130.32 92.52 130.67
  L 89.36 133.21
  Q 88.93 133.56 89.15 134.06
  L 91.91 140.43
  Q 92.22 141.14 92.78 140.61
  Q 97.43 136.23 101.96 131.70
  C 105.14 128.51 108.69 133.74 105.08 136.88
  Q 100.82 140.58 96.72 144.59
  Q 96.22 145.07 96.85 145.38
  L 102.28 148.07
  Q 102.87 148.36 103.36 147.92
  Q 110.07 141.95 116.96 136.19
  C 120.36 133.34 124.63 137.14 120.03 140.93
  Q 115.42 144.72 110.78 148.62
  Q 110.25 149.07 110.94 149.14
  Q 121.33 150.29 127.51 142.89
  C 130.12 139.77 130.73 135.78 131.21 131.79
  A 0.44 0.44 0.0 0 0 130.40 131.50"
/>
<path stroke="#533d3e" vector-effect="non-scaling-stroke" d="
  M 50.71 106.61
  L 51.44 145.43
  Q 51.45 145.93 51.92 146.13
  Q 53.19 146.66 53.20 145.50
  Q 53.34 126.15 53.57 106.81
  Q 53.57 106.26 53.04 106.16
  L 51.60 105.87
  Q 50.69 105.68 50.71 106.61"
/>
<path stroke="#927a6d" vector-effect="non-scaling-stroke" d="
  M 62.3079 128.1486
  A 0.33 0.33 0.0 0 0 61.9819 127.8146
  L 59.6421 127.7860
  A 0.33 0.33 0.0 0 0 59.3081 128.1119
  L 59.2321 134.3314
  A 0.33 0.33 0.0 0 0 59.5581 134.6654
  L 61.8979 134.6940
  A 0.33 0.33 0.0 0 0 62.2319 134.3681
  L 62.3079 128.1486"
/>
<path stroke="#533d3e" vector-effect="non-scaling-stroke" d="
  M 68.25 138.96
  A 0.58 0.58 0.0 0 0 68.83 139.54
  L 84.01 139.42
  A 0.58 0.58 0.0 0 0 84.57 138.69
  L 83.90 136.18
  A 0.58 0.58 0.0 0 0 83.33 135.75
  L 68.83 135.75
  A 0.58 0.58 0.0 0 0 68.25 136.33
  L 68.25 138.96"
/>
<path stroke="#533d3e" vector-effect="non-scaling-stroke" d="
  M 91.19 148.23
  L 88.52 145.56
  Q 88.23 145.26 87.81 145.27
  L 68.93 145.52
  A 0.66 0.66 0.0 0 0 68.28 146.12
  C 67.85 151.76 66.82 159.60 68.79 165.17
  Q 68.96 165.66 69.47 165.72
  C 74.59 166.37 79.40 165.69 84.55 165.74
  A 0.95 0.95 0.0 0 0 85.52 164.76
  C 85.40 159.45 84.16 151.31 90.92 149.27
  Q 91.92 148.97 91.19 148.23"
/>
<path stroke="#533d3e" vector-effect="non-scaling-stroke" d="
  M 122.01 153.87
  C 116.21 155.60 112.00 154.70 106.35 154.67
  Q 105.76 154.67 105.93 155.24
  Q 107.19 159.47 106.79 163.95
  A 1.36 1.36 0.0 0 0 108.00 165.42
  Q 114.81 166.12 121.65 165.48
  Q 122.17 165.44 122.19 164.91
  L 122.56 154.30
  Q 122.58 153.70 122.01 153.87"
/>
<path stroke="#533d3e" vector-effect="non-scaling-stroke" d="
  M 103.3695 117.2799
  A 2.48 2.48 0.0 0 0 99.8784 116.9437
  L 95.2795 120.7347
  A 2.48 2.48 0.0 0 0 94.9433 124.2258
  L 95.0705 124.3801
  A 2.48 2.48 0.0 0 0 98.5616 124.7163
  L 103.1605 120.9253
  A 2.48 2.48 0.0 0 0 103.4967 117.4342
  L 103.3695 117.2799"
/>
</g>
<g fill="#38383c">
<path d="
  M 58.98 105.51
  L 59.26 121.77
  Q 59.27 122.26 59.77 122.26
  L 62.06 122.23
  Q 62.74 122.22 62.73 121.55
  Q 62.56 111.50 64.08 101.61
  C 64.66 97.87 66.08 94.87 67.73 91.52
  Q 67.96 91.04 67.77 90.54
  C 64.13 81.25 63.74 64.12 69.52 55.20
  C 73.80 48.59 80.31 44.63 88.36 44.65
  C 101.76 44.70 110.46 54.30 110.73 67.77
  Q 110.74 68.33 111.29 68.44
  C 122.01 70.58 123.73 81.58 116.78 88.89
  Q 116.38 89.31 116.71 89.79
  Q 120.37 95.17 122.71 101.26
  Q 122.91 101.76 123.37 102.04
  C 136.15 109.65 138.70 126.60 135.62 139.86
  C 134.61 144.25 131.59 147.36 128.50 150.41
  Q 128.13 150.77 128.15 151.29
  C 128.41 158.38 130.31 170.48 122.52 171.32
  Q 114.14 172.22 107.57 171.14
  C 100.00 169.89 101.88 163.93 100.70 158.55
  C 99.72 154.06 96.07 152.66 92.09 154.70
  A 1.87 1.86 -15.5 0 0 91.08 156.48
  C 91.49 162.55 92.91 171.61 83.81 171.76
  C 79.08 171.84 68.74 173.10 64.64 168.94
  C 60.76 165.01 62.43 146.87 62.57 141.26
  Q 62.59 140.64 61.98 140.59
  L 59.86 140.40
  Q 59.29 140.35 59.26 140.92
  C 58.98 146.32 59.72 153.25 51.44 151.81
  C 46.30 150.92 45.64 147.39 45.55 142.54
  Q 45.28 128.29 45.25 113.99
  Q 45.25 109.80 45.70 105.62
  Q 45.75 105.16 45.39 104.87
  Q 43.63 103.47 42.92 101.30
  Q 42.74 100.75 42.19 100.92
  C 38.34 102.14 26.50 105.06 24.67 100.22
  C 21.00 90.54 21.69 78.73 23.77 68.79
  C 24.44 65.63 26.54 64.66 29.51 65.24
  Q 38.78 67.03 47.10 71.39
  C 50.47 73.15 53.02 72.90 56.59 72.71
  Q 57.09 72.68 57.50 72.96
  Q 60.00 74.61 60.24 77.26
  C 61.13 87.14 62.96 99.07 59.23 104.68
  Q 58.98 105.06 58.98 105.51
  Z
  M 70.75 69.04
  L 70.79 81.00
  C 72.30 96.20 87.79 104.78 100.29 94.17
  C 102.32 92.44 102.21 86.83 105.25 86.99
  C 115.88 87.57 118.82 74.32 110.30 74.11
  C 106.96 74.02 104.74 74.26 105.00 70.24
  C 106.70 44.16 71.54 43.22 70.75 69.04
  Z
  M 45.22 76.72
  C 40.53 74.19 34.39 71.76 29.14 70.80
  A 0.61 0.60 -81.1 0 0 28.43 71.32
  C 27.58 77.83 26.41 91.29 29.63 97.10
  Q 29.88 97.55 30.39 97.52
  Q 36.05 97.10 41.39 95.22
  C 45.54 93.77 46.80 96.33 48.09 99.76
  Q 48.28 100.25 48.80 100.25
  L 54.94 100.25
  Q 55.64 100.25 55.62 99.55
  L 55.06 79.08
  A 0.91 0.90 -3.0 0 0 54.08 78.20
  C 50.59 78.47 48.45 78.46 45.22 76.72
  Z
  M 102.97 100.15
  C 107.87 98.95 111.42 98.77 114.91 99.42
  Q 115.86 99.60 115.39 98.76
  L 111.99 92.75
  Q 111.71 92.24 111.14 92.34
  L 108.23 92.82
  Q 107.75 92.90 107.56 93.34
  Q 105.93 97.10 102.72 99.66
  Q 101.73 100.45 102.97 100.15
  Z
  M 72.27 97.40
  Q 72.11 97.14 71.85 96.99
  Q 71.41 96.72 71.20 97.19
  Q 69.98 99.90 69.80 101.28
  Q 67.97 115.30 68.14 129.64
  Q 68.15 130.19 68.69 130.18
  L 82.35 129.93
  Q 82.94 129.92 82.95 129.33
  Q 83.36 113.55 95.57 103.99
  Q 96.40 103.34 95.38 103.59
  C 86.30 105.82 79.18 104.26 72.52 97.71
  Q 72.37 97.57 72.27 97.40
  Z
  M 130.40 131.50
  C 127.73 135.89 122.87 132.43 125.47 129.28
  Q 127.70 126.58 130.10 123.96
  Q 130.44 123.60 130.32 123.13
  L 128.68 116.33
  Q 128.52 115.66 128.02 116.14
  Q 121.65 122.22 115.06 128.05
  C 112.97 129.89 109.88 129.56 109.79 126.41
  Q 109.78 125.94 110.07 125.57
  C 114.22 120.25 120.11 116.14 124.73 111.03
  Q 125.11 110.60 124.65 110.25
  L 120.37 106.97
  Q 119.90 106.61 119.48 107.02
  C 117.64 108.76 108.77 118.30 106.77 112.90
  A 2.08 2.08 0.0 0 1 107.35 110.62
  L 113.13 105.56
  Q 113.45 105.29 113.04 105.22
  C 100.16 102.98 90.51 114.39 89.01 126.28
  Q 88.93 126.90 89.49 126.63
  L 90.15 126.32
  Q 90.59 126.11 91.04 126.29
  Q 93.19 127.17 93.00 129.75
  Q 92.96 130.32 92.52 130.67
  L 89.36 133.21
  Q 88.93 133.56 89.15 134.06
  L 91.91 140.43
  Q 92.22 141.14 92.78 140.61
  Q 97.43 136.23 101.96 131.70
  C 105.14 128.51 108.69 133.74 105.08 136.88
  Q 100.82 140.58 96.72 144.59
  Q 96.22 145.07 96.85 145.38
  L 102.28 148.07
  Q 102.87 148.36 103.36 147.92
  Q 110.07 141.95 116.96 136.19
  C 120.36 133.34 124.63 137.14 120.03 140.93
  Q 115.42 144.72 110.78 148.62
  Q 110.25 149.07 110.94 149.14
  Q 121.33 150.29 127.51 142.89
  C 130.12 139.77 130.73 135.78 131.21 131.79
  A 0.44 0.44 0.0 0 0 130.40 131.50
  Z
  M 50.71 106.61
  L 51.44 145.43
  Q 51.45 145.93 51.92 146.13
  Q 53.19 146.66 53.20 145.50
  Q 53.34 126.15 53.57 106.81
  Q 53.57 106.26 53.04 106.16
  L 51.60 105.87
  Q 50.69 105.68 50.71 106.61
  Z
  M 62.3079 128.1486
  A 0.33 0.33 0.0 0 0 61.9819 127.8146
  L 59.6421 127.7860
  A 0.33 0.33 0.0 0 0 59.3081 128.1119
  L 59.2321 134.3314
  A 0.33 0.33 0.0 0 0 59.5581 134.6654
  L 61.8979 134.6940
  A 0.33 0.33 0.0 0 0 62.2319 134.3681
  L 62.3079 128.1486
  Z
  M 68.25 138.96
  A 0.58 0.58 0.0 0 0 68.83 139.54
  L 84.01 139.42
  A 0.58 0.58 0.0 0 0 84.57 138.69
  L 83.90 136.18
  A 0.58 0.58 0.0 0 0 83.33 135.75
  L 68.83 135.75
  A 0.58 0.58 0.0 0 0 68.25 136.33
  L 68.25 138.96
  Z
  M 91.19 148.23
  L 88.52 145.56
  Q 88.23 145.26 87.81 145.27
  L 68.93 145.52
  A 0.66 0.66 0.0 0 0 68.28 146.12
  C 67.85 151.76 66.82 159.60 68.79 165.17
  Q 68.96 165.66 69.47 165.72
  C 74.59 166.37 79.40 165.69 84.55 165.74
  A 0.95 0.95 0.0 0 0 85.52 164.76
  C 85.40 159.45 84.16 151.31 90.92 149.27
  Q 91.92 148.97 91.19 148.23
  Z
  M 122.01 153.87
  C 116.21 155.60 112.00 154.70 106.35 154.67
  Q 105.76 154.67 105.93 155.24
  Q 107.19 159.47 106.79 163.95
  A 1.36 1.36 0.0 0 0 108.00 165.42
  Q 114.81 166.12 121.65 165.48
  Q 122.17 165.44 122.19 164.91
  L 122.56 154.30
  Q 122.58 153.70 122.01 153.87
  Z"
/>
<path d="
  M 85.29 81.50
  C 85.33 83.93 86.26 93.20 81.57 91.68
  C 79.03 90.85 79.70 83.70 79.71 81.50
  L 79.78 75.13
  Q 79.78 74.67 80.01 74.26
  Q 80.95 72.54 82.85 72.75
  A 2.17 2.17 0.0 0 1 84.77 74.74
  L 85.29 81.50
  Z"
/>
<rect x="-5.46" y="-2.58" transform="translate(99.22,120.83) rotate(-39.5)" width="10.92" height="5.16" rx="2.48"/>
</g>
<g fill="#ebbc9e">
<path d="
  M 70.79 81.00
  L 79.71 81.50
  C 79.70 83.70 79.03 90.85 81.57 91.68
  C 86.26 93.20 85.33 83.93 85.29 81.50
  C 88.97 81.12 100.03 81.84 101.46 78.22
  C 102.76 74.91 101.75 68.87 97.06 68.42
  Q 84.75 67.23 70.75 69.04
  C 71.54 43.22 106.70 44.16 105.00 70.24
  C 104.74 74.26 106.96 74.02 110.30 74.11
  C 118.82 74.32 115.88 87.57 105.25 86.99
  C 102.21 86.83 102.32 92.44 100.29 94.17
  C 87.79 104.78 72.30 96.20 70.79 81.00
  Z"
/>
<path d="
  M 114.91 99.42
  C 111.42 98.77 107.87 98.95 102.97 100.15
  Q 101.73 100.45 102.72 99.66
  Q 105.93 97.10 107.56 93.34
  Q 107.75 92.90 108.23 92.82
  L 111.14 92.34
  Q 111.71 92.24 111.99 92.75
  L 115.39 98.76
  Q 115.86 99.60 114.91 99.42
  Z"
/>
<path d="
  M 72.52 97.71
  C 79.18 104.26 86.30 105.82 95.38 103.59
  Q 96.40 103.34 95.57 103.99
  Q 83.36 113.55 82.95 129.33
  Q 82.94 129.92 82.35 129.93
  L 68.69 130.18
  Q 68.15 130.19 68.14 129.64
  Q 67.97 115.30 69.80 101.28
  Q 69.98 99.90 71.20 97.19
  Q 71.41 96.72 71.85 96.99
  Q 72.11 97.14 72.27 97.40
  Q 72.37 97.57 72.52 97.71
  Z"
/>
<rect x="-1.50" y="-3.44" transform="translate(60.77,131.24) rotate(0.7)" width="3.00" height="6.88" rx="0.33"/>
</g>
<g fill="#6e423f">
<path d="
  M 125.47 129.28
  C 122.87 132.43 127.73 135.89 130.40 131.50
  A 0.44 0.44 0.0 0 1 131.21 131.79
  C 130.73 135.78 130.12 139.77 127.51 142.89
  Q 121.33 150.29 110.94 149.14
  Q 110.25 149.07 110.78 148.62
  Q 115.42 144.72 120.03 140.93
  C 124.63 137.14 120.36 133.34 116.96 136.19
  Q 110.07 141.95 103.36 147.92
  Q 102.87 148.36 102.28 148.07
  L 96.85 145.38
  Q 96.22 145.07 96.72 144.59
  Q 100.82 140.58 105.08 136.88
  C 108.69 133.74 105.14 128.51 101.96 131.70
  Q 97.43 136.23 92.78 140.61
  Q 92.22 141.14 91.91 140.43
  L 89.15 134.06
  Q 88.93 133.56 89.36 133.21
  L 92.52 130.67
  Q 92.96 130.32 93.00 129.75
  Q 93.19 127.17 91.04 126.29
  Q 90.59 126.11 90.15 126.32
  L 89.49 126.63
  Q 88.93 126.90 89.01 126.28
  C 90.51 114.39 100.16 102.98 113.04 105.22
  Q 113.45 105.29 113.13 105.56
  L 107.35 110.62
  A 2.08 2.08 0.0 0 0 106.77 112.90
  C 108.77 118.30 117.64 108.76 119.48 107.02
  Q 119.90 106.61 120.37 106.97
  L 124.65 110.25
  Q 125.11 110.60 124.73 111.03
  C 120.11 116.14 114.22 120.25 110.07 125.57
  Q 109.78 125.94 109.79 126.41
  C 109.88 129.56 112.97 129.89 115.06 128.05
  Q 121.65 122.22 128.02 116.14
  Q 128.52 115.66 128.68 116.33
  L 130.32 123.13
  Q 130.44 123.60 130.10 123.96
  Q 127.70 126.58 125.47 129.28
  Z
  M 103.3695 117.2799
  A 2.48 2.48 0.0 0 0 99.8784 116.9437
  L 95.2795 120.7347
  A 2.48 2.48 0.0 0 0 94.9433 124.2258
  L 95.0705 124.3801
  A 2.48 2.48 0.0 0 0 98.5616 124.7163
  L 103.1605 120.9253
  A 2.48 2.48 0.0 0 0 103.4967 117.4342
  L 103.3695 117.2799
  Z"
/>
<path d="
  M 51.60 105.87
  L 53.04 106.16
  Q 53.57 106.26 53.57 106.81
  Q 53.34 126.15 53.20 145.50
  Q 53.19 146.66 51.92 146.13
  Q 51.45 145.93 51.44 145.43
  L 50.71 106.61
  Q 50.69 105.68 51.60 105.87
  Z"
/>
<path d="
  M 68.25 138.96
  L 68.25 136.33
  A 0.58 0.58 0.0 0 1 68.83 135.75
  L 83.33 135.75
  A 0.58 0.58 0.0 0 1 83.90 136.18
  L 84.57 138.69
  A 0.58 0.58 0.0 0 1 84.01 139.42
  L 68.83 139.54
  A 0.58 0.58 0.0 0 1 68.25 138.96
  Z"
/>
<path d="
  M 91.19 148.23
  Q 91.92 148.97 90.92 149.27
  C 84.16 151.31 85.40 159.45 85.52 164.76
  A 0.95 0.95 0.0 0 1 84.55 165.74
  C 79.40 165.69 74.59 166.37 69.47 165.72
  Q 68.96 165.66 68.79 165.17
  C 66.82 159.60 67.85 151.76 68.28 146.12
  A 0.66 0.66 0.0 0 1 68.93 145.52
  L 87.81 145.27
  Q 88.23 145.26 88.52 145.56
  L 91.19 148.23
  Z"
/>
<path d="
  M 106.35 154.67
  C 112.00 154.70 116.21 155.60 122.01 153.87
  Q 122.58 153.70 122.56 154.30
  L 122.19 164.91
  Q 122.17 165.44 121.65 165.48
  Q 114.81 166.12 108.00 165.42
  A 1.36 1.36 0.0 0 1 106.79 163.95
  Q 107.19 159.47 105.93 155.24
  Q 105.76 154.67 106.35 154.67
  Z"
/>
</g>
<path fill="#f8f8f8" d="
  M 29.14 70.80
  C 34.39 71.76 40.53 74.19 45.22 76.72
  C 48.45 78.46 50.59 78.47 54.08 78.20
  A 0.91 0.90 -3.0 0 1 55.06 79.08
  L 55.62 99.55
  Q 55.64 100.25 54.94 100.25
  L 48.80 100.25
  Q 48.28 100.25 48.09 99.76
  C 46.80 96.33 45.54 93.77 41.39 95.22
  Q 36.05 97.10 30.39 97.52
  Q 29.88 97.55 29.63 97.10
  C 26.41 91.29 27.58 77.83 28.43 71.32
  A 0.61 0.60 -81.1 0 1 29.14 70.80
  Z"
/>
<path fill="#42685f" d="
  M 85.29 81.50
  L 84.77 74.74
  A 2.17 2.17 0.0 0 0 82.85 72.75
  Q 80.95 72.54 80.01 74.26
  Q 79.78 74.67 79.78 75.13
  L 79.71 81.50
  L 70.79 81.00
  L 70.75 69.04
  Q 84.75 67.23 97.06 68.42
  C 101.75 68.87 102.76 74.91 101.46 78.22
  C 100.03 81.84 88.97 81.12 85.29 81.50
  Z"
/>
</svg>
