<?xml version="1.0" encoding="UTF-8" standalone="no"?>
<!DOCTYPE svg PUBLIC "-//W3C//DTD SVG 1.1//EN" "http://www.w3.org/Graphics/SVG/1.1/DTD/svg11.dtd">
<svg xmlns="http://www.w3.org/2000/svg" version="1.1" viewBox="0 0 180 180">
<g stroke-width="2.00" fill="none" stroke-linecap="butt">
<path stroke="#927a6d" vector-effect="non-scaling-stroke" d="
  M 72.48 87.88
  C 77.29 98.45 88.66 101.97 98.45 95.70
  Q 101.49 93.76 102.27 90.42
  C 102.64 88.87 103.73 86.88 105.25 87.00
  C 115.72 87.81 119.09 74.23 110.01 74.12
  C 106.65 74.07 104.64 73.94 104.99 69.98
  C 106.02 58.19 97.90 48.97 85.72 50.34
  C 74.90 51.57 70.33 62.20 70.54 71.83
  C 70.65 77.01 70.40 83.30 72.48 87.88"
/>
<path stroke="#533d3e" vector-effect="non-scaling-stroke" d="
  M 86.10 129.22
  C 81.80 123.58 80.54 120.11 87.21 115.70
  Q 87.66 115.40 87.69 114.86
  C 87.95 108.70 94.52 102.79 99.88 108.22
  Q 100.23 108.57 100.69 108.37
  C 110.69 103.86 112.26 117.23 111.24 123.65
  Q 111.15 124.19 111.48 124.63
  Q 114.89 129.23 114.17 135.02
  Q 114.08 135.75 114.79 135.57
  L 120.26 134.14
  A 2.09 2.08 -8.0 0 0 121.81 132.09
  C 121.56 118.45 119.83 104.90 111.78 92.74
  Q 111.51 92.33 111.02 92.36
  C 108.94 92.44 108.15 92.70 107.01 94.60
  C 99.49 107.17 81.57 107.79 72.00 97.35
  Q 71.59 96.90 71.26 97.41
  Q 70.26 98.91 70.00 100.77
  Q 68.00 115.18 68.37 129.00
  Q 68.40 130.21 69.61 130.18
  L 85.82 129.81
  A 0.37 0.37 0.0 0 0 86.10 129.22"
/>
<path stroke="#98989a" vector-effect="non-scaling-stroke" d="
  M 58.82 101.87
  C 56.80 98.32 51.74 98.52 48.79 100.47
  Q 48.08 100.94 48.93 100.94
  C 60.22 100.94 61.24 115.79 51.56 119.74
  Q 51.00 119.97 51.00 120.57
  L 51.00 121.54
  Q 51.00 122.14 51.56 122.36
  C 52.85 122.89 53.84 123.02 55.02 122.10
  Q 65.65 113.86 58.82 101.87"
/>
<path stroke="#82883e" vector-effect="non-scaling-stroke" d="
  M 93.84 119.71
  Q 92.36 122.91 88.98 121.47
  A 0.58 0.57 86.8 0 0 88.26 122.28
  Q 90.18 125.77 93.30 128.23
  Q 93.79 128.62 94.29 128.25
  Q 98.83 124.85 104.35 123.35
  A 1.78 1.76 -9.2 0 0 105.65 121.56
  L 105.35 115.40
  Q 105.32 114.88 105.09 114.43
  L 104.58 113.43
  A 0.63 0.62 -48.8 0 0 103.43 113.51
  L 102.39 116.55
  Q 102.22 117.03 101.80 117.32
  C 97.92 120.01 96.72 114.74 96.08 112.32
  A 0.91 0.90 -35.5 0 0 94.45 112.05
  Q 92.38 115.16 93.86 118.62
  Q 94.10 119.17 93.84 119.71"
/>
<path stroke="#927a6d" vector-effect="non-scaling-stroke" d="
  M 62.2360 128.1373
  A 0.36 0.36 0.0 0 0 61.8698 127.7836
  L 59.9301 127.8175
  A 0.36 0.36 0.0 0 0 59.5764 128.1837
  L 59.6840 134.3427
  A 0.36 0.36 0.0 0 0 60.0502 134.6964
  L 61.9899 134.6625
  A 0.36 0.36 0.0 0 0 62.3436 134.2963
  L 62.2360 128.1373"
/>
<path stroke="#533d3e" vector-effect="non-scaling-stroke" d="
  M 53.6108 129.1537
  A 0.91 0.91 0.0 0 0 52.6605 128.2859
  L 51.8213 128.3240
  A 0.91 0.91 0.0 0 0 50.9535 129.2744
  L 51.3092 137.1063
  A 0.91 0.91 0.0 0 0 52.2595 137.9741
  L 53.0987 137.9360
  A 0.91 0.91 0.0 0 0 53.9665 136.9856
  L 53.6108 129.1537"
/>
<path stroke="#927a6d" vector-effect="non-scaling-stroke" d="
  M 99.01 135.77
  L 105.55 136.85
  Q 106.17 136.95 106.64 136.54
  Q 110.11 133.55 107.78 129.15
  Q 107.52 128.65 106.96 128.73
  C 104.39 129.07 98.08 130.84 97.75 134.12
  A 1.52 1.51 -82.5 0 0 99.01 135.77"
/>
<path stroke="#533d3e" vector-effect="non-scaling-stroke" d="
  M 91.48 135.75
  L 68.90 135.75
  Q 68.25 135.75 68.25 136.41
  L 68.25 139.04
  Q 68.25 139.58 68.79 139.58
  L 93.25 139.29
  Q 94.53 139.27 93.56 138.44
  Q 92.62 137.64 92.33 136.42
  Q 92.16 135.75 91.48 135.75"
/>
<path stroke="#82883e" vector-effect="non-scaling-stroke" d="
  M 107.00 142.63
  Q 106.81 142.47 106.61 142.47
  Q 106.01 142.48 106.08 143.07
  L 106.73 148.73
  Q 106.83 149.64 107.52 149.04
  Q 110.15 146.72 113.21 148.48
  Q 114.10 149.00 113.79 148.01
  Q 112.91 145.14 110.97 142.83
  Q 110.58 142.36 109.97 142.43
  L 107.37 142.74
  Q 107.16 142.77 107.00 142.63"
/>
<path stroke="#533d3e" vector-effect="non-scaling-stroke" d="
  M 72.56 166.12
  C 88.68 165.57 104.76 165.91 120.87 165.67
  A 1.52 1.52 0.0 0 0 122.36 164.15
  L 122.35 145.94
  Q 122.35 145.22 121.62 145.24
  L 119.55 145.31
  Q 118.80 145.33 119.07 146.04
  C 121.18 151.49 118.14 156.94 111.79 153.99
  Q 111.28 153.76 110.92 154.18
  C 109.74 155.56 108.77 156.61 106.80 156.44
  C 101.42 155.96 101.22 149.61 100.41 145.47
  Q 100.32 144.97 99.81 144.98
  L 68.72 145.57
  A 0.49 0.49 0.0 0 0 68.24 146.04
  C 67.98 152.18 66.99 158.74 68.69 165.01
  Q 68.82 165.48 69.29 165.61
  Q 71.30 166.16 72.56 166.12"
/>
<path stroke="#927a6d" vector-effect="non-scaling-stroke" d="
  M 84.9820 75.4845
  A 2.47 2.47 0.0 0 0 82.5163 73.0102
  L 82.3363 73.0099
  A 2.47 2.47 0.0 0 0 79.8620 75.4755
  L 79.8380 89.2155
  A 2.47 2.47 0.0 0 0 82.3037 91.6898
  L 82.4837 91.6901
  A 2.47 2.47 0.0 0 0 84.9580 89.2245
  L 84.9820 75.4845"
/>
</g>
<g fill="#38383c">
<path d="
  M 63.65 99.69
  A 0.30 0.30 0.0 0 0 64.20 99.68
  L 67.67 91.35
  Q 67.89 90.85 67.69 90.33
  C 64.29 81.46 63.71 63.81 69.53 55.21
  C 82.60 35.88 110.69 44.45 110.80 67.82
  Q 110.80 68.35 111.32 68.45
  C 122.08 70.63 123.70 81.64 116.73 88.94
  Q 116.37 89.31 116.66 89.75
  C 128.73 107.83 127.41 128.53 128.14 149.42
  Q 128.40 156.72 128.11 164.80
  Q 127.91 170.69 122.26 171.33
  C 116.29 172.00 108.94 171.22 104.57 171.26
  Q 93.65 171.34 72.01 171.87
  Q 66.82 171.99 63.68 167.83
  Q 63.38 167.44 63.34 166.95
  C 63.10 164.34 62.20 161.88 62.23 159.38
  Q 62.35 150.34 62.57 141.29
  Q 62.58 140.73 62.03 140.67
  L 59.90 140.44
  Q 59.32 140.38 59.18 140.96
  Q 58.64 143.30 56.26 143.44
  C 52.44 143.67 48.67 144.79 46.52 140.48
  C 44.41 136.26 45.80 124.19 45.50 120.74
  C 44.76 112.08 53.95 116.88 52.72 109.74
  C 51.56 102.99 46.14 109.51 43.64 105.40
  Q 42.50 103.54 41.86 101.46
  Q 41.70 100.96 41.97 100.52
  C 46.54 92.98 59.53 90.46 63.65 99.69
  Z
  M 72.48 87.88
  C 77.29 98.45 88.66 101.97 98.45 95.70
  Q 101.49 93.76 102.27 90.42
  C 102.64 88.87 103.73 86.88 105.25 87.00
  C 115.72 87.81 119.09 74.23 110.01 74.12
  C 106.65 74.07 104.64 73.94 104.99 69.98
  C 106.02 58.19 97.90 48.97 85.72 50.34
  C 74.90 51.57 70.33 62.20 70.54 71.83
  C 70.65 77.01 70.40 83.30 72.48 87.88
  Z
  M 86.10 129.22
  C 81.80 123.58 80.54 120.11 87.21 115.70
  Q 87.66 115.40 87.69 114.86
  C 87.95 108.70 94.52 102.79 99.88 108.22
  Q 100.23 108.57 100.69 108.37
  C 110.69 103.86 112.26 117.23 111.24 123.65
  Q 111.15 124.19 111.48 124.63
  Q 114.89 129.23 114.17 135.02
  Q 114.08 135.75 114.79 135.57
  L 120.26 134.14
  A 2.09 2.08 -8.0 0 0 121.81 132.09
  C 121.56 118.45 119.83 104.90 111.78 92.74
  Q 111.51 92.33 111.02 92.36
  C 108.94 92.44 108.15 92.70 107.01 94.60
  C 99.49 107.17 81.57 107.79 72.00 97.35
  Q 71.59 96.90 71.26 97.41
  Q 70.26 98.91 70.00 100.77
  Q 68.00 115.18 68.37 129.00
  Q 68.40 130.21 69.61 130.18
  L 85.82 129.81
  A 0.37 0.37 0.0 0 0 86.10 129.22
  Z
  M 58.82 101.87
  C 56.80 98.32 51.74 98.52 48.79 100.47
  Q 48.08 100.94 48.93 100.94
  C 60.22 100.94 61.24 115.79 51.56 119.74
  Q 51.00 119.97 51.00 120.57
  L 51.00 121.54
  Q 51.00 122.14 51.56 122.36
  C 52.85 122.89 53.84 123.02 55.02 122.10
  Q 65.65 113.86 58.82 101.87
  Z
  M 93.84 119.71
  Q 92.36 122.91 88.98 121.47
  A 0.58 0.57 86.8 0 0 88.26 122.28
  Q 90.18 125.77 93.30 128.23
  Q 93.79 128.62 94.29 128.25
  Q 98.83 124.85 104.35 123.35
  A 1.78 1.76 -9.2 0 0 105.65 121.56
  L 105.35 115.40
  Q 105.32 114.88 105.09 114.43
  L 104.58 113.43
  A 0.63 0.62 -48.8 0 0 103.43 113.51
  L 102.39 116.55
  Q 102.22 117.03 101.80 117.32
  C 97.92 120.01 96.72 114.74 96.08 112.32
  A 0.91 0.90 -35.5 0 0 94.45 112.05
  Q 92.38 115.16 93.86 118.62
  Q 94.10 119.17 93.84 119.71
  Z
  M 62.2360 128.1373
  A 0.36 0.36 0.0 0 0 61.8698 127.7836
  L 59.9301 127.8175
  A 0.36 0.36 0.0 0 0 59.5764 128.1837
  L 59.6840 134.3427
  A 0.36 0.36 0.0 0 0 60.0502 134.6964
  L 61.9899 134.6625
  A 0.36 0.36 0.0 0 0 62.3436 134.2963
  L 62.2360 128.1373
  Z
  M 53.6108 129.1537
  A 0.91 0.91 0.0 0 0 52.6605 128.2859
  L 51.8213 128.3240
  A 0.91 0.91 0.0 0 0 50.9535 129.2744
  L 51.3092 137.1063
  A 0.91 0.91 0.0 0 0 52.2595 137.9741
  L 53.0987 137.9360
  A 0.91 0.91 0.0 0 0 53.9665 136.9856
  L 53.6108 129.1537
  Z
  M 99.01 135.77
  L 105.55 136.85
  Q 106.17 136.95 106.64 136.54
  Q 110.11 133.55 107.78 129.15
  Q 107.52 128.65 106.96 128.73
  C 104.39 129.07 98.08 130.84 97.75 134.12
  A 1.52 1.51 -82.5 0 0 99.01 135.77
  Z
  M 91.48 135.75
  L 68.90 135.75
  Q 68.25 135.75 68.25 136.41
  L 68.25 139.04
  Q 68.25 139.58 68.79 139.58
  L 93.25 139.29
  Q 94.53 139.27 93.56 138.44
  Q 92.62 137.64 92.33 136.42
  Q 92.16 135.75 91.48 135.75
  Z
  M 107.00 142.63
  Q 106.81 142.47 106.61 142.47
  Q 106.01 142.48 106.08 143.07
  L 106.73 148.73
  Q 106.83 149.64 107.52 149.04
  Q 110.15 146.72 113.21 148.48
  Q 114.10 149.00 113.79 148.01
  Q 112.91 145.14 110.97 142.83
  Q 110.58 142.36 109.97 142.43
  L 107.37 142.74
  Q 107.16 142.77 107.00 142.63
  Z
  M 72.56 166.12
  C 88.68 165.57 104.76 165.91 120.87 165.67
  A 1.52 1.52 0.0 0 0 122.36 164.15
  L 122.35 145.94
  Q 122.35 145.22 121.62 145.24
  L 119.55 145.31
  Q 118.80 145.33 119.07 146.04
  C 121.18 151.49 118.14 156.94 111.79 153.99
  Q 111.28 153.76 110.92 154.18
  C 109.74 155.56 108.77 156.61 106.80 156.44
  C 101.42 155.96 101.22 149.61 100.41 145.47
  Q 100.32 144.97 99.81 144.98
  L 68.72 145.57
  A 0.49 0.49 0.0 0 0 68.24 146.04
  C 67.98 152.18 66.99 158.74 68.69 165.01
  Q 68.82 165.48 69.29 165.61
  Q 71.30 166.16 72.56 166.12
  Z"
/>
<rect x="-2.56" y="-9.34" transform="translate(82.41,82.35) rotate(0.1)" width="5.12" height="18.68" rx="2.47"/>
</g>
<g fill="#ebbc9e">
<path d="
  M 98.45 95.70
  C 88.66 101.97 77.29 98.45 72.48 87.88
  C 70.40 83.30 70.65 77.01 70.54 71.83
  C 70.33 62.20 74.90 51.57 85.72 50.34
  C 97.90 48.97 106.02 58.19 104.99 69.98
  C 104.64 73.94 106.65 74.07 110.01 74.12
  C 119.09 74.23 115.72 87.81 105.25 87.00
  C 103.73 86.88 102.64 88.87 102.27 90.42
  Q 101.49 93.76 98.45 95.70
  Z
  M 84.9820 75.4845
  A 2.47 2.47 0.0 0 0 82.5163 73.0102
  L 82.3363 73.0099
  A 2.47 2.47 0.0 0 0 79.8620 75.4755
  L 79.8380 89.2155
  A 2.47 2.47 0.0 0 0 82.3037 91.6898
  L 82.4837 91.6901
  A 2.47 2.47 0.0 0 0 84.9580 89.2245
  L 84.9820 75.4845
  Z"
/>
<rect x="-1.33" y="-3.44" transform="translate(60.96,131.24) rotate(-1.0)" width="2.66" height="6.88" rx="0.36"/>
<path d="
  M 99.01 135.77
  A 1.52 1.51 -82.5 0 1 97.75 134.12
  C 98.08 130.84 104.39 129.07 106.96 128.73
  Q 107.52 128.65 107.78 129.15
  Q 110.11 133.55 106.64 136.54
  Q 106.17 136.95 105.55 136.85
  L 99.01 135.77
  Z"
/>
</g>
<g fill="#6e423f">
<path d="
  M 86.10 129.22
  A 0.37 0.37 0.0 0 1 85.82 129.81
  L 69.61 130.18
  Q 68.40 130.21 68.37 129.00
  Q 68.00 115.18 70.00 100.77
  Q 70.26 98.91 71.26 97.41
  Q 71.59 96.90 72.00 97.35
  C 81.57 107.79 99.49 107.17 107.01 94.60
  C 108.15 92.70 108.94 92.44 111.02 92.36
  Q 111.51 92.33 111.78 92.74
  C 119.83 104.90 121.56 118.45 121.81 132.09
  A 2.09 2.08 -8.0 0 1 120.26 134.14
  L 114.79 135.57
  Q 114.08 135.75 114.17 135.02
  Q 114.89 129.23 111.48 124.63
  Q 111.15 124.19 111.24 123.65
  C 112.26 117.23 110.69 103.86 100.69 108.37
  Q 100.23 108.57 99.88 108.22
  C 94.52 102.79 87.95 108.70 87.69 114.86
  Q 87.66 115.40 87.21 115.70
  C 80.54 120.11 81.80 123.58 86.10 129.22
  Z"
/>
<rect x="-1.33" y="-4.83" transform="translate(52.46,133.13) rotate(-2.6)" width="2.66" height="9.66" rx="0.91"/>
<path d="
  M 92.33 136.42
  Q 92.62 137.64 93.56 138.44
  Q 94.53 139.27 93.25 139.29
  L 68.79 139.58
  Q 68.25 139.58 68.25 139.04
  L 68.25 136.41
  Q 68.25 135.75 68.90 135.75
  L 91.48 135.75
  Q 92.16 135.75 92.33 136.42
  Z"
/>
<path d="
  M 120.87 165.67
  C 104.76 165.91 88.68 165.57 72.56 166.12
  Q 71.30 166.16 69.29 165.61
  Q 68.82 165.48 68.69 165.01
  C 66.99 158.74 67.98 152.18 68.24 146.04
  A 0.49 0.49 0.0 0 1 68.72 145.57
  L 99.81 144.98
  Q 100.32 144.97 100.41 145.47
  C 101.22 149.61 101.42 155.96 106.80 156.44
  C 108.77 156.61 109.74 155.56 110.92 154.18
  Q 111.28 153.76 111.79 153.99
  C 118.14 156.94 121.18 151.49 119.07 146.04
  Q 118.80 145.33 119.55 145.31
  L 121.62 145.24
  Q 122.35 145.22 122.35 145.94
  L 122.36 164.15
  A 1.52 1.52 0.0 0 1 120.87 165.67
  Z"
/>
</g>
<g fill="#ccd73f">
<path d="
  M 93.86 118.62
  Q 92.38 115.16 94.45 112.05
  A 0.91 0.90 -35.5 0 1 96.08 112.32
  C 96.72 114.74 97.92 120.01 101.80 117.32
  Q 102.22 117.03 102.39 116.55
  L 103.43 113.51
  A 0.63 0.62 -48.8 0 1 104.58 113.43
  L 105.09 114.43
  Q 105.32 114.88 105.35 115.40
  L 105.65 121.56
  A 1.78 1.76 -9.2 0 1 104.35 123.35
  Q 98.83 124.85 94.29 128.25
  Q 93.79 128.62 93.30 128.23
  Q 90.18 125.77 88.26 122.28
  A 0.58 0.57 86.8 0 1 88.98 121.47
  Q 92.36 122.91 93.84 119.71
  Q 94.10 119.17 93.86 118.62
  Z"
/>
<path d="
  M 107.37 142.74
  L 109.97 142.43
  Q 110.58 142.36 110.97 142.83
  Q 112.91 145.14 113.79 148.01
  Q 114.10 149.00 113.21 148.48
  Q 110.15 146.72 107.52 149.04
  Q 106.83 149.64 106.73 148.73
  L 106.08 143.07
  Q 106.01 142.48 106.61 142.47
  Q 106.81 142.47 107.00 142.63
  Q 107.16 142.77 107.37 142.74
  Z"
/>
</g>
<path fill="#f8f8f8" d="
  M 48.79 100.47
  C 51.74 98.52 56.80 98.32 58.82 101.87
  Q 65.65 113.86 55.02 122.10
  C 53.84 123.02 52.85 122.89 51.56 122.36
  Q 51.00 122.14 51.00 121.54
  L 51.00 120.57
  Q 51.00 119.97 51.56 119.74
  C 61.24 115.79 60.22 100.94 48.93 100.94
  Q 48.08 100.94 48.79 100.47
  Z"
/>
</svg>
