<?xml version="1.0" encoding="UTF-8" standalone="no"?>
<!DOCTYPE svg PUBLIC "-//W3C//DTD SVG 1.1//EN" "http://www.w3.org/Graphics/SVG/1.1/DTD/svg11.dtd">
<svg xmlns="http://www.w3.org/2000/svg" version="1.1" viewBox="0 0 180 180">
<g stroke-width="2.00" fill="none" stroke-linecap="butt">
<path stroke="#927a6d" vector-effect="non-scaling-stroke" d="
  M 105.23 86.94
  C 117.71 88.44 117.68 71.51 108.72 74.29
  Q 108.22 74.45 107.71 74.30
  C 103.45 73.03 105.28 66.42 104.63 63.60
  C 101.30 49.13 82.72 45.11 74.46 57.19
  C 69.34 64.69 70.58 72.40 70.92 81.02
  C 71.13 86.31 75.51 94.21 81.00 95.31
  Q 93.91 97.90 103.26 87.98
  Q 104.35 86.83 105.23 86.94"
/>
<path stroke="#533d3e" vector-effect="non-scaling-stroke" d="
  M 49.60 91.94
  C 51.18 115.45 50.02 138.86 51.18 162.37
  C 51.23 163.56 51.06 164.40 51.95 165.33
  A 0.59 0.59 0.0 0 0 52.96 164.90
  C 52.05 144.44 52.55 123.97 51.60 103.55
  C 51.26 96.39 54.34 83.11 42.24 83.91
  Q 33.33 84.50 32.91 94.29
  C 32.85 95.56 33.64 96.94 34.85 97.24
  A 0.47 0.47 0.0 0 0 35.42 96.65
  C 32.00 84.80 48.89 81.48 49.60 91.94"
/>
<path stroke="#533d3e" vector-effect="non-scaling-stroke" d="
  M 110.29 116.14
  Q 111.93 119.78 111.19 123.61
  Q 111.08 124.20 111.45 124.67
  Q 114.99 129.22 114.05 135.12
  Q 113.94 135.78 114.59 135.61
  L 121.10 133.90
  Q 121.70 133.74 121.69 133.12
  C 121.57 117.84 119.85 105.25 111.73 92.61
  Q 111.47 92.20 111.00 92.32
  L 108.84 92.85
  Q 108.30 92.98 108.20 93.53
  C 105.80 105.71 102.20 117.52 95.24 127.12
  Q 95.00 127.44 95.36 127.27
  L 105.44 122.60
  Q 105.84 122.41 105.90 121.97
  C 106.18 119.44 103.88 115.39 108.28 114.97
  A 1.99 1.98 -14.7 0 1 110.29 116.14"
/>
<path stroke="#98989a" vector-effect="non-scaling-stroke" d="
  M 101.16 96.94
  C 92.95 102.28 82.06 103.54 73.63 97.86
  Q 73.00 97.43 73.08 98.19
  Q 74.98 115.42 84.02 130.14
  A 0.57 0.57 0.0 0 0 84.89 130.26
  C 94.07 121.73 98.75 109.59 101.52 97.19
  Q 101.65 96.63 101.16 96.94"
/>
<path stroke="#533d3e" vector-effect="non-scaling-stroke" d="
  M 73.00 166.07
  C 89.07 165.63 105.11 166.02 121.17 165.65
  Q 122.45 165.62 122.44 164.33
  L 122.18 140.36
  Q 122.17 139.69 121.53 139.86
  C 116.44 141.16 110.91 142.65 105.93 142.52
  C 99.19 142.33 90.18 140.60 92.68 131.31
  Q 92.80 130.85 92.44 131.16
  L 86.13 136.62
  Q 85.65 137.03 85.01 136.99
  C 76.74 136.51 71.33 115.82 69.31 109.97
  Q 69.05 109.24 68.89 109.99
  Q 68.50 111.72 68.48 113.50
  Q 68.25 136.75 67.73 160.00
  Q 67.70 161.23 68.68 165.02
  Q 68.81 165.50 69.29 165.63
  Q 71.13 166.13 73.00 166.07"
/>
<path stroke="#927a6d" vector-effect="non-scaling-stroke" d="
  M 58.31 134.38
  L 61.77 134.88
  Q 62.24 134.95 62.25 134.49
  L 62.26 128.22
  Q 62.26 127.60 61.65 127.70
  L 58.49 128.19
  Q 57.75 128.30 57.75 129.05
  L 57.75 133.74
  Q 57.75 134.30 58.31 134.38"
/>
<path stroke="#927a6d" vector-effect="non-scaling-stroke" d="
  M 98.88 135.73
  L 105.78 136.86
  Q 106.35 136.95 106.75 136.54
  Q 109.93 133.34 107.80 129.04
  Q 107.59 128.63 107.14 128.69
  C 104.33 129.09 98.32 130.73 97.73 134.10
  A 1.40 1.39 -80.5 0 0 98.88 135.73"
/>
<path stroke="#927a6d" vector-effect="non-scaling-stroke" d="
  M 85.0403 75.5273
  A 2.49 2.49 0.0 0 0 82.5287 73.0591
  L 82.2487 73.0616
  A 2.49 2.49 0.0 0 0 79.7805 75.5732
  L 79.8997 89.2327
  A 2.49 2.49 0.0 0 0 82.4113 91.7009
  L 82.6913 91.6984
  A 2.49 2.49 0.0 0 0 85.1595 89.1868
  L 85.0403 75.5273"
/>
</g>
<g fill="#38383c">
<path d="
  M 58.24 122.42
  L 62.18 122.17
  Q 62.72 122.14 62.72 121.60
  Q 62.60 111.43 64.09 101.42
  C 64.81 96.54 67.73 93.27 66.62 87.71
  C 64.68 77.97 63.84 64.14 69.50 55.24
  C 79.59 39.36 101.08 41.74 109.25 58.25
  Q 110.53 60.83 110.75 67.72
  Q 110.76 68.26 111.29 68.37
  C 122.03 70.56 123.74 81.62 116.73 88.94
  Q 116.36 89.32 116.65 89.77
  C 128.73 107.92 127.31 128.03 128.17 149.14
  Q 128.46 156.54 128.12 163.94
  C 127.75 171.94 122.04 172.00 115.65 171.66
  C 98.23 170.76 86.86 171.93 71.76 171.71
  C 67.58 171.65 63.89 169.98 63.18 165.56
  C 61.85 157.31 62.36 149.58 62.57 141.27
  Q 62.59 140.67 62.00 140.61
  L 58.57 140.24
  Q 57.96 140.17 57.97 140.79
  Q 58.23 150.93 58.51 160.99
  Q 58.58 163.53 57.86 165.45
  Q 57.69 165.90 57.87 166.35
  C 59.80 171.29 46.09 174.07 45.57 163.58
  C 44.42 140.57 44.80 117.60 44.62 94.57
  Q 44.61 94.06 44.42 93.58
  L 43.69 91.72
  A 1.08 1.07 61.3 0 0 42.07 91.24
  C 38.41 93.86 42.37 95.46 41.15 98.60
  C 38.61 105.20 29.18 103.52 27.94 96.96
  C 26.02 86.79 31.78 78.95 42.20 78.32
  C 48.06 77.97 52.98 79.96 55.50 85.31
  C 57.73 90.07 56.46 98.00 56.83 102.74
  Q 57.87 115.89 57.82 122.03
  Q 57.82 122.45 58.24 122.42
  Z
  M 105.23 86.94
  C 117.71 88.44 117.68 71.51 108.72 74.29
  Q 108.22 74.45 107.71 74.30
  C 103.45 73.03 105.28 66.42 104.63 63.60
  C 101.30 49.13 82.72 45.11 74.46 57.19
  C 69.34 64.69 70.58 72.40 70.92 81.02
  C 71.13 86.31 75.51 94.21 81.00 95.31
  Q 93.91 97.90 103.26 87.98
  Q 104.35 86.83 105.23 86.94
  Z
  M 49.60 91.94
  C 51.18 115.45 50.02 138.86 51.18 162.37
  C 51.23 163.56 51.06 164.40 51.95 165.33
  A 0.59 0.59 0.0 0 0 52.96 164.90
  C 52.05 144.44 52.55 123.97 51.60 103.55
  C 51.26 96.39 54.34 83.11 42.24 83.91
  Q 33.33 84.50 32.91 94.29
  C 32.85 95.56 33.64 96.94 34.85 97.24
  A 0.47 0.47 0.0 0 0 35.42 96.65
  C 32.00 84.80 48.89 81.48 49.60 91.94
  Z
  M 110.29 116.14
  Q 111.93 119.78 111.19 123.61
  Q 111.08 124.20 111.45 124.67
  Q 114.99 129.22 114.05 135.12
  Q 113.94 135.78 114.59 135.61
  L 121.10 133.90
  Q 121.70 133.74 121.69 133.12
  C 121.57 117.84 119.85 105.25 111.73 92.61
  Q 111.47 92.20 111.00 92.32
  L 108.84 92.85
  Q 108.30 92.98 108.20 93.53
  C 105.80 105.71 102.20 117.52 95.24 127.12
  Q 95.00 127.44 95.36 127.27
  L 105.44 122.60
  Q 105.84 122.41 105.90 121.97
  C 106.18 119.44 103.88 115.39 108.28 114.97
  A 1.99 1.98 -14.7 0 1 110.29 116.14
  Z
  M 101.16 96.94
  C 92.95 102.28 82.06 103.54 73.63 97.86
  Q 73.00 97.43 73.08 98.19
  Q 74.98 115.42 84.02 130.14
  A 0.57 0.57 0.0 0 0 84.89 130.26
  C 94.07 121.73 98.75 109.59 101.52 97.19
  Q 101.65 96.63 101.16 96.94
  Z
  M 73.00 166.07
  C 89.07 165.63 105.11 166.02 121.17 165.65
  Q 122.45 165.62 122.44 164.33
  L 122.18 140.36
  Q 122.17 139.69 121.53 139.86
  C 116.44 141.16 110.91 142.65 105.93 142.52
  C 99.19 142.33 90.18 140.60 92.68 131.31
  Q 92.80 130.85 92.44 131.16
  L 86.13 136.62
  Q 85.65 137.03 85.01 136.99
  C 76.74 136.51 71.33 115.82 69.31 109.97
  Q 69.05 109.24 68.89 109.99
  Q 68.50 111.72 68.48 113.50
  Q 68.25 136.75 67.73 160.00
  Q 67.70 161.23 68.68 165.02
  Q 68.81 165.50 69.29 165.63
  Q 71.13 166.13 73.00 166.07
  Z
  M 58.31 134.38
  L 61.77 134.88
  Q 62.24 134.95 62.25 134.49
  L 62.26 128.22
  Q 62.26 127.60 61.65 127.70
  L 58.49 128.19
  Q 57.75 128.30 57.75 129.05
  L 57.75 133.74
  Q 57.75 134.30 58.31 134.38
  Z
  M 98.88 135.73
  L 105.78 136.86
  Q 106.35 136.95 106.75 136.54
  Q 109.93 133.34 107.80 129.04
  Q 107.59 128.63 107.14 128.69
  C 104.33 129.09 98.32 130.73 97.73 134.10
  A 1.40 1.39 -80.5 0 0 98.88 135.73
  Z"
/>
<rect x="-2.63" y="-9.32" transform="translate(82.47,82.38) rotate(-0.5)" width="5.26" height="18.64" rx="2.49"/>
</g>
<g fill="#ebbc9e">
<path d="
  M 108.72 74.29
  C 117.68 71.51 117.71 88.44 105.23 86.94
  Q 104.35 86.83 103.26 87.98
  Q 93.91 97.90 81.00 95.31
  C 75.51 94.21 71.13 86.31 70.92 81.02
  C 70.58 72.40 69.34 64.69 74.46 57.19
  C 82.72 45.11 101.30 49.13 104.63 63.60
  C 105.28 66.42 103.45 73.03 107.71 74.30
  Q 108.22 74.45 108.72 74.29
  Z
  M 85.0403 75.5273
  A 2.49 2.49 0.0 0 0 82.5287 73.0591
  L 82.2487 73.0616
  A 2.49 2.49 0.0 0 0 79.7805 75.5732
  L 79.8997 89.2327
  A 2.49 2.49 0.0 0 0 82.4113 91.7009
  L 82.6913 91.6984
  A 2.49 2.49 0.0 0 0 85.1595 89.1868
  L 85.0403 75.5273
  Z"
/>
<path d="
  M 61.77 134.88
  L 58.31 134.38
  Q 57.75 134.30 57.75 133.74
  L 57.75 129.05
  Q 57.75 128.30 58.49 128.19
  L 61.65 127.70
  Q 62.26 127.60 62.26 128.22
  L 62.25 134.49
  Q 62.24 134.95 61.77 134.88
  Z"
/>
<path d="
  M 98.88 135.73
  A 1.40 1.39 -80.5 0 1 97.73 134.10
  C 98.32 130.73 104.33 129.09 107.14 128.69
  Q 107.59 128.63 107.80 129.04
  Q 109.93 133.34 106.75 136.54
  Q 106.35 136.95 105.78 136.86
  L 98.88 135.73
  Z"
/>
</g>
<g fill="#6e423f">
<path d="
  M 51.18 162.37
  C 50.02 138.86 51.18 115.45 49.60 91.94
  C 48.89 81.48 32.00 84.80 35.42 96.65
  A 0.47 0.47 0.0 0 1 34.85 97.24
  C 33.64 96.94 32.85 95.56 32.91 94.29
  Q 33.33 84.50 42.24 83.91
  C 54.34 83.11 51.26 96.39 51.60 103.55
  C 52.55 123.97 52.05 144.44 52.96 164.90
  A 0.59 0.59 0.0 0 1 51.95 165.33
  C 51.06 164.40 51.23 163.56 51.18 162.37
  Z"
/>
<path d="
  M 110.29 116.14
  A 1.99 1.98 -14.7 0 0 108.28 114.97
  C 103.88 115.39 106.18 119.44 105.90 121.97
  Q 105.84 122.41 105.44 122.60
  L 95.36 127.27
  Q 95.00 127.44 95.24 127.12
  C 102.20 117.52 105.80 105.71 108.20 93.53
  Q 108.30 92.98 108.84 92.85
  L 111.00 92.32
  Q 111.47 92.20 111.73 92.61
  C 119.85 105.25 121.57 117.84 121.69 133.12
  Q 121.70 133.74 121.10 133.90
  L 114.59 135.61
  Q 113.94 135.78 114.05 135.12
  Q 114.99 129.22 111.45 124.67
  Q 111.08 124.20 111.19 123.61
  Q 111.93 119.78 110.29 116.14
  Z"
/>
<path d="
  M 121.17 165.65
  C 105.11 166.02 89.07 165.63 73.00 166.07
  Q 71.13 166.13 69.29 165.63
  Q 68.81 165.50 68.68 165.02
  Q 67.70 161.23 67.73 160.00
  Q 68.25 136.75 68.48 113.50
  Q 68.50 111.72 68.89 109.99
  Q 69.05 109.24 69.31 109.97
  C 71.33 115.82 76.74 136.51 85.01 136.99
  Q 85.65 137.03 86.13 136.62
  L 92.44 131.16
  Q 92.80 130.85 92.68 131.31
  C 90.18 140.60 99.19 142.33 105.93 142.52
  C 110.91 142.65 116.44 141.16 121.53 139.86
  Q 122.17 139.69 122.18 140.36
  L 122.44 164.33
  Q 122.45 165.62 121.17 165.65
  Z"
/>
</g>
<path fill="#f8f8f8" d="
  M 73.63 97.86
  C 82.06 103.54 92.95 102.28 101.16 96.94
  Q 101.65 96.63 101.52 97.19
  C 98.75 109.59 94.07 121.73 84.89 130.26
  A 0.57 0.57 0.0 0 1 84.02 130.14
  Q 74.98 115.42 73.08 98.19
  Q 73.00 97.43 73.63 97.86
  Z"
/>
</svg>
