<?xml version="1.0" encoding="UTF-8" standalone="no"?>
<!DOCTYPE svg PUBLIC "-//W3C//DTD SVG 1.1//EN" "http://www.w3.org/Graphics/SVG/1.1/DTD/svg11.dtd">
<svg xmlns="http://www.w3.org/2000/svg" version="1.1" viewBox="0 0 180 180">
<g stroke-width="2.00" fill="none" stroke-linecap="butt">
<path stroke="#533d3e" vector-effect="non-scaling-stroke" d="
  M 71.96 63.46
  C 82.66 63.06 93.24 63.65 103.83 63.75
  A 0.88 0.87 72.2 0 0 104.54 62.35
  C 99.83 55.86 98.37 38.48 85.72 42.75
  C 77.44 45.55 75.40 56.28 71.61 62.88
  A 0.39 0.39 0.0 0 0 71.96 63.46"
/>
<path stroke="#98989a" vector-effect="non-scaling-stroke" d="
  M 49.52 42.78
  Q 47.96 48.85 48.28 55.12
  Q 48.30 55.59 48.77 55.49
  L 51.30 54.90
  Q 51.84 54.78 51.91 54.22
  Q 52.58 48.24 50.27 42.72
  A 0.40 0.39 -49.2 0 0 49.52 42.78"
/>
<path stroke="#98989a" vector-effect="non-scaling-stroke" d="
  M 67.08 52.55
  Q 66.95 52.73 66.99 53.00
  Q 67.05 53.50 67.56 53.50
  L 69.29 53.50
  Q 70.07 53.50 70.12 52.72
  L 70.63 44.57
  A 0.70 0.69 -31.4 0 0 69.30 44.25
  Q 67.65 48.03 67.22 52.18
  Q 67.20 52.38 67.08 52.55"
/>
<path stroke="#98989a" vector-effect="non-scaling-stroke" d="
  M 45.35 76.50
  L 47.75 79.65
  Q 48.02 80.00 48.46 80.00
  L 51.71 80.00
  Q 52.33 80.00 52.43 79.38
  Q 52.72 77.57 53.93 76.27
  Q 54.28 75.90 54.78 75.86
  L 64.12 75.12
  A 1.23 1.22 -2.3 0 0 65.25 73.90
  L 65.25 68.77
  A 0.48 0.48 0.0 0 0 64.50 68.38
  Q 59.71 71.73 55.05 68.24
  Q 54.62 67.92 54.08 67.91
  Q 50.85 67.82 48.00 66.49
  Q 47.54 66.28 47.18 66.64
  C 43.70 70.15 37.33 71.26 34.59 66.22
  C 31.15 59.91 34.06 51.21 30.32 44.16
  A 0.44 0.44 0.0 0 0 29.50 44.32
  Q 28.35 56.00 30.80 66.91
  C 32.54 74.65 37.96 75.17 44.50 76.01
  Q 45.03 76.08 45.35 76.50"
/>
<path stroke="#533d3e" vector-effect="non-scaling-stroke" d="
  M 50.76 61.88
  L 65.54 62.82
  Q 66.21 62.86 66.48 62.25
  L 67.39 60.16
  Q 67.68 59.48 66.95 59.46
  Q 58.97 59.16 51.11 60.45
  Q 50.89 60.48 50.73 60.64
  L 50.41 60.96
  Q 49.57 61.80 50.76 61.88"
/>
<path stroke="#533d3e" vector-effect="non-scaling-stroke" d="
  M 125.20 60.29
  Q 117.83 59.56 110.39 59.67
  Q 109.73 59.68 109.90 60.32
  L 110.63 63.05
  Q 110.75 63.50 111.22 63.50
  Q 118.08 63.35 125.29 61.20
  Q 127.56 60.52 125.20 60.29"
/>
<path stroke="#927a6d" vector-effect="non-scaling-stroke" d="
  M 104.92 71.15
  L 105.01 70.03
  Q 105.05 69.50 104.52 69.50
  L 71.01 69.16
  Q 70.48 69.15 70.49 69.68
  Q 70.58 75.44 70.97 81.18
  C 72.02 96.29 88.06 104.52 100.16 94.27
  C 103.06 91.81 101.21 86.86 106.36 87.06
  C 113.65 87.35 119.66 77.77 111.22 74.03
  Q 110.76 73.83 110.29 73.99
  Q 106.64 75.20 105.10 72.06
  Q 104.89 71.63 104.92 71.15"
/>
<path stroke="#9c904d" vector-effect="non-scaling-stroke" d="
  M 130.48 76.98
  C 125.71 76.97 119.28 85.77 116.76 88.93
  Q 116.46 89.30 116.70 89.72
  L 120.07 95.48
  Q 120.30 95.88 120.58 95.50
  C 123.99 90.96 130.47 83.33 131.12 77.70
  Q 131.20 76.98 130.48 76.98"
/>
<path stroke="#533d3e" vector-effect="non-scaling-stroke" d="
  M 50.15 99.19
  Q 50.93 132.14 50.80 165.10
  Q 50.80 165.82 51.52 165.88
  L 52.34 165.94
  A 0.80 0.78 1.3 0 0 53.19 165.14
  Q 52.30 125.91 51.05 86.76
  Q 51.02 85.87 50.35 85.68
  A 0.72 0.72 0.0 0 0 49.44 86.43
  Q 50.00 93.21 50.15 99.19"
/>
<path stroke="#9c904d" vector-effect="non-scaling-stroke" d="
  M 137.81 88.98
  C 129.59 89.30 127.56 95.38 123.11 100.99
  Q 122.73 101.48 122.94 102.05
  L 124.32 105.97
  Q 124.50 106.47 124.92 106.15
  C 128.08 103.74 139.37 93.68 138.61 89.62
  Q 138.48 88.96 137.81 88.98"
/>
<path stroke="#533d3e" vector-effect="non-scaling-stroke" d="
  M 91.75 114.40
  C 83.91 126.27 76.37 105.91 75.29 100.81
  Q 75.17 100.24 74.74 99.86
  L 71.88 97.33
  Q 71.46 96.96 71.19 97.44
  Q 70.36 98.89 70.08 100.57
  C 68.19 112.15 68.39 123.76 68.18 135.51
  Q 68.17 136.08 68.75 136.11
  L 91.97 137.16
  A 0.51 0.51 0.0 0 0 92.48 136.49
  C 89.57 127.93 100.19 125.13 105.45 122.68
  Q 105.95 122.44 105.98 121.89
  C 106.08 120.16 105.05 118.09 105.69 116.68
  C 106.60 114.65 109.67 114.49 110.56 116.72
  Q 111.92 120.13 111.19 123.67
  Q 111.09 124.20 111.42 124.62
  Q 114.97 129.19 114.04 135.12
  Q 113.94 135.79 114.60 135.62
  L 121.11 133.87
  Q 121.72 133.70 121.72 133.07
  C 121.70 118.44 119.86 105.18 111.98 92.99
  Q 111.72 92.59 111.24 92.54
  C 106.90 92.07 107.24 95.19 105.25 97.32
  Q 101.98 100.82 97.64 103.02
  Q 97.18 103.26 97.01 103.74
  Q 95.05 109.40 91.75 114.40"
/>
<path stroke="#9c904d" vector-effect="non-scaling-stroke" d="
  M 142.52 102.75
  Q 139.95 102.80 137.53 103.50
  C 133.81 104.59 129.38 109.67 126.27 112.23
  Q 125.86 112.57 125.91 113.10
  L 126.53 118.70
  Q 126.60 119.32 127.14 119.01
  Q 137.03 113.33 143.04 103.66
  A 0.60 0.59 15.4 0 0 142.52 102.75"
/>
<path stroke="#927a6d" vector-effect="non-scaling-stroke" d="
  M 89.97 104.56
  C 87.40 104.94 84.62 104.32 82.12 103.68
  A 0.36 0.36 0.0 0 0 81.72 104.20
  L 85.67 111.36
  A 0.87 0.87 0.0 0 0 87.21 111.32
  L 90.34 105.07
  Q 90.64 104.46 89.97 104.56"
/>
<path stroke="#9c904d" vector-effect="non-scaling-stroke" d="
  M 142.67 117.68
  C 140.94 116.75 139.92 116.51 138.18 117.85
  Q 133.18 121.74 127.96 125.36
  Q 127.50 125.68 127.50 126.24
  L 127.50 128.46
  Q 127.50 129.06 128.08 128.91
  C 131.34 128.04 142.81 123.66 143.76 120.22
  A 2.20 2.20 0.0 0 0 142.67 117.68"
/>
<path stroke="#927a6d" vector-effect="non-scaling-stroke" d="
  M 57.75 134.04
  A 0.32 0.32 0.0 0 0 58.03 134.35
  L 61.89 134.84
  A 0.32 0.32 0.0 0 0 62.25 134.52
  L 62.26 127.97
  A 0.32 0.32 0.0 0 0 61.89 127.65
  L 58.02 128.30
  A 0.32 0.32 0.0 0 0 57.75 128.61
  L 57.75 134.04"
/>
<path stroke="#927a6d" vector-effect="non-scaling-stroke" d="
  M 98.89 135.73
  L 105.76 136.88
  Q 106.33 136.97 106.73 136.56
  Q 109.93 133.35 107.80 129.04
  Q 107.59 128.63 107.14 128.69
  C 104.34 129.09 98.32 130.73 97.73 134.10
  A 1.41 1.40 9.7 0 0 98.89 135.73"
/>
<path stroke="#533d3e" vector-effect="non-scaling-stroke" d="
  M 86.16 153.66
  C 89.15 147.15 97.74 147.01 102.31 150.50
  C 106.37 153.60 107.35 158.47 106.63 163.34
  A 2.01 2.01 0.0 0 0 108.61 165.64
  L 121.08 165.72
  A 1.29 1.29 0.0 0 0 122.38 164.42
  L 122.31 142.90
  A 0.89 0.89 0.0 0 0 121.35 142.01
  C 103.75 143.16 86.04 143.09 68.80 141.81
  A 0.51 0.51 0.0 0 0 68.25 142.31
  C 68.04 149.24 66.72 158.12 68.56 164.24
  A 2.55 2.55 0.0 0 0 71.07 166.06
  L 84.66 165.69
  A 0.88 0.87 89.0 0 0 85.51 164.80
  C 85.48 161.71 84.89 156.42 86.16 153.66"
/>
<path stroke="#927a6d" vector-effect="non-scaling-stroke" d="
  M 85.04 75.55
  A 2.49 2.49 0.0 0 0 82.55 73.06
  L 82.35 73.06
  A 2.49 2.49 0.0 0 0 79.86 75.55
  L 79.86 89.17
  A 2.49 2.49 0.0 0 0 82.35 91.66
  L 82.55 91.66
  A 2.49 2.49 0.0 0 0 85.04 89.17
  L 85.04 75.55"
/>
</g>
<g fill="#38383c">
<path d="
  M 75.34 42.84
  A 0.46 0.46 0.0 0 0 76.17 43.01
  Q 79.66 37.95 85.68 36.86
  C 98.10 34.60 102.91 43.65 106.57 53.32
  Q 106.76 53.82 107.29 53.82
  C 116.33 53.83 131.24 52.20 133.27 60.45
  C 135.03 67.60 118.79 68.83 114.99 68.79
  A 0.39 0.39 0.0 0 0 114.80 69.53
  Q 118.78 71.67 120.53 75.91
  Q 120.79 76.55 121.28 76.06
  C 128.62 68.70 140.70 70.89 135.06 83.45
  Q 134.78 84.08 135.46 83.95
  C 145.35 82.02 145.57 90.99 141.48 96.89
  Q 141.15 97.36 141.72 97.37
  C 152.00 97.62 147.81 107.31 143.98 111.77
  Q 143.64 112.17 144.12 112.38
  Q 146.71 113.54 147.95 115.36
  C 154.88 125.53 135.19 132.97 128.29 134.71
  Q 127.81 134.83 127.80 135.33
  C 127.53 145.66 129.13 158.71 128.01 166.50
  C 126.98 173.68 111.14 171.81 106.75 170.99
  C 96.53 169.09 105.94 150.51 92.91 154.24
  A 2.51 2.50 -9.9 0 0 91.11 156.79
  C 91.50 162.87 92.79 171.61 83.81 171.77
  C 79.10 171.85 69.11 172.98 64.96 169.27
  C 60.68 165.44 62.43 146.92 62.57 141.27
  Q 62.59 140.67 62.00 140.61
  L 58.80 140.26
  Q 58.18 140.19 58.19 140.81
  Q 58.36 152.57 58.53 164.26
  C 58.55 166.11 57.96 167.67 57.49 169.40
  Q 57.35 169.91 56.89 170.18
  C 53.04 172.40 47.74 171.87 45.95 167.40
  C 44.30 163.26 45.26 157.73 45.20 154.75
  C 44.69 129.24 44.91 111.05 44.01 86.43
  Q 43.99 86.03 44.14 85.67
  Q 44.33 85.21 44.20 84.68
  Q 44.08 84.18 43.69 83.84
  Q 42.81 83.06 42.35 81.97
  Q 42.13 81.45 41.58 81.34
  C 33.81 79.90 27.59 77.73 25.61 69.08
  C 24.30 63.37 21.25 43.09 26.85 39.48
  C 33.32 35.31 36.98 45.81 37.47 50.15
  C 37.97 54.57 37.79 61.18 39.38 63.89
  Q 39.65 64.36 40.20 64.36
  C 42.87 64.33 43.70 62.13 43.43 59.71
  C 42.75 53.78 42.21 41.12 48.09 36.99
  Q 48.52 36.68 49.05 36.73
  C 55.97 37.37 57.06 47.35 57.12 53.00
  Q 57.14 53.95 58.08 53.88
  L 60.87 53.69
  Q 61.37 53.66 61.45 53.16
  Q 62.03 49.66 63.53 44.30
  C 65.27 38.11 73.76 34.41 75.34 42.84
  Z
  M 71.96 63.46
  C 82.66 63.06 93.24 63.65 103.83 63.75
  A 0.88 0.87 72.2 0 0 104.54 62.35
  C 99.83 55.86 98.37 38.48 85.72 42.75
  C 77.44 45.55 75.40 56.28 71.61 62.88
  A 0.39 0.39 0.0 0 0 71.96 63.46
  Z
  M 49.52 42.78
  Q 47.96 48.85 48.28 55.12
  Q 48.30 55.59 48.77 55.49
  L 51.30 54.90
  Q 51.84 54.78 51.91 54.22
  Q 52.58 48.24 50.27 42.72
  A 0.40 0.39 -49.2 0 0 49.52 42.78
  Z
  M 67.08 52.55
  Q 66.95 52.73 66.99 53.00
  Q 67.05 53.50 67.56 53.50
  L 69.29 53.50
  Q 70.07 53.50 70.12 52.72
  L 70.63 44.57
  A 0.70 0.69 -31.4 0 0 69.30 44.25
  Q 67.65 48.03 67.22 52.18
  Q 67.20 52.38 67.08 52.55
  Z
  M 45.35 76.50
  L 47.75 79.65
  Q 48.02 80.00 48.46 80.00
  L 51.71 80.00
  Q 52.33 80.00 52.43 79.38
  Q 52.72 77.57 53.93 76.27
  Q 54.28 75.90 54.78 75.86
  L 64.12 75.12
  A 1.23 1.22 -2.3 0 0 65.25 73.90
  L 65.25 68.77
  A 0.48 0.48 0.0 0 0 64.50 68.38
  Q 59.71 71.73 55.05 68.24
  Q 54.62 67.92 54.08 67.91
  Q 50.85 67.82 48.00 66.49
  Q 47.54 66.28 47.18 66.64
  C 43.70 70.15 37.33 71.26 34.59 66.22
  C 31.15 59.91 34.06 51.21 30.32 44.16
  A 0.44 0.44 0.0 0 0 29.50 44.32
  Q 28.35 56.00 30.80 66.91
  C 32.54 74.65 37.96 75.17 44.50 76.01
  Q 45.03 76.08 45.35 76.50
  Z
  M 50.76 61.88
  L 65.54 62.82
  Q 66.21 62.86 66.48 62.25
  L 67.39 60.16
  Q 67.68 59.48 66.95 59.46
  Q 58.97 59.16 51.11 60.45
  Q 50.89 60.48 50.73 60.64
  L 50.41 60.96
  Q 49.57 61.80 50.76 61.88
  Z
  M 125.20 60.29
  Q 117.83 59.56 110.39 59.67
  Q 109.73 59.68 109.90 60.32
  L 110.63 63.05
  Q 110.75 63.50 111.22 63.50
  Q 118.08 63.35 125.29 61.20
  Q 127.56 60.52 125.20 60.29
  Z
  M 104.92 71.15
  L 105.01 70.03
  Q 105.05 69.50 104.52 69.50
  L 71.01 69.16
  Q 70.48 69.15 70.49 69.68
  Q 70.58 75.44 70.97 81.18
  C 72.02 96.29 88.06 104.52 100.16 94.27
  C 103.06 91.81 101.21 86.86 106.36 87.06
  C 113.65 87.35 119.66 77.77 111.22 74.03
  Q 110.76 73.83 110.29 73.99
  Q 106.64 75.20 105.10 72.06
  Q 104.89 71.63 104.92 71.15
  Z
  M 130.48 76.98
  C 125.71 76.97 119.28 85.77 116.76 88.93
  Q 116.46 89.30 116.70 89.72
  L 120.07 95.48
  Q 120.30 95.88 120.58 95.50
  C 123.99 90.96 130.47 83.33 131.12 77.70
  Q 131.20 76.98 130.48 76.98
  Z
  M 64.54 80.83
  L 58.57 81.39
  Q 58.18 81.43 57.93 81.73
  Q 56.11 83.86 56.26 85.50
  C 57.56 98.97 56.97 109.72 57.59 121.92
  Q 57.61 122.46 58.16 122.43
  L 62.20 122.17
  Q 62.78 122.14 62.77 121.56
  C 62.61 110.73 62.95 100.61 67.57 91.96
  Q 67.79 91.55 67.68 91.09
  L 65.26 81.34
  Q 65.12 80.78 64.54 80.83
  Z
  M 50.15 99.19
  Q 50.93 132.14 50.80 165.10
  Q 50.80 165.82 51.52 165.88
  L 52.34 165.94
  A 0.80 0.78 1.3 0 0 53.19 165.14
  Q 52.30 125.91 51.05 86.76
  Q 51.02 85.87 50.35 85.68
  A 0.72 0.72 0.0 0 0 49.44 86.43
  Q 50.00 93.21 50.15 99.19
  Z
  M 137.81 88.98
  C 129.59 89.30 127.56 95.38 123.11 100.99
  Q 122.73 101.48 122.94 102.05
  L 124.32 105.97
  Q 124.50 106.47 124.92 106.15
  C 128.08 103.74 139.37 93.68 138.61 89.62
  Q 138.48 88.96 137.81 88.98
  Z
  M 91.75 114.40
  C 83.91 126.27 76.37 105.91 75.29 100.81
  Q 75.17 100.24 74.74 99.86
  L 71.88 97.33
  Q 71.46 96.96 71.19 97.44
  Q 70.36 98.89 70.08 100.57
  C 68.19 112.15 68.39 123.76 68.18 135.51
  Q 68.17 136.08 68.75 136.11
  L 91.97 137.16
  A 0.51 0.51 0.0 0 0 92.48 136.49
  C 89.57 127.93 100.19 125.13 105.45 122.68
  Q 105.95 122.44 105.98 121.89
  C 106.08 120.16 105.05 118.09 105.69 116.68
  C 106.60 114.65 109.67 114.49 110.56 116.72
  Q 111.92 120.13 111.19 123.67
  Q 111.09 124.20 111.42 124.62
  Q 114.97 129.19 114.04 135.12
  Q 113.94 135.79 114.60 135.62
  L 121.11 133.87
  Q 121.72 133.70 121.72 133.07
  C 121.70 118.44 119.86 105.18 111.98 92.99
  Q 111.72 92.59 111.24 92.54
  C 106.90 92.07 107.24 95.19 105.25 97.32
  Q 101.98 100.82 97.64 103.02
  Q 97.18 103.26 97.01 103.74
  Q 95.05 109.40 91.75 114.40
  Z
  M 142.52 102.75
  Q 139.95 102.80 137.53 103.50
  C 133.81 104.59 129.38 109.67 126.27 112.23
  Q 125.86 112.57 125.91 113.10
  L 126.53 118.70
  Q 126.60 119.32 127.14 119.01
  Q 137.03 113.33 143.04 103.66
  A 0.60 0.59 15.4 0 0 142.52 102.75
  Z
  M 89.97 104.56
  C 87.40 104.94 84.62 104.32 82.12 103.68
  A 0.36 0.36 0.0 0 0 81.72 104.20
  L 85.67 111.36
  A 0.87 0.87 0.0 0 0 87.21 111.32
  L 90.34 105.07
  Q 90.64 104.46 89.97 104.56
  Z
  M 142.67 117.68
  C 140.94 116.75 139.92 116.51 138.18 117.85
  Q 133.18 121.74 127.96 125.36
  Q 127.50 125.68 127.50 126.24
  L 127.50 128.46
  Q 127.50 129.06 128.08 128.91
  C 131.34 128.04 142.81 123.66 143.76 120.22
  A 2.20 2.20 0.0 0 0 142.67 117.68
  Z
  M 57.75 134.04
  A 0.32 0.32 0.0 0 0 58.03 134.35
  L 61.89 134.84
  A 0.32 0.32 0.0 0 0 62.25 134.52
  L 62.26 127.97
  A 0.32 0.32 0.0 0 0 61.89 127.65
  L 58.02 128.30
  A 0.32 0.32 0.0 0 0 57.75 128.61
  L 57.75 134.04
  Z
  M 98.89 135.73
  L 105.76 136.88
  Q 106.33 136.97 106.73 136.56
  Q 109.93 133.35 107.80 129.04
  Q 107.59 128.63 107.14 128.69
  C 104.34 129.09 98.32 130.73 97.73 134.10
  A 1.41 1.40 9.7 0 0 98.89 135.73
  Z
  M 86.16 153.66
  C 89.15 147.15 97.74 147.01 102.31 150.50
  C 106.37 153.60 107.35 158.47 106.63 163.34
  A 2.01 2.01 0.0 0 0 108.61 165.64
  L 121.08 165.72
  A 1.29 1.29 0.0 0 0 122.38 164.42
  L 122.31 142.90
  A 0.89 0.89 0.0 0 0 121.35 142.01
  C 103.75 143.16 86.04 143.09 68.80 141.81
  A 0.51 0.51 0.0 0 0 68.25 142.31
  C 68.04 149.24 66.72 158.12 68.56 164.24
  A 2.55 2.55 0.0 0 0 71.07 166.06
  L 84.66 165.69
  A 0.88 0.87 89.0 0 0 85.51 164.80
  C 85.48 161.71 84.89 156.42 86.16 153.66
  Z"
/>
<rect x="79.86" y="73.06" width="5.18" height="18.60" rx="2.49"/>
</g>
<g fill="#ebbc9e">
<path d="
  M 105.10 72.06
  Q 106.64 75.20 110.29 73.99
  Q 110.76 73.83 111.22 74.03
  C 119.66 77.77 113.65 87.35 106.36 87.06
  C 101.21 86.86 103.06 91.81 100.16 94.27
  C 88.06 104.52 72.02 96.29 70.97 81.18
  Q 70.58 75.44 70.49 69.68
  Q 70.48 69.15 71.01 69.16
  L 104.52 69.50
  Q 105.05 69.50 105.01 70.03
  L 104.92 71.15
  Q 104.89 71.63 105.10 72.06
  Z
  M 85.04 75.55
  A 2.49 2.49 0.0 0 0 82.55 73.06
  L 82.35 73.06
  A 2.49 2.49 0.0 0 0 79.86 75.55
  L 79.86 89.17
  A 2.49 2.49 0.0 0 0 82.35 91.66
  L 82.55 91.66
  A 2.49 2.49 0.0 0 0 85.04 89.17
  L 85.04 75.55
  Z"
/>
<path d="
  M 82.12 103.68
  C 84.62 104.32 87.40 104.94 89.97 104.56
  Q 90.64 104.46 90.34 105.07
  L 87.21 111.32
  A 0.87 0.87 0.0 0 1 85.67 111.36
  L 81.72 104.20
  A 0.36 0.36 0.0 0 1 82.12 103.68
  Z"
/>
<path d="
  M 57.75 134.04
  L 57.75 128.61
  A 0.32 0.32 0.0 0 1 58.02 128.30
  L 61.89 127.65
  A 0.32 0.32 0.0 0 1 62.26 127.97
  L 62.25 134.52
  A 0.32 0.32 0.0 0 1 61.89 134.84
  L 58.03 134.35
  A 0.32 0.32 0.0 0 1 57.75 134.04
  Z"
/>
<path d="
  M 98.89 135.73
  A 1.41 1.40 9.7 0 1 97.73 134.10
  C 98.32 130.73 104.34 129.09 107.14 128.69
  Q 107.59 128.63 107.80 129.04
  Q 109.93 133.35 106.73 136.56
  Q 106.33 136.97 105.76 136.88
  L 98.89 135.73
  Z"
/>
</g>
<g fill="#6e423f">
<path d="
  M 103.83 63.75
  C 93.24 63.65 82.66 63.06 71.96 63.46
  A 0.39 0.39 0.0 0 1 71.61 62.88
  C 75.40 56.28 77.44 45.55 85.72 42.75
  C 98.37 38.48 99.83 55.86 104.54 62.35
  A 0.88 0.87 72.2 0 1 103.83 63.75
  Z"
/>
<path d="
  M 50.76 61.88
  Q 49.57 61.80 50.41 60.96
  L 50.73 60.64
  Q 50.89 60.48 51.11 60.45
  Q 58.97 59.16 66.95 59.46
  Q 67.68 59.48 67.39 60.16
  L 66.48 62.25
  Q 66.21 62.86 65.54 62.82
  L 50.76 61.88
  Z"
/>
<path d="
  M 125.29 61.20
  Q 118.08 63.35 111.22 63.50
  Q 110.75 63.50 110.63 63.05
  L 109.90 60.32
  Q 109.73 59.68 110.39 59.67
  Q 117.83 59.56 125.20 60.29
  Q 127.56 60.52 125.29 61.20
  Z"
/>
<path d="
  M 50.15 99.19
  Q 50.00 93.21 49.44 86.43
  A 0.72 0.72 0.0 0 1 50.35 85.68
  Q 51.02 85.87 51.05 86.76
  Q 52.30 125.91 53.19 165.14
  A 0.80 0.78 1.3 0 1 52.34 165.94
  L 51.52 165.88
  Q 50.80 165.82 50.80 165.10
  Q 50.93 132.14 50.15 99.19
  Z"
/>
<path d="
  M 75.29 100.81
  C 76.37 105.91 83.91 126.27 91.75 114.40
  Q 95.05 109.40 97.01 103.74
  Q 97.18 103.26 97.64 103.02
  Q 101.98 100.82 105.25 97.32
  C 107.24 95.19 106.90 92.07 111.24 92.54
  Q 111.72 92.59 111.98 92.99
  C 119.86 105.18 121.70 118.44 121.72 133.07
  Q 121.72 133.70 121.11 133.87
  L 114.60 135.62
  Q 113.94 135.79 114.04 135.12
  Q 114.97 129.19 111.42 124.62
  Q 111.09 124.20 111.19 123.67
  Q 111.92 120.13 110.56 116.72
  C 109.67 114.49 106.60 114.65 105.69 116.68
  C 105.05 118.09 106.08 120.16 105.98 121.89
  Q 105.95 122.44 105.45 122.68
  C 100.19 125.13 89.57 127.93 92.48 136.49
  A 0.51 0.51 0.0 0 1 91.97 137.16
  L 68.75 136.11
  Q 68.17 136.08 68.18 135.51
  C 68.39 123.76 68.19 112.15 70.08 100.57
  Q 70.36 98.89 71.19 97.44
  Q 71.46 96.96 71.88 97.33
  L 74.74 99.86
  Q 75.17 100.24 75.29 100.81
  Z"
/>
<path d="
  M 102.31 150.50
  C 97.74 147.01 89.15 147.15 86.16 153.66
  C 84.89 156.42 85.48 161.71 85.51 164.80
  A 0.88 0.87 89.0 0 1 84.66 165.69
  L 71.07 166.06
  A 2.55 2.55 0.0 0 1 68.56 164.24
  C 66.72 158.12 68.04 149.24 68.25 142.31
  A 0.51 0.51 0.0 0 1 68.80 141.81
  C 86.04 143.09 103.75 143.16 121.35 142.01
  A 0.89 0.89 0.0 0 1 122.31 142.90
  L 122.38 164.42
  A 1.29 1.29 0.0 0 1 121.08 165.72
  L 108.61 165.64
  A 2.01 2.01 0.0 0 1 106.63 163.34
  C 107.35 158.47 106.37 153.60 102.31 150.50
  Z"
/>
</g>
<g fill="#ffe75e">
<path d="
  M 116.76 88.93
  C 119.28 85.77 125.71 76.97 130.48 76.98
  Q 131.20 76.98 131.12 77.70
  C 130.47 83.33 123.99 90.96 120.58 95.50
  Q 120.30 95.88 120.07 95.48
  L 116.70 89.72
  Q 116.46 89.30 116.76 88.93
  Z"
/>
<path d="
  M 138.61 89.62
  C 139.37 93.68 128.08 103.74 124.92 106.15
  Q 124.50 106.47 124.32 105.97
  L 122.94 102.05
  Q 122.73 101.48 123.11 100.99
  C 127.56 95.38 129.59 89.30 137.81 88.98
  Q 138.48 88.96 138.61 89.62
  Z"
/>
<path d="
  M 142.52 102.75
  A 0.60 0.59 15.4 0 1 143.04 103.66
  Q 137.03 113.33 127.14 119.01
  Q 126.60 119.32 126.53 118.70
  L 125.91 113.10
  Q 125.86 112.57 126.27 112.23
  C 129.38 109.67 133.81 104.59 137.53 103.50
  Q 139.95 102.80 142.52 102.75
  Z"
/>
<path d="
  M 142.67 117.68
  A 2.20 2.20 0.0 0 1 143.76 120.22
  C 142.81 123.66 131.34 128.04 128.08 128.91
  Q 127.50 129.06 127.50 128.46
  L 127.50 126.24
  Q 127.50 125.68 127.96 125.36
  Q 133.18 121.74 138.18 117.85
  C 139.92 116.51 140.94 116.75 142.67 117.68
  Z"
/>
</g>
<g fill="#f8f8f8">
<path d="
  M 49.52 42.78
  A 0.40 0.39 -49.2 0 1 50.27 42.72
  Q 52.58 48.24 51.91 54.22
  Q 51.84 54.78 51.30 54.90
  L 48.77 55.49
  Q 48.30 55.59 48.28 55.12
  Q 47.96 48.85 49.52 42.78
  Z"
/>
<path d="
  M 67.22 52.18
  Q 67.65 48.03 69.30 44.25
  A 0.70 0.69 -31.4 0 1 70.63 44.57
  L 70.12 52.72
  Q 70.07 53.50 69.29 53.50
  L 67.56 53.50
  Q 67.05 53.50 66.99 53.00
  Q 66.95 52.73 67.08 52.55
  Q 67.20 52.38 67.22 52.18
  Z"
/>
<path d="
  M 44.50 76.01
  C 37.96 75.17 32.54 74.65 30.80 66.91
  Q 28.35 56.00 29.50 44.32
  A 0.44 0.44 0.0 0 1 30.32 44.16
  C 34.06 51.21 31.15 59.91 34.59 66.22
  C 37.33 71.26 43.70 70.15 47.18 66.64
  Q 47.54 66.28 48.00 66.49
  Q 50.85 67.82 54.08 67.91
  Q 54.62 67.92 55.05 68.24
  Q 59.71 71.73 64.50 68.38
  A 0.48 0.48 0.0 0 1 65.25 68.77
  L 65.25 73.90
  A 1.23 1.22 -2.3 0 1 64.12 75.12
  L 54.78 75.86
  Q 54.28 75.90 53.93 76.27
  Q 52.72 77.57 52.43 79.38
  Q 52.33 80.00 51.71 80.00
  L 48.46 80.00
  Q 48.02 80.00 47.75 79.65
  L 45.35 76.50
  Q 45.03 76.08 44.50 76.01
  Z"
/>
</g>
</svg>
