<?xml version="1.0" encoding="UTF-8" standalone="no"?>
<!DOCTYPE svg PUBLIC "-//W3C//DTD SVG 1.1//EN" "http://www.w3.org/Graphics/SVG/1.1/DTD/svg11.dtd">
<svg xmlns="http://www.w3.org/2000/svg" version="1.1" viewBox="0 0 180 180">
<g stroke-width="2.00" fill="none" stroke-linecap="butt">
<path stroke="#927a6d" vector-effect="non-scaling-stroke" d="
  M 112.50 74.53
  Q 111.39 73.71 110.12 74.24
  L 104.80 76.45
  Q 104.35 76.63 103.90 76.47
  Q 97.53 74.15 94.00 68.49
  Q 93.73 68.07 93.24 68.16
  C 85.53 69.67 78.84 67.79 71.69 64.53
  Q 71.15 64.28 71.02 64.86
  C 69.87 69.93 70.64 76.47 71.01 81.65
  C 72.08 96.71 88.45 104.15 100.21 94.23
  C 103.13 91.77 101.18 86.87 106.42 87.06
  C 113.03 87.28 119.05 79.37 112.50 74.53"
/>
<path stroke="#98989a" vector-effect="non-scaling-stroke" d="
  M 50.17 70.92
  C 48.74 73.00 47.70 74.22 47.78 76.91
  Q 48.38 97.11 48.81 117.36
  Q 48.82 118.00 49.47 118.00
  L 53.06 118.00
  Q 53.76 118.00 53.75 117.29
  Q 53.37 96.99 52.64 76.70
  C 52.56 74.46 51.83 72.79 50.80 70.94
  A 0.37 0.37 0.0 0 0 50.17 70.92"
/>
<path stroke="#533d3e" vector-effect="non-scaling-stroke" d="
  M 85.45 117.88
  C 79.65 114.45 76.62 107.12 75.28 100.80
  Q 75.16 100.24 74.73 99.86
  L 71.87 97.33
  Q 71.44 96.95 71.17 97.45
  Q 70.29 99.09 70.01 101.03
  Q 67.95 115.14 68.37 129.60
  Q 68.38 130.16 68.94 130.15
  L 92.65 129.94
  Q 93.20 129.93 93.55 129.50
  C 96.66 125.70 101.05 124.54 105.46 122.72
  Q 105.98 122.50 106.00 121.94
  C 106.09 119.26 103.93 115.80 108.07 114.98
  A 2.03 2.02 72.7 0 1 110.31 116.16
  Q 111.90 119.83 111.23 123.68
  Q 111.13 124.24 111.47 124.68
  Q 114.92 129.19 114.07 135.02
  Q 113.99 135.59 114.56 135.51
  C 116.55 135.23 121.90 134.55 121.84 131.74
  C 121.54 118.24 119.64 104.62 111.91 92.87
  Q 111.63 92.46 111.14 92.43
  C 107.03 92.16 107.16 95.17 105.38 97.15
  Q 102.17 100.74 97.81 102.91
  Q 97.37 103.14 97.18 103.60
  C 95.57 107.77 92.00 117.49 86.42 118.09
  Q 85.90 118.15 85.45 117.88"
/>
<path stroke="#533d3e" vector-effect="non-scaling-stroke" d="
  M 137.95 115.87
  C 139.60 106.68 134.05 91.88 122.04 98.15
  Q 121.53 98.41 121.77 98.93
  Q 125.62 107.57 126.45 117.00
  Q 126.49 117.46 126.95 117.43
  L 137.10 116.64
  Q 137.82 116.58 137.95 115.87"
/>
<path stroke="#927a6d" vector-effect="non-scaling-stroke" d="
  M 89.97 104.56
  C 87.40 104.94 84.62 104.32 82.12 103.68
  A 0.36 0.36 0.0 0 0 81.72 104.20
  L 85.67 111.36
  A 0.87 0.87 0.0 0 0 87.21 111.32
  L 90.34 105.07
  Q 90.64 104.46 89.97 104.56"
/>
<path stroke="#533d3e" vector-effect="non-scaling-stroke" d="
  M 141.3785 123.4802
  A 1.00 1.00 0.0 0 0 140.3629 122.4960
  L 128.3844 122.6842
  A 1.00 1.00 0.0 0 0 127.4002 123.6998
  L 127.4015 123.7798
  A 1.00 1.00 0.0 0 0 128.4171 124.7640
  L 140.3956 124.5758
  A 1.00 1.00 0.0 0 0 141.3798 123.5602
  L 141.3785 123.4802"
/>
<path stroke="#3d504e" vector-effect="non-scaling-stroke" d="
  M 53.42 128.54
  A 0.84 0.84 0.0 0 1 53.85 127.84
  Q 57.50 125.79 61.73 126.32
  Q 62.38 126.40 62.42 125.75
  L 62.52 124.16
  Q 62.55 123.71 62.09 123.71
  L 39.49 123.73
  Q 38.87 123.73 38.98 124.35
  L 39.21 125.61
  Q 39.36 126.39 40.12 126.18
  Q 44.77 124.92 48.17 128.07
  Q 48.50 128.37 48.50 128.82
  L 48.50 133.71
  Q 48.50 134.48 49.27 134.55
  L 52.52 134.81
  Q 53.16 134.86 53.18 134.22
  L 53.42 128.54"
/>
<path stroke="#927a6d" vector-effect="non-scaling-stroke" d="
  M 98.99 135.76
  L 105.61 136.86
  Q 106.27 136.97 106.76 136.50
  Q 110.10 133.30 107.75 129.01
  Q 107.53 128.61 107.08 128.68
  C 104.32 129.12 98.41 130.73 97.76 133.99
  A 1.50 1.50 0.0 0 0 98.99 135.76"
/>
<path stroke="#533d3e" vector-effect="non-scaling-stroke" d="
  M 137.78 130.54
  L 128.21 130.41
  Q 127.64 130.41 127.66 130.97
  L 128.03 144.89
  Q 128.06 146.06 129.23 146.17
  C 138.43 147.05 143.42 138.33 138.59 130.98
  Q 138.30 130.55 137.78 130.54"
/>
<path stroke="#927a6d" vector-effect="non-scaling-stroke" d="
  M 62.3003 132.8799
  A 0.56 0.56 0.0 0 0 61.7683 132.2932
  L 59.6509 132.1897
  A 0.56 0.56 0.0 0 0 59.0642 132.7217
  L 58.9997 134.0401
  A 0.56 0.56 0.0 0 0 59.5317 134.6268
  L 61.6491 134.7303
  A 0.56 0.56 0.0 0 0 62.2358 134.1983
  L 62.3003 132.8799"
/>
<path stroke="#533d3e" vector-effect="non-scaling-stroke" d="
  M 91.97 135.91
  A 0.32 0.32 0.0 0 0 91.69 135.75
  L 68.57 135.75
  A 0.32 0.32 0.0 0 0 68.25 136.07
  L 68.25 139.26
  A 0.32 0.32 0.0 0 0 68.57 139.58
  L 93.36 139.30
  A 0.32 0.32 0.0 0 0 93.63 138.82
  L 91.97 135.91"
/>
<path stroke="#533d3e" vector-effect="non-scaling-stroke" d="
  M 69.01 145.35
  Q 68.33 145.36 68.29 146.04
  C 67.91 152.25 67.09 158.75 68.63 164.96
  Q 68.75 165.45 69.23 165.59
  C 73.18 166.80 80.26 165.82 84.56 165.69
  A 0.99 0.99 0.0 0 0 85.52 164.68
  C 85.42 159.52 84.26 152.23 90.04 149.51
  C 100.21 144.73 107.98 152.99 106.65 163.10
  A 2.27 2.27 0.0 0 0 108.90 165.66
  L 121.32 165.70
  Q 122.35 165.71 122.35 164.68
  L 122.38 146.03
  Q 122.38 145.18 121.53 145.18
  L 69.01 145.35"
/>
<path stroke="#927a6d" vector-effect="non-scaling-stroke" d="
  M 85.0380 75.3955
  A 2.50 2.50 0.0 0 0 82.5336 72.8998
  L 82.3336 72.9002
  A 2.50 2.50 0.0 0 0 79.8380 75.4045
  L 79.8620 89.1645
  A 2.50 2.50 0.0 0 0 82.3664 91.6602
  L 82.5664 91.6598
  A 2.50 2.50 0.0 0 0 85.0620 89.1555
  L 85.0380 75.3955"
/>
</g>
<g fill="#38383c">
<path d="
  M 128.22 152.30
  C 128.33 159.44 130.19 170.49 122.52 171.34
  C 116.55 172.00 101.73 173.09 101.39 165.30
  C 101.16 159.92 101.21 151.88 92.92 154.24
  A 2.51 2.50 80.4 0 0 91.11 156.80
  C 91.33 160.26 91.84 165.83 90.21 168.58
  C 87.58 173.02 77.66 171.75 71.76 171.69
  C 67.39 171.65 63.72 169.88 63.12 165.28
  C 62.88 163.47 62.19 161.68 62.22 159.87
  Q 62.39 150.63 62.54 141.40
  Q 62.55 140.86 62.03 140.74
  C 55.06 139.17 43.17 143.79 43.05 132.35
  Q 43.04 131.19 41.89 131.40
  Q 36.99 132.31 34.10 128.58
  Q 33.75 128.12 33.75 127.54
  L 33.75 121.03
  Q 33.75 120.50 34.13 120.12
  Q 37.06 117.18 41.50 118.10
  Q 43.14 118.45 43.12 116.77
  Q 42.85 98.28 42.49 78.85
  Q 42.42 75.01 43.53 72.35
  C 45.17 68.46 48.46 59.39 54.08 66.45
  Q 58.13 71.54 58.13 78.01
  C 58.12 91.10 59.22 104.20 59.30 117.34
  Q 59.30 118.00 59.96 118.00
  L 62.22 118.00
  Q 62.68 118.00 62.69 117.54
  C 63.02 107.40 63.39 99.94 67.58 91.92
  Q 67.82 91.45 67.67 90.95
  Q 63.38 76.60 66.47 61.89
  Q 66.58 61.37 66.17 61.03
  C 62.39 57.95 53.90 49.17 59.57 44.83
  Q 59.94 44.55 60.40 44.51
  Q 63.65 44.23 66.39 42.37
  C 71.42 38.94 77.43 34.83 83.10 33.78
  C 91.76 32.18 101.01 35.29 104.29 44.23
  Q 104.46 44.71 104.97 44.74
  C 117.26 45.56 120.89 59.61 114.70 68.74
  Q 114.38 69.20 114.87 69.47
  C 122.78 74.06 122.60 82.84 116.73 88.95
  Q 116.37 89.33 116.67 89.76
  L 118.94 93.05
  Q 119.26 93.50 119.77 93.30
  Q 135.86 86.99 142.26 102.51
  Q 144.91 108.92 143.63 116.55
  Q 143.55 117.03 143.92 117.37
  Q 149.68 122.57 144.79 128.77
  Q 144.46 129.19 144.65 129.68
  C 149.18 141.34 142.14 153.33 128.82 151.76
  Q 128.21 151.69 128.22 152.30
  Z
  M 112.50 74.53
  Q 111.39 73.71 110.12 74.24
  L 104.80 76.45
  Q 104.35 76.63 103.90 76.47
  Q 97.53 74.15 94.00 68.49
  Q 93.73 68.07 93.24 68.16
  C 85.53 69.67 78.84 67.79 71.69 64.53
  Q 71.15 64.28 71.02 64.86
  C 69.87 69.93 70.64 76.47 71.01 81.65
  C 72.08 96.71 88.45 104.15 100.21 94.23
  C 103.13 91.77 101.18 86.87 106.42 87.06
  C 113.03 87.28 119.05 79.37 112.50 74.53
  Z
  M 50.17 70.92
  C 48.74 73.00 47.70 74.22 47.78 76.91
  Q 48.38 97.11 48.81 117.36
  Q 48.82 118.00 49.47 118.00
  L 53.06 118.00
  Q 53.76 118.00 53.75 117.29
  Q 53.37 96.99 52.64 76.70
  C 52.56 74.46 51.83 72.79 50.80 70.94
  A 0.37 0.37 0.0 0 0 50.17 70.92
  Z
  M 85.45 117.88
  C 79.65 114.45 76.62 107.12 75.28 100.80
  Q 75.16 100.24 74.73 99.86
  L 71.87 97.33
  Q 71.44 96.95 71.17 97.45
  Q 70.29 99.09 70.01 101.03
  Q 67.95 115.14 68.37 129.60
  Q 68.38 130.16 68.94 130.15
  L 92.65 129.94
  Q 93.20 129.93 93.55 129.50
  C 96.66 125.70 101.05 124.54 105.46 122.72
  Q 105.98 122.50 106.00 121.94
  C 106.09 119.26 103.93 115.80 108.07 114.98
  A 2.03 2.02 72.7 0 1 110.31 116.16
  Q 111.90 119.83 111.23 123.68
  Q 111.13 124.24 111.47 124.68
  Q 114.92 129.19 114.07 135.02
  Q 113.99 135.59 114.56 135.51
  C 116.55 135.23 121.90 134.55 121.84 131.74
  C 121.54 118.24 119.64 104.62 111.91 92.87
  Q 111.63 92.46 111.14 92.43
  C 107.03 92.16 107.16 95.17 105.38 97.15
  Q 102.17 100.74 97.81 102.91
  Q 97.37 103.14 97.18 103.60
  C 95.57 107.77 92.00 117.49 86.42 118.09
  Q 85.90 118.15 85.45 117.88
  Z
  M 137.95 115.87
  C 139.60 106.68 134.05 91.88 122.04 98.15
  Q 121.53 98.41 121.77 98.93
  Q 125.62 107.57 126.45 117.00
  Q 126.49 117.46 126.95 117.43
  L 137.10 116.64
  Q 137.82 116.58 137.95 115.87
  Z
  M 89.97 104.56
  C 87.40 104.94 84.62 104.32 82.12 103.68
  A 0.36 0.36 0.0 0 0 81.72 104.20
  L 85.67 111.36
  A 0.87 0.87 0.0 0 0 87.21 111.32
  L 90.34 105.07
  Q 90.64 104.46 89.97 104.56
  Z
  M 141.3785 123.4802
  A 1.00 1.00 0.0 0 0 140.3629 122.4960
  L 128.3844 122.6842
  A 1.00 1.00 0.0 0 0 127.4002 123.6998
  L 127.4015 123.7798
  A 1.00 1.00 0.0 0 0 128.4171 124.7640
  L 140.3956 124.5758
  A 1.00 1.00 0.0 0 0 141.3798 123.5602
  L 141.3785 123.4802
  Z
  M 53.42 128.54
  A 0.84 0.84 0.0 0 1 53.85 127.84
  Q 57.50 125.79 61.73 126.32
  Q 62.38 126.40 62.42 125.75
  L 62.52 124.16
  Q 62.55 123.71 62.09 123.71
  L 39.49 123.73
  Q 38.87 123.73 38.98 124.35
  L 39.21 125.61
  Q 39.36 126.39 40.12 126.18
  Q 44.77 124.92 48.17 128.07
  Q 48.50 128.37 48.50 128.82
  L 48.50 133.71
  Q 48.50 134.48 49.27 134.55
  L 52.52 134.81
  Q 53.16 134.86 53.18 134.22
  L 53.42 128.54
  Z
  M 98.99 135.76
  L 105.61 136.86
  Q 106.27 136.97 106.76 136.50
  Q 110.10 133.30 107.75 129.01
  Q 107.53 128.61 107.08 128.68
  C 104.32 129.12 98.41 130.73 97.76 133.99
  A 1.50 1.50 0.0 0 0 98.99 135.76
  Z
  M 137.78 130.54
  L 128.21 130.41
  Q 127.64 130.41 127.66 130.97
  L 128.03 144.89
  Q 128.06 146.06 129.23 146.17
  C 138.43 147.05 143.42 138.33 138.59 130.98
  Q 138.30 130.55 137.78 130.54
  Z
  M 62.3003 132.8799
  A 0.56 0.56 0.0 0 0 61.7683 132.2932
  L 59.6509 132.1897
  A 0.56 0.56 0.0 0 0 59.0642 132.7217
  L 58.9997 134.0401
  A 0.56 0.56 0.0 0 0 59.5317 134.6268
  L 61.6491 134.7303
  A 0.56 0.56 0.0 0 0 62.2358 134.1983
  L 62.3003 132.8799
  Z
  M 91.97 135.91
  A 0.32 0.32 0.0 0 0 91.69 135.75
  L 68.57 135.75
  A 0.32 0.32 0.0 0 0 68.25 136.07
  L 68.25 139.26
  A 0.32 0.32 0.0 0 0 68.57 139.58
  L 93.36 139.30
  A 0.32 0.32 0.0 0 0 93.63 138.82
  L 91.97 135.91
  Z
  M 69.01 145.35
  Q 68.33 145.36 68.29 146.04
  C 67.91 152.25 67.09 158.75 68.63 164.96
  Q 68.75 165.45 69.23 165.59
  C 73.18 166.80 80.26 165.82 84.56 165.69
  A 0.99 0.99 0.0 0 0 85.52 164.68
  C 85.42 159.52 84.26 152.23 90.04 149.51
  C 100.21 144.73 107.98 152.99 106.65 163.10
  A 2.27 2.27 0.0 0 0 108.90 165.66
  L 121.32 165.70
  Q 122.35 165.71 122.35 164.68
  L 122.38 146.03
  Q 122.38 145.18 121.53 145.18
  L 69.01 145.35
  Z"
/>
<rect x="-2.60" y="-9.38" transform="translate(82.45,82.28) rotate(-0.1)" width="5.20" height="18.76" rx="2.50"/>
</g>
<g fill="#ebbc9e">
<path d="
  M 112.50 74.53
  C 119.05 79.37 113.03 87.28 106.42 87.06
  C 101.18 86.87 103.13 91.77 100.21 94.23
  C 88.45 104.15 72.08 96.71 71.01 81.65
  C 70.64 76.47 69.87 69.93 71.02 64.86
  Q 71.15 64.28 71.69 64.53
  C 78.84 67.79 85.53 69.67 93.24 68.16
  Q 93.73 68.07 94.00 68.49
  Q 97.53 74.15 103.90 76.47
  Q 104.35 76.63 104.80 76.45
  L 110.12 74.24
  Q 111.39 73.71 112.50 74.53
  Z
  M 85.0380 75.3955
  A 2.50 2.50 0.0 0 0 82.5336 72.8998
  L 82.3336 72.9002
  A 2.50 2.50 0.0 0 0 79.8380 75.4045
  L 79.8620 89.1645
  A 2.50 2.50 0.0 0 0 82.3664 91.6602
  L 82.5664 91.6598
  A 2.50 2.50 0.0 0 0 85.0620 89.1555
  L 85.0380 75.3955
  Z"
/>
<path d="
  M 82.12 103.68
  C 84.62 104.32 87.40 104.94 89.97 104.56
  Q 90.64 104.46 90.34 105.07
  L 87.21 111.32
  A 0.87 0.87 0.0 0 1 85.67 111.36
  L 81.72 104.20
  A 0.36 0.36 0.0 0 1 82.12 103.68
  Z"
/>
<path d="
  M 98.99 135.76
  A 1.50 1.50 0.0 0 1 97.76 133.99
  C 98.41 130.73 104.32 129.12 107.08 128.68
  Q 107.53 128.61 107.75 129.01
  Q 110.10 133.30 106.76 136.50
  Q 106.27 136.97 105.61 136.86
  L 98.99 135.76
  Z"
/>
<rect x="-1.62" y="-1.22" transform="translate(60.65,133.46) rotate(2.8)" width="3.24" height="2.44" rx="0.56"/>
</g>
<g fill="#6e423f">
<path d="
  M 75.28 100.80
  C 76.62 107.12 79.65 114.45 85.45 117.88
  Q 85.90 118.15 86.42 118.09
  C 92.00 117.49 95.57 107.77 97.18 103.60
  Q 97.37 103.14 97.81 102.91
  Q 102.17 100.74 105.38 97.15
  C 107.16 95.17 107.03 92.16 111.14 92.43
  Q 111.63 92.46 111.91 92.87
  C 119.64 104.62 121.54 118.24 121.84 131.74
  C 121.90 134.55 116.55 135.23 114.56 135.51
  Q 113.99 135.59 114.07 135.02
  Q 114.92 129.19 111.47 124.68
  Q 111.13 124.24 111.23 123.68
  Q 111.90 119.83 110.31 116.16
  A 2.03 2.02 72.7 0 0 108.07 114.98
  C 103.93 115.80 106.09 119.26 106.00 121.94
  Q 105.98 122.50 105.46 122.72
  C 101.05 124.54 96.66 125.70 93.55 129.50
  Q 93.20 129.93 92.65 129.94
  L 68.94 130.15
  Q 68.38 130.16 68.37 129.60
  Q 67.95 115.14 70.01 101.03
  Q 70.29 99.09 71.17 97.45
  Q 71.44 96.95 71.87 97.33
  L 74.73 99.86
  Q 75.16 100.24 75.28 100.80
  Z"
/>
<path d="
  M 122.04 98.15
  C 134.05 91.88 139.60 106.68 137.95 115.87
  Q 137.82 116.58 137.10 116.64
  L 126.95 117.43
  Q 126.49 117.46 126.45 117.00
  Q 125.62 107.57 121.77 98.93
  Q 121.53 98.41 122.04 98.15
  Z"
/>
<rect x="-6.99" y="-1.04" transform="translate(134.39,123.63) rotate(-0.9)" width="13.98" height="2.08" rx="1.00"/>
<path d="
  M 138.59 130.98
  C 143.42 138.33 138.43 147.05 129.23 146.17
  Q 128.06 146.06 128.03 144.89
  L 127.66 130.97
  Q 127.64 130.41 128.21 130.41
  L 137.78 130.54
  Q 138.30 130.55 138.59 130.98
  Z"
/>
<path d="
  M 91.97 135.91
  L 93.63 138.82
  A 0.32 0.32 0.0 0 1 93.36 139.30
  L 68.57 139.58
  A 0.32 0.32 0.0 0 1 68.25 139.26
  L 68.25 136.07
  A 0.32 0.32 0.0 0 1 68.57 135.75
  L 91.69 135.75
  A 0.32 0.32 0.0 0 1 91.97 135.91
  Z"
/>
<path d="
  M 69.01 145.35
  L 121.53 145.18
  Q 122.38 145.18 122.38 146.03
  L 122.35 164.68
  Q 122.35 165.71 121.32 165.70
  L 108.90 165.66
  A 2.27 2.27 0.0 0 1 106.65 163.10
  C 107.98 152.99 100.21 144.73 90.04 149.51
  C 84.26 152.23 85.42 159.52 85.52 164.68
  A 0.99 0.99 0.0 0 1 84.56 165.69
  C 80.26 165.82 73.18 166.80 69.23 165.59
  Q 68.75 165.45 68.63 164.96
  C 67.09 158.75 67.91 152.25 68.29 146.04
  Q 68.33 145.36 69.01 145.35
  Z"
/>
</g>
<path fill="#f8f8f8" d="
  M 50.17 70.92
  A 0.37 0.37 0.0 0 1 50.80 70.94
  C 51.83 72.79 52.56 74.46 52.64 76.70
  Q 53.37 96.99 53.75 117.29
  Q 53.76 118.00 53.06 118.00
  L 49.47 118.00
  Q 48.82 118.00 48.81 117.36
  Q 48.38 97.11 47.78 76.91
  C 47.70 74.22 48.74 73.00 50.17 70.92
  Z"
/>
<path fill="#42685f" d="
  M 53.42 128.54
  L 53.18 134.22
  Q 53.16 134.86 52.52 134.81
  L 49.27 134.55
  Q 48.50 134.48 48.50 133.71
  L 48.50 128.82
  Q 48.50 128.37 48.17 128.07
  Q 44.77 124.92 40.12 126.18
  Q 39.36 126.39 39.21 125.61
  L 38.98 124.35
  Q 38.87 123.73 39.49 123.73
  L 62.09 123.71
  Q 62.55 123.71 62.52 124.16
  L 62.42 125.75
  Q 62.38 126.40 61.73 126.32
  Q 57.50 125.79 53.85 127.84
  A 0.84 0.84 0.0 0 0 53.42 128.54
  Z"
/>
</svg>
