<?xml version="1.0" encoding="UTF-8" standalone="no"?>
<!DOCTYPE svg PUBLIC "-//W3C//DTD SVG 1.1//EN" "http://www.w3.org/Graphics/SVG/1.1/DTD/svg11.dtd">
<svg xmlns="http://www.w3.org/2000/svg" version="1.1" viewBox="0 0 180 180">
<g stroke-width="2.00" fill="none" stroke-linecap="butt">
<path stroke="#9c904e" vector-effect="non-scaling-stroke" d="
  M 97.40 45.63
  C 93.94 47.06 90.14 37.61 88.74 35.15
  Q 88.45 34.63 88.09 35.10
  Q 85.36 38.62 83.12 42.46
  C 78.80 49.88 75.58 40.14 73.85 37.50
  A 0.37 0.37 0.0 0 0 73.17 37.64
  Q 71.08 49.49 71.23 61.54
  A 1.49 1.48 -88.3 0 0 72.60 63.00
  Q 88.56 64.20 104.51 62.80
  A 1.07 1.06 -2.1 0 0 105.49 61.75
  Q 105.58 49.87 103.52 38.19
  Q 103.36 37.28 102.86 38.05
  C 101.46 40.23 99.71 44.68 97.40 45.63"
/>
<path stroke="#927a6d" vector-effect="non-scaling-stroke" d="
  M 72.32 87.42
  C 76.13 96.38 84.53 100.90 94.10 97.78
  Q 98.52 96.34 101.00 93.15
  C 102.84 90.80 101.70 87.21 106.07 86.92
  Q 109.48 86.69 109.89 86.55
  C 115.40 84.70 118.16 75.92 110.83 74.04
  Q 110.38 73.93 109.94 74.06
  C 105.85 75.29 104.97 72.47 105.00 69.18
  Q 105.00 68.67 104.49 68.69
  Q 89.37 69.29 74.23 68.91
  C 73.16 68.89 72.21 68.61 71.10 68.37
  Q 70.48 68.23 70.49 68.86
  C 70.53 74.54 70.19 82.42 72.32 87.42"
/>
<path stroke="#9c904e" vector-effect="non-scaling-stroke" d="
  M 55.98 75.82
  C 57.19 69.72 47.68 71.02 48.80 75.92
  Q 48.90 76.39 49.39 76.38
  L 55.53 76.20
  Q 55.91 76.19 55.98 75.82"
/>
<path stroke="#9c4249" vector-effect="non-scaling-stroke" d="
  M 54.31 82.49
  C 55.37 88.61 54.38 94.27 54.85 100.32
  Q 54.89 100.80 55.36 100.89
  C 64.06 102.42 65.06 90.88 61.54 85.68
  C 59.29 82.36 57.36 83.86 55.14 82.01
  A 0.51 0.51 0.0 0 0 54.31 82.49"
/>
<path stroke="#9c4249" vector-effect="non-scaling-stroke" d="
  M 41.12 89.65
  C 40.02 94.60 43.51 101.09 48.59 100.99
  Q 49.13 100.98 49.15 100.44
  C 49.40 93.83 49.96 87.95 48.91 82.76
  Q 48.80 82.21 48.31 82.47
  C 44.61 84.44 42.00 85.69 41.12 89.65"
/>
<path stroke="#9c904e" vector-effect="non-scaling-stroke" d="
  M 94.82 106.59
  L 97.70 108.75
  Q 98.19 109.12 98.66 108.71
  L 110.62 98.32
  Q 111.05 97.94 110.67 97.51
  Q 109.46 96.13 109.75 94.29
  Q 109.98 92.79 108.92 93.87
  Q 102.48 100.46 94.84 105.60
  A 0.61 0.61 0.0 0 0 94.82 106.59"
/>
<path stroke="#9c904e" vector-effect="non-scaling-stroke" d="
  M 122.38 96.90
  Q 119.08 94.04 121.08 97.93
  C 125.98 107.41 127.10 119.94 127.52 130.75
  Q 128.11 146.20 128.10 161.70
  Q 128.10 162.13 128.52 162.16
  L 136.48 162.76
  Q 136.95 162.79 137.03 162.33
  Q 137.56 158.96 137.54 157.75
  C 137.32 144.99 137.74 132.14 135.00 119.36
  C 132.90 109.57 129.61 103.15 122.38 96.90"
/>
<path stroke="#9c904e" vector-effect="non-scaling-stroke" d="
  M 105.73 121.28
  Q 94.59 113.35 84.01 105.50
  C 79.91 102.46 75.50 101.28 71.85 96.73
  A 0.41 0.40 -54.3 0 0 71.15 96.85
  L 69.62 101.25
  Q 69.43 101.79 69.90 102.13
  C 75.26 105.94 80.66 109.18 86.03 113.27
  Q 93.80 119.18 102.38 123.94
  Q 102.87 124.22 103.35 123.93
  L 105.68 122.54
  Q 106.67 121.95 105.73 121.28"
/>
<path stroke="#98989a" vector-effect="non-scaling-stroke" d="
  M 115.82 100.57
  L 103.28 111.82
  Q 102.91 112.15 103.25 112.51
  Q 105.61 114.99 108.92 115.43
  Q 109.49 115.51 109.84 115.96
  Q 112.42 119.34 111.03 123.47
  Q 110.84 124.03 111.20 124.50
  Q 114.85 129.21 113.89 135.20
  Q 113.77 135.95 114.50 135.75
  L 120.22 134.20
  Q 120.82 134.04 121.13 133.51
  Q 122.00 132.03 121.89 130.07
  C 121.33 119.78 120.43 109.93 116.22 100.65
  Q 116.07 100.34 115.82 100.57"
/>
<path stroke="#9c904e" vector-effect="non-scaling-stroke" d="
  M 53.66 147.19
  Q 53.98 144.92 53.99 142.25
  Q 54.00 124.76 54.00 107.28
  Q 54.00 106.75 53.47 106.75
  L 51.79 106.75
  Q 51.14 106.75 51.10 107.40
  Q 50.10 126.82 49.97 146.26
  C 49.96 148.20 50.88 148.97 52.76 148.29
  Q 53.54 148.01 53.66 147.19"
/>
<path stroke="#98989a" vector-effect="non-scaling-stroke" d="
  M 76.76 113.77
  A 0.31 0.31 0.0 0 0 76.72 113.28
  L 69.20 108.26
  A 0.31 0.31 0.0 0 0 68.71 108.51
  L 68.12 121.17
  A 0.31 0.31 0.0 0 0 68.64 121.41
  L 76.76 113.77"
/>
<path stroke="#9c904e" vector-effect="non-scaling-stroke" d="
  M 85.89 120.21
  L 82.02 117.19
  Q 81.45 116.75 80.94 117.24
  L 68.39 129.37
  Q 67.69 130.04 68.66 130.17
  C 71.84 130.57 74.06 130.71 76.74 128.53
  Q 81.33 124.79 85.90 120.99
  Q 86.38 120.60 85.89 120.21"
/>
<path stroke="#98989a" vector-effect="non-scaling-stroke" d="
  M 96.15 126.87
  L 91.59 123.81
  Q 91.16 123.52 90.75 123.85
  L 83.87 129.63
  Q 83.43 130.00 84.00 130.00
  L 92.58 130.00
  Q 93.07 130.00 93.41 129.65
  L 96.15 126.90
  Q 96.16 126.88 96.15 126.87"
/>
<path stroke="#9c904e" vector-effect="non-scaling-stroke" d="
  M 62.4682 128.3289
  A 0.58 0.58 0.0 0 0 61.8802 127.7571
  L 59.9804 127.7836
  A 0.58 0.58 0.0 0 0 59.4085 128.3717
  L 59.4918 134.3311
  A 0.58 0.58 0.0 0 0 60.0798 134.9029
  L 61.9796 134.8764
  A 0.58 0.58 0.0 0 0 62.5515 134.2883
  L 62.4682 128.3289"
/>
<path stroke="#9c904e" vector-effect="non-scaling-stroke" d="
  M 97.87 134.55
  C 98.88 136.46 103.75 136.78 105.72 136.99
  Q 106.27 137.05 106.69 136.70
  Q 110.45 133.54 107.75 128.92
  Q 107.50 128.49 107.00 128.57
  C 104.74 128.97 96.21 131.40 97.87 134.55"
/>
<path stroke="#9c904e" vector-effect="non-scaling-stroke" d="
  M 68.00 139.51
  A 0.33 0.33 0.0 0 0 68.34 139.84
  L 93.77 139.37
  A 0.33 0.33 0.0 0 0 94.04 138.86
  L 92.05 135.90
  A 0.33 0.33 0.0 0 0 91.77 135.75
  L 68.33 135.75
  A 0.33 0.33 0.0 0 0 68.00 136.08
  L 68.00 139.51"
/>
<path stroke="#98989a" vector-effect="non-scaling-stroke" d="
  M 121.81 145.17
  L 68.67 145.18
  Q 68.11 145.18 68.09 145.75
  C 67.84 152.32 67.10 157.92 68.41 164.84
  Q 68.51 165.37 69.01 165.56
  C 72.71 167.02 80.30 165.95 84.50 166.00
  A 1.00 1.00 0.0 0 0 85.51 164.99
  C 85.47 161.13 84.61 153.23 88.30 150.78
  C 98.53 144.00 108.00 152.02 106.89 163.02
  Q 106.64 165.52 109.06 165.61
  Q 115.37 165.83 121.62 165.73
  A 0.71 0.71 0.0 0 0 122.31 165.02
  L 122.46 145.81
  Q 122.46 145.17 121.81 145.17"
/>
<path stroke="#9c904e" vector-effect="non-scaling-stroke" d="
  M 91.67 163.17
  L 100.66 163.28
  Q 101.15 163.29 101.18 162.80
  C 101.54 156.87 98.97 151.66 91.94 154.80
  A 1.59 1.59 0.0 0 0 91.00 156.25
  L 91.00 162.49
  A 0.68 0.68 0.0 0 0 91.67 163.17"
/>
<path stroke="#927a6d" vector-effect="non-scaling-stroke" d="
  M 85.0463 75.5609
  A 2.51 2.51 0.0 0 0 82.5275 73.0597
  L 82.3075 73.0604
  A 2.51 2.51 0.0 0 0 79.8063 75.5792
  L 79.8537 89.1591
  A 2.51 2.51 0.0 0 0 82.3725 91.6603
  L 82.5925 91.6596
  A 2.51 2.51 0.0 0 0 85.0937 89.1408
  L 85.0463 75.5609"
/>
</g>
<g fill="#38383c">
<path d="
  M 65.61 81.23
  C 64.94 73.50 65.60 66.18 65.72 58.00
  C 65.80 52.61 66.38 31.94 70.94 29.34
  C 74.19 27.49 78.61 34.40 79.74 36.70
  A 0.38 0.38 0.0 0 0 80.40 36.74
  Q 83.04 32.69 85.81 28.81
  C 89.61 23.51 95.02 35.09 96.24 37.38
  Q 96.56 37.99 96.91 37.40
  C 98.53 34.64 105.39 21.67 108.07 33.54
  Q 111.91 50.47 111.03 67.79
  Q 111.01 68.29 111.50 68.40
  C 121.22 70.54 123.54 79.97 117.93 87.61
  Q 117.57 88.10 118.13 88.34
  C 137.49 96.68 140.39 113.71 142.48 132.27
  C 143.63 142.52 143.74 154.89 142.58 165.13
  Q 142.53 165.60 142.25 165.98
  C 139.39 169.74 132.21 168.04 128.07 167.71
  Q 127.55 167.67 127.31 168.13
  Q 125.48 171.58 121.31 171.54
  C 117.07 171.50 107.54 172.65 102.89 169.06
  Q 102.52 168.78 102.06 168.78
  L 91.10 168.69
  Q 90.61 168.69 90.25 169.02
  Q 87.65 171.44 83.93 171.59
  C 77.65 171.85 64.83 174.11 63.04 165.33
  C 61.35 157.02 62.61 149.52 62.50 141.33
  Q 62.49 140.69 61.86 140.63
  L 60.12 140.46
  Q 59.64 140.41 59.58 140.90
  C 59.28 143.74 59.55 147.24 58.76 149.60
  C 56.58 156.17 45.85 155.14 44.54 148.70
  Q 44.36 147.82 44.53 141.12
  Q 44.95 124.28 45.79 107.43
  Q 45.81 106.91 45.34 106.70
  C 33.00 101.21 31.60 85.94 43.10 78.59
  Q 43.55 78.30 43.44 77.78
  C 40.27 62.56 65.41 62.25 61.34 77.66
  Q 61.21 78.17 61.63 78.48
  L 65.40 81.35
  Q 65.63 81.52 65.61 81.23
  Z
  M 97.40 45.63
  C 93.94 47.06 90.14 37.61 88.74 35.15
  Q 88.45 34.63 88.09 35.10
  Q 85.36 38.62 83.12 42.46
  C 78.80 49.88 75.58 40.14 73.85 37.50
  A 0.37 0.37 0.0 0 0 73.17 37.64
  Q 71.08 49.49 71.23 61.54
  A 1.49 1.48 -88.3 0 0 72.60 63.00
  Q 88.56 64.20 104.51 62.80
  A 1.07 1.06 -2.1 0 0 105.49 61.75
  Q 105.58 49.87 103.52 38.19
  Q 103.36 37.28 102.86 38.05
  C 101.46 40.23 99.71 44.68 97.40 45.63
  Z
  M 72.32 87.42
  C 76.13 96.38 84.53 100.90 94.10 97.78
  Q 98.52 96.34 101.00 93.15
  C 102.84 90.80 101.70 87.21 106.07 86.92
  Q 109.48 86.69 109.89 86.55
  C 115.40 84.70 118.16 75.92 110.83 74.04
  Q 110.38 73.93 109.94 74.06
  C 105.85 75.29 104.97 72.47 105.00 69.18
  Q 105.00 68.67 104.49 68.69
  Q 89.37 69.29 74.23 68.91
  C 73.16 68.89 72.21 68.61 71.10 68.37
  Q 70.48 68.23 70.49 68.86
  C 70.53 74.54 70.19 82.42 72.32 87.42
  Z
  M 55.98 75.82
  C 57.19 69.72 47.68 71.02 48.80 75.92
  Q 48.90 76.39 49.39 76.38
  L 55.53 76.20
  Q 55.91 76.19 55.98 75.82
  Z
  M 54.31 82.49
  C 55.37 88.61 54.38 94.27 54.85 100.32
  Q 54.89 100.80 55.36 100.89
  C 64.06 102.42 65.06 90.88 61.54 85.68
  C 59.29 82.36 57.36 83.86 55.14 82.01
  A 0.51 0.51 0.0 0 0 54.31 82.49
  Z
  M 41.12 89.65
  C 40.02 94.60 43.51 101.09 48.59 100.99
  Q 49.13 100.98 49.15 100.44
  C 49.40 93.83 49.96 87.95 48.91 82.76
  Q 48.80 82.21 48.31 82.47
  C 44.61 84.44 42.00 85.69 41.12 89.65
  Z
  M 94.82 106.59
  L 97.70 108.75
  Q 98.19 109.12 98.66 108.71
  L 110.62 98.32
  Q 111.05 97.94 110.67 97.51
  Q 109.46 96.13 109.75 94.29
  Q 109.98 92.79 108.92 93.87
  Q 102.48 100.46 94.84 105.60
  A 0.61 0.61 0.0 0 0 94.82 106.59
  Z
  M 122.38 96.90
  Q 119.08 94.04 121.08 97.93
  C 125.98 107.41 127.10 119.94 127.52 130.75
  Q 128.11 146.20 128.10 161.70
  Q 128.10 162.13 128.52 162.16
  L 136.48 162.76
  Q 136.95 162.79 137.03 162.33
  Q 137.56 158.96 137.54 157.75
  C 137.32 144.99 137.74 132.14 135.00 119.36
  C 132.90 109.57 129.61 103.15 122.38 96.90
  Z
  M 105.73 121.28
  Q 94.59 113.35 84.01 105.50
  C 79.91 102.46 75.50 101.28 71.85 96.73
  A 0.41 0.40 -54.3 0 0 71.15 96.85
  L 69.62 101.25
  Q 69.43 101.79 69.90 102.13
  C 75.26 105.94 80.66 109.18 86.03 113.27
  Q 93.80 119.18 102.38 123.94
  Q 102.87 124.22 103.35 123.93
  L 105.68 122.54
  Q 106.67 121.95 105.73 121.28
  Z
  M 115.82 100.57
  L 103.28 111.82
  Q 102.91 112.15 103.25 112.51
  Q 105.61 114.99 108.92 115.43
  Q 109.49 115.51 109.84 115.96
  Q 112.42 119.34 111.03 123.47
  Q 110.84 124.03 111.20 124.50
  Q 114.85 129.21 113.89 135.20
  Q 113.77 135.95 114.50 135.75
  L 120.22 134.20
  Q 120.82 134.04 121.13 133.51
  Q 122.00 132.03 121.89 130.07
  C 121.33 119.78 120.43 109.93 116.22 100.65
  Q 116.07 100.34 115.82 100.57
  Z
  M 62.76 121.61
  C 62.71 116.02 62.81 111.14 63.74 105.56
  Q 63.85 104.90 63.27 105.22
  L 59.77 107.11
  Q 59.36 107.33 59.37 107.78
  L 59.56 121.80
  Q 59.56 122.30 60.06 122.28
  L 62.21 122.19
  Q 62.76 122.16 62.76 121.61
  Z
  M 53.66 147.19
  Q 53.98 144.92 53.99 142.25
  Q 54.00 124.76 54.00 107.28
  Q 54.00 106.75 53.47 106.75
  L 51.79 106.75
  Q 51.14 106.75 51.10 107.40
  Q 50.10 126.82 49.97 146.26
  C 49.96 148.20 50.88 148.97 52.76 148.29
  Q 53.54 148.01 53.66 147.19
  Z
  M 76.76 113.77
  A 0.31 0.31 0.0 0 0 76.72 113.28
  L 69.20 108.26
  A 0.31 0.31 0.0 0 0 68.71 108.51
  L 68.12 121.17
  A 0.31 0.31 0.0 0 0 68.64 121.41
  L 76.76 113.77
  Z
  M 85.89 120.21
  L 82.02 117.19
  Q 81.45 116.75 80.94 117.24
  L 68.39 129.37
  Q 67.69 130.04 68.66 130.17
  C 71.84 130.57 74.06 130.71 76.74 128.53
  Q 81.33 124.79 85.90 120.99
  Q 86.38 120.60 85.89 120.21
  Z
  M 96.15 126.87
  L 91.59 123.81
  Q 91.16 123.52 90.75 123.85
  L 83.87 129.63
  Q 83.43 130.00 84.00 130.00
  L 92.58 130.00
  Q 93.07 130.00 93.41 129.65
  L 96.15 126.90
  Q 96.16 126.88 96.15 126.87
  Z
  M 62.4682 128.3289
  A 0.58 0.58 0.0 0 0 61.8802 127.7571
  L 59.9804 127.7836
  A 0.58 0.58 0.0 0 0 59.4085 128.3717
  L 59.4918 134.3311
  A 0.58 0.58 0.0 0 0 60.0798 134.9029
  L 61.9796 134.8764
  A 0.58 0.58 0.0 0 0 62.5515 134.2883
  L 62.4682 128.3289
  Z
  M 97.87 134.55
  C 98.88 136.46 103.75 136.78 105.72 136.99
  Q 106.27 137.05 106.69 136.70
  Q 110.45 133.54 107.75 128.92
  Q 107.50 128.49 107.00 128.57
  C 104.74 128.97 96.21 131.40 97.87 134.55
  Z
  M 68.00 139.51
  A 0.33 0.33 0.0 0 0 68.34 139.84
  L 93.77 139.37
  A 0.33 0.33 0.0 0 0 94.04 138.86
  L 92.05 135.90
  A 0.33 0.33 0.0 0 0 91.77 135.75
  L 68.33 135.75
  A 0.33 0.33 0.0 0 0 68.00 136.08
  L 68.00 139.51
  Z
  M 121.81 145.17
  L 68.67 145.18
  Q 68.11 145.18 68.09 145.75
  C 67.84 152.32 67.10 157.92 68.41 164.84
  Q 68.51 165.37 69.01 165.56
  C 72.71 167.02 80.30 165.95 84.50 166.00
  A 1.00 1.00 0.0 0 0 85.51 164.99
  C 85.47 161.13 84.61 153.23 88.30 150.78
  C 98.53 144.00 108.00 152.02 106.89 163.02
  Q 106.64 165.52 109.06 165.61
  Q 115.37 165.83 121.62 165.73
  A 0.71 0.71 0.0 0 0 122.31 165.02
  L 122.46 145.81
  Q 122.46 145.17 121.81 145.17
  Z
  M 91.67 163.17
  L 100.66 163.28
  Q 101.15 163.29 101.18 162.80
  C 101.54 156.87 98.97 151.66 91.94 154.80
  A 1.59 1.59 0.0 0 0 91.00 156.25
  L 91.00 162.49
  A 0.68 0.68 0.0 0 0 91.67 163.17
  Z"
/>
<rect x="-2.62" y="-9.30" transform="translate(82.45,82.36) rotate(-0.2)" width="5.24" height="18.60" rx="2.51"/>
</g>
<g fill="#f8f8f8">
<path d="
  M 103.28 111.82
  L 115.82 100.57
  Q 116.07 100.34 116.22 100.65
  C 120.43 109.93 121.33 119.78 121.89 130.07
  Q 122.00 132.03 121.13 133.51
  Q 120.82 134.04 120.22 134.20
  L 114.50 135.75
  Q 113.77 135.95 113.89 135.20
  Q 114.85 129.21 111.20 124.50
  Q 110.84 124.03 111.03 123.47
  Q 112.42 119.34 109.84 115.96
  Q 109.49 115.51 108.92 115.43
  Q 105.61 114.99 103.25 112.51
  Q 102.91 112.15 103.28 111.82
  Z"
/>
<path d="
  M 76.76 113.77
  L 68.64 121.41
  A 0.31 0.31 0.0 0 1 68.12 121.17
  L 68.71 108.51
  A 0.31 0.31 0.0 0 1 69.20 108.26
  L 76.72 113.28
  A 0.31 0.31 0.0 0 1 76.76 113.77
  Z"
/>
<path d="
  M 91.59 123.81
  L 96.15 126.87
  Q 96.16 126.88 96.15 126.90
  L 93.41 129.65
  Q 93.07 130.00 92.58 130.00
  L 84.00 130.00
  Q 83.43 130.00 83.87 129.63
  L 90.75 123.85
  Q 91.16 123.52 91.59 123.81
  Z"
/>
<path d="
  M 68.67 145.18
  L 121.81 145.17
  Q 122.46 145.17 122.46 145.81
  L 122.31 165.02
  A 0.71 0.71 0.0 0 1 121.62 165.73
  Q 115.37 165.83 109.06 165.61
  Q 106.64 165.52 106.89 163.02
  C 108.00 152.02 98.53 144.00 88.30 150.78
  C 84.61 153.23 85.47 161.13 85.51 164.99
  A 1.00 1.00 0.0 0 1 84.50 166.00
  C 80.30 165.95 72.71 167.02 69.01 165.56
  Q 68.51 165.37 68.41 164.84
  C 67.10 157.92 67.84 152.32 68.09 145.75
  Q 68.11 145.18 68.67 145.18
  Z"
/>
</g>
<g fill="#ffe75f">
<path d="
  M 97.40 45.63
  C 99.71 44.68 101.46 40.23 102.86 38.05
  Q 103.36 37.28 103.52 38.19
  Q 105.58 49.87 105.49 61.75
  A 1.07 1.06 -2.1 0 1 104.51 62.80
  Q 88.56 64.20 72.60 63.00
  A 1.49 1.48 -88.3 0 1 71.23 61.54
  Q 71.08 49.49 73.17 37.64
  A 0.37 0.37 0.0 0 1 73.85 37.50
  C 75.58 40.14 78.80 49.88 83.12 42.46
  Q 85.36 38.62 88.09 35.10
  Q 88.45 34.63 88.74 35.15
  C 90.14 37.61 93.94 47.06 97.40 45.63
  Z"
/>
<path d="
  M 48.80 75.92
  C 47.68 71.02 57.19 69.72 55.98 75.82
  Q 55.91 76.19 55.53 76.20
  L 49.39 76.38
  Q 48.90 76.39 48.80 75.92
  Z"
/>
<path d="
  M 94.82 106.59
  A 0.61 0.61 0.0 0 1 94.84 105.60
  Q 102.48 100.46 108.92 93.87
  Q 109.98 92.79 109.75 94.29
  Q 109.46 96.13 110.67 97.51
  Q 111.05 97.94 110.62 98.32
  L 98.66 108.71
  Q 98.19 109.12 97.70 108.75
  L 94.82 106.59
  Z"
/>
<path d="
  M 122.38 96.90
  C 129.61 103.15 132.90 109.57 135.00 119.36
  C 137.74 132.14 137.32 144.99 137.54 157.75
  Q 137.56 158.96 137.03 162.33
  Q 136.95 162.79 136.48 162.76
  L 128.52 162.16
  Q 128.10 162.13 128.10 161.70
  Q 128.11 146.20 127.52 130.75
  C 127.10 119.94 125.98 107.41 121.08 97.93
  Q 119.08 94.04 122.38 96.90
  Z"
/>
<path d="
  M 105.73 121.28
  Q 106.67 121.95 105.68 122.54
  L 103.35 123.93
  Q 102.87 124.22 102.38 123.94
  Q 93.80 119.18 86.03 113.27
  C 80.66 109.18 75.26 105.94 69.90 102.13
  Q 69.43 101.79 69.62 101.25
  L 71.15 96.85
  A 0.41 0.40 -54.3 0 1 71.85 96.73
  C 75.50 101.28 79.91 102.46 84.01 105.50
  Q 94.59 113.35 105.73 121.28
  Z"
/>
<path d="
  M 53.66 147.19
  Q 53.54 148.01 52.76 148.29
  C 50.88 148.97 49.96 148.20 49.97 146.26
  Q 50.10 126.82 51.10 107.40
  Q 51.14 106.75 51.79 106.75
  L 53.47 106.75
  Q 54.00 106.75 54.00 107.28
  Q 54.00 124.76 53.99 142.25
  Q 53.98 144.92 53.66 147.19
  Z"
/>
<path d="
  M 82.02 117.19
  L 85.89 120.21
  Q 86.38 120.60 85.90 120.99
  Q 81.33 124.79 76.74 128.53
  C 74.06 130.71 71.84 130.57 68.66 130.17
  Q 67.69 130.04 68.39 129.37
  L 80.94 117.24
  Q 81.45 116.75 82.02 117.19
  Z"
/>
<rect x="-1.53" y="-3.56" transform="translate(60.98,131.33) rotate(-0.8)" width="3.06" height="7.12" rx="0.58"/>
<path d="
  M 97.87 134.55
  C 96.21 131.40 104.74 128.97 107.00 128.57
  Q 107.50 128.49 107.75 128.92
  Q 110.45 133.54 106.69 136.70
  Q 106.27 137.05 105.72 136.99
  C 103.75 136.78 98.88 136.46 97.87 134.55
  Z"
/>
<path d="
  M 68.00 139.51
  L 68.00 136.08
  A 0.33 0.33 0.0 0 1 68.33 135.75
  L 91.77 135.75
  A 0.33 0.33 0.0 0 1 92.05 135.90
  L 94.04 138.86
  A 0.33 0.33 0.0 0 1 93.77 139.37
  L 68.34 139.84
  A 0.33 0.33 0.0 0 1 68.00 139.51
  Z"
/>
<path d="
  M 91.67 163.17
  A 0.68 0.68 0.0 0 1 91.00 162.49
  L 91.00 156.25
  A 1.59 1.59 0.0 0 1 91.94 154.80
  C 98.97 151.66 101.54 156.87 101.18 162.80
  Q 101.15 163.29 100.66 163.28
  L 91.67 163.17
  Z"
/>
</g>
<path fill="#ebbc9e" d="
  M 94.10 97.78
  C 84.53 100.90 76.13 96.38 72.32 87.42
  C 70.19 82.42 70.53 74.54 70.49 68.86
  Q 70.48 68.23 71.10 68.37
  C 72.21 68.61 73.16 68.89 74.23 68.91
  Q 89.37 69.29 104.49 68.69
  Q 105.00 68.67 105.00 69.18
  C 104.97 72.47 105.85 75.29 109.94 74.06
  Q 110.38 73.93 110.83 74.04
  C 118.16 75.92 115.40 84.70 109.89 86.55
  Q 109.48 86.69 106.07 86.92
  C 101.70 87.21 102.84 90.80 101.00 93.15
  Q 98.52 96.34 94.10 97.78
  Z
  M 85.0463 75.5609
  A 2.51 2.51 0.0 0 0 82.5275 73.0597
  L 82.3075 73.0604
  A 2.51 2.51 0.0 0 0 79.8063 75.5792
  L 79.8537 89.1591
  A 2.51 2.51 0.0 0 0 82.3725 91.6603
  L 82.5925 91.6596
  A 2.51 2.51 0.0 0 0 85.0937 89.1408
  L 85.0463 75.5609
  Z"
/>
<g fill="#ff4c55">
<path d="
  M 54.85 100.32
  C 54.38 94.27 55.37 88.61 54.31 82.49
  A 0.51 0.51 0.0 0 1 55.14 82.01
  C 57.36 83.86 59.29 82.36 61.54 85.68
  C 65.06 90.88 64.06 102.42 55.36 100.89
  Q 54.89 100.80 54.85 100.32
  Z"
/>
<path d="
  M 48.59 100.99
  C 43.51 101.09 40.02 94.60 41.12 89.65
  C 42.00 85.69 44.61 84.44 48.31 82.47
  Q 48.80 82.21 48.91 82.76
  C 49.96 87.95 49.40 93.83 49.15 100.44
  Q 49.13 100.98 48.59 100.99
  Z"
/>
</g>
</svg>
