<?xml version="1.0" encoding="UTF-8" standalone="no"?>
<!DOCTYPE svg PUBLIC "-//W3C//DTD SVG 1.1//EN" "http://www.w3.org/Graphics/SVG/1.1/DTD/svg11.dtd">
<svg xmlns="http://www.w3.org/2000/svg" version="1.1" viewBox="0 0 180 180">
<g stroke-width="2.00" fill="none" stroke-linecap="butt">
<path stroke="#3d504e" vector-effect="non-scaling-stroke" d="
  M 115.79 65.96
  C 111.86 62.53 117.09 61.17 117.46 58.53
  C 117.83 55.85 115.62 49.52 111.74 50.93
  Q 111.28 51.09 110.80 50.97
  C 104.91 49.47 112.11 43.77 107.28 39.98
  C 103.19 36.78 96.72 41.25 95.40 45.17
  Q 95.18 45.82 95.85 45.99
  C 109.47 49.35 112.26 63.95 112.36 76.22
  Q 112.36 76.79 112.93 76.82
  Q 116.04 77.03 117.25 74.35
  Q 119.54 69.23 115.79 65.96"
/>
<path stroke="#98989a" vector-effect="non-scaling-stroke" d="
  M 88.58 81.38
  A 0.55 0.55 0.0 0 0 88.04 81.92
  L 87.62 95.55
  Q 87.61 96.06 88.11 96.05
  L 105.50 95.89
  Q 106.02 95.88 106.03 95.36
  C 106.23 84.33 110.56 52.46 92.73 51.25
  Q 75.52 50.09 72.86 67.10
  Q 72.78 67.60 73.28 67.69
  C 80.72 69.02 88.42 68.41 95.91 68.27
  C 102.34 68.15 101.15 78.10 97.52 80.88
  Q 97.11 81.20 96.59 81.21
  L 88.58 81.38"
/>
<path stroke="#98989a" vector-effect="non-scaling-stroke" d="
  M 53.64 117.41
  C 53.72 103.87 52.85 91.38 52.71 76.86
  C 52.68 74.67 51.79 72.95 50.89 71.06
  Q 50.60 70.44 50.17 70.98
  C 48.73 72.79 47.69 74.38 47.78 76.87
  Q 48.46 97.08 48.79 117.34
  Q 48.80 118.00 49.46 118.00
  L 53.05 118.00
  Q 53.64 118.00 53.64 117.41"
/>
<path stroke="#98989a" vector-effect="non-scaling-stroke" d="
  M 78.08 81.79
  A 0.35 0.35 0.0 0 0 77.80 81.44
  L 71.76 80.20
  A 0.35 0.35 0.0 0 0 71.34 80.54
  L 71.01 95.39
  A 0.35 0.35 0.0 0 0 71.36 95.75
  L 77.41 95.75
  A 0.35 0.35 0.0 0 0 77.76 95.41
  L 78.08 81.79"
/>
<path stroke="#3d504e" vector-effect="non-scaling-stroke" d="
  M 132.41 110.57
  C 130.27 105.16 126.18 99.68 121.08 96.20
  Q 120.52 95.82 120.69 96.47
  C 122.34 102.76 128.81 105.08 132.09 110.87
  Q 132.15 110.97 132.23 110.89
  L 132.44 110.69
  Q 132.46 110.67 132.41 110.57"
/>
<path stroke="#3d504e" vector-effect="non-scaling-stroke" d="
  M 89.17 109.82
  C 87.44 108.41 80.04 101.65 78.75 101.53
  Q 75.23 101.23 70.20 101.62
  Q 69.49 101.67 70.06 102.09
  C 75.51 106.02 81.34 109.02 86.29 113.58
  Q 86.70 113.96 87.02 113.50
  L 89.23 110.22
  A 0.30 0.30 0.0 0 0 89.17 109.82"
/>
<path stroke="#98989a" vector-effect="non-scaling-stroke" d="
  M 95.84 136.67
  Q 108.17 125.98 120.21 114.96
  Q 122.38 112.97 124.32 110.66
  Q 124.72 110.18 124.27 109.74
  C 119.09 104.71 108.83 103.33 102.30 106.59
  C 90.49 112.50 84.60 128.08 91.68 140.06
  Q 91.96 140.53 92.39 140.18
  C 93.67 139.15 94.83 137.55 95.84 136.67"
/>
<path stroke="#98989a" vector-effect="non-scaling-stroke" d="
  M 76.41 113.10
  L 69.48 108.44
  Q 68.76 107.95 68.72 108.82
  L 68.12 121.42
  Q 68.09 122.00 68.51 121.60
  L 76.48 113.95
  A 0.55 0.55 0.0 0 0 76.41 113.10"
/>
<path stroke="#98989a" vector-effect="non-scaling-stroke" d="
  M 96.11 144.89
  C 101.97 148.81 106.84 149.02 113.45 149.20
  C 133.55 149.77 132.92 128.65 128.28 115.42
  A 0.23 0.23 0.0 0 0 127.91 115.33
  L 96.05 144.13
  A 0.49 0.48 41.0 0 0 96.11 144.89"
/>
<path stroke="#3d504e" vector-effect="non-scaling-stroke" d="
  M 74.66 129.72
  C 78.89 126.74 88.17 121.29 81.96 117.35
  Q 81.44 117.02 81.00 117.44
  L 68.73 129.27
  Q 67.97 130.00 69.03 130.00
  L 73.77 130.00
  Q 74.26 130.00 74.66 129.72"
/>
<path stroke="#3d504e" vector-effect="non-scaling-stroke" d="
  M 40.44 123.62
  C 38.88 122.80 38.65 124.98 39.44 125.85
  Q 39.81 126.26 40.34 126.13
  Q 44.82 125.01 48.10 128.04
  Q 48.50 128.41 48.50 128.95
  L 48.50 133.71
  Q 48.50 134.48 49.27 134.55
  L 52.53 134.81
  Q 53.17 134.86 53.20 134.22
  L 53.41 128.70
  Q 53.43 128.12 53.93 127.83
  Q 57.06 125.99 60.73 126.24
  C 62.28 126.35 63.07 125.51 62.30 124.01
  A 0.59 0.59 0.0 0 0 61.76 123.69
  L 41.10 123.78
  Q 40.75 123.78 40.44 123.62"
/>
<path stroke="#3d504e" vector-effect="non-scaling-stroke" d="
  M 62.3102 133.2705
  A 0.79 0.79 0.0 0 0 61.6269 132.3865
  L 59.9606 132.1731
  A 0.79 0.79 0.0 0 0 59.0766 132.8563
  L 58.9698 133.6895
  A 0.79 0.79 0.0 0 0 59.6531 134.5735
  L 61.3194 134.7869
  A 0.79 0.79 0.0 0 0 62.2034 134.1037
  L 62.3102 133.2705"
/>
<path stroke="#3d504e" vector-effect="non-scaling-stroke" d="
  M 68.69 135.75
  A 0.51 0.51 0.0 0 0 68.18 136.25
  L 68.16 139.01
  A 0.51 0.51 0.0 0 0 68.67 139.53
  L 84.12 139.43
  A 0.51 0.51 0.0 0 0 84.61 138.78
  L 83.82 136.12
  A 0.51 0.51 0.0 0 0 83.33 135.75
  L 68.69 135.75"
/>
<path stroke="#3d504e" vector-effect="non-scaling-stroke" d="
  M 134.29 143.59
  C 132.64 146.30 128.26 149.82 128.43 152.00
  C 128.69 155.20 128.34 158.41 128.24 161.64
  Q 128.22 162.15 128.73 162.17
  L 136.34 162.50
  Q 136.96 162.53 137.04 161.91
  C 138.29 152.31 137.18 141.86 137.01 136.20
  Q 136.93 133.75 136.42 136.14
  C 135.85 138.82 135.69 141.30 134.29 143.59"
/>
<path stroke="#98989a" vector-effect="non-scaling-stroke" d="
  M 69.47 166.03
  L 84.38 166.00
  Q 85.50 166.00 85.50 164.88
  C 85.49 158.68 84.12 151.84 91.43 149.00
  Q 91.93 148.80 91.55 148.42
  L 88.75 145.63
  Q 88.38 145.25 87.84 145.25
  L 68.72 145.25
  Q 68.07 145.25 68.05 145.91
  C 67.86 152.42 67.01 158.91 68.57 165.33
  A 0.93 0.93 0.0 0 0 69.47 166.03"
/>
<path stroke="#98989a" vector-effect="non-scaling-stroke" d="
  M 122.31 153.63
  C 116.43 155.71 111.99 154.79 106.03 154.56
  Q 105.48 154.53 105.69 155.04
  Q 107.28 158.85 106.88 163.01
  Q 106.63 165.52 109.06 165.60
  Q 115.00 165.81 121.08 165.74
  A 1.02 1.02 0.0 0 0 122.09 164.78
  L 122.83 154.03
  Q 122.87 153.43 122.31 153.63"
/>
<path stroke="#3d504e" vector-effect="non-scaling-stroke" d="
  M 100.84 162.53
  C 101.74 157.19 96.97 150.20 91.65 155.49
  Q 91.25 155.89 91.25 156.46
  L 91.25 162.60
  Q 91.25 163.19 91.85 163.19
  L 100.17 163.10
  Q 100.74 163.09 100.84 162.53"
/>
<path stroke="#98989a" vector-effect="non-scaling-stroke" d="
  M 116.46 110.98
  A 2.46 2.46 0.0 0 0 114.00 108.52
  A 2.46 2.46 0.0 0 0 111.54 110.98
  A 2.46 2.46 0.0 0 0 114.00 113.44
  A 2.46 2.46 0.0 0 0 116.46 110.98"
/>
<path stroke="#98989a" vector-effect="non-scaling-stroke" d="
  M 101.80 114.82
  A 2.46 2.46 0.0 0 0 99.34 112.36
  A 2.46 2.46 0.0 0 0 96.88 114.82
  A 2.46 2.46 0.0 0 0 99.34 117.28
  A 2.46 2.46 0.0 0 0 101.80 114.82"
/>
<path stroke="#98989a" vector-effect="non-scaling-stroke" d="
  M 96.00 129.04
  A 2.52 2.52 0.0 0 0 93.48 126.52
  A 2.52 2.52 0.0 0 0 90.96 129.04
  A 2.52 2.52 0.0 0 0 93.48 131.56
  A 2.52 2.52 0.0 0 0 96.00 129.04"
/>
<path stroke="#98989a" vector-effect="non-scaling-stroke" d="
  M 128.43 127.14
  A 2.47 2.47 0.0 0 0 125.96 124.67
  A 2.47 2.47 0.0 0 0 123.49 127.14
  A 2.47 2.47 0.0 0 0 125.96 129.61
  A 2.47 2.47 0.0 0 0 128.43 127.14"
/>
<path stroke="#98989a" vector-effect="non-scaling-stroke" d="
  M 124.50 141.38
  A 2.47 2.47 0.0 0 0 122.03 138.91
  A 2.47 2.47 0.0 0 0 119.56 141.38
  A 2.47 2.47 0.0 0 0 122.03 143.85
  A 2.47 2.47 0.0 0 0 124.50 141.38"
/>
<path stroke="#98989a" vector-effect="non-scaling-stroke" d="
  M 108.94 143.79
  A 2.46 2.46 0.0 0 0 106.48 141.33
  A 2.46 2.46 0.0 0 0 104.02 143.79
  A 2.46 2.46 0.0 0 0 106.48 146.25
  A 2.46 2.46 0.0 0 0 108.94 143.79"
/>
</g>
<g fill="#38383c">
<path d="
  M 112.02 83.19
  Q 112.09 86.11 114.54 86.97
  C 130.05 92.43 136.99 102.37 140.46 117.98
  C 143.70 132.53 143.99 151.66 142.59 165.39
  Q 142.54 165.90 142.18 166.26
  C 138.74 169.76 132.75 167.83 128.04 167.79
  Q 127.52 167.78 127.26 168.23
  Q 125.34 171.61 121.30 171.55
  C 116.97 171.50 107.49 172.64 102.78 169.03
  Q 102.44 168.77 102.01 168.77
  L 91.11 168.71
  Q 90.60 168.71 90.23 169.05
  C 86.10 172.83 69.67 173.04 65.44 169.67
  C 60.40 165.64 62.51 147.69 62.52 141.63
  A 1.09 1.08 3.2 0 0 61.54 140.54
  C 57.77 140.16 54.63 140.31 50.77 140.28
  Q 43.44 140.21 42.94 132.20
  Q 42.88 131.22 41.91 131.40
  Q 37.00 132.32 34.11 128.58
  Q 33.76 128.14 33.76 127.58
  C 33.69 120.98 32.95 117.41 41.55 118.00
  Q 43.10 118.11 43.09 116.56
  Q 42.99 100.09 42.52 82.68
  C 42.31 75.08 42.92 71.52 47.10 65.78
  C 51.27 60.04 55.59 68.30 56.87 71.31
  Q 57.79 73.47 57.94 76.73
  Q 58.90 97.05 59.38 117.38
  Q 59.40 118.00 60.02 118.00
  L 62.22 118.00
  Q 62.70 118.00 62.71 117.52
  Q 62.85 107.85 64.70 98.40
  Q 65.51 94.32 65.47 90.51
  C 65.32 72.82 65.11 46.56 89.47 45.58
  Q 89.97 45.56 90.13 45.08
  C 92.82 36.92 102.55 30.29 110.38 35.95
  Q 114.56 38.97 114.96 44.90
  Q 114.99 45.41 115.46 45.65
  Q 126.36 51.24 121.94 62.96
  Q 121.76 63.42 121.98 63.87
  C 125.93 71.84 123.24 82.65 112.61 82.58
  Q 112.00 82.58 112.02 83.19
  Z
  M 115.79 65.96
  C 111.86 62.53 117.09 61.17 117.46 58.53
  C 117.83 55.85 115.62 49.52 111.74 50.93
  Q 111.28 51.09 110.80 50.97
  C 104.91 49.47 112.11 43.77 107.28 39.98
  C 103.19 36.78 96.72 41.25 95.40 45.17
  Q 95.18 45.82 95.85 45.99
  C 109.47 49.35 112.26 63.95 112.36 76.22
  Q 112.36 76.79 112.93 76.82
  Q 116.04 77.03 117.25 74.35
  Q 119.54 69.23 115.79 65.96
  Z
  M 88.58 81.38
  A 0.55 0.55 0.0 0 0 88.04 81.92
  L 87.62 95.55
  Q 87.61 96.06 88.11 96.05
  L 105.50 95.89
  Q 106.02 95.88 106.03 95.36
  C 106.23 84.33 110.56 52.46 92.73 51.25
  Q 75.52 50.09 72.86 67.10
  Q 72.78 67.60 73.28 67.69
  C 80.72 69.02 88.42 68.41 95.91 68.27
  C 102.34 68.15 101.15 78.10 97.52 80.88
  Q 97.11 81.20 96.59 81.21
  L 88.58 81.38
  Z
  M 53.64 117.41
  C 53.72 103.87 52.85 91.38 52.71 76.86
  C 52.68 74.67 51.79 72.95 50.89 71.06
  Q 50.60 70.44 50.17 70.98
  C 48.73 72.79 47.69 74.38 47.78 76.87
  Q 48.46 97.08 48.79 117.34
  Q 48.80 118.00 49.46 118.00
  L 53.05 118.00
  Q 53.64 118.00 53.64 117.41
  Z
  M 78.08 81.79
  A 0.35 0.35 0.0 0 0 77.80 81.44
  L 71.76 80.20
  A 0.35 0.35 0.0 0 0 71.34 80.54
  L 71.01 95.39
  A 0.35 0.35 0.0 0 0 71.36 95.75
  L 77.41 95.75
  A 0.35 0.35 0.0 0 0 77.76 95.41
  L 78.08 81.79
  Z
  M 132.41 110.57
  C 130.27 105.16 126.18 99.68 121.08 96.20
  Q 120.52 95.82 120.69 96.47
  C 122.34 102.76 128.81 105.08 132.09 110.87
  Q 132.15 110.97 132.23 110.89
  L 132.44 110.69
  Q 132.46 110.67 132.41 110.57
  Z
  M 89.17 109.82
  C 87.44 108.41 80.04 101.65 78.75 101.53
  Q 75.23 101.23 70.20 101.62
  Q 69.49 101.67 70.06 102.09
  C 75.51 106.02 81.34 109.02 86.29 113.58
  Q 86.70 113.96 87.02 113.50
  L 89.23 110.22
  A 0.30 0.30 0.0 0 0 89.17 109.82
  Z
  M 95.84 136.67
  Q 108.17 125.98 120.21 114.96
  Q 122.38 112.97 124.32 110.66
  Q 124.72 110.18 124.27 109.74
  C 119.09 104.71 108.83 103.33 102.30 106.59
  C 90.49 112.50 84.60 128.08 91.68 140.06
  Q 91.96 140.53 92.39 140.18
  C 93.67 139.15 94.83 137.55 95.84 136.67
  Z
  M 76.41 113.10
  L 69.48 108.44
  Q 68.76 107.95 68.72 108.82
  L 68.12 121.42
  Q 68.09 122.00 68.51 121.60
  L 76.48 113.95
  A 0.55 0.55 0.0 0 0 76.41 113.10
  Z
  M 96.11 144.89
  C 101.97 148.81 106.84 149.02 113.45 149.20
  C 133.55 149.77 132.92 128.65 128.28 115.42
  A 0.23 0.23 0.0 0 0 127.91 115.33
  L 96.05 144.13
  A 0.49 0.48 41.0 0 0 96.11 144.89
  Z
  M 74.66 129.72
  C 78.89 126.74 88.17 121.29 81.96 117.35
  Q 81.44 117.02 81.00 117.44
  L 68.73 129.27
  Q 67.97 130.00 69.03 130.00
  L 73.77 130.00
  Q 74.26 130.00 74.66 129.72
  Z
  M 40.44 123.62
  C 38.88 122.80 38.65 124.98 39.44 125.85
  Q 39.81 126.26 40.34 126.13
  Q 44.82 125.01 48.10 128.04
  Q 48.50 128.41 48.50 128.95
  L 48.50 133.71
  Q 48.50 134.48 49.27 134.55
  L 52.53 134.81
  Q 53.17 134.86 53.20 134.22
  L 53.41 128.70
  Q 53.43 128.12 53.93 127.83
  Q 57.06 125.99 60.73 126.24
  C 62.28 126.35 63.07 125.51 62.30 124.01
  A 0.59 0.59 0.0 0 0 61.76 123.69
  L 41.10 123.78
  Q 40.75 123.78 40.44 123.62
  Z
  M 62.3102 133.2705
  A 0.79 0.79 0.0 0 0 61.6269 132.3865
  L 59.9606 132.1731
  A 0.79 0.79 0.0 0 0 59.0766 132.8563
  L 58.9698 133.6895
  A 0.79 0.79 0.0 0 0 59.6531 134.5735
  L 61.3194 134.7869
  A 0.79 0.79 0.0 0 0 62.2034 134.1037
  L 62.3102 133.2705
  Z
  M 68.69 135.75
  A 0.51 0.51 0.0 0 0 68.18 136.25
  L 68.16 139.01
  A 0.51 0.51 0.0 0 0 68.67 139.53
  L 84.12 139.43
  A 0.51 0.51 0.0 0 0 84.61 138.78
  L 83.82 136.12
  A 0.51 0.51 0.0 0 0 83.33 135.75
  L 68.69 135.75
  Z
  M 134.29 143.59
  C 132.64 146.30 128.26 149.82 128.43 152.00
  C 128.69 155.20 128.34 158.41 128.24 161.64
  Q 128.22 162.15 128.73 162.17
  L 136.34 162.50
  Q 136.96 162.53 137.04 161.91
  C 138.29 152.31 137.18 141.86 137.01 136.20
  Q 136.93 133.75 136.42 136.14
  C 135.85 138.82 135.69 141.30 134.29 143.59
  Z
  M 69.47 166.03
  L 84.38 166.00
  Q 85.50 166.00 85.50 164.88
  C 85.49 158.68 84.12 151.84 91.43 149.00
  Q 91.93 148.80 91.55 148.42
  L 88.75 145.63
  Q 88.38 145.25 87.84 145.25
  L 68.72 145.25
  Q 68.07 145.25 68.05 145.91
  C 67.86 152.42 67.01 158.91 68.57 165.33
  A 0.93 0.93 0.0 0 0 69.47 166.03
  Z
  M 122.31 153.63
  C 116.43 155.71 111.99 154.79 106.03 154.56
  Q 105.48 154.53 105.69 155.04
  Q 107.28 158.85 106.88 163.01
  Q 106.63 165.52 109.06 165.60
  Q 115.00 165.81 121.08 165.74
  A 1.02 1.02 0.0 0 0 122.09 164.78
  L 122.83 154.03
  Q 122.87 153.43 122.31 153.63
  Z
  M 100.84 162.53
  C 101.74 157.19 96.97 150.20 91.65 155.49
  Q 91.25 155.89 91.25 156.46
  L 91.25 162.60
  Q 91.25 163.19 91.85 163.19
  L 100.17 163.10
  Q 100.74 163.09 100.84 162.53
  Z"
/>
<circle cx="114.00" cy="110.98" r="2.46"/>
<circle cx="99.34" cy="114.82" r="2.46"/>
<circle cx="125.96" cy="127.14" r="2.47"/>
<circle cx="93.48" cy="129.04" r="2.52"/>
<circle cx="122.03" cy="141.38" r="2.47"/>
<circle cx="106.48" cy="143.79" r="2.46"/>
</g>
<g fill="#f8f8f8">
<path d="
  M 88.58 81.38
  L 96.59 81.21
  Q 97.11 81.20 97.52 80.88
  C 101.15 78.10 102.34 68.15 95.91 68.27
  C 88.42 68.41 80.72 69.02 73.28 67.69
  Q 72.78 67.60 72.86 67.10
  Q 75.52 50.09 92.73 51.25
  C 110.56 52.46 106.23 84.33 106.03 95.36
  Q 106.02 95.88 105.50 95.89
  L 88.11 96.05
  Q 87.61 96.06 87.62 95.55
  L 88.04 81.92
  A 0.55 0.55 0.0 0 1 88.58 81.38
  Z"
/>
<path d="
  M 52.71 76.86
  C 52.85 91.38 53.72 103.87 53.64 117.41
  Q 53.64 118.00 53.05 118.00
  L 49.46 118.00
  Q 48.80 118.00 48.79 117.34
  Q 48.46 97.08 47.78 76.87
  C 47.69 74.38 48.73 72.79 50.17 70.98
  Q 50.60 70.44 50.89 71.06
  C 51.79 72.95 52.68 74.67 52.71 76.86
  Z"
/>
<path d="
  M 78.08 81.79
  L 77.76 95.41
  A 0.35 0.35 0.0 0 1 77.41 95.75
  L 71.36 95.75
  A 0.35 0.35 0.0 0 1 71.01 95.39
  L 71.34 80.54
  A 0.35 0.35 0.0 0 1 71.76 80.20
  L 77.80 81.44
  A 0.35 0.35 0.0 0 1 78.08 81.79
  Z"
/>
<path d="
  M 95.84 136.67
  C 94.83 137.55 93.67 139.15 92.39 140.18
  Q 91.96 140.53 91.68 140.06
  C 84.60 128.08 90.49 112.50 102.30 106.59
  C 108.83 103.33 119.09 104.71 124.27 109.74
  Q 124.72 110.18 124.32 110.66
  Q 122.38 112.97 120.21 114.96
  Q 108.17 125.98 95.84 136.67
  Z
  M 116.46 110.98
  A 2.46 2.46 0.0 0 0 114.00 108.52
  A 2.46 2.46 0.0 0 0 111.54 110.98
  A 2.46 2.46 0.0 0 0 114.00 113.44
  A 2.46 2.46 0.0 0 0 116.46 110.98
  Z
  M 101.80 114.82
  A 2.46 2.46 0.0 0 0 99.34 112.36
  A 2.46 2.46 0.0 0 0 96.88 114.82
  A 2.46 2.46 0.0 0 0 99.34 117.28
  A 2.46 2.46 0.0 0 0 101.80 114.82
  Z
  M 96.00 129.04
  A 2.52 2.52 0.0 0 0 93.48 126.52
  A 2.52 2.52 0.0 0 0 90.96 129.04
  A 2.52 2.52 0.0 0 0 93.48 131.56
  A 2.52 2.52 0.0 0 0 96.00 129.04
  Z"
/>
<path d="
  M 76.41 113.10
  A 0.55 0.55 0.0 0 1 76.48 113.95
  L 68.51 121.60
  Q 68.09 122.00 68.12 121.42
  L 68.72 108.82
  Q 68.76 107.95 69.48 108.44
  L 76.41 113.10
  Z"
/>
<path d="
  M 96.11 144.89
  A 0.49 0.48 41.0 0 1 96.05 144.13
  L 127.91 115.33
  A 0.23 0.23 0.0 0 1 128.28 115.42
  C 132.92 128.65 133.55 149.77 113.45 149.20
  C 106.84 149.02 101.97 148.81 96.11 144.89
  Z
  M 128.43 127.14
  A 2.47 2.47 0.0 0 0 125.96 124.67
  A 2.47 2.47 0.0 0 0 123.49 127.14
  A 2.47 2.47 0.0 0 0 125.96 129.61
  A 2.47 2.47 0.0 0 0 128.43 127.14
  Z
  M 124.50 141.38
  A 2.47 2.47 0.0 0 0 122.03 138.91
  A 2.47 2.47 0.0 0 0 119.56 141.38
  A 2.47 2.47 0.0 0 0 122.03 143.85
  A 2.47 2.47 0.0 0 0 124.50 141.38
  Z
  M 108.94 143.79
  A 2.46 2.46 0.0 0 0 106.48 141.33
  A 2.46 2.46 0.0 0 0 104.02 143.79
  A 2.46 2.46 0.0 0 0 106.48 146.25
  A 2.46 2.46 0.0 0 0 108.94 143.79
  Z"
/>
<path d="
  M 69.47 166.03
  A 0.93 0.93 0.0 0 1 68.57 165.33
  C 67.01 158.91 67.86 152.42 68.05 145.91
  Q 68.07 145.25 68.72 145.25
  L 87.84 145.25
  Q 88.38 145.25 88.75 145.63
  L 91.55 148.42
  Q 91.93 148.80 91.43 149.00
  C 84.12 151.84 85.49 158.68 85.50 164.88
  Q 85.50 166.00 84.38 166.00
  L 69.47 166.03
  Z"
/>
<path d="
  M 106.03 154.56
  C 111.99 154.79 116.43 155.71 122.31 153.63
  Q 122.87 153.43 122.83 154.03
  L 122.09 164.78
  A 1.02 1.02 0.0 0 1 121.08 165.74
  Q 115.00 165.81 109.06 165.60
  Q 106.63 165.52 106.88 163.01
  Q 107.28 158.85 105.69 155.04
  Q 105.48 154.53 106.03 154.56
  Z"
/>
</g>
<g fill="#42685f">
<path d="
  M 115.79 65.96
  Q 119.54 69.23 117.25 74.35
  Q 116.04 77.03 112.93 76.82
  Q 112.36 76.79 112.36 76.22
  C 112.26 63.95 109.47 49.35 95.85 45.99
  Q 95.18 45.82 95.40 45.17
  C 96.72 41.25 103.19 36.78 107.28 39.98
  C 112.11 43.77 104.91 49.47 110.80 50.97
  Q 111.28 51.09 111.74 50.93
  C 115.62 49.52 117.83 55.85 117.46 58.53
  C 117.09 61.17 111.86 62.53 115.79 65.96
  Z"
/>
<path d="
  M 121.08 96.20
  C 126.18 99.68 130.27 105.16 132.41 110.57
  Q 132.46 110.67 132.44 110.69
  L 132.23 110.89
  Q 132.15 110.97 132.09 110.87
  C 128.81 105.08 122.34 102.76 120.69 96.47
  Q 120.52 95.82 121.08 96.20
  Z"
/>
<path d="
  M 89.17 109.82
  A 0.30 0.30 0.0 0 1 89.23 110.22
  L 87.02 113.50
  Q 86.70 113.96 86.29 113.58
  C 81.34 109.02 75.51 106.02 70.06 102.09
  Q 69.49 101.67 70.20 101.62
  Q 75.23 101.23 78.75 101.53
  C 80.04 101.65 87.44 108.41 89.17 109.82
  Z"
/>
<path d="
  M 81.96 117.35
  C 88.17 121.29 78.89 126.74 74.66 129.72
  Q 74.26 130.00 73.77 130.00
  L 69.03 130.00
  Q 67.97 130.00 68.73 129.27
  L 81.00 117.44
  Q 81.44 117.02 81.96 117.35
  Z"
/>
<path d="
  M 41.10 123.78
  L 61.76 123.69
  A 0.59 0.59 0.0 0 1 62.30 124.01
  C 63.07 125.51 62.28 126.35 60.73 126.24
  Q 57.06 125.99 53.93 127.83
  Q 53.43 128.12 53.41 128.70
  L 53.20 134.22
  Q 53.17 134.86 52.53 134.81
  L 49.27 134.55
  Q 48.50 134.48 48.50 133.71
  L 48.50 128.95
  Q 48.50 128.41 48.10 128.04
  Q 44.82 125.01 40.34 126.13
  Q 39.81 126.26 39.44 125.85
  C 38.65 124.98 38.88 122.80 40.44 123.62
  Q 40.75 123.78 41.10 123.78
  Z"
/>
<rect x="-1.63" y="-1.21" transform="translate(60.64,133.48) rotate(7.3)" width="3.26" height="2.42" rx="0.79"/>
<path d="
  M 68.69 135.75
  L 83.33 135.75
  A 0.51 0.51 0.0 0 1 83.82 136.12
  L 84.61 138.78
  A 0.51 0.51 0.0 0 1 84.12 139.43
  L 68.67 139.53
  A 0.51 0.51 0.0 0 1 68.16 139.01
  L 68.18 136.25
  A 0.51 0.51 0.0 0 1 68.69 135.75
  Z"
/>
<path d="
  M 128.43 152.00
  C 128.26 149.82 132.64 146.30 134.29 143.59
  C 135.69 141.30 135.85 138.82 136.42 136.14
  Q 136.93 133.75 137.01 136.20
  C 137.18 141.86 138.29 152.31 137.04 161.91
  Q 136.96 162.53 136.34 162.50
  L 128.73 162.17
  Q 128.22 162.15 128.24 161.64
  C 128.34 158.41 128.69 155.20 128.43 152.00
  Z"
/>
<path d="
  M 91.65 155.49
  C 96.97 150.20 101.74 157.19 100.84 162.53
  Q 100.74 163.09 100.17 163.10
  L 91.85 163.19
  Q 91.25 163.19 91.25 162.60
  L 91.25 156.46
  Q 91.25 155.89 91.65 155.49
  Z"
/>
</g>
</svg>
