<?xml version="1.0" encoding="UTF-8" standalone="no"?>
<!DOCTYPE svg PUBLIC "-//W3C//DTD SVG 1.1//EN" "http://www.w3.org/Graphics/SVG/1.1/DTD/svg11.dtd">
<svg xmlns="http://www.w3.org/2000/svg" version="1.1" viewBox="0 0 180 180">
<g stroke-width="2.00" fill="none" stroke-linecap="butt">
<path stroke="#927a6d" vector-effect="non-scaling-stroke" d="
  M 71.28 72.62
  C 69.05 85.55 76.37 102.51 92.48 98.13
  Q 92.96 98.00 92.97 97.51
  Q 93.24 84.65 92.35 71.82
  C 92.00 66.77 90.01 62.80 84.78 62.93
  Q 72.90 63.21 71.28 72.62"
/>
<path stroke="#533d3e" vector-effect="non-scaling-stroke" d="
  M 50.63 119.12
  Q 50.36 141.69 51.44 164.24
  Q 51.47 164.91 52.17 165.36
  A 0.52 0.52 0.0 0 0 52.97 164.89
  Q 51.73 137.96 52.01 110.99
  C 52.04 108.17 51.24 104.93 51.37 102.07
  C 51.68 95.05 53.47 83.94 43.37 83.90
  C 36.40 83.88 31.94 88.58 33.13 95.57
  Q 33.36 96.94 34.85 97.19
  Q 35.47 97.30 35.40 96.67
  C 35.28 95.47 34.77 94.54 34.87 93.36
  C 35.69 84.06 49.09 82.87 49.58 91.66
  C 50.10 100.82 50.75 109.75 50.63 119.12"
/>
<path stroke="#3d504e" vector-effect="non-scaling-stroke" d="
  M 77.49 118.73
  Q 77.20 118.82 77.10 119.04
  Q 76.91 119.44 77.35 119.34
  C 83.18 117.95 88.38 114.97 94.36 113.51
  A 0.54 0.54 0.0 0 0 94.72 112.75
  Q 93.00 109.09 92.98 105.04
  Q 92.98 104.65 92.59 104.63
  L 82.62 104.18
  Q 82.15 104.16 82.12 104.63
  Q 81.59 112.04 77.84 118.46
  Q 77.72 118.66 77.49 118.73"
/>
<path stroke="#533d3e" vector-effect="non-scaling-stroke" d="
  M 108.66 142.63
  C 103.26 142.47 93.81 142.37 92.40 135.76
  C 90.70 127.80 99.12 125.31 104.53 123.17
  Q 105.13 122.94 104.99 122.31
  L 104.00 117.76
  A 0.82 0.81 75.7 0 0 102.98 117.15
  L 87.71 121.56
  A 0.63 0.62 -11.9 0 0 87.26 122.24
  Q 89.07 134.99 92.65 147.39
  Q 93.01 148.64 94.28 148.32
  Q 101.37 146.54 108.28 144.73
  C 109.34 144.45 110.09 143.69 108.93 142.74
  A 0.46 0.41 -19.4 0 0 108.66 142.63"
/>
<path stroke="#3d504e" vector-effect="non-scaling-stroke" d="
  M 88.85 154.80
  C 82.83 155.57 79.36 155.41 77.79 149.00
  Q 74.01 133.55 72.91 124.70
  Q 72.85 124.18 72.48 124.56
  L 68.42 128.80
  Q 68.07 129.18 68.07 129.69
  Q 68.04 144.47 67.75 159.25
  C 67.72 160.91 68.16 162.57 68.46 164.11
  A 2.21 2.20 -5.5 0 0 70.64 165.90
  L 121.39 165.73
  Q 122.11 165.73 122.15 165.01
  Q 122.87 152.64 121.90 140.27
  Q 121.86 139.77 121.37 139.89
  L 115.42 141.47
  Q 114.92 141.60 114.98 142.12
  C 115.28 144.60 116.45 148.10 113.05 149.29
  Q 102.15 153.10 88.85 154.80"
/>
<path stroke="#533d3e" vector-effect="non-scaling-stroke" d="
  M 78.60 125.93
  L 83.30 148.51
  Q 83.46 149.25 84.22 149.25
  L 86.42 149.25
  Q 87.11 149.25 86.92 148.58
  Q 83.54 136.80 82.02 124.64
  Q 81.94 123.98 81.31 124.18
  L 79.26 124.80
  Q 78.42 125.06 78.60 125.93"
/>
<path stroke="#927a6d" vector-effect="non-scaling-stroke" d="
  M 57.71 133.95
  A 0.37 0.37 0.0 0 0 58.02 134.33
  L 61.82 134.90
  A 0.37 0.37 0.0 0 0 62.24 134.53
  L 62.26 128.05
  A 0.37 0.37 0.0 0 0 61.84 127.68
  L 58.15 128.22
  A 0.37 0.37 0.0 0 0 57.83 128.57
  L 57.71 133.95"
/>
<path stroke="#3d504e" vector-effect="non-scaling-stroke" d="
  M 123.38 132.44
  C 123.72 127.50 117.70 128.41 114.72 129.72
  Q 114.26 129.92 114.26 130.42
  L 114.24 135.08
  Q 114.24 135.80 114.93 135.59
  L 122.75 133.23
  Q 123.34 133.05 123.38 132.44"
/>
<path stroke="#927a6d" vector-effect="non-scaling-stroke" d="
  M 98.99 135.76
  L 105.61 136.86
  Q 106.27 136.97 106.76 136.50
  Q 110.10 133.30 107.75 129.01
  Q 107.53 128.61 107.08 128.68
  C 104.32 129.12 98.41 130.73 97.76 133.99
  A 1.50 1.50 0.0 0 0 98.99 135.76"
/>
<path stroke="#3d504e" vector-effect="non-scaling-stroke" d="
  M 39.50 65.54
  L 43.71 69.54
  Q 44.29 70.09 44.83 69.50
  L 52.20 61.33
  Q 52.66 60.81 52.19 60.31
  L 47.75 55.54"
/>
<path stroke="#576461" vector-effect="non-scaling-stroke" d="
  M 47.75 55.54
  L 43.91 51.76
  Q 43.44 51.30 43.01 51.79
  L 35.41 60.32
  Q 34.99 60.78 35.42 61.24
  L 39.50 65.54"
/>
<path stroke="#5c7c73" vector-effect="non-scaling-stroke" d="
  M 47.75 55.54
  L 39.50 65.54"
/>
<path stroke="#927a6d" vector-effect="non-scaling-stroke" d="
  M 84.9999 75.4777
  A 2.42 2.42 0.0 0 0 82.5588 73.0789
  L 82.2188 73.0818
  A 2.42 2.42 0.0 0 0 79.8201 75.5229
  L 79.9401 89.2823
  A 2.42 2.42 0.0 0 0 82.3812 91.6811
  L 82.7212 91.6782
  A 2.42 2.42 0.0 0 0 85.1199 89.2371
  L 84.9999 75.4777"
/>
</g>
<g fill="#38383c">
<path d="
  M 58.23 122.43
  L 62.19 122.17
  Q 62.73 122.14 62.72 121.60
  Q 62.57 111.24 64.15 101.07
  C 64.62 97.99 66.64 94.84 66.24 91.60
  Q 64.52 77.66 65.33 67.27
  C 66.44 53.06 77.80 42.89 91.93 44.85
  C 111.19 47.52 113.10 68.56 111.19 83.57
  Q 111.13 84.08 111.51 84.40
  C 124.95 95.86 124.48 112.40 130.21 126.63
  Q 135.22 139.07 142.81 153.72
  C 147.61 162.99 135.46 166.83 129.29 168.66
  C 125.67 169.74 122.60 171.95 117.99 171.74
  C 98.66 170.85 87.61 171.93 71.76 171.70
  Q 66.56 171.62 63.70 167.93
  Q 63.39 167.52 63.34 167.02
  C 63.11 164.39 62.20 161.92 62.23 159.40
  Q 62.35 150.33 62.57 141.26
  Q 62.58 140.67 62.00 140.61
  L 58.57 140.24
  Q 57.95 140.17 57.97 140.79
  Q 58.22 150.80 58.50 160.74
  Q 58.58 163.51 57.86 165.50
  Q 57.70 165.94 57.88 166.38
  C 59.88 171.24 46.42 173.66 45.72 164.64
  C 43.90 141.48 44.79 117.84 44.62 94.60
  Q 44.62 94.07 44.43 93.59
  L 43.70 91.75
  A 1.02 1.02 0.0 0 0 42.23 91.24
  C 38.20 93.61 43.16 96.31 40.32 100.36
  C 37.66 104.14 31.65 103.11 29.20 99.85
  Q 27.35 97.39 27.41 93.35
  C 27.52 85.53 32.80 79.16 40.90 78.54
  C 51.64 77.72 56.77 82.55 56.72 93.21
  C 56.68 102.26 57.75 110.81 57.76 121.99
  Q 57.76 122.46 58.23 122.43
  Z
  M 71.28 72.62
  C 69.05 85.55 76.37 102.51 92.48 98.13
  Q 92.96 98.00 92.97 97.51
  Q 93.24 84.65 92.35 71.82
  C 92.00 66.77 90.01 62.80 84.78 62.93
  Q 72.90 63.21 71.28 72.62
  Z
  M 50.63 119.12
  Q 50.36 141.69 51.44 164.24
  Q 51.47 164.91 52.17 165.36
  A 0.52 0.52 0.0 0 0 52.97 164.89
  Q 51.73 137.96 52.01 110.99
  C 52.04 108.17 51.24 104.93 51.37 102.07
  C 51.68 95.05 53.47 83.94 43.37 83.90
  C 36.40 83.88 31.94 88.58 33.13 95.57
  Q 33.36 96.94 34.85 97.19
  Q 35.47 97.30 35.40 96.67
  C 35.28 95.47 34.77 94.54 34.87 93.36
  C 35.69 84.06 49.09 82.87 49.58 91.66
  C 50.10 100.82 50.75 109.75 50.63 119.12
  Z
  M 77.49 118.73
  Q 77.20 118.82 77.10 119.04
  Q 76.91 119.44 77.35 119.34
  C 83.18 117.95 88.38 114.97 94.36 113.51
  A 0.54 0.54 0.0 0 0 94.72 112.75
  Q 93.00 109.09 92.98 105.04
  Q 92.98 104.65 92.59 104.63
  L 82.62 104.18
  Q 82.15 104.16 82.12 104.63
  Q 81.59 112.04 77.84 118.46
  Q 77.72 118.66 77.49 118.73
  Z
  M 108.66 142.63
  C 103.26 142.47 93.81 142.37 92.40 135.76
  C 90.70 127.80 99.12 125.31 104.53 123.17
  Q 105.13 122.94 104.99 122.31
  L 104.00 117.76
  A 0.82 0.81 75.7 0 0 102.98 117.15
  L 87.71 121.56
  A 0.63 0.62 -11.9 0 0 87.26 122.24
  Q 89.07 134.99 92.65 147.39
  Q 93.01 148.64 94.28 148.32
  Q 101.37 146.54 108.28 144.73
  C 109.34 144.45 110.09 143.69 108.93 142.74
  A 0.46 0.41 -19.4 0 0 108.66 142.63
  Z
  M 88.85 154.80
  C 82.83 155.57 79.36 155.41 77.79 149.00
  Q 74.01 133.55 72.91 124.70
  Q 72.85 124.18 72.48 124.56
  L 68.42 128.80
  Q 68.07 129.18 68.07 129.69
  Q 68.04 144.47 67.75 159.25
  C 67.72 160.91 68.16 162.57 68.46 164.11
  A 2.21 2.20 -5.5 0 0 70.64 165.90
  L 121.39 165.73
  Q 122.11 165.73 122.15 165.01
  Q 122.87 152.64 121.90 140.27
  Q 121.86 139.77 121.37 139.89
  L 115.42 141.47
  Q 114.92 141.60 114.98 142.12
  C 115.28 144.60 116.45 148.10 113.05 149.29
  Q 102.15 153.10 88.85 154.80
  Z
  M 78.60 125.93
  L 83.30 148.51
  Q 83.46 149.25 84.22 149.25
  L 86.42 149.25
  Q 87.11 149.25 86.92 148.58
  Q 83.54 136.80 82.02 124.64
  Q 81.94 123.98 81.31 124.18
  L 79.26 124.80
  Q 78.42 125.06 78.60 125.93
  Z
  M 57.71 133.95
  A 0.37 0.37 0.0 0 0 58.02 134.33
  L 61.82 134.90
  A 0.37 0.37 0.0 0 0 62.24 134.53
  L 62.26 128.05
  A 0.37 0.37 0.0 0 0 61.84 127.68
  L 58.15 128.22
  A 0.37 0.37 0.0 0 0 57.83 128.57
  L 57.71 133.95
  Z
  M 123.38 132.44
  C 123.72 127.50 117.70 128.41 114.72 129.72
  Q 114.26 129.92 114.26 130.42
  L 114.24 135.08
  Q 114.24 135.80 114.93 135.59
  L 122.75 133.23
  Q 123.34 133.05 123.38 132.44
  Z
  M 98.99 135.76
  L 105.61 136.86
  Q 106.27 136.97 106.76 136.50
  Q 110.10 133.30 107.75 129.01
  Q 107.53 128.61 107.08 128.68
  C 104.32 129.12 98.41 130.73 97.76 133.99
  A 1.50 1.50 0.0 0 0 98.99 135.76
  Z"
/>
<path d="
  M 42.38 45.44
  C 46.49 44.87 55.05 54.71 57.50 58.10
  C 58.92 60.08 58.61 61.47 57.32 63.33
  C 53.41 68.96 45.70 79.58 38.95 73.08
  Q 34.64 68.94 30.97 64.28
  C 28.93 61.68 29.29 59.38 31.23 57.00
  C 33.37 54.37 40.02 45.76 42.38 45.44
  Z
  M 39.50 65.54
  L 43.71 69.54
  Q 44.29 70.09 44.83 69.50
  L 52.20 61.33
  Q 52.66 60.81 52.19 60.31
  L 47.75 55.54
  L 43.91 51.76
  Q 43.44 51.30 43.01 51.79
  L 35.41 60.32
  Q 34.99 60.78 35.42 61.24
  L 39.50 65.54
  Z"
/>
<rect x="-2.59" y="-9.30" transform="translate(82.47,82.38) rotate(-0.5)" width="5.18" height="18.60" rx="2.42"/>
</g>
<g fill="#ebbc9e">
<path d="
  M 92.48 98.13
  C 76.37 102.51 69.05 85.55 71.28 72.62
  Q 72.90 63.21 84.78 62.93
  C 90.01 62.80 92.00 66.77 92.35 71.82
  Q 93.24 84.65 92.97 97.51
  Q 92.96 98.00 92.48 98.13
  Z
  M 84.9999 75.4777
  A 2.42 2.42 0.0 0 0 82.5588 73.0789
  L 82.2188 73.0818
  A 2.42 2.42 0.0 0 0 79.8201 75.5229
  L 79.9401 89.2823
  A 2.42 2.42 0.0 0 0 82.3812 91.6811
  L 82.7212 91.6782
  A 2.42 2.42 0.0 0 0 85.1199 89.2371
  L 84.9999 75.4777
  Z"
/>
<path d="
  M 57.71 133.95
  L 57.83 128.57
  A 0.37 0.37 0.0 0 1 58.15 128.22
  L 61.84 127.68
  A 0.37 0.37 0.0 0 1 62.26 128.05
  L 62.24 134.53
  A 0.37 0.37 0.0 0 1 61.82 134.90
  L 58.02 134.33
  A 0.37 0.37 0.0 0 1 57.71 133.95
  Z"
/>
<path d="
  M 98.99 135.76
  A 1.50 1.50 0.0 0 1 97.76 133.99
  C 98.41 130.73 104.32 129.12 107.08 128.68
  Q 107.53 128.61 107.75 129.01
  Q 110.10 133.30 106.76 136.50
  Q 106.27 136.97 105.61 136.86
  L 98.99 135.76
  Z"
/>
</g>
<g fill="#42685f">
<path d="
  M 47.75 55.54
  L 52.19 60.31
  Q 52.66 60.81 52.20 61.33
  L 44.83 69.50
  Q 44.29 70.09 43.71 69.54
  L 39.50 65.54
  L 47.75 55.54
  Z"
/>
<path d="
  M 77.84 118.46
  Q 81.59 112.04 82.12 104.63
  Q 82.15 104.16 82.62 104.18
  L 92.59 104.63
  Q 92.98 104.65 92.98 105.04
  Q 93.00 109.09 94.72 112.75
  A 0.54 0.54 0.0 0 1 94.36 113.51
  C 88.38 114.97 83.18 117.95 77.35 119.34
  Q 76.91 119.44 77.10 119.04
  Q 77.20 118.82 77.49 118.73
  Q 77.72 118.66 77.84 118.46
  Z"
/>
<path d="
  M 88.85 154.80
  Q 102.15 153.10 113.05 149.29
  C 116.45 148.10 115.28 144.60 114.98 142.12
  Q 114.92 141.60 115.42 141.47
  L 121.37 139.89
  Q 121.86 139.77 121.90 140.27
  Q 122.87 152.64 122.15 165.01
  Q 122.11 165.73 121.39 165.73
  L 70.64 165.90
  A 2.21 2.20 -5.5 0 1 68.46 164.11
  C 68.16 162.57 67.72 160.91 67.75 159.25
  Q 68.04 144.47 68.07 129.69
  Q 68.07 129.18 68.42 128.80
  L 72.48 124.56
  Q 72.85 124.18 72.91 124.70
  Q 74.01 133.55 77.79 149.00
  C 79.36 155.41 82.83 155.57 88.85 154.80
  Z"
/>
<path d="
  M 114.72 129.72
  C 117.70 128.41 123.72 127.50 123.38 132.44
  Q 123.34 133.05 122.75 133.23
  L 114.93 135.59
  Q 114.24 135.80 114.24 135.08
  L 114.26 130.42
  Q 114.26 129.92 114.72 129.72
  Z"
/>
</g>
<g fill="#6e423f">
<path d="
  M 50.63 119.12
  C 50.75 109.75 50.10 100.82 49.58 91.66
  C 49.09 82.87 35.69 84.06 34.87 93.36
  C 34.77 94.54 35.28 95.47 35.40 96.67
  Q 35.47 97.30 34.85 97.19
  Q 33.36 96.94 33.13 95.57
  C 31.94 88.58 36.40 83.88 43.37 83.90
  C 53.47 83.94 51.68 95.05 51.37 102.07
  C 51.24 104.93 52.04 108.17 52.01 110.99
  Q 51.73 137.96 52.97 164.89
  A 0.52 0.52 0.0 0 1 52.17 165.36
  Q 51.47 164.91 51.44 164.24
  Q 50.36 141.69 50.63 119.12
  Z"
/>
<path d="
  M 108.66 142.63
  A 0.46 0.41 -19.4 0 1 108.93 142.74
  C 110.09 143.69 109.34 144.45 108.28 144.73
  Q 101.37 146.54 94.28 148.32
  Q 93.01 148.64 92.65 147.39
  Q 89.07 134.99 87.26 122.24
  A 0.63 0.62 -11.9 0 1 87.71 121.56
  L 102.98 117.15
  A 0.82 0.81 75.7 0 1 104.00 117.76
  L 104.99 122.31
  Q 105.13 122.94 104.53 123.17
  C 99.12 125.31 90.70 127.80 92.40 135.76
  C 93.81 142.37 103.26 142.47 108.66 142.63
  Z"
/>
<path d="
  M 79.26 124.80
  L 81.31 124.18
  Q 81.94 123.98 82.02 124.64
  Q 83.54 136.80 86.92 148.58
  Q 87.11 149.25 86.42 149.25
  L 84.22 149.25
  Q 83.46 149.25 83.30 148.51
  L 78.60 125.93
  Q 78.42 125.06 79.26 124.80
  Z"
/>
</g>
<path fill="#759086" d="
  M 47.75 55.54
  L 39.50 65.54
  L 35.42 61.24
  Q 34.99 60.78 35.41 60.32
  L 43.01 51.79
  Q 43.44 51.30 43.91 51.76
  L 47.75 55.54
  Z"
/>
</svg>
