<?xml version="1.0" encoding="UTF-8" standalone="no"?>
<!DOCTYPE svg PUBLIC "-//W3C//DTD SVG 1.1//EN" "http://www.w3.org/Graphics/SVG/1.1/DTD/svg11.dtd">
<svg xmlns="http://www.w3.org/2000/svg" version="1.1" viewBox="0 0 180 180">
<g stroke-width="2.00" fill="none" stroke-linecap="butt">
<path stroke="#533d3e" vector-effect="non-scaling-stroke" d="
  M 104.62 63.33
  C 102.62 55.31 96.32 50.35 87.99 50.30
  C 78.56 50.24 74.71 55.69 71.51 63.49
  A 0.78 0.78 0.0 0 0 72.20 64.57
  Q 88.12 65.17 104.01 64.15
  A 0.67 0.66 -8.7 0 0 104.62 63.33"
/>
<path stroke="#927a6d" vector-effect="non-scaling-stroke" d="
  M 112.22 74.33
  Q 110.10 72.85 110.22 75.44
  C 110.67 85.19 98.64 88.61 97.04 77.47
  Q 96.41 73.10 96.20 71.09
  Q 96.17 70.73 95.81 70.72
  L 71.13 70.29
  Q 70.64 70.28 70.63 70.77
  C 70.48 79.68 70.43 86.99 75.74 92.99
  C 82.46 100.60 93.00 100.55 100.55 93.93
  C 103.51 91.33 100.69 86.84 107.01 87.04
  C 113.28 87.23 118.88 78.97 112.22 74.33"
/>
<path stroke="#533d3e" vector-effect="non-scaling-stroke" d="
  M 104.21 78.06
  L 104.60 70.54
  Q 104.63 69.93 104.03 69.97
  L 102.17 70.08
  Q 101.49 70.12 101.60 70.79
  L 102.81 78.14
  A 0.71 0.70 -48.2 0 0 104.21 78.06"
/>
<path stroke="#3d504e" vector-effect="non-scaling-stroke" d="
  M 122.85 78.53
  L 116.90 89.38
  Q 116.73 89.70 116.93 90.01
  L 119.69 94.32
  Q 119.92 94.69 120.36 94.65
  L 135.77 93.29
  Q 136.32 93.24 136.67 92.80
  Q 140.33 88.22 144.72 84.35
  Q 145.17 83.96 144.79 83.50
  L 142.04 80.25"
/>
<path stroke="#576461" vector-effect="non-scaling-stroke" d="
  M 142.04 80.25
  Q 139.48 76.31 135.52 73.78
  Q 135.10 73.51 134.59 73.50
  C 131.03 73.46 126.11 76.70 122.85 78.53"
/>
<path stroke="#5c7c73" vector-effect="non-scaling-stroke" d="
  M 142.04 80.25
  Q 141.41 81.36 140.25 81.79"
/>
<path stroke="#576461" vector-effect="non-scaling-stroke" d="
  M 140.25 81.79
  C 136.52 79.80 132.07 86.19 130.22 88.96"
/>
<path stroke="#5c7c73" vector-effect="non-scaling-stroke" d="
  M 130.22 88.96
  Q 124.37 85.55 122.85 78.53"
/>
<path stroke="#3d504e" vector-effect="non-scaling-stroke" d="
  M 130.22 88.96
  C 131.33 96.12 138.65 87.22 140.25 85.47
  Q 141.67 83.92 140.25 81.79"
/>
<path stroke="#98989a" vector-effect="non-scaling-stroke" d="
  M 67.35 90.07
  C 53.78 88.49 38.99 89.49 27.00 96.24
  Q 26.40 96.58 27.09 96.49
  Q 38.02 95.06 43.00 94.91
  Q 48.05 94.76 48.73 100.03
  Q 48.80 100.59 49.37 100.61
  L 54.23 100.81
  Q 54.85 100.83 54.86 100.22
  C 55.02 94.54 60.84 95.16 65.31 95.27
  Q 65.91 95.28 66.17 94.75
  L 67.94 91.16
  A 0.76 0.76 0.0 0 0 67.35 90.07"
/>
<path stroke="#533d3e" vector-effect="non-scaling-stroke" d="
  M 85.49 117.90
  C 79.64 114.44 76.59 107.07 75.26 100.68
  Q 75.15 100.18 74.76 99.84
  L 72.69 98.11
  A 1.40 1.40 0.0 0 0 70.42 98.93
  C 68.16 111.16 68.40 123.15 68.17 135.26
  A 0.85 0.85 0.0 0 0 68.98 136.12
  L 91.80 137.15
  A 0.62 0.62 0.0 0 0 92.42 136.34
  C 89.77 127.83 100.18 125.14 105.45 122.68
  Q 105.94 122.45 105.98 121.90
  C 106.14 119.43 103.95 116.16 107.74 115.06
  A 2.20 2.20 0.0 0 1 110.41 116.36
  Q 111.84 119.97 111.28 123.74
  Q 111.19 124.30 111.53 124.75
  Q 114.96 129.33 114.05 135.12
  Q 113.94 135.76 114.57 135.60
  L 121.07 133.93
  Q 121.62 133.78 121.67 133.22
  Q 121.90 130.87 121.60 127.43
  C 120.42 113.93 119.38 104.64 111.84 92.88
  Q 111.52 92.38 110.94 92.46
  L 108.50 92.80
  Q 107.97 92.87 107.73 93.35
  Q 104.48 99.84 97.87 102.83
  Q 97.39 103.04 97.20 103.53
  C 95.60 107.58 92.10 117.37 86.47 118.10
  Q 85.94 118.17 85.49 117.90"
/>
<path stroke="#927a6d" vector-effect="non-scaling-stroke" d="
  M 89.97 104.56
  C 87.40 104.94 84.63 104.32 82.12 103.68
  A 0.36 0.36 0.0 0 0 81.72 104.21
  L 85.58 111.25
  A 0.95 0.95 0.0 0 0 87.26 111.22
  L 90.34 105.07
  Q 90.64 104.46 89.97 104.56"
/>
<path stroke="#533d3e" vector-effect="non-scaling-stroke" d="
  M 148.33 106.06
  C 144.94 104.29 129.62 105.58 125.04 105.79
  A 0.58 0.58 0.0 0 0 124.53 106.58
  L 125.09 107.95
  Q 125.30 108.49 125.88 108.48
  C 128.10 108.45 149.12 108.40 148.48 106.25
  A 0.37 0.35 8.1 0 0 148.33 106.06"
/>
<path stroke="#533d3e" vector-effect="non-scaling-stroke" d="
  M 50.60 106.99
  C 51.44 124.47 51.36 135.64 51.13 146.34
  Q 51.11 147.00 51.77 147.00
  L 52.76 147.00
  Q 53.40 147.00 53.43 146.36
  Q 54.26 126.67 53.72 106.98
  Q 53.70 106.28 53.00 106.27
  L 51.33 106.24
  Q 50.56 106.23 50.60 106.99"
/>
<path stroke="#533d3e" vector-effect="non-scaling-stroke" d="
  M 137.52 114.60
  A 0.44 0.44 0.0 0 0 137.22 113.82
  L 126.74 114.31
  A 0.44 0.44 0.0 0 0 126.33 114.79
  L 127.08 122.35
  A 0.44 0.44 0.0 0 0 127.80 122.64
  L 137.52 114.60"
/>
<path stroke="#533d3e" vector-effect="non-scaling-stroke" d="
  M 127.70 129.62
  L 127.77 137.01
  Q 127.78 137.67 128.32 137.30
  Q 137.58 131.13 145.42 123.23
  Q 145.86 122.80 145.82 122.18
  L 145.49 116.05
  A 0.53 0.53 0.0 0 0 144.58 115.70
  Q 137.15 123.17 128.19 128.72
  Q 127.69 129.03 127.70 129.62"
/>
<path stroke="#927a6d" vector-effect="non-scaling-stroke" d="
  M 62.3086 128.0770
  A 0.26 0.26 0.0 0 0 62.0518 127.8138
  L 59.8320 127.7867
  A 0.26 0.26 0.0 0 0 59.5688 128.0435
  L 59.4914 134.3830
  A 0.26 0.26 0.0 0 0 59.7482 134.6462
  L 61.9680 134.6733
  A 0.26 0.26 0.0 0 0 62.2312 134.4165
  L 62.3086 128.0770"
/>
<path stroke="#927a6d" vector-effect="non-scaling-stroke" d="
  M 98.89 135.73
  L 105.76 136.88
  Q 106.33 136.97 106.73 136.56
  Q 109.93 133.35 107.80 129.04
  Q 107.59 128.63 107.14 128.69
  C 104.34 129.09 98.32 130.73 97.73 134.10
  A 1.41 1.40 9.7 0 0 98.89 135.73"
/>
<path stroke="#533d3e" vector-effect="non-scaling-stroke" d="
  M 128.14 144.68
  L 128.29 146.59
  Q 128.34 147.17 128.92 147.20
  C 134.38 147.46 144.16 147.49 145.48 140.24
  Q 146.30 135.79 145.92 131.21
  A 0.29 0.29 0.0 0 0 145.44 131.02
  Q 137.62 138.13 128.63 143.72
  Q 128.10 144.06 128.14 144.68"
/>
<path stroke="#533d3e" vector-effect="non-scaling-stroke" d="
  M 86.04 153.91
  C 88.63 147.11 97.88 147.07 102.37 150.55
  C 106.36 153.63 107.32 158.47 106.63 163.28
  A 2.09 2.08 4.2 0 0 108.69 165.66
  L 121.56 165.70
  Q 122.38 165.70 122.38 164.88
  L 122.32 142.79
  A 0.81 0.80 87.4 0 0 121.45 141.99
  C 103.90 143.26 86.02 143.07 68.76 141.82
  A 0.52 0.51 2.1 0 0 68.20 142.33
  C 68.13 149.35 66.76 157.93 68.59 164.38
  A 2.34 2.33 81.3 0 0 70.88 166.07
  L 84.65 165.70
  A 0.88 0.87 89.3 0 0 85.50 164.82
  C 85.50 161.66 84.94 156.82 86.04 153.91"
/>
<path stroke="#927a6d" vector-effect="non-scaling-stroke" d="
  M 84.97 75.50
  A 2.47 2.47 0.0 0 0 82.50 73.03
  L 82.32 73.03
  A 2.47 2.47 0.0 0 0 79.85 75.50
  L 79.85 89.22
  A 2.47 2.47 0.0 0 0 82.32 91.69
  L 82.50 91.69
  A 2.47 2.47 0.0 0 0 84.97 89.22
  L 84.97 75.50"
/>
</g>
<g fill="#38383c">
<path d="
  M 111.22 68.38
  Q 116.60 69.20 119.37 73.84
  Q 119.63 74.28 120.07 74.01
  C 125.89 70.41 133.09 64.68 140.33 70.36
  C 149.39 77.46 155.69 88.50 153.80 100.44
  C 153.13 104.69 155.99 109.54 151.07 112.20
  Q 150.63 112.44 150.69 112.93
  Q 151.98 124.87 151.30 139.05
  C 150.81 149.27 141.10 153.54 131.99 152.97
  Q 130.36 152.87 128.74 153.06
  Q 128.13 153.13 128.16 153.73
  C 128.43 160.14 130.01 170.50 122.52 171.34
  C 116.55 172.00 101.73 173.10 101.39 165.30
  C 101.16 159.92 101.21 151.88 92.92 154.24
  A 2.50 2.50 0.0 0 0 91.11 156.79
  C 91.50 162.86 92.80 171.62 83.81 171.74
  C 79.40 171.80 69.01 173.12 64.75 169.06
  C 60.78 165.29 62.43 146.93 62.51 141.37
  Q 62.52 140.76 61.92 140.66
  L 60.19 140.38
  Q 59.62 140.28 59.57 140.86
  C 59.13 145.97 60.21 152.74 52.66 152.73
  C 48.50 152.72 45.53 149.99 45.59 145.69
  Q 45.88 126.28 45.41 106.87
  C 45.35 104.35 44.25 103.40 43.36 101.17
  Q 43.17 100.69 42.65 100.69
  Q 31.04 100.78 19.94 103.91
  C 17.92 104.48 16.38 103.99 15.84 101.91
  C 14.95 98.50 20.25 94.20 22.83 92.60
  C 36.25 84.33 49.85 83.61 65.26 84.16
  Q 65.78 84.18 65.74 83.66
  C 64.93 74.68 64.33 63.29 69.52 55.21
  C 81.80 36.11 110.90 44.06 110.70 67.77
  Q 110.70 68.30 111.22 68.38
  Z
  M 104.62 63.33
  C 102.62 55.31 96.32 50.35 87.99 50.30
  C 78.56 50.24 74.71 55.69 71.51 63.49
  A 0.78 0.78 0.0 0 0 72.20 64.57
  Q 88.12 65.17 104.01 64.15
  A 0.67 0.66 -8.7 0 0 104.62 63.33
  Z
  M 112.22 74.33
  Q 110.10 72.85 110.22 75.44
  C 110.67 85.19 98.64 88.61 97.04 77.47
  Q 96.41 73.10 96.20 71.09
  Q 96.17 70.73 95.81 70.72
  L 71.13 70.29
  Q 70.64 70.28 70.63 70.77
  C 70.48 79.68 70.43 86.99 75.74 92.99
  C 82.46 100.60 93.00 100.55 100.55 93.93
  C 103.51 91.33 100.69 86.84 107.01 87.04
  C 113.28 87.23 118.88 78.97 112.22 74.33
  Z
  M 104.21 78.06
  L 104.60 70.54
  Q 104.63 69.93 104.03 69.97
  L 102.17 70.08
  Q 101.49 70.12 101.60 70.79
  L 102.81 78.14
  A 0.71 0.70 -48.2 0 0 104.21 78.06
  Z
  M 122.85 78.53
  L 116.90 89.38
  Q 116.73 89.70 116.93 90.01
  L 119.69 94.32
  Q 119.92 94.69 120.36 94.65
  L 135.77 93.29
  Q 136.32 93.24 136.67 92.80
  Q 140.33 88.22 144.72 84.35
  Q 145.17 83.96 144.79 83.50
  L 142.04 80.25
  Q 139.48 76.31 135.52 73.78
  Q 135.10 73.51 134.59 73.50
  C 131.03 73.46 126.11 76.70 122.85 78.53
  Z
  M 67.35 90.07
  C 53.78 88.49 38.99 89.49 27.00 96.24
  Q 26.40 96.58 27.09 96.49
  Q 38.02 95.06 43.00 94.91
  Q 48.05 94.76 48.73 100.03
  Q 48.80 100.59 49.37 100.61
  L 54.23 100.81
  Q 54.85 100.83 54.86 100.22
  C 55.02 94.54 60.84 95.16 65.31 95.27
  Q 65.91 95.28 66.17 94.75
  L 67.94 91.16
  A 0.76 0.76 0.0 0 0 67.35 90.07
  Z
  M 85.49 117.90
  C 79.64 114.44 76.59 107.07 75.26 100.68
  Q 75.15 100.18 74.76 99.84
  L 72.69 98.11
  A 1.40 1.40 0.0 0 0 70.42 98.93
  C 68.16 111.16 68.40 123.15 68.17 135.26
  A 0.85 0.85 0.0 0 0 68.98 136.12
  L 91.80 137.15
  A 0.62 0.62 0.0 0 0 92.42 136.34
  C 89.77 127.83 100.18 125.14 105.45 122.68
  Q 105.94 122.45 105.98 121.90
  C 106.14 119.43 103.95 116.16 107.74 115.06
  A 2.20 2.20 0.0 0 1 110.41 116.36
  Q 111.84 119.97 111.28 123.74
  Q 111.19 124.30 111.53 124.75
  Q 114.96 129.33 114.05 135.12
  Q 113.94 135.76 114.57 135.60
  L 121.07 133.93
  Q 121.62 133.78 121.67 133.22
  Q 121.90 130.87 121.60 127.43
  C 120.42 113.93 119.38 104.64 111.84 92.88
  Q 111.52 92.38 110.94 92.46
  L 108.50 92.80
  Q 107.97 92.87 107.73 93.35
  Q 104.48 99.84 97.87 102.83
  Q 97.39 103.04 97.20 103.53
  C 95.60 107.58 92.10 117.37 86.47 118.10
  Q 85.94 118.17 85.49 117.90
  Z
  M 62.17 100.59
  C 59.95 99.71 59.02 105.82 59.14 107.32
  Q 59.69 114.49 59.46 121.70
  Q 59.44 122.25 60.00 122.25
  L 62.01 122.25
  A 0.75 0.75 0.0 0 0 62.76 121.48
  Q 62.47 111.33 64.16 101.31
  Q 64.26 100.75 63.69 100.75
  L 63.01 100.75
  Q 62.58 100.75 62.17 100.59
  Z
  M 89.97 104.56
  C 87.40 104.94 84.63 104.32 82.12 103.68
  A 0.36 0.36 0.0 0 0 81.72 104.21
  L 85.58 111.25
  A 0.95 0.95 0.0 0 0 87.26 111.22
  L 90.34 105.07
  Q 90.64 104.46 89.97 104.56
  Z
  M 148.33 106.06
  C 144.94 104.29 129.62 105.58 125.04 105.79
  A 0.58 0.58 0.0 0 0 124.53 106.58
  L 125.09 107.95
  Q 125.30 108.49 125.88 108.48
  C 128.10 108.45 149.12 108.40 148.48 106.25
  A 0.37 0.35 8.1 0 0 148.33 106.06
  Z
  M 50.60 106.99
  C 51.44 124.47 51.36 135.64 51.13 146.34
  Q 51.11 147.00 51.77 147.00
  L 52.76 147.00
  Q 53.40 147.00 53.43 146.36
  Q 54.26 126.67 53.72 106.98
  Q 53.70 106.28 53.00 106.27
  L 51.33 106.24
  Q 50.56 106.23 50.60 106.99
  Z
  M 137.52 114.60
  A 0.44 0.44 0.0 0 0 137.22 113.82
  L 126.74 114.31
  A 0.44 0.44 0.0 0 0 126.33 114.79
  L 127.08 122.35
  A 0.44 0.44 0.0 0 0 127.80 122.64
  L 137.52 114.60
  Z
  M 127.70 129.62
  L 127.77 137.01
  Q 127.78 137.67 128.32 137.30
  Q 137.58 131.13 145.42 123.23
  Q 145.86 122.80 145.82 122.18
  L 145.49 116.05
  A 0.53 0.53 0.0 0 0 144.58 115.70
  Q 137.15 123.17 128.19 128.72
  Q 127.69 129.03 127.70 129.62
  Z
  M 62.3086 128.0770
  A 0.26 0.26 0.0 0 0 62.0518 127.8138
  L 59.8320 127.7867
  A 0.26 0.26 0.0 0 0 59.5688 128.0435
  L 59.4914 134.3830
  A 0.26 0.26 0.0 0 0 59.7482 134.6462
  L 61.9680 134.6733
  A 0.26 0.26 0.0 0 0 62.2312 134.4165
  L 62.3086 128.0770
  Z
  M 98.89 135.73
  L 105.76 136.88
  Q 106.33 136.97 106.73 136.56
  Q 109.93 133.35 107.80 129.04
  Q 107.59 128.63 107.14 128.69
  C 104.34 129.09 98.32 130.73 97.73 134.10
  A 1.41 1.40 9.7 0 0 98.89 135.73
  Z
  M 128.14 144.68
  L 128.29 146.59
  Q 128.34 147.17 128.92 147.20
  C 134.38 147.46 144.16 147.49 145.48 140.24
  Q 146.30 135.79 145.92 131.21
  A 0.29 0.29 0.0 0 0 145.44 131.02
  Q 137.62 138.13 128.63 143.72
  Q 128.10 144.06 128.14 144.68
  Z
  M 86.04 153.91
  C 88.63 147.11 97.88 147.07 102.37 150.55
  C 106.36 153.63 107.32 158.47 106.63 163.28
  A 2.09 2.08 4.2 0 0 108.69 165.66
  L 121.56 165.70
  Q 122.38 165.70 122.38 164.88
  L 122.32 142.79
  A 0.81 0.80 87.4 0 0 121.45 141.99
  C 103.90 143.26 86.02 143.07 68.76 141.82
  A 0.52 0.51 2.1 0 0 68.20 142.33
  C 68.13 149.35 66.76 157.93 68.59 164.38
  A 2.34 2.33 81.3 0 0 70.88 166.07
  L 84.65 165.70
  A 0.88 0.87 89.3 0 0 85.50 164.82
  C 85.50 161.66 84.94 156.82 86.04 153.91
  Z"
/>
<rect x="79.85" y="73.03" width="5.12" height="18.66" rx="2.47"/>
<path d="
  M 140.25 81.79
  Q 141.67 83.92 140.25 85.47
  C 138.65 87.22 131.33 96.12 130.22 88.96
  C 132.07 86.19 136.52 79.80 140.25 81.79
  Z"
/>
</g>
<g fill="#ebbc9e">
<path d="
  M 112.22 74.33
  C 118.88 78.97 113.28 87.23 107.01 87.04
  C 100.69 86.84 103.51 91.33 100.55 93.93
  C 93.00 100.55 82.46 100.60 75.74 92.99
  C 70.43 86.99 70.48 79.68 70.63 70.77
  Q 70.64 70.28 71.13 70.29
  L 95.81 70.72
  Q 96.17 70.73 96.20 71.09
  Q 96.41 73.10 97.04 77.47
  C 98.64 88.61 110.67 85.19 110.22 75.44
  Q 110.10 72.85 112.22 74.33
  Z
  M 84.97 75.50
  A 2.47 2.47 0.0 0 0 82.50 73.03
  L 82.32 73.03
  A 2.47 2.47 0.0 0 0 79.85 75.50
  L 79.85 89.22
  A 2.47 2.47 0.0 0 0 82.32 91.69
  L 82.50 91.69
  A 2.47 2.47 0.0 0 0 84.97 89.22
  L 84.97 75.50
  Z"
/>
<path d="
  M 82.12 103.68
  C 84.63 104.32 87.40 104.94 89.97 104.56
  Q 90.64 104.46 90.34 105.07
  L 87.26 111.22
  A 0.95 0.95 0.0 0 1 85.58 111.25
  L 81.72 104.21
  A 0.36 0.36 0.0 0 1 82.12 103.68
  Z"
/>
<rect x="-1.37" y="-3.43" transform="translate(60.90,131.23) rotate(0.7)" width="2.74" height="6.86" rx="0.26"/>
<path d="
  M 98.89 135.73
  A 1.41 1.40 9.7 0 1 97.73 134.10
  C 98.32 130.73 104.34 129.09 107.14 128.69
  Q 107.59 128.63 107.80 129.04
  Q 109.93 133.35 106.73 136.56
  Q 106.33 136.97 105.76 136.88
  L 98.89 135.73
  Z"
/>
</g>
<g fill="#6e423f">
<path d="
  M 87.99 50.30
  C 96.32 50.35 102.62 55.31 104.62 63.33
  A 0.67 0.66 -8.7 0 1 104.01 64.15
  Q 88.12 65.17 72.20 64.57
  A 0.78 0.78 0.0 0 1 71.51 63.49
  C 74.71 55.69 78.56 50.24 87.99 50.30
  Z"
/>
<path d="
  M 104.21 78.06
  A 0.71 0.70 -48.2 0 1 102.81 78.14
  L 101.60 70.79
  Q 101.49 70.12 102.17 70.08
  L 104.03 69.97
  Q 104.63 69.93 104.60 70.54
  L 104.21 78.06
  Z"
/>
<path d="
  M 75.26 100.68
  C 76.59 107.07 79.64 114.44 85.49 117.90
  Q 85.94 118.17 86.47 118.10
  C 92.10 117.37 95.60 107.58 97.20 103.53
  Q 97.39 103.04 97.87 102.83
  Q 104.48 99.84 107.73 93.35
  Q 107.97 92.87 108.50 92.80
  L 110.94 92.46
  Q 111.52 92.38 111.84 92.88
  C 119.38 104.64 120.42 113.93 121.60 127.43
  Q 121.90 130.87 121.67 133.22
  Q 121.62 133.78 121.07 133.93
  L 114.57 135.60
  Q 113.94 135.76 114.05 135.12
  Q 114.96 129.33 111.53 124.75
  Q 111.19 124.30 111.28 123.74
  Q 111.84 119.97 110.41 116.36
  A 2.20 2.20 0.0 0 0 107.74 115.06
  C 103.95 116.16 106.14 119.43 105.98 121.90
  Q 105.94 122.45 105.45 122.68
  C 100.18 125.14 89.77 127.83 92.42 136.34
  A 0.62 0.62 0.0 0 1 91.80 137.15
  L 68.98 136.12
  A 0.85 0.85 0.0 0 1 68.17 135.26
  C 68.40 123.15 68.16 111.16 70.42 98.93
  A 1.40 1.40 0.0 0 1 72.69 98.11
  L 74.76 99.84
  Q 75.15 100.18 75.26 100.68
  Z"
/>
<path d="
  M 148.33 106.06
  A 0.37 0.35 8.1 0 1 148.48 106.25
  C 149.12 108.40 128.10 108.45 125.88 108.48
  Q 125.30 108.49 125.09 107.95
  L 124.53 106.58
  A 0.58 0.58 0.0 0 1 125.04 105.79
  C 129.62 105.58 144.94 104.29 148.33 106.06
  Z"
/>
<path d="
  M 51.13 146.34
  C 51.36 135.64 51.44 124.47 50.60 106.99
  Q 50.56 106.23 51.33 106.24
  L 53.00 106.27
  Q 53.70 106.28 53.72 106.98
  Q 54.26 126.67 53.43 146.36
  Q 53.40 147.00 52.76 147.00
  L 51.77 147.00
  Q 51.11 147.00 51.13 146.34
  Z"
/>
<path d="
  M 137.52 114.60
  L 127.80 122.64
  A 0.44 0.44 0.0 0 1 127.08 122.35
  L 126.33 114.79
  A 0.44 0.44 0.0 0 1 126.74 114.31
  L 137.22 113.82
  A 0.44 0.44 0.0 0 1 137.52 114.60
  Z"
/>
<path d="
  M 127.70 129.62
  Q 127.69 129.03 128.19 128.72
  Q 137.15 123.17 144.58 115.70
  A 0.53 0.53 0.0 0 1 145.49 116.05
  L 145.82 122.18
  Q 145.86 122.80 145.42 123.23
  Q 137.58 131.13 128.32 137.30
  Q 127.78 137.67 127.77 137.01
  L 127.70 129.62
  Z"
/>
<path d="
  M 128.63 143.72
  Q 137.62 138.13 145.44 131.02
  A 0.29 0.29 0.0 0 1 145.92 131.21
  Q 146.30 135.79 145.48 140.24
  C 144.16 147.49 134.38 147.46 128.92 147.20
  Q 128.34 147.17 128.29 146.59
  L 128.14 144.68
  Q 128.10 144.06 128.63 143.72
  Z"
/>
<path d="
  M 102.37 150.55
  C 97.88 147.07 88.63 147.11 86.04 153.91
  C 84.94 156.82 85.50 161.66 85.50 164.82
  A 0.88 0.87 89.3 0 1 84.65 165.70
  L 70.88 166.07
  A 2.34 2.33 81.3 0 1 68.59 164.38
  C 66.76 157.93 68.13 149.35 68.20 142.33
  A 0.52 0.51 2.1 0 1 68.76 141.82
  C 86.02 143.07 103.90 143.26 121.45 141.99
  A 0.81 0.80 87.4 0 1 122.32 142.79
  L 122.38 164.88
  Q 122.38 165.70 121.56 165.70
  L 108.69 165.66
  A 2.09 2.08 4.2 0 1 106.63 163.28
  C 107.32 158.47 106.36 153.63 102.37 150.55
  Z"
/>
</g>
<path fill="#759086" d="
  M 142.04 80.25
  Q 141.41 81.36 140.25 81.79
  C 136.52 79.80 132.07 86.19 130.22 88.96
  Q 124.37 85.55 122.85 78.53
  C 126.11 76.70 131.03 73.46 134.59 73.50
  Q 135.10 73.51 135.52 73.78
  Q 139.48 76.31 142.04 80.25
  Z"
/>
<path fill="#f8f8f8" d="
  M 67.35 90.07
  A 0.76 0.76 0.0 0 1 67.94 91.16
  L 66.17 94.75
  Q 65.91 95.28 65.31 95.27
  C 60.84 95.16 55.02 94.54 54.86 100.22
  Q 54.85 100.83 54.23 100.81
  L 49.37 100.61
  Q 48.80 100.59 48.73 100.03
  Q 48.05 94.76 43.00 94.91
  Q 38.02 95.06 27.09 96.49
  Q 26.40 96.58 27.00 96.24
  C 38.99 89.49 53.78 88.49 67.35 90.07
  Z"
/>
<path fill="#42685f" d="
  M 122.85 78.53
  Q 124.37 85.55 130.22 88.96
  C 131.33 96.12 138.65 87.22 140.25 85.47
  Q 141.67 83.92 140.25 81.79
  Q 141.41 81.36 142.04 80.25
  L 144.79 83.50
  Q 145.17 83.96 144.72 84.35
  Q 140.33 88.22 136.67 92.80
  Q 136.32 93.24 135.77 93.29
  L 120.36 94.65
  Q 119.92 94.69 119.69 94.32
  L 116.93 90.01
  Q 116.73 89.70 116.90 89.38
  L 122.85 78.53
  Z"
/>
</svg>
