<?xml version="1.0" encoding="UTF-8" standalone="no"?>
<!DOCTYPE svg PUBLIC "-//W3C//DTD SVG 1.1//EN" "http://www.w3.org/Graphics/SVG/1.1/DTD/svg11.dtd">
<svg xmlns="http://www.w3.org/2000/svg" version="1.1" viewBox="0 0 180 180">
<g stroke-width="2.00" fill="none" stroke-linecap="butt">
<path stroke="#9c904d" vector-effect="non-scaling-stroke" d="
  M 117.92 68.31
  C 117.19 65.02 112.11 65.27 116.29 60.76
  Q 119.31 57.50 116.58 53.19
  C 114.01 49.14 109.54 52.55 108.26 48.24
  Q 108.10 47.72 108.34 47.23
  C 113.22 37.21 98.77 36.19 95.20 45.31
  Q 94.96 45.92 95.59 46.08
  C 109.50 49.53 112.09 64.05 112.20 76.04
  A 0.97 0.96 89.7 0 0 113.16 77.00
  C 117.99 76.98 118.72 71.93 117.92 68.31"
/>
<path stroke="#98989a" vector-effect="non-scaling-stroke" d="
  M 88.60 81.41
  A 0.58 0.58 0.0 0 0 88.04 81.98
  L 87.64 95.57
  Q 87.63 96.06 88.12 96.06
  L 105.50 95.87
  Q 106.01 95.86 106.02 95.36
  C 106.23 84.65 110.53 52.78 92.99 51.28
  Q 75.61 49.79 72.89 67.12
  Q 72.81 67.61 73.30 67.69
  C 80.08 68.89 86.88 68.43 93.71 68.30
  C 97.55 68.24 100.54 68.65 100.37 73.19
  C 99.99 82.89 96.33 81.11 88.60 81.41"
/>
<path stroke="#98989a" vector-effect="non-scaling-stroke" d="
  M 64.74 80.25
  L 37.67 80.55
  A 0.53 0.53 0.0 0 0 37.15 81.09
  L 37.55 100.43
  Q 37.56 101.05 38.18 101.05
  L 63.38 100.90
  Q 63.86 100.89 64.03 100.45
  C 66.08 95.29 64.92 86.55 65.27 80.81
  A 0.52 0.52 0.0 0 0 64.74 80.25"
/>
<path stroke="#98989a" vector-effect="non-scaling-stroke" d="
  M 78.08 81.78
  A 0.34 0.34 0.0 0 0 77.81 81.44
  L 71.75 80.20
  A 0.34 0.34 0.0 0 0 71.34 80.53
  L 71.01 95.40
  A 0.34 0.34 0.0 0 0 71.35 95.75
  L 77.41 95.75
  A 0.34 0.34 0.0 0 0 77.75 95.42
  L 78.08 81.78"
/>
<path stroke="#9c904d" vector-effect="non-scaling-stroke" d="
  M 121.82 96.53
  Q 120.59 95.54 120.94 97.08
  C 121.51 99.56 122.81 101.66 125.15 103.21
  C 129.54 106.13 131.28 109.56 133.49 113.69
  Q 134.52 115.62 133.81 113.55
  Q 130.29 103.29 121.82 96.53"
/>
<path stroke="#9c904d" vector-effect="non-scaling-stroke" d="
  M 89.12 109.62
  L 79.58 101.61
  Q 79.18 101.27 78.66 101.27
  L 70.42 101.24
  A 0.56 0.56 0.0 0 0 70.10 102.27
  L 86.58 113.42
  Q 87.05 113.74 87.36 113.27
  L 89.24 110.44
  A 0.62 0.62 0.0 0 0 89.12 109.62"
/>
<path stroke="#98989a" vector-effect="non-scaling-stroke" d="
  M 123.43 108.73
  C 111.00 101.58 98.21 104.41 91.62 117.00
  C 88.18 123.58 87.25 133.24 91.74 139.98
  Q 92.01 140.39 92.37 140.06
  Q 106.15 127.49 120.01 115.00
  Q 122.49 112.76 123.86 111.08
  Q 125.03 109.65 123.43 108.73"
/>
<path stroke="#9c904d" vector-effect="non-scaling-stroke" d="
  M 51.01 107.44
  C 51.08 120.35 49.98 133.37 50.00 146.36
  C 50.00 148.27 51.00 149.01 52.87 148.27
  Q 53.38 148.07 53.54 147.55
  Q 53.96 146.26 53.97 144.50
  Q 54.04 125.87 53.99 107.25
  Q 53.99 106.75 53.48 106.75
  L 51.69 106.75
  Q 51.00 106.75 51.01 107.44"
/>
<path stroke="#98989a" vector-effect="non-scaling-stroke" d="
  M 76.74 113.77
  A 0.30 0.30 0.0 0 0 76.70 113.30
  L 69.18 108.26
  A 0.30 0.30 0.0 0 0 68.71 108.49
  L 68.12 121.21
  A 0.30 0.30 0.0 0 0 68.62 121.44
  L 76.74 113.77"
/>
<path stroke="#98989a" vector-effect="non-scaling-stroke" d="
  M 96.11 144.89
  C 103.93 150.09 118.91 151.75 126.14 144.68
  C 133.45 137.53 131.37 123.92 128.33 115.58
  Q 128.16 115.12 127.79 115.45
  L 96.05 144.13
  A 0.48 0.48 0.0 0 0 96.11 144.89"
/>
<path stroke="#9c904d" vector-effect="non-scaling-stroke" d="
  M 84.06 118.88
  L 82.00 117.12
  Q 81.50 116.69 81.03 117.15
  L 68.40 129.36
  Q 67.71 130.02 68.65 130.15
  C 71.83 130.60 74.18 130.70 76.82 128.46
  C 79.65 126.06 84.19 123.86 84.38 119.63
  Q 84.40 119.18 84.06 118.88"
/>
<path stroke="#9c904d" vector-effect="non-scaling-stroke" d="
  M 62.5000 128.4644
  A 0.71 0.71 0.0 0 0 61.7875 127.7569
  L 59.9875 127.7632
  A 0.71 0.71 0.0 0 0 59.2800 128.4756
  L 59.3000 134.1956
  A 0.71 0.71 0.0 0 0 60.0125 134.9031
  L 61.8125 134.8968
  A 0.71 0.71 0.0 0 0 62.5200 134.1844
  L 62.5000 128.4644"
/>
<path stroke="#9c904d" vector-effect="non-scaling-stroke" d="
  M 128.51 162.17
  L 136.46 162.74
  Q 137.09 162.78 137.13 162.15
  C 137.69 152.68 137.23 143.25 137.23 133.76
  Q 137.23 133.60 137.12 133.49
  Q 137.02 133.39 136.91 133.28
  Q 136.55 132.90 136.52 133.42
  C 136.16 141.03 133.95 144.64 128.70 149.95
  Q 128.35 150.31 128.33 150.81
  L 128.04 161.58
  Q 128.02 162.13 128.51 162.17"
/>
<path stroke="#9c904d" vector-effect="non-scaling-stroke" d="
  M 83.77 135.94
  A 0.39 0.39 0.0 0 0 83.41 135.68
  L 68.39 135.77
  A 0.39 0.39 0.0 0 0 68.00 136.16
  L 68.00 139.43
  A 0.39 0.39 0.0 0 0 68.40 139.82
  L 84.57 139.58
  A 0.39 0.39 0.0 0 0 84.93 139.05
  L 83.77 135.94"
/>
<path stroke="#98989a" vector-effect="non-scaling-stroke" d="
  M 87.75 145.25
  L 68.75 145.25
  Q 68.24 145.25 68.19 145.76
  Q 67.20 155.15 68.19 164.52
  A 1.74 1.73 86.7 0 0 69.92 166.07
  L 84.39 165.99
  A 1.12 1.12 0.0 0 0 85.50 164.86
  C 85.48 158.67 84.14 151.80 91.42 148.97
  Q 91.91 148.78 91.54 148.42
  L 88.81 145.69
  Q 88.38 145.25 87.75 145.25"
/>
<path stroke="#98989a" vector-effect="non-scaling-stroke" d="
  M 122.30 153.64
  C 116.52 155.70 111.95 154.83 106.04 154.58
  Q 105.54 154.56 105.73 155.03
  Q 107.09 158.44 106.81 162.13
  C 106.66 164.05 106.82 165.62 109.05 165.67
  C 110.73 165.70 123.14 166.93 122.25 163.95
  Q 122.13 163.56 122.16 163.15
  L 122.85 154.06
  Q 122.90 153.42 122.30 153.64"
/>
<path stroke="#9c904d" vector-effect="non-scaling-stroke" d="
  M 96.52 153.96
  Q 93.74 153.31 91.38 155.42
  Q 91.00 155.75 91.00 156.26
  L 91.00 162.52
  Q 91.00 163.22 91.70 163.23
  L 100.47 163.26
  Q 101.04 163.26 101.12 162.70
  C 101.63 159.00 100.57 154.92 96.52 153.96"
/>
<path stroke="#98989a" vector-effect="non-scaling-stroke" d="
  M 116.46 110.96
  A 2.47 2.47 0.0 0 0 113.99 108.49
  A 2.47 2.47 0.0 0 0 111.52 110.96
  A 2.47 2.47 0.0 0 0 113.99 113.43
  A 2.47 2.47 0.0 0 0 116.46 110.96"
/>
<path stroke="#98989a" vector-effect="non-scaling-stroke" d="
  M 101.81 114.81
  A 2.47 2.47 0.0 0 0 99.34 112.34
  A 2.47 2.47 0.0 0 0 96.87 114.81
  A 2.47 2.47 0.0 0 0 99.34 117.28
  A 2.47 2.47 0.0 0 0 101.81 114.81"
/>
<path stroke="#98989a" vector-effect="non-scaling-stroke" d="
  M 96.00 129.05
  A 2.52 2.52 0.0 0 0 93.48 126.53
  A 2.52 2.52 0.0 0 0 90.96 129.05
  A 2.52 2.52 0.0 0 0 93.48 131.57
  A 2.52 2.52 0.0 0 0 96.00 129.05"
/>
<path stroke="#98989a" vector-effect="non-scaling-stroke" d="
  M 128.42 127.14
  A 2.47 2.47 0.0 0 0 125.95 124.67
  A 2.47 2.47 0.0 0 0 123.48 127.14
  A 2.47 2.47 0.0 0 0 125.95 129.61
  A 2.47 2.47 0.0 0 0 128.42 127.14"
/>
<path stroke="#98989a" vector-effect="non-scaling-stroke" d="
  M 124.50 141.38
  A 2.47 2.47 0.0 0 0 122.03 138.91
  A 2.47 2.47 0.0 0 0 119.56 141.38
  A 2.47 2.47 0.0 0 0 122.03 143.85
  A 2.47 2.47 0.0 0 0 124.50 141.38"
/>
<path stroke="#98989a" vector-effect="non-scaling-stroke" d="
  M 108.94 143.79
  A 2.46 2.46 0.0 0 0 106.48 141.33
  A 2.46 2.46 0.0 0 0 104.02 143.79
  A 2.46 2.46 0.0 0 0 106.48 146.25
  A 2.46 2.46 0.0 0 0 108.94 143.79"
/>
</g>
<g fill="#38383c">
<path d="
  M 112.03 83.18
  Q 112.08 86.16 114.55 87.02
  C 131.36 92.86 139.26 105.51 141.27 122.70
  C 142.92 136.70 144.09 151.04 142.60 165.11
  Q 142.55 165.58 142.26 165.96
  C 139.39 169.73 132.23 168.05 128.09 167.72
  Q 127.57 167.68 127.32 168.14
  C 125.57 171.41 122.89 171.32 119.07 171.43
  C 114.65 171.55 107.06 172.39 102.99 169.09
  Q 102.60 168.78 102.11 168.78
  L 91.11 168.69
  Q 90.61 168.69 90.25 169.02
  Q 87.65 171.43 83.93 171.59
  C 77.56 171.85 65.03 174.13 63.05 165.39
  C 61.23 157.33 62.59 149.38 62.50 141.33
  Q 62.50 140.69 61.86 140.63
  L 60.12 140.46
  Q 59.64 140.41 59.58 140.90
  C 59.28 143.74 59.55 147.24 58.76 149.60
  C 56.58 156.17 45.84 155.14 44.54 148.70
  Q 44.37 147.84 44.53 141.13
  Q 44.94 124.40 45.78 107.37
  A 0.58 0.58 0.0 0 0 45.20 106.77
  C 40.51 106.72 32.91 108.31 32.29 101.26
  Q 31.23 89.40 32.05 77.50
  Q 32.08 76.96 32.49 76.59
  C 34.95 74.36 37.26 75.05 40.18 74.97
  Q 52.92 74.60 65.42 74.79
  A 0.80 0.80 0.0 0 0 66.23 73.99
  C 66.33 58.88 73.22 46.51 89.48 45.55
  Q 89.98 45.53 90.14 45.05
  C 92.80 37.01 102.41 30.36 110.24 35.85
  Q 114.54 38.87 114.95 44.90
  Q 114.99 45.43 115.46 45.67
  Q 126.36 51.24 121.95 62.99
  Q 121.78 63.45 122.00 63.90
  C 125.91 71.84 123.23 82.67 112.63 82.58
  Q 112.03 82.58 112.03 83.18
  Z
  M 117.92 68.31
  C 117.19 65.02 112.11 65.27 116.29 60.76
  Q 119.31 57.50 116.58 53.19
  C 114.01 49.14 109.54 52.55 108.26 48.24
  Q 108.10 47.72 108.34 47.23
  C 113.22 37.21 98.77 36.19 95.20 45.31
  Q 94.96 45.92 95.59 46.08
  C 109.50 49.53 112.09 64.05 112.20 76.04
  A 0.97 0.96 89.7 0 0 113.16 77.00
  C 117.99 76.98 118.72 71.93 117.92 68.31
  Z
  M 88.60 81.41
  A 0.58 0.58 0.0 0 0 88.04 81.98
  L 87.64 95.57
  Q 87.63 96.06 88.12 96.06
  L 105.50 95.87
  Q 106.01 95.86 106.02 95.36
  C 106.23 84.65 110.53 52.78 92.99 51.28
  Q 75.61 49.79 72.89 67.12
  Q 72.81 67.61 73.30 67.69
  C 80.08 68.89 86.88 68.43 93.71 68.30
  C 97.55 68.24 100.54 68.65 100.37 73.19
  C 99.99 82.89 96.33 81.11 88.60 81.41
  Z
  M 64.74 80.25
  L 37.67 80.55
  A 0.53 0.53 0.0 0 0 37.15 81.09
  L 37.55 100.43
  Q 37.56 101.05 38.18 101.05
  L 63.38 100.90
  Q 63.86 100.89 64.03 100.45
  C 66.08 95.29 64.92 86.55 65.27 80.81
  A 0.52 0.52 0.0 0 0 64.74 80.25
  Z
  M 78.08 81.78
  A 0.34 0.34 0.0 0 0 77.81 81.44
  L 71.75 80.20
  A 0.34 0.34 0.0 0 0 71.34 80.53
  L 71.01 95.40
  A 0.34 0.34 0.0 0 0 71.35 95.75
  L 77.41 95.75
  A 0.34 0.34 0.0 0 0 77.75 95.42
  L 78.08 81.78
  Z
  M 121.82 96.53
  Q 120.59 95.54 120.94 97.08
  C 121.51 99.56 122.81 101.66 125.15 103.21
  C 129.54 106.13 131.28 109.56 133.49 113.69
  Q 134.52 115.62 133.81 113.55
  Q 130.29 103.29 121.82 96.53
  Z
  M 89.12 109.62
  L 79.58 101.61
  Q 79.18 101.27 78.66 101.27
  L 70.42 101.24
  A 0.56 0.56 0.0 0 0 70.10 102.27
  L 86.58 113.42
  Q 87.05 113.74 87.36 113.27
  L 89.24 110.44
  A 0.62 0.62 0.0 0 0 89.12 109.62
  Z
  M 123.43 108.73
  C 111.00 101.58 98.21 104.41 91.62 117.00
  C 88.18 123.58 87.25 133.24 91.74 139.98
  Q 92.01 140.39 92.37 140.06
  Q 106.15 127.49 120.01 115.00
  Q 122.49 112.76 123.86 111.08
  Q 125.03 109.65 123.43 108.73
  Z
  M 62.76 121.61
  C 62.71 116.55 62.83 112.16 63.48 107.05
  Q 63.55 106.50 63.00 106.50
  L 60.00 106.50
  Q 59.50 106.50 59.50 107.00
  L 59.50 121.77
  Q 59.50 122.30 60.02 122.28
  L 62.21 122.19
  Q 62.76 122.16 62.76 121.61
  Z
  M 51.01 107.44
  C 51.08 120.35 49.98 133.37 50.00 146.36
  C 50.00 148.27 51.00 149.01 52.87 148.27
  Q 53.38 148.07 53.54 147.55
  Q 53.96 146.26 53.97 144.50
  Q 54.04 125.87 53.99 107.25
  Q 53.99 106.75 53.48 106.75
  L 51.69 106.75
  Q 51.00 106.75 51.01 107.44
  Z
  M 76.74 113.77
  A 0.30 0.30 0.0 0 0 76.70 113.30
  L 69.18 108.26
  A 0.30 0.30 0.0 0 0 68.71 108.49
  L 68.12 121.21
  A 0.30 0.30 0.0 0 0 68.62 121.44
  L 76.74 113.77
  Z
  M 96.11 144.89
  C 103.93 150.09 118.91 151.75 126.14 144.68
  C 133.45 137.53 131.37 123.92 128.33 115.58
  Q 128.16 115.12 127.79 115.45
  L 96.05 144.13
  A 0.48 0.48 0.0 0 0 96.11 144.89
  Z
  M 84.06 118.88
  L 82.00 117.12
  Q 81.50 116.69 81.03 117.15
  L 68.40 129.36
  Q 67.71 130.02 68.65 130.15
  C 71.83 130.60 74.18 130.70 76.82 128.46
  C 79.65 126.06 84.19 123.86 84.38 119.63
  Q 84.40 119.18 84.06 118.88
  Z
  M 62.5000 128.4644
  A 0.71 0.71 0.0 0 0 61.7875 127.7569
  L 59.9875 127.7632
  A 0.71 0.71 0.0 0 0 59.2800 128.4756
  L 59.3000 134.1956
  A 0.71 0.71 0.0 0 0 60.0125 134.9031
  L 61.8125 134.8968
  A 0.71 0.71 0.0 0 0 62.5200 134.1844
  L 62.5000 128.4644
  Z
  M 128.51 162.17
  L 136.46 162.74
  Q 137.09 162.78 137.13 162.15
  C 137.69 152.68 137.23 143.25 137.23 133.76
  Q 137.23 133.60 137.12 133.49
  Q 137.02 133.39 136.91 133.28
  Q 136.55 132.90 136.52 133.42
  C 136.16 141.03 133.95 144.64 128.70 149.95
  Q 128.35 150.31 128.33 150.81
  L 128.04 161.58
  Q 128.02 162.13 128.51 162.17
  Z
  M 83.77 135.94
  A 0.39 0.39 0.0 0 0 83.41 135.68
  L 68.39 135.77
  A 0.39 0.39 0.0 0 0 68.00 136.16
  L 68.00 139.43
  A 0.39 0.39 0.0 0 0 68.40 139.82
  L 84.57 139.58
  A 0.39 0.39 0.0 0 0 84.93 139.05
  L 83.77 135.94
  Z
  M 87.75 145.25
  L 68.75 145.25
  Q 68.24 145.25 68.19 145.76
  Q 67.20 155.15 68.19 164.52
  A 1.74 1.73 86.7 0 0 69.92 166.07
  L 84.39 165.99
  A 1.12 1.12 0.0 0 0 85.50 164.86
  C 85.48 158.67 84.14 151.80 91.42 148.97
  Q 91.91 148.78 91.54 148.42
  L 88.81 145.69
  Q 88.38 145.25 87.75 145.25
  Z
  M 122.30 153.64
  C 116.52 155.70 111.95 154.83 106.04 154.58
  Q 105.54 154.56 105.73 155.03
  Q 107.09 158.44 106.81 162.13
  C 106.66 164.05 106.82 165.62 109.05 165.67
  C 110.73 165.70 123.14 166.93 122.25 163.95
  Q 122.13 163.56 122.16 163.15
  L 122.85 154.06
  Q 122.90 153.42 122.30 153.64
  Z
  M 96.52 153.96
  Q 93.74 153.31 91.38 155.42
  Q 91.00 155.75 91.00 156.26
  L 91.00 162.52
  Q 91.00 163.22 91.70 163.23
  L 100.47 163.26
  Q 101.04 163.26 101.12 162.70
  C 101.63 159.00 100.57 154.92 96.52 153.96
  Z"
/>
<circle cx="113.99" cy="110.96" r="2.47"/>
<circle cx="99.34" cy="114.81" r="2.47"/>
<circle cx="125.95" cy="127.14" r="2.47"/>
<circle cx="93.48" cy="129.05" r="2.52"/>
<circle cx="122.03" cy="141.38" r="2.47"/>
<circle cx="106.48" cy="143.79" r="2.46"/>
</g>
<g fill="#f8f8f8">
<path d="
  M 88.60 81.41
  C 96.33 81.11 99.99 82.89 100.37 73.19
  C 100.54 68.65 97.55 68.24 93.71 68.30
  C 86.88 68.43 80.08 68.89 73.30 67.69
  Q 72.81 67.61 72.89 67.12
  Q 75.61 49.79 92.99 51.28
  C 110.53 52.78 106.23 84.65 106.02 95.36
  Q 106.01 95.86 105.50 95.87
  L 88.12 96.06
  Q 87.63 96.06 87.64 95.57
  L 88.04 81.98
  A 0.58 0.58 0.0 0 1 88.60 81.41
  Z"
/>
<path d="
  M 64.74 80.25
  A 0.52 0.52 0.0 0 1 65.27 80.81
  C 64.92 86.55 66.08 95.29 64.03 100.45
  Q 63.86 100.89 63.38 100.90
  L 38.18 101.05
  Q 37.56 101.05 37.55 100.43
  L 37.15 81.09
  A 0.53 0.53 0.0 0 1 37.67 80.55
  L 64.74 80.25
  Z"
/>
<path d="
  M 78.08 81.78
  L 77.75 95.42
  A 0.34 0.34 0.0 0 1 77.41 95.75
  L 71.35 95.75
  A 0.34 0.34 0.0 0 1 71.01 95.40
  L 71.34 80.53
  A 0.34 0.34 0.0 0 1 71.75 80.20
  L 77.81 81.44
  A 0.34 0.34 0.0 0 1 78.08 81.78
  Z"
/>
<path d="
  M 123.43 108.73
  Q 125.03 109.65 123.86 111.08
  Q 122.49 112.76 120.01 115.00
  Q 106.15 127.49 92.37 140.06
  Q 92.01 140.39 91.74 139.98
  C 87.25 133.24 88.18 123.58 91.62 117.00
  C 98.21 104.41 111.00 101.58 123.43 108.73
  Z
  M 116.46 110.96
  A 2.47 2.47 0.0 0 0 113.99 108.49
  A 2.47 2.47 0.0 0 0 111.52 110.96
  A 2.47 2.47 0.0 0 0 113.99 113.43
  A 2.47 2.47 0.0 0 0 116.46 110.96
  Z
  M 101.81 114.81
  A 2.47 2.47 0.0 0 0 99.34 112.34
  A 2.47 2.47 0.0 0 0 96.87 114.81
  A 2.47 2.47 0.0 0 0 99.34 117.28
  A 2.47 2.47 0.0 0 0 101.81 114.81
  Z
  M 96.00 129.05
  A 2.52 2.52 0.0 0 0 93.48 126.53
  A 2.52 2.52 0.0 0 0 90.96 129.05
  A 2.52 2.52 0.0 0 0 93.48 131.57
  A 2.52 2.52 0.0 0 0 96.00 129.05
  Z"
/>
<path d="
  M 76.74 113.77
  L 68.62 121.44
  A 0.30 0.30 0.0 0 1 68.12 121.21
  L 68.71 108.49
  A 0.30 0.30 0.0 0 1 69.18 108.26
  L 76.70 113.30
  A 0.30 0.30 0.0 0 1 76.74 113.77
  Z"
/>
<path d="
  M 96.11 144.89
  A 0.48 0.48 0.0 0 1 96.05 144.13
  L 127.79 115.45
  Q 128.16 115.12 128.33 115.58
  C 131.37 123.92 133.45 137.53 126.14 144.68
  C 118.91 151.75 103.93 150.09 96.11 144.89
  Z
  M 128.42 127.14
  A 2.47 2.47 0.0 0 0 125.95 124.67
  A 2.47 2.47 0.0 0 0 123.48 127.14
  A 2.47 2.47 0.0 0 0 125.95 129.61
  A 2.47 2.47 0.0 0 0 128.42 127.14
  Z
  M 124.50 141.38
  A 2.47 2.47 0.0 0 0 122.03 138.91
  A 2.47 2.47 0.0 0 0 119.56 141.38
  A 2.47 2.47 0.0 0 0 122.03 143.85
  A 2.47 2.47 0.0 0 0 124.50 141.38
  Z
  M 108.94 143.79
  A 2.46 2.46 0.0 0 0 106.48 141.33
  A 2.46 2.46 0.0 0 0 104.02 143.79
  A 2.46 2.46 0.0 0 0 106.48 146.25
  A 2.46 2.46 0.0 0 0 108.94 143.79
  Z"
/>
<path d="
  M 88.81 145.69
  L 91.54 148.42
  Q 91.91 148.78 91.42 148.97
  C 84.14 151.80 85.48 158.67 85.50 164.86
  A 1.12 1.12 0.0 0 1 84.39 165.99
  L 69.92 166.07
  A 1.74 1.73 86.7 0 1 68.19 164.52
  Q 67.20 155.15 68.19 145.76
  Q 68.24 145.25 68.75 145.25
  L 87.75 145.25
  Q 88.38 145.25 88.81 145.69
  Z"
/>
<path d="
  M 106.04 154.58
  C 111.95 154.83 116.52 155.70 122.30 153.64
  Q 122.90 153.42 122.85 154.06
  L 122.16 163.15
  Q 122.13 163.56 122.25 163.95
  C 123.14 166.93 110.73 165.70 109.05 165.67
  C 106.82 165.62 106.66 164.05 106.81 162.13
  Q 107.09 158.44 105.73 155.03
  Q 105.54 154.56 106.04 154.58
  Z"
/>
</g>
<g fill="#ffe75e">
<path d="
  M 116.29 60.76
  C 112.11 65.27 117.19 65.02 117.92 68.31
  C 118.72 71.93 117.99 76.98 113.16 77.00
  A 0.97 0.96 89.7 0 1 112.20 76.04
  C 112.09 64.05 109.50 49.53 95.59 46.08
  Q 94.96 45.92 95.20 45.31
  C 98.77 36.19 113.22 37.21 108.34 47.23
  Q 108.10 47.72 108.26 48.24
  C 109.54 52.55 114.01 49.14 116.58 53.19
  Q 119.31 57.50 116.29 60.76
  Z"
/>
<path d="
  M 121.82 96.53
  Q 130.29 103.29 133.81 113.55
  Q 134.52 115.62 133.49 113.69
  C 131.28 109.56 129.54 106.13 125.15 103.21
  C 122.81 101.66 121.51 99.56 120.94 97.08
  Q 120.59 95.54 121.82 96.53
  Z"
/>
<path d="
  M 89.12 109.62
  A 0.62 0.62 0.0 0 1 89.24 110.44
  L 87.36 113.27
  Q 87.05 113.74 86.58 113.42
  L 70.10 102.27
  A 0.56 0.56 0.0 0 1 70.42 101.24
  L 78.66 101.27
  Q 79.18 101.27 79.58 101.61
  L 89.12 109.62
  Z"
/>
<path d="
  M 50.00 146.36
  C 49.98 133.37 51.08 120.35 51.01 107.44
  Q 51.00 106.75 51.69 106.75
  L 53.48 106.75
  Q 53.99 106.75 53.99 107.25
  Q 54.04 125.87 53.97 144.50
  Q 53.96 146.26 53.54 147.55
  Q 53.38 148.07 52.87 148.27
  C 51.00 149.01 50.00 148.27 50.00 146.36
  Z"
/>
<path d="
  M 82.00 117.12
  L 84.06 118.88
  Q 84.40 119.18 84.38 119.63
  C 84.19 123.86 79.65 126.06 76.82 128.46
  C 74.18 130.70 71.83 130.60 68.65 130.15
  Q 67.71 130.02 68.40 129.36
  L 81.03 117.15
  Q 81.50 116.69 82.00 117.12
  Z"
/>
<rect x="-1.61" y="-3.57" transform="translate(60.90,131.33) rotate(-0.2)" width="3.22" height="7.14" rx="0.71"/>
<path d="
  M 136.46 162.74
  L 128.51 162.17
  Q 128.02 162.13 128.04 161.58
  L 128.33 150.81
  Q 128.35 150.31 128.70 149.95
  C 133.95 144.64 136.16 141.03 136.52 133.42
  Q 136.55 132.90 136.91 133.28
  Q 137.02 133.39 137.12 133.49
  Q 137.23 133.60 137.23 133.76
  C 137.23 143.25 137.69 152.68 137.13 162.15
  Q 137.09 162.78 136.46 162.74
  Z"
/>
<path d="
  M 83.77 135.94
  L 84.93 139.05
  A 0.39 0.39 0.0 0 1 84.57 139.58
  L 68.40 139.82
  A 0.39 0.39 0.0 0 1 68.00 139.43
  L 68.00 136.16
  A 0.39 0.39 0.0 0 1 68.39 135.77
  L 83.41 135.68
  A 0.39 0.39 0.0 0 1 83.77 135.94
  Z"
/>
<path d="
  M 96.52 153.96
  C 100.57 154.92 101.63 159.00 101.12 162.70
  Q 101.04 163.26 100.47 163.26
  L 91.70 163.23
  Q 91.00 163.22 91.00 162.52
  L 91.00 156.26
  Q 91.00 155.75 91.38 155.42
  Q 93.74 153.31 96.52 153.96
  Z"
/>
</g>
</svg>
