<?xml version="1.0" encoding="UTF-8" standalone="no"?>
<!DOCTYPE svg PUBLIC "-//W3C//DTD SVG 1.1//EN" "http://www.w3.org/Graphics/SVG/1.1/DTD/svg11.dtd">
<svg xmlns="http://www.w3.org/2000/svg" version="1.1" viewBox="0 0 180 180">
<g stroke-width="2.00" fill="none" stroke-linecap="butt">
<path stroke="#98989a" vector-effect="non-scaling-stroke" d="
  M 45.69 76.77
  L 46.33 78.72
  Q 46.52 79.31 47.13 79.26
  L 52.52 78.86
  Q 53.04 78.82 53.14 78.30
  Q 53.63 75.66 56.09 74.70
  Q 56.65 74.49 56.52 73.90
  L 50.23 46.01
  Q 50.06 45.25 49.86 46.01
  Q 46.67 58.23 43.40 70.48
  C 42.73 73.00 41.73 75.02 44.96 76.05
  Q 45.51 76.22 45.69 76.77"
/>
<path stroke="#533d3e" vector-effect="non-scaling-stroke" d="
  M 104.56 63.41
  C 100.51 46.11 76.39 45.37 71.92 63.49
  Q 71.67 64.54 72.74 64.58
  Q 88.37 65.16 104.01 64.15
  A 0.61 0.60 -8.5 0 0 104.56 63.41"
/>
<path stroke="#927a6d" vector-effect="non-scaling-stroke" d="
  M 112.29 74.36
  Q 109.97 72.71 110.18 75.55
  C 110.46 79.12 108.19 83.74 104.18 84.34
  C 96.99 85.42 96.58 75.37 96.22 71.10
  Q 96.19 70.72 95.80 70.71
  L 71.14 70.29
  Q 70.66 70.28 70.65 70.76
  C 70.47 79.78 70.40 87.05 75.77 93.05
  C 82.39 100.44 92.73 100.56 100.22 94.22
  C 103.19 91.70 101.11 86.89 106.43 87.06
  C 113.17 87.27 119.07 79.19 112.29 74.36"
/>
<path stroke="#533d3e" vector-effect="non-scaling-stroke" d="
  M 104.21 78.06
  L 104.60 70.54
  Q 104.63 69.93 104.03 69.97
  L 102.17 70.08
  Q 101.49 70.12 101.60 70.79
  L 102.81 78.14
  A 0.71 0.70 -48.2 0 0 104.21 78.06"
/>
<path stroke="#533d3e" vector-effect="non-scaling-stroke" d="
  M 50.16 84.62
  C 49.53 84.61 49.27 84.95 49.26 85.56
  C 48.92 98.22 49.68 112.10 49.75 123.47
  Q 49.88 144.46 51.27 165.40
  Q 51.28 165.57 51.44 165.52
  Q 51.58 165.47 51.71 165.42
  Q 51.91 165.34 51.93 165.12
  C 52.80 152.83 51.83 138.10 51.56 127.24
  C 51.24 114.16 51.52 99.32 50.84 85.28
  A 0.69 0.69 0.0 0 0 50.16 84.62"
/>
<path stroke="#533d3e" vector-effect="non-scaling-stroke" d="
  M 102.97 99.90
  L 109.10 98.99
  Q 109.61 98.92 109.99 98.57
  L 113.16 95.65
  Q 113.60 95.24 113.25 94.75
  L 111.84 92.80
  Q 111.41 92.20 110.85 92.69
  L 102.85 99.65
  A 0.15 0.14 20.0 0 0 102.97 99.90"
/>
<path stroke="#533d3e" vector-effect="non-scaling-stroke" d="
  M 88.81 109.44
  Q 83.80 104.88 77.69 102.06
  Q 75.34 100.98 71.99 97.11
  Q 71.44 96.48 71.15 97.27
  L 69.77 101.05
  Q 69.53 101.70 70.11 102.10
  L 86.65 113.29
  Q 87.07 113.58 87.35 113.14
  L 89.30 110.04
  Q 89.46 109.79 89.23 109.61
  Q 89.00 109.43 88.81 109.44"
/>
<path stroke="#533d3e" vector-effect="non-scaling-stroke" d="
  M 130.40 131.50
  C 128.78 134.17 124.68 134.74 124.74 130.65
  Q 124.74 130.13 125.09 129.73
  L 130.04 123.98
  Q 130.44 123.52 130.29 122.94
  L 128.64 116.22
  Q 128.49 115.63 128.06 116.05
  Q 121.48 122.50 114.44 128.43
  C 112.38 130.18 109.88 129.04 109.78 126.44
  Q 109.76 125.96 110.06 125.58
  C 114.26 120.25 120.10 116.17 124.73 111.03
  Q 125.12 110.60 124.65 110.24
  L 120.37 106.97
  Q 119.89 106.60 119.46 107.02
  C 117.59 108.82 109.99 116.72 107.42 114.03
  C 104.82 111.32 111.38 106.95 113.13 105.80
  A 0.71 0.71 0.0 0 0 112.71 104.50
  C 99.22 105.00 90.75 113.33 88.78 126.27
  Q 88.68 126.91 89.29 126.68
  Q 92.45 125.46 93.02 129.01
  A 1.99 1.99 0.0 0 1 92.29 130.88
  L 89.42 133.15
  Q 88.87 133.58 89.16 134.22
  L 91.96 140.50
  Q 92.24 141.12 92.73 140.66
  Q 97.29 136.37 101.69 131.94
  C 105.47 128.15 108.52 134.05 105.25 136.79
  Q 100.76 140.53 96.68 144.67
  Q 96.26 145.10 96.79 145.36
  L 102.27 148.06
  Q 102.80 148.32 103.25 147.93
  Q 107.91 143.87 117.06 136.32
  C 120.68 133.33 124.40 137.32 120.34 140.66
  Q 115.58 144.59 110.79 148.62
  Q 110.26 149.06 110.95 149.14
  Q 121.48 150.31 127.66 142.70
  C 130.16 139.62 130.71 135.68 131.22 131.79
  A 0.44 0.44 0.0 0 0 130.40 131.50"
/>
<path stroke="#3d504e" vector-effect="non-scaling-stroke" d="
  M 76.42 113.22
  L 69.61 108.61
  Q 68.82 108.08 68.79 109.03
  L 68.40 120.94
  Q 68.38 121.51 68.79 121.12
  L 76.47 113.84
  A 0.40 0.40 0.0 0 0 76.42 113.22"
/>
<path stroke="#533d3e" vector-effect="non-scaling-stroke" d="
  M 75.86 128.93
  C 78.81 126.83 83.37 123.79 84.39 120.17
  Q 84.53 119.66 84.16 119.28
  L 82.28 117.40
  Q 81.68 116.81 81.07 117.39
  L 68.64 129.36
  Q 67.90 130.07 68.91 130.18
  C 71.54 130.48 73.56 130.57 75.86 128.93"
/>
<path stroke="#927a6d" vector-effect="non-scaling-stroke" d="
  M 58.00 128.32
  A 0.30 0.30 0.0 0 0 57.75 128.61
  L 57.75 134.08
  A 0.30 0.30 0.0 0 0 58.02 134.38
  L 61.92 134.82
  A 0.30 0.30 0.0 0 0 62.25 134.52
  L 62.25 127.92
  A 0.30 0.30 0.0 0 0 61.90 127.62
  L 58.00 128.32"
/>
<path stroke="#533d3e" vector-effect="non-scaling-stroke" d="
  M 68.89 135.75
  A 0.64 0.64 0.0 0 0 68.25 136.39
  L 68.25 138.86
  A 0.64 0.64 0.0 0 0 68.89 139.50
  L 83.98 139.50
  A 0.64 0.64 0.0 0 0 84.59 138.68
  L 83.87 136.21
  A 0.64 0.64 0.0 0 0 83.26 135.75
  L 68.89 135.75"
/>
<path stroke="#533d3e" vector-effect="non-scaling-stroke" d="
  M 91.18 148.22
  L 88.55 145.59
  Q 88.26 145.29 87.85 145.30
  L 68.70 145.51
  A 0.52 0.52 0.0 0 0 68.19 146.02
  C 68.04 151.95 66.89 158.96 68.59 164.42
  A 2.36 2.35 80.6 0 0 70.89 166.07
  L 84.50 165.70
  A 1.05 1.04 88.9 0 0 85.52 164.63
  C 85.40 159.37 84.19 151.30 90.92 149.27
  Q 91.92 148.97 91.18 148.22"
/>
<path stroke="#533d3e" vector-effect="non-scaling-stroke" d="
  M 122.01 153.87
  C 116.21 155.60 112.00 154.70 106.35 154.67
  Q 105.76 154.67 105.93 155.24
  Q 107.19 159.47 106.79 163.95
  A 1.36 1.36 0.0 0 0 108.00 165.42
  Q 114.81 166.12 121.65 165.48
  Q 122.17 165.44 122.19 164.91
  L 122.56 154.30
  Q 122.58 153.70 122.01 153.87"
/>
<path stroke="#927a6d" vector-effect="non-scaling-stroke" d="
  M 84.97 75.49
  A 2.47 2.47 0.0 0 0 82.50 73.02
  L 82.32 73.02
  A 2.47 2.47 0.0 0 0 79.85 75.49
  L 79.85 89.23
  A 2.47 2.47 0.0 0 0 82.32 91.70
  L 82.50 91.70
  A 2.47 2.47 0.0 0 0 84.97 89.23
  L 84.97 75.49"
/>
<path stroke="#533d3e" vector-effect="non-scaling-stroke" d="
  M 103.3681 117.2939
  A 2.48 2.48 0.0 0 0 99.8770 116.9578
  L 95.2936 120.7361
  A 2.48 2.48 0.0 0 0 94.9574 124.2272
  L 95.0719 124.3661
  A 2.48 2.48 0.0 0 0 98.5630 124.7022
  L 103.1464 120.9239
  A 2.48 2.48 0.0 0 0 103.4826 117.4328
  L 103.3681 117.2939"
/>
</g>
<g fill="#38383c">
<path d="
  M 57.66 122.48
  L 62.21 122.16
  Q 62.79 122.12 62.78 121.53
  C 62.60 110.09 63.14 100.88 67.57 91.87
  Q 67.79 91.42 67.65 90.93
  C 64.72 81.05 63.89 69.29 67.57 59.47
  C 70.88 50.68 78.39 44.77 87.96 44.65
  C 101.48 44.48 110.52 54.06 110.74 67.71
  Q 110.75 68.26 111.28 68.36
  C 121.97 70.55 123.76 81.55 116.79 88.89
  Q 116.40 89.30 116.72 89.78
  Q 120.36 95.17 122.72 101.27
  Q 122.91 101.77 123.37 102.04
  C 136.15 109.67 138.70 126.59 135.62 139.86
  C 134.61 144.25 131.59 147.36 128.50 150.41
  Q 128.13 150.78 128.15 151.29
  C 128.41 158.38 130.31 170.48 122.52 171.32
  Q 114.14 172.22 107.57 171.14
  C 100.00 169.89 101.88 163.93 100.70 158.55
  C 99.72 154.06 96.07 152.66 92.09 154.70
  A 1.87 1.86 -15.5 0 0 91.08 156.48
  C 91.33 160.09 91.89 165.86 90.15 168.68
  C 87.50 172.96 77.98 171.74 72.01 171.71
  C 67.86 171.68 63.98 170.16 63.21 165.72
  C 61.77 157.47 62.37 149.60 62.57 141.27
  Q 62.58 140.66 61.98 140.59
  L 58.35 140.20
  Q 57.73 140.13 57.74 140.76
  C 57.82 149.72 58.34 158.71 57.61 167.63
  Q 57.57 168.15 57.20 168.52
  C 52.57 173.26 45.74 171.50 45.37 164.31
  C 44.31 143.69 44.28 123.18 43.65 102.56
  C 43.48 97.17 43.90 91.03 43.71 85.23
  Q 43.69 84.70 43.24 84.42
  Q 41.68 83.45 41.58 81.56
  Q 41.55 81.08 41.15 80.83
  Q 35.98 77.57 37.46 71.74
  Q 41.75 54.74 47.05 38.02
  C 49.01 31.84 52.82 36.36 53.84 39.84
  C 57.74 53.11 59.27 62.17 61.93 72.42
  C 62.87 76.07 62.33 78.56 59.06 80.40
  Q 58.63 80.64 58.50 81.13
  Q 58.11 82.56 56.83 83.35
  Q 56.38 83.63 56.39 84.16
  L 57.29 122.15
  Q 57.30 122.51 57.66 122.48
  Z
  M 45.69 76.77
  L 46.33 78.72
  Q 46.52 79.31 47.13 79.26
  L 52.52 78.86
  Q 53.04 78.82 53.14 78.30
  Q 53.63 75.66 56.09 74.70
  Q 56.65 74.49 56.52 73.90
  L 50.23 46.01
  Q 50.06 45.25 49.86 46.01
  Q 46.67 58.23 43.40 70.48
  C 42.73 73.00 41.73 75.02 44.96 76.05
  Q 45.51 76.22 45.69 76.77
  Z
  M 104.56 63.41
  C 100.51 46.11 76.39 45.37 71.92 63.49
  Q 71.67 64.54 72.74 64.58
  Q 88.37 65.16 104.01 64.15
  A 0.61 0.60 -8.5 0 0 104.56 63.41
  Z
  M 112.29 74.36
  Q 109.97 72.71 110.18 75.55
  C 110.46 79.12 108.19 83.74 104.18 84.34
  C 96.99 85.42 96.58 75.37 96.22 71.10
  Q 96.19 70.72 95.80 70.71
  L 71.14 70.29
  Q 70.66 70.28 70.65 70.76
  C 70.47 79.78 70.40 87.05 75.77 93.05
  C 82.39 100.44 92.73 100.56 100.22 94.22
  C 103.19 91.70 101.11 86.89 106.43 87.06
  C 113.17 87.27 119.07 79.19 112.29 74.36
  Z
  M 104.21 78.06
  L 104.60 70.54
  Q 104.63 69.93 104.03 69.97
  L 102.17 70.08
  Q 101.49 70.12 101.60 70.79
  L 102.81 78.14
  A 0.71 0.70 -48.2 0 0 104.21 78.06
  Z
  M 50.16 84.62
  C 49.53 84.61 49.27 84.95 49.26 85.56
  C 48.92 98.22 49.68 112.10 49.75 123.47
  Q 49.88 144.46 51.27 165.40
  Q 51.28 165.57 51.44 165.52
  Q 51.58 165.47 51.71 165.42
  Q 51.91 165.34 51.93 165.12
  C 52.80 152.83 51.83 138.10 51.56 127.24
  C 51.24 114.16 51.52 99.32 50.84 85.28
  A 0.69 0.69 0.0 0 0 50.16 84.62
  Z
  M 102.97 99.90
  L 109.10 98.99
  Q 109.61 98.92 109.99 98.57
  L 113.16 95.65
  Q 113.60 95.24 113.25 94.75
  L 111.84 92.80
  Q 111.41 92.20 110.85 92.69
  L 102.85 99.65
  A 0.15 0.14 20.0 0 0 102.97 99.90
  Z
  M 88.81 109.44
  Q 83.80 104.88 77.69 102.06
  Q 75.34 100.98 71.99 97.11
  Q 71.44 96.48 71.15 97.27
  L 69.77 101.05
  Q 69.53 101.70 70.11 102.10
  L 86.65 113.29
  Q 87.07 113.58 87.35 113.14
  L 89.30 110.04
  Q 89.46 109.79 89.23 109.61
  Q 89.00 109.43 88.81 109.44
  Z
  M 130.40 131.50
  C 128.78 134.17 124.68 134.74 124.74 130.65
  Q 124.74 130.13 125.09 129.73
  L 130.04 123.98
  Q 130.44 123.52 130.29 122.94
  L 128.64 116.22
  Q 128.49 115.63 128.06 116.05
  Q 121.48 122.50 114.44 128.43
  C 112.38 130.18 109.88 129.04 109.78 126.44
  Q 109.76 125.96 110.06 125.58
  C 114.26 120.25 120.10 116.17 124.73 111.03
  Q 125.12 110.60 124.65 110.24
  L 120.37 106.97
  Q 119.89 106.60 119.46 107.02
  C 117.59 108.82 109.99 116.72 107.42 114.03
  C 104.82 111.32 111.38 106.95 113.13 105.80
  A 0.71 0.71 0.0 0 0 112.71 104.50
  C 99.22 105.00 90.75 113.33 88.78 126.27
  Q 88.68 126.91 89.29 126.68
  Q 92.45 125.46 93.02 129.01
  A 1.99 1.99 0.0 0 1 92.29 130.88
  L 89.42 133.15
  Q 88.87 133.58 89.16 134.22
  L 91.96 140.50
  Q 92.24 141.12 92.73 140.66
  Q 97.29 136.37 101.69 131.94
  C 105.47 128.15 108.52 134.05 105.25 136.79
  Q 100.76 140.53 96.68 144.67
  Q 96.26 145.10 96.79 145.36
  L 102.27 148.06
  Q 102.80 148.32 103.25 147.93
  Q 107.91 143.87 117.06 136.32
  C 120.68 133.33 124.40 137.32 120.34 140.66
  Q 115.58 144.59 110.79 148.62
  Q 110.26 149.06 110.95 149.14
  Q 121.48 150.31 127.66 142.70
  C 130.16 139.62 130.71 135.68 131.22 131.79
  A 0.44 0.44 0.0 0 0 130.40 131.50
  Z
  M 76.42 113.22
  L 69.61 108.61
  Q 68.82 108.08 68.79 109.03
  L 68.40 120.94
  Q 68.38 121.51 68.79 121.12
  L 76.47 113.84
  A 0.40 0.40 0.0 0 0 76.42 113.22
  Z
  M 75.86 128.93
  C 78.81 126.83 83.37 123.79 84.39 120.17
  Q 84.53 119.66 84.16 119.28
  L 82.28 117.40
  Q 81.68 116.81 81.07 117.39
  L 68.64 129.36
  Q 67.90 130.07 68.91 130.18
  C 71.54 130.48 73.56 130.57 75.86 128.93
  Z
  M 58.00 128.32
  A 0.30 0.30 0.0 0 0 57.75 128.61
  L 57.75 134.08
  A 0.30 0.30 0.0 0 0 58.02 134.38
  L 61.92 134.82
  A 0.30 0.30 0.0 0 0 62.25 134.52
  L 62.25 127.92
  A 0.30 0.30 0.0 0 0 61.90 127.62
  L 58.00 128.32
  Z
  M 68.89 135.75
  A 0.64 0.64 0.0 0 0 68.25 136.39
  L 68.25 138.86
  A 0.64 0.64 0.0 0 0 68.89 139.50
  L 83.98 139.50
  A 0.64 0.64 0.0 0 0 84.59 138.68
  L 83.87 136.21
  A 0.64 0.64 0.0 0 0 83.26 135.75
  L 68.89 135.75
  Z
  M 91.18 148.22
  L 88.55 145.59
  Q 88.26 145.29 87.85 145.30
  L 68.70 145.51
  A 0.52 0.52 0.0 0 0 68.19 146.02
  C 68.04 151.95 66.89 158.96 68.59 164.42
  A 2.36 2.35 80.6 0 0 70.89 166.07
  L 84.50 165.70
  A 1.05 1.04 88.9 0 0 85.52 164.63
  C 85.40 159.37 84.19 151.30 90.92 149.27
  Q 91.92 148.97 91.18 148.22
  Z
  M 122.01 153.87
  C 116.21 155.60 112.00 154.70 106.35 154.67
  Q 105.76 154.67 105.93 155.24
  Q 107.19 159.47 106.79 163.95
  A 1.36 1.36 0.0 0 0 108.00 165.42
  Q 114.81 166.12 121.65 165.48
  Q 122.17 165.44 122.19 164.91
  L 122.56 154.30
  Q 122.58 153.70 122.01 153.87
  Z"
/>
<rect x="79.85" y="73.02" width="5.12" height="18.68" rx="2.47"/>
<rect x="-5.45" y="-2.57" transform="translate(99.22,120.83) rotate(-39.5)" width="10.90" height="5.14" rx="2.48"/>
</g>
<g fill="#ebbc9e">
<path d="
  M 112.29 74.36
  C 119.07 79.19 113.17 87.27 106.43 87.06
  C 101.11 86.89 103.19 91.70 100.22 94.22
  C 92.73 100.56 82.39 100.44 75.77 93.05
  C 70.40 87.05 70.47 79.78 70.65 70.76
  Q 70.66 70.28 71.14 70.29
  L 95.80 70.71
  Q 96.19 70.72 96.22 71.10
  C 96.58 75.37 96.99 85.42 104.18 84.34
  C 108.19 83.74 110.46 79.12 110.18 75.55
  Q 109.97 72.71 112.29 74.36
  Z
  M 84.97 75.49
  A 2.47 2.47 0.0 0 0 82.50 73.02
  L 82.32 73.02
  A 2.47 2.47 0.0 0 0 79.85 75.49
  L 79.85 89.23
  A 2.47 2.47 0.0 0 0 82.32 91.70
  L 82.50 91.70
  A 2.47 2.47 0.0 0 0 84.97 89.23
  L 84.97 75.49
  Z"
/>
<path d="
  M 58.00 128.32
  L 61.90 127.62
  A 0.30 0.30 0.0 0 1 62.25 127.92
  L 62.25 134.52
  A 0.30 0.30 0.0 0 1 61.92 134.82
  L 58.02 134.38
  A 0.30 0.30 0.0 0 1 57.75 134.08
  L 57.75 128.61
  A 0.30 0.30 0.0 0 1 58.00 128.32
  Z"
/>
</g>
<g fill="#6e423f">
<path d="
  M 71.92 63.49
  C 76.39 45.37 100.51 46.11 104.56 63.41
  A 0.61 0.60 -8.5 0 1 104.01 64.15
  Q 88.37 65.16 72.74 64.58
  Q 71.67 64.54 71.92 63.49
  Z"
/>
<path d="
  M 104.21 78.06
  A 0.71 0.70 -48.2 0 1 102.81 78.14
  L 101.60 70.79
  Q 101.49 70.12 102.17 70.08
  L 104.03 69.97
  Q 104.63 69.93 104.60 70.54
  L 104.21 78.06
  Z"
/>
<path d="
  M 50.16 84.62
  A 0.69 0.69 0.0 0 1 50.84 85.28
  C 51.52 99.32 51.24 114.16 51.56 127.24
  C 51.83 138.10 52.80 152.83 51.93 165.12
  Q 51.91 165.34 51.71 165.42
  Q 51.58 165.47 51.44 165.52
  Q 51.28 165.57 51.27 165.40
  Q 49.88 144.46 49.75 123.47
  C 49.68 112.10 48.92 98.22 49.26 85.56
  C 49.27 84.95 49.53 84.61 50.16 84.62
  Z"
/>
<path d="
  M 102.97 99.90
  A 0.15 0.14 20.0 0 1 102.85 99.65
  L 110.85 92.69
  Q 111.41 92.20 111.84 92.80
  L 113.25 94.75
  Q 113.60 95.24 113.16 95.65
  L 109.99 98.57
  Q 109.61 98.92 109.10 98.99
  L 102.97 99.90
  Z"
/>
<path d="
  M 88.81 109.44
  Q 89.00 109.43 89.23 109.61
  Q 89.46 109.79 89.30 110.04
  L 87.35 113.14
  Q 87.07 113.58 86.65 113.29
  L 70.11 102.10
  Q 69.53 101.70 69.77 101.05
  L 71.15 97.27
  Q 71.44 96.48 71.99 97.11
  Q 75.34 100.98 77.69 102.06
  Q 83.80 104.88 88.81 109.44
  Z"
/>
<path d="
  M 124.74 130.65
  C 124.68 134.74 128.78 134.17 130.40 131.50
  A 0.44 0.44 0.0 0 1 131.22 131.79
  C 130.71 135.68 130.16 139.62 127.66 142.70
  Q 121.48 150.31 110.95 149.14
  Q 110.26 149.06 110.79 148.62
  Q 115.58 144.59 120.34 140.66
  C 124.40 137.32 120.68 133.33 117.06 136.32
  Q 107.91 143.87 103.25 147.93
  Q 102.80 148.32 102.27 148.06
  L 96.79 145.36
  Q 96.26 145.10 96.68 144.67
  Q 100.76 140.53 105.25 136.79
  C 108.52 134.05 105.47 128.15 101.69 131.94
  Q 97.29 136.37 92.73 140.66
  Q 92.24 141.12 91.96 140.50
  L 89.16 134.22
  Q 88.87 133.58 89.42 133.15
  L 92.29 130.88
  A 1.99 1.99 0.0 0 0 93.02 129.01
  Q 92.45 125.46 89.29 126.68
  Q 88.68 126.91 88.78 126.27
  C 90.75 113.33 99.22 105.00 112.71 104.50
  A 0.71 0.71 0.0 0 1 113.13 105.80
  C 111.38 106.95 104.82 111.32 107.42 114.03
  C 109.99 116.72 117.59 108.82 119.46 107.02
  Q 119.89 106.60 120.37 106.97
  L 124.65 110.24
  Q 125.12 110.60 124.73 111.03
  C 120.10 116.17 114.26 120.25 110.06 125.58
  Q 109.76 125.96 109.78 126.44
  C 109.88 129.04 112.38 130.18 114.44 128.43
  Q 121.48 122.50 128.06 116.05
  Q 128.49 115.63 128.64 116.22
  L 130.29 122.94
  Q 130.44 123.52 130.04 123.98
  L 125.09 129.73
  Q 124.74 130.13 124.74 130.65
  Z
  M 103.3681 117.2939
  A 2.48 2.48 0.0 0 0 99.8770 116.9578
  L 95.2936 120.7361
  A 2.48 2.48 0.0 0 0 94.9574 124.2272
  L 95.0719 124.3661
  A 2.48 2.48 0.0 0 0 98.5630 124.7022
  L 103.1464 120.9239
  A 2.48 2.48 0.0 0 0 103.4826 117.4328
  L 103.3681 117.2939
  Z"
/>
<path d="
  M 84.39 120.17
  C 83.37 123.79 78.81 126.83 75.86 128.93
  C 73.56 130.57 71.54 130.48 68.91 130.18
  Q 67.90 130.07 68.64 129.36
  L 81.07 117.39
  Q 81.68 116.81 82.28 117.40
  L 84.16 119.28
  Q 84.53 119.66 84.39 120.17
  Z"
/>
<path d="
  M 68.89 135.75
  L 83.26 135.75
  A 0.64 0.64 0.0 0 1 83.87 136.21
  L 84.59 138.68
  A 0.64 0.64 0.0 0 1 83.98 139.50
  L 68.89 139.50
  A 0.64 0.64 0.0 0 1 68.25 138.86
  L 68.25 136.39
  A 0.64 0.64 0.0 0 1 68.89 135.75
  Z"
/>
<path d="
  M 91.18 148.22
  Q 91.92 148.97 90.92 149.27
  C 84.19 151.30 85.40 159.37 85.52 164.63
  A 1.05 1.04 88.9 0 1 84.50 165.70
  L 70.89 166.07
  A 2.36 2.35 80.6 0 1 68.59 164.42
  C 66.89 158.96 68.04 151.95 68.19 146.02
  A 0.52 0.52 0.0 0 1 68.70 145.51
  L 87.85 145.30
  Q 88.26 145.29 88.55 145.59
  L 91.18 148.22
  Z"
/>
<path d="
  M 106.35 154.67
  C 112.00 154.70 116.21 155.60 122.01 153.87
  Q 122.58 153.70 122.56 154.30
  L 122.19 164.91
  Q 122.17 165.44 121.65 165.48
  Q 114.81 166.12 108.00 165.42
  A 1.36 1.36 0.0 0 1 106.79 163.95
  Q 107.19 159.47 105.93 155.24
  Q 105.76 154.67 106.35 154.67
  Z"
/>
</g>
<path fill="#f8f8f8" d="
  M 44.96 76.05
  C 41.73 75.02 42.73 73.00 43.40 70.48
  Q 46.67 58.23 49.86 46.01
  Q 50.06 45.25 50.23 46.01
  L 56.52 73.90
  Q 56.65 74.49 56.09 74.70
  Q 53.63 75.66 53.14 78.30
  Q 53.04 78.82 52.52 78.86
  L 47.13 79.26
  Q 46.52 79.31 46.33 78.72
  L 45.69 76.77
  Q 45.51 76.22 44.96 76.05
  Z"
/>
<path fill="#42685f" d="
  M 76.42 113.22
  A 0.40 0.40 0.0 0 1 76.47 113.84
  L 68.79 121.12
  Q 68.38 121.51 68.40 120.94
  L 68.79 109.03
  Q 68.82 108.08 69.61 108.61
  L 76.42 113.22
  Z"
/>
</svg>
