<?xml version="1.0" encoding="UTF-8" standalone="no"?>
<!DOCTYPE svg PUBLIC "-//W3C//DTD SVG 1.1//EN" "http://www.w3.org/Graphics/SVG/1.1/DTD/svg11.dtd">
<svg xmlns="http://www.w3.org/2000/svg" version="1.1" viewBox="0 0 180 180">
<g stroke-width="2.00" fill="none" stroke-linecap="butt">
<path stroke="#98989a" vector-effect="non-scaling-stroke" d="
  M 73.05 71.39
  C 80.34 74.89 74.92 80.25 69.77 81.42
  Q 69.27 81.53 68.91 81.90
  Q 60.02 90.93 54.16 102.18
  A 0.43 0.43 0.0 0 0 54.65 102.79
  Q 66.47 99.55 77.58 94.59
  C 81.86 92.68 87.39 92.96 92.05 92.27
  A 1.01 1.01 0.0 0 0 92.91 91.33
  Q 93.56 79.72 92.09 67.69
  C 91.27 61.00 86.16 60.17 80.51 61.25
  Q 72.52 62.77 71.57 70.68
  Q 71.50 71.25 72.07 71.25
  L 72.45 71.25
  Q 72.77 71.25 73.05 71.39"
/>
<path stroke="#82883e" vector-effect="non-scaling-stroke" d="
  M 30.76 83.45
  C 36.57 77.85 46.69 75.96 52.97 81.59
  Q 53.40 81.97 53.62 81.45
  Q 54.87 78.49 53.32 75.68
  A 0.90 0.90 0.0 0 0 52.07 75.34
  Q 49.19 77.07 47.33 74.37
  C 46.96 73.83 46.96 72.66 46.64 72.35
  Q 45.69 71.41 44.72 72.33
  C 38.07 78.70 39.25 68.15 37.57 65.77
  Q 37.27 65.35 36.84 65.64
  C 33.22 68.02 36.54 75.19 31.87 77.13
  Q 31.41 77.32 30.95 77.16
  C 28.35 76.24 30.00 82.48 30.23 83.30
  A 0.32 0.32 0.0 0 0 30.76 83.45"
/>
<path stroke="#533d3e" vector-effect="non-scaling-stroke" d="
  M 34.66 97.27
  A 0.38 0.36 42.3 0 0 35.08 97.26
  Q 35.41 97.02 35.30 96.59
  C 33.97 91.16 36.72 86.01 42.43 85.71
  C 49.70 85.32 50.09 92.04 49.71 97.26
  Q 49.65 98.09 50.24 97.50
  C 51.99 95.78 51.53 91.42 51.02 89.27
  C 50.05 85.21 47.41 83.92 43.34 83.91
  Q 33.39 83.88 32.89 94.31
  C 32.83 95.66 33.63 96.59 34.66 97.27"
/>
<path stroke="#533d3e" vector-effect="non-scaling-stroke" d="
  M 85.16 129.24
  C 81.69 124.54 78.82 118.90 86.19 115.73
  Q 86.61 115.55 86.63 115.09
  Q 86.88 108.59 92.82 106.14
  Q 93.35 105.92 93.21 105.36
  Q 92.36 102.02 93.30 98.68
  Q 93.46 98.11 92.87 98.16
  L 83.53 98.94
  A 1.40 1.40 0.0 0 0 82.25 100.35
  Q 82.36 109.05 77.84 116.43
  C 75.78 119.81 67.13 126.35 68.36 129.66
  Q 68.55 130.15 69.08 130.15
  L 84.81 129.94
  A 0.44 0.44 0.0 0 0 85.16 129.24"
/>
<path stroke="#533d3e" vector-effect="non-scaling-stroke" d="
  M 50.66 113.69
  Q 50.23 138.07 51.14 162.43
  Q 51.18 163.53 51.33 164.59
  Q 51.43 165.26 52.10 165.25
  Q 52.24 165.25 52.37 165.25
  Q 52.82 165.25 52.82 164.80
  C 52.76 154.76 52.07 144.40 52.10 134.75
  Q 52.13 123.00 51.96 111.25
  Q 51.94 109.52 51.56 108.31
  Q 51.38 107.74 50.97 108.16
  L 50.72 108.41
  Q 50.43 108.70 50.47 109.11
  Q 50.70 111.40 50.66 113.69"
/>
<path stroke="#82883e" vector-effect="non-scaling-stroke" d="
  M 87.87 121.56
  A 0.40 0.37 -47.4 0 0 87.63 121.58
  C 85.96 122.30 91.59 127.65 92.31 128.24
  A 1.71 1.71 0.0 0 0 94.47 128.24
  Q 98.58 124.86 103.78 123.61
  Q 104.31 123.48 104.43 122.94
  Q 105.46 118.16 103.75 113.63
  A 0.74 0.74 0.0 0 0 102.36 113.66
  L 101.38 116.58
  Q 101.23 117.02 100.86 117.28
  C 97.06 119.99 95.85 115.11 95.21 112.64
  A 1.09 1.09 0.0 0 0 93.22 112.36
  Q 91.45 115.35 92.90 118.61
  Q 93.14 119.14 92.92 119.67
  Q 91.75 122.51 87.87 121.56"
/>
<path stroke="#533d3e" vector-effect="non-scaling-stroke" d="
  M 122.18 132.97
  C 123.73 125.44 121.03 117.70 111.98 118.71
  Q 111.46 118.77 111.45 119.30
  L 111.35 123.99
  Q 111.34 124.45 111.62 124.82
  Q 114.98 129.31 114.08 134.97
  Q 113.95 135.81 114.77 135.58
  L 121.49 133.70
  A 0.98 0.96 -2.1 0 0 122.18 132.97"
/>
<path stroke="#533d3e" vector-effect="non-scaling-stroke" d="
  M 58.71 134.42
  L 61.76 134.74
  Q 62.38 134.81 62.36 134.18
  L 62.20 128.14
  Q 62.18 127.57 61.62 127.69
  L 58.27 128.41
  Q 57.63 128.55 57.68 129.21
  L 58.01 133.71
  Q 58.06 134.36 58.71 134.42"
/>
<path stroke="#533d3e" vector-effect="non-scaling-stroke" d="
  M 98.58 135.58
  L 105.68 136.85
  Q 106.26 136.95 106.69 136.54
  Q 109.84 133.54 107.93 129.24
  A 0.97 0.97 0.0 0 0 106.83 128.68
  C 103.98 129.28 97.82 130.89 97.76 134.60
  A 0.98 0.98 0.0 0 0 98.58 135.58"
/>
<path stroke="#533d3e" vector-effect="non-scaling-stroke" d="
  M 91.51 135.75
  L 68.90 135.75
  Q 68.25 135.75 68.25 136.41
  L 68.25 139.04
  Q 68.25 139.58 68.79 139.58
  L 93.25 139.30
  Q 94.48 139.29 93.57 138.46
  Q 92.69 137.66 92.42 136.48
  Q 92.26 135.75 91.51 135.75"
/>
<path stroke="#82883e" vector-effect="non-scaling-stroke" d="
  M 112.66 148.10
  C 111.95 143.89 110.00 141.94 105.55 142.55
  Q 104.97 142.63 105.05 143.21
  L 105.79 148.97
  Q 105.86 149.55 106.29 149.16
  Q 108.98 146.70 112.16 148.46
  Q 112.78 148.79 112.66 148.10"
/>
<path stroke="#533d3e" vector-effect="non-scaling-stroke" d="
  M 68.64 145.58
  A 0.33 0.33 0.0 0 0 68.31 145.89
  C 67.96 152.33 67.04 158.78 68.70 165.24
  Q 68.87 165.90 69.56 165.90
  L 121.30 165.74
  A 1.05 1.04 -0.3 0 0 122.34 164.70
  L 122.38 146.27
  Q 122.38 145.42 121.52 145.40
  L 118.55 145.33
  Q 117.94 145.32 118.12 145.90
  C 119.88 151.58 117.49 156.89 110.75 154.10
  Q 110.34 153.93 110.00 154.22
  L 107.83 156.10
  Q 107.49 156.40 107.03 156.43
  C 100.36 156.77 100.36 150.16 99.41 145.47
  Q 99.32 144.99 98.83 145.00
  L 68.64 145.58"
/>
<path stroke="#98989a" vector-effect="non-scaling-stroke" d="
  M 91.89 76.93
  A 5.18 5.18 0.0 0 0 86.71 71.75
  A 5.18 5.18 0.0 0 0 81.53 76.93
  A 5.18 5.18 0.0 0 0 86.71 82.11
  A 5.18 5.18 0.0 0 0 91.89 76.93"
/>
<path stroke="#98989a" vector-effect="non-scaling-stroke" d="
  M 74.4755 93.6628
  A 4.56 2.74 65.3 0 0 75.0593 88.3750
  A 4.56 2.74 65.3 0 0 70.6645 85.3772
  A 4.56 2.74 65.3 0 0 70.0807 90.6650
  A 4.56 2.74 65.3 0 0 74.4755 93.6628"
/>
<path stroke="#98989a" vector-effect="non-scaling-stroke" d="
  M 68.1313 96.3954
  A 3.47 2.57 73.4 0 0 69.6029 92.3358
  A 3.47 2.57 73.4 0 0 66.1487 89.7446
  A 3.47 2.57 73.4 0 0 64.6771 93.8042
  A 3.47 2.57 73.4 0 0 68.1313 96.3954"
/>
<path stroke="#98989a" vector-effect="non-scaling-stroke" d="
  M 64.69 96.61
  A 2.45 2.45 0.0 0 0 62.24 94.16
  A 2.45 2.45 0.0 0 0 59.79 96.61
  A 2.45 2.45 0.0 0 0 62.24 99.06
  A 2.45 2.45 0.0 0 0 64.69 96.61"
/>
</g>
<g fill="#38383c">
<path d="
  M 44.20 66.20
  C 49.78 64.81 50.28 70.21 53.58 69.75
  Q 54.06 69.68 54.51 69.85
  C 61.94 72.66 60.35 82.58 56.27 87.30
  Q 55.99 87.62 56.29 87.92
  L 56.55 88.17
  Q 56.69 88.31 56.79 88.15
  Q 60.43 82.57 65.14 77.89
  Q 65.53 77.50 65.48 76.94
  C 63.42 56.84 69.81 44.12 91.48 43.53
  Q 98.74 43.34 103.87 49.39
  C 112.13 59.14 112.63 71.36 111.07 83.41
  Q 111.01 83.92 111.39 84.26
  C 119.46 91.43 123.58 101.45 125.93 111.77
  C 128.35 122.44 133.78 133.06 138.71 142.77
  C 141.65 148.55 144.21 152.51 137.78 157.46
  Q 135.78 159.00 128.67 161.10
  Q 128.13 161.26 128.13 161.82
  C 128.11 166.07 128.26 170.24 123.17 171.04
  C 116.81 172.04 109.51 171.23 104.79 171.24
  Q 88.40 171.26 72.01 171.88
  Q 67.21 172.06 63.81 168.05
  Q 63.49 167.68 63.42 167.19
  C 63.02 164.35 62.20 161.70 62.23 158.87
  Q 62.36 150.07 62.57 141.26
  Q 62.58 140.67 61.99 140.61
  L 58.57 140.24
  Q 57.95 140.17 57.97 140.79
  Q 58.22 150.56 58.50 160.24
  Q 58.59 163.28 57.87 165.50
  Q 57.73 165.96 57.89 166.41
  C 59.71 171.34 46.03 173.98 45.58 163.60
  C 44.58 140.53 44.79 117.59 44.61 94.50
  A 2.59 2.57 -58.7 0 0 44.33 93.33
  C 41.99 88.61 39.28 93.14 41.30 95.97
  Q 41.60 96.39 41.54 96.90
  C 40.87 102.40 35.94 104.14 31.37 101.74
  C 27.43 99.69 26.86 94.53 27.54 90.57
  Q 27.63 90.07 27.34 89.65
  C 24.24 85.02 20.89 73.85 28.83 71.60
  Q 29.37 71.45 29.35 70.89
  C 29.03 61.68 40.70 53.48 43.61 65.84
  Q 43.72 66.31 44.20 66.20
  Z
  M 73.05 71.39
  C 80.34 74.89 74.92 80.25 69.77 81.42
  Q 69.27 81.53 68.91 81.90
  Q 60.02 90.93 54.16 102.18
  A 0.43 0.43 0.0 0 0 54.65 102.79
  Q 66.47 99.55 77.58 94.59
  C 81.86 92.68 87.39 92.96 92.05 92.27
  A 1.01 1.01 0.0 0 0 92.91 91.33
  Q 93.56 79.72 92.09 67.69
  C 91.27 61.00 86.16 60.17 80.51 61.25
  Q 72.52 62.77 71.57 70.68
  Q 71.50 71.25 72.07 71.25
  L 72.45 71.25
  Q 72.77 71.25 73.05 71.39
  Z
  M 30.76 83.45
  C 36.57 77.85 46.69 75.96 52.97 81.59
  Q 53.40 81.97 53.62 81.45
  Q 54.87 78.49 53.32 75.68
  A 0.90 0.90 0.0 0 0 52.07 75.34
  Q 49.19 77.07 47.33 74.37
  C 46.96 73.83 46.96 72.66 46.64 72.35
  Q 45.69 71.41 44.72 72.33
  C 38.07 78.70 39.25 68.15 37.57 65.77
  Q 37.27 65.35 36.84 65.64
  C 33.22 68.02 36.54 75.19 31.87 77.13
  Q 31.41 77.32 30.95 77.16
  C 28.35 76.24 30.00 82.48 30.23 83.30
  A 0.32 0.32 0.0 0 0 30.76 83.45
  Z
  M 34.66 97.27
  A 0.38 0.36 42.3 0 0 35.08 97.26
  Q 35.41 97.02 35.30 96.59
  C 33.97 91.16 36.72 86.01 42.43 85.71
  C 49.70 85.32 50.09 92.04 49.71 97.26
  Q 49.65 98.09 50.24 97.50
  C 51.99 95.78 51.53 91.42 51.02 89.27
  C 50.05 85.21 47.41 83.92 43.34 83.91
  Q 33.39 83.88 32.89 94.31
  C 32.83 95.66 33.63 96.59 34.66 97.27
  Z
  M 85.16 129.24
  C 81.69 124.54 78.82 118.90 86.19 115.73
  Q 86.61 115.55 86.63 115.09
  Q 86.88 108.59 92.82 106.14
  Q 93.35 105.92 93.21 105.36
  Q 92.36 102.02 93.30 98.68
  Q 93.46 98.11 92.87 98.16
  L 83.53 98.94
  A 1.40 1.40 0.0 0 0 82.25 100.35
  Q 82.36 109.05 77.84 116.43
  C 75.78 119.81 67.13 126.35 68.36 129.66
  Q 68.55 130.15 69.08 130.15
  L 84.81 129.94
  A 0.44 0.44 0.0 0 0 85.16 129.24
  Z
  M 62.76 121.56
  C 62.71 116.39 62.93 111.93 63.48 106.67
  Q 63.54 106.10 63.00 106.26
  L 57.92 107.72
  Q 57.50 107.84 57.51 108.28
  L 57.83 122.02
  Q 57.84 122.45 58.27 122.42
  L 62.19 122.17
  Q 62.76 122.14 62.76 121.56
  Z
  M 50.66 113.69
  Q 50.23 138.07 51.14 162.43
  Q 51.18 163.53 51.33 164.59
  Q 51.43 165.26 52.10 165.25
  Q 52.24 165.25 52.37 165.25
  Q 52.82 165.25 52.82 164.80
  C 52.76 154.76 52.07 144.40 52.10 134.75
  Q 52.13 123.00 51.96 111.25
  Q 51.94 109.52 51.56 108.31
  Q 51.38 107.74 50.97 108.16
  L 50.72 108.41
  Q 50.43 108.70 50.47 109.11
  Q 50.70 111.40 50.66 113.69
  Z
  M 87.87 121.56
  A 0.40 0.37 -47.4 0 0 87.63 121.58
  C 85.96 122.30 91.59 127.65 92.31 128.24
  A 1.71 1.71 0.0 0 0 94.47 128.24
  Q 98.58 124.86 103.78 123.61
  Q 104.31 123.48 104.43 122.94
  Q 105.46 118.16 103.75 113.63
  A 0.74 0.74 0.0 0 0 102.36 113.66
  L 101.38 116.58
  Q 101.23 117.02 100.86 117.28
  C 97.06 119.99 95.85 115.11 95.21 112.64
  A 1.09 1.09 0.0 0 0 93.22 112.36
  Q 91.45 115.35 92.90 118.61
  Q 93.14 119.14 92.92 119.67
  Q 91.75 122.51 87.87 121.56
  Z
  M 122.18 132.97
  C 123.73 125.44 121.03 117.70 111.98 118.71
  Q 111.46 118.77 111.45 119.30
  L 111.35 123.99
  Q 111.34 124.45 111.62 124.82
  Q 114.98 129.31 114.08 134.97
  Q 113.95 135.81 114.77 135.58
  L 121.49 133.70
  A 0.98 0.96 -2.1 0 0 122.18 132.97
  Z
  M 58.71 134.42
  L 61.76 134.74
  Q 62.38 134.81 62.36 134.18
  L 62.20 128.14
  Q 62.18 127.57 61.62 127.69
  L 58.27 128.41
  Q 57.63 128.55 57.68 129.21
  L 58.01 133.71
  Q 58.06 134.36 58.71 134.42
  Z
  M 98.58 135.58
  L 105.68 136.85
  Q 106.26 136.95 106.69 136.54
  Q 109.84 133.54 107.93 129.24
  A 0.97 0.97 0.0 0 0 106.83 128.68
  C 103.98 129.28 97.82 130.89 97.76 134.60
  A 0.98 0.98 0.0 0 0 98.58 135.58
  Z
  M 91.51 135.75
  L 68.90 135.75
  Q 68.25 135.75 68.25 136.41
  L 68.25 139.04
  Q 68.25 139.58 68.79 139.58
  L 93.25 139.30
  Q 94.48 139.29 93.57 138.46
  Q 92.69 137.66 92.42 136.48
  Q 92.26 135.75 91.51 135.75
  Z
  M 112.66 148.10
  C 111.95 143.89 110.00 141.94 105.55 142.55
  Q 104.97 142.63 105.05 143.21
  L 105.79 148.97
  Q 105.86 149.55 106.29 149.16
  Q 108.98 146.70 112.16 148.46
  Q 112.78 148.79 112.66 148.10
  Z
  M 68.64 145.58
  A 0.33 0.33 0.0 0 0 68.31 145.89
  C 67.96 152.33 67.04 158.78 68.70 165.24
  Q 68.87 165.90 69.56 165.90
  L 121.30 165.74
  A 1.05 1.04 -0.3 0 0 122.34 164.70
  L 122.38 146.27
  Q 122.38 145.42 121.52 145.40
  L 118.55 145.33
  Q 117.94 145.32 118.12 145.90
  C 119.88 151.58 117.49 156.89 110.75 154.10
  Q 110.34 153.93 110.00 154.22
  L 107.83 156.10
  Q 107.49 156.40 107.03 156.43
  C 100.36 156.77 100.36 150.16 99.41 145.47
  Q 99.32 144.99 98.83 145.00
  L 68.64 145.58
  Z"
/>
<circle cx="86.71" cy="76.93" r="5.18"/>
<ellipse cx="0.00" cy="0.00" transform="translate(72.57,89.52) rotate(65.3)" rx="4.56" ry="2.74"/>
<ellipse cx="0.00" cy="0.00" transform="translate(67.14,93.07) rotate(73.4)" rx="3.47" ry="2.57"/>
<circle cx="62.24" cy="96.61" r="2.45"/>
</g>
<path fill="#f8f8f8" d="
  M 72.45 71.25
  L 72.07 71.25
  Q 71.50 71.25 71.57 70.68
  Q 72.52 62.77 80.51 61.25
  C 86.16 60.17 91.27 61.00 92.09 67.69
  Q 93.56 79.72 92.91 91.33
  A 1.01 1.01 0.0 0 1 92.05 92.27
  C 87.39 92.96 81.86 92.68 77.58 94.59
  Q 66.47 99.55 54.65 102.79
  A 0.43 0.43 0.0 0 1 54.16 102.18
  Q 60.02 90.93 68.91 81.90
  Q 69.27 81.53 69.77 81.42
  C 74.92 80.25 80.34 74.89 73.05 71.39
  Q 72.77 71.25 72.45 71.25
  Z
  M 91.89 76.93
  A 5.18 5.18 0.0 0 0 86.71 71.75
  A 5.18 5.18 0.0 0 0 81.53 76.93
  A 5.18 5.18 0.0 0 0 86.71 82.11
  A 5.18 5.18 0.0 0 0 91.89 76.93
  Z
  M 74.4755 93.6628
  A 4.56 2.74 65.3 0 0 75.0593 88.3750
  A 4.56 2.74 65.3 0 0 70.6645 85.3772
  A 4.56 2.74 65.3 0 0 70.0807 90.6650
  A 4.56 2.74 65.3 0 0 74.4755 93.6628
  Z
  M 68.1313 96.3954
  A 3.47 2.57 73.4 0 0 69.6029 92.3358
  A 3.47 2.57 73.4 0 0 66.1487 89.7446
  A 3.47 2.57 73.4 0 0 64.6771 93.8042
  A 3.47 2.57 73.4 0 0 68.1313 96.3954
  Z
  M 64.69 96.61
  A 2.45 2.45 0.0 0 0 62.24 94.16
  A 2.45 2.45 0.0 0 0 59.79 96.61
  A 2.45 2.45 0.0 0 0 62.24 99.06
  A 2.45 2.45 0.0 0 0 64.69 96.61
  Z"
/>
<g fill="#6e423f">
<path d="
  M 34.66 97.27
  C 33.63 96.59 32.83 95.66 32.89 94.31
  Q 33.39 83.88 43.34 83.91
  C 47.41 83.92 50.05 85.21 51.02 89.27
  C 51.53 91.42 51.99 95.78 50.24 97.50
  Q 49.65 98.09 49.71 97.26
  C 50.09 92.04 49.70 85.32 42.43 85.71
  C 36.72 86.01 33.97 91.16 35.30 96.59
  Q 35.41 97.02 35.08 97.26
  A 0.38 0.36 42.3 0 1 34.66 97.27
  Z"
/>
<path d="
  M 85.16 129.24
  A 0.44 0.44 0.0 0 1 84.81 129.94
  L 69.08 130.15
  Q 68.55 130.15 68.36 129.66
  C 67.13 126.35 75.78 119.81 77.84 116.43
  Q 82.36 109.05 82.25 100.35
  A 1.40 1.40 0.0 0 1 83.53 98.94
  L 92.87 98.16
  Q 93.46 98.11 93.30 98.68
  Q 92.36 102.02 93.21 105.36
  Q 93.35 105.92 92.82 106.14
  Q 86.88 108.59 86.63 115.09
  Q 86.61 115.55 86.19 115.73
  C 78.82 118.90 81.69 124.54 85.16 129.24
  Z"
/>
<path d="
  M 50.66 113.69
  Q 50.70 111.40 50.47 109.11
  Q 50.43 108.70 50.72 108.41
  L 50.97 108.16
  Q 51.38 107.74 51.56 108.31
  Q 51.94 109.52 51.96 111.25
  Q 52.13 123.00 52.10 134.75
  C 52.07 144.40 52.76 154.76 52.82 164.80
  Q 52.82 165.25 52.37 165.25
  Q 52.24 165.25 52.10 165.25
  Q 51.43 165.26 51.33 164.59
  Q 51.18 163.53 51.14 162.43
  Q 50.23 138.07 50.66 113.69
  Z"
/>
<path d="
  M 111.98 118.71
  C 121.03 117.70 123.73 125.44 122.18 132.97
  A 0.98 0.96 -2.1 0 1 121.49 133.70
  L 114.77 135.58
  Q 113.95 135.81 114.08 134.97
  Q 114.98 129.31 111.62 124.82
  Q 111.34 124.45 111.35 123.99
  L 111.45 119.30
  Q 111.46 118.77 111.98 118.71
  Z"
/>
<path d="
  M 58.01 133.71
  L 57.68 129.21
  Q 57.63 128.55 58.27 128.41
  L 61.62 127.69
  Q 62.18 127.57 62.20 128.14
  L 62.36 134.18
  Q 62.38 134.81 61.76 134.74
  L 58.71 134.42
  Q 58.06 134.36 58.01 133.71
  Z"
/>
<path d="
  M 98.58 135.58
  A 0.98 0.98 0.0 0 1 97.76 134.60
  C 97.82 130.89 103.98 129.28 106.83 128.68
  A 0.97 0.97 0.0 0 1 107.93 129.24
  Q 109.84 133.54 106.69 136.54
  Q 106.26 136.95 105.68 136.85
  L 98.58 135.58
  Z"
/>
<path d="
  M 92.42 136.48
  Q 92.69 137.66 93.57 138.46
  Q 94.48 139.29 93.25 139.30
  L 68.79 139.58
  Q 68.25 139.58 68.25 139.04
  L 68.25 136.41
  Q 68.25 135.75 68.90 135.75
  L 91.51 135.75
  Q 92.26 135.75 92.42 136.48
  Z"
/>
<path d="
  M 68.64 145.58
  L 98.83 145.00
  Q 99.32 144.99 99.41 145.47
  C 100.36 150.16 100.36 156.77 107.03 156.43
  Q 107.49 156.40 107.83 156.10
  L 110.00 154.22
  Q 110.34 153.93 110.75 154.10
  C 117.49 156.89 119.88 151.58 118.12 145.90
  Q 117.94 145.32 118.55 145.33
  L 121.52 145.40
  Q 122.38 145.42 122.38 146.27
  L 122.34 164.70
  A 1.05 1.04 -0.3 0 1 121.30 165.74
  L 69.56 165.90
  Q 68.87 165.90 68.70 165.24
  C 67.04 158.78 67.96 152.33 68.31 145.89
  A 0.33 0.33 0.0 0 1 68.64 145.58
  Z"
/>
</g>
<g fill="#ccd73f">
<path d="
  M 30.76 83.45
  A 0.32 0.32 0.0 0 1 30.23 83.30
  C 30.00 82.48 28.35 76.24 30.95 77.16
  Q 31.41 77.32 31.87 77.13
  C 36.54 75.19 33.22 68.02 36.84 65.64
  Q 37.27 65.35 37.57 65.77
  C 39.25 68.15 38.07 78.70 44.72 72.33
  Q 45.69 71.41 46.64 72.35
  C 46.96 72.66 46.96 73.83 47.33 74.37
  Q 49.19 77.07 52.07 75.34
  A 0.90 0.90 0.0 0 1 53.32 75.68
  Q 54.87 78.49 53.62 81.45
  Q 53.40 81.97 52.97 81.59
  C 46.69 75.96 36.57 77.85 30.76 83.45
  Z"
/>
<path d="
  M 87.87 121.56
  Q 91.75 122.51 92.92 119.67
  Q 93.14 119.14 92.90 118.61
  Q 91.45 115.35 93.22 112.36
  A 1.09 1.09 0.0 0 1 95.21 112.64
  C 95.85 115.11 97.06 119.99 100.86 117.28
  Q 101.23 117.02 101.38 116.58
  L 102.36 113.66
  A 0.74 0.74 0.0 0 1 103.75 113.63
  Q 105.46 118.16 104.43 122.94
  Q 104.31 123.48 103.78 123.61
  Q 98.58 124.86 94.47 128.24
  A 1.71 1.71 0.0 0 1 92.31 128.24
  C 91.59 127.65 85.96 122.30 87.63 121.58
  A 0.40 0.37 -47.4 0 1 87.87 121.56
  Z"
/>
<path d="
  M 105.55 142.55
  C 110.00 141.94 111.95 143.89 112.66 148.10
  Q 112.78 148.79 112.16 148.46
  Q 108.98 146.70 106.29 149.16
  Q 105.86 149.55 105.79 148.97
  L 105.05 143.21
  Q 104.97 142.63 105.55 142.55
  Z"
/>
</g>
</svg>
