<?xml version="1.0" encoding="UTF-8" standalone="no"?>
<!DOCTYPE svg PUBLIC "-//W3C//DTD SVG 1.1//EN" "http://www.w3.org/Graphics/SVG/1.1/DTD/svg11.dtd">
<svg xmlns="http://www.w3.org/2000/svg" version="1.1" viewBox="0 0 180 180">
<g stroke-width="2.00" fill="none" stroke-linecap="butt">
<path stroke="#927a6d" vector-effect="non-scaling-stroke" d="
  M 71.20 84.25
  C 72.09 89.21 77.16 95.89 81.91 97.56
  C 88.07 99.73 97.29 98.92 101.24 92.90
  C 102.89 90.40 101.75 86.98 106.32 87.04
  C 111.40 87.10 116.55 83.00 114.95 77.61
  C 112.96 70.91 104.33 77.59 104.99 69.99
  C 106.02 58.19 97.91 48.97 85.72 50.35
  C 75.03 51.55 69.95 62.55 70.49 72.13
  C 70.72 76.27 70.72 81.57 71.20 84.25"
/>
<path stroke="#543d3e" vector-effect="non-scaling-stroke" d="
  M 34.75 97.33
  A 0.40 0.40 0.0 0 0 35.37 97.00
  C 35.36 95.66 34.77 94.59 34.89 93.27
  C 35.39 87.66 40.16 84.53 45.39 86.11
  C 49.91 87.48 49.47 91.24 49.81 96.01
  C 51.37 118.10 50.56 142.07 50.99 162.57
  Q 51.02 164.17 51.95 165.36
  A 0.57 0.56 -65.4 0 0 52.96 164.98
  Q 51.71 137.90 52.02 110.82
  C 52.05 108.19 51.18 104.91 51.36 102.57
  C 51.87 96.05 52.78 84.90 45.54 84.03
  Q 33.35 82.57 32.91 94.33
  C 32.86 95.77 33.65 96.60 34.75 97.33"
/>
<path stroke="#98989a" vector-effect="non-scaling-stroke" d="
  M 112.17 125.74
  Q 114.55 130.17 113.94 135.24
  Q 113.86 135.91 114.51 135.73
  L 120.31 134.18
  Q 120.87 134.03 121.14 133.52
  Q 122.00 131.84 121.93 130.19
  C 121.33 116.89 119.49 104.26 111.91 92.68
  Q 111.53 92.10 110.86 92.24
  L 108.21 92.79
  Q 107.66 92.91 107.43 93.41
  Q 104.85 98.98 100.86 101.09
  Q 84.57 109.69 71.77 97.13
  Q 71.43 96.79 71.19 97.21
  Q 70.02 99.35 69.79 101.01
  Q 67.89 114.65 68.09 129.59
  A 0.58 0.58 0.0 0 0 68.68 130.16
  L 92.68 129.93
  Q 93.21 129.93 93.58 129.55
  C 97.24 125.78 100.59 124.67 105.41 122.95
  A 0.98 0.98 0.0 0 0 106.06 121.95
  L 105.71 117.47
  Q 105.67 116.92 105.98 116.46
  C 107.51 114.27 109.72 115.06 110.58 117.32
  Q 111.76 120.42 111.09 123.65
  Q 111.00 124.09 111.19 124.49
  C 111.45 125.05 111.95 125.32 112.17 125.74"
/>
<path stroke="#927a6d" vector-effect="non-scaling-stroke" d="
  M 57.75 134.06
  A 0.32 0.32 0.0 0 0 58.03 134.37
  L 61.88 134.85
  A 0.32 0.32 0.0 0 0 62.24 134.53
  L 62.26 127.99
  A 0.32 0.32 0.0 0 0 61.89 127.67
  L 58.02 128.23
  A 0.32 0.32 0.0 0 0 57.75 128.55
  L 57.75 134.06"
/>
<path stroke="#927a6d" vector-effect="non-scaling-stroke" d="
  M 98.90 135.74
  L 105.71 136.88
  Q 106.26 136.97 106.66 136.59
  Q 110.13 133.36 107.75 129.01
  Q 107.53 128.61 107.07 128.68
  C 104.28 129.12 98.30 130.74 97.74 134.11
  A 1.42 1.41 -80.6 0 0 98.90 135.74"
/>
<path stroke="#543d3e" vector-effect="non-scaling-stroke" d="
  M 91.94 135.97
  A 0.45 0.45 0.0 0 0 91.55 135.75
  L 68.72 135.75
  A 0.45 0.45 0.0 0 0 68.27 136.20
  L 68.24 139.13
  A 0.45 0.45 0.0 0 0 68.70 139.58
  L 93.13 139.28
  A 0.45 0.45 0.0 0 0 93.51 138.60
  L 91.94 135.97"
/>
<path stroke="#98989a" vector-effect="non-scaling-stroke" d="
  M 121.83 145.19
  L 68.78 145.20
  Q 68.11 145.20 68.08 145.87
  C 67.83 152.36 67.15 157.92 68.40 164.74
  Q 68.50 165.25 68.96 165.47
  Q 70.74 166.31 72.57 166.24
  C 89.40 165.57 105.28 165.72 121.60 165.73
  A 0.71 0.71 0.0 0 0 122.31 165.03
  L 122.46 145.83
  Q 122.47 145.19 121.83 145.19"
/>
<path stroke="#927a6d" vector-effect="non-scaling-stroke" d="
  M 85.0344 75.5564
  A 2.51 2.51 0.0 0 0 82.5113 73.0596
  L 82.3113 73.0607
  A 2.51 2.51 0.0 0 0 79.8144 75.5838
  L 79.8856 89.1836
  A 2.51 2.51 0.0 0 0 82.4087 91.6804
  L 82.6087 91.6793
  A 2.51 2.51 0.0 0 0 85.1056 89.1562
  L 85.0344 75.5564"
/>
</g>
<g fill="#f8f8f8">
<path d="
  M 112.17 125.74
  C 111.95 125.32 111.45 125.05 111.19 124.49
  Q 111.00 124.09 111.09 123.65
  Q 111.76 120.42 110.58 117.32
  C 109.72 115.06 107.51 114.27 105.98 116.46
  Q 105.67 116.92 105.71 117.47
  L 106.06 121.95
  A 0.98 0.98 0.0 0 1 105.41 122.95
  C 100.59 124.67 97.24 125.78 93.58 129.55
  Q 93.21 129.93 92.68 129.93
  L 68.68 130.16
  A 0.58 0.58 0.0 0 1 68.09 129.59
  Q 67.89 114.65 69.79 101.01
  Q 70.02 99.35 71.19 97.21
  Q 71.43 96.79 71.77 97.13
  Q 84.57 109.69 100.86 101.09
  Q 104.85 98.98 107.43 93.41
  Q 107.66 92.91 108.21 92.79
  L 110.86 92.24
  Q 111.53 92.10 111.91 92.68
  C 119.49 104.26 121.33 116.89 121.93 130.19
  Q 122.00 131.84 121.14 133.52
  Q 120.87 134.03 120.31 134.18
  L 114.51 135.73
  Q 113.86 135.91 113.94 135.24
  Q 114.55 130.17 112.17 125.74
  Z"
/>
<path d="
  M 68.78 145.20
  L 121.83 145.19
  Q 122.47 145.19 122.46 145.83
  L 122.31 165.03
  A 0.71 0.71 0.0 0 1 121.60 165.73
  C 105.28 165.72 89.40 165.57 72.57 166.24
  Q 70.74 166.31 68.96 165.47
  Q 68.50 165.25 68.40 164.74
  C 67.15 157.92 67.83 152.36 68.08 145.87
  Q 68.11 145.20 68.78 145.20
  Z"
/>
</g>
<g fill="#38383c">
<path d="
  M 58.24 122.42
  L 62.19 122.17
  Q 62.72 122.14 62.72 121.60
  C 62.60 111.55 62.85 100.73 67.73 91.70
  Q 67.98 91.23 67.80 90.73
  C 64.47 81.56 63.49 64.15 69.53 55.21
  C 82.60 35.87 110.70 44.46 110.80 67.82
  Q 110.81 68.35 111.33 68.46
  C 122.01 70.61 123.77 81.65 116.76 88.91
  Q 116.40 89.28 116.68 89.70
  C 125.92 103.62 127.30 118.76 127.71 134.99
  C 127.97 145.13 128.80 156.03 127.99 165.99
  C 127.31 174.37 110.43 171.24 105.16 171.24
  Q 88.58 171.25 72.01 171.88
  C 67.96 172.03 64.05 169.84 63.11 165.57
  C 61.19 156.98 62.69 149.47 62.48 141.23
  Q 62.46 140.63 61.87 140.58
  L 58.55 140.24
  Q 57.95 140.18 57.96 140.79
  Q 58.23 150.68 58.57 160.49
  Q 58.66 163.04 57.85 165.43
  Q 57.69 165.90 57.87 166.36
  C 59.77 171.28 46.12 174.11 45.57 163.51
  C 44.38 140.50 44.80 117.49 44.61 94.46
  C 44.60 93.64 43.98 92.60 43.80 91.77
  A 1.03 1.03 0.0 0 0 42.21 91.14
  C 38.30 93.81 42.39 95.40 41.16 98.59
  Q 38.91 104.44 32.22 102.03
  C 26.28 99.89 26.67 91.80 28.62 87.51
  Q 32.87 78.18 43.50 78.35
  Q 52.42 78.49 55.55 85.46
  C 57.71 90.24 56.46 97.96 56.84 102.74
  Q 57.88 115.64 57.82 122.02
  Q 57.81 122.45 58.24 122.42
  Z
  M 71.20 84.25
  C 72.09 89.21 77.16 95.89 81.91 97.56
  C 88.07 99.73 97.29 98.92 101.24 92.90
  C 102.89 90.40 101.75 86.98 106.32 87.04
  C 111.40 87.10 116.55 83.00 114.95 77.61
  C 112.96 70.91 104.33 77.59 104.99 69.99
  C 106.02 58.19 97.91 48.97 85.72 50.35
  C 75.03 51.55 69.95 62.55 70.49 72.13
  C 70.72 76.27 70.72 81.57 71.20 84.25
  Z
  M 34.75 97.33
  A 0.40 0.40 0.0 0 0 35.37 97.00
  C 35.36 95.66 34.77 94.59 34.89 93.27
  C 35.39 87.66 40.16 84.53 45.39 86.11
  C 49.91 87.48 49.47 91.24 49.81 96.01
  C 51.37 118.10 50.56 142.07 50.99 162.57
  Q 51.02 164.17 51.95 165.36
  A 0.57 0.56 -65.4 0 0 52.96 164.98
  Q 51.71 137.90 52.02 110.82
  C 52.05 108.19 51.18 104.91 51.36 102.57
  C 51.87 96.05 52.78 84.90 45.54 84.03
  Q 33.35 82.57 32.91 94.33
  C 32.86 95.77 33.65 96.60 34.75 97.33
  Z
  M 112.17 125.74
  Q 114.55 130.17 113.94 135.24
  Q 113.86 135.91 114.51 135.73
  L 120.31 134.18
  Q 120.87 134.03 121.14 133.52
  Q 122.00 131.84 121.93 130.19
  C 121.33 116.89 119.49 104.26 111.91 92.68
  Q 111.53 92.10 110.86 92.24
  L 108.21 92.79
  Q 107.66 92.91 107.43 93.41
  Q 104.85 98.98 100.86 101.09
  Q 84.57 109.69 71.77 97.13
  Q 71.43 96.79 71.19 97.21
  Q 70.02 99.35 69.79 101.01
  Q 67.89 114.65 68.09 129.59
  A 0.58 0.58 0.0 0 0 68.68 130.16
  L 92.68 129.93
  Q 93.21 129.93 93.58 129.55
  C 97.24 125.78 100.59 124.67 105.41 122.95
  A 0.98 0.98 0.0 0 0 106.06 121.95
  L 105.71 117.47
  Q 105.67 116.92 105.98 116.46
  C 107.51 114.27 109.72 115.06 110.58 117.32
  Q 111.76 120.42 111.09 123.65
  Q 111.00 124.09 111.19 124.49
  C 111.45 125.05 111.95 125.32 112.17 125.74
  Z
  M 57.75 134.06
  A 0.32 0.32 0.0 0 0 58.03 134.37
  L 61.88 134.85
  A 0.32 0.32 0.0 0 0 62.24 134.53
  L 62.26 127.99
  A 0.32 0.32 0.0 0 0 61.89 127.67
  L 58.02 128.23
  A 0.32 0.32 0.0 0 0 57.75 128.55
  L 57.75 134.06
  Z
  M 98.90 135.74
  L 105.71 136.88
  Q 106.26 136.97 106.66 136.59
  Q 110.13 133.36 107.75 129.01
  Q 107.53 128.61 107.07 128.68
  C 104.28 129.12 98.30 130.74 97.74 134.11
  A 1.42 1.41 -80.6 0 0 98.90 135.74
  Z
  M 91.94 135.97
  A 0.45 0.45 0.0 0 0 91.55 135.75
  L 68.72 135.75
  A 0.45 0.45 0.0 0 0 68.27 136.20
  L 68.24 139.13
  A 0.45 0.45 0.0 0 0 68.70 139.58
  L 93.13 139.28
  A 0.45 0.45 0.0 0 0 93.51 138.60
  L 91.94 135.97
  Z
  M 121.83 145.19
  L 68.78 145.20
  Q 68.11 145.20 68.08 145.87
  C 67.83 152.36 67.15 157.92 68.40 164.74
  Q 68.50 165.25 68.96 165.47
  Q 70.74 166.31 72.57 166.24
  C 89.40 165.57 105.28 165.72 121.60 165.73
  A 0.71 0.71 0.0 0 0 122.31 165.03
  L 122.46 145.83
  Q 122.47 145.19 121.83 145.19
  Z"
/>
<rect x="-2.61" y="-9.31" transform="translate(82.46,82.37) rotate(-0.3)" width="5.22" height="18.62" rx="2.51"/>
</g>
<g fill="#ebbc9e">
<path d="
  M 81.91 97.56
  C 77.16 95.89 72.09 89.21 71.20 84.25
  C 70.72 81.57 70.72 76.27 70.49 72.13
  C 69.95 62.55 75.03 51.55 85.72 50.35
  C 97.91 48.97 106.02 58.19 104.99 69.99
  C 104.33 77.59 112.96 70.91 114.95 77.61
  C 116.55 83.00 111.40 87.10 106.32 87.04
  C 101.75 86.98 102.89 90.40 101.24 92.90
  C 97.29 98.92 88.07 99.73 81.91 97.56
  Z
  M 85.0344 75.5564
  A 2.51 2.51 0.0 0 0 82.5113 73.0596
  L 82.3113 73.0607
  A 2.51 2.51 0.0 0 0 79.8144 75.5838
  L 79.8856 89.1836
  A 2.51 2.51 0.0 0 0 82.4087 91.6804
  L 82.6087 91.6793
  A 2.51 2.51 0.0 0 0 85.1056 89.1562
  L 85.0344 75.5564
  Z"
/>
<path d="
  M 57.75 134.06
  L 57.75 128.55
  A 0.32 0.32 0.0 0 1 58.02 128.23
  L 61.89 127.67
  A 0.32 0.32 0.0 0 1 62.26 127.99
  L 62.24 134.53
  A 0.32 0.32 0.0 0 1 61.88 134.85
  L 58.03 134.37
  A 0.32 0.32 0.0 0 1 57.75 134.06
  Z"
/>
<path d="
  M 98.90 135.74
  A 1.42 1.41 -80.6 0 1 97.74 134.11
  C 98.30 130.74 104.28 129.12 107.07 128.68
  Q 107.53 128.61 107.75 129.01
  Q 110.13 133.36 106.66 136.59
  Q 106.26 136.97 105.71 136.88
  L 98.90 135.74
  Z"
/>
</g>
<g fill="#6f423f">
<path d="
  M 34.75 97.33
  C 33.65 96.60 32.86 95.77 32.91 94.33
  Q 33.35 82.57 45.54 84.03
  C 52.78 84.90 51.87 96.05 51.36 102.57
  C 51.18 104.91 52.05 108.19 52.02 110.82
  Q 51.71 137.90 52.96 164.98
  A 0.57 0.56 -65.4 0 1 51.95 165.36
  Q 51.02 164.17 50.99 162.57
  C 50.56 142.07 51.37 118.10 49.81 96.01
  C 49.47 91.24 49.91 87.48 45.39 86.11
  C 40.16 84.53 35.39 87.66 34.89 93.27
  C 34.77 94.59 35.36 95.66 35.37 97.00
  A 0.40 0.40 0.0 0 1 34.75 97.33
  Z"
/>
<path d="
  M 91.94 135.97
  L 93.51 138.60
  A 0.45 0.45 0.0 0 1 93.13 139.28
  L 68.70 139.58
  A 0.45 0.45 0.0 0 1 68.24 139.13
  L 68.27 136.20
  A 0.45 0.45 0.0 0 1 68.72 135.75
  L 91.55 135.75
  A 0.45 0.45 0.0 0 1 91.94 135.97
  Z"
/>
</g>
</svg>
