<?xml version="1.0" encoding="UTF-8" standalone="no"?>
<!DOCTYPE svg PUBLIC "-//W3C//DTD SVG 1.1//EN" "http://www.w3.org/Graphics/SVG/1.1/DTD/svg11.dtd">
<svg xmlns="http://www.w3.org/2000/svg" version="1.1" viewBox="0 0 180 180">
<g stroke-width="2.00" fill="none" stroke-linecap="butt">
<path stroke="#927a6d" vector-effect="non-scaling-stroke" d="
  M 71.20 73.10
  C 69.30 86.51 76.35 101.80 92.47 98.27
  Q 92.94 98.17 92.95 97.68
  Q 93.26 84.78 92.37 71.82
  C 92.06 67.36 90.22 63.02 85.55 62.94
  Q 72.67 62.72 71.20 73.10"
/>
<path stroke="#533d3e" vector-effect="non-scaling-stroke" d="
  M 92.50 104.71
  L 82.63 104.24
  Q 82.21 104.22 82.18 104.64
  C 81.36 116.20 75.91 121.20 68.22 129.03
  A 0.66 0.66 0.0 0 0 68.70 130.16
  L 91.31 129.72
  A 0.64 0.63 -8.7 0 0 91.91 128.91
  Q 89.39 120.18 88.81 110.85
  C 88.56 106.78 93.17 105.88 92.97 105.09
  Q 92.87 104.73 92.50 104.71"
/>
<path stroke="#98989a" vector-effect="non-scaling-stroke" d="
  M 54.54 125.12
  A 0.35 0.35 0.0 0 0 55.03 125.38
  L 58.89 123.67
  A 0.35 0.35 0.0 0 0 59.03 123.14
  L 53.30 115.38
  A 0.35 0.35 0.0 0 0 52.68 115.66
  L 54.54 125.12"
/>
<path stroke="#98989a" vector-effect="non-scaling-stroke" d="
  M 96.75 125.71
  A 0.50 0.50 0.0 0 0 97.44 126.07
  L 101.15 124.46
  A 0.50 0.50 0.0 0 0 101.36 123.71
  L 95.77 115.92
  A 0.50 0.50 0.0 0 0 94.87 116.31
  L 96.75 125.71"
/>
<path stroke="#927a6d" vector-effect="non-scaling-stroke" d="
  M 54.99 133.21
  Q 58.20 134.73 61.79 134.70
  Q 62.25 134.70 62.25 134.24
  L 62.25 128.90
  Q 62.25 127.82 61.35 128.41
  L 54.95 132.58
  Q 54.41 132.93 54.99 133.21"
/>
<path stroke="#927a6d" vector-effect="non-scaling-stroke" d="
  M 98.87 135.72
  L 105.59 136.87
  Q 106.26 136.98 106.74 136.52
  Q 110.10 133.31 107.75 129.01
  A 0.75 0.74 69.2 0 0 106.94 128.64
  C 104.17 129.23 98.41 130.73 97.71 134.02
  A 1.43 1.42 10.9 0 0 98.87 135.72"
/>
<path stroke="#533d3e" vector-effect="non-scaling-stroke" d="
  M 122.17 133.06
  C 123.92 127.78 117.15 129.29 114.63 130.25
  Q 114.25 130.40 114.24 130.81
  L 114.18 135.18
  Q 114.17 135.72 114.70 135.58
  L 121.50 133.70
  Q 122.00 133.56 122.17 133.06"
/>
<path stroke="#533d3e" vector-effect="non-scaling-stroke" d="
  M 91.48 135.75
  L 68.90 135.75
  Q 68.25 135.75 68.25 136.41
  L 68.25 139.04
  Q 68.25 139.58 68.79 139.58
  L 93.25 139.29
  Q 94.53 139.27 93.56 138.44
  Q 92.62 137.64 92.33 136.42
  Q 92.16 135.75 91.48 135.75"
/>
<path stroke="#533d3e" vector-effect="non-scaling-stroke" d="
  M 68.58 145.42
  A 0.27 0.27 0.0 0 0 68.31 145.67
  C 67.91 152.05 67.08 158.66 68.65 164.99
  Q 68.77 165.47 69.24 165.59
  C 73.78 166.77 79.52 165.78 84.04 165.72
  A 1.55 1.55 0.0 0 0 85.57 164.10
  C 85.41 160.72 84.80 156.56 86.13 153.66
  C 89.80 145.68 101.48 147.08 105.32 153.84
  C 107.40 157.49 106.41 160.83 107.01 164.36
  A 1.50 1.49 85.6 0 0 108.46 165.61
  L 121.38 165.80
  A 0.94 0.94 0.0 0 0 122.33 164.86
  L 122.40 146.13
  Q 122.40 145.12 121.38 145.12
  L 68.58 145.42"
/>
<path stroke="#927a6d" vector-effect="non-scaling-stroke" d="
  M 84.9997 75.4477
  A 2.40 2.40 0.0 0 0 82.5788 73.0688
  L 82.2189 73.0719
  A 2.40 2.40 0.0 0 0 79.8399 75.4928
  L 79.9603 89.2923
  A 2.40 2.40 0.0 0 0 82.3812 91.6712
  L 82.7411 91.6681
  A 2.40 2.40 0.0 0 0 85.1201 89.2472
  L 84.9997 75.4477"
/>
</g>
<g fill="#38383c">
<path d="
  M 62.67 118.22
  Q 62.86 109.52 64.15 100.90
  C 64.57 98.10 66.62 94.91 66.28 92.20
  Q 64.51 77.73 65.32 67.27
  C 66.40 53.09 77.80 42.90 91.90 44.84
  C 111.18 47.50 113.11 68.55 111.19 83.57
  Q 111.13 84.07 111.51 84.40
  C 119.54 91.08 123.35 101.33 125.54 111.20
  C 128.78 125.83 135.27 139.34 142.74 153.50
  C 147.93 163.36 134.07 167.67 127.45 169.02
  Q 126.97 169.12 126.61 169.45
  C 122.57 173.13 110.20 171.65 105.49 170.53
  Q 102.09 169.73 99.40 169.78
  C 96.21 169.84 91.58 169.39 88.62 170.42
  C 83.64 172.16 64.37 174.81 63.12 165.29
  C 62.88 163.46 62.21 161.69 62.23 159.87
  Q 62.34 150.48 62.57 141.15
  A 0.68 0.67 -0.0 0 0 61.87 140.46
  C 56.62 140.61 46.61 137.72 48.80 130.47
  Q 49.53 128.07 49.41 126.91
  C 48.92 122.00 44.05 108.12 49.22 106.46
  C 53.28 105.16 60.24 115.49 62.26 118.35
  Q 62.65 118.91 62.67 118.22
  Z
  M 71.20 73.10
  C 69.30 86.51 76.35 101.80 92.47 98.27
  Q 92.94 98.17 92.95 97.68
  Q 93.26 84.78 92.37 71.82
  C 92.06 67.36 90.22 63.02 85.55 62.94
  Q 72.67 62.72 71.20 73.10
  Z
  M 92.50 104.71
  L 82.63 104.24
  Q 82.21 104.22 82.18 104.64
  C 81.36 116.20 75.91 121.20 68.22 129.03
  A 0.66 0.66 0.0 0 0 68.70 130.16
  L 91.31 129.72
  A 0.64 0.63 -8.7 0 0 91.91 128.91
  Q 89.39 120.18 88.81 110.85
  C 88.56 106.78 93.17 105.88 92.97 105.09
  Q 92.87 104.73 92.50 104.71
  Z
  M 54.54 125.12
  A 0.35 0.35 0.0 0 0 55.03 125.38
  L 58.89 123.67
  A 0.35 0.35 0.0 0 0 59.03 123.14
  L 53.30 115.38
  A 0.35 0.35 0.0 0 0 52.68 115.66
  L 54.54 125.12
  Z
  M 96.75 125.71
  A 0.50 0.50 0.0 0 0 97.44 126.07
  L 101.15 124.46
  A 0.50 0.50 0.0 0 0 101.36 123.71
  L 95.77 115.92
  A 0.50 0.50 0.0 0 0 94.87 116.31
  L 96.75 125.71
  Z
  M 54.99 133.21
  Q 58.20 134.73 61.79 134.70
  Q 62.25 134.70 62.25 134.24
  L 62.25 128.90
  Q 62.25 127.82 61.35 128.41
  L 54.95 132.58
  Q 54.41 132.93 54.99 133.21
  Z
  M 98.87 135.72
  L 105.59 136.87
  Q 106.26 136.98 106.74 136.52
  Q 110.10 133.31 107.75 129.01
  A 0.75 0.74 69.2 0 0 106.94 128.64
  C 104.17 129.23 98.41 130.73 97.71 134.02
  A 1.43 1.42 10.9 0 0 98.87 135.72
  Z
  M 122.17 133.06
  C 123.92 127.78 117.15 129.29 114.63 130.25
  Q 114.25 130.40 114.24 130.81
  L 114.18 135.18
  Q 114.17 135.72 114.70 135.58
  L 121.50 133.70
  Q 122.00 133.56 122.17 133.06
  Z
  M 91.48 135.75
  L 68.90 135.75
  Q 68.25 135.75 68.25 136.41
  L 68.25 139.04
  Q 68.25 139.58 68.79 139.58
  L 93.25 139.29
  Q 94.53 139.27 93.56 138.44
  Q 92.62 137.64 92.33 136.42
  Q 92.16 135.75 91.48 135.75
  Z
  M 68.58 145.42
  A 0.27 0.27 0.0 0 0 68.31 145.67
  C 67.91 152.05 67.08 158.66 68.65 164.99
  Q 68.77 165.47 69.24 165.59
  C 73.78 166.77 79.52 165.78 84.04 165.72
  A 1.55 1.55 0.0 0 0 85.57 164.10
  C 85.41 160.72 84.80 156.56 86.13 153.66
  C 89.80 145.68 101.48 147.08 105.32 153.84
  C 107.40 157.49 106.41 160.83 107.01 164.36
  A 1.50 1.49 85.6 0 0 108.46 165.61
  L 121.38 165.80
  A 0.94 0.94 0.0 0 0 122.33 164.86
  L 122.40 146.13
  Q 122.40 145.12 121.38 145.12
  L 68.58 145.42
  Z"
/>
<rect x="-2.58" y="-9.30" transform="translate(82.48,82.37) rotate(-0.5)" width="5.16" height="18.60" rx="2.40"/>
</g>
<g fill="#ebbc9e">
<path d="
  M 92.47 98.27
  C 76.35 101.80 69.30 86.51 71.20 73.10
  Q 72.67 62.72 85.55 62.94
  C 90.22 63.02 92.06 67.36 92.37 71.82
  Q 93.26 84.78 92.95 97.68
  Q 92.94 98.17 92.47 98.27
  Z
  M 84.9997 75.4477
  A 2.40 2.40 0.0 0 0 82.5788 73.0688
  L 82.2189 73.0719
  A 2.40 2.40 0.0 0 0 79.8399 75.4928
  L 79.9603 89.2923
  A 2.40 2.40 0.0 0 0 82.3812 91.6712
  L 82.7411 91.6681
  A 2.40 2.40 0.0 0 0 85.1201 89.2472
  L 84.9997 75.4477
  Z"
/>
<path d="
  M 54.99 133.21
  Q 54.41 132.93 54.95 132.58
  L 61.35 128.41
  Q 62.25 127.82 62.25 128.90
  L 62.25 134.24
  Q 62.25 134.70 61.79 134.70
  Q 58.20 134.73 54.99 133.21
  Z"
/>
<path d="
  M 98.87 135.72
  A 1.43 1.42 10.9 0 1 97.71 134.02
  C 98.41 130.73 104.17 129.23 106.94 128.64
  A 0.75 0.74 69.2 0 1 107.75 129.01
  Q 110.10 133.31 106.74 136.52
  Q 106.26 136.98 105.59 136.87
  L 98.87 135.72
  Z"
/>
</g>
<g fill="#6e423f">
<path d="
  M 82.63 104.24
  L 92.50 104.71
  Q 92.87 104.73 92.97 105.09
  C 93.17 105.88 88.56 106.78 88.81 110.85
  Q 89.39 120.18 91.91 128.91
  A 0.64 0.63 -8.7 0 1 91.31 129.72
  L 68.70 130.16
  A 0.66 0.66 0.0 0 1 68.22 129.03
  C 75.91 121.20 81.36 116.20 82.18 104.64
  Q 82.21 104.22 82.63 104.24
  Z"
/>
<path d="
  M 114.63 130.25
  C 117.15 129.29 123.92 127.78 122.17 133.06
  Q 122.00 133.56 121.50 133.70
  L 114.70 135.58
  Q 114.17 135.72 114.18 135.18
  L 114.24 130.81
  Q 114.25 130.40 114.63 130.25
  Z"
/>
<path d="
  M 92.33 136.42
  Q 92.62 137.64 93.56 138.44
  Q 94.53 139.27 93.25 139.29
  L 68.79 139.58
  Q 68.25 139.58 68.25 139.04
  L 68.25 136.41
  Q 68.25 135.75 68.90 135.75
  L 91.48 135.75
  Q 92.16 135.75 92.33 136.42
  Z"
/>
<path d="
  M 68.58 145.42
  L 121.38 145.12
  Q 122.40 145.12 122.40 146.13
  L 122.33 164.86
  A 0.94 0.94 0.0 0 1 121.38 165.80
  L 108.46 165.61
  A 1.50 1.49 85.6 0 1 107.01 164.36
  C 106.41 160.83 107.40 157.49 105.32 153.84
  C 101.48 147.08 89.80 145.68 86.13 153.66
  C 84.80 156.56 85.41 160.72 85.57 164.10
  A 1.55 1.55 0.0 0 1 84.04 165.72
  C 79.52 165.78 73.78 166.77 69.24 165.59
  Q 68.77 165.47 68.65 164.99
  C 67.08 158.66 67.91 152.05 68.31 145.67
  A 0.27 0.27 0.0 0 1 68.58 145.42
  Z"
/>
</g>
<g fill="#f8f8f8">
<path d="
  M 54.54 125.12
  L 52.68 115.66
  A 0.35 0.35 0.0 0 1 53.30 115.38
  L 59.03 123.14
  A 0.35 0.35 0.0 0 1 58.89 123.67
  L 55.03 125.38
  A 0.35 0.35 0.0 0 1 54.54 125.12
  Z"
/>
<path d="
  M 96.75 125.71
  L 94.87 116.31
  A 0.50 0.50 0.0 0 1 95.77 115.92
  L 101.36 123.71
  A 0.50 0.50 0.0 0 1 101.15 124.46
  L 97.44 126.07
  A 0.50 0.50 0.0 0 1 96.75 125.71
  Z"
/>
</g>
</svg>
