<?xml version="1.0" encoding="UTF-8" standalone="no"?>
<!DOCTYPE svg PUBLIC "-//W3C//DTD SVG 1.1//EN" "http://www.w3.org/Graphics/SVG/1.1/DTD/svg11.dtd">
<svg xmlns="http://www.w3.org/2000/svg" version="1.1" viewBox="0 0 180 180">
<g stroke-width="2.00" fill="none" stroke-linecap="butt">
<path stroke="#927a6d" vector-effect="non-scaling-stroke" d="
  M 111.04 74.29
  Q 110.27 73.75 109.41 74.12
  L 103.85 76.49
  Q 103.37 76.70 102.87 76.52
  Q 96.59 74.20 93.04 68.59
  Q 92.77 68.16 92.28 68.24
  Q 80.92 69.95 70.86 64.45
  Q 70.28 64.14 70.09 64.77
  C 68.62 69.74 69.37 83.29 71.57 87.92
  C 77.01 99.38 89.75 102.53 99.48 93.99
  C 101.89 91.87 100.43 87.08 104.75 87.08
  C 111.98 87.07 118.53 79.58 111.04 74.29"
/>
<path stroke="#9c904e" vector-effect="non-scaling-stroke" d="
  M 129.20 75.11
  C 121.67 74.43 119.43 83.87 115.87 88.94
  Q 115.58 89.34 115.82 89.77
  L 120.62 98.49
  Q 120.88 98.97 121.43 98.97
  L 127.72 99.01
  Q 128.33 99.02 128.44 98.42
  C 129.46 92.98 130.48 88.50 136.47 87.16
  Q 136.90 87.06 136.92 86.61
  Q 137.10 81.22 133.78 77.51
  Q 131.84 75.35 129.20 75.11"
/>
<path stroke="#533d3e" vector-effect="non-scaling-stroke" d="
  M 85.69 118.03
  C 79.56 117.99 75.38 105.15 74.16 100.72
  Q 74.04 100.27 73.70 99.94
  L 70.90 97.24
  Q 70.58 96.93 70.33 97.31
  Q 69.27 98.98 68.99 101.01
  Q 66.98 115.37 67.35 129.86
  A 0.34 0.33 -0.9 0 0 67.69 130.18
  L 91.59 129.93
  Q 92.00 129.92 92.29 129.62
  C 96.24 125.32 99.91 124.81 104.56 122.63
  Q 105.15 122.35 105.06 121.70
  L 104.44 117.72
  Q 104.36 117.21 104.60 116.75
  Q 105.69 114.66 108.26 115.38
  A 1.70 1.69 85.1 0 1 109.32 116.28
  Q 110.97 119.87 110.15 123.68
  Q 110.05 124.18 110.36 124.58
  Q 113.86 129.12 113.07 134.96
  A 0.55 0.55 0.0 0 0 113.75 135.56
  L 119.60 134.06
  A 1.66 1.65 82.5 0 0 120.84 132.43
  C 120.58 118.43 118.71 104.65 110.79 92.73
  Q 110.52 92.33 110.05 92.42
  L 107.41 92.93
  Q 106.87 93.03 106.63 93.52
  Q 103.43 99.86 96.98 102.75
  Q 96.47 102.98 96.25 103.48
  C 94.46 107.43 90.55 118.07 85.69 118.03"
/>
<path stroke="#9c904e" vector-effect="non-scaling-stroke" d="
  M 134.28 99.54
  L 140.00 100.55
  Q 140.56 100.65 140.72 100.10
  C 143.07 91.69 133.37 89.49 133.89 99.10
  Q 133.91 99.47 134.28 99.54"
/>
<path stroke="#927a6d" vector-effect="non-scaling-stroke" d="
  M 88.96 104.55
  C 86.59 104.93 84.13 104.36 81.33 103.82
  Q 80.76 103.71 80.96 104.26
  Q 82.42 108.32 85.19 111.66
  A 0.55 0.54 -51.5 0 0 86.10 111.55
  L 89.34 105.07
  Q 89.66 104.44 88.96 104.55"
/>
<path stroke="#533d3e" vector-effect="non-scaling-stroke" d="
  M 139.41 106.34
  Q 131.71 104.23 123.73 104.50
  Q 123.06 104.53 123.24 105.17
  L 124.43 109.54
  Q 124.56 110.01 125.05 110.05
  L 140.11 111.13
  Q 140.63 111.16 140.56 110.64
  L 140.06 107.07
  A 0.88 0.88 0.0 0 0 139.41 106.34"
/>
<path stroke="#533d3e" vector-effect="non-scaling-stroke" d="
  M 141.23 117.63
  A 0.58 0.58 0.0 0 0 140.70 117.06
  L 126.19 115.83
  A 0.58 0.58 0.0 0 0 125.56 116.44
  L 125.82 121.07
  A 0.58 0.58 0.0 0 0 126.37 121.61
  L 140.65 122.24
  A 0.58 0.58 0.0 0 0 141.26 121.66
  L 141.23 117.63"
/>
<path stroke="#9c904e" vector-effect="non-scaling-stroke" d="
  M 61.09 118.05
  C 59.27 117.85 57.08 117.55 55.33 118.20
  Q 54.74 118.41 54.88 119.02
  L 55.55 121.87
  Q 55.71 122.58 56.44 122.53
  L 61.40 122.16
  Q 61.97 122.12 61.92 121.55
  L 61.68 118.65
  Q 61.63 118.11 61.09 118.05"
/>
<path stroke="#533d3e" vector-effect="non-scaling-stroke" d="
  M 141.25 128.72
  A 0.63 0.63 0.0 0 0 140.66 128.09
  L 127.09 127.36
  A 0.63 0.63 0.0 0 0 126.43 128.03
  L 126.77 132.95
  A 0.63 0.63 0.0 0 0 127.41 133.53
  L 140.60 133.16
  A 0.63 0.63 0.0 0 0 141.21 132.54
  L 141.25 128.72"
/>
<path stroke="#927a6d" vector-effect="non-scaling-stroke" d="
  M 53.60 133.00
  Q 56.94 134.70 60.73 134.74
  Q 61.25 134.75 61.25 134.23
  L 61.25 128.28
  Q 61.25 127.88 60.85 127.86
  Q 55.76 127.60 53.25 131.79
  A 0.86 0.86 0.0 0 0 53.60 133.00"
/>
<path stroke="#927a6d" vector-effect="non-scaling-stroke" d="
  M 98.00 135.77
  L 104.54 136.82
  Q 105.11 136.92 105.58 136.56
  Q 109.15 133.78 106.89 129.44
  Q 106.33 128.36 105.17 128.71
  C 102.51 129.50 97.20 130.98 96.73 134.03
  A 1.54 1.53 -81.3 0 0 98.00 135.77"
/>
<path stroke="#533d3e" vector-effect="non-scaling-stroke" d="
  M 67.57 135.77
  A 0.32 0.32 0.0 0 0 67.25 136.09
  L 67.25 139.26
  A 0.32 0.32 0.0 0 0 67.57 139.58
  L 92.40 139.30
  A 0.32 0.32 0.0 0 0 92.67 138.81
  L 90.96 135.90
  A 0.32 0.32 0.0 0 0 90.69 135.74
  L 67.57 135.77"
/>
<path stroke="#533d3e" vector-effect="non-scaling-stroke" d="
  M 127.24 139.46
  A 0.59 0.58 87.6 0 0 126.68 140.08
  L 126.95 144.62
  Q 126.98 145.16 127.53 145.19
  C 131.94 145.36 141.55 147.10 140.34 139.65
  Q 140.22 138.92 139.48 138.95
  L 127.24 139.46"
/>
<path stroke="#9c904e" vector-effect="non-scaling-stroke" d="
  M 61.05 140.54
  L 56.10 139.93
  Q 55.58 139.87 55.20 140.22
  C 53.15 142.09 48.06 147.84 50.55 150.72
  Q 54.27 155.02 60.80 153.76
  Q 61.33 153.66 61.34 153.11
  L 61.56 141.12
  A 0.58 0.57 3.9 0 0 61.05 140.54"
/>
<path stroke="#533d3e" vector-effect="non-scaling-stroke" d="
  M 120.73 145.48
  C 103.05 144.86 85.49 145.70 67.85 145.42
  A 0.36 0.35 -84.4 0 0 67.49 145.72
  Q 66.04 155.25 67.41 164.76
  Q 67.49 165.32 68.02 165.52
  C 71.72 166.87 79.46 165.84 83.62 165.68
  A 0.94 0.94 0.0 0 0 84.52 164.73
  C 84.41 159.21 83.37 150.55 90.71 148.72
  Q 101.36 146.07 105.07 155.62
  C 106.13 158.32 105.64 161.71 106.03 164.79
  A 0.90 0.89 -2.9 0 0 106.91 165.58
  L 120.44 165.73
  Q 121.37 165.74 121.37 164.81
  L 121.37 146.14
  Q 121.37 145.50 120.73 145.48"
/>
<path stroke="#927a6d" vector-effect="non-scaling-stroke" d="
  M 83.9942 75.4138
  A 2.55 2.55 0.0 0 0 81.4089 72.8997
  L 81.2289 72.9022
  A 2.55 2.55 0.0 0 0 78.7148 75.4875
  L 78.9058 89.1662
  A 2.55 2.55 0.0 0 0 81.4911 91.6803
  L 81.6711 91.6778
  A 2.55 2.55 0.0 0 0 84.1852 89.0925
  L 83.9942 75.4138"
/>
</g>
<g fill="#38383c">
<path d="
  M 127.22 151.53
  C 127.32 158.32 128.35 168.40 124.32 170.46
  C 120.60 172.36 109.73 171.66 106.56 171.16
  C 96.86 169.63 102.77 159.92 97.94 155.27
  Q 95.49 152.93 91.42 154.50
  A 2.08 2.08 0.0 0 0 90.09 156.58
  C 90.52 163.20 92.17 171.21 82.49 171.63
  C 77.00 171.87 67.81 172.91 64.01 169.34
  C 61.80 167.28 61.71 163.15 61.11 160.16
  Q 61.01 159.65 60.48 159.69
  C 54.00 160.12 45.58 157.09 44.55 149.88
  C 43.85 145.03 46.80 141.26 50.02 137.91
  Q 50.39 137.53 49.99 137.17
  C 45.92 133.58 47.30 128.78 50.98 125.66
  Q 51.38 125.32 51.12 124.86
  C 48.82 120.79 48.42 115.42 53.19 113.18
  C 55.48 112.10 58.61 112.47 61.29 112.66
  Q 61.82 112.69 61.88 112.16
  C 62.67 104.80 62.61 99.15 66.65 92.06
  Q 66.91 91.60 66.76 91.10
  Q 62.30 76.66 65.54 61.83
  Q 65.63 61.41 65.30 61.14
  C 61.48 58.03 52.87 49.19 58.58 44.83
  Q 58.95 44.54 59.41 44.50
  C 66.89 43.88 73.48 35.65 81.39 33.94
  C 90.15 32.05 100.04 34.99 103.26 44.23
  Q 103.44 44.74 103.98 44.78
  C 116.74 45.60 119.46 59.52 113.76 68.84
  Q 113.44 69.37 114.00 69.64
  Q 116.86 71.02 118.32 73.85
  Q 118.61 74.41 119.06 73.97
  C 123.16 69.95 130.39 67.72 135.39 71.67
  Q 143.19 77.85 142.60 87.94
  Q 142.57 88.43 142.89 88.81
  Q 148.05 94.94 145.98 102.64
  Q 145.40 104.79 145.65 106.57
  Q 148.31 125.66 145.76 143.75
  C 144.66 151.58 133.66 151.60 127.84 150.96
  Q 127.21 150.89 127.22 151.53
  Z
  M 111.04 74.29
  Q 110.27 73.75 109.41 74.12
  L 103.85 76.49
  Q 103.37 76.70 102.87 76.52
  Q 96.59 74.20 93.04 68.59
  Q 92.77 68.16 92.28 68.24
  Q 80.92 69.95 70.86 64.45
  Q 70.28 64.14 70.09 64.77
  C 68.62 69.74 69.37 83.29 71.57 87.92
  C 77.01 99.38 89.75 102.53 99.48 93.99
  C 101.89 91.87 100.43 87.08 104.75 87.08
  C 111.98 87.07 118.53 79.58 111.04 74.29
  Z
  M 129.20 75.11
  C 121.67 74.43 119.43 83.87 115.87 88.94
  Q 115.58 89.34 115.82 89.77
  L 120.62 98.49
  Q 120.88 98.97 121.43 98.97
  L 127.72 99.01
  Q 128.33 99.02 128.44 98.42
  C 129.46 92.98 130.48 88.50 136.47 87.16
  Q 136.90 87.06 136.92 86.61
  Q 137.10 81.22 133.78 77.51
  Q 131.84 75.35 129.20 75.11
  Z
  M 85.69 118.03
  C 79.56 117.99 75.38 105.15 74.16 100.72
  Q 74.04 100.27 73.70 99.94
  L 70.90 97.24
  Q 70.58 96.93 70.33 97.31
  Q 69.27 98.98 68.99 101.01
  Q 66.98 115.37 67.35 129.86
  A 0.34 0.33 -0.9 0 0 67.69 130.18
  L 91.59 129.93
  Q 92.00 129.92 92.29 129.62
  C 96.24 125.32 99.91 124.81 104.56 122.63
  Q 105.15 122.35 105.06 121.70
  L 104.44 117.72
  Q 104.36 117.21 104.60 116.75
  Q 105.69 114.66 108.26 115.38
  A 1.70 1.69 85.1 0 1 109.32 116.28
  Q 110.97 119.87 110.15 123.68
  Q 110.05 124.18 110.36 124.58
  Q 113.86 129.12 113.07 134.96
  A 0.55 0.55 0.0 0 0 113.75 135.56
  L 119.60 134.06
  A 1.66 1.65 82.5 0 0 120.84 132.43
  C 120.58 118.43 118.71 104.65 110.79 92.73
  Q 110.52 92.33 110.05 92.42
  L 107.41 92.93
  Q 106.87 93.03 106.63 93.52
  Q 103.43 99.86 96.98 102.75
  Q 96.47 102.98 96.25 103.48
  C 94.46 107.43 90.55 118.07 85.69 118.03
  Z
  M 134.28 99.54
  L 140.00 100.55
  Q 140.56 100.65 140.72 100.10
  C 143.07 91.69 133.37 89.49 133.89 99.10
  Q 133.91 99.47 134.28 99.54
  Z
  M 88.96 104.55
  C 86.59 104.93 84.13 104.36 81.33 103.82
  Q 80.76 103.71 80.96 104.26
  Q 82.42 108.32 85.19 111.66
  A 0.55 0.54 -51.5 0 0 86.10 111.55
  L 89.34 105.07
  Q 89.66 104.44 88.96 104.55
  Z
  M 139.41 106.34
  Q 131.71 104.23 123.73 104.50
  Q 123.06 104.53 123.24 105.17
  L 124.43 109.54
  Q 124.56 110.01 125.05 110.05
  L 140.11 111.13
  Q 140.63 111.16 140.56 110.64
  L 140.06 107.07
  A 0.88 0.88 0.0 0 0 139.41 106.34
  Z
  M 141.23 117.63
  A 0.58 0.58 0.0 0 0 140.70 117.06
  L 126.19 115.83
  A 0.58 0.58 0.0 0 0 125.56 116.44
  L 125.82 121.07
  A 0.58 0.58 0.0 0 0 126.37 121.61
  L 140.65 122.24
  A 0.58 0.58 0.0 0 0 141.26 121.66
  L 141.23 117.63
  Z
  M 61.09 118.05
  C 59.27 117.85 57.08 117.55 55.33 118.20
  Q 54.74 118.41 54.88 119.02
  L 55.55 121.87
  Q 55.71 122.58 56.44 122.53
  L 61.40 122.16
  Q 61.97 122.12 61.92 121.55
  L 61.68 118.65
  Q 61.63 118.11 61.09 118.05
  Z
  M 141.25 128.72
  A 0.63 0.63 0.0 0 0 140.66 128.09
  L 127.09 127.36
  A 0.63 0.63 0.0 0 0 126.43 128.03
  L 126.77 132.95
  A 0.63 0.63 0.0 0 0 127.41 133.53
  L 140.60 133.16
  A 0.63 0.63 0.0 0 0 141.21 132.54
  L 141.25 128.72
  Z
  M 53.60 133.00
  Q 56.94 134.70 60.73 134.74
  Q 61.25 134.75 61.25 134.23
  L 61.25 128.28
  Q 61.25 127.88 60.85 127.86
  Q 55.76 127.60 53.25 131.79
  A 0.86 0.86 0.0 0 0 53.60 133.00
  Z
  M 98.00 135.77
  L 104.54 136.82
  Q 105.11 136.92 105.58 136.56
  Q 109.15 133.78 106.89 129.44
  Q 106.33 128.36 105.17 128.71
  C 102.51 129.50 97.20 130.98 96.73 134.03
  A 1.54 1.53 -81.3 0 0 98.00 135.77
  Z
  M 67.57 135.77
  A 0.32 0.32 0.0 0 0 67.25 136.09
  L 67.25 139.26
  A 0.32 0.32 0.0 0 0 67.57 139.58
  L 92.40 139.30
  A 0.32 0.32 0.0 0 0 92.67 138.81
  L 90.96 135.90
  A 0.32 0.32 0.0 0 0 90.69 135.74
  L 67.57 135.77
  Z
  M 127.24 139.46
  A 0.59 0.58 87.6 0 0 126.68 140.08
  L 126.95 144.62
  Q 126.98 145.16 127.53 145.19
  C 131.94 145.36 141.55 147.10 140.34 139.65
  Q 140.22 138.92 139.48 138.95
  L 127.24 139.46
  Z
  M 61.05 140.54
  L 56.10 139.93
  Q 55.58 139.87 55.20 140.22
  C 53.15 142.09 48.06 147.84 50.55 150.72
  Q 54.27 155.02 60.80 153.76
  Q 61.33 153.66 61.34 153.11
  L 61.56 141.12
  A 0.58 0.57 3.9 0 0 61.05 140.54
  Z
  M 120.73 145.48
  C 103.05 144.86 85.49 145.70 67.85 145.42
  A 0.36 0.35 -84.4 0 0 67.49 145.72
  Q 66.04 155.25 67.41 164.76
  Q 67.49 165.32 68.02 165.52
  C 71.72 166.87 79.46 165.84 83.62 165.68
  A 0.94 0.94 0.0 0 0 84.52 164.73
  C 84.41 159.21 83.37 150.55 90.71 148.72
  Q 101.36 146.07 105.07 155.62
  C 106.13 158.32 105.64 161.71 106.03 164.79
  A 0.90 0.89 -2.9 0 0 106.91 165.58
  L 120.44 165.73
  Q 121.37 165.74 121.37 164.81
  L 121.37 146.14
  Q 121.37 145.50 120.73 145.48
  Z"
/>
<rect x="-2.64" y="-9.39" transform="translate(81.45,82.29) rotate(-0.8)" width="5.28" height="18.78" rx="2.55"/>
</g>
<g fill="#ebbc9e">
<path d="
  M 111.04 74.29
  C 118.53 79.58 111.98 87.07 104.75 87.08
  C 100.43 87.08 101.89 91.87 99.48 93.99
  C 89.75 102.53 77.01 99.38 71.57 87.92
  C 69.37 83.29 68.62 69.74 70.09 64.77
  Q 70.28 64.14 70.86 64.45
  Q 80.92 69.95 92.28 68.24
  Q 92.77 68.16 93.04 68.59
  Q 96.59 74.20 102.87 76.52
  Q 103.37 76.70 103.85 76.49
  L 109.41 74.12
  Q 110.27 73.75 111.04 74.29
  Z
  M 83.9942 75.4138
  A 2.55 2.55 0.0 0 0 81.4089 72.8997
  L 81.2289 72.9022
  A 2.55 2.55 0.0 0 0 78.7148 75.4875
  L 78.9058 89.1662
  A 2.55 2.55 0.0 0 0 81.4911 91.6803
  L 81.6711 91.6778
  A 2.55 2.55 0.0 0 0 84.1852 89.0925
  L 83.9942 75.4138
  Z"
/>
<path d="
  M 81.33 103.82
  C 84.13 104.36 86.59 104.93 88.96 104.55
  Q 89.66 104.44 89.34 105.07
  L 86.10 111.55
  A 0.55 0.54 -51.5 0 1 85.19 111.66
  Q 82.42 108.32 80.96 104.26
  Q 80.76 103.71 81.33 103.82
  Z"
/>
<path d="
  M 53.60 133.00
  A 0.86 0.86 0.0 0 1 53.25 131.79
  Q 55.76 127.60 60.85 127.86
  Q 61.25 127.88 61.25 128.28
  L 61.25 134.23
  Q 61.25 134.75 60.73 134.74
  Q 56.94 134.70 53.60 133.00
  Z"
/>
<path d="
  M 98.00 135.77
  A 1.54 1.53 -81.3 0 1 96.73 134.03
  C 97.20 130.98 102.51 129.50 105.17 128.71
  Q 106.33 128.36 106.89 129.44
  Q 109.15 133.78 105.58 136.56
  Q 105.11 136.92 104.54 136.82
  L 98.00 135.77
  Z"
/>
</g>
<g fill="#6e423f">
<path d="
  M 85.69 118.03
  C 90.55 118.07 94.46 107.43 96.25 103.48
  Q 96.47 102.98 96.98 102.75
  Q 103.43 99.86 106.63 93.52
  Q 106.87 93.03 107.41 92.93
  L 110.05 92.42
  Q 110.52 92.33 110.79 92.73
  C 118.71 104.65 120.58 118.43 120.84 132.43
  A 1.66 1.65 82.5 0 1 119.60 134.06
  L 113.75 135.56
  A 0.55 0.55 0.0 0 1 113.07 134.96
  Q 113.86 129.12 110.36 124.58
  Q 110.05 124.18 110.15 123.68
  Q 110.97 119.87 109.32 116.28
  A 1.70 1.69 85.1 0 0 108.26 115.38
  Q 105.69 114.66 104.60 116.75
  Q 104.36 117.21 104.44 117.72
  L 105.06 121.70
  Q 105.15 122.35 104.56 122.63
  C 99.91 124.81 96.24 125.32 92.29 129.62
  Q 92.00 129.92 91.59 129.93
  L 67.69 130.18
  A 0.34 0.33 -0.9 0 1 67.35 129.86
  Q 66.98 115.37 68.99 101.01
  Q 69.27 98.98 70.33 97.31
  Q 70.58 96.93 70.90 97.24
  L 73.70 99.94
  Q 74.04 100.27 74.16 100.72
  C 75.38 105.15 79.56 117.99 85.69 118.03
  Z"
/>
<path d="
  M 139.41 106.34
  A 0.88 0.88 0.0 0 1 140.06 107.07
  L 140.56 110.64
  Q 140.63 111.16 140.11 111.13
  L 125.05 110.05
  Q 124.56 110.01 124.43 109.54
  L 123.24 105.17
  Q 123.06 104.53 123.73 104.50
  Q 131.71 104.23 139.41 106.34
  Z"
/>
<path d="
  M 141.23 117.63
  L 141.26 121.66
  A 0.58 0.58 0.0 0 1 140.65 122.24
  L 126.37 121.61
  A 0.58 0.58 0.0 0 1 125.82 121.07
  L 125.56 116.44
  A 0.58 0.58 0.0 0 1 126.19 115.83
  L 140.70 117.06
  A 0.58 0.58 0.0 0 1 141.23 117.63
  Z"
/>
<path d="
  M 141.25 128.72
  L 141.21 132.54
  A 0.63 0.63 0.0 0 1 140.60 133.16
  L 127.41 133.53
  A 0.63 0.63 0.0 0 1 126.77 132.95
  L 126.43 128.03
  A 0.63 0.63 0.0 0 1 127.09 127.36
  L 140.66 128.09
  A 0.63 0.63 0.0 0 1 141.25 128.72
  Z"
/>
<path d="
  M 67.57 135.77
  L 90.69 135.74
  A 0.32 0.32 0.0 0 1 90.96 135.90
  L 92.67 138.81
  A 0.32 0.32 0.0 0 1 92.40 139.30
  L 67.57 139.58
  A 0.32 0.32 0.0 0 1 67.25 139.26
  L 67.25 136.09
  A 0.32 0.32 0.0 0 1 67.57 135.77
  Z"
/>
<path d="
  M 127.24 139.46
  L 139.48 138.95
  Q 140.22 138.92 140.34 139.65
  C 141.55 147.10 131.94 145.36 127.53 145.19
  Q 126.98 145.16 126.95 144.62
  L 126.68 140.08
  A 0.59 0.58 87.6 0 1 127.24 139.46
  Z"
/>
<path d="
  M 67.85 145.42
  C 85.49 145.70 103.05 144.86 120.73 145.48
  Q 121.37 145.50 121.37 146.14
  L 121.37 164.81
  Q 121.37 165.74 120.44 165.73
  L 106.91 165.58
  A 0.90 0.89 -2.9 0 1 106.03 164.79
  C 105.64 161.71 106.13 158.32 105.07 155.62
  Q 101.36 146.07 90.71 148.72
  C 83.37 150.55 84.41 159.21 84.52 164.73
  A 0.94 0.94 0.0 0 1 83.62 165.68
  C 79.46 165.84 71.72 166.87 68.02 165.52
  Q 67.49 165.32 67.41 164.76
  Q 66.04 155.25 67.49 145.72
  A 0.36 0.35 -84.4 0 1 67.85 145.42
  Z"
/>
</g>
<g fill="#ffe75f">
<path d="
  M 133.78 77.51
  Q 137.10 81.22 136.92 86.61
  Q 136.90 87.06 136.47 87.16
  C 130.48 88.50 129.46 92.98 128.44 98.42
  Q 128.33 99.02 127.72 99.01
  L 121.43 98.97
  Q 120.88 98.97 120.62 98.49
  L 115.82 89.77
  Q 115.58 89.34 115.87 88.94
  C 119.43 83.87 121.67 74.43 129.20 75.11
  Q 131.84 75.35 133.78 77.51
  Z"
/>
<path d="
  M 134.28 99.54
  Q 133.91 99.47 133.89 99.10
  C 133.37 89.49 143.07 91.69 140.72 100.10
  Q 140.56 100.65 140.00 100.55
  L 134.28 99.54
  Z"
/>
<path d="
  M 55.33 118.20
  C 57.08 117.55 59.27 117.85 61.09 118.05
  Q 61.63 118.11 61.68 118.65
  L 61.92 121.55
  Q 61.97 122.12 61.40 122.16
  L 56.44 122.53
  Q 55.71 122.58 55.55 121.87
  L 54.88 119.02
  Q 54.74 118.41 55.33 118.20
  Z"
/>
<path d="
  M 61.05 140.54
  A 0.58 0.57 3.9 0 1 61.56 141.12
  L 61.34 153.11
  Q 61.33 153.66 60.80 153.76
  Q 54.27 155.02 50.55 150.72
  C 48.06 147.84 53.15 142.09 55.20 140.22
  Q 55.58 139.87 56.10 139.93
  L 61.05 140.54
  Z"
/>
</g>
</svg>
