<?xml version="1.0" encoding="UTF-8" standalone="no"?>
<!DOCTYPE svg PUBLIC "-//W3C//DTD SVG 1.1//EN" "http://www.w3.org/Graphics/SVG/1.1/DTD/svg11.dtd">
<svg xmlns="http://www.w3.org/2000/svg" version="1.1" viewBox="0 0 180 180">
<g stroke-width="2.00" fill="none" stroke-linecap="butt">
<path stroke="#90796c" vector-effect="non-scaling-stroke" d="
  M 106.37 87.05
  C 117.51 87.45 117.61 71.67 108.70 74.29
  Q 108.20 74.44 107.70 74.29
  C 105.91 73.76 104.99 72.74 105.03 70.73
  C 105.22 60.62 101.77 52.32 91.02 50.45
  C 82.20 48.91 75.99 53.28 72.42 60.90
  C 69.60 66.91 69.74 81.80 72.54 87.84
  C 77.81 99.22 90.40 102.48 100.17 94.26
  C 103.09 91.81 101.17 86.87 106.37 87.05"
/>
<path stroke="#503a3a" vector-effect="non-scaling-stroke" d="
  M 85.55 117.95
  C 79.70 114.50 76.60 107.26 75.36 100.85
  Q 75.26 100.33 74.86 99.98
  L 71.86 97.30
  Q 71.42 96.90 71.16 97.43
  Q 70.09 99.56 69.97 100.52
  Q 67.71 117.96 68.39 135.68
  Q 68.41 136.11 68.83 136.13
  L 91.96 137.15
  A 0.40 0.40 0.0 0 0 92.37 136.67
  C 90.67 128.02 98.34 125.39 105.35 122.85
  Q 105.88 122.66 105.94 122.10
  C 106.18 119.52 103.96 116.48 107.55 115.13
  A 2.22 2.22 0.0 0 1 110.38 116.36
  Q 111.85 119.91 111.21 123.62
  Q 111.11 124.19 111.46 124.66
  Q 114.91 129.25 114.06 135.11
  Q 113.96 135.76 114.60 135.59
  L 120.56 134.07
  Q 121.85 133.74 121.81 132.42
  Q 121.55 122.84 120.07 113.82
  C 118.83 106.35 116.54 101.60 113.15 94.80
  Q 111.48 91.45 108.36 92.91
  Q 107.88 93.13 107.64 93.60
  Q 104.38 99.82 97.97 102.77
  Q 97.51 102.98 97.31 103.45
  C 95.71 107.14 92.22 117.14 86.55 118.13
  Q 86.02 118.22 85.55 117.95"
/>
<path stroke="#90796c" vector-effect="non-scaling-stroke" d="
  M 89.96 104.55
  C 87.44 104.96 84.88 104.25 82.37 103.83
  Q 81.74 103.73 81.97 104.33
  Q 83.46 108.27 86.10 111.56
  A 0.64 0.63 -51.0 0 0 87.16 111.44
  L 90.34 105.06
  Q 90.65 104.44 89.96 104.55"
/>
<path stroke="#90796c" vector-effect="non-scaling-stroke" d="
  M 54.88 133.09
  Q 58.10 134.78 61.80 134.70
  Q 62.24 134.69 62.25 134.24
  L 62.26 128.31
  Q 62.26 127.85 61.80 127.83
  Q 57.07 127.63 54.46 131.38
  A 1.18 1.17 31.3 0 0 54.88 133.09"
/>
<path stroke="#90796c" vector-effect="non-scaling-stroke" d="
  M 98.87 135.72
  L 105.59 136.87
  Q 106.26 136.98 106.74 136.52
  Q 110.10 133.31 107.75 129.01
  A 0.75 0.74 69.2 0 0 106.94 128.64
  C 104.17 129.23 98.41 130.73 97.71 134.02
  A 1.43 1.42 10.9 0 0 98.87 135.72"
/>
<path stroke="#503a3a" vector-effect="non-scaling-stroke" d="
  M 86.04 153.93
  C 88.67 147.01 98.09 147.09 102.55 150.68
  C 106.45 153.83 107.25 158.53 106.65 163.32
  A 2.08 2.08 0.0 0 0 108.70 165.66
  L 121.56 165.70
  Q 122.38 165.70 122.37 164.88
  L 122.33 142.68
  A 0.65 0.65 0.0 0 0 121.63 142.03
  Q 95.19 143.90 68.76 141.80
  A 0.58 0.57 -87.2 0 0 68.14 142.37
  C 68.02 149.44 66.76 158.17 68.70 165.02
  Q 68.83 165.50 69.31 165.63
  C 73.76 166.85 79.84 165.78 84.59 165.79
  A 0.90 0.90 0.0 0 0 85.49 164.90
  C 85.50 161.73 84.93 156.84 86.04 153.93"
/>
<path stroke="#90796c" vector-effect="non-scaling-stroke" d="
  M 84.9820 75.4845
  A 2.46 2.46 0.0 0 0 82.5263 73.0202
  L 82.3263 73.0198
  A 2.46 2.46 0.0 0 0 79.8620 75.4755
  L 79.8380 89.2155
  A 2.46 2.46 0.0 0 0 82.2937 91.6798
  L 82.4937 91.6802
  A 2.46 2.46 0.0 0 0 84.9580 89.2245
  L 84.9820 75.4845"
/>
</g>
<g fill="#34343a">
<path d="
  M 62.72 121.55
  Q 62.58 111.35 64.13 101.29
  C 64.68 97.69 66.18 94.77 67.73 91.49
  Q 67.95 91.01 67.76 90.52
  C 64.23 81.36 63.74 64.16 69.52 55.20
  C 79.68 39.46 100.78 41.70 109.18 58.05
  Q 110.56 60.73 110.74 67.79
  Q 110.75 68.35 111.29 68.45
  C 122.04 70.55 123.74 81.65 116.74 88.91
  Q 116.38 89.30 116.67 89.74
  C 128.73 107.87 127.20 127.73 128.14 148.69
  Q 128.58 158.65 128.01 165.76
  Q 127.61 170.74 122.52 171.31
  Q 113.77 172.30 106.75 170.99
  C 96.53 169.09 105.94 150.52 92.91 154.24
  A 2.50 2.49 80.3 0 0 91.11 156.79
  C 91.34 160.38 91.98 166.25 89.92 169.04
  C 87.04 172.90 77.53 171.75 71.77 171.69
  C 67.39 171.65 63.72 169.88 63.12 165.29
  C 62.87 163.45 62.21 161.69 62.23 159.87
  Q 62.32 150.48 62.57 141.16
  A 0.69 0.68 -90.0 0 0 61.87 140.45
  C 56.83 140.59 46.60 137.59 48.60 130.77
  C 50.26 125.09 56.34 122.07 62.10 122.16
  Q 62.72 122.17 62.72 121.55
  Z
  M 106.37 87.05
  C 117.51 87.45 117.61 71.67 108.70 74.29
  Q 108.20 74.44 107.70 74.29
  C 105.91 73.76 104.99 72.74 105.03 70.73
  C 105.22 60.62 101.77 52.32 91.02 50.45
  C 82.20 48.91 75.99 53.28 72.42 60.90
  C 69.60 66.91 69.74 81.80 72.54 87.84
  C 77.81 99.22 90.40 102.48 100.17 94.26
  C 103.09 91.81 101.17 86.87 106.37 87.05
  Z
  M 85.55 117.95
  C 79.70 114.50 76.60 107.26 75.36 100.85
  Q 75.26 100.33 74.86 99.98
  L 71.86 97.30
  Q 71.42 96.90 71.16 97.43
  Q 70.09 99.56 69.97 100.52
  Q 67.71 117.96 68.39 135.68
  Q 68.41 136.11 68.83 136.13
  L 91.96 137.15
  A 0.40 0.40 0.0 0 0 92.37 136.67
  C 90.67 128.02 98.34 125.39 105.35 122.85
  Q 105.88 122.66 105.94 122.10
  C 106.18 119.52 103.96 116.48 107.55 115.13
  A 2.22 2.22 0.0 0 1 110.38 116.36
  Q 111.85 119.91 111.21 123.62
  Q 111.11 124.19 111.46 124.66
  Q 114.91 129.25 114.06 135.11
  Q 113.96 135.76 114.60 135.59
  L 120.56 134.07
  Q 121.85 133.74 121.81 132.42
  Q 121.55 122.84 120.07 113.82
  C 118.83 106.35 116.54 101.60 113.15 94.80
  Q 111.48 91.45 108.36 92.91
  Q 107.88 93.13 107.64 93.60
  Q 104.38 99.82 97.97 102.77
  Q 97.51 102.98 97.31 103.45
  C 95.71 107.14 92.22 117.14 86.55 118.13
  Q 86.02 118.22 85.55 117.95
  Z
  M 89.96 104.55
  C 87.44 104.96 84.88 104.25 82.37 103.83
  Q 81.74 103.73 81.97 104.33
  Q 83.46 108.27 86.10 111.56
  A 0.64 0.63 -51.0 0 0 87.16 111.44
  L 90.34 105.06
  Q 90.65 104.44 89.96 104.55
  Z
  M 54.88 133.09
  Q 58.10 134.78 61.80 134.70
  Q 62.24 134.69 62.25 134.24
  L 62.26 128.31
  Q 62.26 127.85 61.80 127.83
  Q 57.07 127.63 54.46 131.38
  A 1.18 1.17 31.3 0 0 54.88 133.09
  Z
  M 98.87 135.72
  L 105.59 136.87
  Q 106.26 136.98 106.74 136.52
  Q 110.10 133.31 107.75 129.01
  A 0.75 0.74 69.2 0 0 106.94 128.64
  C 104.17 129.23 98.41 130.73 97.71 134.02
  A 1.43 1.42 10.9 0 0 98.87 135.72
  Z
  M 86.04 153.93
  C 88.67 147.01 98.09 147.09 102.55 150.68
  C 106.45 153.83 107.25 158.53 106.65 163.32
  A 2.08 2.08 0.0 0 0 108.70 165.66
  L 121.56 165.70
  Q 122.38 165.70 122.37 164.88
  L 122.33 142.68
  A 0.65 0.65 0.0 0 0 121.63 142.03
  Q 95.19 143.90 68.76 141.80
  A 0.58 0.57 -87.2 0 0 68.14 142.37
  C 68.02 149.44 66.76 158.17 68.70 165.02
  Q 68.83 165.50 69.31 165.63
  C 73.76 166.85 79.84 165.78 84.59 165.79
  A 0.90 0.90 0.0 0 0 85.49 164.90
  C 85.50 161.73 84.93 156.84 86.04 153.93
  Z"
/>
<rect x="-2.56" y="-9.33" transform="translate(82.41,82.35) rotate(0.1)" width="5.12" height="18.66" rx="2.46"/>
</g>
<g fill="#ecbd9e">
<path d="
  M 108.70 74.29
  C 117.61 71.67 117.51 87.45 106.37 87.05
  C 101.17 86.87 103.09 91.81 100.17 94.26
  C 90.40 102.48 77.81 99.22 72.54 87.84
  C 69.74 81.80 69.60 66.91 72.42 60.90
  C 75.99 53.28 82.20 48.91 91.02 50.45
  C 101.77 52.32 105.22 60.62 105.03 70.73
  C 104.99 72.74 105.91 73.76 107.70 74.29
  Q 108.20 74.44 108.70 74.29
  Z
  M 84.9820 75.4845
  A 2.46 2.46 0.0 0 0 82.5263 73.0202
  L 82.3263 73.0198
  A 2.46 2.46 0.0 0 0 79.8620 75.4755
  L 79.8380 89.2155
  A 2.46 2.46 0.0 0 0 82.2937 91.6798
  L 82.4937 91.6802
  A 2.46 2.46 0.0 0 0 84.9580 89.2245
  L 84.9820 75.4845
  Z"
/>
<path d="
  M 82.37 103.83
  C 84.88 104.25 87.44 104.96 89.96 104.55
  Q 90.65 104.44 90.34 105.06
  L 87.16 111.44
  A 0.64 0.63 -51.0 0 1 86.10 111.56
  Q 83.46 108.27 81.97 104.33
  Q 81.74 103.73 82.37 103.83
  Z"
/>
<path d="
  M 54.88 133.09
  A 1.18 1.17 31.3 0 1 54.46 131.38
  Q 57.07 127.63 61.80 127.83
  Q 62.26 127.85 62.26 128.31
  L 62.25 134.24
  Q 62.24 134.69 61.80 134.70
  Q 58.10 134.78 54.88 133.09
  Z"
/>
<path d="
  M 98.87 135.72
  A 1.43 1.42 10.9 0 1 97.71 134.02
  C 98.41 130.73 104.17 129.23 106.94 128.64
  A 0.75 0.74 69.2 0 1 107.75 129.01
  Q 110.10 133.31 106.74 136.52
  Q 106.26 136.98 105.59 136.87
  L 98.87 135.72
  Z"
/>
</g>
<g fill="#6c3f3a">
<path d="
  M 75.36 100.85
  C 76.60 107.26 79.70 114.50 85.55 117.95
  Q 86.02 118.22 86.55 118.13
  C 92.22 117.14 95.71 107.14 97.31 103.45
  Q 97.51 102.98 97.97 102.77
  Q 104.38 99.82 107.64 93.60
  Q 107.88 93.13 108.36 92.91
  Q 111.48 91.45 113.15 94.80
  C 116.54 101.60 118.83 106.35 120.07 113.82
  Q 121.55 122.84 121.81 132.42
  Q 121.85 133.74 120.56 134.07
  L 114.60 135.59
  Q 113.96 135.76 114.06 135.11
  Q 114.91 129.25 111.46 124.66
  Q 111.11 124.19 111.21 123.62
  Q 111.85 119.91 110.38 116.36
  A 2.22 2.22 0.0 0 0 107.55 115.13
  C 103.96 116.48 106.18 119.52 105.94 122.10
  Q 105.88 122.66 105.35 122.85
  C 98.34 125.39 90.67 128.02 92.37 136.67
  A 0.40 0.40 0.0 0 1 91.96 137.15
  L 68.83 136.13
  Q 68.41 136.11 68.39 135.68
  Q 67.71 117.96 69.97 100.52
  Q 70.09 99.56 71.16 97.43
  Q 71.42 96.90 71.86 97.30
  L 74.86 99.98
  Q 75.26 100.33 75.36 100.85
  Z"
/>
<path d="
  M 102.55 150.68
  C 98.09 147.09 88.67 147.01 86.04 153.93
  C 84.93 156.84 85.50 161.73 85.49 164.90
  A 0.90 0.90 0.0 0 1 84.59 165.79
  C 79.84 165.78 73.76 166.85 69.31 165.63
  Q 68.83 165.50 68.70 165.02
  C 66.76 158.17 68.02 149.44 68.14 142.37
  A 0.58 0.57 -87.2 0 1 68.76 141.80
  Q 95.19 143.90 121.63 142.03
  A 0.65 0.65 0.0 0 1 122.33 142.68
  L 122.37 164.88
  Q 122.38 165.70 121.56 165.70
  L 108.70 165.66
  A 2.08 2.08 0.0 0 1 106.65 163.32
  C 107.25 158.53 106.45 153.83 102.55 150.68
  Z"
/>
</g>
</svg>
