<?xml version="1.0" encoding="UTF-8" standalone="no"?>
<!DOCTYPE svg PUBLIC "-//W3C//DTD SVG 1.1//EN" "http://www.w3.org/Graphics/SVG/1.1/DTD/svg11.dtd">
<svg xmlns="http://www.w3.org/2000/svg" version="1.1" viewBox="0 0 180 180">
<g stroke-width="2.00" fill="none" stroke-linecap="butt">
<path stroke="#533d3e" vector-effect="non-scaling-stroke" d="
  M 104.48 62.28
  C 101.35 54.71 96.14 50.24 87.99 50.18
  C 78.76 50.13 74.66 55.76 71.52 63.47
  A 0.78 0.78 0.0 0 0 72.21 64.55
  Q 87.74 65.18 103.29 64.18
  Q 105.21 64.06 104.48 62.28"
/>
<path stroke="#927a6d" vector-effect="non-scaling-stroke" d="
  M 112.29 74.36
  Q 109.97 72.71 110.18 75.55
  C 110.46 79.12 108.19 83.74 104.18 84.34
  C 96.97 85.43 96.59 75.35 96.22 71.08
  Q 96.19 70.72 95.82 70.71
  L 71.13 70.29
  Q 70.63 70.29 70.63 70.78
  C 70.50 79.76 70.38 86.96 75.68 92.95
  C 82.28 100.42 92.67 100.61 100.21 94.22
  C 103.19 91.70 101.11 86.89 106.43 87.06
  C 113.17 87.27 119.07 79.19 112.29 74.36"
/>
<path stroke="#533d3e" vector-effect="non-scaling-stroke" d="
  M 104.21 78.06
  L 104.60 70.54
  Q 104.63 69.93 104.03 69.97
  L 102.17 70.08
  Q 101.49 70.12 101.60 70.79
  L 102.81 78.14
  A 0.71 0.70 -48.2 0 0 104.21 78.06"
/>
<path stroke="#98989a" vector-effect="non-scaling-stroke" d="
  M 50.16 70.90
  C 48.89 72.86 47.71 74.13 47.78 76.59
  Q 48.35 96.96 48.81 117.35
  Q 48.83 118.00 49.47 118.00
  L 53.18 118.00
  Q 53.78 118.00 53.77 117.40
  Q 53.34 97.14 52.65 76.88
  C 52.57 74.53 51.83 72.95 50.83 70.94
  A 0.39 0.39 0.0 0 0 50.16 70.90"
/>
<path stroke="#533d3e" vector-effect="non-scaling-stroke" d="
  M 102.97 99.90
  L 109.10 98.99
  Q 109.61 98.92 109.99 98.57
  L 113.16 95.65
  Q 113.60 95.24 113.25 94.75
  L 111.84 92.80
  Q 111.41 92.20 110.85 92.69
  L 102.85 99.65
  A 0.15 0.14 20.0 0 0 102.97 99.90"
/>
<path stroke="#533d3e" vector-effect="non-scaling-stroke" d="
  M 88.81 109.44
  Q 83.80 104.88 77.69 102.06
  Q 75.37 100.99 72.02 97.15
  Q 71.42 96.47 71.12 97.32
  L 69.78 101.05
  Q 69.54 101.70 70.12 102.09
  L 86.64 113.29
  Q 87.07 113.58 87.35 113.14
  L 89.30 110.04
  Q 89.46 109.79 89.23 109.61
  Q 89.00 109.43 88.81 109.44"
/>
<path stroke="#533d3e" vector-effect="non-scaling-stroke" d="
  M 130.40 131.50
  C 128.78 134.17 124.68 134.74 124.74 130.65
  Q 124.74 130.13 125.09 129.73
  L 130.04 123.98
  Q 130.44 123.52 130.29 122.94
  L 128.64 116.22
  Q 128.49 115.63 128.06 116.05
  Q 121.48 122.50 114.44 128.43
  C 112.38 130.18 109.88 129.04 109.78 126.44
  Q 109.76 125.96 110.06 125.58
  C 114.26 120.25 120.10 116.17 124.73 111.03
  Q 125.12 110.60 124.65 110.24
  L 120.37 106.97
  Q 119.89 106.60 119.46 107.02
  C 117.59 108.82 109.99 116.72 107.42 114.03
  C 104.82 111.32 111.38 106.95 113.13 105.80
  A 0.71 0.71 0.0 0 0 112.71 104.50
  C 99.22 105.00 90.75 113.33 88.78 126.27
  Q 88.68 126.91 89.29 126.68
  Q 92.45 125.46 93.02 129.01
  A 1.99 1.99 0.0 0 1 92.29 130.88
  L 89.42 133.15
  Q 88.87 133.58 89.16 134.22
  L 91.96 140.50
  Q 92.24 141.12 92.73 140.66
  Q 97.29 136.37 101.69 131.94
  C 105.47 128.15 108.52 134.05 105.25 136.79
  Q 100.76 140.53 96.68 144.67
  Q 96.26 145.10 96.79 145.36
  L 102.27 148.06
  Q 102.80 148.32 103.25 147.93
  Q 107.91 143.87 117.06 136.32
  C 120.68 133.33 124.40 137.32 120.34 140.66
  Q 115.58 144.59 110.79 148.62
  Q 110.26 149.06 110.95 149.14
  Q 121.48 150.31 127.66 142.70
  C 130.16 139.62 130.71 135.68 131.22 131.79
  A 0.44 0.44 0.0 0 0 130.40 131.50"
/>
<path stroke="#3d504e" vector-effect="non-scaling-stroke" d="
  M 76.42 113.23
  L 69.40 108.47
  A 0.36 0.36 0.0 0 0 68.83 108.75
  L 68.38 120.85
  Q 68.36 121.53 68.85 121.06
  L 76.47 113.85
  A 0.40 0.40 0.0 0 0 76.42 113.23"
/>
<path stroke="#533d3e" vector-effect="non-scaling-stroke" d="
  M 74.23 129.98
  C 76.34 128.91 83.31 124.00 84.39 120.17
  Q 84.53 119.66 84.16 119.28
  L 82.21 117.34
  Q 81.68 116.81 81.14 117.33
  L 68.66 129.34
  Q 68.13 129.85 68.85 130.02
  Q 72.46 130.89 74.23 129.98"
/>
<path stroke="#3d504e" vector-effect="non-scaling-stroke" d="
  M 53.38 128.67
  A 1.06 1.05 76.5 0 1 53.92 127.78
  Q 57.55 125.78 61.72 126.33
  Q 62.38 126.41 62.42 125.75
  L 62.52 124.16
  Q 62.55 123.71 62.09 123.71
  L 39.49 123.73
  Q 38.87 123.73 38.98 124.35
  L 39.21 125.61
  Q 39.36 126.39 40.12 126.18
  Q 44.77 124.92 48.17 128.07
  Q 48.50 128.37 48.50 128.82
  L 48.50 133.71
  Q 48.50 134.48 49.27 134.55
  L 52.53 134.81
  Q 53.18 134.86 53.20 134.21
  L 53.38 128.67"
/>
<path stroke="#927a6d" vector-effect="non-scaling-stroke" d="
  M 62.2972 132.8813
  A 0.57 0.57 0.0 0 0 61.7527 132.2870
  L 59.6547 132.1954
  A 0.57 0.57 0.0 0 0 59.0603 132.7400
  L 59.0028 134.0587
  A 0.57 0.57 0.0 0 0 59.5473 134.6530
  L 61.6453 134.7446
  A 0.57 0.57 0.0 0 0 62.2397 134.2000
  L 62.2972 132.8813"
/>
<path stroke="#533d3e" vector-effect="non-scaling-stroke" d="
  M 68.25 138.94
  A 0.59 0.59 0.0 0 0 68.84 139.53
  L 84.01 139.43
  A 0.59 0.59 0.0 0 0 84.57 138.69
  L 83.90 136.19
  A 0.59 0.59 0.0 0 0 83.33 135.75
  L 68.84 135.75
  A 0.59 0.59 0.0 0 0 68.25 136.34
  L 68.25 138.94"
/>
<path stroke="#533d3e" vector-effect="non-scaling-stroke" d="
  M 91.18 148.23
  L 88.57 145.61
  Q 88.28 145.32 87.87 145.32
  L 68.68 145.51
  A 0.52 0.51 -88.8 0 0 68.17 146.01
  C 67.93 151.59 66.91 158.95 68.52 164.36
  A 2.41 2.41 0.0 0 0 70.88 166.07
  L 84.66 165.70
  A 0.88 0.88 0.0 0 0 85.52 164.80
  C 85.42 159.51 84.14 151.31 90.92 149.27
  Q 91.92 148.97 91.18 148.23"
/>
<path stroke="#533d3e" vector-effect="non-scaling-stroke" d="
  M 122.01 153.87
  C 116.21 155.60 112.00 154.70 106.35 154.67
  Q 105.76 154.67 105.93 155.24
  Q 107.19 159.47 106.79 163.95
  A 1.36 1.36 0.0 0 0 108.00 165.42
  Q 114.81 166.12 121.65 165.48
  Q 122.17 165.44 122.19 164.91
  L 122.56 154.30
  Q 122.58 153.70 122.01 153.87"
/>
<path stroke="#927a6d" vector-effect="non-scaling-stroke" d="
  M 84.97 75.49
  A 2.47 2.47 0.0 0 0 82.50 73.02
  L 82.32 73.02
  A 2.47 2.47 0.0 0 0 79.85 75.49
  L 79.85 89.23
  A 2.47 2.47 0.0 0 0 82.32 91.70
  L 82.50 91.70
  A 2.47 2.47 0.0 0 0 84.97 89.23
  L 84.97 75.49"
/>
<path stroke="#533d3e" vector-effect="non-scaling-stroke" d="
  M 103.3681 117.2939
  A 2.48 2.48 0.0 0 0 99.8770 116.9578
  L 95.2936 120.7361
  A 2.48 2.48 0.0 0 0 94.9574 124.2272
  L 95.0719 124.3661
  A 2.48 2.48 0.0 0 0 98.5630 124.7022
  L 103.1464 120.9239
  A 2.48 2.48 0.0 0 0 103.4826 117.4328
  L 103.3681 117.2939"
/>
</g>
<g fill="#38383c">
<path d="
  M 43.13 116.75
  Q 42.75 98.11 42.50 78.47
  C 42.45 74.13 47.08 57.66 54.08 66.45
  Q 58.13 71.54 58.13 78.01
  C 58.12 91.10 59.22 104.20 59.30 117.34
  Q 59.30 118.00 59.96 118.00
  L 62.21 118.00
  Q 62.68 118.00 62.70 117.53
  C 63.01 107.70 63.30 99.52 67.73 91.70
  Q 67.99 91.25 67.80 90.76
  C 61.91 74.83 64.35 44.61 88.37 44.65
  C 101.71 44.66 110.53 54.25 110.74 67.71
  Q 110.75 68.26 111.28 68.36
  C 121.97 70.55 123.76 81.55 116.79 88.89
  Q 116.40 89.30 116.72 89.78
  Q 120.36 95.17 122.72 101.27
  Q 122.91 101.77 123.37 102.04
  C 136.15 109.67 138.70 126.59 135.62 139.86
  C 134.61 144.25 131.59 147.36 128.50 150.41
  Q 128.13 150.78 128.15 151.29
  C 128.41 158.38 130.31 170.48 122.52 171.32
  Q 114.14 172.22 107.57 171.14
  C 100.00 169.89 101.88 163.93 100.70 158.55
  C 99.72 154.06 96.07 152.66 92.09 154.70
  A 1.87 1.86 -15.5 0 0 91.08 156.48
  C 91.33 160.09 91.89 165.86 90.15 168.68
  C 87.49 172.99 77.61 171.75 71.76 171.69
  C 67.39 171.65 63.72 169.88 63.12 165.28
  C 62.88 163.47 62.19 161.68 62.22 159.87
  Q 62.39 150.63 62.54 141.39
  Q 62.55 140.85 62.03 140.74
  C 55.00 139.19 43.17 143.76 43.05 132.35
  Q 43.04 131.19 41.89 131.40
  Q 36.99 132.31 34.10 128.58
  Q 33.75 128.12 33.75 127.54
  L 33.75 121.03
  Q 33.75 120.50 34.13 120.12
  Q 37.06 117.18 41.51 118.10
  Q 43.17 118.45 43.13 116.75
  Z
  M 104.48 62.28
  C 101.35 54.71 96.14 50.24 87.99 50.18
  C 78.76 50.13 74.66 55.76 71.52 63.47
  A 0.78 0.78 0.0 0 0 72.21 64.55
  Q 87.74 65.18 103.29 64.18
  Q 105.21 64.06 104.48 62.28
  Z
  M 112.29 74.36
  Q 109.97 72.71 110.18 75.55
  C 110.46 79.12 108.19 83.74 104.18 84.34
  C 96.97 85.43 96.59 75.35 96.22 71.08
  Q 96.19 70.72 95.82 70.71
  L 71.13 70.29
  Q 70.63 70.29 70.63 70.78
  C 70.50 79.76 70.38 86.96 75.68 92.95
  C 82.28 100.42 92.67 100.61 100.21 94.22
  C 103.19 91.70 101.11 86.89 106.43 87.06
  C 113.17 87.27 119.07 79.19 112.29 74.36
  Z
  M 104.21 78.06
  L 104.60 70.54
  Q 104.63 69.93 104.03 69.97
  L 102.17 70.08
  Q 101.49 70.12 101.60 70.79
  L 102.81 78.14
  A 0.71 0.70 -48.2 0 0 104.21 78.06
  Z
  M 50.16 70.90
  C 48.89 72.86 47.71 74.13 47.78 76.59
  Q 48.35 96.96 48.81 117.35
  Q 48.83 118.00 49.47 118.00
  L 53.18 118.00
  Q 53.78 118.00 53.77 117.40
  Q 53.34 97.14 52.65 76.88
  C 52.57 74.53 51.83 72.95 50.83 70.94
  A 0.39 0.39 0.0 0 0 50.16 70.90
  Z
  M 102.97 99.90
  L 109.10 98.99
  Q 109.61 98.92 109.99 98.57
  L 113.16 95.65
  Q 113.60 95.24 113.25 94.75
  L 111.84 92.80
  Q 111.41 92.20 110.85 92.69
  L 102.85 99.65
  A 0.15 0.14 20.0 0 0 102.97 99.90
  Z
  M 88.81 109.44
  Q 83.80 104.88 77.69 102.06
  Q 75.37 100.99 72.02 97.15
  Q 71.42 96.47 71.12 97.32
  L 69.78 101.05
  Q 69.54 101.70 70.12 102.09
  L 86.64 113.29
  Q 87.07 113.58 87.35 113.14
  L 89.30 110.04
  Q 89.46 109.79 89.23 109.61
  Q 89.00 109.43 88.81 109.44
  Z
  M 130.40 131.50
  C 128.78 134.17 124.68 134.74 124.74 130.65
  Q 124.74 130.13 125.09 129.73
  L 130.04 123.98
  Q 130.44 123.52 130.29 122.94
  L 128.64 116.22
  Q 128.49 115.63 128.06 116.05
  Q 121.48 122.50 114.44 128.43
  C 112.38 130.18 109.88 129.04 109.78 126.44
  Q 109.76 125.96 110.06 125.58
  C 114.26 120.25 120.10 116.17 124.73 111.03
  Q 125.12 110.60 124.65 110.24
  L 120.37 106.97
  Q 119.89 106.60 119.46 107.02
  C 117.59 108.82 109.99 116.72 107.42 114.03
  C 104.82 111.32 111.38 106.95 113.13 105.80
  A 0.71 0.71 0.0 0 0 112.71 104.50
  C 99.22 105.00 90.75 113.33 88.78 126.27
  Q 88.68 126.91 89.29 126.68
  Q 92.45 125.46 93.02 129.01
  A 1.99 1.99 0.0 0 1 92.29 130.88
  L 89.42 133.15
  Q 88.87 133.58 89.16 134.22
  L 91.96 140.50
  Q 92.24 141.12 92.73 140.66
  Q 97.29 136.37 101.69 131.94
  C 105.47 128.15 108.52 134.05 105.25 136.79
  Q 100.76 140.53 96.68 144.67
  Q 96.26 145.10 96.79 145.36
  L 102.27 148.06
  Q 102.80 148.32 103.25 147.93
  Q 107.91 143.87 117.06 136.32
  C 120.68 133.33 124.40 137.32 120.34 140.66
  Q 115.58 144.59 110.79 148.62
  Q 110.26 149.06 110.95 149.14
  Q 121.48 150.31 127.66 142.70
  C 130.16 139.62 130.71 135.68 131.22 131.79
  A 0.44 0.44 0.0 0 0 130.40 131.50
  Z
  M 76.42 113.23
  L 69.40 108.47
  A 0.36 0.36 0.0 0 0 68.83 108.75
  L 68.38 120.85
  Q 68.36 121.53 68.85 121.06
  L 76.47 113.85
  A 0.40 0.40 0.0 0 0 76.42 113.23
  Z
  M 74.23 129.98
  C 76.34 128.91 83.31 124.00 84.39 120.17
  Q 84.53 119.66 84.16 119.28
  L 82.21 117.34
  Q 81.68 116.81 81.14 117.33
  L 68.66 129.34
  Q 68.13 129.85 68.85 130.02
  Q 72.46 130.89 74.23 129.98
  Z
  M 53.38 128.67
  A 1.06 1.05 76.5 0 1 53.92 127.78
  Q 57.55 125.78 61.72 126.33
  Q 62.38 126.41 62.42 125.75
  L 62.52 124.16
  Q 62.55 123.71 62.09 123.71
  L 39.49 123.73
  Q 38.87 123.73 38.98 124.35
  L 39.21 125.61
  Q 39.36 126.39 40.12 126.18
  Q 44.77 124.92 48.17 128.07
  Q 48.50 128.37 48.50 128.82
  L 48.50 133.71
  Q 48.50 134.48 49.27 134.55
  L 52.53 134.81
  Q 53.18 134.86 53.20 134.21
  L 53.38 128.67
  Z
  M 62.2972 132.8813
  A 0.57 0.57 0.0 0 0 61.7527 132.2870
  L 59.6547 132.1954
  A 0.57 0.57 0.0 0 0 59.0603 132.7400
  L 59.0028 134.0587
  A 0.57 0.57 0.0 0 0 59.5473 134.6530
  L 61.6453 134.7446
  A 0.57 0.57 0.0 0 0 62.2397 134.2000
  L 62.2972 132.8813
  Z
  M 68.25 138.94
  A 0.59 0.59 0.0 0 0 68.84 139.53
  L 84.01 139.43
  A 0.59 0.59 0.0 0 0 84.57 138.69
  L 83.90 136.19
  A 0.59 0.59 0.0 0 0 83.33 135.75
  L 68.84 135.75
  A 0.59 0.59 0.0 0 0 68.25 136.34
  L 68.25 138.94
  Z
  M 91.18 148.23
  L 88.57 145.61
  Q 88.28 145.32 87.87 145.32
  L 68.68 145.51
  A 0.52 0.51 -88.8 0 0 68.17 146.01
  C 67.93 151.59 66.91 158.95 68.52 164.36
  A 2.41 2.41 0.0 0 0 70.88 166.07
  L 84.66 165.70
  A 0.88 0.88 0.0 0 0 85.52 164.80
  C 85.42 159.51 84.14 151.31 90.92 149.27
  Q 91.92 148.97 91.18 148.23
  Z
  M 122.01 153.87
  C 116.21 155.60 112.00 154.70 106.35 154.67
  Q 105.76 154.67 105.93 155.24
  Q 107.19 159.47 106.79 163.95
  A 1.36 1.36 0.0 0 0 108.00 165.42
  Q 114.81 166.12 121.65 165.48
  Q 122.17 165.44 122.19 164.91
  L 122.56 154.30
  Q 122.58 153.70 122.01 153.87
  Z"
/>
<rect x="79.85" y="73.02" width="5.12" height="18.68" rx="2.47"/>
<rect x="-5.45" y="-2.57" transform="translate(99.22,120.83) rotate(-39.5)" width="10.90" height="5.14" rx="2.48"/>
</g>
<g fill="#ebbc9e">
<path d="
  M 112.29 74.36
  C 119.07 79.19 113.17 87.27 106.43 87.06
  C 101.11 86.89 103.19 91.70 100.21 94.22
  C 92.67 100.61 82.28 100.42 75.68 92.95
  C 70.38 86.96 70.50 79.76 70.63 70.78
  Q 70.63 70.29 71.13 70.29
  L 95.82 70.71
  Q 96.19 70.72 96.22 71.08
  C 96.59 75.35 96.97 85.43 104.18 84.34
  C 108.19 83.74 110.46 79.12 110.18 75.55
  Q 109.97 72.71 112.29 74.36
  Z
  M 84.97 75.49
  A 2.47 2.47 0.0 0 0 82.50 73.02
  L 82.32 73.02
  A 2.47 2.47 0.0 0 0 79.85 75.49
  L 79.85 89.23
  A 2.47 2.47 0.0 0 0 82.32 91.70
  L 82.50 91.70
  A 2.47 2.47 0.0 0 0 84.97 89.23
  L 84.97 75.49
  Z"
/>
<rect x="-1.62" y="-1.23" transform="translate(60.65,133.47) rotate(2.5)" width="3.24" height="2.46" rx="0.57"/>
</g>
<g fill="#6e423f">
<path d="
  M 87.99 50.18
  C 96.14 50.24 101.35 54.71 104.48 62.28
  Q 105.21 64.06 103.29 64.18
  Q 87.74 65.18 72.21 64.55
  A 0.78 0.78 0.0 0 1 71.52 63.47
  C 74.66 55.76 78.76 50.13 87.99 50.18
  Z"
/>
<path d="
  M 104.21 78.06
  A 0.71 0.70 -48.2 0 1 102.81 78.14
  L 101.60 70.79
  Q 101.49 70.12 102.17 70.08
  L 104.03 69.97
  Q 104.63 69.93 104.60 70.54
  L 104.21 78.06
  Z"
/>
<path d="
  M 102.97 99.90
  A 0.15 0.14 20.0 0 1 102.85 99.65
  L 110.85 92.69
  Q 111.41 92.20 111.84 92.80
  L 113.25 94.75
  Q 113.60 95.24 113.16 95.65
  L 109.99 98.57
  Q 109.61 98.92 109.10 98.99
  L 102.97 99.90
  Z"
/>
<path d="
  M 88.81 109.44
  Q 89.00 109.43 89.23 109.61
  Q 89.46 109.79 89.30 110.04
  L 87.35 113.14
  Q 87.07 113.58 86.64 113.29
  L 70.12 102.09
  Q 69.54 101.70 69.78 101.05
  L 71.12 97.32
  Q 71.42 96.47 72.02 97.15
  Q 75.37 100.99 77.69 102.06
  Q 83.80 104.88 88.81 109.44
  Z"
/>
<path d="
  M 124.74 130.65
  C 124.68 134.74 128.78 134.17 130.40 131.50
  A 0.44 0.44 0.0 0 1 131.22 131.79
  C 130.71 135.68 130.16 139.62 127.66 142.70
  Q 121.48 150.31 110.95 149.14
  Q 110.26 149.06 110.79 148.62
  Q 115.58 144.59 120.34 140.66
  C 124.40 137.32 120.68 133.33 117.06 136.32
  Q 107.91 143.87 103.25 147.93
  Q 102.80 148.32 102.27 148.06
  L 96.79 145.36
  Q 96.26 145.10 96.68 144.67
  Q 100.76 140.53 105.25 136.79
  C 108.52 134.05 105.47 128.15 101.69 131.94
  Q 97.29 136.37 92.73 140.66
  Q 92.24 141.12 91.96 140.50
  L 89.16 134.22
  Q 88.87 133.58 89.42 133.15
  L 92.29 130.88
  A 1.99 1.99 0.0 0 0 93.02 129.01
  Q 92.45 125.46 89.29 126.68
  Q 88.68 126.91 88.78 126.27
  C 90.75 113.33 99.22 105.00 112.71 104.50
  A 0.71 0.71 0.0 0 1 113.13 105.80
  C 111.38 106.95 104.82 111.32 107.42 114.03
  C 109.99 116.72 117.59 108.82 119.46 107.02
  Q 119.89 106.60 120.37 106.97
  L 124.65 110.24
  Q 125.12 110.60 124.73 111.03
  C 120.10 116.17 114.26 120.25 110.06 125.58
  Q 109.76 125.96 109.78 126.44
  C 109.88 129.04 112.38 130.18 114.44 128.43
  Q 121.48 122.50 128.06 116.05
  Q 128.49 115.63 128.64 116.22
  L 130.29 122.94
  Q 130.44 123.52 130.04 123.98
  L 125.09 129.73
  Q 124.74 130.13 124.74 130.65
  Z
  M 103.3681 117.2939
  A 2.48 2.48 0.0 0 0 99.8770 116.9578
  L 95.2936 120.7361
  A 2.48 2.48 0.0 0 0 94.9574 124.2272
  L 95.0719 124.3661
  A 2.48 2.48 0.0 0 0 98.5630 124.7022
  L 103.1464 120.9239
  A 2.48 2.48 0.0 0 0 103.4826 117.4328
  L 103.3681 117.2939
  Z"
/>
<path d="
  M 84.39 120.17
  C 83.31 124.00 76.34 128.91 74.23 129.98
  Q 72.46 130.89 68.85 130.02
  Q 68.13 129.85 68.66 129.34
  L 81.14 117.33
  Q 81.68 116.81 82.21 117.34
  L 84.16 119.28
  Q 84.53 119.66 84.39 120.17
  Z"
/>
<path d="
  M 68.25 138.94
  L 68.25 136.34
  A 0.59 0.59 0.0 0 1 68.84 135.75
  L 83.33 135.75
  A 0.59 0.59 0.0 0 1 83.90 136.19
  L 84.57 138.69
  A 0.59 0.59 0.0 0 1 84.01 139.43
  L 68.84 139.53
  A 0.59 0.59 0.0 0 1 68.25 138.94
  Z"
/>
<path d="
  M 91.18 148.23
  Q 91.92 148.97 90.92 149.27
  C 84.14 151.31 85.42 159.51 85.52 164.80
  A 0.88 0.88 0.0 0 1 84.66 165.70
  L 70.88 166.07
  A 2.41 2.41 0.0 0 1 68.52 164.36
  C 66.91 158.95 67.93 151.59 68.17 146.01
  A 0.52 0.51 -88.8 0 1 68.68 145.51
  L 87.87 145.32
  Q 88.28 145.32 88.57 145.61
  L 91.18 148.23
  Z"
/>
<path d="
  M 106.35 154.67
  C 112.00 154.70 116.21 155.60 122.01 153.87
  Q 122.58 153.70 122.56 154.30
  L 122.19 164.91
  Q 122.17 165.44 121.65 165.48
  Q 114.81 166.12 108.00 165.42
  A 1.36 1.36 0.0 0 1 106.79 163.95
  Q 107.19 159.47 105.93 155.24
  Q 105.76 154.67 106.35 154.67
  Z"
/>
</g>
<path fill="#f8f8f8" d="
  M 50.16 70.90
  A 0.39 0.39 0.0 0 1 50.83 70.94
  C 51.83 72.95 52.57 74.53 52.65 76.88
  Q 53.34 97.14 53.77 117.40
  Q 53.78 118.00 53.18 118.00
  L 49.47 118.00
  Q 48.83 118.00 48.81 117.35
  Q 48.35 96.96 47.78 76.59
  C 47.71 74.13 48.89 72.86 50.16 70.90
  Z"
/>
<g fill="#42685f">
<path d="
  M 76.42 113.23
  A 0.40 0.40 0.0 0 1 76.47 113.85
  L 68.85 121.06
  Q 68.36 121.53 68.38 120.85
  L 68.83 108.75
  A 0.36 0.36 0.0 0 1 69.40 108.47
  L 76.42 113.23
  Z"
/>
<path d="
  M 53.38 128.67
  L 53.20 134.21
  Q 53.18 134.86 52.53 134.81
  L 49.27 134.55
  Q 48.50 134.48 48.50 133.71
  L 48.50 128.82
  Q 48.50 128.37 48.17 128.07
  Q 44.77 124.92 40.12 126.18
  Q 39.36 126.39 39.21 125.61
  L 38.98 124.35
  Q 38.87 123.73 39.49 123.73
  L 62.09 123.71
  Q 62.55 123.71 62.52 124.16
  L 62.42 125.75
  Q 62.38 126.41 61.72 126.33
  Q 57.55 125.78 53.92 127.78
  A 1.06 1.05 76.5 0 0 53.38 128.67
  Z"
/>
</g>
</svg>
