<?xml version="1.0" encoding="UTF-8" standalone="no"?>
<!DOCTYPE svg PUBLIC "-//W3C//DTD SVG 1.1//EN" "http://www.w3.org/Graphics/SVG/1.1/DTD/svg11.dtd">
<svg xmlns="http://www.w3.org/2000/svg" version="1.1" viewBox="0 0 180 180">
<g stroke-width="2.00" fill="none" stroke-linecap="butt">
<path stroke="#927a6d" vector-effect="non-scaling-stroke" d="
  M 112.53 74.74
  C 109.83 72.94 104.53 76.14 104.94 70.26
  C 105.70 59.40 99.96 50.53 88.26 50.26
  Q 78.83 50.05 74.11 58.06
  C 69.65 65.64 70.24 71.09 70.94 80.62
  C 71.84 92.97 81.64 101.84 94.24 97.75
  Q 101.25 95.48 102.67 88.94
  C 102.94 87.70 104.95 87.00 106.32 87.05
  C 112.80 87.31 119.24 79.20 112.53 74.74"
/>
<path stroke="#98989a" vector-effect="non-scaling-stroke" d="
  M 45.00 95.69
  C 47.63 95.54 48.41 97.76 49.48 99.62
  Q 49.76 100.11 50.32 100.07
  L 54.67 99.74
  Q 55.31 99.69 55.55 99.09
  C 57.74 93.65 60.00 95.03 65.17 94.97
  Q 65.68 94.96 66.01 94.57
  Q 67.66 92.65 67.19 90.30
  Q 65.62 82.37 65.18 76.18
  C 64.78 70.61 62.16 63.78 55.99 62.53
  Q 48.31 60.99 43.04 66.31
  C 35.55 73.86 35.95 84.75 36.33 94.83
  Q 36.35 95.34 36.85 95.41
  Q 40.50 95.94 45.00 95.69"
/>
<path stroke="#533d3e" vector-effect="non-scaling-stroke" d="
  M 91.75 114.40
  C 84.20 125.80 76.83 107.14 75.57 102.04
  C 74.98 99.63 73.61 98.73 71.83 97.30
  Q 71.32 96.89 71.10 97.50
  Q 70.35 99.49 69.74 103.25
  C 67.99 113.92 68.32 124.92 68.20 135.62
  A 0.51 0.51 0.0 0 0 68.68 136.13
  L 91.97 137.16
  A 0.51 0.51 0.0 0 0 92.48 136.49
  C 89.57 127.93 100.19 125.13 105.45 122.68
  Q 105.95 122.44 105.98 121.89
  C 106.13 119.33 103.85 115.44 108.33 115.02
  A 1.96 1.95 -14.6 0 1 110.30 116.17
  Q 111.93 119.79 111.20 123.60
  Q 111.08 124.19 111.45 124.66
  Q 114.97 129.22 114.04 135.12
  Q 113.94 135.78 114.59 135.61
  L 121.16 133.88
  Q 121.79 133.71 121.79 133.05
  C 121.59 119.49 119.93 105.87 112.59 93.92
  C 111.37 91.93 110.01 91.99 108.14 93.16
  Q 107.76 93.39 107.55 93.78
  Q 104.21 99.99 97.69 102.94
  Q 97.21 103.16 97.04 103.66
  Q 95.08 109.38 91.75 114.40"
/>
<path stroke="#927a6d" vector-effect="non-scaling-stroke" d="
  M 89.97 104.56
  C 87.40 104.94 84.62 104.32 82.12 103.68
  A 0.36 0.36 0.0 0 0 81.72 104.20
  L 85.67 111.36
  A 0.87 0.87 0.0 0 0 87.21 111.32
  L 90.34 105.07
  Q 90.64 104.46 89.97 104.56"
/>
<path stroke="#533d3e" vector-effect="non-scaling-stroke" d="
  M 45.50 160.36
  Q 52.48 160.69 59.31 161.05
  C 60.07 161.09 60.55 160.74 60.50 159.98
  Q 60.46 159.46 59.95 159.51
  C 54.66 160.04 54.18 155.21 54.23 151.35
  Q 54.49 128.93 53.39 106.53
  Q 53.35 105.75 52.57 105.75
  L 51.98 105.75
  Q 51.48 105.75 51.50 106.25
  Q 52.31 130.02 51.49 153.80
  C 51.36 157.41 47.95 158.28 45.34 159.10
  A 0.65 0.64 -52.3 0 0 45.50 160.36"
/>
<path stroke="#927a6d" vector-effect="non-scaling-stroke" d="
  M 62.2650 128.4080
  A 0.66 0.66 0.0 0 0 61.6039 127.7492
  L 60.6839 127.7508
  A 0.66 0.66 0.0 0 0 60.0250 128.4120
  L 60.0350 134.0920
  A 0.66 0.66 0.0 0 0 60.6961 134.7508
  L 61.6161 134.7492
  A 0.66 0.66 0.0 0 0 62.2750 134.0880
  L 62.2650 128.4080"
/>
<path stroke="#927a6d" vector-effect="non-scaling-stroke" d="
  M 98.89 135.73
  L 105.76 136.88
  Q 106.33 136.97 106.73 136.56
  Q 109.93 133.35 107.80 129.04
  Q 107.59 128.63 107.14 128.69
  C 104.34 129.09 98.32 130.73 97.73 134.10
  A 1.41 1.40 9.7 0 0 98.89 135.73"
/>
<path stroke="#533d3e" vector-effect="non-scaling-stroke" d="
  M 86.04 153.92
  C 88.64 147.10 97.88 147.06 102.39 150.56
  C 106.37 153.65 107.26 158.30 106.66 163.12
  A 2.26 2.26 0.0 0 0 108.89 165.66
  L 120.96 165.72
  A 1.43 1.42 -89.8 0 0 122.39 164.29
  L 122.30 142.87
  A 0.83 0.83 0.0 0 0 121.41 142.04
  Q 95.18 143.89 68.97 141.81
  A 0.73 0.73 0.0 0 0 68.18 142.52
  C 67.98 149.49 66.76 158.20 68.66 165.00
  Q 68.79 165.47 69.26 165.60
  C 73.85 166.80 79.92 165.73 84.78 165.72
  A 0.72 0.71 -89.6 0 0 85.49 165.01
  C 85.50 161.80 84.92 156.85 86.04 153.92"
/>
<path stroke="#927a6d" vector-effect="non-scaling-stroke" d="
  M 84.97 75.49
  A 2.47 2.47 0.0 0 0 82.50 73.02
  L 82.32 73.02
  A 2.47 2.47 0.0 0 0 79.85 75.49
  L 79.85 89.23
  A 2.47 2.47 0.0 0 0 82.32 91.70
  L 82.50 91.70
  A 2.47 2.47 0.0 0 0 84.97 89.23
  L 84.97 75.49"
/>
<path stroke="#98989a" vector-effect="non-scaling-stroke" d="
  M 56.6605 88.2262
  A 2.47 2.47 0.0 0 0 54.0975 85.8529
  L 49.9806 86.0110
  A 2.47 2.47 0.0 0 0 47.6072 88.5740
  L 47.6195 88.8938
  A 2.47 2.47 0.0 0 0 50.1825 91.2671
  L 54.2994 91.1090
  A 2.47 2.47 0.0 0 0 56.6728 88.5460
  L 56.6605 88.2262"
/>
</g>
<g fill="#38383c">
<path d="
  M 66.69 62.22
  C 73.69 36.03 110.15 39.88 110.74 67.78
  Q 110.75 68.34 111.30 68.45
  C 122.01 70.57 123.75 81.62 116.76 88.90
  Q 116.40 89.28 116.69 89.71
  Q 125.07 102.44 126.47 117.00
  Q 128.59 139.23 128.10 164.05
  C 128.02 168.10 126.70 170.85 122.53 171.31
  Q 113.76 172.30 106.75 170.99
  C 96.53 169.09 105.94 150.52 92.91 154.24
  A 2.50 2.49 80.3 0 0 91.11 156.79
  C 91.49 163.09 92.95 171.37 83.81 171.59
  C 75.84 171.78 67.35 173.48 63.16 167.28
  Q 62.88 166.87 62.39 166.86
  Q 54.96 166.66 47.55 166.22
  C 44.32 166.02 41.59 167.09 40.27 163.04
  C 39.21 159.82 39.46 152.52 44.78 153.29
  A 0.72 0.71 5.1 0 0 45.60 152.61
  Q 46.56 128.47 45.92 104.25
  Q 45.89 103.23 44.17 101.54
  Q 43.83 101.21 43.35 101.23
  C 36.32 101.47 30.96 102.61 30.72 93.52
  C 30.56 87.41 30.26 81.99 31.70 75.49
  C 34.34 63.61 44.63 54.24 57.50 57.03
  Q 62.75 58.17 66.11 62.34
  Q 66.52 62.85 66.69 62.22
  Z
  M 112.53 74.74
  C 109.83 72.94 104.53 76.14 104.94 70.26
  C 105.70 59.40 99.96 50.53 88.26 50.26
  Q 78.83 50.05 74.11 58.06
  C 69.65 65.64 70.24 71.09 70.94 80.62
  C 71.84 92.97 81.64 101.84 94.24 97.75
  Q 101.25 95.48 102.67 88.94
  C 102.94 87.70 104.95 87.00 106.32 87.05
  C 112.80 87.31 119.24 79.20 112.53 74.74
  Z
  M 45.00 95.69
  C 47.63 95.54 48.41 97.76 49.48 99.62
  Q 49.76 100.11 50.32 100.07
  L 54.67 99.74
  Q 55.31 99.69 55.55 99.09
  C 57.74 93.65 60.00 95.03 65.17 94.97
  Q 65.68 94.96 66.01 94.57
  Q 67.66 92.65 67.19 90.30
  Q 65.62 82.37 65.18 76.18
  C 64.78 70.61 62.16 63.78 55.99 62.53
  Q 48.31 60.99 43.04 66.31
  C 35.55 73.86 35.95 84.75 36.33 94.83
  Q 36.35 95.34 36.85 95.41
  Q 40.50 95.94 45.00 95.69
  Z
  M 91.75 114.40
  C 84.20 125.80 76.83 107.14 75.57 102.04
  C 74.98 99.63 73.61 98.73 71.83 97.30
  Q 71.32 96.89 71.10 97.50
  Q 70.35 99.49 69.74 103.25
  C 67.99 113.92 68.32 124.92 68.20 135.62
  A 0.51 0.51 0.0 0 0 68.68 136.13
  L 91.97 137.16
  A 0.51 0.51 0.0 0 0 92.48 136.49
  C 89.57 127.93 100.19 125.13 105.45 122.68
  Q 105.95 122.44 105.98 121.89
  C 106.13 119.33 103.85 115.44 108.33 115.02
  A 1.96 1.95 -14.6 0 1 110.30 116.17
  Q 111.93 119.79 111.20 123.60
  Q 111.08 124.19 111.45 124.66
  Q 114.97 129.22 114.04 135.12
  Q 113.94 135.78 114.59 135.61
  L 121.16 133.88
  Q 121.79 133.71 121.79 133.05
  C 121.59 119.49 119.93 105.87 112.59 93.92
  C 111.37 91.93 110.01 91.99 108.14 93.16
  Q 107.76 93.39 107.55 93.78
  Q 104.21 99.99 97.69 102.94
  Q 97.21 103.16 97.04 103.66
  Q 95.08 109.38 91.75 114.40
  Z
  M 63.75 100.65
  C 61.02 99.65 60.56 101.53 59.47 103.24
  Q 59.20 103.67 59.21 104.17
  L 59.64 121.71
  Q 59.66 122.27 60.21 122.26
  L 62.07 122.23
  Q 62.77 122.22 62.75 121.52
  Q 62.49 111.35 64.14 101.32
  Q 64.22 100.82 63.75 100.65
  Z
  M 89.97 104.56
  C 87.40 104.94 84.62 104.32 82.12 103.68
  A 0.36 0.36 0.0 0 0 81.72 104.20
  L 85.67 111.36
  A 0.87 0.87 0.0 0 0 87.21 111.32
  L 90.34 105.07
  Q 90.64 104.46 89.97 104.56
  Z
  M 45.50 160.36
  Q 52.48 160.69 59.31 161.05
  C 60.07 161.09 60.55 160.74 60.50 159.98
  Q 60.46 159.46 59.95 159.51
  C 54.66 160.04 54.18 155.21 54.23 151.35
  Q 54.49 128.93 53.39 106.53
  Q 53.35 105.75 52.57 105.75
  L 51.98 105.75
  Q 51.48 105.75 51.50 106.25
  Q 52.31 130.02 51.49 153.80
  C 51.36 157.41 47.95 158.28 45.34 159.10
  A 0.65 0.64 -52.3 0 0 45.50 160.36
  Z
  M 62.2650 128.4080
  A 0.66 0.66 0.0 0 0 61.6039 127.7492
  L 60.6839 127.7508
  A 0.66 0.66 0.0 0 0 60.0250 128.4120
  L 60.0350 134.0920
  A 0.66 0.66 0.0 0 0 60.6961 134.7508
  L 61.6161 134.7492
  A 0.66 0.66 0.0 0 0 62.2750 134.0880
  L 62.2650 128.4080
  Z
  M 98.89 135.73
  L 105.76 136.88
  Q 106.33 136.97 106.73 136.56
  Q 109.93 133.35 107.80 129.04
  Q 107.59 128.63 107.14 128.69
  C 104.34 129.09 98.32 130.73 97.73 134.10
  A 1.41 1.40 9.7 0 0 98.89 135.73
  Z
  M 62.4586 141.5009
  A 0.98 0.98 0.0 0 0 61.4872 140.5124
  L 60.9873 140.5081
  A 0.98 0.98 0.0 0 0 59.9987 141.4795
  L 59.9014 152.6391
  A 0.98 0.98 0.0 0 0 60.8728 153.6276
  L 61.3727 153.6319
  A 0.98 0.98 0.0 0 0 62.3613 152.6605
  L 62.4586 141.5009
  Z
  M 86.04 153.92
  C 88.64 147.10 97.88 147.06 102.39 150.56
  C 106.37 153.65 107.26 158.30 106.66 163.12
  A 2.26 2.26 0.0 0 0 108.89 165.66
  L 120.96 165.72
  A 1.43 1.42 -89.8 0 0 122.39 164.29
  L 122.30 142.87
  A 0.83 0.83 0.0 0 0 121.41 142.04
  Q 95.18 143.89 68.97 141.81
  A 0.73 0.73 0.0 0 0 68.18 142.52
  C 67.98 149.49 66.76 158.20 68.66 165.00
  Q 68.79 165.47 69.26 165.60
  C 73.85 166.80 79.92 165.73 84.78 165.72
  A 0.72 0.71 -89.6 0 0 85.49 165.01
  C 85.50 161.80 84.92 156.85 86.04 153.92
  Z"
/>
<rect x="79.85" y="73.02" width="5.12" height="18.68" rx="2.47"/>
<rect x="-4.53" y="-2.63" transform="translate(52.14,88.56) rotate(-2.2)" width="9.06" height="5.26" rx="2.47"/>
</g>
<g fill="#ebbc9e">
<path d="
  M 112.53 74.74
  C 119.24 79.20 112.80 87.31 106.32 87.05
  C 104.95 87.00 102.94 87.70 102.67 88.94
  Q 101.25 95.48 94.24 97.75
  C 81.64 101.84 71.84 92.97 70.94 80.62
  C 70.24 71.09 69.65 65.64 74.11 58.06
  Q 78.83 50.05 88.26 50.26
  C 99.96 50.53 105.70 59.40 104.94 70.26
  C 104.53 76.14 109.83 72.94 112.53 74.74
  Z
  M 84.97 75.49
  A 2.47 2.47 0.0 0 0 82.50 73.02
  L 82.32 73.02
  A 2.47 2.47 0.0 0 0 79.85 75.49
  L 79.85 89.23
  A 2.47 2.47 0.0 0 0 82.32 91.70
  L 82.50 91.70
  A 2.47 2.47 0.0 0 0 84.97 89.23
  L 84.97 75.49
  Z"
/>
<path d="
  M 82.12 103.68
  C 84.62 104.32 87.40 104.94 89.97 104.56
  Q 90.64 104.46 90.34 105.07
  L 87.21 111.32
  A 0.87 0.87 0.0 0 1 85.67 111.36
  L 81.72 104.20
  A 0.36 0.36 0.0 0 1 82.12 103.68
  Z"
/>
<rect x="-1.12" y="-3.50" transform="translate(61.15,131.25) rotate(-0.1)" width="2.24" height="7.00" rx="0.66"/>
<path d="
  M 98.89 135.73
  A 1.41 1.40 9.7 0 1 97.73 134.10
  C 98.32 130.73 104.34 129.09 107.14 128.69
  Q 107.59 128.63 107.80 129.04
  Q 109.93 133.35 106.73 136.56
  Q 106.33 136.97 105.76 136.88
  L 98.89 135.73
  Z"
/>
</g>
<g fill="#6e423f">
<path d="
  M 75.57 102.04
  C 76.83 107.14 84.20 125.80 91.75 114.40
  Q 95.08 109.38 97.04 103.66
  Q 97.21 103.16 97.69 102.94
  Q 104.21 99.99 107.55 93.78
  Q 107.76 93.39 108.14 93.16
  C 110.01 91.99 111.37 91.93 112.59 93.92
  C 119.93 105.87 121.59 119.49 121.79 133.05
  Q 121.79 133.71 121.16 133.88
  L 114.59 135.61
  Q 113.94 135.78 114.04 135.12
  Q 114.97 129.22 111.45 124.66
  Q 111.08 124.19 111.20 123.60
  Q 111.93 119.79 110.30 116.17
  A 1.96 1.95 -14.6 0 0 108.33 115.02
  C 103.85 115.44 106.13 119.33 105.98 121.89
  Q 105.95 122.44 105.45 122.68
  C 100.19 125.13 89.57 127.93 92.48 136.49
  A 0.51 0.51 0.0 0 1 91.97 137.16
  L 68.68 136.13
  A 0.51 0.51 0.0 0 1 68.20 135.62
  C 68.32 124.92 67.99 113.92 69.74 103.25
  Q 70.35 99.49 71.10 97.50
  Q 71.32 96.89 71.83 97.30
  C 73.61 98.73 74.98 99.63 75.57 102.04
  Z"
/>
<path d="
  M 45.50 160.36
  A 0.65 0.64 -52.3 0 1 45.34 159.10
  C 47.95 158.28 51.36 157.41 51.49 153.80
  Q 52.31 130.02 51.50 106.25
  Q 51.48 105.75 51.98 105.75
  L 52.57 105.75
  Q 53.35 105.75 53.39 106.53
  Q 54.49 128.93 54.23 151.35
  C 54.18 155.21 54.66 160.04 59.95 159.51
  Q 60.46 159.46 60.50 159.98
  C 60.55 160.74 60.07 161.09 59.31 161.05
  Q 52.48 160.69 45.50 160.36
  Z"
/>
<path d="
  M 102.39 150.56
  C 97.88 147.06 88.64 147.10 86.04 153.92
  C 84.92 156.85 85.50 161.80 85.49 165.01
  A 0.72 0.71 -89.6 0 1 84.78 165.72
  C 79.92 165.73 73.85 166.80 69.26 165.60
  Q 68.79 165.47 68.66 165.00
  C 66.76 158.20 67.98 149.49 68.18 142.52
  A 0.73 0.73 0.0 0 1 68.97 141.81
  Q 95.18 143.89 121.41 142.04
  A 0.83 0.83 0.0 0 1 122.30 142.87
  L 122.39 164.29
  A 1.43 1.42 -89.8 0 1 120.96 165.72
  L 108.89 165.66
  A 2.26 2.26 0.0 0 1 106.66 163.12
  C 107.26 158.30 106.37 153.65 102.39 150.56
  Z"
/>
</g>
<path fill="#f8f8f8" d="
  M 49.48 99.62
  C 48.41 97.76 47.63 95.54 45.00 95.69
  Q 40.50 95.94 36.85 95.41
  Q 36.35 95.34 36.33 94.83
  C 35.95 84.75 35.55 73.86 43.04 66.31
  Q 48.31 60.99 55.99 62.53
  C 62.16 63.78 64.78 70.61 65.18 76.18
  Q 65.62 82.37 67.19 90.30
  Q 67.66 92.65 66.01 94.57
  Q 65.68 94.96 65.17 94.97
  C 60.00 95.03 57.74 93.65 55.55 99.09
  Q 55.31 99.69 54.67 99.74
  L 50.32 100.07
  Q 49.76 100.11 49.48 99.62
  Z
  M 56.6605 88.2262
  A 2.47 2.47 0.0 0 0 54.0975 85.8529
  L 49.9806 86.0110
  A 2.47 2.47 0.0 0 0 47.6072 88.5740
  L 47.6195 88.8938
  A 2.47 2.47 0.0 0 0 50.1825 91.2671
  L 54.2994 91.1090
  A 2.47 2.47 0.0 0 0 56.6728 88.5460
  L 56.6605 88.2262
  Z"
/>
</svg>
