<?xml version="1.0" encoding="UTF-8" standalone="no"?>
<!DOCTYPE svg PUBLIC "-//W3C//DTD SVG 1.1//EN" "http://www.w3.org/Graphics/SVG/1.1/DTD/svg11.dtd">
<svg xmlns="http://www.w3.org/2000/svg" version="1.1" viewBox="0 0 180 180">
<path stroke="#3d504e" stroke-width="2.00" fill="none" stroke-linecap="butt" vector-effect="non-scaling-stroke" d="
  M 82.25 100.54
  Q 82.78 116.42 70.91 126.03
  C 69.85 126.88 69.16 127.82 68.41 128.89
  Q 68.12 129.29 68.12 129.78
  Q 68.02 144.36 67.75 158.94
  C 67.72 160.70 68.09 162.40 68.45 164.02
  A 2.41 2.40 83.6 0 0 70.81 165.91
  L 121.40 165.73
  Q 122.20 165.73 122.23 164.93
  Q 122.78 150.09 121.77 135.27
  Q 121.74 134.77 121.25 134.73
  C 119.75 134.61 119.04 133.53 118.24 133.05
  C 106.57 126.10 91.95 117.22 93.11 102.33
  Q 93.14 101.83 93.41 101.41
  Q 93.80 100.79 93.33 100.20"
/>
<path fill="#38383c" d="
  M 95.73 79.24
  C 111.88 79.23 121.82 93.59 124.78 107.49
  C 128.33 124.20 134.18 136.61 143.00 154.02
  C 147.80 163.49 133.53 167.68 127.31 169.11
  Q 126.82 169.23 126.44 169.56
  C 123.87 171.85 118.23 171.83 114.99 171.66
  Q 97.38 170.69 89.75 171.28
  C 84.49 171.69 70.05 173.39 65.36 169.61
  C 61.93 166.84 62.03 158.06 62.17 154.07
  C 62.91 133.80 61.97 116.90 64.16 101.12
  C 64.61 97.82 65.99 95.10 67.45 92.21
  C 72.86 81.49 84.11 79.24 95.73 79.24
  Z
  M 82.25 100.54
  Q 82.78 116.42 70.91 126.03
  C 69.85 126.88 69.16 127.82 68.41 128.89
  Q 68.12 129.29 68.12 129.78
  Q 68.02 144.36 67.75 158.94
  C 67.72 160.70 68.09 162.40 68.45 164.02
  A 2.41 2.40 83.6 0 0 70.81 165.91
  L 121.40 165.73
  Q 122.20 165.73 122.23 164.93
  Q 122.78 150.09 121.77 135.27
  Q 121.74 134.77 121.25 134.73
  C 119.75 134.61 119.04 133.53 118.24 133.05
  C 106.57 126.10 91.95 117.22 93.11 102.33
  Q 93.14 101.83 93.41 101.41
  Q 93.80 100.79 93.33 100.20
  Q 96.81 98.99 97.78 101.49
  A 1.00 1.00 0.0 0 0 99.40 101.85
  Q 104.94 96.53 108.46 89.69
  A 0.69 0.68 30.3 0 0 108.22 88.80
  C 98.32 82.60 77.73 83.04 72.36 95.13
  Q 72.16 95.58 72.58 95.84
  C 74.61 97.08 76.31 100.39 78.85 99.17
  Q 79.30 98.96 79.79 99.06
  Q 81.25 99.37 82.25 100.54
  Z"
/>
<path fill="#42685f" d="
  M 93.33 100.20
  Q 93.80 100.79 93.41 101.41
  Q 93.14 101.83 93.11 102.33
  C 91.95 117.22 106.57 126.10 118.24 133.05
  C 119.04 133.53 119.75 134.61 121.25 134.73
  Q 121.74 134.77 121.77 135.27
  Q 122.78 150.09 122.23 164.93
  Q 122.20 165.73 121.40 165.73
  L 70.81 165.91
  A 2.41 2.40 83.6 0 1 68.45 164.02
  C 68.09 162.40 67.72 160.70 67.75 158.94
  Q 68.02 144.36 68.12 129.78
  Q 68.12 129.29 68.41 128.89
  C 69.16 127.82 69.85 126.88 70.91 126.03
  Q 82.78 116.42 82.25 100.54
  C 85.97 98.95 89.47 99.88 93.33 100.20
  Z"
/>
</svg>
