<?xml version="1.0" encoding="UTF-8" standalone="no"?>
<!DOCTYPE svg PUBLIC "-//W3C//DTD SVG 1.1//EN" "http://www.w3.org/Graphics/SVG/1.1/DTD/svg11.dtd">
<svg xmlns="http://www.w3.org/2000/svg" version="1.1" viewBox="0 0 180 180">
<g stroke-width="2.00" fill="none" stroke-linecap="butt">
<path stroke="#98989a" vector-effect="non-scaling-stroke" d="
  M 113.35 94.92
  C 106.36 82.86 90.80 83.13 79.68 87.57
  C 66.72 92.75 67.91 118.37 68.11 129.67
  Q 68.12 130.28 68.73 130.27
  Q 94.98 129.50 121.21 130.82
  Q 121.73 130.85 121.72 130.33
  C 121.52 117.09 119.59 105.70 113.35 94.92"
/>
<path stroke="#533d3e" vector-effect="non-scaling-stroke" d="
  M 117.06 136.49
  Q 92.97 135.42 68.83 135.86
  Q 68.27 135.87 68.27 136.43
  L 68.24 138.97
  Q 68.24 139.45 68.72 139.45
  L 121.49 139.29
  Q 122.09 139.28 122.00 138.69
  L 121.76 137.07
  Q 121.67 136.42 121.02 136.46
  Q 119.03 136.57 117.06 136.49"
/>
<path stroke="#98989a" vector-effect="non-scaling-stroke" d="
  M 121.65 145.15
  L 68.84 145.19
  Q 68.29 145.19 68.23 145.74
  Q 67.07 155.24 68.21 164.71
  A 1.44 1.44 0.0 0 0 69.64 165.97
  L 121.25 165.85
  A 0.81 0.74 2.3 0 0 122.04 165.19
  Q 123.06 155.41 122.19 145.64
  Q 122.14 145.15 121.65 145.15"
/>
</g>
<g fill="#f8f8f8">
<path d="
  M 79.68 87.57
  C 90.80 83.13 106.36 82.86 113.35 94.92
  C 119.59 105.70 121.52 117.09 121.72 130.33
  Q 121.73 130.85 121.21 130.82
  Q 94.98 129.50 68.73 130.27
  Q 68.12 130.28 68.11 129.67
  C 67.91 118.37 66.72 92.75 79.68 87.57
  Z"
/>
<path d="
  M 68.84 145.19
  L 121.65 145.15
  Q 122.14 145.15 122.19 145.64
  Q 123.06 155.41 122.04 165.19
  A 0.81 0.74 2.3 0 1 121.25 165.85
  L 69.64 165.97
  A 1.44 1.44 0.0 0 1 68.21 164.71
  Q 67.07 155.24 68.23 145.74
  Q 68.29 145.19 68.84 145.19
  Z"
/>
</g>
<path fill="#38383c" d="
  M 95.48 79.15
  C 129.43 79.10 127.30 128.65 128.22 149.98
  Q 128.59 158.62 128.00 165.99
  C 127.33 174.36 110.42 171.24 105.16 171.24
  Q 88.58 171.25 72.01 171.88
  C 67.87 172.03 64.02 169.80 63.07 165.45
  C 61.33 157.48 62.57 147.95 62.55 141.44
  Q 62.53 129.80 62.71 118.17
  C 63.07 94.60 67.99 79.20 95.48 79.15
  Z
  M 113.35 94.92
  C 106.36 82.86 90.80 83.13 79.68 87.57
  C 66.72 92.75 67.91 118.37 68.11 129.67
  Q 68.12 130.28 68.73 130.27
  Q 94.98 129.50 121.21 130.82
  Q 121.73 130.85 121.72 130.33
  C 121.52 117.09 119.59 105.70 113.35 94.92
  Z
  M 117.06 136.49
  Q 92.97 135.42 68.83 135.86
  Q 68.27 135.87 68.27 136.43
  L 68.24 138.97
  Q 68.24 139.45 68.72 139.45
  L 121.49 139.29
  Q 122.09 139.28 122.00 138.69
  L 121.76 137.07
  Q 121.67 136.42 121.02 136.46
  Q 119.03 136.57 117.06 136.49
  Z
  M 121.65 145.15
  L 68.84 145.19
  Q 68.29 145.19 68.23 145.74
  Q 67.07 155.24 68.21 164.71
  A 1.44 1.44 0.0 0 0 69.64 165.97
  L 121.25 165.85
  A 0.81 0.74 2.3 0 0 122.04 165.19
  Q 123.06 155.41 122.19 145.64
  Q 122.14 145.15 121.65 145.15
  Z"
/>
<path fill="#6e423f" d="
  M 117.06 136.49
  Q 119.03 136.57 121.02 136.46
  Q 121.67 136.42 121.76 137.07
  L 122.00 138.69
  Q 122.09 139.28 121.49 139.29
  L 68.72 139.45
  Q 68.24 139.45 68.24 138.97
  L 68.27 136.43
  Q 68.27 135.87 68.83 135.86
  Q 92.97 135.42 117.06 136.49
  Z"
/>
</svg>
