<?xml version="1.0" encoding="UTF-8" standalone="no"?>
<!DOCTYPE svg PUBLIC "-//W3C//DTD SVG 1.1//EN" "http://www.w3.org/Graphics/SVG/1.1/DTD/svg11.dtd">
<svg xmlns="http://www.w3.org/2000/svg" version="1.1" viewBox="0 0 180 180">
<path stroke="#533d3e" stroke-width="2.00" fill="none" stroke-linecap="butt" vector-effect="non-scaling-stroke" d="
  M 73.00 166.12
  C 89.04 165.56 105.05 166.07 121.08 165.64
  A 1.23 1.23 0.0 0 0 122.28 164.43
  Q 122.63 146.85 121.78 128.93
  C 121.02 112.76 117.36 86.40 96.41 85.08
  C 83.08 84.25 71.62 88.39 69.74 103.33
  C 67.41 121.93 68.26 141.24 67.72 160.00
  Q 67.69 161.10 68.67 165.00
  Q 68.80 165.49 69.28 165.61
  Q 71.41 166.18 73.00 166.12"
/>
<path fill="#6e423f" d="
  M 121.08 165.64
  C 105.05 166.07 89.04 165.56 73.00 166.12
  Q 71.41 166.18 69.28 165.61
  Q 68.80 165.49 68.67 165.00
  Q 67.69 161.10 67.72 160.00
  C 68.26 141.24 67.41 121.93 69.74 103.33
  C 71.62 88.39 83.08 84.25 96.41 85.08
  C 117.36 86.40 121.02 112.76 121.78 128.93
  Q 122.63 146.85 122.28 164.43
  A 1.23 1.23 0.0 0 1 121.08 165.64
  Z"
/>
<path fill="#38383c" d="
  M 79.00 81.77
  C 93.48 77.13 110.06 77.66 118.60 92.66
  C 128.46 110.00 127.32 128.98 128.16 148.43
  Q 128.65 159.88 128.02 165.76
  C 127.35 172.02 120.27 171.90 115.57 171.66
  Q 97.15 170.70 89.75 171.28
  C 84.48 171.69 70.06 173.39 65.36 169.61
  C 61.93 166.84 62.03 158.02 62.17 154.03
  C 62.76 138.02 62.26 122.57 62.79 113.50
  C 63.06 108.85 63.68 100.89 65.58 96.03
  C 67.98 89.89 72.56 83.83 79.00 81.77
  Z
  M 73.00 166.12
  C 89.04 165.56 105.05 166.07 121.08 165.64
  A 1.23 1.23 0.0 0 0 122.28 164.43
  Q 122.63 146.85 121.78 128.93
  C 121.02 112.76 117.36 86.40 96.41 85.08
  C 83.08 84.25 71.62 88.39 69.74 103.33
  C 67.41 121.93 68.26 141.24 67.72 160.00
  Q 67.69 161.10 68.67 165.00
  Q 68.80 165.49 69.28 165.61
  Q 71.41 166.18 73.00 166.12
  Z"
/>
</svg>
