<?xml version="1.0" encoding="UTF-8" standalone="no"?>
<!DOCTYPE svg PUBLIC "-//W3C//DTD SVG 1.1//EN" "http://www.w3.org/Graphics/SVG/1.1/DTD/svg11.dtd">
<svg xmlns="http://www.w3.org/2000/svg" version="1.1" viewBox="0 0 180 180">
<g stroke-width="2.00" fill="none" stroke-linecap="butt">
<path stroke="#533d3e" vector-effect="non-scaling-stroke" d="
  M 71.11 125.85
  Q 69.71 127.01 68.39 129.06
  A 0.63 0.62 16.4 0 0 68.92 130.02
  L 113.28 130.16
  Q 113.87 130.16 113.37 129.84
  C 102.96 123.23 92.12 115.95 93.01 102.67
  C 93.18 100.09 96.93 98.56 97.92 101.14
  Q 98.49 102.62 99.63 101.51
  Q 104.93 96.34 108.37 89.78
  Q 108.67 89.19 108.11 88.83
  C 98.30 82.64 77.85 83.14 72.36 95.21
  Q 72.16 95.64 72.58 95.86
  Q 74.74 96.99 76.13 99.05
  A 1.20 1.19 -27.0 0 0 77.53 99.50
  C 80.21 98.52 82.20 99.31 82.19 102.40
  Q 82.16 116.69 71.11 125.85"
/>
<path stroke="#533d3e" vector-effect="non-scaling-stroke" d="
  M 117.06 136.47
  Q 93.03 135.47 68.94 135.80
  Q 68.25 135.81 68.25 136.49
  L 68.25 138.85
  Q 68.25 139.44 68.85 139.44
  L 121.42 139.42
  Q 122.02 139.42 122.01 138.83
  L 121.98 137.16
  Q 121.97 136.44 121.25 136.47
  Q 119.12 136.56 117.06 136.47"
/>
<path stroke="#533d3e" vector-effect="non-scaling-stroke" d="
  M 69.11 145.39
  A 0.87 0.87 0.0 0 0 68.24 146.22
  C 67.91 152.38 67.12 158.59 68.65 164.91
  Q 68.76 165.39 69.23 165.56
  C 73.01 166.90 79.86 165.83 83.84 165.81
  A 1.71 1.71 0.0 0 0 85.55 164.03
  C 85.43 160.72 84.84 156.54 86.15 153.67
  C 88.95 147.58 96.89 147.00 101.56 149.94
  C 106.19 152.85 107.48 158.18 106.60 163.36
  A 1.94 1.94 0.0 0 0 108.50 165.62
  L 121.05 165.75
  Q 122.36 165.76 122.36 164.45
  L 122.37 145.75
  A 0.62 0.62 0.0 0 0 121.75 145.13
  L 69.11 145.39"
/>
</g>
<path fill="#38383c" d="
  M 79.00 81.77
  C 93.13 77.24 109.78 77.56 118.28 92.21
  Q 123.42 101.06 124.68 107.06
  C 128.22 123.95 134.11 136.48 143.00 154.03
  C 147.79 163.48 133.54 167.67 127.33 169.11
  Q 126.84 169.23 126.46 169.56
  C 122.46 173.11 110.08 171.62 105.47 170.53
  C 100.87 169.44 92.54 169.06 88.09 170.69
  C 83.33 172.44 76.83 171.79 71.76 171.79
  Q 66.58 171.78 63.67 167.83
  Q 63.38 167.43 63.33 166.94
  C 63.11 164.41 62.25 162.07 62.27 159.64
  Q 62.45 136.94 62.74 114.25
  C 62.89 102.21 66.17 85.88 79.00 81.77
  Z
  M 71.11 125.85
  Q 69.71 127.01 68.39 129.06
  A 0.63 0.62 16.4 0 0 68.92 130.02
  L 113.28 130.16
  Q 113.87 130.16 113.37 129.84
  C 102.96 123.23 92.12 115.95 93.01 102.67
  C 93.18 100.09 96.93 98.56 97.92 101.14
  Q 98.49 102.62 99.63 101.51
  Q 104.93 96.34 108.37 89.78
  Q 108.67 89.19 108.11 88.83
  C 98.30 82.64 77.85 83.14 72.36 95.21
  Q 72.16 95.64 72.58 95.86
  Q 74.74 96.99 76.13 99.05
  A 1.20 1.19 -27.0 0 0 77.53 99.50
  C 80.21 98.52 82.20 99.31 82.19 102.40
  Q 82.16 116.69 71.11 125.85
  Z
  M 117.06 136.47
  Q 93.03 135.47 68.94 135.80
  Q 68.25 135.81 68.25 136.49
  L 68.25 138.85
  Q 68.25 139.44 68.85 139.44
  L 121.42 139.42
  Q 122.02 139.42 122.01 138.83
  L 121.98 137.16
  Q 121.97 136.44 121.25 136.47
  Q 119.12 136.56 117.06 136.47
  Z
  M 69.11 145.39
  A 0.87 0.87 0.0 0 0 68.24 146.22
  C 67.91 152.38 67.12 158.59 68.65 164.91
  Q 68.76 165.39 69.23 165.56
  C 73.01 166.90 79.86 165.83 83.84 165.81
  A 1.71 1.71 0.0 0 0 85.55 164.03
  C 85.43 160.72 84.84 156.54 86.15 153.67
  C 88.95 147.58 96.89 147.00 101.56 149.94
  C 106.19 152.85 107.48 158.18 106.60 163.36
  A 1.94 1.94 0.0 0 0 108.50 165.62
  L 121.05 165.75
  Q 122.36 165.76 122.36 164.45
  L 122.37 145.75
  A 0.62 0.62 0.0 0 0 121.75 145.13
  L 69.11 145.39
  Z"
/>
<g fill="#6e423f">
<path d="
  M 71.11 125.85
  Q 82.16 116.69 82.19 102.40
  C 82.20 99.31 80.21 98.52 77.53 99.50
  A 1.20 1.19 -27.0 0 1 76.13 99.05
  Q 74.74 96.99 72.58 95.86
  Q 72.16 95.64 72.36 95.21
  C 77.85 83.14 98.30 82.64 108.11 88.83
  Q 108.67 89.19 108.37 89.78
  Q 104.93 96.34 99.63 101.51
  Q 98.49 102.62 97.92 101.14
  C 96.93 98.56 93.18 100.09 93.01 102.67
  C 92.12 115.95 102.96 123.23 113.37 129.84
  Q 113.87 130.16 113.28 130.16
  L 68.92 130.02
  A 0.63 0.62 16.4 0 1 68.39 129.06
  Q 69.71 127.01 71.11 125.85
  Z"
/>
<path d="
  M 117.06 136.47
  Q 119.12 136.56 121.25 136.47
  Q 121.97 136.44 121.98 137.16
  L 122.01 138.83
  Q 122.02 139.42 121.42 139.42
  L 68.85 139.44
  Q 68.25 139.44 68.25 138.85
  L 68.25 136.49
  Q 68.25 135.81 68.94 135.80
  Q 93.03 135.47 117.06 136.47
  Z"
/>
<path d="
  M 69.11 145.39
  L 121.75 145.13
  A 0.62 0.62 0.0 0 1 122.37 145.75
  L 122.36 164.45
  Q 122.36 165.76 121.05 165.75
  L 108.50 165.62
  A 1.94 1.94 0.0 0 1 106.60 163.36
  C 107.48 158.18 106.19 152.85 101.56 149.94
  C 96.89 147.00 88.95 147.58 86.15 153.67
  C 84.84 156.54 85.43 160.72 85.55 164.03
  A 1.71 1.71 0.0 0 1 83.84 165.81
  C 79.86 165.83 73.01 166.90 69.23 165.56
  Q 68.76 165.39 68.65 164.91
  C 67.12 158.59 67.91 152.38 68.24 146.22
  A 0.87 0.87 0.0 0 1 69.11 145.39
  Z"
/>
</g>
</svg>
