<?xml version="1.0" encoding="UTF-8" standalone="no"?>
<!DOCTYPE svg PUBLIC "-//W3C//DTD SVG 1.1//EN" "http://www.w3.org/Graphics/SVG/1.1/DTD/svg11.dtd">
<svg xmlns="http://www.w3.org/2000/svg" version="1.1" viewBox="0 0 180 180">
<g stroke-width="2.00" fill="none" stroke-linecap="butt">
<path stroke="#533d3e" vector-effect="non-scaling-stroke" d="
  M 121.83 135.70
  C 121.72 120.62 119.69 87.99 99.05 85.34
  C 85.00 83.54 71.48 87.42 69.71 103.78
  Q 67.99 119.73 68.26 135.23
  A 0.86 0.85 1.8 0 0 69.05 136.07
  Q 95.23 137.92 121.42 136.15
  A 0.44 0.44 0.0 0 0 121.83 135.70"
/>
<path stroke="#533d3e" vector-effect="non-scaling-stroke" d="
  M 121.81 142.06
  C 104.07 143.00 86.59 143.11 68.85 141.82
  A 0.55 0.55 0.0 0 0 68.26 142.36
  C 68.07 149.67 66.83 157.92 68.69 165.00
  Q 68.81 165.47 69.28 165.61
  C 73.18 166.80 80.31 165.82 84.61 165.69
  A 0.92 0.92 0.0 0 0 85.50 164.76
  C 85.49 160.56 84.45 152.78 88.79 150.27
  C 99.27 144.23 108.31 152.24 106.61 163.25
  A 2.10 2.09 -85.6 0 0 108.67 165.66
  L 121.56 165.70
  Q 122.38 165.70 122.38 164.88
  L 122.31 142.53
  A 0.47 0.47 0.0 0 0 121.81 142.06"
/>
</g>
<g fill="#6e423f">
<path d="
  M 99.05 85.34
  C 119.69 87.99 121.72 120.62 121.83 135.70
  A 0.44 0.44 0.0 0 1 121.42 136.15
  Q 95.23 137.92 69.05 136.07
  A 0.86 0.85 1.8 0 1 68.26 135.23
  Q 67.99 119.73 69.71 103.78
  C 71.48 87.42 85.00 83.54 99.05 85.34
  Z"
/>
<path d="
  M 68.85 141.82
  C 86.59 143.11 104.07 143.00 121.81 142.06
  A 0.47 0.47 0.0 0 1 122.31 142.53
  L 122.38 164.88
  Q 122.38 165.70 121.56 165.70
  L 108.67 165.66
  A 2.10 2.09 -85.6 0 1 106.61 163.25
  C 108.31 152.24 99.27 144.23 88.79 150.27
  C 84.45 152.78 85.49 160.56 85.50 164.76
  A 0.92 0.92 0.0 0 1 84.61 165.69
  C 80.31 165.82 73.18 166.80 69.28 165.61
  Q 68.81 165.47 68.69 165.00
  C 66.83 157.92 68.07 149.67 68.26 142.36
  A 0.55 0.55 0.0 0 1 68.85 141.82
  Z"
/>
</g>
<path fill="#38383c" d="
  M 79.00 81.77
  C 108.61 72.29 123.02 89.74 126.36 116.81
  C 127.75 128.05 127.77 139.32 128.26 150.71
  Q 128.66 160.01 127.89 166.69
  C 127.09 173.62 110.89 171.76 106.75 170.99
  C 96.53 169.08 105.94 150.51 92.91 154.24
  A 2.51 2.50 -9.9 0 0 91.11 156.79
  C 91.33 160.26 91.84 165.83 90.21 168.58
  C 87.58 173.02 77.66 171.75 71.76 171.69
  Q 66.53 171.64 63.69 167.91
  Q 63.38 167.50 63.34 167.00
  C 63.13 164.46 62.24 162.09 62.26 159.66
  C 62.44 140.95 61.74 121.78 63.89 103.20
  C 64.89 94.52 70.29 84.55 79.00 81.77
  Z
  M 121.83 135.70
  C 121.72 120.62 119.69 87.99 99.05 85.34
  C 85.00 83.54 71.48 87.42 69.71 103.78
  Q 67.99 119.73 68.26 135.23
  A 0.86 0.85 1.8 0 0 69.05 136.07
  Q 95.23 137.92 121.42 136.15
  A 0.44 0.44 0.0 0 0 121.83 135.70
  Z
  M 121.81 142.06
  C 104.07 143.00 86.59 143.11 68.85 141.82
  A 0.55 0.55 0.0 0 0 68.26 142.36
  C 68.07 149.67 66.83 157.92 68.69 165.00
  Q 68.81 165.47 69.28 165.61
  C 73.18 166.80 80.31 165.82 84.61 165.69
  A 0.92 0.92 0.0 0 0 85.50 164.76
  C 85.49 160.56 84.45 152.78 88.79 150.27
  C 99.27 144.23 108.31 152.24 106.61 163.25
  A 2.10 2.09 -85.6 0 0 108.67 165.66
  L 121.56 165.70
  Q 122.38 165.70 122.38 164.88
  L 122.31 142.53
  A 0.47 0.47 0.0 0 0 121.81 142.06
  Z"
/>
</svg>
