<?xml version="1.0" encoding="UTF-8" standalone="no"?>
<!DOCTYPE svg PUBLIC "-//W3C//DTD SVG 1.1//EN" "http://www.w3.org/Graphics/SVG/1.1/DTD/svg11.dtd">
<svg xmlns="http://www.w3.org/2000/svg" version="1.1" viewBox="0 0 180 180">
<g stroke-width="2.00" fill="none" stroke-linecap="butt">
<path stroke="#533d3e" vector-effect="non-scaling-stroke" d="
  M 97.51 98.77
  L 98.07 99.91
  Q 98.43 100.63 99.01 100.08
  Q 103.84 95.57 107.23 89.90
  A 1.33 1.33 0.0 0 0 106.75 88.06
  Q 99.59 83.97 90.66 85.06
  C 83.13 85.98 77.30 87.13 73.28 93.42
  Q 73.02 93.82 73.36 94.16
  L 76.58 97.32
  Q 76.97 97.70 77.48 97.51
  Q 80.25 96.46 81.83 98.30
  Q 82.19 98.72 82.20 99.26
  C 82.47 111.28 77.85 117.83 69.39 125.63
  Q 67.61 127.28 68.37 129.63
  Q 68.54 130.15 69.09 130.15
  L 92.61 129.94
  Q 93.02 129.93 93.30 129.63
  Q 97.82 124.63 104.60 123.44
  A 0.75 0.75 0.0 0 0 104.96 122.14
  C 97.75 115.81 92.52 111.37 93.01 101.08
  C 93.11 98.90 94.67 97.11 96.89 98.16
  Q 97.31 98.36 97.51 98.77"
/>
<path stroke="#533d3e" vector-effect="non-scaling-stroke" d="
  M 122.13 133.05
  C 123.97 125.24 120.94 117.82 111.75 118.70
  A 0.38 0.37 -3.5 0 0 111.42 119.07
  L 111.36 124.08
  Q 111.35 124.51 111.61 124.86
  Q 114.92 129.27 114.09 134.99
  Q 113.96 135.83 114.78 135.60
  L 121.50 133.71
  Q 122.01 133.57 122.13 133.05"
/>
<path stroke="#533d3e" vector-effect="non-scaling-stroke" d="
  M 55.03 133.39
  L 61.47 134.86
  Q 62.25 135.04 62.25 134.24
  L 62.25 128.44
  Q 62.25 127.80 61.60 127.81
  Q 56.98 127.86 54.33 131.51
  A 1.20 1.20 0.0 0 0 55.03 133.39"
/>
<path stroke="#533d3e" vector-effect="non-scaling-stroke" d="
  M 98.62 135.58
  L 105.74 136.83
  Q 106.35 136.94 106.79 136.50
  Q 109.77 133.50 107.96 129.30
  Q 107.62 128.52 106.78 128.69
  C 104.00 129.27 97.82 130.90 97.77 134.56
  A 1.03 1.02 5.3 0 0 98.62 135.58"
/>
<path stroke="#533d3e" vector-effect="non-scaling-stroke" d="
  M 93.22 138.30
  L 92.30 136.21
  Q 92.10 135.75 91.60 135.75
  L 69.00 135.75
  Q 68.25 135.75 68.25 136.50
  L 68.25 138.80
  Q 68.25 139.44 68.88 139.45
  C 76.11 139.60 83.66 138.98 90.78 139.46
  Q 92.13 139.55 93.06 138.89
  Q 93.37 138.66 93.22 138.30"
/>
<path stroke="#533d3e" vector-effect="non-scaling-stroke" d="
  M 72.56 166.13
  C 88.86 165.55 105.35 166.60 121.54 165.61
  A 0.49 0.48 0.7 0 0 121.99 165.18
  Q 122.91 155.50 122.16 145.80
  Q 122.11 145.15 121.45 145.15
  L 68.82 145.39
  Q 68.38 145.39 68.34 145.84
  C 67.78 152.42 67.37 158.43 68.61 164.97
  Q 68.70 165.46 69.18 165.59
  Q 71.37 166.17 72.56 166.13"
/>
</g>
<path fill="#38383c" d="
  M 128.15 161.85
  C 128.00 171.69 123.75 172.13 114.94 171.65
  C 98.03 170.73 86.79 171.88 71.76 171.70
  C 67.40 171.65 63.72 169.87 63.12 165.29
  C 62.88 163.45 62.21 161.69 62.23 159.87
  Q 62.32 150.51 62.57 141.47
  A 0.97 0.96 0.6 0 0 61.59 140.48
  C 54.95 140.56 44.19 136.23 50.25 127.49
  Q 54.07 121.99 62.08 122.29
  Q 62.72 122.32 62.72 121.67
  C 62.61 104.72 63.37 85.49 82.96 80.60
  C 108.84 74.14 120.65 88.92 126.06 112.24
  C 128.59 123.16 134.24 134.06 139.36 143.98
  C 145.13 155.18 138.40 158.31 128.69 161.13
  Q 128.15 161.29 128.15 161.85
  Z
  M 97.51 98.77
  L 98.07 99.91
  Q 98.43 100.63 99.01 100.08
  Q 103.84 95.57 107.23 89.90
  A 1.33 1.33 0.0 0 0 106.75 88.06
  Q 99.59 83.97 90.66 85.06
  C 83.13 85.98 77.30 87.13 73.28 93.42
  Q 73.02 93.82 73.36 94.16
  L 76.58 97.32
  Q 76.97 97.70 77.48 97.51
  Q 80.25 96.46 81.83 98.30
  Q 82.19 98.72 82.20 99.26
  C 82.47 111.28 77.85 117.83 69.39 125.63
  Q 67.61 127.28 68.37 129.63
  Q 68.54 130.15 69.09 130.15
  L 92.61 129.94
  Q 93.02 129.93 93.30 129.63
  Q 97.82 124.63 104.60 123.44
  A 0.75 0.75 0.0 0 0 104.96 122.14
  C 97.75 115.81 92.52 111.37 93.01 101.08
  C 93.11 98.90 94.67 97.11 96.89 98.16
  Q 97.31 98.36 97.51 98.77
  Z
  M 122.13 133.05
  C 123.97 125.24 120.94 117.82 111.75 118.70
  A 0.38 0.37 -3.5 0 0 111.42 119.07
  L 111.36 124.08
  Q 111.35 124.51 111.61 124.86
  Q 114.92 129.27 114.09 134.99
  Q 113.96 135.83 114.78 135.60
  L 121.50 133.71
  Q 122.01 133.57 122.13 133.05
  Z
  M 55.03 133.39
  L 61.47 134.86
  Q 62.25 135.04 62.25 134.24
  L 62.25 128.44
  Q 62.25 127.80 61.60 127.81
  Q 56.98 127.86 54.33 131.51
  A 1.20 1.20 0.0 0 0 55.03 133.39
  Z
  M 98.62 135.58
  L 105.74 136.83
  Q 106.35 136.94 106.79 136.50
  Q 109.77 133.50 107.96 129.30
  Q 107.62 128.52 106.78 128.69
  C 104.00 129.27 97.82 130.90 97.77 134.56
  A 1.03 1.02 5.3 0 0 98.62 135.58
  Z
  M 93.22 138.30
  L 92.30 136.21
  Q 92.10 135.75 91.60 135.75
  L 69.00 135.75
  Q 68.25 135.75 68.25 136.50
  L 68.25 138.80
  Q 68.25 139.44 68.88 139.45
  C 76.11 139.60 83.66 138.98 90.78 139.46
  Q 92.13 139.55 93.06 138.89
  Q 93.37 138.66 93.22 138.30
  Z
  M 72.56 166.13
  C 88.86 165.55 105.35 166.60 121.54 165.61
  A 0.49 0.48 0.7 0 0 121.99 165.18
  Q 122.91 155.50 122.16 145.80
  Q 122.11 145.15 121.45 145.15
  L 68.82 145.39
  Q 68.38 145.39 68.34 145.84
  C 67.78 152.42 67.37 158.43 68.61 164.97
  Q 68.70 165.46 69.18 165.59
  Q 71.37 166.17 72.56 166.13
  Z"
/>
<g fill="#6e423f">
<path d="
  M 96.89 98.16
  C 94.67 97.11 93.11 98.90 93.01 101.08
  C 92.52 111.37 97.75 115.81 104.96 122.14
  A 0.75 0.75 0.0 0 1 104.60 123.44
  Q 97.82 124.63 93.30 129.63
  Q 93.02 129.93 92.61 129.94
  L 69.09 130.15
  Q 68.54 130.15 68.37 129.63
  Q 67.61 127.28 69.39 125.63
  C 77.85 117.83 82.47 111.28 82.20 99.26
  Q 82.19 98.72 81.83 98.30
  Q 80.25 96.46 77.48 97.51
  Q 76.97 97.70 76.58 97.32
  L 73.36 94.16
  Q 73.02 93.82 73.28 93.42
  C 77.30 87.13 83.13 85.98 90.66 85.06
  Q 99.59 83.97 106.75 88.06
  A 1.33 1.33 0.0 0 1 107.23 89.90
  Q 103.84 95.57 99.01 100.08
  Q 98.43 100.63 98.07 99.91
  L 97.51 98.77
  Q 97.31 98.36 96.89 98.16
  Z"
/>
<path d="
  M 111.75 118.70
  C 120.94 117.82 123.97 125.24 122.13 133.05
  Q 122.01 133.57 121.50 133.71
  L 114.78 135.60
  Q 113.96 135.83 114.09 134.99
  Q 114.92 129.27 111.61 124.86
  Q 111.35 124.51 111.36 124.08
  L 111.42 119.07
  A 0.38 0.37 -3.5 0 1 111.75 118.70
  Z"
/>
<path d="
  M 55.03 133.39
  A 1.20 1.20 0.0 0 1 54.33 131.51
  Q 56.98 127.86 61.60 127.81
  Q 62.25 127.80 62.25 128.44
  L 62.25 134.24
  Q 62.25 135.04 61.47 134.86
  L 55.03 133.39
  Z"
/>
<path d="
  M 98.62 135.58
  A 1.03 1.02 5.3 0 1 97.77 134.56
  C 97.82 130.90 104.00 129.27 106.78 128.69
  Q 107.62 128.52 107.96 129.30
  Q 109.77 133.50 106.79 136.50
  Q 106.35 136.94 105.74 136.83
  L 98.62 135.58
  Z"
/>
<path d="
  M 93.06 138.89
  Q 92.13 139.55 90.78 139.46
  C 83.66 138.98 76.11 139.60 68.88 139.45
  Q 68.25 139.44 68.25 138.80
  L 68.25 136.50
  Q 68.25 135.75 69.00 135.75
  L 91.60 135.75
  Q 92.10 135.75 92.30 136.21
  L 93.22 138.30
  Q 93.37 138.66 93.06 138.89
  Z"
/>
<path d="
  M 121.54 165.61
  C 105.35 166.60 88.86 165.55 72.56 166.13
  Q 71.37 166.17 69.18 165.59
  Q 68.70 165.46 68.61 164.97
  C 67.37 158.43 67.78 152.42 68.34 145.84
  Q 68.38 145.39 68.82 145.39
  L 121.45 145.15
  Q 122.11 145.15 122.16 145.80
  Q 122.91 155.50 121.99 165.18
  A 0.49 0.48 0.7 0 1 121.54 165.61
  Z"
/>
</g>
</svg>
