<?xml version="1.0" encoding="UTF-8" standalone="no"?>
<!DOCTYPE svg PUBLIC "-//W3C//DTD SVG 1.1//EN" "http://www.w3.org/Graphics/SVG/1.1/DTD/svg11.dtd">
<svg xmlns="http://www.w3.org/2000/svg" version="1.1" viewBox="0 0 180 180">
<g stroke-width="2.00" fill="none" stroke-linecap="butt">
<path stroke="#533d3e" vector-effect="non-scaling-stroke" d="
  M 120.75 129.81
  C 119.35 105.88 113.48 76.18 80.31 87.05
  C 65.69 91.85 67.06 116.93 67.39 129.65
  Q 67.40 130.23 67.99 130.22
  Q 93.99 129.61 119.99 130.59
  A 0.74 0.73 89.3 0 0 120.75 129.81"
/>
<path stroke="#533d3e" vector-effect="non-scaling-stroke" d="
  M 116.56 136.44
  Q 92.45 135.46 67.87 135.80
  A 0.72 0.71 89.6 0 0 67.17 136.52
  L 67.17 139.06
  Q 67.17 139.45 67.56 139.45
  L 120.00 139.41
  A 1.04 1.03 85.5 0 0 121.02 138.21
  L 120.82 136.99
  Q 120.74 136.50 120.25 136.50
  Q 118.41 136.51 116.56 136.44"
/>
<path stroke="#533d3e" vector-effect="non-scaling-stroke" d="
  M 67.95 145.58
  A 0.68 0.68 0.0 0 0 67.29 146.23
  C 67.05 152.55 66.16 158.49 67.54 164.88
  Q 67.65 165.38 68.13 165.55
  C 71.87 166.85 79.44 165.84 83.61 165.67
  A 0.91 0.90 -1.0 0 0 84.49 164.77
  C 84.52 160.94 83.80 156.01 85.69 152.79
  C 90.48 144.61 103.41 147.94 105.45 156.97
  C 105.94 159.16 105.70 161.87 105.98 164.47
  A 1.30 1.29 -2.7 0 0 107.26 165.63
  L 120.53 165.70
  Q 121.34 165.70 121.34 164.90
  L 121.39 146.10
  Q 121.40 145.41 120.71 145.39
  Q 94.32 144.80 67.95 145.58"
/>
</g>
<g fill="#6e423f">
<path d="
  M 80.31 87.05
  C 113.48 76.18 119.35 105.88 120.75 129.81
  A 0.74 0.73 89.3 0 1 119.99 130.59
  Q 93.99 129.61 67.99 130.22
  Q 67.40 130.23 67.39 129.65
  C 67.06 116.93 65.69 91.85 80.31 87.05
  Z"
/>
<path d="
  M 116.56 136.44
  Q 118.41 136.51 120.25 136.50
  Q 120.74 136.50 120.82 136.99
  L 121.02 138.21
  A 1.04 1.03 85.5 0 1 120.00 139.41
  L 67.56 139.45
  Q 67.17 139.45 67.17 139.06
  L 67.17 136.52
  A 0.72 0.71 89.6 0 1 67.87 135.80
  Q 92.45 135.46 116.56 136.44
  Z"
/>
<path d="
  M 67.95 145.58
  Q 94.32 144.80 120.71 145.39
  Q 121.40 145.41 121.39 146.10
  L 121.34 164.90
  Q 121.34 165.70 120.53 165.70
  L 107.26 165.63
  A 1.30 1.29 -2.7 0 1 105.98 164.47
  C 105.70 161.87 105.94 159.16 105.45 156.97
  C 103.41 147.94 90.48 144.61 85.69 152.79
  C 83.80 156.01 84.52 160.94 84.49 164.77
  A 0.91 0.90 -1.0 0 1 83.61 165.67
  C 79.44 165.84 71.87 166.85 68.13 165.55
  Q 67.65 165.38 67.54 164.88
  C 66.16 158.49 67.05 152.55 67.29 146.23
  A 0.68 0.68 0.0 0 1 67.95 145.58
  Z"
/>
</g>
<path fill="#38383c" d="
  M 86.30 79.88
  C 128.89 73.76 126.04 123.89 127.24 149.99
  C 127.47 155.12 128.41 168.38 124.31 170.47
  C 120.53 172.39 110.29 171.64 106.56 171.16
  C 95.11 169.70 105.18 150.46 91.92 154.24
  A 2.50 2.49 80.3 0 0 90.12 156.79
  C 90.51 163.42 92.07 171.22 82.49 171.63
  C 72.19 172.07 61.14 174.33 61.27 160.01
  Q 61.45 139.52 61.68 119.03
  C 61.80 108.29 62.21 97.89 68.59 88.83
  C 72.94 82.65 79.21 80.90 86.30 79.88
  Z
  M 120.75 129.81
  C 119.35 105.88 113.48 76.18 80.31 87.05
  C 65.69 91.85 67.06 116.93 67.39 129.65
  Q 67.40 130.23 67.99 130.22
  Q 93.99 129.61 119.99 130.59
  A 0.74 0.73 89.3 0 0 120.75 129.81
  Z
  M 116.56 136.44
  Q 92.45 135.46 67.87 135.80
  A 0.72 0.71 89.6 0 0 67.17 136.52
  L 67.17 139.06
  Q 67.17 139.45 67.56 139.45
  L 120.00 139.41
  A 1.04 1.03 85.5 0 0 121.02 138.21
  L 120.82 136.99
  Q 120.74 136.50 120.25 136.50
  Q 118.41 136.51 116.56 136.44
  Z
  M 67.95 145.58
  A 0.68 0.68 0.0 0 0 67.29 146.23
  C 67.05 152.55 66.16 158.49 67.54 164.88
  Q 67.65 165.38 68.13 165.55
  C 71.87 166.85 79.44 165.84 83.61 165.67
  A 0.91 0.90 -1.0 0 0 84.49 164.77
  C 84.52 160.94 83.80 156.01 85.69 152.79
  C 90.48 144.61 103.41 147.94 105.45 156.97
  C 105.94 159.16 105.70 161.87 105.98 164.47
  A 1.30 1.29 -2.7 0 0 107.26 165.63
  L 120.53 165.70
  Q 121.34 165.70 121.34 164.90
  L 121.39 146.10
  Q 121.40 145.41 120.71 145.39
  Q 94.32 144.80 67.95 145.58
  Z"
/>
</svg>
