<?xml version="1.0" encoding="UTF-8" standalone="no"?>
<!DOCTYPE svg PUBLIC "-//W3C//DTD SVG 1.1//EN" "http://www.w3.org/Graphics/SVG/1.1/DTD/svg11.dtd">
<svg xmlns="http://www.w3.org/2000/svg" version="1.1" viewBox="0 0 180 180">
<g stroke-width="2.00" fill="none" stroke-linecap="butt">
<path stroke="#98989a" vector-effect="non-scaling-stroke" d="
  M 106.45 87.73
  C 99.23 83.73 81.19 83.66 75.41 90.46
  Q 75.08 90.85 75.49 91.17
  L 85.69 99.13
  Q 86.09 99.45 86.57 99.24
  Q 90.37 97.51 94.43 98.66
  Q 94.95 98.81 95.36 98.46
  L 106.57 89.04
  Q 107.46 88.29 106.45 87.73"
/>
<path stroke="#3d504e" vector-effect="non-scaling-stroke" d="
  M 95.25 106.84
  L 97.77 108.55
  Q 98.18 108.83 98.56 108.51
  L 110.28 98.43
  Q 110.77 98.01 110.43 97.46
  Q 109.67 96.19 109.49 94.74
  Q 109.38 93.87 108.70 94.43
  L 95.19 105.78
  A 0.67 0.67 0.0 0 0 95.25 106.84"
/>
<path stroke="#3d504e" vector-effect="non-scaling-stroke" d="
  M 105.62 121.47
  Q 98.81 116.39 92.22 111.77
  C 85.37 106.97 79.28 101.21 72.59 96.00
  Q 72.16 95.66 71.86 96.12
  C 70.57 98.06 68.77 101.65 71.52 103.24
  Q 77.44 106.64 83.48 111.15
  C 90.30 116.23 95.80 119.78 102.21 123.87
  Q 102.64 124.14 103.07 123.89
  L 105.56 122.46
  A 0.59 0.59 0.0 0 0 105.62 121.47"
/>
<path stroke="#3d504e" vector-effect="non-scaling-stroke" d="
  M 121.87 96.69
  Q 119.78 94.95 121.02 97.37
  C 125.49 106.09 126.70 115.31 127.46 126.76
  Q 128.08 136.11 128.38 161.57
  Q 128.39 162.14 128.96 162.17
  L 136.27 162.50
  A 0.90 0.89 -88.2 0 0 137.21 161.61
  C 137.43 147.34 137.60 133.16 134.73 119.14
  C 132.72 109.29 129.25 102.88 121.87 96.69"
/>
<path stroke="#98989a" vector-effect="non-scaling-stroke" d="
  M 103.21 112.49
  Q 105.62 114.99 109.01 115.46
  Q 109.49 115.52 109.78 115.90
  Q 112.44 119.28 111.03 123.46
  Q 110.84 124.02 111.20 124.49
  Q 114.82 129.21 113.90 135.20
  Q 113.78 135.93 114.50 135.75
  L 120.05 134.30
  Q 120.65 134.15 120.99 133.64
  Q 122.02 132.14 121.97 130.75
  C 121.67 121.63 120.52 109.65 116.31 100.76
  Q 116.10 100.31 115.73 100.64
  L 103.23 111.86
  A 0.45 0.44 47.3 0 0 103.21 112.49"
/>
<path stroke="#98989a" vector-effect="non-scaling-stroke" d="
  M 76.72 113.27
  L 69.46 108.44
  Q 68.74 107.96 68.70 108.83
  L 68.12 121.42
  Q 68.10 121.98 68.50 121.60
  L 76.76 113.71
  A 0.28 0.28 0.0 0 0 76.72 113.27"
/>
<path stroke="#3d504e" vector-effect="non-scaling-stroke" d="
  M 85.78 120.26
  L 81.91 117.38
  Q 81.42 117.02 80.98 117.44
  L 68.76 129.25
  Q 68.14 129.85 69.00 129.94
  C 71.93 130.24 73.92 130.46 76.41 128.49
  Q 81.24 124.69 85.79 120.88
  A 0.40 0.39 -46.2 0 0 85.78 120.26"
/>
<path stroke="#98989a" vector-effect="non-scaling-stroke" d="
  M 96.17 126.92
  L 91.54 123.82
  Q 91.13 123.54 90.75 123.86
  L 83.95 129.60
  Q 83.48 130.00 84.10 130.00
  L 92.73 130.00
  Q 93.28 130.00 93.59 129.55
  Q 94.65 128.03 96.17 126.98
  Q 96.21 126.95 96.17 126.92"
/>
<path stroke="#3d504e" vector-effect="non-scaling-stroke" d="
  M 54.58 132.95
  Q 57.94 134.64 61.76 134.72
  Q 62.25 134.73 62.25 134.24
  L 62.25 128.45
  Q 62.25 127.81 61.62 127.80
  Q 56.75 127.75 54.26 131.81
  A 0.81 0.80 -60.9 0 0 54.58 132.95"
/>
<path stroke="#3d504e" vector-effect="non-scaling-stroke" d="
  M 98.64 135.57
  L 105.63 136.88
  Q 106.22 136.99 106.65 136.58
  Q 109.90 133.51 107.79 129.13
  Q 107.58 128.68 107.08 128.73
  C 104.05 129.06 98.43 130.78 97.75 134.25
  A 1.12 1.12 0.0 0 0 98.64 135.57"
/>
<path stroke="#3d504e" vector-effect="non-scaling-stroke" d="
  M 67.98 139.14
  A 0.45 0.45 0.0 0 0 68.44 139.59
  L 93.08 139.27
  A 0.45 0.45 0.0 0 0 93.48 138.61
  L 92.13 135.99
  A 0.45 0.45 0.0 0 0 91.73 135.75
  L 68.47 135.75
  A 0.45 0.45 0.0 0 0 68.02 136.20
  L 67.98 139.14"
/>
<path stroke="#98989a" vector-effect="non-scaling-stroke" d="
  M 121.51 145.17
  L 68.65 145.20
  Q 68.08 145.20 68.07 145.77
  C 67.88 152.20 67.19 158.16 68.33 164.47
  A 2.02 2.01 84.4 0 0 70.33 166.12
  L 84.28 165.97
  A 1.24 1.24 0.0 0 0 85.51 164.72
  C 85.47 160.93 84.63 153.23 88.31 150.78
  C 98.53 143.98 107.99 152.04 106.89 163.02
  Q 106.64 165.52 109.06 165.61
  Q 115.27 165.83 121.41 165.73
  A 0.67 0.66 -87.6 0 0 122.06 165.13
  Q 123.03 155.47 122.20 145.80
  Q 122.14 145.17 121.51 145.17"
/>
<path stroke="#3d504e" vector-effect="non-scaling-stroke" d="
  M 96.18 153.96
  Q 93.63 153.53 91.60 155.46
  Q 91.25 155.79 91.25 156.28
  L 91.25 162.56
  Q 91.25 163.12 91.81 163.13
  L 100.21 163.28
  Q 100.94 163.29 101.00 162.56
  C 101.31 158.75 100.44 154.67 96.18 153.96"
/>
</g>
<path fill="#38383c" d="
  M 62.74 121.55
  C 62.56 104.89 63.58 83.90 84.25 80.49
  C 95.23 78.68 104.29 78.12 112.78 85.52
  Q 114.40 86.93 116.32 87.62
  C 136.95 95.02 140.28 113.11 142.47 132.27
  Q 142.93 136.32 142.96 141.88
  C 143.00 149.74 143.56 156.61 142.57 165.20
  Q 142.52 165.68 142.22 166.06
  C 138.30 171.05 127.56 165.03 126.39 169.83
  Q 126.25 170.38 125.70 170.51
  C 119.11 172.07 107.62 172.58 102.95 169.07
  Q 102.56 168.77 102.07 168.77
  L 91.10 168.71
  Q 90.58 168.71 90.20 169.05
  C 85.89 172.97 69.15 173.10 64.87 169.19
  C 60.71 165.38 62.43 146.74 62.57 141.15
  A 0.69 0.68 -0.0 0 0 61.86 140.45
  C 56.83 140.59 46.60 137.59 48.60 130.76
  C 50.27 125.08 56.35 122.08 62.11 122.17
  Q 62.74 122.18 62.74 121.55
  Z
  M 106.45 87.73
  C 99.23 83.73 81.19 83.66 75.41 90.46
  Q 75.08 90.85 75.49 91.17
  L 85.69 99.13
  Q 86.09 99.45 86.57 99.24
  Q 90.37 97.51 94.43 98.66
  Q 94.95 98.81 95.36 98.46
  L 106.57 89.04
  Q 107.46 88.29 106.45 87.73
  Z
  M 95.25 106.84
  L 97.77 108.55
  Q 98.18 108.83 98.56 108.51
  L 110.28 98.43
  Q 110.77 98.01 110.43 97.46
  Q 109.67 96.19 109.49 94.74
  Q 109.38 93.87 108.70 94.43
  L 95.19 105.78
  A 0.67 0.67 0.0 0 0 95.25 106.84
  Z
  M 105.62 121.47
  Q 98.81 116.39 92.22 111.77
  C 85.37 106.97 79.28 101.21 72.59 96.00
  Q 72.16 95.66 71.86 96.12
  C 70.57 98.06 68.77 101.65 71.52 103.24
  Q 77.44 106.64 83.48 111.15
  C 90.30 116.23 95.80 119.78 102.21 123.87
  Q 102.64 124.14 103.07 123.89
  L 105.56 122.46
  A 0.59 0.59 0.0 0 0 105.62 121.47
  Z
  M 121.87 96.69
  Q 119.78 94.95 121.02 97.37
  C 125.49 106.09 126.70 115.31 127.46 126.76
  Q 128.08 136.11 128.38 161.57
  Q 128.39 162.14 128.96 162.17
  L 136.27 162.50
  A 0.90 0.89 -88.2 0 0 137.21 161.61
  C 137.43 147.34 137.60 133.16 134.73 119.14
  C 132.72 109.29 129.25 102.88 121.87 96.69
  Z
  M 103.21 112.49
  Q 105.62 114.99 109.01 115.46
  Q 109.49 115.52 109.78 115.90
  Q 112.44 119.28 111.03 123.46
  Q 110.84 124.02 111.20 124.49
  Q 114.82 129.21 113.90 135.20
  Q 113.78 135.93 114.50 135.75
  L 120.05 134.30
  Q 120.65 134.15 120.99 133.64
  Q 122.02 132.14 121.97 130.75
  C 121.67 121.63 120.52 109.65 116.31 100.76
  Q 116.10 100.31 115.73 100.64
  L 103.23 111.86
  A 0.45 0.44 47.3 0 0 103.21 112.49
  Z
  M 76.72 113.27
  L 69.46 108.44
  Q 68.74 107.96 68.70 108.83
  L 68.12 121.42
  Q 68.10 121.98 68.50 121.60
  L 76.76 113.71
  A 0.28 0.28 0.0 0 0 76.72 113.27
  Z
  M 85.78 120.26
  L 81.91 117.38
  Q 81.42 117.02 80.98 117.44
  L 68.76 129.25
  Q 68.14 129.85 69.00 129.94
  C 71.93 130.24 73.92 130.46 76.41 128.49
  Q 81.24 124.69 85.79 120.88
  A 0.40 0.39 -46.2 0 0 85.78 120.26
  Z
  M 96.17 126.92
  L 91.54 123.82
  Q 91.13 123.54 90.75 123.86
  L 83.95 129.60
  Q 83.48 130.00 84.10 130.00
  L 92.73 130.00
  Q 93.28 130.00 93.59 129.55
  Q 94.65 128.03 96.17 126.98
  Q 96.21 126.95 96.17 126.92
  Z
  M 54.58 132.95
  Q 57.94 134.64 61.76 134.72
  Q 62.25 134.73 62.25 134.24
  L 62.25 128.45
  Q 62.25 127.81 61.62 127.80
  Q 56.75 127.75 54.26 131.81
  A 0.81 0.80 -60.9 0 0 54.58 132.95
  Z
  M 98.64 135.57
  L 105.63 136.88
  Q 106.22 136.99 106.65 136.58
  Q 109.90 133.51 107.79 129.13
  Q 107.58 128.68 107.08 128.73
  C 104.05 129.06 98.43 130.78 97.75 134.25
  A 1.12 1.12 0.0 0 0 98.64 135.57
  Z
  M 67.98 139.14
  A 0.45 0.45 0.0 0 0 68.44 139.59
  L 93.08 139.27
  A 0.45 0.45 0.0 0 0 93.48 138.61
  L 92.13 135.99
  A 0.45 0.45 0.0 0 0 91.73 135.75
  L 68.47 135.75
  A 0.45 0.45 0.0 0 0 68.02 136.20
  L 67.98 139.14
  Z
  M 121.51 145.17
  L 68.65 145.20
  Q 68.08 145.20 68.07 145.77
  C 67.88 152.20 67.19 158.16 68.33 164.47
  A 2.02 2.01 84.4 0 0 70.33 166.12
  L 84.28 165.97
  A 1.24 1.24 0.0 0 0 85.51 164.72
  C 85.47 160.93 84.63 153.23 88.31 150.78
  C 98.53 143.98 107.99 152.04 106.89 163.02
  Q 106.64 165.52 109.06 165.61
  Q 115.27 165.83 121.41 165.73
  A 0.67 0.66 -87.6 0 0 122.06 165.13
  Q 123.03 155.47 122.20 145.80
  Q 122.14 145.17 121.51 145.17
  Z
  M 96.18 153.96
  Q 93.63 153.53 91.60 155.46
  Q 91.25 155.79 91.25 156.28
  L 91.25 162.56
  Q 91.25 163.12 91.81 163.13
  L 100.21 163.28
  Q 100.94 163.29 101.00 162.56
  C 101.31 158.75 100.44 154.67 96.18 153.96
  Z"
/>
<g fill="#f8f8f8">
<path d="
  M 106.45 87.73
  Q 107.46 88.29 106.57 89.04
  L 95.36 98.46
  Q 94.95 98.81 94.43 98.66
  Q 90.37 97.51 86.57 99.24
  Q 86.09 99.45 85.69 99.13
  L 75.49 91.17
  Q 75.08 90.85 75.41 90.46
  C 81.19 83.66 99.23 83.73 106.45 87.73
  Z"
/>
<path d="
  M 103.21 112.49
  A 0.45 0.44 47.3 0 1 103.23 111.86
  L 115.73 100.64
  Q 116.10 100.31 116.31 100.76
  C 120.52 109.65 121.67 121.63 121.97 130.75
  Q 122.02 132.14 120.99 133.64
  Q 120.65 134.15 120.05 134.30
  L 114.50 135.75
  Q 113.78 135.93 113.90 135.20
  Q 114.82 129.21 111.20 124.49
  Q 110.84 124.02 111.03 123.46
  Q 112.44 119.28 109.78 115.90
  Q 109.49 115.52 109.01 115.46
  Q 105.62 114.99 103.21 112.49
  Z"
/>
<path d="
  M 76.72 113.27
  A 0.28 0.28 0.0 0 1 76.76 113.71
  L 68.50 121.60
  Q 68.10 121.98 68.12 121.42
  L 68.70 108.83
  Q 68.74 107.96 69.46 108.44
  L 76.72 113.27
  Z"
/>
<path d="
  M 91.54 123.82
  L 96.17 126.92
  Q 96.21 126.95 96.17 126.98
  Q 94.65 128.03 93.59 129.55
  Q 93.28 130.00 92.73 130.00
  L 84.10 130.00
  Q 83.48 130.00 83.95 129.60
  L 90.75 123.86
  Q 91.13 123.54 91.54 123.82
  Z"
/>
<path d="
  M 68.65 145.20
  L 121.51 145.17
  Q 122.14 145.17 122.20 145.80
  Q 123.03 155.47 122.06 165.13
  A 0.67 0.66 -87.6 0 1 121.41 165.73
  Q 115.27 165.83 109.06 165.61
  Q 106.64 165.52 106.89 163.02
  C 107.99 152.04 98.53 143.98 88.31 150.78
  C 84.63 153.23 85.47 160.93 85.51 164.72
  A 1.24 1.24 0.0 0 1 84.28 165.97
  L 70.33 166.12
  A 2.02 2.01 84.4 0 1 68.33 164.47
  C 67.19 158.16 67.88 152.20 68.07 145.77
  Q 68.08 145.20 68.65 145.20
  Z"
/>
</g>
<g fill="#42685f">
<path d="
  M 95.25 106.84
  A 0.67 0.67 0.0 0 1 95.19 105.78
  L 108.70 94.43
  Q 109.38 93.87 109.49 94.74
  Q 109.67 96.19 110.43 97.46
  Q 110.77 98.01 110.28 98.43
  L 98.56 108.51
  Q 98.18 108.83 97.77 108.55
  L 95.25 106.84
  Z"
/>
<path d="
  M 105.62 121.47
  A 0.59 0.59 0.0 0 1 105.56 122.46
  L 103.07 123.89
  Q 102.64 124.14 102.21 123.87
  C 95.80 119.78 90.30 116.23 83.48 111.15
  Q 77.44 106.64 71.52 103.24
  C 68.77 101.65 70.57 98.06 71.86 96.12
  Q 72.16 95.66 72.59 96.00
  C 79.28 101.21 85.37 106.97 92.22 111.77
  Q 98.81 116.39 105.62 121.47
  Z"
/>
<path d="
  M 121.87 96.69
  C 129.25 102.88 132.72 109.29 134.73 119.14
  C 137.60 133.16 137.43 147.34 137.21 161.61
  A 0.90 0.89 -88.2 0 1 136.27 162.50
  L 128.96 162.17
  Q 128.39 162.14 128.38 161.57
  Q 128.08 136.11 127.46 126.76
  C 126.70 115.31 125.49 106.09 121.02 97.37
  Q 119.78 94.95 121.87 96.69
  Z"
/>
<path d="
  M 85.78 120.26
  A 0.40 0.39 -46.2 0 1 85.79 120.88
  Q 81.24 124.69 76.41 128.49
  C 73.92 130.46 71.93 130.24 69.00 129.94
  Q 68.14 129.85 68.76 129.25
  L 80.98 117.44
  Q 81.42 117.02 81.91 117.38
  L 85.78 120.26
  Z"
/>
<path d="
  M 54.58 132.95
  A 0.81 0.80 -60.9 0 1 54.26 131.81
  Q 56.75 127.75 61.62 127.80
  Q 62.25 127.81 62.25 128.45
  L 62.25 134.24
  Q 62.25 134.73 61.76 134.72
  Q 57.94 134.64 54.58 132.95
  Z"
/>
<path d="
  M 98.64 135.57
  A 1.12 1.12 0.0 0 1 97.75 134.25
  C 98.43 130.78 104.05 129.06 107.08 128.73
  Q 107.58 128.68 107.79 129.13
  Q 109.90 133.51 106.65 136.58
  Q 106.22 136.99 105.63 136.88
  L 98.64 135.57
  Z"
/>
<path d="
  M 67.98 139.14
  L 68.02 136.20
  A 0.45 0.45 0.0 0 1 68.47 135.75
  L 91.73 135.75
  A 0.45 0.45 0.0 0 1 92.13 135.99
  L 93.48 138.61
  A 0.45 0.45 0.0 0 1 93.08 139.27
  L 68.44 139.59
  A 0.45 0.45 0.0 0 1 67.98 139.14
  Z"
/>
<path d="
  M 96.18 153.96
  C 100.44 154.67 101.31 158.75 101.00 162.56
  Q 100.94 163.29 100.21 163.28
  L 91.81 163.13
  Q 91.25 163.12 91.25 162.56
  L 91.25 156.28
  Q 91.25 155.79 91.60 155.46
  Q 93.63 153.53 96.18 153.96
  Z"
/>
</g>
</svg>
