<?xml version="1.0" encoding="UTF-8" standalone="no"?>
<!DOCTYPE svg PUBLIC "-//W3C//DTD SVG 1.1//EN" "http://www.w3.org/Graphics/SVG/1.1/DTD/svg11.dtd">
<svg xmlns="http://www.w3.org/2000/svg" version="1.1" viewBox="0 0 180 180">
<g stroke-width="2.00" fill="none" stroke-linecap="butt">
<path stroke="#98989a" vector-effect="non-scaling-stroke" d="
  M 107.15 88.33
  C 100.14 83.46 81.33 83.60 75.43 90.42
  Q 75.07 90.84 75.51 91.19
  L 85.70 99.10
  Q 86.07 99.40 86.51 99.20
  Q 90.35 97.50 94.43 98.65
  Q 94.93 98.80 95.33 98.46
  L 107.16 88.59
  A 0.16 0.16 0.0 0 0 107.15 88.33"
/>
<path stroke="#9c904e" vector-effect="non-scaling-stroke" d="
  M 94.72 106.51
  L 97.74 108.81
  Q 98.18 109.15 98.60 108.78
  L 110.08 98.80
  Q 111.02 97.98 110.31 96.95
  Q 109.40 95.66 109.79 94.06
  A 0.33 0.33 0.0 0 0 109.26 93.72
  L 94.71 105.95
  A 0.36 0.35 -46.3 0 0 94.72 106.51"
/>
<path stroke="#9c904e" vector-effect="non-scaling-stroke" d="
  M 71.00 97.96
  Q 69.65 99.50 69.80 101.59
  Q 69.84 102.10 70.26 102.39
  C 75.51 106.07 80.70 109.22 85.98 113.23
  Q 93.78 119.16 102.38 123.95
  Q 102.88 124.23 103.38 123.92
  L 105.79 122.44
  Q 106.54 121.98 105.84 121.45
  C 98.99 116.24 91.43 111.38 85.13 106.17
  Q 80.05 101.96 75.00 97.71"
/>
<path stroke="#98989a" vector-effect="non-scaling-stroke" d="
  M 75.00 97.71
  L 72.47 95.98
  Q 72.02 95.67 71.71 96.13
  Q 71.17 96.96 71.00 97.96"
/>
<path stroke="#fcf0ac" vector-effect="non-scaling-stroke" d="
  M 75.00 97.71
  L 71.00 97.96"
/>
<path stroke="#9c904e" vector-effect="non-scaling-stroke" d="
  M 122.08 96.51
  Q 119.13 93.90 120.89 97.43
  C 125.77 107.21 127.11 118.15 127.56 130.75
  Q 128.11 146.20 128.09 161.69
  Q 128.09 162.13 128.52 162.16
  L 136.48 162.76
  Q 136.95 162.79 137.02 162.33
  Q 137.57 158.82 137.55 157.75
  C 137.33 147.54 137.74 137.01 136.22 126.92
  C 134.32 114.26 132.25 105.51 122.08 96.51"
/>
<path stroke="#98989a" vector-effect="non-scaling-stroke" d="
  M 103.21 112.49
  Q 105.62 114.99 109.01 115.46
  Q 109.49 115.52 109.78 115.90
  Q 112.44 119.28 111.03 123.46
  Q 110.84 124.02 111.20 124.49
  Q 114.82 129.21 113.89 135.20
  Q 113.78 135.95 114.50 135.75
  L 120.22 134.20
  Q 120.82 134.04 121.13 133.51
  Q 122.00 132.03 121.89 130.07
  C 121.34 119.91 120.47 109.87 116.25 100.76
  Q 116.06 100.34 115.72 100.65
  L 103.23 111.87
  A 0.44 0.42 47.7 0 0 103.21 112.49"
/>
<path stroke="#98989a" vector-effect="non-scaling-stroke" d="
  M 76.71 113.77
  A 0.35 0.35 0.0 0 0 76.66 113.23
  L 69.26 108.31
  A 0.35 0.35 0.0 0 0 68.72 108.59
  L 68.13 121.07
  A 0.35 0.35 0.0 0 0 68.72 121.34
  L 76.71 113.77"
/>
<path stroke="#9c904e" vector-effect="non-scaling-stroke" d="
  M 85.89 120.24
  L 82.00 117.20
  Q 81.44 116.77 80.94 117.26
  L 68.40 129.36
  Q 67.69 130.05 68.67 130.17
  C 71.84 130.56 74.06 130.71 76.73 128.54
  Q 81.32 124.80 85.90 121.00
  Q 86.37 120.61 85.89 120.24"
/>
<path stroke="#98989a" vector-effect="non-scaling-stroke" d="
  M 96.15 126.87
  L 91.50 123.75
  Q 91.16 123.52 90.75 123.85
  L 83.87 129.63
  Q 83.43 130.00 84.00 130.00
  L 92.58 130.00
  Q 93.07 130.00 93.41 129.65
  L 96.15 126.90
  Q 96.16 126.88 96.15 126.87"
/>
<path stroke="#9c904e" vector-effect="non-scaling-stroke" d="
  M 54.60 133.08
  Q 58.01 134.82 61.90 134.95
  Q 62.49 134.97 62.49 134.38
  L 62.50 128.29
  Q 62.50 127.87 62.09 127.83
  Q 56.83 127.29 54.18 131.59
  A 1.05 1.05 0.0 0 0 54.60 133.08"
/>
<path stroke="#9c904e" vector-effect="non-scaling-stroke" d="
  M 97.87 134.55
  C 98.88 136.46 103.75 136.78 105.72 136.99
  Q 106.27 137.05 106.69 136.70
  Q 110.45 133.54 107.75 128.92
  Q 107.50 128.49 107.00 128.57
  C 104.74 128.97 96.21 131.40 97.87 134.55"
/>
<path stroke="#9c904e" vector-effect="non-scaling-stroke" d="
  M 68.00 139.51
  A 0.33 0.33 0.0 0 0 68.34 139.84
  L 93.77 139.37
  A 0.33 0.33 0.0 0 0 94.04 138.86
  L 92.05 135.90
  A 0.33 0.33 0.0 0 0 91.77 135.75
  L 68.33 135.75
  A 0.33 0.33 0.0 0 0 68.00 136.08
  L 68.00 139.51"
/>
<path stroke="#98989a" vector-effect="non-scaling-stroke" d="
  M 121.75 145.17
  L 68.66 145.19
  Q 68.11 145.19 68.09 145.75
  C 67.82 152.25 67.26 158.00 68.32 164.46
  A 2.00 2.00 0.0 0 0 70.32 166.13
  L 84.54 165.97
  A 0.99 0.99 0.0 0 0 85.51 164.97
  C 85.47 161.11 84.61 153.24 88.31 150.78
  C 98.31 144.14 108.01 151.79 106.81 162.77
  Q 106.50 165.63 109.05 165.69
  Q 115.37 165.83 121.63 165.71
  A 0.69 0.69 0.0 0 0 122.31 165.02
  L 122.46 145.81
  Q 122.46 145.17 121.75 145.17"
/>
<path stroke="#9c904e" vector-effect="non-scaling-stroke" d="
  M 91.67 163.17
  L 100.66 163.28
  Q 101.15 163.29 101.18 162.80
  C 101.54 156.87 98.97 151.66 91.94 154.80
  A 1.59 1.59 0.0 0 0 91.00 156.25
  L 91.00 162.49
  A 0.68 0.68 0.0 0 0 91.67 163.17"
/>
</g>
<path fill="#38383c" d="
  M 62.71 121.57
  C 62.58 108.20 63.12 88.15 78.23 81.99
  Q 84.40 79.47 94.26 79.16
  Q 105.03 78.81 112.87 85.57
  Q 114.55 87.01 116.50 87.70
  C 136.92 94.93 140.27 113.24 142.46 132.20
  Q 142.93 136.27 142.97 141.95
  C 143.02 149.77 143.55 156.54 142.58 165.13
  Q 142.53 165.60 142.25 165.98
  C 139.39 169.74 132.21 168.04 128.07 167.71
  Q 127.55 167.67 127.31 168.13
  Q 125.48 171.58 121.31 171.54
  C 117.07 171.50 107.54 172.65 102.89 169.06
  Q 102.52 168.78 102.06 168.78
  L 91.10 168.69
  Q 90.61 168.69 90.25 169.02
  C 85.97 172.99 69.14 173.10 64.87 169.19
  C 60.72 165.39 62.43 146.96 62.57 141.47
  A 0.97 0.97 0.0 0 0 61.59 140.48
  C 56.37 140.54 46.70 137.58 48.73 130.50
  C 50.32 124.96 56.53 122.08 62.10 122.18
  Q 62.72 122.19 62.71 121.57
  Z
  M 107.15 88.33
  C 100.14 83.46 81.33 83.60 75.43 90.42
  Q 75.07 90.84 75.51 91.19
  L 85.70 99.10
  Q 86.07 99.40 86.51 99.20
  Q 90.35 97.50 94.43 98.65
  Q 94.93 98.80 95.33 98.46
  L 107.16 88.59
  A 0.16 0.16 0.0 0 0 107.15 88.33
  Z
  M 94.72 106.51
  L 97.74 108.81
  Q 98.18 109.15 98.60 108.78
  L 110.08 98.80
  Q 111.02 97.98 110.31 96.95
  Q 109.40 95.66 109.79 94.06
  A 0.33 0.33 0.0 0 0 109.26 93.72
  L 94.71 105.95
  A 0.36 0.35 -46.3 0 0 94.72 106.51
  Z
  M 71.00 97.96
  Q 69.65 99.50 69.80 101.59
  Q 69.84 102.10 70.26 102.39
  C 75.51 106.07 80.70 109.22 85.98 113.23
  Q 93.78 119.16 102.38 123.95
  Q 102.88 124.23 103.38 123.92
  L 105.79 122.44
  Q 106.54 121.98 105.84 121.45
  C 98.99 116.24 91.43 111.38 85.13 106.17
  Q 80.05 101.96 75.00 97.71
  L 72.47 95.98
  Q 72.02 95.67 71.71 96.13
  Q 71.17 96.96 71.00 97.96
  Z
  M 122.08 96.51
  Q 119.13 93.90 120.89 97.43
  C 125.77 107.21 127.11 118.15 127.56 130.75
  Q 128.11 146.20 128.09 161.69
  Q 128.09 162.13 128.52 162.16
  L 136.48 162.76
  Q 136.95 162.79 137.02 162.33
  Q 137.57 158.82 137.55 157.75
  C 137.33 147.54 137.74 137.01 136.22 126.92
  C 134.32 114.26 132.25 105.51 122.08 96.51
  Z
  M 103.21 112.49
  Q 105.62 114.99 109.01 115.46
  Q 109.49 115.52 109.78 115.90
  Q 112.44 119.28 111.03 123.46
  Q 110.84 124.02 111.20 124.49
  Q 114.82 129.21 113.89 135.20
  Q 113.78 135.95 114.50 135.75
  L 120.22 134.20
  Q 120.82 134.04 121.13 133.51
  Q 122.00 132.03 121.89 130.07
  C 121.34 119.91 120.47 109.87 116.25 100.76
  Q 116.06 100.34 115.72 100.65
  L 103.23 111.87
  A 0.44 0.42 47.7 0 0 103.21 112.49
  Z
  M 76.71 113.77
  A 0.35 0.35 0.0 0 0 76.66 113.23
  L 69.26 108.31
  A 0.35 0.35 0.0 0 0 68.72 108.59
  L 68.13 121.07
  A 0.35 0.35 0.0 0 0 68.72 121.34
  L 76.71 113.77
  Z
  M 85.89 120.24
  L 82.00 117.20
  Q 81.44 116.77 80.94 117.26
  L 68.40 129.36
  Q 67.69 130.05 68.67 130.17
  C 71.84 130.56 74.06 130.71 76.73 128.54
  Q 81.32 124.80 85.90 121.00
  Q 86.37 120.61 85.89 120.24
  Z
  M 96.15 126.87
  L 91.50 123.75
  Q 91.16 123.52 90.75 123.85
  L 83.87 129.63
  Q 83.43 130.00 84.00 130.00
  L 92.58 130.00
  Q 93.07 130.00 93.41 129.65
  L 96.15 126.90
  Q 96.16 126.88 96.15 126.87
  Z
  M 54.60 133.08
  Q 58.01 134.82 61.90 134.95
  Q 62.49 134.97 62.49 134.38
  L 62.50 128.29
  Q 62.50 127.87 62.09 127.83
  Q 56.83 127.29 54.18 131.59
  A 1.05 1.05 0.0 0 0 54.60 133.08
  Z
  M 97.87 134.55
  C 98.88 136.46 103.75 136.78 105.72 136.99
  Q 106.27 137.05 106.69 136.70
  Q 110.45 133.54 107.75 128.92
  Q 107.50 128.49 107.00 128.57
  C 104.74 128.97 96.21 131.40 97.87 134.55
  Z
  M 68.00 139.51
  A 0.33 0.33 0.0 0 0 68.34 139.84
  L 93.77 139.37
  A 0.33 0.33 0.0 0 0 94.04 138.86
  L 92.05 135.90
  A 0.33 0.33 0.0 0 0 91.77 135.75
  L 68.33 135.75
  A 0.33 0.33 0.0 0 0 68.00 136.08
  L 68.00 139.51
  Z
  M 121.75 145.17
  L 68.66 145.19
  Q 68.11 145.19 68.09 145.75
  C 67.82 152.25 67.26 158.00 68.32 164.46
  A 2.00 2.00 0.0 0 0 70.32 166.13
  L 84.54 165.97
  A 0.99 0.99 0.0 0 0 85.51 164.97
  C 85.47 161.11 84.61 153.24 88.31 150.78
  C 98.31 144.14 108.01 151.79 106.81 162.77
  Q 106.50 165.63 109.05 165.69
  Q 115.37 165.83 121.63 165.71
  A 0.69 0.69 0.0 0 0 122.31 165.02
  L 122.46 145.81
  Q 122.46 145.17 121.75 145.17
  Z
  M 91.67 163.17
  L 100.66 163.28
  Q 101.15 163.29 101.18 162.80
  C 101.54 156.87 98.97 151.66 91.94 154.80
  A 1.59 1.59 0.0 0 0 91.00 156.25
  L 91.00 162.49
  A 0.68 0.68 0.0 0 0 91.67 163.17
  Z"
/>
<g fill="#f8f8f8">
<path d="
  M 107.15 88.33
  A 0.16 0.16 0.0 0 1 107.16 88.59
  L 95.33 98.46
  Q 94.93 98.80 94.43 98.65
  Q 90.35 97.50 86.51 99.20
  Q 86.07 99.40 85.70 99.10
  L 75.51 91.19
  Q 75.07 90.84 75.43 90.42
  C 81.33 83.60 100.14 83.46 107.15 88.33
  Z"
/>
<path d="
  M 75.00 97.71
  L 71.00 97.96
  Q 71.17 96.96 71.71 96.13
  Q 72.02 95.67 72.47 95.98
  L 75.00 97.71
  Z"
/>
<path d="
  M 103.21 112.49
  A 0.44 0.42 47.7 0 1 103.23 111.87
  L 115.72 100.65
  Q 116.06 100.34 116.25 100.76
  C 120.47 109.87 121.34 119.91 121.89 130.07
  Q 122.00 132.03 121.13 133.51
  Q 120.82 134.04 120.22 134.20
  L 114.50 135.75
  Q 113.78 135.95 113.89 135.20
  Q 114.82 129.21 111.20 124.49
  Q 110.84 124.02 111.03 123.46
  Q 112.44 119.28 109.78 115.90
  Q 109.49 115.52 109.01 115.46
  Q 105.62 114.99 103.21 112.49
  Z"
/>
<path d="
  M 76.71 113.77
  L 68.72 121.34
  A 0.35 0.35 0.0 0 1 68.13 121.07
  L 68.72 108.59
  A 0.35 0.35 0.0 0 1 69.26 108.31
  L 76.66 113.23
  A 0.35 0.35 0.0 0 1 76.71 113.77
  Z"
/>
<path d="
  M 91.50 123.75
  L 96.15 126.87
  Q 96.16 126.88 96.15 126.90
  L 93.41 129.65
  Q 93.07 130.00 92.58 130.00
  L 84.00 130.00
  Q 83.43 130.00 83.87 129.63
  L 90.75 123.85
  Q 91.16 123.52 91.50 123.75
  Z"
/>
<path d="
  M 68.66 145.19
  L 121.75 145.17
  Q 122.46 145.17 122.46 145.81
  L 122.31 165.02
  A 0.69 0.69 0.0 0 1 121.63 165.71
  Q 115.37 165.83 109.05 165.69
  Q 106.50 165.63 106.81 162.77
  C 108.01 151.79 98.31 144.14 88.31 150.78
  C 84.61 153.24 85.47 161.11 85.51 164.97
  A 0.99 0.99 0.0 0 1 84.54 165.97
  L 70.32 166.13
  A 2.00 2.00 0.0 0 1 68.32 164.46
  C 67.26 158.00 67.82 152.25 68.09 145.75
  Q 68.11 145.19 68.66 145.19
  Z"
/>
</g>
<g fill="#ffe75f">
<path d="
  M 94.72 106.51
  A 0.36 0.35 -46.3 0 1 94.71 105.95
  L 109.26 93.72
  A 0.33 0.33 0.0 0 1 109.79 94.06
  Q 109.40 95.66 110.31 96.95
  Q 111.02 97.98 110.08 98.80
  L 98.60 108.78
  Q 98.18 109.15 97.74 108.81
  L 94.72 106.51
  Z"
/>
<path d="
  M 122.08 96.51
  C 132.25 105.51 134.32 114.26 136.22 126.92
  C 137.74 137.01 137.33 147.54 137.55 157.75
  Q 137.57 158.82 137.02 162.33
  Q 136.95 162.79 136.48 162.76
  L 128.52 162.16
  Q 128.09 162.13 128.09 161.69
  Q 128.11 146.20 127.56 130.75
  C 127.11 118.15 125.77 107.21 120.89 97.43
  Q 119.13 93.90 122.08 96.51
  Z"
/>
<path d="
  M 75.00 97.71
  Q 80.05 101.96 85.13 106.17
  C 91.43 111.38 98.99 116.24 105.84 121.45
  Q 106.54 121.98 105.79 122.44
  L 103.38 123.92
  Q 102.88 124.23 102.38 123.95
  Q 93.78 119.16 85.98 113.23
  C 80.70 109.22 75.51 106.07 70.26 102.39
  Q 69.84 102.10 69.80 101.59
  Q 69.65 99.50 71.00 97.96
  L 75.00 97.71
  Z"
/>
<path d="
  M 82.00 117.20
  L 85.89 120.24
  Q 86.37 120.61 85.90 121.00
  Q 81.32 124.80 76.73 128.54
  C 74.06 130.71 71.84 130.56 68.67 130.17
  Q 67.69 130.05 68.40 129.36
  L 80.94 117.26
  Q 81.44 116.77 82.00 117.20
  Z"
/>
<path d="
  M 54.60 133.08
  A 1.05 1.05 0.0 0 1 54.18 131.59
  Q 56.83 127.29 62.09 127.83
  Q 62.50 127.87 62.50 128.29
  L 62.49 134.38
  Q 62.49 134.97 61.90 134.95
  Q 58.01 134.82 54.60 133.08
  Z"
/>
<path d="
  M 97.87 134.55
  C 96.21 131.40 104.74 128.97 107.00 128.57
  Q 107.50 128.49 107.75 128.92
  Q 110.45 133.54 106.69 136.70
  Q 106.27 137.05 105.72 136.99
  C 103.75 136.78 98.88 136.46 97.87 134.55
  Z"
/>
<path d="
  M 68.00 139.51
  L 68.00 136.08
  A 0.33 0.33 0.0 0 1 68.33 135.75
  L 91.77 135.75
  A 0.33 0.33 0.0 0 1 92.05 135.90
  L 94.04 138.86
  A 0.33 0.33 0.0 0 1 93.77 139.37
  L 68.34 139.84
  A 0.33 0.33 0.0 0 1 68.00 139.51
  Z"
/>
<path d="
  M 91.67 163.17
  A 0.68 0.68 0.0 0 1 91.00 162.49
  L 91.00 156.25
  A 1.59 1.59 0.0 0 1 91.94 154.80
  C 98.97 151.66 101.54 156.87 101.18 162.80
  Q 101.15 163.29 100.66 163.28
  L 91.67 163.17
  Z"
/>
</g>
</svg>
