<?xml version="1.0" encoding="UTF-8" standalone="no"?>
<!DOCTYPE svg PUBLIC "-//W3C//DTD SVG 1.1//EN" "http://www.w3.org/Graphics/SVG/1.1/DTD/svg11.dtd">
<svg xmlns="http://www.w3.org/2000/svg" version="1.1" viewBox="0 0 180 180">
<g stroke-width="2.00" fill="none" stroke-linecap="butt">
<path stroke="#3d504e" vector-effect="non-scaling-stroke" d="
  M 106.54 87.83
  C 98.62 83.78 81.92 83.68 75.45 90.55
  A 0.47 0.46 39.0 0 0 75.53 91.25
  Q 82.81 96.19 88.95 102.48
  A 0.80 0.79 47.7 0 0 90.03 102.54
  L 106.65 88.93
  Q 107.43 88.29 106.54 87.83"
/>
<path stroke="#533d3e" vector-effect="non-scaling-stroke" d="
  M 94.68 106.08
  A 0.34 0.34 0.0 0 0 94.72 106.64
  L 98.14 108.69
  A 0.34 0.34 0.0 0 0 98.54 108.66
  L 113.42 95.53
  A 0.34 0.34 0.0 0 0 113.47 95.08
  L 111.66 92.54
  A 0.34 0.34 0.0 0 0 111.17 92.47
  L 94.68 106.08"
/>
<path stroke="#533d3e" vector-effect="non-scaling-stroke" d="
  M 117.42 129.96
  Q 103.08 119.63 88.75 109.27
  C 83.53 105.49 78.28 100.14 72.51 96.05
  Q 71.91 95.63 71.65 96.31
  L 69.76 101.14
  Q 69.55 101.67 70.02 102.01
  Q 75.77 106.13 81.81 109.82
  C 84.44 111.44 86.55 113.81 89.26 115.53
  C 93.60 118.27 106.73 125.65 108.69 129.88
  Q 108.91 130.36 109.43 130.35
  Q 113.21 130.29 117.31 130.31
  Q 117.90 130.31 117.42 129.96"
/>
<path stroke="#3d504e" vector-effect="non-scaling-stroke" d="
  M 103.52 112.68
  L 120.87 125.44
  Q 121.35 125.79 121.33 125.20
  Q 120.95 112.61 116.43 100.91
  Q 116.22 100.37 115.79 100.75
  L 103.48 111.72
  A 0.62 0.62 0.0 0 0 103.52 112.68"
/>
<path stroke="#3d504e" vector-effect="non-scaling-stroke" d="
  M 76.41 113.22
  L 69.44 108.50
  A 0.40 0.40 0.0 0 0 68.81 108.81
  L 68.38 121.28
  Q 68.37 121.58 68.58 121.38
  L 76.46 113.82
  A 0.39 0.38 40.3 0 0 76.41 113.22"
/>
<path stroke="#533d3e" vector-effect="non-scaling-stroke" d="
  M 85.37 119.98
  L 82.03 117.36
  Q 81.50 116.95 81.02 117.41
  L 68.63 129.37
  Q 67.83 130.14 68.94 130.21
  C 71.10 130.34 72.98 130.61 74.95 129.46
  Q 80.86 125.97 85.44 120.78
  Q 85.83 120.34 85.37 119.98"
/>
<path stroke="#3d504e" vector-effect="non-scaling-stroke" d="
  M 99.83 129.37
  L 91.62 124.02
  Q 91.13 123.70 90.68 124.07
  L 84.20 129.47
  Q 83.84 129.77 84.31 129.79
  C 86.32 129.84 99.32 130.39 99.88 129.70
  A 0.23 0.22 36.8 0 0 99.83 129.37"
/>
<path stroke="#533d3e" vector-effect="non-scaling-stroke" d="
  M 121.90 136.97
  A 0.68 0.68 0.0 0 0 121.23 136.32
  L 68.94 135.56
  A 0.68 0.68 0.0 0 0 68.25 136.24
  L 68.25 138.76
  A 0.68 0.68 0.0 0 0 68.93 139.44
  L 121.28 139.41
  A 0.68 0.68 0.0 0 0 121.96 138.70
  L 121.90 136.97"
/>
<path stroke="#533d3e" vector-effect="non-scaling-stroke" d="
  M 68.81 145.37
  Q 68.21 145.37 68.18 145.97
  C 67.94 151.46 66.88 159.00 68.54 164.38
  A 2.39 2.39 0.0 0 0 70.88 166.07
  L 84.50 165.70
  A 1.04 1.04 0.0 0 0 85.52 164.64
  C 85.42 159.50 84.27 152.21 90.03 149.51
  C 100.19 144.74 108.00 152.98 106.65 163.09
  A 2.28 2.27 -86.2 0 0 108.90 165.67
  L 121.55 165.69
  Q 122.34 165.69 122.35 164.89
  L 122.37 145.87
  Q 122.37 145.13 121.62 145.13
  L 68.81 145.37"
/>
</g>
<path fill="#38383c" d="
  M 114.37 87.13
  C 129.21 102.90 127.34 129.98 128.28 150.53
  Q 128.70 159.90 127.79 167.01
  C 126.96 173.40 111.78 171.70 107.57 171.13
  C 95.95 169.57 106.22 150.43 92.91 154.24
  A 2.51 2.50 -9.9 0 0 91.11 156.79
  C 91.33 160.26 91.84 165.83 90.21 168.58
  C 87.58 173.02 77.66 171.75 71.76 171.69
  Q 66.53 171.64 63.69 167.91
  Q 63.38 167.50 63.34 167.00
  C 63.13 164.46 62.24 162.09 62.26 159.65
  Q 62.49 137.07 62.74 114.50
  C 62.87 102.76 65.93 86.29 78.46 82.02
  C 90.44 77.95 104.95 77.12 114.37 87.13
  Z
  M 106.54 87.83
  C 98.62 83.78 81.92 83.68 75.45 90.55
  A 0.47 0.46 39.0 0 0 75.53 91.25
  Q 82.81 96.19 88.95 102.48
  A 0.80 0.79 47.7 0 0 90.03 102.54
  L 106.65 88.93
  Q 107.43 88.29 106.54 87.83
  Z
  M 94.68 106.08
  A 0.34 0.34 0.0 0 0 94.72 106.64
  L 98.14 108.69
  A 0.34 0.34 0.0 0 0 98.54 108.66
  L 113.42 95.53
  A 0.34 0.34 0.0 0 0 113.47 95.08
  L 111.66 92.54
  A 0.34 0.34 0.0 0 0 111.17 92.47
  L 94.68 106.08
  Z
  M 117.42 129.96
  Q 103.08 119.63 88.75 109.27
  C 83.53 105.49 78.28 100.14 72.51 96.05
  Q 71.91 95.63 71.65 96.31
  L 69.76 101.14
  Q 69.55 101.67 70.02 102.01
  Q 75.77 106.13 81.81 109.82
  C 84.44 111.44 86.55 113.81 89.26 115.53
  C 93.60 118.27 106.73 125.65 108.69 129.88
  Q 108.91 130.36 109.43 130.35
  Q 113.21 130.29 117.31 130.31
  Q 117.90 130.31 117.42 129.96
  Z
  M 103.52 112.68
  L 120.87 125.44
  Q 121.35 125.79 121.33 125.20
  Q 120.95 112.61 116.43 100.91
  Q 116.22 100.37 115.79 100.75
  L 103.48 111.72
  A 0.62 0.62 0.0 0 0 103.52 112.68
  Z
  M 76.41 113.22
  L 69.44 108.50
  A 0.40 0.40 0.0 0 0 68.81 108.81
  L 68.38 121.28
  Q 68.37 121.58 68.58 121.38
  L 76.46 113.82
  A 0.39 0.38 40.3 0 0 76.41 113.22
  Z
  M 85.37 119.98
  L 82.03 117.36
  Q 81.50 116.95 81.02 117.41
  L 68.63 129.37
  Q 67.83 130.14 68.94 130.21
  C 71.10 130.34 72.98 130.61 74.95 129.46
  Q 80.86 125.97 85.44 120.78
  Q 85.83 120.34 85.37 119.98
  Z
  M 99.83 129.37
  L 91.62 124.02
  Q 91.13 123.70 90.68 124.07
  L 84.20 129.47
  Q 83.84 129.77 84.31 129.79
  C 86.32 129.84 99.32 130.39 99.88 129.70
  A 0.23 0.22 36.8 0 0 99.83 129.37
  Z
  M 121.90 136.97
  A 0.68 0.68 0.0 0 0 121.23 136.32
  L 68.94 135.56
  A 0.68 0.68 0.0 0 0 68.25 136.24
  L 68.25 138.76
  A 0.68 0.68 0.0 0 0 68.93 139.44
  L 121.28 139.41
  A 0.68 0.68 0.0 0 0 121.96 138.70
  L 121.90 136.97
  Z
  M 68.81 145.37
  Q 68.21 145.37 68.18 145.97
  C 67.94 151.46 66.88 159.00 68.54 164.38
  A 2.39 2.39 0.0 0 0 70.88 166.07
  L 84.50 165.70
  A 1.04 1.04 0.0 0 0 85.52 164.64
  C 85.42 159.50 84.27 152.21 90.03 149.51
  C 100.19 144.74 108.00 152.98 106.65 163.09
  A 2.28 2.27 -86.2 0 0 108.90 165.67
  L 121.55 165.69
  Q 122.34 165.69 122.35 164.89
  L 122.37 145.87
  Q 122.37 145.13 121.62 145.13
  L 68.81 145.37
  Z"
/>
<g fill="#6e423f">
<path d="
  M 94.68 106.08
  L 111.17 92.47
  A 0.34 0.34 0.0 0 1 111.66 92.54
  L 113.47 95.08
  A 0.34 0.34 0.0 0 1 113.42 95.53
  L 98.54 108.66
  A 0.34 0.34 0.0 0 1 98.14 108.69
  L 94.72 106.64
  A 0.34 0.34 0.0 0 1 94.68 106.08
  Z"
/>
<path d="
  M 117.31 130.31
  Q 113.21 130.29 109.43 130.35
  Q 108.91 130.36 108.69 129.88
  C 106.73 125.65 93.60 118.27 89.26 115.53
  C 86.55 113.81 84.44 111.44 81.81 109.82
  Q 75.77 106.13 70.02 102.01
  Q 69.55 101.67 69.76 101.14
  L 71.65 96.31
  Q 71.91 95.63 72.51 96.05
  C 78.28 100.14 83.53 105.49 88.75 109.27
  Q 103.08 119.63 117.42 129.96
  Q 117.90 130.31 117.31 130.31
  Z"
/>
<path d="
  M 85.44 120.78
  Q 80.86 125.97 74.95 129.46
  C 72.98 130.61 71.10 130.34 68.94 130.21
  Q 67.83 130.14 68.63 129.37
  L 81.02 117.41
  Q 81.50 116.95 82.03 117.36
  L 85.37 119.98
  Q 85.83 120.34 85.44 120.78
  Z"
/>
<path d="
  M 121.90 136.97
  L 121.96 138.70
  A 0.68 0.68 0.0 0 1 121.28 139.41
  L 68.93 139.44
  A 0.68 0.68 0.0 0 1 68.25 138.76
  L 68.25 136.24
  A 0.68 0.68 0.0 0 1 68.94 135.56
  L 121.23 136.32
  A 0.68 0.68 0.0 0 1 121.90 136.97
  Z"
/>
<path d="
  M 68.81 145.37
  L 121.62 145.13
  Q 122.37 145.13 122.37 145.87
  L 122.35 164.89
  Q 122.34 165.69 121.55 165.69
  L 108.90 165.67
  A 2.28 2.27 -86.2 0 1 106.65 163.09
  C 108.00 152.98 100.19 144.74 90.03 149.51
  C 84.27 152.21 85.42 159.50 85.52 164.64
  A 1.04 1.04 0.0 0 1 84.50 165.70
  L 70.88 166.07
  A 2.39 2.39 0.0 0 1 68.54 164.38
  C 66.88 159.00 67.94 151.46 68.18 145.97
  Q 68.21 145.37 68.81 145.37
  Z"
/>
</g>
<g fill="#42685f">
<path d="
  M 106.54 87.83
  Q 107.43 88.29 106.65 88.93
  L 90.03 102.54
  A 0.80 0.79 47.7 0 1 88.95 102.48
  Q 82.81 96.19 75.53 91.25
  A 0.47 0.46 39.0 0 1 75.45 90.55
  C 81.92 83.68 98.62 83.78 106.54 87.83
  Z"
/>
<path d="
  M 103.52 112.68
  A 0.62 0.62 0.0 0 1 103.48 111.72
  L 115.79 100.75
  Q 116.22 100.37 116.43 100.91
  Q 120.95 112.61 121.33 125.20
  Q 121.35 125.79 120.87 125.44
  L 103.52 112.68
  Z"
/>
<path d="
  M 76.41 113.22
  A 0.39 0.38 40.3 0 1 76.46 113.82
  L 68.58 121.38
  Q 68.37 121.58 68.38 121.28
  L 68.81 108.81
  A 0.40 0.40 0.0 0 1 69.44 108.50
  L 76.41 113.22
  Z"
/>
<path d="
  M 99.83 129.37
  A 0.23 0.22 36.8 0 1 99.88 129.70
  C 99.32 130.39 86.32 129.84 84.31 129.79
  Q 83.84 129.77 84.20 129.47
  L 90.68 124.07
  Q 91.13 123.70 91.62 124.02
  L 99.83 129.37
  Z"
/>
</g>
</svg>
