<?xml version="1.0" encoding="UTF-8" standalone="no"?>
<!DOCTYPE svg PUBLIC "-//W3C//DTD SVG 1.1//EN" "http://www.w3.org/Graphics/SVG/1.1/DTD/svg11.dtd">
<svg xmlns="http://www.w3.org/2000/svg" version="1.1" viewBox="0 0 180 180">
<g stroke-width="2.00" fill="none" stroke-linecap="butt">
<path stroke="#927a6d" vector-effect="non-scaling-stroke" d="
  M 99.84 52.94
  C 103.22 29.77 71.65 23.50 66.12 47.01
  C 65.08 51.41 65.69 56.84 65.88 61.83
  C 66.21 70.61 71.63 79.56 81.07 80.60
  C 86.71 81.21 93.00 79.57 96.37 74.67
  C 98.58 71.44 96.24 69.22 102.06 69.01
  C 111.44 68.68 113.64 55.18 103.90 56.11
  C 101.82 56.31 100.79 55.70 99.97 53.89
  Q 99.77 53.44 99.84 52.94"
/>
<path stroke="#533d3e" vector-effect="non-scaling-stroke" d="
  M 39.83 59.92
  C 37.97 55.53 32.24 55.43 30.27 59.60
  C 26.82 66.90 28.79 78.59 31.60 86.29
  Q 38.90 106.26 45.58 126.05
  A 1.33 1.33 0.0 0 0 48.16 125.50
  Q 45.85 99.44 42.95 73.51
  Q 42.00 65.03 39.83 59.92"
/>
<path stroke="#927a6d" vector-effect="non-scaling-stroke" d="
  M 102.75 75.36
  C 94.89 88.87 75.53 90.97 66.07 77.81
  Q 65.69 77.27 65.57 77.92
  C 62.80 92.50 62.13 106.95 61.73 121.46
  Q 61.70 122.49 62.73 122.55
  Q 80.40 123.71 98.07 122.92
  Q 98.61 122.89 98.57 122.36
  C 97.81 113.53 106.97 108.74 114.40 107.35
  A 2.20 2.20 0.0 0 0 116.05 104.40
  L 114.30 99.86
  A 2.29 2.29 0.0 0 1 115.51 96.94
  C 119.73 95.07 121.28 102.17 121.75 104.80
  C 122.64 109.77 118.12 112.13 113.98 113.20
  C 100.93 116.58 100.32 127.29 116.06 126.06
  C 125.24 125.34 132.50 123.00 137.80 115.13
  Q 138.07 114.73 138.03 114.26
  Q 136.49 92.34 127.47 72.38
  Q 124.28 65.32 117.41 60.13
  A 0.85 0.84 20.8 0 0 116.06 60.73
  Q 115.11 72.59 103.56 74.78
  Q 103.02 74.89 102.75 75.36"
/>
<path stroke="#927a6d" vector-effect="non-scaling-stroke" d="
  M 55.93 125.21
  L 56.18 113.19
  Q 56.19 112.67 55.68 112.74
  L 53.23 113.07
  Q 52.81 113.12 52.84 113.54
  Q 53.21 119.02 53.82 124.49
  C 53.95 125.60 54.48 126.14 55.64 125.64
  Q 55.92 125.52 55.93 125.21"
/>
<path stroke="#533d3e" vector-effect="non-scaling-stroke" d="
  M 86.41 147.67
  Q 89.53 148.78 91.57 151.34
  Q 91.99 151.87 92.35 151.30
  C 97.59 143.07 110.54 142.40 113.18 153.25
  Q 113.31 153.81 113.84 154.05
  L 117.59 155.75
  Q 118.10 155.98 118.52 155.62
  C 122.46 152.31 127.18 144.30 132.96 149.78
  Q 135.36 152.07 136.68 153.10
  Q 137.20 153.50 137.70 153.08
  L 140.23 150.99
  Q 140.70 150.60 140.67 149.99
  L 139.64 128.28
  Q 139.62 127.78 139.12 127.76
  C 135.98 127.67 133.52 127.70 130.38 128.89
  C 121.28 132.34 110.34 133.76 101.43 128.86
  Q 100.98 128.62 100.47 128.64
  Q 81.38 129.42 62.31 128.27
  A 0.58 0.57 -88.2 0 0 61.70 128.85
  L 61.87 147.96
  Q 61.87 148.60 62.44 148.28
  C 69.05 144.53 72.49 151.83 75.93 157.23
  Q 76.27 157.77 76.65 157.25
  C 79.08 153.86 81.31 149.10 85.41 147.67
  Q 85.91 147.49 86.41 147.67"
/>
<path stroke="#927a6d" vector-effect="non-scaling-stroke" d="
  M 80.06 161.80
  C 74.56 168.38 69.29 157.40 67.05 153.80
  Q 66.02 152.15 64.64 153.51
  L 62.64 155.47
  Q 62.29 155.81 62.32 156.30
  C 62.48 159.03 62.25 164.45 65.17 165.82
  C 70.84 168.47 82.26 167.30 88.50 166.68
  Q 89.00 166.63 89.05 166.13
  L 89.86 158.40
  Q 89.92 157.86 89.56 157.46
  L 86.72 154.29
  A 0.85 0.85 0.0 0 0 85.36 154.41
  Q 82.93 158.37 80.06 161.80"
/>
<path stroke="#927a6d" vector-effect="non-scaling-stroke" d="
  M 118.23 161.95
  L 115.02 160.81
  Q 114.47 160.62 114.48 161.20
  L 114.55 164.47
  Q 114.56 165.11 115.18 165.25
  Q 126.75 167.96 138.30 165.61
  A 2.65 2.64 85.8 0 0 140.41 163.16
  L 140.64 158.75
  Q 140.66 158.37 140.30 158.51
  C 135.41 160.41 132.03 156.92 129.14 154.03
  Q 128.64 153.53 128.13 154.03
  L 120.75 161.39
  Q 119.67 162.47 118.23 161.95"
/>
<path stroke="#927a6d" vector-effect="non-scaling-stroke" d="
  M 86.67 53.89
  A 7.77 7.77 0.0 0 0 78.90 46.12
  A 7.77 7.77 0.0 0 0 71.13 53.89
  A 7.77 7.77 0.0 0 0 78.90 61.66
  A 7.77 7.77 0.0 0 0 86.67 53.89"
/>
</g>
<g fill="#38383c">
<path d="
  M 97.65 153.68
  C 95.07 158.32 94.86 164.06 94.24 169.27
  Q 93.96 171.56 90.47 172.01
  C 82.23 173.07 63.73 175.49 58.47 166.89
  Q 57.04 164.55 56.75 160.28
  Q 55.82 146.17 56.02 132.01
  Q 56.02 131.46 55.47 131.46
  C 50.82 131.45 42.97 134.47 40.39 128.86
  Q 40.18 128.39 39.75 128.09
  Q 33.71 123.98 36.05 116.77
  Q 36.21 116.27 36.04 115.77
  C 31.45 102.36 25.30 88.97 22.96 75.02
  C 21.56 66.72 23.76 48.18 37.20 51.00
  C 44.67 52.57 47.52 62.04 48.24 69.09
  Q 50.16 87.92 52.38 106.73
  Q 52.45 107.29 53.01 107.27
  L 55.96 107.20
  Q 56.62 107.18 56.64 106.52
  Q 57.18 89.28 60.92 72.51
  Q 61.47 70.06 61.10 67.46
  C 59.80 58.22 59.20 45.54 64.53 37.20
  C 76.57 18.37 105.40 25.87 105.71 49.16
  Q 105.72 49.71 106.25 49.86
  C 118.17 53.29 125.80 57.00 131.31 67.95
  Q 139.73 84.68 142.57 103.23
  Q 147.08 132.70 146.23 162.49
  Q 146.15 165.32 145.22 167.95
  Q 145.05 168.43 144.61 168.70
  Q 140.90 171.03 137.84 171.64
  C 133.01 172.60 109.13 174.24 108.94 165.63
  Q 108.82 160.13 107.65 154.77
  C 106.52 149.63 100.02 149.40 97.65 153.68
  Z
  M 99.84 52.94
  C 103.22 29.77 71.65 23.50 66.12 47.01
  C 65.08 51.41 65.69 56.84 65.88 61.83
  C 66.21 70.61 71.63 79.56 81.07 80.60
  C 86.71 81.21 93.00 79.57 96.37 74.67
  C 98.58 71.44 96.24 69.22 102.06 69.01
  C 111.44 68.68 113.64 55.18 103.90 56.11
  C 101.82 56.31 100.79 55.70 99.97 53.89
  Q 99.77 53.44 99.84 52.94
  Z
  M 39.83 59.92
  C 37.97 55.53 32.24 55.43 30.27 59.60
  C 26.82 66.90 28.79 78.59 31.60 86.29
  Q 38.90 106.26 45.58 126.05
  A 1.33 1.33 0.0 0 0 48.16 125.50
  Q 45.85 99.44 42.95 73.51
  Q 42.00 65.03 39.83 59.92
  Z
  M 102.75 75.36
  C 94.89 88.87 75.53 90.97 66.07 77.81
  Q 65.69 77.27 65.57 77.92
  C 62.80 92.50 62.13 106.95 61.73 121.46
  Q 61.70 122.49 62.73 122.55
  Q 80.40 123.71 98.07 122.92
  Q 98.61 122.89 98.57 122.36
  C 97.81 113.53 106.97 108.74 114.40 107.35
  A 2.20 2.20 0.0 0 0 116.05 104.40
  L 114.30 99.86
  A 2.29 2.29 0.0 0 1 115.51 96.94
  C 119.73 95.07 121.28 102.17 121.75 104.80
  C 122.64 109.77 118.12 112.13 113.98 113.20
  C 100.93 116.58 100.32 127.29 116.06 126.06
  C 125.24 125.34 132.50 123.00 137.80 115.13
  Q 138.07 114.73 138.03 114.26
  Q 136.49 92.34 127.47 72.38
  Q 124.28 65.32 117.41 60.13
  A 0.85 0.84 20.8 0 0 116.06 60.73
  Q 115.11 72.59 103.56 74.78
  Q 103.02 74.89 102.75 75.36
  Z
  M 55.93 125.21
  L 56.18 113.19
  Q 56.19 112.67 55.68 112.74
  L 53.23 113.07
  Q 52.81 113.12 52.84 113.54
  Q 53.21 119.02 53.82 124.49
  C 53.95 125.60 54.48 126.14 55.64 125.64
  Q 55.92 125.52 55.93 125.21
  Z
  M 86.41 147.67
  Q 89.53 148.78 91.57 151.34
  Q 91.99 151.87 92.35 151.30
  C 97.59 143.07 110.54 142.40 113.18 153.25
  Q 113.31 153.81 113.84 154.05
  L 117.59 155.75
  Q 118.10 155.98 118.52 155.62
  C 122.46 152.31 127.18 144.30 132.96 149.78
  Q 135.36 152.07 136.68 153.10
  Q 137.20 153.50 137.70 153.08
  L 140.23 150.99
  Q 140.70 150.60 140.67 149.99
  L 139.64 128.28
  Q 139.62 127.78 139.12 127.76
  C 135.98 127.67 133.52 127.70 130.38 128.89
  C 121.28 132.34 110.34 133.76 101.43 128.86
  Q 100.98 128.62 100.47 128.64
  Q 81.38 129.42 62.31 128.27
  A 0.58 0.57 -88.2 0 0 61.70 128.85
  L 61.87 147.96
  Q 61.87 148.60 62.44 148.28
  C 69.05 144.53 72.49 151.83 75.93 157.23
  Q 76.27 157.77 76.65 157.25
  C 79.08 153.86 81.31 149.10 85.41 147.67
  Q 85.91 147.49 86.41 147.67
  Z
  M 80.06 161.80
  C 74.56 168.38 69.29 157.40 67.05 153.80
  Q 66.02 152.15 64.64 153.51
  L 62.64 155.47
  Q 62.29 155.81 62.32 156.30
  C 62.48 159.03 62.25 164.45 65.17 165.82
  C 70.84 168.47 82.26 167.30 88.50 166.68
  Q 89.00 166.63 89.05 166.13
  L 89.86 158.40
  Q 89.92 157.86 89.56 157.46
  L 86.72 154.29
  A 0.85 0.85 0.0 0 0 85.36 154.41
  Q 82.93 158.37 80.06 161.80
  Z
  M 118.23 161.95
  L 115.02 160.81
  Q 114.47 160.62 114.48 161.20
  L 114.55 164.47
  Q 114.56 165.11 115.18 165.25
  Q 126.75 167.96 138.30 165.61
  A 2.65 2.64 85.8 0 0 140.41 163.16
  L 140.64 158.75
  Q 140.66 158.37 140.30 158.51
  C 135.41 160.41 132.03 156.92 129.14 154.03
  Q 128.64 153.53 128.13 154.03
  L 120.75 161.39
  Q 119.67 162.47 118.23 161.95
  Z"
/>
<circle cx="78.90" cy="53.89" r="7.77"/>
</g>
<g fill="#ebbc9e">
<path d="
  M 66.12 47.01
  C 71.65 23.50 103.22 29.77 99.84 52.94
  Q 99.77 53.44 99.97 53.89
  C 100.79 55.70 101.82 56.31 103.90 56.11
  C 113.64 55.18 111.44 68.68 102.06 69.01
  C 96.24 69.22 98.58 71.44 96.37 74.67
  C 93.00 79.57 86.71 81.21 81.07 80.60
  C 71.63 79.56 66.21 70.61 65.88 61.83
  C 65.69 56.84 65.08 51.41 66.12 47.01
  Z
  M 86.67 53.89
  A 7.77 7.77 0.0 0 0 78.90 46.12
  A 7.77 7.77 0.0 0 0 71.13 53.89
  A 7.77 7.77 0.0 0 0 78.90 61.66
  A 7.77 7.77 0.0 0 0 86.67 53.89
  Z"
/>
<path d="
  M 66.07 77.81
  C 75.53 90.97 94.89 88.87 102.75 75.36
  Q 103.02 74.89 103.56 74.78
  Q 115.11 72.59 116.06 60.73
  A 0.85 0.84 20.8 0 1 117.41 60.13
  Q 124.28 65.32 127.47 72.38
  Q 136.49 92.34 138.03 114.26
  Q 138.07 114.73 137.80 115.13
  C 132.50 123.00 125.24 125.34 116.06 126.06
  C 100.32 127.29 100.93 116.58 113.98 113.20
  C 118.12 112.13 122.64 109.77 121.75 104.80
  C 121.28 102.17 119.73 95.07 115.51 96.94
  A 2.29 2.29 0.0 0 0 114.30 99.86
  L 116.05 104.40
  A 2.20 2.20 0.0 0 1 114.40 107.35
  C 106.97 108.74 97.81 113.53 98.57 122.36
  Q 98.61 122.89 98.07 122.92
  Q 80.40 123.71 62.73 122.55
  Q 61.70 122.49 61.73 121.46
  C 62.13 106.95 62.80 92.50 65.57 77.92
  Q 65.69 77.27 66.07 77.81
  Z"
/>
<path d="
  M 55.93 125.21
  Q 55.92 125.52 55.64 125.64
  C 54.48 126.14 53.95 125.60 53.82 124.49
  Q 53.21 119.02 52.84 113.54
  Q 52.81 113.12 53.23 113.07
  L 55.68 112.74
  Q 56.19 112.67 56.18 113.19
  L 55.93 125.21
  Z"
/>
<path d="
  M 67.05 153.80
  C 69.29 157.40 74.56 168.38 80.06 161.80
  Q 82.93 158.37 85.36 154.41
  A 0.85 0.85 0.0 0 1 86.72 154.29
  L 89.56 157.46
  Q 89.92 157.86 89.86 158.40
  L 89.05 166.13
  Q 89.00 166.63 88.50 166.68
  C 82.26 167.30 70.84 168.47 65.17 165.82
  C 62.25 164.45 62.48 159.03 62.32 156.30
  Q 62.29 155.81 62.64 155.47
  L 64.64 153.51
  Q 66.02 152.15 67.05 153.80
  Z"
/>
<path d="
  M 118.23 161.95
  Q 119.67 162.47 120.75 161.39
  L 128.13 154.03
  Q 128.64 153.53 129.14 154.03
  C 132.03 156.92 135.41 160.41 140.30 158.51
  Q 140.66 158.37 140.64 158.75
  L 140.41 163.16
  A 2.65 2.64 85.8 0 1 138.30 165.61
  Q 126.75 167.96 115.18 165.25
  Q 114.56 165.11 114.55 164.47
  L 114.48 161.20
  Q 114.47 160.62 115.02 160.81
  L 118.23 161.95
  Z"
/>
</g>
<g fill="#6e423f">
<path d="
  M 30.27 59.60
  C 32.24 55.43 37.97 55.53 39.83 59.92
  Q 42.00 65.03 42.95 73.51
  Q 45.85 99.44 48.16 125.50
  A 1.33 1.33 0.0 0 1 45.58 126.05
  Q 38.90 106.26 31.60 86.29
  C 28.79 78.59 26.82 66.90 30.27 59.60
  Z"
/>
<path d="
  M 85.41 147.67
  C 81.31 149.10 79.08 153.86 76.65 157.25
  Q 76.27 157.77 75.93 157.23
  C 72.49 151.83 69.05 144.53 62.44 148.28
  Q 61.87 148.60 61.87 147.96
  L 61.70 128.85
  A 0.58 0.57 -88.2 0 1 62.31 128.27
  Q 81.38 129.42 100.47 128.64
  Q 100.98 128.62 101.43 128.86
  C 110.34 133.76 121.28 132.34 130.38 128.89
  C 133.52 127.70 135.98 127.67 139.12 127.76
  Q 139.62 127.78 139.64 128.28
  L 140.67 149.99
  Q 140.70 150.60 140.23 150.99
  L 137.70 153.08
  Q 137.20 153.50 136.68 153.10
  Q 135.36 152.07 132.96 149.78
  C 127.18 144.30 122.46 152.31 118.52 155.62
  Q 118.10 155.98 117.59 155.75
  L 113.84 154.05
  Q 113.31 153.81 113.18 153.25
  C 110.54 142.40 97.59 143.07 92.35 151.30
  Q 91.99 151.87 91.57 151.34
  Q 89.53 148.78 86.41 147.67
  Q 85.91 147.49 85.41 147.67
  Z"
/>
</g>
</svg>
