<?xml version="1.0" encoding="UTF-8" standalone="no"?>
<!DOCTYPE svg PUBLIC "-//W3C//DTD SVG 1.1//EN" "http://www.w3.org/Graphics/SVG/1.1/DTD/svg11.dtd">
<svg xmlns="http://www.w3.org/2000/svg" version="1.1" viewBox="0 0 180 180">
<g stroke-width="2.00" fill="none" stroke-linecap="butt">
<path stroke="#485642" vector-effect="non-scaling-stroke" d="
  M 69.44 67.44
  C 67.60 69.22 65.13 67.60 62.93 67.55
  Q 62.45 67.54 62.50 68.01
  L 62.83 71.63
  Q 62.88 72.17 63.37 72.41
  C 65.08 73.29 67.51 72.34 68.87 72.32
  Q 74.50 72.24 80.11 72.25
  C 84.71 72.25 83.94 77.78 79.68 77.86
  Q 64.46 78.15 49.18 78.92
  A 2.16 2.15 -85.3 0 0 47.18 80.62
  C 46.36 84.42 44.86 96.55 51.04 97.27
  C 55.23 97.75 59.23 98.82 63.36 98.74
  Q 71.31 98.57 79.35 98.06
  Q 79.87 98.03 80.13 97.56
  C 82.20 93.76 87.01 86.57 91.28 87.10
  C 94.03 87.45 95.60 90.87 95.71 93.26
  C 96.01 99.86 96.11 104.68 88.17 104.16
  Q 79.70 103.59 71.03 104.38
  Q 70.53 104.43 70.37 104.91
  C 65.47 120.22 62.66 133.29 63.96 149.25
  C 64.27 152.96 59.41 153.81 56.68 154.02
  A 1.02 1.01 -84.8 0 0 55.77 154.79
  Q 54.43 160.32 56.31 165.77
  A 1.12 1.11 -9.4 0 0 57.35 166.51
  L 88.68 166.82
  Q 89.37 166.83 89.23 166.14
  C 87.51 157.71 86.68 147.76 98.47 148.96
  C 101.22 149.24 103.84 149.07 106.21 150.96
  Q 106.62 151.28 106.72 151.79
  Q 107.13 153.96 105.15 155.05
  Q 104.75 155.27 104.31 155.23
  Q 99.18 154.81 97.72 154.54
  C 91.48 153.42 94.33 163.03 95.11 166.38
  Q 95.22 166.85 95.70 166.92
  C 101.66 167.80 107.90 166.47 112.84 166.49
  Q 124.21 166.53 135.56 167.16
  C 139.13 167.35 145.58 168.09 148.34 165.56
  C 151.33 162.81 151.27 159.16 149.48 155.55
  Q 143.61 143.75 130.24 140.83
  Q 129.81 140.74 129.93 141.16
  Q 131.69 147.37 131.11 153.81
  C 130.67 158.82 125.00 157.45 125.35 152.97
  Q 125.82 146.89 124.34 140.96
  C 123.65 138.17 121.85 136.95 119.75 135.22
  Q 119.32 134.86 119.03 135.34
  C 116.08 140.43 110.43 140.13 105.55 138.22
  C 98.72 135.54 97.44 125.42 98.11 119.23
  A 2.22 2.22 0.0 0 1 100.31 117.24
  Q 102.22 117.23 103.24 119.00
  Q 103.47 119.41 103.46 119.88
  C 103.29 126.16 104.16 135.36 112.96 133.41
  Q 113.45 133.30 113.73 132.87
  L 115.35 130.28
  Q 115.62 129.85 115.48 129.35
  C 113.28 121.71 113.84 112.19 113.99 104.22
  Q 114.00 103.57 113.36 103.50
  L 110.05 103.11
  A 2.35 2.34 8.1 0 1 108.01 100.40
  C 108.87 95.23 117.90 98.76 121.07 100.34
  Q 121.70 100.65 121.66 99.95
  Q 121.41 95.00 119.27 90.53
  C 117.52 86.86 122.30 83.92 124.74 82.21
  A 0.67 0.67 0.0 0 0 124.69 81.08
  L 118.77 77.61
  A 2.55 2.54 -59.1 0 1 117.89 74.08
  Q 119.58 71.30 120.14 68.18
  Q 120.25 67.53 119.59 67.51
  C 116.53 67.43 113.13 69.95 112.97 64.48
  Q 112.75 57.04 111.05 49.50
  A 0.30 0.30 0.0 0 0 110.47 49.48
  C 109.23 53.48 107.69 59.08 101.92 58.31
  C 92.78 57.09 86.59 58.70 78.58 58.79
  Q 78.09 58.79 77.68 58.52
  C 74.62 56.48 74.52 50.71 73.87 47.27
  A 0.38 0.38 0.0 0 0 73.13 47.27
  L 69.73 63.48
  Q 69.63 63.93 69.85 64.35
  Q 70.79 66.12 69.44 67.44"
/>
<path stroke="#485642" vector-effect="non-scaling-stroke" d="
  M 31.06 121.43
  C 31.36 122.07 33.63 125.09 34.41 125.46
  A 0.35 0.34 -88.0 0 0 34.88 125.02
  C 26.58 103.99 26.73 80.26 42.63 62.91
  Q 43.08 62.42 42.42 62.50
  C 31.53 63.74 27.42 81.31 25.86 89.25
  C 23.67 100.41 26.21 111.41 31.06 121.43"
/>
<path stroke="#485642" vector-effect="non-scaling-stroke" d="
  M 149.87 72.87
  C 147.94 69.90 144.56 65.76 140.71 65.08
  Q 139.71 64.90 140.38 65.65
  C 156.07 83.17 156.88 115.33 148.07 136.35
  A 0.12 0.12 0.0 0 0 148.28 136.47
  C 153.22 130.13 154.90 123.63 156.46 115.15
  C 159.16 100.50 158.17 85.63 149.87 72.87"
/>
<path stroke="#485642" vector-effect="non-scaling-stroke" d="
  M 56.93 71.96
  C 55.26 69.92 51.93 66.28 49.04 65.18
  Q 48.35 64.92 47.86 65.47
  L 45.63 68.00
  Q 45.28 68.40 45.59 68.82
  C 48.97 73.36 51.35 73.27 56.66 72.65
  Q 57.43 72.56 56.93 71.96"
/>
<path stroke="#485642" vector-effect="non-scaling-stroke" d="
  M 135.00 67.80
  C 133.39 66.64 132.43 65.52 130.42 67.00
  Q 126.88 69.60 124.84 73.59
  Q 124.64 74.00 125.00 74.27
  L 128.63 77.04
  Q 129.06 77.37 129.40 76.95
  L 135.28 69.92
  Q 136.28 68.71 135.00 67.80"
/>
<path stroke="#82883e" vector-effect="non-scaling-stroke" d="
  M 41.32 73.54
  Q 34.36 86.83 35.26 100.89
  C 36.04 113.29 40.69 127.48 47.69 138.44
  Q 47.97 138.87 48.47 138.77
  Q 54.32 137.50 57.50 142.37
  Q 57.99 143.13 57.99 142.22
  L 58.03 135.06
  Q 58.03 134.50 57.69 134.06
  C 55.38 131.06 52.71 128.17 51.27 124.82
  C 48.38 118.14 46.45 110.56 48.07 103.29
  Q 48.17 102.82 47.74 102.60
  C 39.12 98.35 39.30 82.47 43.51 75.57
  Q 43.77 75.14 43.41 74.79
  L 42.05 73.43
  Q 41.61 72.98 41.32 73.54"
/>
<path stroke="#82883e" vector-effect="non-scaling-stroke" d="
  M 132.61 124.94
  C 138.21 121.72 142.23 124.56 143.61 130.21
  A 0.30 0.30 0.0 0 0 144.19 130.23
  C 149.39 114.52 148.65 97.99 143.82 82.23
  Q 142.49 77.89 139.79 74.10
  Q 139.47 73.66 139.12 74.07
  L 132.19 82.29
  Q 131.84 82.71 132.03 83.22
  C 136.67 95.67 135.53 112.39 132.12 124.56
  Q 131.90 125.36 132.61 124.94"
/>
<path stroke="#82883e" vector-effect="non-scaling-stroke" d="
  M 120.42 106.38
  Q 119.85 106.32 119.83 106.89
  C 119.58 111.98 118.58 126.77 122.99 130.33
  Q 123.46 130.71 123.78 130.20
  Q 125.20 127.94 126.21 124.47
  Q 131.06 107.78 128.27 88.82
  A 1.08 1.08 0.0 0 0 126.57 88.10
  L 125.50 88.86
  Q 124.99 89.22 125.22 89.80
  C 127.27 94.99 131.17 107.64 120.42 106.38"
/>
<path stroke="#9b9b9d" vector-effect="non-scaling-stroke" d="
  M 86.21 97.74
  A 0.43 0.43 0.0 0 0 86.50 98.43
  L 90.03 98.79
  A 0.43 0.43 0.0 0 0 90.50 98.36
  L 90.50 93.47
  A 0.43 0.43 0.0 0 0 89.73 93.21
  L 86.21 97.74"
/>
<path stroke="#82883e" vector-effect="non-scaling-stroke" d="
  M 63.96 104.75
  L 54.08 103.67
  Q 53.56 103.61 53.45 104.12
  C 51.89 111.09 54.74 119.83 58.29 126.02
  A 0.30 0.30 0.0 0 0 58.84 125.94
  L 64.25 105.17
  Q 64.35 104.79 63.96 104.75"
/>
<path stroke="#82883e" vector-effect="non-scaling-stroke" d="
  M 130.96 134.55
  L 138.44 137.35
  Q 138.97 137.55 138.97 136.98
  Q 138.97 133.19 137.45 129.77
  A 0.90 0.90 0.0 0 0 136.24 129.32
  Q 132.82 130.94 130.82 134.12
  A 0.29 0.29 0.0 0 0 130.96 134.55"
/>
<path stroke="#82883e" vector-effect="non-scaling-stroke" d="
  M 149.71 145.03
  L 154.10 151.33
  Q 154.56 151.99 154.59 151.18
  L 154.78 144.18
  A 0.97 0.97 0.0 0 0 153.74 143.18
  L 148.99 143.49
  Q 148.28 143.53 148.58 144.18
  Q 148.74 144.51 149.14 144.63
  Q 149.49 144.73 149.71 145.03"
/>
<path stroke="#82883e" vector-effect="non-scaling-stroke" d="
  M 51.34 144.01
  A 0.83 0.82 -63.7 0 0 50.11 144.43
  L 48.32 149.50
  Q 48.16 149.97 48.66 150.00
  Q 51.76 150.19 54.48 148.73
  Q 54.95 148.48 54.73 147.99
  Q 53.61 145.51 51.34 144.01"
/>
<path stroke="#82883e" vector-effect="non-scaling-stroke" d="
  M 37.63 152.82
  L 34.59 150.87
  Q 33.77 150.34 33.55 151.30
  L 32.69 154.95
  Q 32.57 155.44 33.05 155.25
  L 37.57 153.43
  A 0.35 0.34 -39.5 0 0 37.63 152.82"
/>
<path stroke="#485642" vector-effect="non-scaling-stroke" d="
  M 49.34 158.42
  C 49.30 157.70 49.68 156.84 49.47 156.03
  Q 49.34 155.54 48.86 155.69
  C 42.82 157.46 35.26 159.68 31.07 163.70
  Q 30.64 164.11 31.23 164.13
  L 49.55 164.97
  Q 50.11 165.00 50.02 164.43
  Q 49.51 161.38 49.34 158.42"
/>
<path stroke="#485642" vector-effect="non-scaling-stroke" d="
  M 92.3593 110.7528
  A 2.72 2.72 0.0 0 0 89.7163 107.9580
  L 75.6218 107.5643
  A 2.72 2.72 0.0 0 0 72.8269 110.2072
  L 72.8207 110.4272
  A 2.72 2.72 0.0 0 0 75.4637 113.2220
  L 89.5582 113.6157
  A 2.72 2.72 0.0 0 0 92.3531 110.9728
  L 92.3593 110.7528"
/>
<path stroke="#485642" vector-effect="non-scaling-stroke" d="
  M 93.5483 120.0605
  A 2.71 2.71 0.0 0 0 90.9102 117.2805
  L 72.6164 116.8014
  A 2.71 2.71 0.0 0 0 69.8364 119.4396
  L 69.8317 119.6195
  A 2.71 2.71 0.0 0 0 72.4698 122.3995
  L 90.7636 122.8786
  A 2.71 2.71 0.0 0 0 93.5436 120.2404
  L 93.5483 120.0605"
/>
<path stroke="#485642" vector-effect="non-scaling-stroke" d="
  M 92.00 132.59
  C 96.34 132.38 96.55 126.69 91.50 126.95
  Q 83.12 127.38 70.76 126.53
  C 66.28 126.23 66.30 131.58 69.75 131.99
  Q 79.70 133.18 92.00 132.59"
/>
<path stroke="#485642" vector-effect="non-scaling-stroke" d="
  M 91.7006 138.7728
  A 2.71 2.71 0.0 0 0 89.0191 136.0346
  L 72.9000 135.8658
  A 2.71 2.71 0.0 0 0 70.1617 138.5472
  L 70.1594 138.7672
  A 2.71 2.71 0.0 0 0 72.8409 141.5054
  L 88.9600 141.6742
  A 2.71 2.71 0.0 0 0 91.6983 138.9928
  L 91.7006 138.7728"
/>
<path stroke="#485642" vector-effect="non-scaling-stroke" d="
  M 85.9586 147.6006
  A 2.54 2.54 0.0 0 0 83.3965 145.0829
  L 77.1567 145.1373
  A 2.54 2.54 0.0 0 0 74.6390 147.6994
  L 74.6414 147.9794
  A 2.54 2.54 0.0 0 0 77.2035 150.4971
  L 83.4433 150.4427
  A 2.54 2.54 0.0 0 0 85.9610 147.8806
  L 85.9586 147.6006"
/>
</g>
<g fill="#587347">
<path d="
  M 69.44 67.44
  Q 70.79 66.12 69.85 64.35
  Q 69.63 63.93 69.73 63.48
  L 73.13 47.27
  A 0.38 0.38 0.0 0 1 73.87 47.27
  C 74.52 50.71 74.62 56.48 77.68 58.52
  Q 78.09 58.79 78.58 58.79
  C 86.59 58.70 92.78 57.09 101.92 58.31
  C 107.69 59.08 109.23 53.48 110.47 49.48
  A 0.30 0.30 0.0 0 1 111.05 49.50
  Q 112.75 57.04 112.97 64.48
  C 113.13 69.95 116.53 67.43 119.59 67.51
  Q 120.25 67.53 120.14 68.18
  Q 119.58 71.30 117.89 74.08
  A 2.55 2.54 -59.1 0 0 118.77 77.61
  L 124.69 81.08
  A 0.67 0.67 0.0 0 1 124.74 82.21
  C 122.30 83.92 117.52 86.86 119.27 90.53
  Q 121.41 95.00 121.66 99.95
  Q 121.70 100.65 121.07 100.34
  C 117.90 98.76 108.87 95.23 108.01 100.40
  A 2.35 2.34 8.1 0 0 110.05 103.11
  L 113.36 103.50
  Q 114.00 103.57 113.99 104.22
  C 113.84 112.19 113.28 121.71 115.48 129.35
  Q 115.62 129.85 115.35 130.28
  L 113.73 132.87
  Q 113.45 133.30 112.96 133.41
  C 104.16 135.36 103.29 126.16 103.46 119.88
  Q 103.47 119.41 103.24 119.00
  Q 102.22 117.23 100.31 117.24
  A 2.22 2.22 0.0 0 0 98.11 119.23
  C 97.44 125.42 98.72 135.54 105.55 138.22
  C 110.43 140.13 116.08 140.43 119.03 135.34
  Q 119.32 134.86 119.75 135.22
  C 121.85 136.95 123.65 138.17 124.34 140.96
  Q 125.82 146.89 125.35 152.97
  C 125.00 157.45 130.67 158.82 131.11 153.81
  Q 131.69 147.37 129.93 141.16
  Q 129.81 140.74 130.24 140.83
  Q 143.61 143.75 149.48 155.55
  C 151.27 159.16 151.33 162.81 148.34 165.56
  C 145.58 168.09 139.13 167.35 135.56 167.16
  Q 124.21 166.53 112.84 166.49
  C 107.90 166.47 101.66 167.80 95.70 166.92
  Q 95.22 166.85 95.11 166.38
  C 94.33 163.03 91.48 153.42 97.72 154.54
  Q 99.18 154.81 104.31 155.23
  Q 104.75 155.27 105.15 155.05
  Q 107.13 153.96 106.72 151.79
  Q 106.62 151.28 106.21 150.96
  C 103.84 149.07 101.22 149.24 98.47 148.96
  C 86.68 147.76 87.51 157.71 89.23 166.14
  Q 89.37 166.83 88.68 166.82
  L 57.35 166.51
  A 1.12 1.11 -9.4 0 1 56.31 165.77
  Q 54.43 160.32 55.77 154.79
  A 1.02 1.01 -84.8 0 1 56.68 154.02
  C 59.41 153.81 64.27 152.96 63.96 149.25
  C 62.66 133.29 65.47 120.22 70.37 104.91
  Q 70.53 104.43 71.03 104.38
  Q 79.70 103.59 88.17 104.16
  C 96.11 104.68 96.01 99.86 95.71 93.26
  C 95.60 90.87 94.03 87.45 91.28 87.10
  C 87.01 86.57 82.20 93.76 80.13 97.56
  Q 79.87 98.03 79.35 98.06
  Q 71.31 98.57 63.36 98.74
  C 59.23 98.82 55.23 97.75 51.04 97.27
  C 44.86 96.55 46.36 84.42 47.18 80.62
  A 2.16 2.15 -85.3 0 1 49.18 78.92
  Q 64.46 78.15 79.68 77.86
  C 83.94 77.78 84.71 72.25 80.11 72.25
  Q 74.50 72.24 68.87 72.32
  C 67.51 72.34 65.08 73.29 63.37 72.41
  Q 62.88 72.17 62.83 71.63
  L 62.50 68.01
  Q 62.45 67.54 62.93 67.55
  C 65.13 67.60 67.60 69.22 69.44 67.44
  Z
  M 92.3593 110.7528
  A 2.72 2.72 0.0 0 0 89.7163 107.9580
  L 75.6218 107.5643
  A 2.72 2.72 0.0 0 0 72.8269 110.2072
  L 72.8207 110.4272
  A 2.72 2.72 0.0 0 0 75.4637 113.2220
  L 89.5582 113.6157
  A 2.72 2.72 0.0 0 0 92.3531 110.9728
  L 92.3593 110.7528
  Z
  M 93.5483 120.0605
  A 2.71 2.71 0.0 0 0 90.9102 117.2805
  L 72.6164 116.8014
  A 2.71 2.71 0.0 0 0 69.8364 119.4396
  L 69.8317 119.6195
  A 2.71 2.71 0.0 0 0 72.4698 122.3995
  L 90.7636 122.8786
  A 2.71 2.71 0.0 0 0 93.5436 120.2404
  L 93.5483 120.0605
  Z
  M 92.00 132.59
  C 96.34 132.38 96.55 126.69 91.50 126.95
  Q 83.12 127.38 70.76 126.53
  C 66.28 126.23 66.30 131.58 69.75 131.99
  Q 79.70 133.18 92.00 132.59
  Z
  M 91.7006 138.7728
  A 2.71 2.71 0.0 0 0 89.0191 136.0346
  L 72.9000 135.8658
  A 2.71 2.71 0.0 0 0 70.1617 138.5472
  L 70.1594 138.7672
  A 2.71 2.71 0.0 0 0 72.8409 141.5054
  L 88.9600 141.6742
  A 2.71 2.71 0.0 0 0 91.6983 138.9928
  L 91.7006 138.7728
  Z
  M 85.9586 147.6006
  A 2.54 2.54 0.0 0 0 83.3965 145.0829
  L 77.1567 145.1373
  A 2.54 2.54 0.0 0 0 74.6390 147.6994
  L 74.6414 147.9794
  A 2.54 2.54 0.0 0 0 77.2035 150.4971
  L 83.4433 150.4427
  A 2.54 2.54 0.0 0 0 85.9610 147.8806
  L 85.9586 147.6006
  Z"
/>
<path d="
  M 34.41 125.46
  C 33.63 125.09 31.36 122.07 31.06 121.43
  C 26.21 111.41 23.67 100.41 25.86 89.25
  C 27.42 81.31 31.53 63.74 42.42 62.50
  Q 43.08 62.42 42.63 62.91
  C 26.73 80.26 26.58 103.99 34.88 125.02
  A 0.35 0.34 -88.0 0 1 34.41 125.46
  Z"
/>
<path d="
  M 140.71 65.08
  C 144.56 65.76 147.94 69.90 149.87 72.87
  C 158.17 85.63 159.16 100.50 156.46 115.15
  C 154.90 123.63 153.22 130.13 148.28 136.47
  A 0.12 0.12 0.0 0 1 148.07 136.35
  C 156.88 115.33 156.07 83.17 140.38 65.65
  Q 139.71 64.90 140.71 65.08
  Z"
/>
<path d="
  M 49.04 65.18
  C 51.93 66.28 55.26 69.92 56.93 71.96
  Q 57.43 72.56 56.66 72.65
  C 51.35 73.27 48.97 73.36 45.59 68.82
  Q 45.28 68.40 45.63 68.00
  L 47.86 65.47
  Q 48.35 64.92 49.04 65.18
  Z"
/>
<path d="
  M 135.00 67.80
  Q 136.28 68.71 135.28 69.92
  L 129.40 76.95
  Q 129.06 77.37 128.63 77.04
  L 125.00 74.27
  Q 124.64 74.00 124.84 73.59
  Q 126.88 69.60 130.42 67.00
  C 132.43 65.52 133.39 66.64 135.00 67.80
  Z"
/>
<path d="
  M 49.34 158.42
  Q 49.51 161.38 50.02 164.43
  Q 50.11 165.00 49.55 164.97
  L 31.23 164.13
  Q 30.64 164.11 31.07 163.70
  C 35.26 159.68 42.82 157.46 48.86 155.69
  Q 49.34 155.54 49.47 156.03
  C 49.68 156.84 49.30 157.70 49.34 158.42
  Z"
/>
</g>
<g fill="#38383c">
<path d="
  M 81.11 53.23
  C 82.53 52.88 83.57 52.28 85.04 52.26
  Q 93.87 52.15 102.96 52.42
  Q 103.51 52.44 103.70 51.93
  C 105.19 47.96 107.11 37.82 112.64 38.58
  Q 113.13 38.65 113.46 39.02
  Q 114.79 40.50 115.30 42.95
  Q 117.71 54.53 118.71 61.62
  Q 118.79 62.13 119.27 61.96
  Q 122.73 60.73 124.38 63.61
  Q 124.68 64.13 125.16 63.76
  C 142.25 50.34 156.76 67.76 161.02 82.75
  Q 165.84 99.71 161.90 117.75
  C 160.18 125.59 158.92 131.10 154.96 137.10
  A 0.49 0.49 0.0 0 0 155.24 137.84
  C 165.75 140.84 157.96 156.63 156.34 162.75
  C 154.57 169.45 150.00 172.98 143.00 172.85
  Q 128.51 172.58 114.01 172.24
  C 109.88 172.14 105.16 173.26 101.00 173.01
  C 88.98 172.28 75.63 173.21 62.52 172.40
  C 53.18 171.82 44.26 170.00 34.60 170.24
  C 29.52 170.37 21.17 168.33 25.54 160.93
  C 26.82 158.76 27.25 154.45 28.06 151.00
  C 30.07 142.39 37.28 145.35 41.86 149.35
  Q 42.31 149.75 42.60 149.22
  Q 45.89 143.25 41.25 139.97
  C 34.42 135.14 27.19 127.50 24.04 119.75
  C 17.02 102.48 18.18 84.32 27.37 68.06
  C 30.24 62.98 34.20 59.00 39.50 57.23
  C 45.62 55.18 51.37 59.48 57.25 63.81
  Q 57.68 64.13 58.02 63.71
  Q 60.30 60.90 63.91 62.01
  A 0.50 0.49 -76.6 0 0 64.55 61.61
  C 65.31 56.71 67.88 38.09 73.93 38.77
  C 78.60 39.30 79.88 49.28 80.43 52.78
  Q 80.52 53.37 81.11 53.23
  Z
  M 69.44 67.44
  C 67.60 69.22 65.13 67.60 62.93 67.55
  Q 62.45 67.54 62.50 68.01
  L 62.83 71.63
  Q 62.88 72.17 63.37 72.41
  C 65.08 73.29 67.51 72.34 68.87 72.32
  Q 74.50 72.24 80.11 72.25
  C 84.71 72.25 83.94 77.78 79.68 77.86
  Q 64.46 78.15 49.18 78.92
  A 2.16 2.15 -85.3 0 0 47.18 80.62
  C 46.36 84.42 44.86 96.55 51.04 97.27
  C 55.23 97.75 59.23 98.82 63.36 98.74
  Q 71.31 98.57 79.35 98.06
  Q 79.87 98.03 80.13 97.56
  C 82.20 93.76 87.01 86.57 91.28 87.10
  C 94.03 87.45 95.60 90.87 95.71 93.26
  C 96.01 99.86 96.11 104.68 88.17 104.16
  Q 79.70 103.59 71.03 104.38
  Q 70.53 104.43 70.37 104.91
  C 65.47 120.22 62.66 133.29 63.96 149.25
  C 64.27 152.96 59.41 153.81 56.68 154.02
  A 1.02 1.01 -84.8 0 0 55.77 154.79
  Q 54.43 160.32 56.31 165.77
  A 1.12 1.11 -9.4 0 0 57.35 166.51
  L 88.68 166.82
  Q 89.37 166.83 89.23 166.14
  C 87.51 157.71 86.68 147.76 98.47 148.96
  C 101.22 149.24 103.84 149.07 106.21 150.96
  Q 106.62 151.28 106.72 151.79
  Q 107.13 153.96 105.15 155.05
  Q 104.75 155.27 104.31 155.23
  Q 99.18 154.81 97.72 154.54
  C 91.48 153.42 94.33 163.03 95.11 166.38
  Q 95.22 166.85 95.70 166.92
  C 101.66 167.80 107.90 166.47 112.84 166.49
  Q 124.21 166.53 135.56 167.16
  C 139.13 167.35 145.58 168.09 148.34 165.56
  C 151.33 162.81 151.27 159.16 149.48 155.55
  Q 143.61 143.75 130.24 140.83
  Q 129.81 140.74 129.93 141.16
  Q 131.69 147.37 131.11 153.81
  C 130.67 158.82 125.00 157.45 125.35 152.97
  Q 125.82 146.89 124.34 140.96
  C 123.65 138.17 121.85 136.95 119.75 135.22
  Q 119.32 134.86 119.03 135.34
  C 116.08 140.43 110.43 140.13 105.55 138.22
  C 98.72 135.54 97.44 125.42 98.11 119.23
  A 2.22 2.22 0.0 0 1 100.31 117.24
  Q 102.22 117.23 103.24 119.00
  Q 103.47 119.41 103.46 119.88
  C 103.29 126.16 104.16 135.36 112.96 133.41
  Q 113.45 133.30 113.73 132.87
  L 115.35 130.28
  Q 115.62 129.85 115.48 129.35
  C 113.28 121.71 113.84 112.19 113.99 104.22
  Q 114.00 103.57 113.36 103.50
  L 110.05 103.11
  A 2.35 2.34 8.1 0 1 108.01 100.40
  C 108.87 95.23 117.90 98.76 121.07 100.34
  Q 121.70 100.65 121.66 99.95
  Q 121.41 95.00 119.27 90.53
  C 117.52 86.86 122.30 83.92 124.74 82.21
  A 0.67 0.67 0.0 0 0 124.69 81.08
  L 118.77 77.61
  A 2.55 2.54 -59.1 0 1 117.89 74.08
  Q 119.58 71.30 120.14 68.18
  Q 120.25 67.53 119.59 67.51
  C 116.53 67.43 113.13 69.95 112.97 64.48
  Q 112.75 57.04 111.05 49.50
  A 0.30 0.30 0.0 0 0 110.47 49.48
  C 109.23 53.48 107.69 59.08 101.92 58.31
  C 92.78 57.09 86.59 58.70 78.58 58.79
  Q 78.09 58.79 77.68 58.52
  C 74.62 56.48 74.52 50.71 73.87 47.27
  A 0.38 0.38 0.0 0 0 73.13 47.27
  L 69.73 63.48
  Q 69.63 63.93 69.85 64.35
  Q 70.79 66.12 69.44 67.44
  Z
  M 31.06 121.43
  C 31.36 122.07 33.63 125.09 34.41 125.46
  A 0.35 0.34 -88.0 0 0 34.88 125.02
  C 26.58 103.99 26.73 80.26 42.63 62.91
  Q 43.08 62.42 42.42 62.50
  C 31.53 63.74 27.42 81.31 25.86 89.25
  C 23.67 100.41 26.21 111.41 31.06 121.43
  Z
  M 149.87 72.87
  C 147.94 69.90 144.56 65.76 140.71 65.08
  Q 139.71 64.90 140.38 65.65
  C 156.07 83.17 156.88 115.33 148.07 136.35
  A 0.12 0.12 0.0 0 0 148.28 136.47
  C 153.22 130.13 154.90 123.63 156.46 115.15
  C 159.16 100.50 158.17 85.63 149.87 72.87
  Z
  M 56.93 71.96
  C 55.26 69.92 51.93 66.28 49.04 65.18
  Q 48.35 64.92 47.86 65.47
  L 45.63 68.00
  Q 45.28 68.40 45.59 68.82
  C 48.97 73.36 51.35 73.27 56.66 72.65
  Q 57.43 72.56 56.93 71.96
  Z
  M 135.00 67.80
  C 133.39 66.64 132.43 65.52 130.42 67.00
  Q 126.88 69.60 124.84 73.59
  Q 124.64 74.00 125.00 74.27
  L 128.63 77.04
  Q 129.06 77.37 129.40 76.95
  L 135.28 69.92
  Q 136.28 68.71 135.00 67.80
  Z
  M 41.32 73.54
  Q 34.36 86.83 35.26 100.89
  C 36.04 113.29 40.69 127.48 47.69 138.44
  Q 47.97 138.87 48.47 138.77
  Q 54.32 137.50 57.50 142.37
  Q 57.99 143.13 57.99 142.22
  L 58.03 135.06
  Q 58.03 134.50 57.69 134.06
  C 55.38 131.06 52.71 128.17 51.27 124.82
  C 48.38 118.14 46.45 110.56 48.07 103.29
  Q 48.17 102.82 47.74 102.60
  C 39.12 98.35 39.30 82.47 43.51 75.57
  Q 43.77 75.14 43.41 74.79
  L 42.05 73.43
  Q 41.61 72.98 41.32 73.54
  Z
  M 132.61 124.94
  C 138.21 121.72 142.23 124.56 143.61 130.21
  A 0.30 0.30 0.0 0 0 144.19 130.23
  C 149.39 114.52 148.65 97.99 143.82 82.23
  Q 142.49 77.89 139.79 74.10
  Q 139.47 73.66 139.12 74.07
  L 132.19 82.29
  Q 131.84 82.71 132.03 83.22
  C 136.67 95.67 135.53 112.39 132.12 124.56
  Q 131.90 125.36 132.61 124.94
  Z
  M 120.42 106.38
  Q 119.85 106.32 119.83 106.89
  C 119.58 111.98 118.58 126.77 122.99 130.33
  Q 123.46 130.71 123.78 130.20
  Q 125.20 127.94 126.21 124.47
  Q 131.06 107.78 128.27 88.82
  A 1.08 1.08 0.0 0 0 126.57 88.10
  L 125.50 88.86
  Q 124.99 89.22 125.22 89.80
  C 127.27 94.99 131.17 107.64 120.42 106.38
  Z
  M 86.21 97.74
  A 0.43 0.43 0.0 0 0 86.50 98.43
  L 90.03 98.79
  A 0.43 0.43 0.0 0 0 90.50 98.36
  L 90.50 93.47
  A 0.43 0.43 0.0 0 0 89.73 93.21
  L 86.21 97.74
  Z
  M 63.96 104.75
  L 54.08 103.67
  Q 53.56 103.61 53.45 104.12
  C 51.89 111.09 54.74 119.83 58.29 126.02
  A 0.30 0.30 0.0 0 0 58.84 125.94
  L 64.25 105.17
  Q 64.35 104.79 63.96 104.75
  Z
  M 130.96 134.55
  L 138.44 137.35
  Q 138.97 137.55 138.97 136.98
  Q 138.97 133.19 137.45 129.77
  A 0.90 0.90 0.0 0 0 136.24 129.32
  Q 132.82 130.94 130.82 134.12
  A 0.29 0.29 0.0 0 0 130.96 134.55
  Z
  M 149.71 145.03
  L 154.10 151.33
  Q 154.56 151.99 154.59 151.18
  L 154.78 144.18
  A 0.97 0.97 0.0 0 0 153.74 143.18
  L 148.99 143.49
  Q 148.28 143.53 148.58 144.18
  Q 148.74 144.51 149.14 144.63
  Q 149.49 144.73 149.71 145.03
  Z
  M 51.34 144.01
  A 0.83 0.82 -63.7 0 0 50.11 144.43
  L 48.32 149.50
  Q 48.16 149.97 48.66 150.00
  Q 51.76 150.19 54.48 148.73
  Q 54.95 148.48 54.73 147.99
  Q 53.61 145.51 51.34 144.01
  Z
  M 37.63 152.82
  L 34.59 150.87
  Q 33.77 150.34 33.55 151.30
  L 32.69 154.95
  Q 32.57 155.44 33.05 155.25
  L 37.57 153.43
  A 0.35 0.34 -39.5 0 0 37.63 152.82
  Z
  M 49.34 158.42
  C 49.30 157.70 49.68 156.84 49.47 156.03
  Q 49.34 155.54 48.86 155.69
  C 42.82 157.46 35.26 159.68 31.07 163.70
  Q 30.64 164.11 31.23 164.13
  L 49.55 164.97
  Q 50.11 165.00 50.02 164.43
  Q 49.51 161.38 49.34 158.42
  Z"
/>
<rect x="-9.77" y="-2.83" transform="translate(82.59,110.59) rotate(1.6)" width="19.54" height="5.66" rx="2.72"/>
<rect x="-11.86" y="-2.80" transform="translate(81.69,119.84) rotate(1.5)" width="23.72" height="5.60" rx="2.71"/>
<path d="
  M 91.50 126.95
  C 96.55 126.69 96.34 132.38 92.00 132.59
  Q 79.70 133.18 69.75 131.99
  C 66.30 131.58 66.28 126.23 70.76 126.53
  Q 83.12 127.38 91.50 126.95
  Z"
/>
<rect x="-10.77" y="-2.82" transform="translate(80.93,138.77) rotate(0.6)" width="21.54" height="5.64" rx="2.71"/>
<rect x="-5.66" y="-2.68" transform="translate(80.30,147.79) rotate(-0.5)" width="11.32" height="5.36" rx="2.54"/>
</g>
<g fill="#ccd73f">
<path d="
  M 41.32 73.54
  Q 41.61 72.98 42.05 73.43
  L 43.41 74.79
  Q 43.77 75.14 43.51 75.57
  C 39.30 82.47 39.12 98.35 47.74 102.60
  Q 48.17 102.82 48.07 103.29
  C 46.45 110.56 48.38 118.14 51.27 124.82
  C 52.71 128.17 55.38 131.06 57.69 134.06
  Q 58.03 134.50 58.03 135.06
  L 57.99 142.22
  Q 57.99 143.13 57.50 142.37
  Q 54.32 137.50 48.47 138.77
  Q 47.97 138.87 47.69 138.44
  C 40.69 127.48 36.04 113.29 35.26 100.89
  Q 34.36 86.83 41.32 73.54
  Z"
/>
<path d="
  M 143.61 130.21
  C 142.23 124.56 138.21 121.72 132.61 124.94
  Q 131.90 125.36 132.12 124.56
  C 135.53 112.39 136.67 95.67 132.03 83.22
  Q 131.84 82.71 132.19 82.29
  L 139.12 74.07
  Q 139.47 73.66 139.79 74.10
  Q 142.49 77.89 143.82 82.23
  C 148.65 97.99 149.39 114.52 144.19 130.23
  A 0.30 0.30 0.0 0 1 143.61 130.21
  Z"
/>
<path d="
  M 120.42 106.38
  C 131.17 107.64 127.27 94.99 125.22 89.80
  Q 124.99 89.22 125.50 88.86
  L 126.57 88.10
  A 1.08 1.08 0.0 0 1 128.27 88.82
  Q 131.06 107.78 126.21 124.47
  Q 125.20 127.94 123.78 130.20
  Q 123.46 130.71 122.99 130.33
  C 118.58 126.77 119.58 111.98 119.83 106.89
  Q 119.85 106.32 120.42 106.38
  Z"
/>
<path d="
  M 54.08 103.67
  L 63.96 104.75
  Q 64.35 104.79 64.25 105.17
  L 58.84 125.94
  A 0.30 0.30 0.0 0 1 58.29 126.02
  C 54.74 119.83 51.89 111.09 53.45 104.12
  Q 53.56 103.61 54.08 103.67
  Z"
/>
<path d="
  M 130.96 134.55
  A 0.29 0.29 0.0 0 1 130.82 134.12
  Q 132.82 130.94 136.24 129.32
  A 0.90 0.90 0.0 0 1 137.45 129.77
  Q 138.97 133.19 138.97 136.98
  Q 138.97 137.55 138.44 137.35
  L 130.96 134.55
  Z"
/>
<path d="
  M 149.14 144.63
  Q 148.74 144.51 148.58 144.18
  Q 148.28 143.53 148.99 143.49
  L 153.74 143.18
  A 0.97 0.97 0.0 0 1 154.78 144.18
  L 154.59 151.18
  Q 154.56 151.99 154.10 151.33
  L 149.71 145.03
  Q 149.49 144.73 149.14 144.63
  Z"
/>
<path d="
  M 51.34 144.01
  Q 53.61 145.51 54.73 147.99
  Q 54.95 148.48 54.48 148.73
  Q 51.76 150.19 48.66 150.00
  Q 48.16 149.97 48.32 149.50
  L 50.11 144.43
  A 0.83 0.82 -63.7 0 1 51.34 144.01
  Z"
/>
<path d="
  M 37.63 152.82
  A 0.35 0.34 -39.5 0 1 37.57 153.43
  L 33.05 155.25
  Q 32.57 155.44 32.69 154.95
  L 33.55 151.30
  Q 33.77 150.34 34.59 150.87
  L 37.63 152.82
  Z"
/>
</g>
<path fill="#fdfdfe" d="
  M 86.21 97.74
  L 89.73 93.21
  A 0.43 0.43 0.0 0 1 90.50 93.47
  L 90.50 98.36
  A 0.43 0.43 0.0 0 1 90.03 98.79
  L 86.50 98.43
  A 0.43 0.43 0.0 0 1 86.21 97.74
  Z"
/>
</svg>
