<?xml version="1.0" encoding="UTF-8" standalone="no"?>
<!DOCTYPE svg PUBLIC "-//W3C//DTD SVG 1.1//EN" "http://www.w3.org/Graphics/SVG/1.1/DTD/svg11.dtd">
<svg xmlns="http://www.w3.org/2000/svg" version="1.1" viewBox="0 0 180 180">
<g stroke-width="2.00" fill="none" stroke-linecap="butt">
<path stroke="#98989a" vector-effect="non-scaling-stroke" d="
  M 45.77 78.98
  L 46.16 80.43
  Q 46.30 80.94 46.81 81.05
  L 47.83 81.29
  Q 48.53 81.45 48.62 80.74
  C 49.02 77.64 52.40 76.11 54.70 74.59
  Q 55.12 74.31 54.85 73.88
  L 51.90 69.34
  Q 51.62 68.92 51.56 68.42
  L 48.77 48.02
  A 0.25 0.25 0.0 0 0 48.28 48.03
  Q 47.26 56.50 46.15 63.79
  C 45.64 67.18 41.19 70.41 39.56 65.95
  C 36.81 58.40 35.55 52.48 32.03 47.32
  Q 31.38 46.36 31.44 47.52
  Q 31.85 55.45 34.26 67.75
  Q 35.09 72.01 36.38 74.36
  Q 36.68 74.91 37.30 75.01
  L 41.19 75.63
  Q 41.67 75.71 42.03 76.05
  Q 43.41 77.38 45.16 78.23
  Q 45.64 78.46 45.77 78.98"
/>
<path stroke="#98989a" vector-effect="non-scaling-stroke" d="
  M 60.67 59.33
  A 0.54 0.54 0.0 0 0 60.96 60.09
  L 65.08 61.60
  A 0.54 0.54 0.0 0 0 65.80 61.17
  L 67.77 48.40
  A 0.54 0.54 0.0 0 0 66.76 48.06
  L 60.67 59.33"
/>
<path stroke="#82883e" vector-effect="non-scaling-stroke" d="
  M 110.71 72.83
  C 108.33 75.79 104.60 74.03 104.90 70.70
  C 105.91 59.55 100.36 51.10 88.74 50.39
  C 74.03 49.48 68.59 65.04 71.07 77.05
  Q 71.15 77.43 71.39 77.12
  C 78.35 67.98 97.39 69.92 99.95 82.06
  C 102.74 95.28 84.10 95.78 76.43 93.23
  A 0.25 0.25 0.0 0 0 76.18 93.65
  C 82.67 99.90 95.20 101.19 101.08 93.05
  C 103.17 90.15 101.85 86.00 107.77 87.08
  Q 108.25 87.17 108.52 87.58
  Q 112.80 93.83 119.92 96.30
  A 0.75 0.75 0.0 0 0 120.91 95.61
  C 120.98 91.89 117.15 88.22 119.14 85.16
  Q 119.39 84.78 119.80 84.58
  L 125.30 81.97
  A 0.62 0.62 0.0 0 0 125.41 80.92
  Q 123.27 79.27 120.72 78.39
  C 115.19 76.49 119.96 69.65 121.27 66.19
  A 0.45 0.45 0.0 0 0 120.69 65.61
  Q 114.72 67.83 110.71 72.83"
/>
<path stroke="#82883e" vector-effect="non-scaling-stroke" d="
  M 65.10 68.08
  Q 61.72 65.52 57.57 65.86
  A 0.75 0.75 0.0 0 0 57.01 67.03
  C 58.27 68.88 62.04 73.98 61.68 76.11
  C 61.30 78.36 56.44 80.00 54.50 81.13
  A 0.33 0.33 0.0 0 0 54.51 81.71
  C 62.03 85.70 61.08 85.39 58.64 92.98
  Q 58.47 93.51 59.03 93.49
  Q 63.61 93.32 66.86 90.13
  Q 67.20 89.79 67.08 89.31
  Q 64.46 79.23 65.41 68.79
  A 0.80 0.80 0.0 0 0 65.10 68.08"
/>
<path stroke="#9b9c47" vector-effect="non-scaling-stroke" d="
  M 93.50 86.47
  C 97.13 79.85 88.00 77.01 83.28 77.09
  C 79.57 77.15 73.39 80.40 74.04 84.94
  Q 74.12 85.50 74.60 85.80
  Q 83.35 91.27 92.86 87.06
  Q 93.28 86.87 93.50 86.47"
/>
<path stroke="#543d3e" vector-effect="non-scaling-stroke" d="
  M 49.35 105.37
  C 49.80 121.23 49.65 135.56 50.49 150.65
  C 50.78 156.03 50.30 161.78 51.20 167.04
  Q 51.29 167.53 51.78 167.48
  C 52.57 167.41 51.25 96.48 50.88 87.43
  Q 50.85 86.75 50.18 86.75
  L 49.82 86.75
  Q 49.25 86.75 49.25 87.32
  Q 49.10 96.35 49.35 105.37"
/>
<path stroke="#82883e" vector-effect="non-scaling-stroke" d="
  M 106.77 95.20
  C 98.47 106.75 81.33 108.18 71.96 97.01
  Q 71.58 96.57 71.31 97.08
  Q 70.08 99.36 69.81 101.34
  Q 67.64 117.29 68.16 135.42
  Q 68.18 136.07 68.83 136.10
  L 91.87 137.17
  Q 92.37 137.19 92.30 136.70
  C 90.94 127.12 98.92 125.69 105.46 122.65
  Q 105.95 122.42 105.99 121.88
  C 106.11 120.17 105.21 118.14 105.63 116.75
  C 106.25 114.70 109.54 114.51 110.41 116.59
  Q 112.02 120.37 111.02 124.47
  C 109.53 130.62 99.02 128.33 97.90 133.69
  A 1.78 1.78 0.0 0 0 99.27 135.79
  Q 110.61 138.19 121.27 133.62
  Q 121.77 133.40 121.77 132.87
  C 121.78 123.60 120.89 110.04 116.56 101.70
  Q 116.31 101.21 115.81 100.99
  Q 111.05 98.83 107.40 95.15
  Q 107.06 94.81 106.77 95.20"
/>
<path stroke="#82883e" vector-effect="non-scaling-stroke" d="
  M 60.88 134.67
  Q 61.30 134.89 61.78 134.74
  Q 62.24 134.59 62.25 134.10
  L 62.26 128.21
  Q 62.26 127.58 61.64 127.69
  L 58.31 128.29
  Q 57.75 128.38 57.75 128.95
  L 57.75 133.75
  Q 57.75 134.50 58.50 134.50
  L 60.16 134.50
  Q 60.54 134.50 60.88 134.67"
/>
<path stroke="#485642" vector-effect="non-scaling-stroke" d="
  M 121.30 141.88
  C 106.77 143.40 93.86 142.73 80.10 142.53
  C 76.98 142.49 72.55 141.84 68.71 142.03
  Q 68.18 142.06 68.16 142.59
  C 67.88 150.12 67.49 157.11 68.53 164.58
  Q 68.72 165.99 70.14 165.98
  L 84.38 165.93
  Q 85.06 165.92 85.16 165.26
  C 85.91 160.31 83.88 153.24 89.08 150.05
  C 94.63 146.65 101.80 148.00 105.24 153.66
  C 107.35 157.14 106.53 160.92 107.00 164.54
  A 1.20 1.19 86.7 0 0 108.17 165.59
  L 121.31 165.73
  Q 121.98 165.73 122.04 165.06
  Q 122.77 155.81 122.22 146.56
  C 122.16 145.55 122.47 143.78 122.00 142.34
  Q 121.84 141.82 121.30 141.88"
/>
<path stroke="#9b9c47" vector-effect="non-scaling-stroke" d="
  M 87.8323 82.2099
  A 2.50 2.50 0.0 0 0 85.1003 79.9658
  L 80.8805 80.3796
  A 2.50 2.50 0.0 0 0 78.6364 83.1116
  L 78.6677 83.4301
  A 2.50 2.50 0.0 0 0 81.3997 85.6742
  L 85.6195 85.2604
  A 2.50 2.50 0.0 0 0 87.8636 82.5284
  L 87.8323 82.2099"
/>
</g>
<g fill="#38383c">
<path d="
  M 41.52 54.93
  A 0.27 0.26 -52.3 0 0 42.04 54.86
  Q 42.28 47.83 44.28 41.28
  C 46.02 35.56 51.99 38.71 53.03 43.24
  Q 54.53 49.76 55.73 56.33
  Q 55.86 57.06 56.13 56.37
  C 57.48 52.89 66.42 33.73 72.01 42.02
  Q 74.32 45.44 72.93 49.89
  A 0.39 0.39 0.0 0 0 73.56 50.30
  C 87.58 38.35 108.13 46.06 110.66 64.32
  Q 110.75 64.91 111.22 64.55
  C 114.52 62.06 122.54 57.26 125.69 61.23
  C 128.16 64.35 126.15 70.03 124.28 73.05
  Q 123.96 73.56 124.49 73.84
  C 132.13 77.88 134.47 83.20 125.62 88.08
  Q 125.15 88.35 125.29 88.86
  C 126.28 92.40 128.96 99.46 123.49 101.40
  Q 122.95 101.60 123.13 102.14
  C 127.41 115.23 127.70 128.61 127.94 142.83
  C 128.03 148.55 128.87 159.53 127.75 167.01
  C 126.77 173.56 110.74 171.73 106.75 170.98
  C 96.52 169.05 105.94 150.52 92.91 154.24
  A 2.51 2.50 -9.9 0 0 91.11 156.79
  C 91.33 160.26 91.84 165.83 90.21 168.58
  C 87.58 173.02 77.48 171.77 71.76 171.70
  Q 66.53 171.63 63.66 167.88
  Q 63.35 167.47 63.32 166.96
  C 63.16 164.44 62.20 162.12 62.23 159.73
  Q 62.35 150.49 62.57 141.26
  Q 62.58 140.66 61.99 140.60
  L 58.33 140.22
  Q 57.69 140.15 57.70 140.79
  C 57.81 150.22 58.77 160.46 57.52 169.75
  Q 57.45 170.25 57.10 170.61
  C 53.59 174.20 46.00 174.26 45.55 167.62
  C 43.72 140.86 43.73 113.94 43.66 87.13
  Q 43.66 86.66 43.26 86.43
  Q 41.75 85.54 41.62 83.78
  Q 41.58 83.31 41.22 83.01
  C 39.92 81.96 39.13 81.23 37.33 80.98
  C 32.52 80.30 29.89 75.41 28.93 71.02
  Q 27.24 63.31 25.86 50.18
  Q 25.41 45.94 27.31 43.29
  C 34.35 33.53 40.32 50.69 41.52 54.93
  Z
  M 45.77 78.98
  L 46.16 80.43
  Q 46.30 80.94 46.81 81.05
  L 47.83 81.29
  Q 48.53 81.45 48.62 80.74
  C 49.02 77.64 52.40 76.11 54.70 74.59
  Q 55.12 74.31 54.85 73.88
  L 51.90 69.34
  Q 51.62 68.92 51.56 68.42
  L 48.77 48.02
  A 0.25 0.25 0.0 0 0 48.28 48.03
  Q 47.26 56.50 46.15 63.79
  C 45.64 67.18 41.19 70.41 39.56 65.95
  C 36.81 58.40 35.55 52.48 32.03 47.32
  Q 31.38 46.36 31.44 47.52
  Q 31.85 55.45 34.26 67.75
  Q 35.09 72.01 36.38 74.36
  Q 36.68 74.91 37.30 75.01
  L 41.19 75.63
  Q 41.67 75.71 42.03 76.05
  Q 43.41 77.38 45.16 78.23
  Q 45.64 78.46 45.77 78.98
  Z
  M 60.67 59.33
  A 0.54 0.54 0.0 0 0 60.96 60.09
  L 65.08 61.60
  A 0.54 0.54 0.0 0 0 65.80 61.17
  L 67.77 48.40
  A 0.54 0.54 0.0 0 0 66.76 48.06
  L 60.67 59.33
  Z
  M 110.71 72.83
  C 108.33 75.79 104.60 74.03 104.90 70.70
  C 105.91 59.55 100.36 51.10 88.74 50.39
  C 74.03 49.48 68.59 65.04 71.07 77.05
  Q 71.15 77.43 71.39 77.12
  C 78.35 67.98 97.39 69.92 99.95 82.06
  C 102.74 95.28 84.10 95.78 76.43 93.23
  A 0.25 0.25 0.0 0 0 76.18 93.65
  C 82.67 99.90 95.20 101.19 101.08 93.05
  C 103.17 90.15 101.85 86.00 107.77 87.08
  Q 108.25 87.17 108.52 87.58
  Q 112.80 93.83 119.92 96.30
  A 0.75 0.75 0.0 0 0 120.91 95.61
  C 120.98 91.89 117.15 88.22 119.14 85.16
  Q 119.39 84.78 119.80 84.58
  L 125.30 81.97
  A 0.62 0.62 0.0 0 0 125.41 80.92
  Q 123.27 79.27 120.72 78.39
  C 115.19 76.49 119.96 69.65 121.27 66.19
  A 0.45 0.45 0.0 0 0 120.69 65.61
  Q 114.72 67.83 110.71 72.83
  Z
  M 65.10 68.08
  Q 61.72 65.52 57.57 65.86
  A 0.75 0.75 0.0 0 0 57.01 67.03
  C 58.27 68.88 62.04 73.98 61.68 76.11
  C 61.30 78.36 56.44 80.00 54.50 81.13
  A 0.33 0.33 0.0 0 0 54.51 81.71
  C 62.03 85.70 61.08 85.39 58.64 92.98
  Q 58.47 93.51 59.03 93.49
  Q 63.61 93.32 66.86 90.13
  Q 67.20 89.79 67.08 89.31
  Q 64.46 79.23 65.41 68.79
  A 0.80 0.80 0.0 0 0 65.10 68.08
  Z
  M 93.50 86.47
  C 97.13 79.85 88.00 77.01 83.28 77.09
  C 79.57 77.15 73.39 80.40 74.04 84.94
  Q 74.12 85.50 74.60 85.80
  Q 83.35 91.27 92.86 87.06
  Q 93.28 86.87 93.50 86.47
  Z
  M 49.35 105.37
  C 49.80 121.23 49.65 135.56 50.49 150.65
  C 50.78 156.03 50.30 161.78 51.20 167.04
  Q 51.29 167.53 51.78 167.48
  C 52.57 167.41 51.25 96.48 50.88 87.43
  Q 50.85 86.75 50.18 86.75
  L 49.82 86.75
  Q 49.25 86.75 49.25 87.32
  Q 49.10 96.35 49.35 105.37
  Z
  M 106.77 95.20
  C 98.47 106.75 81.33 108.18 71.96 97.01
  Q 71.58 96.57 71.31 97.08
  Q 70.08 99.36 69.81 101.34
  Q 67.64 117.29 68.16 135.42
  Q 68.18 136.07 68.83 136.10
  L 91.87 137.17
  Q 92.37 137.19 92.30 136.70
  C 90.94 127.12 98.92 125.69 105.46 122.65
  Q 105.95 122.42 105.99 121.88
  C 106.11 120.17 105.21 118.14 105.63 116.75
  C 106.25 114.70 109.54 114.51 110.41 116.59
  Q 112.02 120.37 111.02 124.47
  C 109.53 130.62 99.02 128.33 97.90 133.69
  A 1.78 1.78 0.0 0 0 99.27 135.79
  Q 110.61 138.19 121.27 133.62
  Q 121.77 133.40 121.77 132.87
  C 121.78 123.60 120.89 110.04 116.56 101.70
  Q 116.31 101.21 115.81 100.99
  Q 111.05 98.83 107.40 95.15
  Q 107.06 94.81 106.77 95.20
  Z
  M 57.00 121.75
  Q 56.96 121.89 56.98 122.07
  Q 57.03 122.54 57.50 122.50
  L 62.18 122.16
  Q 62.72 122.12 62.72 121.58
  Q 62.61 110.14 64.52 98.86
  Q 64.60 98.39 64.13 98.46
  L 57.16 99.47
  Q 56.76 99.53 56.77 99.93
  L 57.22 121.00
  Q 57.22 121.04 57.00 121.75
  Z
  M 60.88 134.67
  Q 61.30 134.89 61.78 134.74
  Q 62.24 134.59 62.25 134.10
  L 62.26 128.21
  Q 62.26 127.58 61.64 127.69
  L 58.31 128.29
  Q 57.75 128.38 57.75 128.95
  L 57.75 133.75
  Q 57.75 134.50 58.50 134.50
  L 60.16 134.50
  Q 60.54 134.50 60.88 134.67
  Z
  M 121.30 141.88
  C 106.77 143.40 93.86 142.73 80.10 142.53
  C 76.98 142.49 72.55 141.84 68.71 142.03
  Q 68.18 142.06 68.16 142.59
  C 67.88 150.12 67.49 157.11 68.53 164.58
  Q 68.72 165.99 70.14 165.98
  L 84.38 165.93
  Q 85.06 165.92 85.16 165.26
  C 85.91 160.31 83.88 153.24 89.08 150.05
  C 94.63 146.65 101.80 148.00 105.24 153.66
  C 107.35 157.14 106.53 160.92 107.00 164.54
  A 1.20 1.19 86.7 0 0 108.17 165.59
  L 121.31 165.73
  Q 121.98 165.73 122.04 165.06
  Q 122.77 155.81 122.22 146.56
  C 122.16 145.55 122.47 143.78 122.00 142.34
  Q 121.84 141.82 121.30 141.88
  Z"
/>
<rect x="-4.62" y="-2.66" transform="translate(83.25,82.82) rotate(-5.6)" width="9.24" height="5.32" rx="2.50"/>
</g>
<g fill="#ccd73f">
<path d="
  M 104.90 70.70
  C 104.60 74.03 108.33 75.79 110.71 72.83
  Q 114.72 67.83 120.69 65.61
  A 0.45 0.45 0.0 0 1 121.27 66.19
  C 119.96 69.65 115.19 76.49 120.72 78.39
  Q 123.27 79.27 125.41 80.92
  A 0.62 0.62 0.0 0 1 125.30 81.97
  L 119.80 84.58
  Q 119.39 84.78 119.14 85.16
  C 117.15 88.22 120.98 91.89 120.91 95.61
  A 0.75 0.75 0.0 0 1 119.92 96.30
  Q 112.80 93.83 108.52 87.58
  Q 108.25 87.17 107.77 87.08
  C 101.85 86.00 103.17 90.15 101.08 93.05
  C 95.20 101.19 82.67 99.90 76.18 93.65
  A 0.25 0.25 0.0 0 1 76.43 93.23
  C 84.10 95.78 102.74 95.28 99.95 82.06
  C 97.39 69.92 78.35 67.98 71.39 77.12
  Q 71.15 77.43 71.07 77.05
  C 68.59 65.04 74.03 49.48 88.74 50.39
  C 100.36 51.10 105.91 59.55 104.90 70.70
  Z"
/>
<path d="
  M 65.10 68.08
  A 0.80 0.80 0.0 0 1 65.41 68.79
  Q 64.46 79.23 67.08 89.31
  Q 67.20 89.79 66.86 90.13
  Q 63.61 93.32 59.03 93.49
  Q 58.47 93.51 58.64 92.98
  C 61.08 85.39 62.03 85.70 54.51 81.71
  A 0.33 0.33 0.0 0 1 54.50 81.13
  C 56.44 80.00 61.30 78.36 61.68 76.11
  C 62.04 73.98 58.27 68.88 57.01 67.03
  A 0.75 0.75 0.0 0 1 57.57 65.86
  Q 61.72 65.52 65.10 68.08
  Z"
/>
<path d="
  M 71.96 97.01
  C 81.33 108.18 98.47 106.75 106.77 95.20
  Q 107.06 94.81 107.40 95.15
  Q 111.05 98.83 115.81 100.99
  Q 116.31 101.21 116.56 101.70
  C 120.89 110.04 121.78 123.60 121.77 132.87
  Q 121.77 133.40 121.27 133.62
  Q 110.61 138.19 99.27 135.79
  A 1.78 1.78 0.0 0 1 97.90 133.69
  C 99.02 128.33 109.53 130.62 111.02 124.47
  Q 112.02 120.37 110.41 116.59
  C 109.54 114.51 106.25 114.70 105.63 116.75
  C 105.21 118.14 106.11 120.17 105.99 121.88
  Q 105.95 122.42 105.46 122.65
  C 98.92 125.69 90.94 127.12 92.30 136.70
  Q 92.37 137.19 91.87 137.17
  L 68.83 136.10
  Q 68.18 136.07 68.16 135.42
  Q 67.64 117.29 69.81 101.34
  Q 70.08 99.36 71.31 97.08
  Q 71.58 96.57 71.96 97.01
  Z"
/>
<path d="
  M 60.16 134.50
  L 58.50 134.50
  Q 57.75 134.50 57.75 133.75
  L 57.75 128.95
  Q 57.75 128.38 58.31 128.29
  L 61.64 127.69
  Q 62.26 127.58 62.26 128.21
  L 62.25 134.10
  Q 62.24 134.59 61.78 134.74
  Q 61.30 134.89 60.88 134.67
  Q 60.54 134.50 60.16 134.50
  Z"
/>
</g>
<path fill="#587347" d="
  M 80.10 142.53
  C 93.86 142.73 106.77 143.40 121.30 141.88
  Q 121.84 141.82 122.00 142.34
  C 122.47 143.78 122.16 145.55 122.22 146.56
  Q 122.77 155.81 122.04 165.06
  Q 121.98 165.73 121.31 165.73
  L 108.17 165.59
  A 1.20 1.19 86.7 0 1 107.00 164.54
  C 106.53 160.92 107.35 157.14 105.24 153.66
  C 101.80 148.00 94.63 146.65 89.08 150.05
  C 83.88 153.24 85.91 160.31 85.16 165.26
  Q 85.06 165.92 84.38 165.93
  L 70.14 165.98
  Q 68.72 165.99 68.53 164.58
  C 67.49 157.11 67.88 150.12 68.16 142.59
  Q 68.18 142.06 68.71 142.03
  C 72.55 141.84 76.98 142.49 80.10 142.53
  Z"
/>
<g fill="#f8f8f8">
<path d="
  M 45.16 78.23
  Q 43.41 77.38 42.03 76.05
  Q 41.67 75.71 41.19 75.63
  L 37.30 75.01
  Q 36.68 74.91 36.38 74.36
  Q 35.09 72.01 34.26 67.75
  Q 31.85 55.45 31.44 47.52
  Q 31.38 46.36 32.03 47.32
  C 35.55 52.48 36.81 58.40 39.56 65.95
  C 41.19 70.41 45.64 67.18 46.15 63.79
  Q 47.26 56.50 48.28 48.03
  A 0.25 0.25 0.0 0 1 48.77 48.02
  L 51.56 68.42
  Q 51.62 68.92 51.90 69.34
  L 54.85 73.88
  Q 55.12 74.31 54.70 74.59
  C 52.40 76.11 49.02 77.64 48.62 80.74
  Q 48.53 81.45 47.83 81.29
  L 46.81 81.05
  Q 46.30 80.94 46.16 80.43
  L 45.77 78.98
  Q 45.64 78.46 45.16 78.23
  Z"
/>
<path d="
  M 60.67 59.33
  L 66.76 48.06
  A 0.54 0.54 0.0 0 1 67.77 48.40
  L 65.80 61.17
  A 0.54 0.54 0.0 0 1 65.08 61.60
  L 60.96 60.09
  A 0.54 0.54 0.0 0 1 60.67 59.33
  Z"
/>
</g>
<path fill="#70423f" d="
  M 49.35 105.37
  Q 49.10 96.35 49.25 87.32
  Q 49.25 86.75 49.82 86.75
  L 50.18 86.75
  Q 50.85 86.75 50.88 87.43
  C 51.25 96.48 52.57 167.41 51.78 167.48
  Q 51.29 167.53 51.20 167.04
  C 50.30 161.78 50.78 156.03 50.49 150.65
  C 49.65 135.56 49.80 121.23 49.35 105.37
  Z"
/>
<path fill="#feff52" d="
  M 83.28 77.09
  C 88.00 77.01 97.13 79.85 93.50 86.47
  Q 93.28 86.87 92.86 87.06
  Q 83.35 91.27 74.60 85.80
  Q 74.12 85.50 74.04 84.94
  C 73.39 80.40 79.57 77.15 83.28 77.09
  Z
  M 87.8323 82.2099
  A 2.50 2.50 0.0 0 0 85.1003 79.9658
  L 80.8805 80.3796
  A 2.50 2.50 0.0 0 0 78.6364 83.1116
  L 78.6677 83.4301
  A 2.50 2.50 0.0 0 0 81.3997 85.6742
  L 85.6195 85.2604
  A 2.50 2.50 0.0 0 0 87.8636 82.5284
  L 87.8323 82.2099
  Z"
/>
</svg>
