<?xml version="1.0" encoding="UTF-8" standalone="no"?>
<!DOCTYPE svg PUBLIC "-//W3C//DTD SVG 1.1//EN" "http://www.w3.org/Graphics/SVG/1.1/DTD/svg11.dtd">
<svg xmlns="http://www.w3.org/2000/svg" version="1.1" viewBox="0 0 180 180">
<g stroke-width="2.00" fill="none" stroke-linecap="butt">
<path stroke="#98989a" vector-effect="non-scaling-stroke" d="
  M 106.81 42.69
  Q 96.50 34.45 84.40 39.68
  C 66.74 47.31 66.08 70.48 64.86 86.62
  Q 62.83 113.44 63.95 140.33
  C 64.24 147.33 65.88 152.22 73.12 153.45
  Q 73.60 153.53 74.03 153.33
  C 80.65 150.31 82.11 146.44 85.47 141.29
  C 90.59 133.45 97.58 127.81 106.88 134.79
  C 110.15 137.24 112.80 141.81 116.79 144.80
  A 0.44 0.44 0.0 0 0 117.44 144.66
  Q 118.68 142.37 118.79 139.75
  Q 119.97 110.79 119.01 81.82
  C 118.66 71.11 115.84 49.90 106.81 42.69"
/>
<path stroke="#98989a" vector-effect="non-scaling-stroke" d="
  M 51.32 121.90
  L 57.24 122.83
  Q 57.99 122.95 57.99 122.19
  L 58.00 116.29
  Q 58.01 115.56 57.27 115.60
  Q 52.96 115.85 50.28 119.23
  A 1.66 1.66 0.0 0 0 51.32 121.90"
/>
<path stroke="#98989a" vector-effect="non-scaling-stroke" d="
  M 95.90 75.32
  A 2.87 2.83 58.1 0 0 94.61 75.01
  Q 84.01 74.98 73.08 75.02
  C 70.26 75.03 68.72 76.84 70.52 79.44
  A 1.45 1.45 0.0 0 0 71.65 80.06
  Q 81.74 80.41 91.75 80.20
  C 93.49 80.16 96.27 81.76 97.79 79.51
  C 98.95 77.78 97.42 76.10 95.90 75.32"
/>
<path stroke="#98989a" vector-effect="non-scaling-stroke" d="
  M 109.69 123.52
  C 106.49 123.72 97.91 125.43 96.75 121.31
  Q 96.63 120.86 96.82 120.44
  C 99.29 115.00 107.35 118.62 107.23 113.65
  A 2.21 2.21 0.0 0 0 105.22 111.49
  C 89.17 109.98 85.25 129.54 102.75 129.65
  C 105.21 129.67 110.99 129.59 111.84 126.06
  A 2.07 2.06 4.9 0 0 109.69 123.52"
/>
</g>
<g fill="#f8f8f8">
<path d="
  M 106.81 42.69
  C 115.84 49.90 118.66 71.11 119.01 81.82
  Q 119.97 110.79 118.79 139.75
  Q 118.68 142.37 117.44 144.66
  A 0.44 0.44 0.0 0 1 116.79 144.80
  C 112.80 141.81 110.15 137.24 106.88 134.79
  C 97.58 127.81 90.59 133.45 85.47 141.29
  C 82.11 146.44 80.65 150.31 74.03 153.33
  Q 73.60 153.53 73.12 153.45
  C 65.88 152.22 64.24 147.33 63.95 140.33
  Q 62.83 113.44 64.86 86.62
  C 66.08 70.48 66.74 47.31 84.40 39.68
  Q 96.50 34.45 106.81 42.69
  Z
  M 95.90 75.32
  A 2.87 2.83 58.1 0 0 94.61 75.01
  Q 84.01 74.98 73.08 75.02
  C 70.26 75.03 68.72 76.84 70.52 79.44
  A 1.45 1.45 0.0 0 0 71.65 80.06
  Q 81.74 80.41 91.75 80.20
  C 93.49 80.16 96.27 81.76 97.79 79.51
  C 98.95 77.78 97.42 76.10 95.90 75.32
  Z
  M 109.69 123.52
  C 106.49 123.72 97.91 125.43 96.75 121.31
  Q 96.63 120.86 96.82 120.44
  C 99.29 115.00 107.35 118.62 107.23 113.65
  A 2.21 2.21 0.0 0 0 105.22 111.49
  C 89.17 109.98 85.25 129.54 102.75 129.65
  C 105.21 129.67 110.99 129.59 111.84 126.06
  A 2.07 2.06 4.9 0 0 109.69 123.52
  Z"
/>
<path d="
  M 51.32 121.90
  A 1.66 1.66 0.0 0 1 50.28 119.23
  Q 52.96 115.85 57.27 115.60
  Q 58.01 115.56 58.00 116.29
  L 57.99 122.19
  Q 57.99 122.95 57.24 122.83
  L 51.32 121.90
  Z"
/>
</g>
<g fill="#38383c">
<path d="
  M 57.91 109.46
  Q 58.68 91.79 60.19 74.19
  C 61.34 60.94 64.82 47.54 75.37 38.81
  C 87.47 28.78 106.87 29.64 115.32 44.14
  C 125.39 61.43 125.12 82.07 125.20 101.37
  Q 125.30 121.55 124.41 141.72
  C 124.34 143.40 123.52 144.29 123.09 145.89
  Q 121.54 151.66 115.69 150.09
  Q 115.15 149.94 114.77 150.35
  C 112.13 153.22 110.03 155.62 106.23 158.25
  C 99.59 162.85 91.96 156.04 86.73 150.93
  Q 86.32 150.53 85.96 150.97
  Q 82.53 155.11 78.08 157.75
  C 72.69 160.95 65.70 157.49 62.04 153.22
  C 57.53 147.96 58.03 135.49 57.96 128.93
  Q 57.95 128.38 57.40 128.35
  Q 51.13 127.97 49.45 127.11
  C 37.33 120.91 48.87 110.24 57.41 109.95
  Q 57.89 109.93 57.91 109.46
  Z
  M 106.81 42.69
  Q 96.50 34.45 84.40 39.68
  C 66.74 47.31 66.08 70.48 64.86 86.62
  Q 62.83 113.44 63.95 140.33
  C 64.24 147.33 65.88 152.22 73.12 153.45
  Q 73.60 153.53 74.03 153.33
  C 80.65 150.31 82.11 146.44 85.47 141.29
  C 90.59 133.45 97.58 127.81 106.88 134.79
  C 110.15 137.24 112.80 141.81 116.79 144.80
  A 0.44 0.44 0.0 0 0 117.44 144.66
  Q 118.68 142.37 118.79 139.75
  Q 119.97 110.79 119.01 81.82
  C 118.66 71.11 115.84 49.90 106.81 42.69
  Z
  M 51.32 121.90
  L 57.24 122.83
  Q 57.99 122.95 57.99 122.19
  L 58.00 116.29
  Q 58.01 115.56 57.27 115.60
  Q 52.96 115.85 50.28 119.23
  A 1.66 1.66 0.0 0 0 51.32 121.90
  Z"
/>
<path d="
  M 95.90 75.32
  C 97.42 76.10 98.95 77.78 97.79 79.51
  C 96.27 81.76 93.49 80.16 91.75 80.20
  Q 81.74 80.41 71.65 80.06
  A 1.45 1.45 0.0 0 1 70.52 79.44
  C 68.72 76.84 70.26 75.03 73.08 75.02
  Q 84.01 74.98 94.61 75.01
  A 2.87 2.83 58.1 0 1 95.90 75.32
  Z"
/>
<path d="
  M 109.69 123.52
  A 2.07 2.06 4.9 0 1 111.84 126.06
  C 110.99 129.59 105.21 129.67 102.75 129.65
  C 85.25 129.54 89.17 109.98 105.22 111.49
  A 2.21 2.21 0.0 0 1 107.23 113.65
  C 107.35 118.62 99.29 115.00 96.82 120.44
  Q 96.63 120.86 96.75 121.31
  C 97.91 125.43 106.49 123.72 109.69 123.52
  Z"
/>
</g>
</svg>
