<?xml version="1.0" encoding="UTF-8" standalone="no"?>
<!DOCTYPE svg PUBLIC "-//W3C//DTD SVG 1.1//EN" "http://www.w3.org/Graphics/SVG/1.1/DTD/svg11.dtd">
<svg xmlns="http://www.w3.org/2000/svg" version="1.1" viewBox="0 0 180 180">
<g stroke-width="2.00" fill="none" stroke-linecap="butt">
<path stroke="#82883e" vector-effect="non-scaling-stroke" d="
  M 96.90 112.35
  C 93.61 111.71 87.48 113.14 86.60 108.87
  C 85.82 105.11 93.12 96.18 96.73 95.28
  C 101.55 94.07 103.01 100.40 102.86 103.97
  Q 102.84 104.49 103.34 104.34
  Q 104.85 103.89 105.78 102.54
  Q 106.08 102.10 106.57 101.88
  C 114.79 98.11 121.29 95.44 126.95 89.77
  Q 127.38 89.33 126.77 89.30
  C 121.08 89.06 114.99 89.72 109.63 91.67
  Q 106.45 92.83 103.97 90.07
  Q 103.63 89.68 103.68 89.17
  C 104.53 81.05 103.06 73.53 95.78 69.50
  C 88.42 65.43 78.94 66.59 73.79 73.75
  C 68.72 80.80 69.67 87.48 69.78 95.79
  Q 69.79 96.30 70.15 96.67
  C 73.32 99.98 79.73 106.98 76.45 110.64
  Q 76.08 111.05 76.42 111.48
  C 80.96 117.35 91.53 116.28 97.02 113.06
  Q 97.91 112.54 96.90 112.35"
/>
<path stroke="#98989a" vector-effect="non-scaling-stroke" d="
  M 51.39 82.47
  C 47.74 80.45 42.49 78.62 38.54 77.90
  Q 37.45 77.70 37.33 78.80
  C 36.51 86.38 35.61 97.24 38.59 104.05
  Q 38.79 104.51 39.30 104.48
  Q 45.01 104.15 50.39 102.23
  C 54.73 100.69 55.80 103.63 57.15 106.83
  Q 57.33 107.25 57.79 107.25
  L 60.80 107.25
  Q 61.35 107.25 61.31 106.70
  L 61.09 103.22
  Q 61.05 102.64 60.58 102.31
  Q 53.87 97.69 52.13 94.86
  C 50.37 91.99 47.86 84.97 51.39 83.02
  Q 51.90 82.75 51.39 82.47"
/>
<path stroke="#82883e" vector-effect="non-scaling-stroke" d="
  M 63.79 88.71
  L 55.97 87.58
  Q 55.41 87.50 55.50 88.06
  C 56.16 92.40 59.17 93.58 61.54 96.18
  A 1.53 1.52 24.3 0 0 64.19 95.18
  L 64.28 89.28
  Q 64.29 88.78 63.79 88.71"
/>
<path stroke="#98989a" vector-effect="non-scaling-stroke" d="
  M 66.50 106.44
  A 0.36 0.36 0.0 0 0 66.90 106.80
  L 70.61 106.42
  A 0.36 0.36 0.0 0 0 70.86 105.84
  L 67.14 101.08
  A 0.36 0.36 0.0 0 0 66.50 101.30
  L 66.50 106.44"
/>
<path stroke="#98989a" vector-effect="non-scaling-stroke" d="
  M 93.14 105.73
  A 0.43 0.43 0.0 0 0 93.43 106.42
  L 97.02 106.84
  A 0.43 0.43 0.0 0 0 97.50 106.42
  L 97.50 101.48
  A 0.43 0.43 0.0 0 0 96.73 101.21
  L 93.14 105.73"
/>
<path stroke="#82883e" vector-effect="non-scaling-stroke" d="
  M 84.56 121.44
  Q 82.25 121.20 77.26 119.43
  Q 76.91 119.31 76.90 119.68
  L 76.75 136.08
  A 0.40 0.40 0.0 0 0 77.14 136.49
  L 95.29 136.82
  Q 95.90 136.83 96.30 136.36
  Q 99.79 132.20 105.13 131.16
  Q 106.38 130.92 106.12 129.68
  Q 105.46 126.51 106.92 125.33
  C 108.00 124.45 110.04 124.91 110.68 126.08
  C 115.33 134.57 107.69 135.74 102.14 138.41
  A 1.30 1.30 0.0 0 0 102.22 140.79
  Q 111.76 144.66 119.44 138.07
  Q 119.83 137.74 119.78 137.24
  Q 118.81 126.74 116.59 116.44
  C 115.80 112.78 110.76 99.81 106.01 111.30
  C 102.78 119.11 92.29 122.23 84.56 121.44"
/>
<path stroke="#533d3e" vector-effect="non-scaling-stroke" d="
  M 59.74 113.87
  L 60.52 152.80
  A 0.65 0.65 0.0 0 0 61.60 153.27
  C 62.87 152.12 62.42 118.17 62.42 113.66
  Q 62.42 113.05 61.81 113.03
  L 60.64 112.99
  A 0.86 0.86 0.0 0 0 59.74 113.87"
/>
<path stroke="#82883e" vector-effect="non-scaling-stroke" d="
  M 70.9664 136.3205
  A 0.76 0.76 0.0 0 0 70.2011 135.5658
  L 68.9811 135.5743
  A 0.76 0.76 0.0 0 0 68.2264 136.3396
  L 68.2536 140.2395
  A 0.76 0.76 0.0 0 0 69.0189 140.9942
  L 70.2389 140.9857
  A 0.76 0.76 0.0 0 0 70.9936 140.2204
  L 70.9664 136.3205"
/>
<path stroke="#533d3e" vector-effect="non-scaling-stroke" d="
  M 96.97 143.37
  Q 96.63 142.39 95.76 142.42
  Q 86.59 142.79 77.42 142.09
  Q 76.73 142.04 76.74 142.73
  L 76.77 144.96
  Q 76.77 145.46 77.27 145.44
  L 97.79 144.69
  Q 98.07 144.68 97.98 144.42
  Q 97.91 144.20 97.60 144.06
  Q 97.14 143.85 96.97 143.37"
/>
<path stroke="#533d3e" vector-effect="non-scaling-stroke" d="
  M 89.39 164.92
  C 89.84 146.37 109.01 151.02 106.62 165.59
  A 0.71 0.71 0.0 0 0 107.30 166.42
  L 119.24 166.67
  A 0.99 0.98 0.6 0 0 120.25 165.69
  L 120.25 152.06
  Q 120.25 151.45 119.64 151.42
  Q 98.40 150.33 77.15 151.27
  Q 76.50 151.30 76.50 151.96
  L 76.50 164.99
  A 0.56 0.56 0.0 0 0 77.04 165.55
  L 88.16 166.06
  A 1.17 1.17 0.0 0 0 89.39 164.92"
/>
<path stroke="#82883e" vector-effect="non-scaling-stroke" d="
  M 84.0525 92.4284
  A 2.60 2.60 0.0 0 0 81.4120 89.8696
  L 81.2120 89.8727
  A 2.60 2.60 0.0 0 0 78.6532 92.5133
  L 78.8675 106.1516
  A 2.60 2.60 0.0 0 0 81.5080 108.7104
  L 81.7080 108.7073
  A 2.60 2.60 0.0 0 0 84.2668 106.0667
  L 84.0525 92.4284"
/>
</g>
<g fill="#38383c">
<path d="
  M 110.36 85.22
  C 112.87 84.71 140.07 79.92 135.26 88.59
  C 131.71 95.00 123.20 100.59 116.60 103.27
  A 0.29 0.29 0.0 0 0 116.49 103.73
  Q 121.01 109.08 122.31 116.03
  Q 127.15 141.90 125.60 168.18
  C 125.25 174.12 110.53 172.33 106.81 171.88
  C 97.21 170.70 104.36 158.28 97.76 158.37
  A 2.16 2.16 0.0 0 0 95.65 160.29
  C 95.17 164.77 95.23 171.40 89.32 171.64
  Q 82.88 171.90 76.50 171.14
  C 72.22 170.63 71.04 167.90 70.88 163.79
  Q 70.58 155.60 71.16 147.41
  Q 71.20 146.78 70.57 146.77
  L 68.99 146.74
  Q 68.32 146.73 68.29 147.40
  C 68.10 152.34 69.08 157.96 63.28 158.71
  C 55.31 159.73 54.60 154.56 54.50 148.02
  C 54.30 133.57 53.68 122.75 54.73 112.64
  Q 54.78 112.18 54.41 111.88
  Q 52.64 110.48 51.93 108.32
  Q 51.74 107.76 51.19 107.94
  C 47.48 109.12 35.59 112.05 33.68 107.23
  C 29.99 97.93 30.80 85.52 32.66 76.19
  Q 33.14 73.80 34.41 72.90
  C 38.29 70.14 51.80 76.24 55.92 78.40
  Q 60.05 80.55 64.94 79.57
  Q 65.42 79.47 65.63 79.03
  C 66.66 76.84 67.16 74.36 68.41 72.46
  C 81.21 52.97 109.76 61.28 109.76 84.73
  Q 109.76 85.35 110.36 85.22
  Z
  M 96.90 112.35
  C 93.61 111.71 87.48 113.14 86.60 108.87
  C 85.82 105.11 93.12 96.18 96.73 95.28
  C 101.55 94.07 103.01 100.40 102.86 103.97
  Q 102.84 104.49 103.34 104.34
  Q 104.85 103.89 105.78 102.54
  Q 106.08 102.10 106.57 101.88
  C 114.79 98.11 121.29 95.44 126.95 89.77
  Q 127.38 89.33 126.77 89.30
  C 121.08 89.06 114.99 89.72 109.63 91.67
  Q 106.45 92.83 103.97 90.07
  Q 103.63 89.68 103.68 89.17
  C 104.53 81.05 103.06 73.53 95.78 69.50
  C 88.42 65.43 78.94 66.59 73.79 73.75
  C 68.72 80.80 69.67 87.48 69.78 95.79
  Q 69.79 96.30 70.15 96.67
  C 73.32 99.98 79.73 106.98 76.45 110.64
  Q 76.08 111.05 76.42 111.48
  C 80.96 117.35 91.53 116.28 97.02 113.06
  Q 97.91 112.54 96.90 112.35
  Z
  M 51.39 82.47
  C 47.74 80.45 42.49 78.62 38.54 77.90
  Q 37.45 77.70 37.33 78.80
  C 36.51 86.38 35.61 97.24 38.59 104.05
  Q 38.79 104.51 39.30 104.48
  Q 45.01 104.15 50.39 102.23
  C 54.73 100.69 55.80 103.63 57.15 106.83
  Q 57.33 107.25 57.79 107.25
  L 60.80 107.25
  Q 61.35 107.25 61.31 106.70
  L 61.09 103.22
  Q 61.05 102.64 60.58 102.31
  Q 53.87 97.69 52.13 94.86
  C 50.37 91.99 47.86 84.97 51.39 83.02
  Q 51.90 82.75 51.39 82.47
  Z
  M 63.79 88.71
  L 55.97 87.58
  Q 55.41 87.50 55.50 88.06
  C 56.16 92.40 59.17 93.58 61.54 96.18
  A 1.53 1.52 24.3 0 0 64.19 95.18
  L 64.28 89.28
  Q 64.29 88.78 63.79 88.71
  Z
  M 66.50 106.44
  A 0.36 0.36 0.0 0 0 66.90 106.80
  L 70.61 106.42
  A 0.36 0.36 0.0 0 0 70.86 105.84
  L 67.14 101.08
  A 0.36 0.36 0.0 0 0 66.50 101.30
  L 66.50 106.44
  Z
  M 93.14 105.73
  A 0.43 0.43 0.0 0 0 93.43 106.42
  L 97.02 106.84
  A 0.43 0.43 0.0 0 0 97.50 106.42
  L 97.50 101.48
  A 0.43 0.43 0.0 0 0 96.73 101.21
  L 93.14 105.73
  Z
  M 84.56 121.44
  Q 82.25 121.20 77.26 119.43
  Q 76.91 119.31 76.90 119.68
  L 76.75 136.08
  A 0.40 0.40 0.0 0 0 77.14 136.49
  L 95.29 136.82
  Q 95.90 136.83 96.30 136.36
  Q 99.79 132.20 105.13 131.16
  Q 106.38 130.92 106.12 129.68
  Q 105.46 126.51 106.92 125.33
  C 108.00 124.45 110.04 124.91 110.68 126.08
  C 115.33 134.57 107.69 135.74 102.14 138.41
  A 1.30 1.30 0.0 0 0 102.22 140.79
  Q 111.76 144.66 119.44 138.07
  Q 119.83 137.74 119.78 137.24
  Q 118.81 126.74 116.59 116.44
  C 115.80 112.78 110.76 99.81 106.01 111.30
  C 102.78 119.11 92.29 122.23 84.56 121.44
  Z
  M 69.21 112.31
  A 0.77 0.77 0.0 0 0 67.97 112.94
  L 68.24 129.09
  Q 68.24 129.42 68.54 129.55
  C 70.79 130.55 71.36 129.58 71.30 127.45
  Q 71.12 121.38 71.13 115.46
  C 71.13 113.88 70.36 113.17 69.21 112.31
  Z
  M 59.74 113.87
  L 60.52 152.80
  A 0.65 0.65 0.0 0 0 61.60 153.27
  C 62.87 152.12 62.42 118.17 62.42 113.66
  Q 62.42 113.05 61.81 113.03
  L 60.64 112.99
  A 0.86 0.86 0.0 0 0 59.74 113.87
  Z
  M 70.9664 136.3205
  A 0.76 0.76 0.0 0 0 70.2011 135.5658
  L 68.9811 135.5743
  A 0.76 0.76 0.0 0 0 68.2264 136.3396
  L 68.2536 140.2395
  A 0.76 0.76 0.0 0 0 69.0189 140.9942
  L 70.2389 140.9857
  A 0.76 0.76 0.0 0 0 70.9936 140.2204
  L 70.9664 136.3205
  Z
  M 96.97 143.37
  Q 96.63 142.39 95.76 142.42
  Q 86.59 142.79 77.42 142.09
  Q 76.73 142.04 76.74 142.73
  L 76.77 144.96
  Q 76.77 145.46 77.27 145.44
  L 97.79 144.69
  Q 98.07 144.68 97.98 144.42
  Q 97.91 144.20 97.60 144.06
  Q 97.14 143.85 96.97 143.37
  Z
  M 89.39 164.92
  C 89.84 146.37 109.01 151.02 106.62 165.59
  A 0.71 0.71 0.0 0 0 107.30 166.42
  L 119.24 166.67
  A 0.99 0.98 0.6 0 0 120.25 165.69
  L 120.25 152.06
  Q 120.25 151.45 119.64 151.42
  Q 98.40 150.33 77.15 151.27
  Q 76.50 151.30 76.50 151.96
  L 76.50 164.99
  A 0.56 0.56 0.0 0 0 77.04 165.55
  L 88.16 166.06
  A 1.17 1.17 0.0 0 0 89.39 164.92
  Z"
/>
<rect x="-2.70" y="-9.42" transform="translate(81.46,99.29) rotate(-0.9)" width="5.40" height="18.84" rx="2.60"/>
</g>
<g fill="#ccd73f">
<path d="
  M 86.60 108.87
  C 87.48 113.14 93.61 111.71 96.90 112.35
  Q 97.91 112.54 97.02 113.06
  C 91.53 116.28 80.96 117.35 76.42 111.48
  Q 76.08 111.05 76.45 110.64
  C 79.73 106.98 73.32 99.98 70.15 96.67
  Q 69.79 96.30 69.78 95.79
  C 69.67 87.48 68.72 80.80 73.79 73.75
  C 78.94 66.59 88.42 65.43 95.78 69.50
  C 103.06 73.53 104.53 81.05 103.68 89.17
  Q 103.63 89.68 103.97 90.07
  Q 106.45 92.83 109.63 91.67
  C 114.99 89.72 121.08 89.06 126.77 89.30
  Q 127.38 89.33 126.95 89.77
  C 121.29 95.44 114.79 98.11 106.57 101.88
  Q 106.08 102.10 105.78 102.54
  Q 104.85 103.89 103.34 104.34
  Q 102.84 104.49 102.86 103.97
  C 103.01 100.40 101.55 94.07 96.73 95.28
  C 93.12 96.18 85.82 105.11 86.60 108.87
  Z
  M 84.0525 92.4284
  A 2.60 2.60 0.0 0 0 81.4120 89.8696
  L 81.2120 89.8727
  A 2.60 2.60 0.0 0 0 78.6532 92.5133
  L 78.8675 106.1516
  A 2.60 2.60 0.0 0 0 81.5080 108.7104
  L 81.7080 108.7073
  A 2.60 2.60 0.0 0 0 84.2668 106.0667
  L 84.0525 92.4284
  Z"
/>
<path d="
  M 55.97 87.58
  L 63.79 88.71
  Q 64.29 88.78 64.28 89.28
  L 64.19 95.18
  A 1.53 1.52 24.3 0 1 61.54 96.18
  C 59.17 93.58 56.16 92.40 55.50 88.06
  Q 55.41 87.50 55.97 87.58
  Z"
/>
<path d="
  M 84.56 121.44
  C 92.29 122.23 102.78 119.11 106.01 111.30
  C 110.76 99.81 115.80 112.78 116.59 116.44
  Q 118.81 126.74 119.78 137.24
  Q 119.83 137.74 119.44 138.07
  Q 111.76 144.66 102.22 140.79
  A 1.30 1.30 0.0 0 1 102.14 138.41
  C 107.69 135.74 115.33 134.57 110.68 126.08
  C 110.04 124.91 108.00 124.45 106.92 125.33
  Q 105.46 126.51 106.12 129.68
  Q 106.38 130.92 105.13 131.16
  Q 99.79 132.20 96.30 136.36
  Q 95.90 136.83 95.29 136.82
  L 77.14 136.49
  A 0.40 0.40 0.0 0 1 76.75 136.08
  L 76.90 119.68
  Q 76.91 119.31 77.26 119.43
  Q 82.25 121.20 84.56 121.44
  Z"
/>
<rect x="-1.37" y="-2.71" transform="translate(69.61,138.28) rotate(-0.4)" width="2.74" height="5.42" rx="0.76"/>
</g>
<g fill="#f8f8f8">
<path d="
  M 38.54 77.90
  C 42.49 78.62 47.74 80.45 51.39 82.47
  Q 51.90 82.75 51.39 83.02
  C 47.86 84.97 50.37 91.99 52.13 94.86
  Q 53.87 97.69 60.58 102.31
  Q 61.05 102.64 61.09 103.22
  L 61.31 106.70
  Q 61.35 107.25 60.80 107.25
  L 57.79 107.25
  Q 57.33 107.25 57.15 106.83
  C 55.80 103.63 54.73 100.69 50.39 102.23
  Q 45.01 104.15 39.30 104.48
  Q 38.79 104.51 38.59 104.05
  C 35.61 97.24 36.51 86.38 37.33 78.80
  Q 37.45 77.70 38.54 77.90
  Z"
/>
<path d="
  M 66.50 106.44
  L 66.50 101.30
  A 0.36 0.36 0.0 0 1 67.14 101.08
  L 70.86 105.84
  A 0.36 0.36 0.0 0 1 70.61 106.42
  L 66.90 106.80
  A 0.36 0.36 0.0 0 1 66.50 106.44
  Z"
/>
<path d="
  M 93.14 105.73
  L 96.73 101.21
  A 0.43 0.43 0.0 0 1 97.50 101.48
  L 97.50 106.42
  A 0.43 0.43 0.0 0 1 97.02 106.84
  L 93.43 106.42
  A 0.43 0.43 0.0 0 1 93.14 105.73
  Z"
/>
</g>
<g fill="#6e423f">
<path d="
  M 59.74 113.87
  A 0.86 0.86 0.0 0 1 60.64 112.99
  L 61.81 113.03
  Q 62.42 113.05 62.42 113.66
  C 62.42 118.17 62.87 152.12 61.60 153.27
  A 0.65 0.65 0.0 0 1 60.52 152.80
  L 59.74 113.87
  Z"
/>
<path d="
  M 97.60 144.06
  Q 97.91 144.20 97.98 144.42
  Q 98.07 144.68 97.79 144.69
  L 77.27 145.44
  Q 76.77 145.46 76.77 144.96
  L 76.74 142.73
  Q 76.73 142.04 77.42 142.09
  Q 86.59 142.79 95.76 142.42
  Q 96.63 142.39 96.97 143.37
  Q 97.14 143.85 97.60 144.06
  Z"
/>
<path d="
  M 106.62 165.59
  C 109.01 151.02 89.84 146.37 89.39 164.92
  A 1.17 1.17 0.0 0 1 88.16 166.06
  L 77.04 165.55
  A 0.56 0.56 0.0 0 1 76.50 164.99
  L 76.50 151.96
  Q 76.50 151.30 77.15 151.27
  Q 98.40 150.33 119.64 151.42
  Q 120.25 151.45 120.25 152.06
  L 120.25 165.69
  A 0.99 0.98 0.6 0 1 119.24 166.67
  L 107.30 166.42
  A 0.71 0.71 0.0 0 1 106.62 165.59
  Z"
/>
</g>
</svg>
