<?xml version="1.0" encoding="UTF-8" standalone="no"?>
<!DOCTYPE svg PUBLIC "-//W3C//DTD SVG 1.1//EN" "http://www.w3.org/Graphics/SVG/1.1/DTD/svg11.dtd">
<svg xmlns="http://www.w3.org/2000/svg" version="1.1" viewBox="0 0 180 180">
<g stroke-width="2.00" fill="none" stroke-linecap="butt">
<path stroke="#576461" vector-effect="non-scaling-stroke" d="
  M 62.32 95.05
  C 59.65 100.60 54.40 109.43 47.12 103.82
  Q 46.65 103.46 46.17 103.81
  Q 43.19 105.98 43.57 109.78
  Q 43.63 110.32 43.26 110.71
  C 39.20 115.05 34.08 120.49 28.40 118.89
  Q 27.88 118.74 27.62 119.22
  L 25.07 123.99
  Q 24.73 124.63 25.32 125.05
  L 27.77 126.79
  Q 28.17 127.07 28.39 127.50
  Q 29.58 129.75 27.29 131.13
  Q 26.83 131.41 26.64 131.93
  Q 25.43 135.23 25.39 138.73
  C 25.34 143.20 28.63 146.85 22.75 149.77
  Q 22.19 150.05 22.44 150.62
  L 24.73 155.94
  Q 24.93 156.42 25.43 156.54
  C 28.13 157.23 29.37 156.09 30.82 159.20
  Q 31.61 160.88 35.01 166.73
  Q 35.26 167.16 35.75 167.16
  L 54.00 167.12
  Q 54.48 167.12 54.11 166.81
  Q 46.54 160.47 42.39 151.55
  Q 42.15 151.03 41.63 150.80
  L 40.91 150.47
  Q 40.35 150.21 40.33 149.60
  C 40.20 145.73 38.98 142.00 38.94 138.42
  C 38.84 128.81 44.96 119.68 53.00 114.60
  C 63.60 107.90 70.10 101.17 72.53 88.34
  C 74.05 80.34 69.12 74.25 63.69 69.19
  A 0.77 0.77 0.0 0 0 62.41 69.87
  C 62.79 72.34 64.64 74.52 64.03 76.87
  C 62.95 81.06 56.95 81.31 59.14 86.23
  Q 59.35 86.69 59.79 86.91
  Q 64.98 89.53 62.32 95.05"
/>
<path stroke="#576461" vector-effect="non-scaling-stroke" d="
  M 37.72 107.93
  C 32.76 103.73 32.53 103.54 34.48 97.16
  Q 34.63 96.68 34.30 96.29
  L 31.42 92.90
  Q 31.06 92.48 30.55 92.67
  C 22.86 95.61 21.19 88.35 21.21 82.72
  Q 21.22 80.95 20.70 82.65
  C 18.97 88.24 17.49 94.85 19.32 100.42
  Q 22.14 109.06 30.82 113.49
  Q 31.31 113.74 31.74 113.39
  L 37.71 108.56
  Q 38.10 108.25 37.72 107.93"
/>
<path stroke="#576461" vector-effect="non-scaling-stroke" d="
  M 102.29 132.86
  C 105.21 128.68 108.82 127.15 113.80 128.02
  Q 114.32 128.11 114.02 127.68
  C 105.06 114.77 120.78 106.30 129.47 115.74
  Q 133.82 120.46 129.92 127.39
  Q 129.67 127.83 129.89 128.29
  C 132.34 133.52 130.80 136.39 129.58 141.52
  Q 129.46 142.02 129.84 142.36
  L 135.14 147.19
  Q 135.46 147.47 135.58 147.06
  C 139.24 135.06 138.36 119.58 135.00 107.94
  Q 134.85 107.40 134.31 107.55
  C 121.62 111.07 116.90 96.97 127.76 92.28
  Q 128.33 92.04 128.00 91.51
  L 126.49 89.07
  Q 126.16 88.54 125.56 88.71
  C 120.34 90.21 114.08 95.53 109.56 98.74
  Q 109.10 99.06 109.41 99.52
  C 115.40 108.60 103.63 121.78 94.96 113.22
  Q 94.64 112.90 94.32 113.23
  Q 81.83 126.20 78.50 143.58
  C 77.29 149.89 78.10 156.87 78.75 163.42
  A 1.12 1.11 66.1 0 0 80.61 164.14
  L 84.85 160.32
  Q 85.34 159.87 84.96 159.33
  C 81.57 154.58 81.60 148.29 86.89 145.10
  Q 87.33 144.84 87.42 144.34
  Q 88.54 137.90 91.85 134.81
  C 94.98 131.89 97.65 132.78 101.44 133.24
  Q 101.98 133.31 102.29 132.86"
/>
<path stroke="#576461" vector-effect="non-scaling-stroke" d="
  M 156.31 106.44
  C 150.11 103.88 150.14 98.43 152.00 92.86
  Q 152.49 91.38 151.39 92.49
  Q 146.06 97.90 147.64 105.15
  C 148.15 107.49 150.24 109.58 151.75 111.49
  C 162.30 124.91 157.23 142.52 141.66 148.98
  Q 141.15 149.19 140.97 149.72
  L 139.40 154.35
  Q 139.25 154.79 139.44 155.21
  L 143.36 163.96
  Q 143.70 164.72 144.28 164.12
  L 146.84 161.47
  Q 147.29 161.01 147.10 160.40
  C 146.49 158.46 146.75 156.76 148.24 155.15
  Q 152.56 150.45 155.04 144.56
  C 156.08 142.10 157.77 141.42 160.20 142.40
  Q 160.94 142.71 161.25 141.96
  L 163.52 136.34
  Q 163.74 135.78 163.38 135.30
  L 161.00 132.19
  Q 160.66 131.73 160.78 131.17
  Q 162.20 124.86 160.97 118.53
  C 160.55 116.41 161.14 115.07 162.41 113.52
  Q 162.74 113.12 162.53 112.64
  L 159.74 106.32
  Q 159.48 105.74 158.89 105.98
  Q 157.05 106.74 156.31 106.44"
/>
<path stroke="#3d504e" vector-effect="non-scaling-stroke" d="
  M 127.90 101.80
  Q 130.01 103.04 132.20 102.05
  Q 132.80 101.78 132.55 101.17
  L 130.81 96.97
  Q 130.59 96.43 130.07 96.71
  Q 127.77 97.96 127.29 100.46
  A 1.27 1.27 0.0 0 0 127.90 101.80"
/>
<path stroke="#3d504e" vector-effect="non-scaling-stroke" d="
  M 99.07 109.71
  C 104.25 112.26 106.78 104.49 104.75 103.20
  Q 104.20 102.85 103.72 103.30
  L 98.81 107.95
  A 1.09 1.08 -53.5 0 0 99.07 109.71"
/>
<path stroke="#3d504e" vector-effect="non-scaling-stroke" d="
  M 125.06 124.06
  C 128.85 119.25 120.27 114.43 116.85 119.61
  Q 116.53 120.10 116.78 120.64
  L 118.40 124.19
  Q 118.68 124.79 119.34 124.74
  L 124.38 124.42
  Q 124.80 124.39 125.06 124.06"
/>
<path stroke="#576461" vector-effect="non-scaling-stroke" d="
  M 59.14 121.57
  L 56.48 119.67
  Q 55.91 119.26 55.39 119.73
  L 49.58 124.90
  Q 48.97 125.44 49.71 125.78
  C 59.00 130.02 64.87 137.64 71.48 146.81
  Q 71.82 147.29 71.94 146.71
  L 73.86 136.80
  Q 73.97 136.27 73.74 135.77
  Q 73.37 134.97 73.49 134.06
  Q 73.57 133.51 73.04 133.31
  Q 66.68 130.90 69.23 124.31
  Q 69.46 123.72 68.97 123.31
  L 65.50 120.47
  Q 65.12 120.16 64.65 120.32
  L 60.36 121.75
  Q 59.71 121.97 59.14 121.57"
/>
<path stroke="#98989a" vector-effect="non-scaling-stroke" d="
  M 117.51 134.49
  Q 114.87 135.85 113.02 133.63
  A 2.34 2.33 -34.0 0 0 110.11 133.07
  Q 106.70 134.90 105.38 138.40
  Q 105.20 138.88 104.81 139.21
  C 102.41 141.26 99.65 138.28 97.15 137.85
  Q 96.57 137.75 96.17 138.17
  Q 94.16 140.27 93.20 142.96
  C 92.15 145.92 93.81 149.37 88.92 150.35
  Q 88.38 150.46 88.23 150.98
  Q 87.59 153.12 88.67 155.07
  Q 88.95 155.57 89.36 155.17
  C 95.39 149.26 115.71 134.53 123.94 138.55
  Q 124.43 138.79 124.66 138.30
  C 128.06 131.26 122.00 125.98 118.25 133.73
  Q 118.00 134.23 117.51 134.49"
/>
<path stroke="#98989a" vector-effect="non-scaling-stroke" d="
  M 60.54 150.89
  Q 57.55 149.75 57.39 146.45
  Q 57.36 145.79 56.71 145.90
  Q 54.68 146.24 53.34 147.87
  Q 53.05 148.23 52.58 148.26
  C 49.65 148.51 49.88 146.58 48.52 144.86
  Q 48.21 144.46 47.73 144.60
  Q 45.78 145.16 46.54 146.96
  C 48.55 151.79 64.40 155.23 68.82 156.02
  Q 69.60 156.16 69.33 155.41
  Q 68.07 151.94 65.62 149.22
  Q 65.27 148.82 64.80 149.08
  L 61.63 150.81
  Q 61.10 151.10 60.54 150.89"
/>
</g>
<path fill="#38383c" d="
  M 27.82 87.75
  L 30.86 86.85
  Q 31.32 86.72 31.77 86.86
  C 34.89 87.85 36.15 90.04 38.04 92.23
  C 40.46 95.02 41.09 97.56 39.03 100.66
  C 38.69 101.16 38.61 101.69 38.98 102.14
  Q 39.46 102.73 39.97 102.15
  C 43.35 98.34 46.61 95.66 51.30 99.74
  Q 51.73 100.11 52.18 99.78
  Q 55.96 97.07 56.76 92.44
  Q 56.83 92.07 56.58 91.79
  Q 48.73 82.92 58.15 75.80
  Q 58.57 75.48 58.31 75.02
  C 56.13 71.23 56.72 64.94 61.36 63.16
  C 64.48 61.97 69.22 66.27 71.05 68.44
  C 79.21 78.13 80.13 81.79 76.95 93.74
  Q 73.69 106.00 63.87 113.96
  Q 63.20 114.50 64.06 114.50
  L 65.77 114.50
  Q 66.31 114.50 66.77 114.81
  C 70.76 117.57 77.57 121.47 73.79 126.19
  Q 73.50 126.56 73.55 127.02
  Q 73.78 128.83 75.43 129.46
  A 0.84 0.84 0.0 0 0 76.47 129.07
  C 86.82 109.72 101.13 96.04 119.99 85.02
  C 122.38 83.62 126.93 80.97 129.20 83.77
  C 141.84 99.33 145.65 122.47 142.87 141.78
  Q 142.76 142.56 143.39 142.08
  C 152.93 134.83 154.23 124.30 147.15 114.76
  Q 143.37 109.66 143.09 109.08
  C 140.07 102.65 142.08 93.54 147.49 88.75
  C 150.82 85.81 156.87 85.70 157.68 90.75
  C 158.05 93.07 156.74 96.17 156.08 98.69
  A 1.80 1.79 0.1 0 0 158.27 100.88
  Q 161.71 99.99 163.84 103.36
  C 166.12 106.97 170.48 114.02 166.50 117.05
  Q 166.06 117.39 166.19 117.93
  Q 167.58 123.93 166.69 130.04
  Q 166.62 130.56 166.98 130.95
  C 171.83 136.23 166.49 147.88 159.59 148.35
  Q 159.14 148.39 158.97 148.81
  Q 156.89 154.06 152.90 158.08
  Q 152.50 158.49 152.65 159.04
  C 153.78 163.23 150.88 165.21 148.49 167.68
  C 144.94 171.35 140.71 172.50 135.75 172.40
  Q 105.30 171.81 90.75 172.27
  Q 79.12 172.64 71.33 172.56
  C 64.03 172.49 57.08 173.17 49.95 172.88
  Q 41.97 172.56 36.25 173.08
  C 30.48 173.60 28.74 166.84 26.51 162.62
  Q 26.26 162.16 25.73 162.17
  C 19.04 162.35 13.31 148.40 20.18 144.82
  Q 20.67 144.56 20.53 144.03
  Q 18.69 136.83 21.72 130.07
  Q 21.93 129.61 21.60 129.23
  C 17.64 124.80 19.99 120.42 23.12 116.53
  A 0.75 0.74 -49.6 0 0 23.04 115.51
  C 10.17 103.99 10.05 84.72 20.86 72.10
  C 22.22 70.51 24.43 69.96 26.06 71.64
  C 29.28 74.97 25.87 82.52 27.20 87.40
  Q 27.33 87.89 27.82 87.75
  Z
  M 62.32 95.05
  C 59.65 100.60 54.40 109.43 47.12 103.82
  Q 46.65 103.46 46.17 103.81
  Q 43.19 105.98 43.57 109.78
  Q 43.63 110.32 43.26 110.71
  C 39.20 115.05 34.08 120.49 28.40 118.89
  Q 27.88 118.74 27.62 119.22
  L 25.07 123.99
  Q 24.73 124.63 25.32 125.05
  L 27.77 126.79
  Q 28.17 127.07 28.39 127.50
  Q 29.58 129.75 27.29 131.13
  Q 26.83 131.41 26.64 131.93
  Q 25.43 135.23 25.39 138.73
  C 25.34 143.20 28.63 146.85 22.75 149.77
  Q 22.19 150.05 22.44 150.62
  L 24.73 155.94
  Q 24.93 156.42 25.43 156.54
  C 28.13 157.23 29.37 156.09 30.82 159.20
  Q 31.61 160.88 35.01 166.73
  Q 35.26 167.16 35.75 167.16
  L 54.00 167.12
  Q 54.48 167.12 54.11 166.81
  Q 46.54 160.47 42.39 151.55
  Q 42.15 151.03 41.63 150.80
  L 40.91 150.47
  Q 40.35 150.21 40.33 149.60
  C 40.20 145.73 38.98 142.00 38.94 138.42
  C 38.84 128.81 44.96 119.68 53.00 114.60
  C 63.60 107.90 70.10 101.17 72.53 88.34
  C 74.05 80.34 69.12 74.25 63.69 69.19
  A 0.77 0.77 0.0 0 0 62.41 69.87
  C 62.79 72.34 64.64 74.52 64.03 76.87
  C 62.95 81.06 56.95 81.31 59.14 86.23
  Q 59.35 86.69 59.79 86.91
  Q 64.98 89.53 62.32 95.05
  Z
  M 37.72 107.93
  C 32.76 103.73 32.53 103.54 34.48 97.16
  Q 34.63 96.68 34.30 96.29
  L 31.42 92.90
  Q 31.06 92.48 30.55 92.67
  C 22.86 95.61 21.19 88.35 21.21 82.72
  Q 21.22 80.95 20.70 82.65
  C 18.97 88.24 17.49 94.85 19.32 100.42
  Q 22.14 109.06 30.82 113.49
  Q 31.31 113.74 31.74 113.39
  L 37.71 108.56
  Q 38.10 108.25 37.72 107.93
  Z
  M 102.29 132.86
  C 105.21 128.68 108.82 127.15 113.80 128.02
  Q 114.32 128.11 114.02 127.68
  C 105.06 114.77 120.78 106.30 129.47 115.74
  Q 133.82 120.46 129.92 127.39
  Q 129.67 127.83 129.89 128.29
  C 132.34 133.52 130.80 136.39 129.58 141.52
  Q 129.46 142.02 129.84 142.36
  L 135.14 147.19
  Q 135.46 147.47 135.58 147.06
  C 139.24 135.06 138.36 119.58 135.00 107.94
  Q 134.85 107.40 134.31 107.55
  C 121.62 111.07 116.90 96.97 127.76 92.28
  Q 128.33 92.04 128.00 91.51
  L 126.49 89.07
  Q 126.16 88.54 125.56 88.71
  C 120.34 90.21 114.08 95.53 109.56 98.74
  Q 109.10 99.06 109.41 99.52
  C 115.40 108.60 103.63 121.78 94.96 113.22
  Q 94.64 112.90 94.32 113.23
  Q 81.83 126.20 78.50 143.58
  C 77.29 149.89 78.10 156.87 78.75 163.42
  A 1.12 1.11 66.1 0 0 80.61 164.14
  L 84.85 160.32
  Q 85.34 159.87 84.96 159.33
  C 81.57 154.58 81.60 148.29 86.89 145.10
  Q 87.33 144.84 87.42 144.34
  Q 88.54 137.90 91.85 134.81
  C 94.98 131.89 97.65 132.78 101.44 133.24
  Q 101.98 133.31 102.29 132.86
  Z
  M 156.31 106.44
  C 150.11 103.88 150.14 98.43 152.00 92.86
  Q 152.49 91.38 151.39 92.49
  Q 146.06 97.90 147.64 105.15
  C 148.15 107.49 150.24 109.58 151.75 111.49
  C 162.30 124.91 157.23 142.52 141.66 148.98
  Q 141.15 149.19 140.97 149.72
  L 139.40 154.35
  Q 139.25 154.79 139.44 155.21
  L 143.36 163.96
  Q 143.70 164.72 144.28 164.12
  L 146.84 161.47
  Q 147.29 161.01 147.10 160.40
  C 146.49 158.46 146.75 156.76 148.24 155.15
  Q 152.56 150.45 155.04 144.56
  C 156.08 142.10 157.77 141.42 160.20 142.40
  Q 160.94 142.71 161.25 141.96
  L 163.52 136.34
  Q 163.74 135.78 163.38 135.30
  L 161.00 132.19
  Q 160.66 131.73 160.78 131.17
  Q 162.20 124.86 160.97 118.53
  C 160.55 116.41 161.14 115.07 162.41 113.52
  Q 162.74 113.12 162.53 112.64
  L 159.74 106.32
  Q 159.48 105.74 158.89 105.98
  Q 157.05 106.74 156.31 106.44
  Z
  M 127.90 101.80
  Q 130.01 103.04 132.20 102.05
  Q 132.80 101.78 132.55 101.17
  L 130.81 96.97
  Q 130.59 96.43 130.07 96.71
  Q 127.77 97.96 127.29 100.46
  A 1.27 1.27 0.0 0 0 127.90 101.80
  Z
  M 99.07 109.71
  C 104.25 112.26 106.78 104.49 104.75 103.20
  Q 104.20 102.85 103.72 103.30
  L 98.81 107.95
  A 1.09 1.08 -53.5 0 0 99.07 109.71
  Z
  M 125.06 124.06
  C 128.85 119.25 120.27 114.43 116.85 119.61
  Q 116.53 120.10 116.78 120.64
  L 118.40 124.19
  Q 118.68 124.79 119.34 124.74
  L 124.38 124.42
  Q 124.80 124.39 125.06 124.06
  Z
  M 59.14 121.57
  L 56.48 119.67
  Q 55.91 119.26 55.39 119.73
  L 49.58 124.90
  Q 48.97 125.44 49.71 125.78
  C 59.00 130.02 64.87 137.64 71.48 146.81
  Q 71.82 147.29 71.94 146.71
  L 73.86 136.80
  Q 73.97 136.27 73.74 135.77
  Q 73.37 134.97 73.49 134.06
  Q 73.57 133.51 73.04 133.31
  Q 66.68 130.90 69.23 124.31
  Q 69.46 123.72 68.97 123.31
  L 65.50 120.47
  Q 65.12 120.16 64.65 120.32
  L 60.36 121.75
  Q 59.71 121.97 59.14 121.57
  Z
  M 117.51 134.49
  Q 114.87 135.85 113.02 133.63
  A 2.34 2.33 -34.0 0 0 110.11 133.07
  Q 106.70 134.90 105.38 138.40
  Q 105.20 138.88 104.81 139.21
  C 102.41 141.26 99.65 138.28 97.15 137.85
  Q 96.57 137.75 96.17 138.17
  Q 94.16 140.27 93.20 142.96
  C 92.15 145.92 93.81 149.37 88.92 150.35
  Q 88.38 150.46 88.23 150.98
  Q 87.59 153.12 88.67 155.07
  Q 88.95 155.57 89.36 155.17
  C 95.39 149.26 115.71 134.53 123.94 138.55
  Q 124.43 138.79 124.66 138.30
  C 128.06 131.26 122.00 125.98 118.25 133.73
  Q 118.00 134.23 117.51 134.49
  Z
  M 59.73 141.01
  C 56.30 136.52 52.03 132.71 46.82 130.38
  Q 46.31 130.15 46.09 130.67
  Q 44.32 134.89 44.49 139.50
  Q 44.52 140.21 45.17 139.92
  Q 49.34 138.06 52.42 141.25
  Q 52.80 141.65 53.28 141.37
  Q 56.33 139.55 59.39 141.39
  Q 60.55 142.09 59.73 141.01
  Z
  M 60.54 150.89
  Q 57.55 149.75 57.39 146.45
  Q 57.36 145.79 56.71 145.90
  Q 54.68 146.24 53.34 147.87
  Q 53.05 148.23 52.58 148.26
  C 49.65 148.51 49.88 146.58 48.52 144.86
  Q 48.21 144.46 47.73 144.60
  Q 45.78 145.16 46.54 146.96
  C 48.55 151.79 64.40 155.23 68.82 156.02
  Q 69.60 156.16 69.33 155.41
  Q 68.07 151.94 65.62 149.22
  Q 65.27 148.82 64.80 149.08
  L 61.63 150.81
  Q 61.10 151.10 60.54 150.89
  Z"
/>
<g fill="#759086">
<path d="
  M 47.12 103.82
  C 54.40 109.43 59.65 100.60 62.32 95.05
  Q 64.98 89.53 59.79 86.91
  Q 59.35 86.69 59.14 86.23
  C 56.95 81.31 62.95 81.06 64.03 76.87
  C 64.64 74.52 62.79 72.34 62.41 69.87
  A 0.77 0.77 0.0 0 1 63.69 69.19
  C 69.12 74.25 74.05 80.34 72.53 88.34
  C 70.10 101.17 63.60 107.90 53.00 114.60
  C 44.96 119.68 38.84 128.81 38.94 138.42
  C 38.98 142.00 40.20 145.73 40.33 149.60
  Q 40.35 150.21 40.91 150.47
  L 41.63 150.80
  Q 42.15 151.03 42.39 151.55
  Q 46.54 160.47 54.11 166.81
  Q 54.48 167.12 54.00 167.12
  L 35.75 167.16
  Q 35.26 167.16 35.01 166.73
  Q 31.61 160.88 30.82 159.20
  C 29.37 156.09 28.13 157.23 25.43 156.54
  Q 24.93 156.42 24.73 155.94
  L 22.44 150.62
  Q 22.19 150.05 22.75 149.77
  C 28.63 146.85 25.34 143.20 25.39 138.73
  Q 25.43 135.23 26.64 131.93
  Q 26.83 131.41 27.29 131.13
  Q 29.58 129.75 28.39 127.50
  Q 28.17 127.07 27.77 126.79
  L 25.32 125.05
  Q 24.73 124.63 25.07 123.99
  L 27.62 119.22
  Q 27.88 118.74 28.40 118.89
  C 34.08 120.49 39.20 115.05 43.26 110.71
  Q 43.63 110.32 43.57 109.78
  Q 43.19 105.98 46.17 103.81
  Q 46.65 103.46 47.12 103.82
  Z"
/>
<path d="
  M 34.48 97.16
  C 32.53 103.54 32.76 103.73 37.72 107.93
  Q 38.10 108.25 37.71 108.56
  L 31.74 113.39
  Q 31.31 113.74 30.82 113.49
  Q 22.14 109.06 19.32 100.42
  C 17.49 94.85 18.97 88.24 20.70 82.65
  Q 21.22 80.95 21.21 82.72
  C 21.19 88.35 22.86 95.61 30.55 92.67
  Q 31.06 92.48 31.42 92.90
  L 34.30 96.29
  Q 34.63 96.68 34.48 97.16
  Z"
/>
<path d="
  M 113.80 128.02
  C 108.82 127.15 105.21 128.68 102.29 132.86
  Q 101.98 133.31 101.44 133.24
  C 97.65 132.78 94.98 131.89 91.85 134.81
  Q 88.54 137.90 87.42 144.34
  Q 87.33 144.84 86.89 145.10
  C 81.60 148.29 81.57 154.58 84.96 159.33
  Q 85.34 159.87 84.85 160.32
  L 80.61 164.14
  A 1.12 1.11 66.1 0 1 78.75 163.42
  C 78.10 156.87 77.29 149.89 78.50 143.58
  Q 81.83 126.20 94.32 113.23
  Q 94.64 112.90 94.96 113.22
  C 103.63 121.78 115.40 108.60 109.41 99.52
  Q 109.10 99.06 109.56 98.74
  C 114.08 95.53 120.34 90.21 125.56 88.71
  Q 126.16 88.54 126.49 89.07
  L 128.00 91.51
  Q 128.33 92.04 127.76 92.28
  C 116.90 96.97 121.62 111.07 134.31 107.55
  Q 134.85 107.40 135.00 107.94
  C 138.36 119.58 139.24 135.06 135.58 147.06
  Q 135.46 147.47 135.14 147.19
  L 129.84 142.36
  Q 129.46 142.02 129.58 141.52
  C 130.80 136.39 132.34 133.52 129.89 128.29
  Q 129.67 127.83 129.92 127.39
  Q 133.82 120.46 129.47 115.74
  C 120.78 106.30 105.06 114.77 114.02 127.68
  Q 114.32 128.11 113.80 128.02
  Z"
/>
<path d="
  M 156.31 106.44
  Q 157.05 106.74 158.89 105.98
  Q 159.48 105.74 159.74 106.32
  L 162.53 112.64
  Q 162.74 113.12 162.41 113.52
  C 161.14 115.07 160.55 116.41 160.97 118.53
  Q 162.20 124.86 160.78 131.17
  Q 160.66 131.73 161.00 132.19
  L 163.38 135.30
  Q 163.74 135.78 163.52 136.34
  L 161.25 141.96
  Q 160.94 142.71 160.20 142.40
  C 157.77 141.42 156.08 142.10 155.04 144.56
  Q 152.56 150.45 148.24 155.15
  C 146.75 156.76 146.49 158.46 147.10 160.40
  Q 147.29 161.01 146.84 161.47
  L 144.28 164.12
  Q 143.70 164.72 143.36 163.96
  L 139.44 155.21
  Q 139.25 154.79 139.40 154.35
  L 140.97 149.72
  Q 141.15 149.19 141.66 148.98
  C 157.23 142.52 162.30 124.91 151.75 111.49
  C 150.24 109.58 148.15 107.49 147.64 105.15
  Q 146.06 97.90 151.39 92.49
  Q 152.49 91.38 152.00 92.86
  C 150.14 98.43 150.11 103.88 156.31 106.44
  Z"
/>
<path d="
  M 60.36 121.75
  L 64.65 120.32
  Q 65.12 120.16 65.50 120.47
  L 68.97 123.31
  Q 69.46 123.72 69.23 124.31
  Q 66.68 130.90 73.04 133.31
  Q 73.57 133.51 73.49 134.06
  Q 73.37 134.97 73.74 135.77
  Q 73.97 136.27 73.86 136.80
  L 71.94 146.71
  Q 71.82 147.29 71.48 146.81
  C 64.87 137.64 59.00 130.02 49.71 125.78
  Q 48.97 125.44 49.58 124.90
  L 55.39 119.73
  Q 55.91 119.26 56.48 119.67
  L 59.14 121.57
  Q 59.71 121.97 60.36 121.75
  Z"
/>
</g>
<g fill="#f8f8f8">
<path d="
  M 118.25 133.73
  C 122.00 125.98 128.06 131.26 124.66 138.30
  Q 124.43 138.79 123.94 138.55
  C 115.71 134.53 95.39 149.26 89.36 155.17
  Q 88.95 155.57 88.67 155.07
  Q 87.59 153.12 88.23 150.98
  Q 88.38 150.46 88.92 150.35
  C 93.81 149.37 92.15 145.92 93.20 142.96
  Q 94.16 140.27 96.17 138.17
  Q 96.57 137.75 97.15 137.85
  C 99.65 138.28 102.41 141.26 104.81 139.21
  Q 105.20 138.88 105.38 138.40
  Q 106.70 134.90 110.11 133.07
  A 2.34 2.33 -34.0 0 1 113.02 133.63
  Q 114.87 135.85 117.51 134.49
  Q 118.00 134.23 118.25 133.73
  Z"
/>
<path d="
  M 61.63 150.81
  L 64.80 149.08
  Q 65.27 148.82 65.62 149.22
  Q 68.07 151.94 69.33 155.41
  Q 69.60 156.16 68.82 156.02
  C 64.40 155.23 48.55 151.79 46.54 146.96
  Q 45.78 145.16 47.73 144.60
  Q 48.21 144.46 48.52 144.86
  C 49.88 146.58 49.65 148.51 52.58 148.26
  Q 53.05 148.23 53.34 147.87
  Q 54.68 146.24 56.71 145.90
  Q 57.36 145.79 57.39 146.45
  Q 57.55 149.75 60.54 150.89
  Q 61.10 151.10 61.63 150.81
  Z"
/>
</g>
<g fill="#42685f">
<path d="
  M 127.90 101.80
  A 1.27 1.27 0.0 0 1 127.29 100.46
  Q 127.77 97.96 130.07 96.71
  Q 130.59 96.43 130.81 96.97
  L 132.55 101.17
  Q 132.80 101.78 132.20 102.05
  Q 130.01 103.04 127.90 101.80
  Z"
/>
<path d="
  M 99.07 109.71
  A 1.09 1.08 -53.5 0 1 98.81 107.95
  L 103.72 103.30
  Q 104.20 102.85 104.75 103.20
  C 106.78 104.49 104.25 112.26 99.07 109.71
  Z"
/>
<path d="
  M 116.85 119.61
  C 120.27 114.43 128.85 119.25 125.06 124.06
  Q 124.80 124.39 124.38 124.42
  L 119.34 124.74
  Q 118.68 124.79 118.40 124.19
  L 116.78 120.64
  Q 116.53 120.10 116.85 119.61
  Z"
/>
</g>
</svg>
