<?xml version="1.0" encoding="UTF-8" standalone="no"?>
<!DOCTYPE svg PUBLIC "-//W3C//DTD SVG 1.1//EN" "http://www.w3.org/Graphics/SVG/1.1/DTD/svg11.dtd">
<svg xmlns="http://www.w3.org/2000/svg" version="1.1" viewBox="0 0 180 180">
<g stroke-width="2.00" fill="none" stroke-linecap="butt">
<path stroke="#98989a" vector-effect="non-scaling-stroke" d="
  M 45.92 77.15
  L 46.23 78.72
  Q 46.35 79.33 46.97 79.28
  L 52.28 78.90
  Q 52.79 78.86 52.98 78.38
  Q 54.96 73.41 60.34 73.03
  Q 60.86 72.99 61.17 72.58
  C 65.69 66.64 66.95 53.39 67.70 46.14
  A 0.34 0.34 0.0 0 0 67.07 45.92
  Q 61.65 54.12 58.73 62.99
  C 57.05 68.08 51.87 67.10 51.15 62.04
  Q 50.08 54.67 48.87 47.49
  A 0.39 0.39 0.0 0 0 48.10 47.51
  Q 47.25 55.06 45.97 62.49
  C 45.63 64.50 44.51 65.46 42.71 66.08
  A 2.19 2.19 0.0 0 1 39.97 64.80
  C 37.55 58.62 35.75 50.71 32.01 45.32
  Q 31.38 44.42 31.43 45.52
  Q 31.85 53.45 34.26 65.75
  Q 35.10 70.00 36.38 72.36
  Q 36.70 72.95 37.36 73.05
  L 41.37 73.64
  Q 41.91 73.72 42.26 74.13
  Q 43.47 75.54 45.20 76.26
  Q 45.79 76.51 45.92 77.15"
/>
<path stroke="#927a6d" vector-effect="non-scaling-stroke" d="
  M 71.28 80.47
  C 72.00 84.22 76.60 91.46 80.64 93.09
  Q 91.67 97.55 100.17 90.26
  C 103.05 87.79 101.23 82.85 106.36 83.06
  C 113.25 83.33 119.40 74.46 112.11 70.38
  C 109.79 69.09 104.69 72.11 105.01 66.47
  C 105.53 57.11 101.91 49.02 92.08 46.65
  C 78.51 43.37 69.85 55.44 70.49 67.81
  C 70.71 72.13 70.71 77.44 71.28 80.47"
/>
<path stroke="#553d3e" vector-effect="non-scaling-stroke" d="
  M 51.97 165.27
  C 52.01 137.66 51.11 112.06 51.08 85.42
  A 0.81 0.80 80.4 0 0 50.02 84.66
  L 49.60 84.80
  Q 48.95 85.02 48.96 85.71
  L 50.85 164.76
  Q 50.85 164.80 51.07 164.98
  Q 51.32 165.18 51.56 165.43
  Q 51.97 165.87 51.97 165.27"
/>
<path stroke="#927a6d" vector-effect="non-scaling-stroke" d="
  M 106.71 111.57
  C 111.74 108.63 111.66 119.05 110.94 121.18
  C 109.80 124.60 94.11 126.82 98.72 131.44
  A 2.33 2.29 -18.9 0 0 100.10 132.10
  Q 110.89 133.36 121.26 129.75
  Q 121.79 129.56 121.78 129.00
  C 121.70 114.53 119.91 100.83 111.78 88.70
  Q 111.48 88.26 110.96 88.35
  L 108.36 88.83
  Q 107.81 88.93 107.57 89.43
  Q 104.09 96.56 96.84 99.04
  Q 82.22 104.05 71.85 93.09
  Q 71.50 92.72 71.26 93.17
  Q 69.96 95.64 69.76 97.26
  Q 67.71 114.46 68.11 131.46
  A 0.75 0.75 0.0 0 0 68.83 132.19
  L 91.96 133.16
  Q 92.63 133.19 92.50 132.54
  L 92.19 131.01
  Q 92.11 130.60 92.15 130.19
  C 92.92 122.96 98.86 121.30 105.59 118.76
  Q 106.11 118.56 106.06 118.01
  L 105.64 113.65
  A 2.18 2.17 -17.8 0 1 106.71 111.57"
/>
<path stroke="#927a6d" vector-effect="non-scaling-stroke" d="
  M 57.83 130.05
  A 0.32 0.32 0.0 0 0 58.10 130.34
  L 61.87 130.90
  A 0.32 0.32 0.0 0 0 62.24 130.59
  L 62.26 123.95
  A 0.32 0.32 0.0 0 0 61.88 123.64
  L 57.67 124.38
  A 0.32 0.32 0.0 0 0 57.40 124.72
  L 57.83 130.05"
/>
<path stroke="#3d504e" vector-effect="non-scaling-stroke" d="
  M 145.31 148.99
  C 142.58 142.99 134.86 140.65 128.60 140.96
  Q 128.12 140.99 128.13 141.48
  Q 128.19 143.99 128.38 146.48
  C 128.77 151.60 122.23 152.36 122.28 147.93
  Q 122.34 143.20 122.09 139.01
  A 1.05 1.05 0.0 0 0 120.96 138.02
  C 103.56 139.31 86.49 138.86 68.89 137.96
  A 0.79 0.79 0.0 0 0 68.06 138.74
  Q 67.92 146.24 67.78 153.76
  C 67.66 160.01 70.96 164.83 77.26 165.79
  Q 87.22 167.30 103.56 166.08
  Q 115.09 165.22 131.49 165.74
  C 134.94 165.84 142.47 164.90 144.71 161.63
  C 147.21 158.00 146.98 152.66 145.31 148.99"
/>
<path stroke="#576461" vector-effect="non-scaling-stroke" d="
  M 28.70 145.68
  C 30.72 151.53 41.41 150.68 40.45 156.41
  Q 40.35 157.01 39.84 157.33
  L 29.39 164.04
  A 1.05 1.05 0.0 0 0 29.77 165.95
  Q 37.45 167.32 45.16 166.49
  Q 45.88 166.42 45.68 165.72
  L 45.45 164.91
  Q 45.31 164.41 45.29 163.89
  L 44.34 143.28
  Q 44.31 142.64 43.67 142.59
  C 40.15 142.31 31.41 141.85 28.88 144.77
  Q 28.53 145.17 28.70 145.68"
/>
<path stroke="#576461" vector-effect="non-scaling-stroke" d="
  M 61.98 146.68
  L 58.30 145.80
  Q 57.80 145.68 57.81 146.19
  L 58.08 163.58
  Q 58.08 164.16 58.64 164.01
  L 63.01 162.87
  Q 63.43 162.76 63.32 162.35
  Q 61.43 154.87 62.34 147.19
  Q 62.39 146.77 61.98 146.68"
/>
<path stroke="#927a6d" vector-effect="non-scaling-stroke" d="
  M 85.0199 71.4174
  A 2.50 2.50 0.0 0 0 82.4981 68.9393
  L 82.2581 68.9414
  A 2.50 2.50 0.0 0 0 79.7801 71.4631
  L 79.9001 85.2226
  A 2.50 2.50 0.0 0 0 82.4219 87.7007
  L 82.6619 87.6986
  A 2.50 2.50 0.0 0 0 85.1399 85.1769
  L 85.0199 71.4174"
/>
</g>
<g fill="#38383c">
<path d="
  M 41.50 52.93
  A 0.27 0.27 0.0 0 0 42.03 52.86
  Q 42.28 45.96 44.25 39.52
  C 46.19 33.18 52.18 36.95 53.16 41.56
  Q 54.48 47.77 55.68 54.00
  Q 55.81 54.68 56.12 54.06
  C 58.55 49.18 62.04 41.49 66.03 39.02
  C 71.44 35.67 73.73 41.66 73.25 46.07
  Q 73.14 46.99 73.82 46.36
  Q 78.96 41.53 83.68 40.93
  C 99.28 38.95 110.24 48.01 110.75 63.71
  Q 110.76 64.25 111.29 64.36
  C 121.99 66.60 123.79 77.62 116.75 84.95
  Q 116.39 85.33 116.67 85.76
  C 126.37 100.42 127.79 116.68 127.66 134.30
  Q 127.66 134.89 128.25 134.93
  C 143.00 135.76 154.03 141.57 151.92 158.41
  C 150.51 169.65 140.20 171.63 130.76 171.48
  C 118.48 171.29 106.16 172.14 93.78 172.21
  C 82.53 172.28 76.36 172.65 68.07 168.03
  Q 67.62 167.78 67.12 167.90
  C 52.74 171.61 42.67 174.06 29.04 171.71
  C 16.77 169.59 24.39 158.63 31.54 156.41
  A 0.42 0.42 0.0 0 0 31.55 155.62
  C 26.53 153.87 21.03 148.26 23.52 142.59
  C 26.57 135.68 37.53 136.63 43.56 136.70
  Q 44.10 136.70 44.09 136.17
  L 43.61 85.17
  Q 43.60 84.65 43.16 84.37
  Q 41.79 83.50 41.63 81.88
  Q 41.58 81.43 41.25 81.13
  Q 39.32 79.39 38.51 79.25
  Q 31.26 77.92 29.29 69.97
  Q 26.45 58.55 25.69 46.74
  C 25.41 42.38 29.53 35.64 34.56 39.48
  C 37.83 41.98 40.41 49.08 41.50 52.93
  Z
  M 45.92 77.15
  L 46.23 78.72
  Q 46.35 79.33 46.97 79.28
  L 52.28 78.90
  Q 52.79 78.86 52.98 78.38
  Q 54.96 73.41 60.34 73.03
  Q 60.86 72.99 61.17 72.58
  C 65.69 66.64 66.95 53.39 67.70 46.14
  A 0.34 0.34 0.0 0 0 67.07 45.92
  Q 61.65 54.12 58.73 62.99
  C 57.05 68.08 51.87 67.10 51.15 62.04
  Q 50.08 54.67 48.87 47.49
  A 0.39 0.39 0.0 0 0 48.10 47.51
  Q 47.25 55.06 45.97 62.49
  C 45.63 64.50 44.51 65.46 42.71 66.08
  A 2.19 2.19 0.0 0 1 39.97 64.80
  C 37.55 58.62 35.75 50.71 32.01 45.32
  Q 31.38 44.42 31.43 45.52
  Q 31.85 53.45 34.26 65.75
  Q 35.10 70.00 36.38 72.36
  Q 36.70 72.95 37.36 73.05
  L 41.37 73.64
  Q 41.91 73.72 42.26 74.13
  Q 43.47 75.54 45.20 76.26
  Q 45.79 76.51 45.92 77.15
  Z
  M 71.28 80.47
  C 72.00 84.22 76.60 91.46 80.64 93.09
  Q 91.67 97.55 100.17 90.26
  C 103.05 87.79 101.23 82.85 106.36 83.06
  C 113.25 83.33 119.40 74.46 112.11 70.38
  C 109.79 69.09 104.69 72.11 105.01 66.47
  C 105.53 57.11 101.91 49.02 92.08 46.65
  C 78.51 43.37 69.85 55.44 70.49 67.81
  C 70.71 72.13 70.71 77.44 71.28 80.47
  Z
  M 58.03 82.40
  L 56.75 83.37
  Q 56.36 83.67 56.37 84.16
  L 57.27 118.02
  Q 57.29 118.51 57.77 118.47
  L 62.23 118.16
  A 0.61 0.60 -3.4 0 0 62.80 117.53
  C 62.36 106.91 62.95 97.18 67.74 87.55
  Q 67.98 87.06 67.78 86.56
  Q 65.92 81.97 65.45 77.03
  Q 65.41 76.56 65.02 76.82
  C 63.80 77.63 58.47 80.22 58.48 81.47
  Q 58.48 82.05 58.03 82.40
  Z
  M 51.97 165.27
  C 52.01 137.66 51.11 112.06 51.08 85.42
  A 0.81 0.80 80.4 0 0 50.02 84.66
  L 49.60 84.80
  Q 48.95 85.02 48.96 85.71
  L 50.85 164.76
  Q 50.85 164.80 51.07 164.98
  Q 51.32 165.18 51.56 165.43
  Q 51.97 165.87 51.97 165.27
  Z
  M 106.71 111.57
  C 111.74 108.63 111.66 119.05 110.94 121.18
  C 109.80 124.60 94.11 126.82 98.72 131.44
  A 2.33 2.29 -18.9 0 0 100.10 132.10
  Q 110.89 133.36 121.26 129.75
  Q 121.79 129.56 121.78 129.00
  C 121.70 114.53 119.91 100.83 111.78 88.70
  Q 111.48 88.26 110.96 88.35
  L 108.36 88.83
  Q 107.81 88.93 107.57 89.43
  Q 104.09 96.56 96.84 99.04
  Q 82.22 104.05 71.85 93.09
  Q 71.50 92.72 71.26 93.17
  Q 69.96 95.64 69.76 97.26
  Q 67.71 114.46 68.11 131.46
  A 0.75 0.75 0.0 0 0 68.83 132.19
  L 91.96 133.16
  Q 92.63 133.19 92.50 132.54
  L 92.19 131.01
  Q 92.11 130.60 92.15 130.19
  C 92.92 122.96 98.86 121.30 105.59 118.76
  Q 106.11 118.56 106.06 118.01
  L 105.64 113.65
  A 2.18 2.17 -17.8 0 1 106.71 111.57
  Z
  M 57.83 130.05
  A 0.32 0.32 0.0 0 0 58.10 130.34
  L 61.87 130.90
  A 0.32 0.32 0.0 0 0 62.24 130.59
  L 62.26 123.95
  A 0.32 0.32 0.0 0 0 61.88 123.64
  L 57.67 124.38
  A 0.32 0.32 0.0 0 0 57.40 124.72
  L 57.83 130.05
  Z
  M 62.48 138.70
  Q 62.63 137.83 62.39 137.10
  Q 62.25 136.64 61.77 136.58
  L 58.30 136.14
  Q 57.53 136.04 57.59 136.82
  L 57.80 139.49
  Q 57.84 140.07 58.42 140.14
  L 61.82 140.57
  Q 62.56 140.66 62.51 139.92
  L 62.45 139.25
  Q 62.43 138.98 62.48 138.70
  Z
  M 145.31 148.99
  C 142.58 142.99 134.86 140.65 128.60 140.96
  Q 128.12 140.99 128.13 141.48
  Q 128.19 143.99 128.38 146.48
  C 128.77 151.60 122.23 152.36 122.28 147.93
  Q 122.34 143.20 122.09 139.01
  A 1.05 1.05 0.0 0 0 120.96 138.02
  C 103.56 139.31 86.49 138.86 68.89 137.96
  A 0.79 0.79 0.0 0 0 68.06 138.74
  Q 67.92 146.24 67.78 153.76
  C 67.66 160.01 70.96 164.83 77.26 165.79
  Q 87.22 167.30 103.56 166.08
  Q 115.09 165.22 131.49 165.74
  C 134.94 165.84 142.47 164.90 144.71 161.63
  C 147.21 158.00 146.98 152.66 145.31 148.99
  Z
  M 28.70 145.68
  C 30.72 151.53 41.41 150.68 40.45 156.41
  Q 40.35 157.01 39.84 157.33
  L 29.39 164.04
  A 1.05 1.05 0.0 0 0 29.77 165.95
  Q 37.45 167.32 45.16 166.49
  Q 45.88 166.42 45.68 165.72
  L 45.45 164.91
  Q 45.31 164.41 45.29 163.89
  L 44.34 143.28
  Q 44.31 142.64 43.67 142.59
  C 40.15 142.31 31.41 141.85 28.88 144.77
  Q 28.53 145.17 28.70 145.68
  Z
  M 61.98 146.68
  L 58.30 145.80
  Q 57.80 145.68 57.81 146.19
  L 58.08 163.58
  Q 58.08 164.16 58.64 164.01
  L 63.01 162.87
  Q 63.43 162.76 63.32 162.35
  Q 61.43 154.87 62.34 147.19
  Q 62.39 146.77 61.98 146.68
  Z"
/>
<rect x="-2.62" y="-9.38" transform="translate(82.46,78.32) rotate(-0.5)" width="5.24" height="18.76" rx="2.50"/>
</g>
<g fill="#ebbc9e">
<path d="
  M 80.64 93.09
  C 76.60 91.46 72.00 84.22 71.28 80.47
  C 70.71 77.44 70.71 72.13 70.49 67.81
  C 69.85 55.44 78.51 43.37 92.08 46.65
  C 101.91 49.02 105.53 57.11 105.01 66.47
  C 104.69 72.11 109.79 69.09 112.11 70.38
  C 119.40 74.46 113.25 83.33 106.36 83.06
  C 101.23 82.85 103.05 87.79 100.17 90.26
  Q 91.67 97.55 80.64 93.09
  Z
  M 85.0199 71.4174
  A 2.50 2.50 0.0 0 0 82.4981 68.9393
  L 82.2581 68.9414
  A 2.50 2.50 0.0 0 0 79.7801 71.4631
  L 79.9001 85.2226
  A 2.50 2.50 0.0 0 0 82.4219 87.7007
  L 82.6619 87.6986
  A 2.50 2.50 0.0 0 0 85.1399 85.1769
  L 85.0199 71.4174
  Z"
/>
<path d="
  M 106.71 111.57
  A 2.18 2.17 -17.8 0 0 105.64 113.65
  L 106.06 118.01
  Q 106.11 118.56 105.59 118.76
  C 98.86 121.30 92.92 122.96 92.15 130.19
  Q 92.11 130.60 92.19 131.01
  L 92.50 132.54
  Q 92.63 133.19 91.96 133.16
  L 68.83 132.19
  A 0.75 0.75 0.0 0 1 68.11 131.46
  Q 67.71 114.46 69.76 97.26
  Q 69.96 95.64 71.26 93.17
  Q 71.50 92.72 71.85 93.09
  Q 82.22 104.05 96.84 99.04
  Q 104.09 96.56 107.57 89.43
  Q 107.81 88.93 108.36 88.83
  L 110.96 88.35
  Q 111.48 88.26 111.78 88.70
  C 119.91 100.83 121.70 114.53 121.78 129.00
  Q 121.79 129.56 121.26 129.75
  Q 110.89 133.36 100.10 132.10
  A 2.33 2.29 -18.9 0 1 98.72 131.44
  C 94.11 126.82 109.80 124.60 110.94 121.18
  C 111.66 119.05 111.74 108.63 106.71 111.57
  Z"
/>
<path d="
  M 57.83 130.05
  L 57.40 124.72
  A 0.32 0.32 0.0 0 1 57.67 124.38
  L 61.88 123.64
  A 0.32 0.32 0.0 0 1 62.26 123.95
  L 62.24 130.59
  A 0.32 0.32 0.0 0 1 61.87 130.90
  L 58.10 130.34
  A 0.32 0.32 0.0 0 1 57.83 130.05
  Z"
/>
</g>
<path fill="#42685f" d="
  M 145.31 148.99
  C 146.98 152.66 147.21 158.00 144.71 161.63
  C 142.47 164.90 134.94 165.84 131.49 165.74
  Q 115.09 165.22 103.56 166.08
  Q 87.22 167.30 77.26 165.79
  C 70.96 164.83 67.66 160.01 67.78 153.76
  Q 67.92 146.24 68.06 138.74
  A 0.79 0.79 0.0 0 1 68.89 137.96
  C 86.49 138.86 103.56 139.31 120.96 138.02
  A 1.05 1.05 0.0 0 1 122.09 139.01
  Q 122.34 143.20 122.28 147.93
  C 122.23 152.36 128.77 151.60 128.38 146.48
  Q 128.19 143.99 128.13 141.48
  Q 128.12 140.99 128.60 140.96
  C 134.86 140.65 142.58 142.99 145.31 148.99
  Z"
/>
<path fill="#f8f8f8" d="
  M 45.20 76.26
  Q 43.47 75.54 42.26 74.13
  Q 41.91 73.72 41.37 73.64
  L 37.36 73.05
  Q 36.70 72.95 36.38 72.36
  Q 35.10 70.00 34.26 65.75
  Q 31.85 53.45 31.43 45.52
  Q 31.38 44.42 32.01 45.32
  C 35.75 50.71 37.55 58.62 39.97 64.80
  A 2.19 2.19 0.0 0 0 42.71 66.08
  C 44.51 65.46 45.63 64.50 45.97 62.49
  Q 47.25 55.06 48.10 47.51
  A 0.39 0.39 0.0 0 1 48.87 47.49
  Q 50.08 54.67 51.15 62.04
  C 51.87 67.10 57.05 68.08 58.73 62.99
  Q 61.65 54.12 67.07 45.92
  A 0.34 0.34 0.0 0 1 67.70 46.14
  C 66.95 53.39 65.69 66.64 61.17 72.58
  Q 60.86 72.99 60.34 73.03
  Q 54.96 73.41 52.98 78.38
  Q 52.79 78.86 52.28 78.90
  L 46.97 79.28
  Q 46.35 79.33 46.23 78.72
  L 45.92 77.15
  Q 45.79 76.51 45.20 76.26
  Z"
/>
<g fill="#759086">
<path d="
  M 40.45 156.41
  C 41.41 150.68 30.72 151.53 28.70 145.68
  Q 28.53 145.17 28.88 144.77
  C 31.41 141.85 40.15 142.31 43.67 142.59
  Q 44.31 142.64 44.34 143.28
  L 45.29 163.89
  Q 45.31 164.41 45.45 164.91
  L 45.68 165.72
  Q 45.88 166.42 45.16 166.49
  Q 37.45 167.32 29.77 165.95
  A 1.05 1.05 0.0 0 1 29.39 164.04
  L 39.84 157.33
  Q 40.35 157.01 40.45 156.41
  Z"
/>
<path d="
  M 61.98 146.68
  Q 62.39 146.77 62.34 147.19
  Q 61.43 154.87 63.32 162.35
  Q 63.43 162.76 63.01 162.87
  L 58.64 164.01
  Q 58.08 164.16 58.08 163.58
  L 57.81 146.19
  Q 57.80 145.68 58.30 145.80
  L 61.98 146.68
  Z"
/>
</g>
<path fill="#71423f" d="
  M 51.08 85.42
  C 51.11 112.06 52.01 137.66 51.97 165.27
  Q 51.97 165.87 51.56 165.43
  Q 51.32 165.18 51.07 164.98
  Q 50.85 164.80 50.85 164.76
  L 48.96 85.71
  Q 48.95 85.02 49.60 84.80
  L 50.02 84.66
  A 0.81 0.80 80.4 0 1 51.08 85.42
  Z"
/>
</svg>
