<?xml version="1.0" encoding="UTF-8" standalone="no"?>
<!DOCTYPE svg PUBLIC "-//W3C//DTD SVG 1.1//EN" "http://www.w3.org/Graphics/SVG/1.1/DTD/svg11.dtd">
<svg xmlns="http://www.w3.org/2000/svg" version="1.1" viewBox="0 0 180 180">
<g stroke-width="2.00" fill="none" stroke-linecap="butt">
<path stroke="#98989a" vector-effect="non-scaling-stroke" d="
  M 101.25 56.26
  C 97.90 51.63 91.80 49.65 86.30 50.36
  Q 85.62 50.45 86.22 50.78
  Q 93.23 54.64 101.00 56.63
  Q 101.63 56.79 101.25 56.26"
/>
<path stroke="#98989a" vector-effect="non-scaling-stroke" d="
  M 104.19 63.30
  C 95.16 61.21 86.91 58.26 79.33 52.80
  Q 78.85 52.45 78.42 52.86
  L 74.64 56.51
  A 1.02 1.01 -54.2 0 0 74.90 58.16
  Q 89.02 64.94 104.33 68.30
  Q 105.11 68.47 105.06 67.67
  L 104.83 64.05
  Q 104.79 63.44 104.19 63.30"
/>
<path stroke="#98989a" vector-effect="non-scaling-stroke" d="
  M 85.31 68.68
  Q 78.42 66.37 72.13 62.73
  Q 71.52 62.38 71.39 63.07
  L 70.35 68.89
  Q 70.22 69.62 70.97 69.67
  Q 78.18 70.13 85.30 68.89
  A 0.11 0.11 0.0 0 0 85.31 68.68"
/>
<path stroke="#98989a" vector-effect="non-scaling-stroke" d="
  M 109.98 86.48
  C 115.48 84.50 118.08 74.53 110.63 73.96
  Q 110.18 73.93 110.16 74.38
  L 109.55 86.16
  Q 109.53 86.64 109.98 86.48"
/>
<path stroke="#98989a" vector-effect="non-scaling-stroke" d="
  M 71.72 86.17
  L 73.58 90.21
  Q 73.82 90.74 74.38 90.59
  C 83.23 88.21 96.17 87.96 102.87 87.52
  Q 103.49 87.48 103.56 86.86
  L 104.38 79.57
  Q 104.46 78.83 103.82 79.22
  C 94.41 84.88 82.82 86.20 72.05 85.68
  Q 71.49 85.66 71.72 86.17"
/>
<path stroke="#98989a" vector-effect="non-scaling-stroke" d="
  M 112.24 93.26
  C 111.65 91.31 108.12 92.78 107.25 93.63
  Q 106.47 94.38 107.55 94.29
  L 111.78 93.94
  Q 112.43 93.88 112.24 93.26"
/>
<path stroke="#98989a" vector-effect="non-scaling-stroke" d="
  M 79.50 96.57
  C 85.88 99.75 95.46 99.87 100.46 93.94
  Q 100.91 93.40 100.21 93.45
  L 79.81 95.00
  Q 76.80 95.22 79.50 96.57"
/>
<path stroke="#98989a" vector-effect="non-scaling-stroke" d="
  M 77.81 102.19
  Q 74.67 99.88 71.90 97.05
  Q 71.46 96.60 71.18 97.16
  Q 69.65 100.20 69.51 103.62
  Q 69.49 104.23 70.09 104.14
  L 78.33 102.93
  Q 78.97 102.83 78.51 102.39
  Q 78.24 102.14 77.81 102.19"
/>
<path stroke="#98989a" vector-effect="non-scaling-stroke" d="
  M 68.98 109.89
  Q 67.89 112.52 68.41 115.27
  Q 68.48 115.64 68.84 115.75
  L 79.38 119.00
  Q 79.81 119.13 80.15 118.84
  Q 95.95 105.47 116.61 103.12
  Q 117.29 103.04 117.03 102.41
  L 116.07 100.10
  Q 115.89 99.66 115.42 99.64
  Q 107.28 99.18 99.79 101.88
  Q 95.69 103.37 92.56 104.13
  C 85.29 105.89 78.20 109.28 69.67 109.42
  Q 69.17 109.43 68.98 109.89"
/>
<path stroke="#98989a" vector-effect="non-scaling-stroke" d="
  M 111.06 118.61
  A 0.32 0.32 0.0 0 0 111.49 118.90
  L 120.33 115.87
  A 0.32 0.32 0.0 0 0 120.54 115.51
  L 119.27 108.63
  A 0.32 0.32 0.0 0 0 118.90 108.37
  L 110.96 109.64
  A 0.32 0.32 0.0 0 0 110.69 109.97
  L 111.06 118.61"
/>
<path stroke="#98989a" vector-effect="non-scaling-stroke" d="
  M 85.34 121.83
  L 94.74 126.97
  Q 95.17 127.21 95.61 127.01
  L 105.43 122.67
  A 0.67 0.67 0.0 0 0 105.83 122.01
  L 105.37 111.66
  Q 105.34 111.05 104.77 111.25
  Q 94.26 114.91 85.32 121.51
  Q 85.08 121.69 85.34 121.83"
/>
<path stroke="#98989a" vector-effect="non-scaling-stroke" d="
  M 91.65 131.85
  C 85.37 128.09 75.91 122.64 68.82 121.57
  Q 68.34 121.50 68.32 121.98
  L 67.96 130.04
  Q 67.93 130.62 68.46 130.88
  Q 78.97 136.05 90.96 134.91
  A 1.65 1.65 0.0 0 0 91.65 131.85"
/>
<path stroke="#98989a" vector-effect="non-scaling-stroke" d="
  M 114.35 135.82
  L 121.53 133.77
  Q 122.18 133.59 122.13 132.92
  L 121.41 122.27
  Q 121.35 121.30 120.43 121.64
  L 112.28 124.61
  Q 111.67 124.83 112.00 125.39
  Q 114.71 130.02 113.88 135.41
  Q 113.80 135.98 114.35 135.82"
/>
<path stroke="#98989a" vector-effect="non-scaling-stroke" d="
  M 121.38 139.60
  C 113.48 142.26 106.64 143.15 99.04 141.49
  C 92.28 140.02 84.93 140.81 77.94 139.87
  C 74.62 139.42 71.70 138.12 68.59 136.84
  Q 68.00 136.60 68.00 137.24
  L 68.00 142.19
  Q 68.00 142.62 68.34 142.88
  C 74.37 147.54 81.69 148.89 89.07 149.74
  Q 89.61 149.80 90.10 149.56
  Q 95.25 146.99 100.48 149.41
  Q 100.98 149.64 101.43 149.32
  Q 110.41 142.88 121.43 142.10
  Q 122.00 142.06 122.00 141.49
  L 122.00 140.04
  Q 122.00 139.39 121.38 139.60"
/>
<path stroke="#98989a" vector-effect="non-scaling-stroke" d="
  M 121.34 147.83
  Q 112.69 148.34 105.54 153.25
  Q 105.13 153.52 105.57 153.73
  Q 113.39 157.51 122.04 156.37
  Q 122.65 156.29 122.63 155.67
  L 122.41 148.81
  Q 122.38 147.77 121.34 147.83"
/>
<path stroke="#98989a" vector-effect="non-scaling-stroke" d="
  M 76.93 153.43
  L 68.40 149.83
  Q 67.99 149.66 67.96 150.10
  L 67.46 156.76
  Q 67.39 157.74 68.31 157.37
  L 76.93 153.84
  A 0.22 0.22 0.0 0 0 76.93 153.43"
/>
<path stroke="#98989a" vector-effect="non-scaling-stroke" d="
  M 70.82 165.91
  Q 77.23 166.38 84.51 165.82
  A 1.07 1.06 -2.0 0 0 85.50 164.76
  L 85.50 155.79
  A 0.87 0.87 0.0 0 0 84.06 155.13
  Q 77.48 160.82 68.88 162.58
  Q 68.36 162.69 68.27 163.21
  C 67.91 165.22 68.99 165.77 70.82 165.91"
/>
<path stroke="#98989a" vector-effect="non-scaling-stroke" d="
  M 122.25 162.75
  Q 122.29 162.61 122.25 162.47
  Q 122.14 161.99 121.64 162.05
  Q 114.24 163.03 107.35 160.38
  Q 106.66 160.11 106.70 160.85
  L 106.88 164.50
  Q 106.92 165.31 107.72 165.42
  Q 114.62 166.33 121.54 165.66
  Q 122.27 165.59 122.26 164.85
  L 122.22 162.95
  Q 122.22 162.85 122.25 162.75"
/>
</g>
<path fill="#38383c" d="
  M 111.26 68.36
  C 122.01 70.61 123.76 81.57 116.76 88.96
  Q 116.39 89.34 116.68 89.79
  C 128.85 108.30 127.28 128.45 128.22 149.82
  Q 128.62 158.83 128.00 166.01
  Q 127.58 170.90 122.28 171.35
  Q 111.37 172.25 106.74 171.02
  C 97.52 168.58 104.25 158.63 98.36 154.66
  Q 95.19 152.54 91.62 155.17
  Q 91.18 155.50 91.19 156.05
  C 91.39 163.31 93.03 170.97 84.15 171.47
  C 79.66 171.73 70.08 173.09 65.51 169.68
  C 60.39 165.86 62.51 147.70 62.52 141.79
  Q 62.52 140.36 61.09 140.41
  C 56.06 140.60 46.77 137.32 48.73 130.51
  C 50.33 124.97 56.56 122.02 62.15 122.19
  Q 62.73 122.20 62.72 121.63
  C 62.58 111.39 62.96 101.12 67.59 91.87
  Q 67.82 91.41 67.67 90.91
  Q 64.16 79.12 65.60 66.99
  C 67.12 54.14 76.24 43.84 89.86 44.69
  C 102.43 45.48 110.65 54.86 110.72 67.68
  Q 110.72 68.24 111.26 68.36
  Z
  M 101.25 56.26
  C 97.90 51.63 91.80 49.65 86.30 50.36
  Q 85.62 50.45 86.22 50.78
  Q 93.23 54.64 101.00 56.63
  Q 101.63 56.79 101.25 56.26
  Z
  M 104.19 63.30
  C 95.16 61.21 86.91 58.26 79.33 52.80
  Q 78.85 52.45 78.42 52.86
  L 74.64 56.51
  A 1.02 1.01 -54.2 0 0 74.90 58.16
  Q 89.02 64.94 104.33 68.30
  Q 105.11 68.47 105.06 67.67
  L 104.83 64.05
  Q 104.79 63.44 104.19 63.30
  Z
  M 85.31 68.68
  Q 78.42 66.37 72.13 62.73
  Q 71.52 62.38 71.39 63.07
  L 70.35 68.89
  Q 70.22 69.62 70.97 69.67
  Q 78.18 70.13 85.30 68.89
  A 0.11 0.11 0.0 0 0 85.31 68.68
  Z
  M 109.98 86.48
  C 115.48 84.50 118.08 74.53 110.63 73.96
  Q 110.18 73.93 110.16 74.38
  L 109.55 86.16
  Q 109.53 86.64 109.98 86.48
  Z
  M 71.72 86.17
  L 73.58 90.21
  Q 73.82 90.74 74.38 90.59
  C 83.23 88.21 96.17 87.96 102.87 87.52
  Q 103.49 87.48 103.56 86.86
  L 104.38 79.57
  Q 104.46 78.83 103.82 79.22
  C 94.41 84.88 82.82 86.20 72.05 85.68
  Q 71.49 85.66 71.72 86.17
  Z
  M 112.24 93.26
  C 111.65 91.31 108.12 92.78 107.25 93.63
  Q 106.47 94.38 107.55 94.29
  L 111.78 93.94
  Q 112.43 93.88 112.24 93.26
  Z
  M 79.50 96.57
  C 85.88 99.75 95.46 99.87 100.46 93.94
  Q 100.91 93.40 100.21 93.45
  L 79.81 95.00
  Q 76.80 95.22 79.50 96.57
  Z
  M 77.81 102.19
  Q 74.67 99.88 71.90 97.05
  Q 71.46 96.60 71.18 97.16
  Q 69.65 100.20 69.51 103.62
  Q 69.49 104.23 70.09 104.14
  L 78.33 102.93
  Q 78.97 102.83 78.51 102.39
  Q 78.24 102.14 77.81 102.19
  Z
  M 68.98 109.89
  Q 67.89 112.52 68.41 115.27
  Q 68.48 115.64 68.84 115.75
  L 79.38 119.00
  Q 79.81 119.13 80.15 118.84
  Q 95.95 105.47 116.61 103.12
  Q 117.29 103.04 117.03 102.41
  L 116.07 100.10
  Q 115.89 99.66 115.42 99.64
  Q 107.28 99.18 99.79 101.88
  Q 95.69 103.37 92.56 104.13
  C 85.29 105.89 78.20 109.28 69.67 109.42
  Q 69.17 109.43 68.98 109.89
  Z
  M 111.06 118.61
  A 0.32 0.32 0.0 0 0 111.49 118.90
  L 120.33 115.87
  A 0.32 0.32 0.0 0 0 120.54 115.51
  L 119.27 108.63
  A 0.32 0.32 0.0 0 0 118.90 108.37
  L 110.96 109.64
  A 0.32 0.32 0.0 0 0 110.69 109.97
  L 111.06 118.61
  Z
  M 85.34 121.83
  L 94.74 126.97
  Q 95.17 127.21 95.61 127.01
  L 105.43 122.67
  A 0.67 0.67 0.0 0 0 105.83 122.01
  L 105.37 111.66
  Q 105.34 111.05 104.77 111.25
  Q 94.26 114.91 85.32 121.51
  Q 85.08 121.69 85.34 121.83
  Z
  M 91.65 131.85
  C 85.37 128.09 75.91 122.64 68.82 121.57
  Q 68.34 121.50 68.32 121.98
  L 67.96 130.04
  Q 67.93 130.62 68.46 130.88
  Q 78.97 136.05 90.96 134.91
  A 1.65 1.65 0.0 0 0 91.65 131.85
  Z
  M 114.35 135.82
  L 121.53 133.77
  Q 122.18 133.59 122.13 132.92
  L 121.41 122.27
  Q 121.35 121.30 120.43 121.64
  L 112.28 124.61
  Q 111.67 124.83 112.00 125.39
  Q 114.71 130.02 113.88 135.41
  Q 113.80 135.98 114.35 135.82
  Z
  M 121.38 139.60
  C 113.48 142.26 106.64 143.15 99.04 141.49
  C 92.28 140.02 84.93 140.81 77.94 139.87
  C 74.62 139.42 71.70 138.12 68.59 136.84
  Q 68.00 136.60 68.00 137.24
  L 68.00 142.19
  Q 68.00 142.62 68.34 142.88
  C 74.37 147.54 81.69 148.89 89.07 149.74
  Q 89.61 149.80 90.10 149.56
  Q 95.25 146.99 100.48 149.41
  Q 100.98 149.64 101.43 149.32
  Q 110.41 142.88 121.43 142.10
  Q 122.00 142.06 122.00 141.49
  L 122.00 140.04
  Q 122.00 139.39 121.38 139.60
  Z
  M 121.34 147.83
  Q 112.69 148.34 105.54 153.25
  Q 105.13 153.52 105.57 153.73
  Q 113.39 157.51 122.04 156.37
  Q 122.65 156.29 122.63 155.67
  L 122.41 148.81
  Q 122.38 147.77 121.34 147.83
  Z
  M 76.93 153.43
  L 68.40 149.83
  Q 67.99 149.66 67.96 150.10
  L 67.46 156.76
  Q 67.39 157.74 68.31 157.37
  L 76.93 153.84
  A 0.22 0.22 0.0 0 0 76.93 153.43
  Z
  M 70.82 165.91
  Q 77.23 166.38 84.51 165.82
  A 1.07 1.06 -2.0 0 0 85.50 164.76
  L 85.50 155.79
  A 0.87 0.87 0.0 0 0 84.06 155.13
  Q 77.48 160.82 68.88 162.58
  Q 68.36 162.69 68.27 163.21
  C 67.91 165.22 68.99 165.77 70.82 165.91
  Z
  M 122.25 162.75
  Q 122.29 162.61 122.25 162.47
  Q 122.14 161.99 121.64 162.05
  Q 114.24 163.03 107.35 160.38
  Q 106.66 160.11 106.70 160.85
  L 106.88 164.50
  Q 106.92 165.31 107.72 165.42
  Q 114.62 166.33 121.54 165.66
  Q 122.27 165.59 122.26 164.85
  L 122.22 162.95
  Q 122.22 162.85 122.25 162.75
  Z"
/>
<g fill="#f8f8f8">
<path d="
  M 86.30 50.36
  C 91.80 49.65 97.90 51.63 101.25 56.26
  Q 101.63 56.79 101.00 56.63
  Q 93.23 54.64 86.22 50.78
  Q 85.62 50.45 86.30 50.36
  Z"
/>
<path d="
  M 79.33 52.80
  C 86.91 58.26 95.16 61.21 104.19 63.30
  Q 104.79 63.44 104.83 64.05
  L 105.06 67.67
  Q 105.11 68.47 104.33 68.30
  Q 89.02 64.94 74.90 58.16
  A 1.02 1.01 -54.2 0 1 74.64 56.51
  L 78.42 52.86
  Q 78.85 52.45 79.33 52.80
  Z"
/>
<path d="
  M 85.31 68.68
  A 0.11 0.11 0.0 0 1 85.30 68.89
  Q 78.18 70.13 70.97 69.67
  Q 70.22 69.62 70.35 68.89
  L 71.39 63.07
  Q 71.52 62.38 72.13 62.73
  Q 78.42 66.37 85.31 68.68
  Z"
/>
<path d="
  M 110.63 73.96
  C 118.08 74.53 115.48 84.50 109.98 86.48
  Q 109.53 86.64 109.55 86.16
  L 110.16 74.38
  Q 110.18 73.93 110.63 73.96
  Z"
/>
<path d="
  M 72.05 85.68
  C 82.82 86.20 94.41 84.88 103.82 79.22
  Q 104.46 78.83 104.38 79.57
  L 103.56 86.86
  Q 103.49 87.48 102.87 87.52
  C 96.17 87.96 83.23 88.21 74.38 90.59
  Q 73.82 90.74 73.58 90.21
  L 71.72 86.17
  Q 71.49 85.66 72.05 85.68
  Z"
/>
<path d="
  M 107.25 93.63
  C 108.12 92.78 111.65 91.31 112.24 93.26
  Q 112.43 93.88 111.78 93.94
  L 107.55 94.29
  Q 106.47 94.38 107.25 93.63
  Z"
/>
<path d="
  M 79.50 96.57
  Q 76.80 95.22 79.81 95.00
  L 100.21 93.45
  Q 100.91 93.40 100.46 93.94
  C 95.46 99.87 85.88 99.75 79.50 96.57
  Z"
/>
<path d="
  M 77.81 102.19
  Q 78.24 102.14 78.51 102.39
  Q 78.97 102.83 78.33 102.93
  L 70.09 104.14
  Q 69.49 104.23 69.51 103.62
  Q 69.65 100.20 71.18 97.16
  Q 71.46 96.60 71.90 97.05
  Q 74.67 99.88 77.81 102.19
  Z"
/>
<path d="
  M 69.67 109.42
  C 78.20 109.28 85.29 105.89 92.56 104.13
  Q 95.69 103.37 99.79 101.88
  Q 107.28 99.18 115.42 99.64
  Q 115.89 99.66 116.07 100.10
  L 117.03 102.41
  Q 117.29 103.04 116.61 103.12
  Q 95.95 105.47 80.15 118.84
  Q 79.81 119.13 79.38 119.00
  L 68.84 115.75
  Q 68.48 115.64 68.41 115.27
  Q 67.89 112.52 68.98 109.89
  Q 69.17 109.43 69.67 109.42
  Z"
/>
<path d="
  M 111.06 118.61
  L 110.69 109.97
  A 0.32 0.32 0.0 0 1 110.96 109.64
  L 118.90 108.37
  A 0.32 0.32 0.0 0 1 119.27 108.63
  L 120.54 115.51
  A 0.32 0.32 0.0 0 1 120.33 115.87
  L 111.49 118.90
  A 0.32 0.32 0.0 0 1 111.06 118.61
  Z"
/>
<path d="
  M 85.34 121.83
  Q 85.08 121.69 85.32 121.51
  Q 94.26 114.91 104.77 111.25
  Q 105.34 111.05 105.37 111.66
  L 105.83 122.01
  A 0.67 0.67 0.0 0 1 105.43 122.67
  L 95.61 127.01
  Q 95.17 127.21 94.74 126.97
  L 85.34 121.83
  Z"
/>
<path d="
  M 91.65 131.85
  A 1.65 1.65 0.0 0 1 90.96 134.91
  Q 78.97 136.05 68.46 130.88
  Q 67.93 130.62 67.96 130.04
  L 68.32 121.98
  Q 68.34 121.50 68.82 121.57
  C 75.91 122.64 85.37 128.09 91.65 131.85
  Z"
/>
<path d="
  M 114.35 135.82
  Q 113.80 135.98 113.88 135.41
  Q 114.71 130.02 112.00 125.39
  Q 111.67 124.83 112.28 124.61
  L 120.43 121.64
  Q 121.35 121.30 121.41 122.27
  L 122.13 132.92
  Q 122.18 133.59 121.53 133.77
  L 114.35 135.82
  Z"
/>
<path d="
  M 99.04 141.49
  C 106.64 143.15 113.48 142.26 121.38 139.60
  Q 122.00 139.39 122.00 140.04
  L 122.00 141.49
  Q 122.00 142.06 121.43 142.10
  Q 110.41 142.88 101.43 149.32
  Q 100.98 149.64 100.48 149.41
  Q 95.25 146.99 90.10 149.56
  Q 89.61 149.80 89.07 149.74
  C 81.69 148.89 74.37 147.54 68.34 142.88
  Q 68.00 142.62 68.00 142.19
  L 68.00 137.24
  Q 68.00 136.60 68.59 136.84
  C 71.70 138.12 74.62 139.42 77.94 139.87
  C 84.93 140.81 92.28 140.02 99.04 141.49
  Z"
/>
<path d="
  M 122.41 148.81
  L 122.63 155.67
  Q 122.65 156.29 122.04 156.37
  Q 113.39 157.51 105.57 153.73
  Q 105.13 153.52 105.54 153.25
  Q 112.69 148.34 121.34 147.83
  Q 122.38 147.77 122.41 148.81
  Z"
/>
<path d="
  M 76.93 153.43
  A 0.22 0.22 0.0 0 1 76.93 153.84
  L 68.31 157.37
  Q 67.39 157.74 67.46 156.76
  L 67.96 150.10
  Q 67.99 149.66 68.40 149.83
  L 76.93 153.43
  Z"
/>
<path d="
  M 70.82 165.91
  C 68.99 165.77 67.91 165.22 68.27 163.21
  Q 68.36 162.69 68.88 162.58
  Q 77.48 160.82 84.06 155.13
  A 0.87 0.87 0.0 0 1 85.50 155.79
  L 85.50 164.76
  A 1.07 1.06 -2.0 0 1 84.51 165.82
  Q 77.23 166.38 70.82 165.91
  Z"
/>
<path d="
  M 122.22 162.95
  L 122.26 164.85
  Q 122.27 165.59 121.54 165.66
  Q 114.62 166.33 107.72 165.42
  Q 106.92 165.31 106.88 164.50
  L 106.70 160.85
  Q 106.66 160.11 107.35 160.38
  Q 114.24 163.03 121.64 162.05
  Q 122.14 161.99 122.25 162.47
  Q 122.29 162.61 122.25 162.75
  Q 122.22 162.85 122.22 162.95
  Z"
/>
</g>
</svg>
