<?xml version="1.0" encoding="UTF-8" standalone="no"?>
<!DOCTYPE svg PUBLIC "-//W3C//DTD SVG 1.1//EN" "http://www.w3.org/Graphics/SVG/1.1/DTD/svg11.dtd">
<svg xmlns="http://www.w3.org/2000/svg" version="1.1" viewBox="0 0 180 180">
<g stroke-width="2.00" fill="none" stroke-linecap="butt">
<path stroke="#82883e" vector-effect="non-scaling-stroke" d="
  M 97.66 95.27
  C 94.85 95.13 90.77 95.29 88.77 93.94
  C 84.56 91.09 91.83 82.62 94.95 79.68
  Q 96.58 78.14 99.67 78.06
  Q 100.19 78.04 100.58 78.38
  Q 103.64 80.96 103.87 85.41
  A 1.56 1.56 0.0 0 0 106.24 86.67
  Q 112.63 82.82 115.44 75.84
  Q 115.94 74.59 114.60 74.71
  C 111.88 74.95 106.89 75.85 104.97 73.00
  Q 104.68 72.57 104.72 72.05
  C 105.86 59.21 99.79 48.79 85.37 50.44
  C 77.47 51.34 72.89 57.86 71.12 65.04
  C 70.06 69.31 70.63 74.47 70.87 79.09
  Q 70.90 79.61 71.27 79.97
  C 74.59 83.18 80.61 89.92 77.44 93.69
  Q 77.12 94.08 77.43 94.48
  C 82.01 100.34 92.47 99.35 97.86 96.05
  A 0.42 0.42 0.0 0 0 97.66 95.27"
/>
<path stroke="#98989a" vector-effect="non-scaling-stroke" d="
  M 45.60 76.91
  C 40.80 74.31 34.53 71.79 29.14 70.80
  A 0.61 0.60 -81.1 0 0 28.43 71.32
  C 27.58 77.83 26.41 91.29 29.63 97.10
  Q 29.88 97.55 30.39 97.52
  Q 36.05 97.10 41.39 95.22
  C 45.54 93.77 46.80 96.33 48.09 99.76
  Q 48.28 100.25 48.80 100.25
  L 54.94 100.25
  Q 55.64 100.25 55.62 99.55
  L 55.08 79.07
  A 0.89 0.88 87.3 0 0 54.13 78.20
  C 50.90 78.43 48.61 78.55 45.60 76.91"
/>
<path stroke="#98989a" vector-effect="non-scaling-stroke" d="
  M 68.44 89.78
  L 71.58 89.43
  Q 72.25 89.35 71.84 88.81
  L 68.27 84.24
  Q 67.50 83.25 67.50 84.50
  L 67.50 88.94
  A 0.85 0.84 86.7 0 0 68.44 89.78"
/>
<path stroke="#98989a" vector-effect="non-scaling-stroke" d="
  M 94.21 88.75
  A 0.43 0.43 0.0 0 0 94.51 89.44
  L 98.02 89.82
  A 0.43 0.43 0.0 0 0 98.50 89.39
  L 98.50 84.41
  A 0.43 0.43 0.0 0 0 97.73 84.15
  L 94.21 88.75"
/>
<path stroke="#82883e" vector-effect="non-scaling-stroke" d="
  M 110.92 91.72
  A 1.82 1.81 33.7 0 0 107.81 92.34
  Q 106.27 97.16 102.18 100.13
  Q 101.36 100.73 102.32 100.40
  Q 108.41 98.33 114.76 99.36
  Q 115.51 99.48 115.22 98.78
  Q 113.69 94.96 110.92 91.72"
/>
<path stroke="#82883e" vector-effect="non-scaling-stroke" d="
  M 95.47 103.58
  C 86.57 105.76 77.96 104.38 71.98 96.99
  Q 71.62 96.54 71.33 97.04
  Q 70.16 99.14 69.97 100.50
  Q 67.93 115.07 68.16 129.76
  A 0.36 0.36 0.0 0 0 68.52 130.12
  L 82.34 129.95
  Q 82.94 129.94 82.95 129.34
  Q 83.32 113.50 95.63 103.91
  Q 96.34 103.37 95.47 103.58"
/>
<path stroke="#533d3e" vector-effect="non-scaling-stroke" d="
  M 119.47 106.96
  C 117.26 108.33 108.76 119.12 106.63 112.59
  A 1.65 1.63 60.6 0 1 107.11 110.84
  L 113.42 105.35
  A 0.34 0.34 0.0 0 0 113.20 104.75
  C 99.95 104.55 90.61 113.09 88.90 126.17
  Q 88.80 126.93 89.50 126.61
  C 91.61 125.65 93.19 127.49 92.96 129.37
  C 92.76 131.02 90.64 132.19 89.36 133.18
  Q 88.91 133.52 89.14 134.04
  L 91.91 140.43
  Q 92.22 141.14 92.78 140.61
  Q 97.43 136.23 101.96 131.70
  C 105.22 128.44 108.64 133.92 105.11 136.91
  Q 100.83 140.54 96.78 144.55
  Q 96.22 145.10 96.92 145.44
  L 102.29 148.07
  Q 102.88 148.35 103.37 147.92
  Q 110.07 141.95 116.96 136.19
  C 120.36 133.35 124.63 137.13 120.03 140.93
  Q 115.41 144.72 110.78 148.62
  Q 110.25 149.07 110.94 149.14
  Q 121.46 150.31 127.64 142.72
  C 130.15 139.65 130.69 135.78 131.21 131.89
  A 0.35 0.35 0.0 0 0 130.65 131.57
  L 128.04 133.62
  Q 127.50 134.04 126.88 133.76
  Q 124.74 132.83 124.73 130.67
  Q 124.73 130.14 125.07 129.75
  L 130.04 123.98
  Q 130.44 123.52 130.29 122.94
  L 128.65 116.24
  A 0.30 0.30 0.0 0 0 128.16 116.09
  L 114.23 128.86
  Q 113.83 129.23 113.29 129.26
  Q 110.18 129.44 109.74 126.58
  Q 109.66 126.08 109.98 125.68
  C 114.24 120.32 120.05 116.21 124.72 111.04
  Q 125.12 110.60 124.65 110.24
  L 120.42 107.00
  Q 119.96 106.65 119.47 106.96"
/>
<path stroke="#533d3e" vector-effect="non-scaling-stroke" d="
  M 50.71 106.60
  L 51.45 145.70
  Q 51.46 146.49 52.21 146.26
  L 52.71 146.10
  Q 53.29 145.92 53.28 145.32
  Q 53.13 126.41 53.50 107.50
  Q 53.53 105.70 51.30 105.93
  A 0.66 0.66 0.0 0 0 50.71 106.60"
/>
<path stroke="#82883e" vector-effect="non-scaling-stroke" d="
  M 62.3073 128.1132
  A 0.26 0.26 0.0 0 0 62.0496 127.8510
  L 59.5697 127.8293
  A 0.26 0.26 0.0 0 0 59.3075 128.0870
  L 59.2527 134.3668
  A 0.26 0.26 0.0 0 0 59.5104 134.6290
  L 61.9903 134.6507
  A 0.26 0.26 0.0 0 0 62.2525 134.3930
  L 62.3073 128.1132"
/>
<path stroke="#533d3e" vector-effect="non-scaling-stroke" d="
  M 83.89 136.15
  A 0.59 0.59 0.0 0 0 83.31 135.71
  L 68.84 135.84
  A 0.59 0.59 0.0 0 0 68.25 136.43
  L 68.25 138.95
  A 0.59 0.59 0.0 0 0 68.85 139.54
  L 84.00 139.41
  A 0.59 0.59 0.0 0 0 84.56 138.66
  L 83.89 136.15"
/>
<path stroke="#533d3e" vector-effect="non-scaling-stroke" d="
  M 91.18 148.22
  L 88.55 145.59
  Q 88.26 145.29 87.85 145.30
  L 68.70 145.51
  A 0.52 0.52 0.0 0 0 68.19 146.02
  C 68.04 152.43 67.06 158.64 68.62 164.97
  Q 68.74 165.45 69.22 165.58
  C 73.72 166.77 79.14 165.75 84.10 165.72
  A 1.44 1.44 0.0 0 0 85.53 164.24
  C 85.38 159.07 84.29 151.27 90.92 149.27
  Q 91.92 148.97 91.18 148.22"
/>
<path stroke="#533d3e" vector-effect="non-scaling-stroke" d="
  M 122.01 153.87
  C 116.21 155.60 112.00 154.70 106.35 154.67
  Q 105.76 154.67 105.93 155.24
  Q 107.19 159.47 106.79 163.95
  A 1.36 1.36 0.0 0 0 108.00 165.42
  Q 114.81 166.12 121.65 165.48
  Q 122.17 165.44 122.19 164.91
  L 122.56 154.30
  Q 122.58 153.70 122.01 153.87"
/>
<path stroke="#82883e" vector-effect="non-scaling-stroke" d="
  M 85.0582 75.4323
  A 2.58 2.58 0.0 0 0 82.4514 72.8795
  L 82.2514 72.8816
  A 2.58 2.58 0.0 0 0 79.6985 75.4884
  L 79.8418 89.1677
  A 2.58 2.58 0.0 0 0 82.4486 91.7205
  L 82.6486 91.7184
  A 2.58 2.58 0.0 0 0 85.2015 89.1116
  L 85.0582 75.4323"
/>
<path stroke="#533d3e" vector-effect="non-scaling-stroke" d="
  M 103.3757 117.2871
  A 2.47 2.47 0.0 0 0 99.8992 116.9462
  L 95.2783 120.7419
  A 2.47 2.47 0.0 0 0 94.9374 124.2184
  L 95.0643 124.3729
  A 2.47 2.47 0.0 0 0 98.5408 124.7138
  L 103.1617 120.9181
  A 2.47 2.47 0.0 0 0 103.5026 117.4416
  L 103.3757 117.2871"
/>
</g>
<g fill="#38383c">
<path d="
  M 111.76 69.33
  Q 117.22 68.91 119.75 69.97
  C 125.44 72.35 117.40 84.09 114.95 86.72
  Q 114.58 87.11 114.92 87.52
  Q 119.91 93.69 122.62 101.18
  Q 122.81 101.69 123.28 101.97
  C 136.12 109.63 138.72 126.50 135.63 139.85
  C 134.61 144.25 131.60 147.35 128.50 150.41
  Q 128.13 150.78 128.15 151.29
  C 128.41 158.38 130.31 170.48 122.52 171.32
  Q 114.14 172.22 107.57 171.14
  C 100.00 169.89 101.88 163.93 100.70 158.55
  C 99.72 154.06 96.07 152.66 92.09 154.70
  A 1.87 1.86 -15.5 0 0 91.08 156.48
  C 91.49 162.55 92.91 171.61 83.81 171.76
  C 79.08 171.84 68.74 173.09 64.64 168.94
  C 60.76 165.01 62.44 146.90 62.57 141.29
  Q 62.58 140.70 61.99 140.61
  L 59.77 140.29
  Q 59.16 140.21 59.16 140.82
  C 59.15 145.07 60.14 151.17 54.05 151.80
  C 46.49 152.57 45.60 147.69 45.50 141.36
  Q 45.29 127.94 45.23 114.50
  Q 45.21 110.05 45.71 105.61
  Q 45.76 105.14 45.39 104.85
  Q 43.60 103.48 42.91 101.31
  Q 42.73 100.75 42.17 100.93
  Q 34.87 103.24 27.77 102.72
  C 20.33 102.18 20.86 68.60 25.62 65.77
  C 29.63 63.39 42.50 69.04 46.79 71.33
  C 53.26 74.79 59.59 68.84 60.43 79.64
  Q 61.51 93.48 61.39 99.18
  Q 61.34 101.64 59.21 104.67
  Q 58.93 105.08 58.94 105.58
  L 59.24 121.76
  Q 59.25 122.26 59.76 122.26
  L 62.12 122.23
  Q 62.73 122.22 62.72 121.61
  Q 62.57 110.99 64.28 100.50
  Q 64.69 97.99 65.79 95.67
  Q 66.01 95.21 65.58 94.94
  C 60.53 91.78 61.47 82.54 64.94 78.61
  Q 65.27 78.24 65.26 77.74
  C 65.00 66.00 66.31 53.97 77.67 47.38
  C 88.12 41.32 101.08 45.27 107.51 55.15
  C 110.14 59.18 110.62 63.88 111.02 68.70
  Q 111.08 69.38 111.76 69.33
  Z
  M 97.66 95.27
  C 94.85 95.13 90.77 95.29 88.77 93.94
  C 84.56 91.09 91.83 82.62 94.95 79.68
  Q 96.58 78.14 99.67 78.06
  Q 100.19 78.04 100.58 78.38
  Q 103.64 80.96 103.87 85.41
  A 1.56 1.56 0.0 0 0 106.24 86.67
  Q 112.63 82.82 115.44 75.84
  Q 115.94 74.59 114.60 74.71
  C 111.88 74.95 106.89 75.85 104.97 73.00
  Q 104.68 72.57 104.72 72.05
  C 105.86 59.21 99.79 48.79 85.37 50.44
  C 77.47 51.34 72.89 57.86 71.12 65.04
  C 70.06 69.31 70.63 74.47 70.87 79.09
  Q 70.90 79.61 71.27 79.97
  C 74.59 83.18 80.61 89.92 77.44 93.69
  Q 77.12 94.08 77.43 94.48
  C 82.01 100.34 92.47 99.35 97.86 96.05
  A 0.42 0.42 0.0 0 0 97.66 95.27
  Z
  M 45.60 76.91
  C 40.80 74.31 34.53 71.79 29.14 70.80
  A 0.61 0.60 -81.1 0 0 28.43 71.32
  C 27.58 77.83 26.41 91.29 29.63 97.10
  Q 29.88 97.55 30.39 97.52
  Q 36.05 97.10 41.39 95.22
  C 45.54 93.77 46.80 96.33 48.09 99.76
  Q 48.28 100.25 48.80 100.25
  L 54.94 100.25
  Q 55.64 100.25 55.62 99.55
  L 55.08 79.07
  A 0.89 0.88 87.3 0 0 54.13 78.20
  C 50.90 78.43 48.61 78.55 45.60 76.91
  Z
  M 68.44 89.78
  L 71.58 89.43
  Q 72.25 89.35 71.84 88.81
  L 68.27 84.24
  Q 67.50 83.25 67.50 84.50
  L 67.50 88.94
  A 0.85 0.84 86.7 0 0 68.44 89.78
  Z
  M 94.21 88.75
  A 0.43 0.43 0.0 0 0 94.51 89.44
  L 98.02 89.82
  A 0.43 0.43 0.0 0 0 98.50 89.39
  L 98.50 84.41
  A 0.43 0.43 0.0 0 0 97.73 84.15
  L 94.21 88.75
  Z
  M 110.92 91.72
  A 1.82 1.81 33.7 0 0 107.81 92.34
  Q 106.27 97.16 102.18 100.13
  Q 101.36 100.73 102.32 100.40
  Q 108.41 98.33 114.76 99.36
  Q 115.51 99.48 115.22 98.78
  Q 113.69 94.96 110.92 91.72
  Z
  M 95.47 103.58
  C 86.57 105.76 77.96 104.38 71.98 96.99
  Q 71.62 96.54 71.33 97.04
  Q 70.16 99.14 69.97 100.50
  Q 67.93 115.07 68.16 129.76
  A 0.36 0.36 0.0 0 0 68.52 130.12
  L 82.34 129.95
  Q 82.94 129.94 82.95 129.34
  Q 83.32 113.50 95.63 103.91
  Q 96.34 103.37 95.47 103.58
  Z
  M 119.47 106.96
  C 117.26 108.33 108.76 119.12 106.63 112.59
  A 1.65 1.63 60.6 0 1 107.11 110.84
  L 113.42 105.35
  A 0.34 0.34 0.0 0 0 113.20 104.75
  C 99.95 104.55 90.61 113.09 88.90 126.17
  Q 88.80 126.93 89.50 126.61
  C 91.61 125.65 93.19 127.49 92.96 129.37
  C 92.76 131.02 90.64 132.19 89.36 133.18
  Q 88.91 133.52 89.14 134.04
  L 91.91 140.43
  Q 92.22 141.14 92.78 140.61
  Q 97.43 136.23 101.96 131.70
  C 105.22 128.44 108.64 133.92 105.11 136.91
  Q 100.83 140.54 96.78 144.55
  Q 96.22 145.10 96.92 145.44
  L 102.29 148.07
  Q 102.88 148.35 103.37 147.92
  Q 110.07 141.95 116.96 136.19
  C 120.36 133.35 124.63 137.13 120.03 140.93
  Q 115.41 144.72 110.78 148.62
  Q 110.25 149.07 110.94 149.14
  Q 121.46 150.31 127.64 142.72
  C 130.15 139.65 130.69 135.78 131.21 131.89
  A 0.35 0.35 0.0 0 0 130.65 131.57
  L 128.04 133.62
  Q 127.50 134.04 126.88 133.76
  Q 124.74 132.83 124.73 130.67
  Q 124.73 130.14 125.07 129.75
  L 130.04 123.98
  Q 130.44 123.52 130.29 122.94
  L 128.65 116.24
  A 0.30 0.30 0.0 0 0 128.16 116.09
  L 114.23 128.86
  Q 113.83 129.23 113.29 129.26
  Q 110.18 129.44 109.74 126.58
  Q 109.66 126.08 109.98 125.68
  C 114.24 120.32 120.05 116.21 124.72 111.04
  Q 125.12 110.60 124.65 110.24
  L 120.42 107.00
  Q 119.96 106.65 119.47 106.96
  Z
  M 50.71 106.60
  L 51.45 145.70
  Q 51.46 146.49 52.21 146.26
  L 52.71 146.10
  Q 53.29 145.92 53.28 145.32
  Q 53.13 126.41 53.50 107.50
  Q 53.53 105.70 51.30 105.93
  A 0.66 0.66 0.0 0 0 50.71 106.60
  Z
  M 62.3073 128.1132
  A 0.26 0.26 0.0 0 0 62.0496 127.8510
  L 59.5697 127.8293
  A 0.26 0.26 0.0 0 0 59.3075 128.0870
  L 59.2527 134.3668
  A 0.26 0.26 0.0 0 0 59.5104 134.6290
  L 61.9903 134.6507
  A 0.26 0.26 0.0 0 0 62.2525 134.3930
  L 62.3073 128.1132
  Z
  M 83.89 136.15
  A 0.59 0.59 0.0 0 0 83.31 135.71
  L 68.84 135.84
  A 0.59 0.59 0.0 0 0 68.25 136.43
  L 68.25 138.95
  A 0.59 0.59 0.0 0 0 68.85 139.54
  L 84.00 139.41
  A 0.59 0.59 0.0 0 0 84.56 138.66
  L 83.89 136.15
  Z
  M 91.18 148.22
  L 88.55 145.59
  Q 88.26 145.29 87.85 145.30
  L 68.70 145.51
  A 0.52 0.52 0.0 0 0 68.19 146.02
  C 68.04 152.43 67.06 158.64 68.62 164.97
  Q 68.74 165.45 69.22 165.58
  C 73.72 166.77 79.14 165.75 84.10 165.72
  A 1.44 1.44 0.0 0 0 85.53 164.24
  C 85.38 159.07 84.29 151.27 90.92 149.27
  Q 91.92 148.97 91.18 148.22
  Z
  M 122.01 153.87
  C 116.21 155.60 112.00 154.70 106.35 154.67
  Q 105.76 154.67 105.93 155.24
  Q 107.19 159.47 106.79 163.95
  A 1.36 1.36 0.0 0 0 108.00 165.42
  Q 114.81 166.12 121.65 165.48
  Q 122.17 165.44 122.19 164.91
  L 122.56 154.30
  Q 122.58 153.70 122.01 153.87
  Z"
/>
<rect x="-2.68" y="-9.42" transform="translate(82.45,82.30) rotate(-0.6)" width="5.36" height="18.84" rx="2.58"/>
<rect x="-5.46" y="-2.57" transform="translate(99.22,120.83) rotate(-39.4)" width="10.92" height="5.14" rx="2.47"/>
</g>
<g fill="#ccd73f">
<path d="
  M 97.66 95.27
  A 0.42 0.42 0.0 0 1 97.86 96.05
  C 92.47 99.35 82.01 100.34 77.43 94.48
  Q 77.12 94.08 77.44 93.69
  C 80.61 89.92 74.59 83.18 71.27 79.97
  Q 70.90 79.61 70.87 79.09
  C 70.63 74.47 70.06 69.31 71.12 65.04
  C 72.89 57.86 77.47 51.34 85.37 50.44
  C 99.79 48.79 105.86 59.21 104.72 72.05
  Q 104.68 72.57 104.97 73.00
  C 106.89 75.85 111.88 74.95 114.60 74.71
  Q 115.94 74.59 115.44 75.84
  Q 112.63 82.82 106.24 86.67
  A 1.56 1.56 0.0 0 1 103.87 85.41
  Q 103.64 80.96 100.58 78.38
  Q 100.19 78.04 99.67 78.06
  Q 96.58 78.14 94.95 79.68
  C 91.83 82.62 84.56 91.09 88.77 93.94
  C 90.77 95.29 94.85 95.13 97.66 95.27
  Z
  M 85.0582 75.4323
  A 2.58 2.58 0.0 0 0 82.4514 72.8795
  L 82.2514 72.8816
  A 2.58 2.58 0.0 0 0 79.6985 75.4884
  L 79.8418 89.1677
  A 2.58 2.58 0.0 0 0 82.4486 91.7205
  L 82.6486 91.7184
  A 2.58 2.58 0.0 0 0 85.2015 89.1116
  L 85.0582 75.4323
  Z"
/>
<path d="
  M 110.92 91.72
  Q 113.69 94.96 115.22 98.78
  Q 115.51 99.48 114.76 99.36
  Q 108.41 98.33 102.32 100.40
  Q 101.36 100.73 102.18 100.13
  Q 106.27 97.16 107.81 92.34
  A 1.82 1.81 33.7 0 1 110.92 91.72
  Z"
/>
<path d="
  M 71.98 96.99
  C 77.96 104.38 86.57 105.76 95.47 103.58
  Q 96.34 103.37 95.63 103.91
  Q 83.32 113.50 82.95 129.34
  Q 82.94 129.94 82.34 129.95
  L 68.52 130.12
  A 0.36 0.36 0.0 0 1 68.16 129.76
  Q 67.93 115.07 69.97 100.50
  Q 70.16 99.14 71.33 97.04
  Q 71.62 96.54 71.98 96.99
  Z"
/>
<rect x="-1.50" y="-3.40" transform="translate(60.78,131.24) rotate(0.5)" width="3.00" height="6.80" rx="0.26"/>
</g>
<g fill="#6e423f">
<path d="
  M 106.63 112.59
  C 108.76 119.12 117.26 108.33 119.47 106.96
  Q 119.96 106.65 120.42 107.00
  L 124.65 110.24
  Q 125.12 110.60 124.72 111.04
  C 120.05 116.21 114.24 120.32 109.98 125.68
  Q 109.66 126.08 109.74 126.58
  Q 110.18 129.44 113.29 129.26
  Q 113.83 129.23 114.23 128.86
  L 128.16 116.09
  A 0.30 0.30 0.0 0 1 128.65 116.24
  L 130.29 122.94
  Q 130.44 123.52 130.04 123.98
  L 125.07 129.75
  Q 124.73 130.14 124.73 130.67
  Q 124.74 132.83 126.88 133.76
  Q 127.50 134.04 128.04 133.62
  L 130.65 131.57
  A 0.35 0.35 0.0 0 1 131.21 131.89
  C 130.69 135.78 130.15 139.65 127.64 142.72
  Q 121.46 150.31 110.94 149.14
  Q 110.25 149.07 110.78 148.62
  Q 115.41 144.72 120.03 140.93
  C 124.63 137.13 120.36 133.35 116.96 136.19
  Q 110.07 141.95 103.37 147.92
  Q 102.88 148.35 102.29 148.07
  L 96.92 145.44
  Q 96.22 145.10 96.78 144.55
  Q 100.83 140.54 105.11 136.91
  C 108.64 133.92 105.22 128.44 101.96 131.70
  Q 97.43 136.23 92.78 140.61
  Q 92.22 141.14 91.91 140.43
  L 89.14 134.04
  Q 88.91 133.52 89.36 133.18
  C 90.64 132.19 92.76 131.02 92.96 129.37
  C 93.19 127.49 91.61 125.65 89.50 126.61
  Q 88.80 126.93 88.90 126.17
  C 90.61 113.09 99.95 104.55 113.20 104.75
  A 0.34 0.34 0.0 0 1 113.42 105.35
  L 107.11 110.84
  A 1.65 1.63 60.6 0 0 106.63 112.59
  Z
  M 103.3757 117.2871
  A 2.47 2.47 0.0 0 0 99.8992 116.9462
  L 95.2783 120.7419
  A 2.47 2.47 0.0 0 0 94.9374 124.2184
  L 95.0643 124.3729
  A 2.47 2.47 0.0 0 0 98.5408 124.7138
  L 103.1617 120.9181
  A 2.47 2.47 0.0 0 0 103.5026 117.4416
  L 103.3757 117.2871
  Z"
/>
<path d="
  M 50.71 106.60
  A 0.66 0.66 0.0 0 1 51.30 105.93
  Q 53.53 105.70 53.50 107.50
  Q 53.13 126.41 53.28 145.32
  Q 53.29 145.92 52.71 146.10
  L 52.21 146.26
  Q 51.46 146.49 51.45 145.70
  L 50.71 106.60
  Z"
/>
<path d="
  M 83.89 136.15
  L 84.56 138.66
  A 0.59 0.59 0.0 0 1 84.00 139.41
  L 68.85 139.54
  A 0.59 0.59 0.0 0 1 68.25 138.95
  L 68.25 136.43
  A 0.59 0.59 0.0 0 1 68.84 135.84
  L 83.31 135.71
  A 0.59 0.59 0.0 0 1 83.89 136.15
  Z"
/>
<path d="
  M 91.18 148.22
  Q 91.92 148.97 90.92 149.27
  C 84.29 151.27 85.38 159.07 85.53 164.24
  A 1.44 1.44 0.0 0 1 84.10 165.72
  C 79.14 165.75 73.72 166.77 69.22 165.58
  Q 68.74 165.45 68.62 164.97
  C 67.06 158.64 68.04 152.43 68.19 146.02
  A 0.52 0.52 0.0 0 1 68.70 145.51
  L 87.85 145.30
  Q 88.26 145.29 88.55 145.59
  L 91.18 148.22
  Z"
/>
<path d="
  M 106.35 154.67
  C 112.00 154.70 116.21 155.60 122.01 153.87
  Q 122.58 153.70 122.56 154.30
  L 122.19 164.91
  Q 122.17 165.44 121.65 165.48
  Q 114.81 166.12 108.00 165.42
  A 1.36 1.36 0.0 0 1 106.79 163.95
  Q 107.19 159.47 105.93 155.24
  Q 105.76 154.67 106.35 154.67
  Z"
/>
</g>
<g fill="#f8f8f8">
<path d="
  M 29.14 70.80
  C 34.53 71.79 40.80 74.31 45.60 76.91
  C 48.61 78.55 50.90 78.43 54.13 78.20
  A 0.89 0.88 87.3 0 1 55.08 79.07
  L 55.62 99.55
  Q 55.64 100.25 54.94 100.25
  L 48.80 100.25
  Q 48.28 100.25 48.09 99.76
  C 46.80 96.33 45.54 93.77 41.39 95.22
  Q 36.05 97.10 30.39 97.52
  Q 29.88 97.55 29.63 97.10
  C 26.41 91.29 27.58 77.83 28.43 71.32
  A 0.61 0.60 -81.1 0 1 29.14 70.80
  Z"
/>
<path d="
  M 68.44 89.78
  A 0.85 0.84 86.7 0 1 67.50 88.94
  L 67.50 84.50
  Q 67.50 83.25 68.27 84.24
  L 71.84 88.81
  Q 72.25 89.35 71.58 89.43
  L 68.44 89.78
  Z"
/>
<path d="
  M 94.21 88.75
  L 97.73 84.15
  A 0.43 0.43 0.0 0 1 98.50 84.41
  L 98.50 89.39
  A 0.43 0.43 0.0 0 1 98.02 89.82
  L 94.51 89.44
  A 0.43 0.43 0.0 0 1 94.21 88.75
  Z"
/>
</g>
</svg>
