<?xml version="1.0" encoding="UTF-8" standalone="no"?>
<!DOCTYPE svg PUBLIC "-//W3C//DTD SVG 1.1//EN" "http://www.w3.org/Graphics/SVG/1.1/DTD/svg11.dtd">
<svg xmlns="http://www.w3.org/2000/svg" version="1.1" viewBox="0 0 180 180">
<g stroke-width="2.00" fill="none" stroke-linecap="butt">
<path stroke="#98989a" vector-effect="non-scaling-stroke" d="
  M 106.26 68.51
  C 104.10 61.75 87.99 63.66 81.56 63.94
  C 69.22 64.49 69.02 72.16 69.30 82.17
  Q 69.44 87.27 70.45 92.65
  A 2.18 2.17 -5.6 0 0 72.60 94.41
  C 77.20 94.37 76.38 100.00 76.87 102.81
  Q 76.98 103.48 77.65 103.50
  L 87.88 103.85
  Q 88.45 103.86 88.49 103.30
  L 88.84 98.34
  Q 88.87 97.90 89.14 97.55
  C 91.75 94.26 97.72 94.87 101.78 95.04
  Q 102.26 95.06 102.67 94.83
  C 110.85 90.25 108.77 76.35 106.26 68.51"
/>
<path stroke="#98989a" vector-effect="non-scaling-stroke" d="
  M 60.04 69.12
  C 58.54 71.19 57.71 72.43 57.79 75.15
  Q 58.40 95.23 58.78 115.35
  Q 58.79 116.00 59.44 116.00
  L 63.06 116.00
  Q 63.76 116.00 63.73 115.30
  C 63.20 101.86 62.86 88.24 62.69 74.79
  C 62.67 72.63 61.85 70.99 60.93 69.19
  Q 60.54 68.43 60.04 69.12"
/>
<path stroke="#533d3e" vector-effect="non-scaling-stroke" d="
  M 91.84 136.59
  C 94.83 133.82 97.91 130.91 100.69 127.93
  C 104.09 124.28 107.66 129.77 104.22 132.77
  Q 99.90 136.53 95.69 140.54
  Q 95.11 141.09 95.83 141.43
  L 100.84 143.77
  Q 101.40 144.03 101.84 143.60
  L 105.96 139.55
  A 2.19 2.19 0.0 0 1 109.37 139.98
  Q 110.99 142.67 108.54 144.28
  Q 107.53 144.95 108.74 145.03
  L 113.14 145.32
  Q 114.34 145.40 114.21 144.20
  C 113.63 138.67 114.85 137.92 119.54 136.13
  Q 120.02 135.95 119.99 135.43
  Q 119.73 131.04 122.69 127.91
  Q 123.05 127.54 123.55 127.43
  C 125.31 127.08 131.38 127.87 129.83 124.55
  Q 129.60 124.07 129.13 124.31
  C 127.24 125.28 125.13 124.46 125.24 122.22
  C 125.32 120.57 127.36 118.79 128.42 117.46
  Q 128.80 116.98 128.66 116.38
  L 127.67 112.32
  Q 127.47 111.46 126.85 112.08
  Q 120.70 118.21 114.22 123.96
  C 112.24 125.72 109.31 125.81 108.74 122.66
  Q 108.65 122.17 108.94 121.75
  Q 110.94 118.94 111.78 118.28
  Q 118.25 113.20 123.76 107.00
  Q 124.17 106.54 123.68 106.18
  L 119.42 103.04
  Q 118.97 102.71 118.53 103.07
  L 109.71 110.42
  A 2.40 2.38 52.5 0 1 106.22 109.95
  C 104.20 107.05 110.56 102.84 112.50 101.67
  A 0.49 0.48 30.2 0 0 112.26 100.77
  C 98.95 100.37 89.77 109.08 87.90 122.15
  Q 87.83 122.66 88.33 122.53
  L 89.40 122.27
  Q 89.93 122.13 90.41 122.40
  Q 92.38 123.47 91.95 125.80
  Q 91.84 126.33 91.43 126.68
  L 88.45 129.17
  Q 87.99 129.56 88.23 130.12
  L 90.89 136.39
  Q 91.22 137.16 91.84 136.59"
/>
<path stroke="#98989a" vector-effect="non-scaling-stroke" d="
  M 82.86 117.54
  L 77.24 117.32
  Q 76.38 117.29 77.01 117.87
  Q 78.27 119.05 78.36 120.77
  Q 78.39 121.40 79.01 121.52
  L 81.57 121.99
  Q 81.99 122.07 82.09 121.65
  L 82.97 117.68
  A 0.12 0.11 -83.8 0 0 82.86 117.54"
/>
<path stroke="#3d504e" vector-effect="non-scaling-stroke" d="
  M 49.34 121.71
  A 0.43 0.43 0.0 0 0 48.92 122.25
  L 49.30 123.73
  Q 49.48 124.43 50.17 124.22
  Q 54.78 122.85 58.11 126.05
  Q 58.50 126.42 58.50 126.96
  L 58.50 131.70
  Q 58.50 132.47 59.26 132.54
  L 62.42 132.82
  Q 63.25 132.90 63.25 132.07
  L 63.25 126.73
  Q 63.25 126.17 63.73 125.89
  Q 67.45 123.72 71.85 124.35
  Q 72.46 124.44 72.55 123.83
  L 72.75 122.51
  A 0.67 0.67 0.0 0 0 72.09 121.74
  L 49.34 121.71"
/>
<path stroke="#98989a" vector-effect="non-scaling-stroke" d="
  M 69.75 133.81
  L 74.75 132.98
  Q 75.47 132.86 75.48 132.13
  L 75.51 130.41
  Q 75.52 129.87 74.98 129.91
  L 69.56 130.35
  Q 69.00 130.39 69.00 130.95
  L 69.00 133.17
  Q 69.00 133.93 69.75 133.81"
/>
<path stroke="#98989a" vector-effect="non-scaling-stroke" d="
  M 84.24 147.67
  L 95.98 148.18
  Q 96.81 148.21 96.06 147.86
  Q 89.46 144.73 85.64 138.52
  Q 85.10 137.64 84.08 137.73
  L 76.39 138.36
  A 2.41 2.41 0.0 0 0 74.19 140.55
  Q 73.12 153.01 74.00 165.50
  Q 74.04 166.01 74.54 166.03
  L 81.34 166.32
  Q 81.78 166.34 81.78 165.90
  L 81.82 151.31
  Q 81.82 150.79 82.19 150.42
  Q 83.19 149.44 83.58 148.14
  Q 83.73 147.65 84.24 147.67"
/>
<path stroke="#98989a" vector-effect="non-scaling-stroke" d="
  M 111.87 151.09
  L 103.53 150.30
  Q 103.05 150.26 103.17 150.73
  Q 104.90 157.47 105.30 164.42
  C 105.50 167.99 110.45 166.71 112.80 166.39
  Q 113.42 166.31 113.38 165.69
  L 112.39 151.62
  Q 112.36 151.13 111.87 151.09"
/>
<path stroke="#98989a" vector-effect="non-scaling-stroke" d="
  M 76.5159 92.1000
  A 3.95 3.09 80.0 0 0 78.8731 87.6734
  A 3.95 3.09 80.0 0 0 75.1441 84.3200
  A 3.95 3.09 80.0 0 0 72.7869 88.7466
  A 3.95 3.09 80.0 0 0 76.5159 92.1000"
/>
<path stroke="#98989a" vector-effect="non-scaling-stroke" d="
  M 89.1928 92.2079
  A 3.77 3.25 96.2 0 0 92.8310 88.8110
  A 3.77 3.25 96.2 0 0 90.0072 84.7121
  A 3.77 3.25 96.2 0 0 86.3690 88.1090
  A 3.77 3.25 96.2 0 0 89.1928 92.2079"
/>
<path stroke="#533d3e" vector-effect="non-scaling-stroke" d="
  M 102.3323 113.3077
  A 2.43 2.43 0.0 0 0 98.9128 112.9664
  L 94.3316 116.7160
  A 2.43 2.43 0.0 0 0 93.9903 120.1356
  L 94.1677 120.3523
  A 2.43 2.43 0.0 0 0 97.5872 120.6936
  L 102.1684 116.9440
  A 2.43 2.43 0.0 0 0 102.5097 113.5244
  L 102.3323 113.3077"
/>
<path stroke="#533d3e" vector-effect="non-scaling-stroke" d="
  M 116.7574 130.9328
  A 2.38 2.38 0.0 0 0 113.3934 130.8212
  L 110.5166 133.5133
  A 2.38 2.38 0.0 0 0 110.4050 136.8773
  L 110.5826 137.0672
  A 2.38 2.38 0.0 0 0 113.9466 137.1788
  L 116.8234 134.4867
  A 2.38 2.38 0.0 0 0 116.9350 131.1227
  L 116.7574 130.9328"
/>
</g>
<g fill="#38383c">
<path d="
  M 65.37 66.74
  A 0.28 0.28 0.0 0 0 65.89 66.74
  C 69.85 57.84 80.37 58.35 88.41 58.10
  C 93.59 57.93 101.13 57.21 105.32 59.29
  C 115.69 64.46 115.42 85.82 111.55 94.62
  Q 111.34 95.09 111.86 95.14
  C 130.54 96.82 135.62 111.96 136.00 128.32
  C 136.14 134.40 129.89 132.33 126.36 132.54
  Q 125.82 132.57 125.69 133.10
  C 124.49 137.98 126.23 139.71 120.37 141.75
  A 1.12 1.12 0.0 0 0 119.68 143.17
  Q 120.58 145.78 120.01 148.44
  Q 119.89 149.01 119.39 149.29
  C 114.39 152.16 123.27 167.89 116.46 171.31
  C 111.99 173.56 104.26 172.81 100.28 169.07
  Q 99.94 168.75 99.90 168.28
  L 98.72 154.72
  Q 98.66 154.05 97.99 154.01
  L 87.84 153.40
  A 0.80 0.80 0.0 0 0 86.99 154.19
  C 86.94 157.68 88.80 169.46 86.50 171.66
  Q 86.11 172.03 85.57 172.02
  Q 79.06 171.82 72.59 171.54
  C 68.16 171.35 68.60 169.02 68.38 165.65
  Q 67.53 152.71 68.84 139.80
  Q 68.90 139.23 68.35 139.12
  C 61.65 137.68 53.34 140.46 53.03 130.25
  A 0.81 0.80 85.7 0 0 52.14 129.47
  C 43.52 130.41 43.69 125.75 43.76 119.06
  Q 43.77 118.47 44.18 118.06
  Q 47.11 115.19 51.50 116.10
  Q 53.15 116.45 53.13 114.76
  Q 52.97 96.40 52.47 77.06
  C 52.36 72.60 54.62 65.28 58.16 62.43
  C 61.10 60.07 64.30 64.23 65.37 66.74
  Z
  M 106.26 68.51
  C 104.10 61.75 87.99 63.66 81.56 63.94
  C 69.22 64.49 69.02 72.16 69.30 82.17
  Q 69.44 87.27 70.45 92.65
  A 2.18 2.17 -5.6 0 0 72.60 94.41
  C 77.20 94.37 76.38 100.00 76.87 102.81
  Q 76.98 103.48 77.65 103.50
  L 87.88 103.85
  Q 88.45 103.86 88.49 103.30
  L 88.84 98.34
  Q 88.87 97.90 89.14 97.55
  C 91.75 94.26 97.72 94.87 101.78 95.04
  Q 102.26 95.06 102.67 94.83
  C 110.85 90.25 108.77 76.35 106.26 68.51
  Z
  M 60.04 69.12
  C 58.54 71.19 57.71 72.43 57.79 75.15
  Q 58.40 95.23 58.78 115.35
  Q 58.79 116.00 59.44 116.00
  L 63.06 116.00
  Q 63.76 116.00 63.73 115.30
  C 63.20 101.86 62.86 88.24 62.69 74.79
  C 62.67 72.63 61.85 70.99 60.93 69.19
  Q 60.54 68.43 60.04 69.12
  Z
  M 69.28 114.87
  Q 69.17 115.30 69.35 115.82
  A 0.63 0.63 0.0 0 0 70.48 115.95
  C 71.47 114.38 70.81 111.83 73.55 111.79
  Q 79.00 111.73 84.45 111.75
  Q 85.00 111.76 85.00 111.21
  L 85.00 110.93
  Q 85.00 110.36 84.44 110.25
  C 79.01 109.20 70.42 109.42 71.29 101.28
  Q 71.35 100.73 70.96 100.34
  L 69.98 99.35
  A 0.58 0.57 -68.1 0 0 69.00 99.77
  L 69.34 114.36
  Q 69.34 114.62 69.28 114.87
  Z
  M 91.84 136.59
  C 94.83 133.82 97.91 130.91 100.69 127.93
  C 104.09 124.28 107.66 129.77 104.22 132.77
  Q 99.90 136.53 95.69 140.54
  Q 95.11 141.09 95.83 141.43
  L 100.84 143.77
  Q 101.40 144.03 101.84 143.60
  L 105.96 139.55
  A 2.19 2.19 0.0 0 1 109.37 139.98
  Q 110.99 142.67 108.54 144.28
  Q 107.53 144.95 108.74 145.03
  L 113.14 145.32
  Q 114.34 145.40 114.21 144.20
  C 113.63 138.67 114.85 137.92 119.54 136.13
  Q 120.02 135.95 119.99 135.43
  Q 119.73 131.04 122.69 127.91
  Q 123.05 127.54 123.55 127.43
  C 125.31 127.08 131.38 127.87 129.83 124.55
  Q 129.60 124.07 129.13 124.31
  C 127.24 125.28 125.13 124.46 125.24 122.22
  C 125.32 120.57 127.36 118.79 128.42 117.46
  Q 128.80 116.98 128.66 116.38
  L 127.67 112.32
  Q 127.47 111.46 126.85 112.08
  Q 120.70 118.21 114.22 123.96
  C 112.24 125.72 109.31 125.81 108.74 122.66
  Q 108.65 122.17 108.94 121.75
  Q 110.94 118.94 111.78 118.28
  Q 118.25 113.20 123.76 107.00
  Q 124.17 106.54 123.68 106.18
  L 119.42 103.04
  Q 118.97 102.71 118.53 103.07
  L 109.71 110.42
  A 2.40 2.38 52.5 0 1 106.22 109.95
  C 104.20 107.05 110.56 102.84 112.50 101.67
  A 0.49 0.48 30.2 0 0 112.26 100.77
  C 98.95 100.37 89.77 109.08 87.90 122.15
  Q 87.83 122.66 88.33 122.53
  L 89.40 122.27
  Q 89.93 122.13 90.41 122.40
  Q 92.38 123.47 91.95 125.80
  Q 91.84 126.33 91.43 126.68
  L 88.45 129.17
  Q 87.99 129.56 88.23 130.12
  L 90.89 136.39
  Q 91.22 137.16 91.84 136.59
  Z
  M 82.86 117.54
  L 77.24 117.32
  Q 76.38 117.29 77.01 117.87
  Q 78.27 119.05 78.36 120.77
  Q 78.39 121.40 79.01 121.52
  L 81.57 121.99
  Q 81.99 122.07 82.09 121.65
  L 82.97 117.68
  A 0.12 0.11 -83.8 0 0 82.86 117.54
  Z
  M 49.34 121.71
  A 0.43 0.43 0.0 0 0 48.92 122.25
  L 49.30 123.73
  Q 49.48 124.43 50.17 124.22
  Q 54.78 122.85 58.11 126.05
  Q 58.50 126.42 58.50 126.96
  L 58.50 131.70
  Q 58.50 132.47 59.26 132.54
  L 62.42 132.82
  Q 63.25 132.90 63.25 132.07
  L 63.25 126.73
  Q 63.25 126.17 63.73 125.89
  Q 67.45 123.72 71.85 124.35
  Q 72.46 124.44 72.55 123.83
  L 72.75 122.51
  A 0.67 0.67 0.0 0 0 72.09 121.74
  L 49.34 121.71
  Z
  M 81.34 127.22
  A 0.37 0.36 -67.7 0 0 80.70 127.49
  L 81.05 131.67
  Q 81.09 132.11 81.52 132.24
  C 83.91 132.96 81.98 127.97 81.34 127.22
  Z
  M 69.75 133.81
  L 74.75 132.98
  Q 75.47 132.86 75.48 132.13
  L 75.51 130.41
  Q 75.52 129.87 74.98 129.91
  L 69.56 130.35
  Q 69.00 130.39 69.00 130.95
  L 69.00 133.17
  Q 69.00 133.93 69.75 133.81
  Z
  M 84.24 147.67
  L 95.98 148.18
  Q 96.81 148.21 96.06 147.86
  Q 89.46 144.73 85.64 138.52
  Q 85.10 137.64 84.08 137.73
  L 76.39 138.36
  A 2.41 2.41 0.0 0 0 74.19 140.55
  Q 73.12 153.01 74.00 165.50
  Q 74.04 166.01 74.54 166.03
  L 81.34 166.32
  Q 81.78 166.34 81.78 165.90
  L 81.82 151.31
  Q 81.82 150.79 82.19 150.42
  Q 83.19 149.44 83.58 148.14
  Q 83.73 147.65 84.24 147.67
  Z
  M 111.87 151.09
  L 103.53 150.30
  Q 103.05 150.26 103.17 150.73
  Q 104.90 157.47 105.30 164.42
  C 105.50 167.99 110.45 166.71 112.80 166.39
  Q 113.42 166.31 113.38 165.69
  L 112.39 151.62
  Q 112.36 151.13 111.87 151.09
  Z"
/>
<ellipse cx="0.00" cy="0.00" transform="translate(75.83,88.21) rotate(80.0)" rx="3.95" ry="3.09"/>
<ellipse cx="0.00" cy="0.00" transform="translate(89.60,88.46) rotate(96.2)" rx="3.77" ry="3.25"/>
<rect x="-5.39" y="-2.57" transform="translate(98.25,116.83) rotate(-39.3)" width="10.78" height="5.14" rx="2.43"/>
<rect x="-4.35" y="-2.51" transform="translate(113.67,134.00) rotate(-43.1)" width="8.70" height="5.02" rx="2.38"/>
</g>
<g fill="#f8f8f8">
<path d="
  M 81.56 63.94
  C 87.99 63.66 104.10 61.75 106.26 68.51
  C 108.77 76.35 110.85 90.25 102.67 94.83
  Q 102.26 95.06 101.78 95.04
  C 97.72 94.87 91.75 94.26 89.14 97.55
  Q 88.87 97.90 88.84 98.34
  L 88.49 103.30
  Q 88.45 103.86 87.88 103.85
  L 77.65 103.50
  Q 76.98 103.48 76.87 102.81
  C 76.38 100.00 77.20 94.37 72.60 94.41
  A 2.18 2.17 -5.6 0 1 70.45 92.65
  Q 69.44 87.27 69.30 82.17
  C 69.02 72.16 69.22 64.49 81.56 63.94
  Z
  M 76.5159 92.1000
  A 3.95 3.09 80.0 0 0 78.8731 87.6734
  A 3.95 3.09 80.0 0 0 75.1441 84.3200
  A 3.95 3.09 80.0 0 0 72.7869 88.7466
  A 3.95 3.09 80.0 0 0 76.5159 92.1000
  Z
  M 89.1928 92.2079
  A 3.77 3.25 96.2 0 0 92.8310 88.8110
  A 3.77 3.25 96.2 0 0 90.0072 84.7121
  A 3.77 3.25 96.2 0 0 86.3690 88.1090
  A 3.77 3.25 96.2 0 0 89.1928 92.2079
  Z"
/>
<path d="
  M 60.04 69.12
  Q 60.54 68.43 60.93 69.19
  C 61.85 70.99 62.67 72.63 62.69 74.79
  C 62.86 88.24 63.20 101.86 63.73 115.30
  Q 63.76 116.00 63.06 116.00
  L 59.44 116.00
  Q 58.79 116.00 58.78 115.35
  Q 58.40 95.23 57.79 75.15
  C 57.71 72.43 58.54 71.19 60.04 69.12
  Z"
/>
<path d="
  M 82.86 117.54
  A 0.12 0.11 -83.8 0 1 82.97 117.68
  L 82.09 121.65
  Q 81.99 122.07 81.57 121.99
  L 79.01 121.52
  Q 78.39 121.40 78.36 120.77
  Q 78.27 119.05 77.01 117.87
  Q 76.38 117.29 77.24 117.32
  L 82.86 117.54
  Z"
/>
<path d="
  M 69.00 133.17
  L 69.00 130.95
  Q 69.00 130.39 69.56 130.35
  L 74.98 129.91
  Q 75.52 129.87 75.51 130.41
  L 75.48 132.13
  Q 75.47 132.86 74.75 132.98
  L 69.75 133.81
  Q 69.00 133.93 69.00 133.17
  Z"
/>
<path d="
  M 83.58 148.14
  Q 83.19 149.44 82.19 150.42
  Q 81.82 150.79 81.82 151.31
  L 81.78 165.90
  Q 81.78 166.34 81.34 166.32
  L 74.54 166.03
  Q 74.04 166.01 74.00 165.50
  Q 73.12 153.01 74.19 140.55
  A 2.41 2.41 0.0 0 1 76.39 138.36
  L 84.08 137.73
  Q 85.10 137.64 85.64 138.52
  Q 89.46 144.73 96.06 147.86
  Q 96.81 148.21 95.98 148.18
  L 84.24 147.67
  Q 83.73 147.65 83.58 148.14
  Z"
/>
<path d="
  M 103.53 150.30
  L 111.87 151.09
  Q 112.36 151.13 112.39 151.62
  L 113.38 165.69
  Q 113.42 166.31 112.80 166.39
  C 110.45 166.71 105.50 167.99 105.30 164.42
  Q 104.90 157.47 103.17 150.73
  Q 103.05 150.26 103.53 150.30
  Z"
/>
</g>
<path fill="#6e423f" d="
  M 100.69 127.93
  C 97.91 130.91 94.83 133.82 91.84 136.59
  Q 91.22 137.16 90.89 136.39
  L 88.23 130.12
  Q 87.99 129.56 88.45 129.17
  L 91.43 126.68
  Q 91.84 126.33 91.95 125.80
  Q 92.38 123.47 90.41 122.40
  Q 89.93 122.13 89.40 122.27
  L 88.33 122.53
  Q 87.83 122.66 87.90 122.15
  C 89.77 109.08 98.95 100.37 112.26 100.77
  A 0.49 0.48 30.2 0 1 112.50 101.67
  C 110.56 102.84 104.20 107.05 106.22 109.95
  A 2.40 2.38 52.5 0 0 109.71 110.42
  L 118.53 103.07
  Q 118.97 102.71 119.42 103.04
  L 123.68 106.18
  Q 124.17 106.54 123.76 107.00
  Q 118.25 113.20 111.78 118.28
  Q 110.94 118.94 108.94 121.75
  Q 108.65 122.17 108.74 122.66
  C 109.31 125.81 112.24 125.72 114.22 123.96
  Q 120.70 118.21 126.85 112.08
  Q 127.47 111.46 127.67 112.32
  L 128.66 116.38
  Q 128.80 116.98 128.42 117.46
  C 127.36 118.79 125.32 120.57 125.24 122.22
  C 125.13 124.46 127.24 125.28 129.13 124.31
  Q 129.60 124.07 129.83 124.55
  C 131.38 127.87 125.31 127.08 123.55 127.43
  Q 123.05 127.54 122.69 127.91
  Q 119.73 131.04 119.99 135.43
  Q 120.02 135.95 119.54 136.13
  C 114.85 137.92 113.63 138.67 114.21 144.20
  Q 114.34 145.40 113.14 145.32
  L 108.74 145.03
  Q 107.53 144.95 108.54 144.28
  Q 110.99 142.67 109.37 139.98
  A 2.19 2.19 0.0 0 0 105.96 139.55
  L 101.84 143.60
  Q 101.40 144.03 100.84 143.77
  L 95.83 141.43
  Q 95.11 141.09 95.69 140.54
  Q 99.90 136.53 104.22 132.77
  C 107.66 129.77 104.09 124.28 100.69 127.93
  Z
  M 102.3323 113.3077
  A 2.43 2.43 0.0 0 0 98.9128 112.9664
  L 94.3316 116.7160
  A 2.43 2.43 0.0 0 0 93.9903 120.1356
  L 94.1677 120.3523
  A 2.43 2.43 0.0 0 0 97.5872 120.6936
  L 102.1684 116.9440
  A 2.43 2.43 0.0 0 0 102.5097 113.5244
  L 102.3323 113.3077
  Z
  M 116.7574 130.9328
  A 2.38 2.38 0.0 0 0 113.3934 130.8212
  L 110.5166 133.5133
  A 2.38 2.38 0.0 0 0 110.4050 136.8773
  L 110.5826 137.0672
  A 2.38 2.38 0.0 0 0 113.9466 137.1788
  L 116.8234 134.4867
  A 2.38 2.38 0.0 0 0 116.9350 131.1227
  L 116.7574 130.9328
  Z"
/>
<path fill="#42685f" d="
  M 49.34 121.71
  L 72.09 121.74
  A 0.67 0.67 0.0 0 1 72.75 122.51
  L 72.55 123.83
  Q 72.46 124.44 71.85 124.35
  Q 67.45 123.72 63.73 125.89
  Q 63.25 126.17 63.25 126.73
  L 63.25 132.07
  Q 63.25 132.90 62.42 132.82
  L 59.26 132.54
  Q 58.50 132.47 58.50 131.70
  L 58.50 126.96
  Q 58.50 126.42 58.11 126.05
  Q 54.78 122.85 50.17 124.22
  Q 49.48 124.43 49.30 123.73
  L 48.92 122.25
  A 0.43 0.43 0.0 0 1 49.34 121.71
  Z"
/>
</svg>
