<?xml version="1.0" encoding="UTF-8" standalone="no"?>
<!DOCTYPE svg PUBLIC "-//W3C//DTD SVG 1.1//EN" "http://www.w3.org/Graphics/SVG/1.1/DTD/svg11.dtd">
<svg xmlns="http://www.w3.org/2000/svg" version="1.1" viewBox="0 0 180 180">
<g stroke-width="2.00" fill="none" stroke-linecap="butt">
<path stroke="#98989a" vector-effect="non-scaling-stroke" d="
  M 106.16 68.33
  C 105.31 65.75 102.22 64.17 99.70 64.07
  C 91.91 63.76 78.06 62.18 72.81 66.70
  C 67.30 71.46 69.26 86.14 70.41 92.55
  A 2.34 2.33 -5.8 0 0 72.78 94.47
  C 77.14 94.33 76.42 100.22 76.87 102.81
  Q 76.98 103.48 77.65 103.50
  L 87.88 103.85
  Q 88.45 103.86 88.49 103.30
  L 88.84 98.31
  Q 88.87 97.82 89.19 97.46
  C 93.49 92.58 100.01 97.15 104.23 93.90
  C 110.66 88.96 108.38 75.03 106.16 68.33"
/>
<path stroke="#98989a" vector-effect="non-scaling-stroke" d="
  M 96.93 111.27
  L 96.19 101.34
  Q 96.14 100.70 95.52 100.53
  Q 94.79 100.32 94.32 101.09
  Q 94.10 101.48 94.15 101.92
  Q 94.72 106.49 91.11 108.83
  C 89.88 109.63 89.75 110.30 90.41 111.60
  Q 90.62 112.02 91.09 112.02
  L 96.30 111.96
  Q 96.99 111.95 96.93 111.27"
/>
<path stroke="#98989a" vector-effect="non-scaling-stroke" d="
  M 105.41 101.04
  Q 103.76 100.58 102.04 100.77
  Q 101.46 100.83 101.54 101.42
  L 101.82 103.53
  Q 101.88 103.93 102.28 103.91
  L 105.48 103.67
  Q 106.06 103.63 106.17 103.06
  Q 106.38 101.99 105.51 101.11
  A 0.22 0.21 79.3 0 0 105.41 101.04"
/>
<path stroke="#98989a" vector-effect="non-scaling-stroke" d="
  M 110.18 117.36
  L 76.46 117.46
  Q 76.08 117.46 76.11 117.85
  L 76.31 120.56
  Q 76.35 121.08 76.86 121.17
  C 84.35 122.50 90.49 121.81 97.52 121.55
  C 101.19 121.42 105.82 120.27 110.23 120.71
  Q 110.75 120.76 110.75 120.24
  L 110.75 117.93
  Q 110.75 117.35 110.18 117.36"
/>
<path stroke="#98989a" vector-effect="non-scaling-stroke" d="
  M 113.84 130.89
  C 116.20 126.22 108.94 126.10 106.37 126.24
  C 104.75 126.33 102.74 128.35 103.03 129.99
  C 103.55 132.96 111.09 131.90 113.21 131.39
  Q 113.64 131.29 113.84 130.89"
/>
<path stroke="#98989a" vector-effect="non-scaling-stroke" d="
  M 74.52 127.39
  Q 69.41 126.04 66.51 128.74
  Q 65.05 130.09 65.97 131.68
  C 67.54 134.41 72.79 133.68 75.14 132.64
  Q 75.66 132.41 75.58 131.85
  L 75.01 127.93
  Q 74.95 127.50 74.52 127.39"
/>
<path stroke="#98989a" vector-effect="non-scaling-stroke" d="
  M 96.7164 127.7890
  A 0.60 0.60 0.0 0 0 96.0908 127.2158
  L 92.1346 127.3885
  A 0.60 0.60 0.0 0 0 91.5614 128.0141
  L 91.7036 131.2710
  A 0.60 0.60 0.0 0 0 92.3292 131.8442
  L 96.2854 131.6715
  A 0.60 0.60 0.0 0 0 96.8586 131.0459
  L 96.7164 127.7890"
/>
<path stroke="#98989a" vector-effect="non-scaling-stroke" d="
  M 84.28 147.66
  L 101.53 148.32
  Q 102.04 148.34 102.15 148.85
  Q 102.36 149.81 103.00 150.57
  Q 103.34 150.98 103.45 151.50
  Q 104.72 157.79 105.11 164.20
  C 105.35 168.02 110.59 166.71 112.81 166.43
  Q 113.37 166.35 113.33 165.79
  L 111.64 138.76
  Q 111.61 138.30 111.15 138.26
  Q 93.94 136.78 76.73 138.29
  C 74.75 138.47 74.28 139.34 74.16 141.18
  Q 73.25 154.50 73.97 165.43
  Q 74.01 165.94 74.52 165.97
  L 81.35 166.31
  Q 81.79 166.34 81.79 165.90
  L 81.79 151.81
  Q 81.79 151.30 82.08 150.88
  Q 83.02 149.52 83.69 148.02
  Q 83.86 147.64 84.28 147.66"
/>
<path stroke="#98989a" vector-effect="non-scaling-stroke" d="
  M 76.4887 92.1047
  A 3.95 3.08 80.4 0 0 78.8669 87.6964
  A 3.95 3.08 80.4 0 0 75.1713 84.3153
  A 3.95 3.08 80.4 0 0 72.7931 88.7236
  A 3.95 3.08 80.4 0 0 76.4887 92.1047"
/>
<path stroke="#98989a" vector-effect="non-scaling-stroke" d="
  M 89.1928 92.2079
  A 3.77 3.25 96.2 0 0 92.8310 88.8110
  A 3.77 3.25 96.2 0 0 90.0072 84.7121
  A 3.77 3.25 96.2 0 0 86.3690 88.1090
  A 3.77 3.25 96.2 0 0 89.1928 92.2079"
/>
</g>
<g fill="#38383c">
<path d="
  M 102.55 111.55
  C 111.89 111.82 117.21 109.26 116.38 121.80
  Q 116.34 122.32 116.73 122.68
  Q 122.03 127.56 118.50 134.39
  Q 118.25 134.87 117.77 135.11
  Q 116.40 135.80 116.76 137.22
  C 117.87 141.51 117.47 145.29 117.69 148.71
  C 118.04 154.24 118.30 159.91 119.11 165.39
  C 120.52 174.93 104.75 173.48 100.36 169.22
  Q 99.96 168.83 99.91 168.28
  L 98.74 154.73
  Q 98.68 154.06 98.01 154.02
  L 87.61 153.39
  Q 87.07 153.36 87.05 153.90
  Q 86.79 161.12 87.78 167.23
  Q 88.24 170.07 86.44 171.68
  Q 86.04 172.03 85.52 172.02
  Q 79.03 171.82 72.59 171.54
  C 68.19 171.36 68.59 169.05 68.38 165.67
  Q 67.55 152.74 68.82 139.84
  Q 68.87 139.30 68.34 139.19
  C 55.79 136.83 58.55 121.78 70.37 121.51
  Q 70.96 121.50 70.91 120.91
  C 70.72 118.68 69.82 113.62 72.48 112.26
  C 74.83 111.05 81.61 111.80 84.45 111.78
  Q 85.10 111.78 85.03 111.14
  C 84.70 108.12 69.50 111.79 71.36 100.87
  Q 71.45 100.33 70.97 100.06
  C 67.23 97.95 65.82 97.00 64.99 92.50
  C 63.45 84.15 62.35 73.66 65.75 66.74
  C 70.37 57.34 82.44 58.04 91.85 58.01
  C 99.93 57.98 104.98 57.11 109.34 62.64
  C 114.96 69.77 116.38 89.83 109.66 96.48
  Q 109.29 96.86 109.61 97.28
  Q 112.80 101.44 111.01 106.64
  Q 110.82 107.19 110.33 107.49
  Q 106.82 109.60 102.68 109.19
  Q 102.00 109.12 102.00 109.81
  L 102.00 110.99
  Q 102.00 111.53 102.55 111.55
  Z
  M 106.16 68.33
  C 105.31 65.75 102.22 64.17 99.70 64.07
  C 91.91 63.76 78.06 62.18 72.81 66.70
  C 67.30 71.46 69.26 86.14 70.41 92.55
  A 2.34 2.33 -5.8 0 0 72.78 94.47
  C 77.14 94.33 76.42 100.22 76.87 102.81
  Q 76.98 103.48 77.65 103.50
  L 87.88 103.85
  Q 88.45 103.86 88.49 103.30
  L 88.84 98.31
  Q 88.87 97.82 89.19 97.46
  C 93.49 92.58 100.01 97.15 104.23 93.90
  C 110.66 88.96 108.38 75.03 106.16 68.33
  Z
  M 96.93 111.27
  L 96.19 101.34
  Q 96.14 100.70 95.52 100.53
  Q 94.79 100.32 94.32 101.09
  Q 94.10 101.48 94.15 101.92
  Q 94.72 106.49 91.11 108.83
  C 89.88 109.63 89.75 110.30 90.41 111.60
  Q 90.62 112.02 91.09 112.02
  L 96.30 111.96
  Q 96.99 111.95 96.93 111.27
  Z
  M 105.41 101.04
  Q 103.76 100.58 102.04 100.77
  Q 101.46 100.83 101.54 101.42
  L 101.82 103.53
  Q 101.88 103.93 102.28 103.91
  L 105.48 103.67
  Q 106.06 103.63 106.17 103.06
  Q 106.38 101.99 105.51 101.11
  A 0.22 0.21 79.3 0 0 105.41 101.04
  Z
  M 110.18 117.36
  L 76.46 117.46
  Q 76.08 117.46 76.11 117.85
  L 76.31 120.56
  Q 76.35 121.08 76.86 121.17
  C 84.35 122.50 90.49 121.81 97.52 121.55
  C 101.19 121.42 105.82 120.27 110.23 120.71
  Q 110.75 120.76 110.75 120.24
  L 110.75 117.93
  Q 110.75 117.35 110.18 117.36
  Z
  M 113.84 130.89
  C 116.20 126.22 108.94 126.10 106.37 126.24
  C 104.75 126.33 102.74 128.35 103.03 129.99
  C 103.55 132.96 111.09 131.90 113.21 131.39
  Q 113.64 131.29 113.84 130.89
  Z
  M 74.52 127.39
  Q 69.41 126.04 66.51 128.74
  Q 65.05 130.09 65.97 131.68
  C 67.54 134.41 72.79 133.68 75.14 132.64
  Q 75.66 132.41 75.58 131.85
  L 75.01 127.93
  Q 74.95 127.50 74.52 127.39
  Z
  M 96.7164 127.7890
  A 0.60 0.60 0.0 0 0 96.0908 127.2158
  L 92.1346 127.3885
  A 0.60 0.60 0.0 0 0 91.5614 128.0141
  L 91.7036 131.2710
  A 0.60 0.60 0.0 0 0 92.3292 131.8442
  L 96.2854 131.6715
  A 0.60 0.60 0.0 0 0 96.8586 131.0459
  L 96.7164 127.7890
  Z
  M 86.45 128.90
  Q 86.56 128.55 86.50 128.28
  Q 86.39 127.78 85.88 127.76
  L 81.01 127.52
  Q 80.52 127.49 80.59 127.98
  L 81.12 131.71
  Q 81.20 132.24 81.73 132.20
  L 85.85 131.92
  Q 86.38 131.88 86.48 131.36
  Q 86.65 130.45 86.43 129.64
  Q 86.32 129.27 86.45 128.90
  Z
  M 84.28 147.66
  L 101.53 148.32
  Q 102.04 148.34 102.15 148.85
  Q 102.36 149.81 103.00 150.57
  Q 103.34 150.98 103.45 151.50
  Q 104.72 157.79 105.11 164.20
  C 105.35 168.02 110.59 166.71 112.81 166.43
  Q 113.37 166.35 113.33 165.79
  L 111.64 138.76
  Q 111.61 138.30 111.15 138.26
  Q 93.94 136.78 76.73 138.29
  C 74.75 138.47 74.28 139.34 74.16 141.18
  Q 73.25 154.50 73.97 165.43
  Q 74.01 165.94 74.52 165.97
  L 81.35 166.31
  Q 81.79 166.34 81.79 165.90
  L 81.79 151.81
  Q 81.79 151.30 82.08 150.88
  Q 83.02 149.52 83.69 148.02
  Q 83.86 147.64 84.28 147.66
  Z"
/>
<ellipse cx="0.00" cy="0.00" transform="translate(75.83,88.21) rotate(80.4)" rx="3.95" ry="3.08"/>
<ellipse cx="0.00" cy="0.00" transform="translate(89.60,88.46) rotate(96.2)" rx="3.77" ry="3.25"/>
</g>
<g fill="#f8f8f8">
<path d="
  M 99.70 64.07
  C 102.22 64.17 105.31 65.75 106.16 68.33
  C 108.38 75.03 110.66 88.96 104.23 93.90
  C 100.01 97.15 93.49 92.58 89.19 97.46
  Q 88.87 97.82 88.84 98.31
  L 88.49 103.30
  Q 88.45 103.86 87.88 103.85
  L 77.65 103.50
  Q 76.98 103.48 76.87 102.81
  C 76.42 100.22 77.14 94.33 72.78 94.47
  A 2.34 2.33 -5.8 0 1 70.41 92.55
  C 69.26 86.14 67.30 71.46 72.81 66.70
  C 78.06 62.18 91.91 63.76 99.70 64.07
  Z
  M 76.4887 92.1047
  A 3.95 3.08 80.4 0 0 78.8669 87.6964
  A 3.95 3.08 80.4 0 0 75.1713 84.3153
  A 3.95 3.08 80.4 0 0 72.7931 88.7236
  A 3.95 3.08 80.4 0 0 76.4887 92.1047
  Z
  M 89.1928 92.2079
  A 3.77 3.25 96.2 0 0 92.8310 88.8110
  A 3.77 3.25 96.2 0 0 90.0072 84.7121
  A 3.77 3.25 96.2 0 0 86.3690 88.1090
  A 3.77 3.25 96.2 0 0 89.1928 92.2079
  Z"
/>
<path d="
  M 96.30 111.96
  L 91.09 112.02
  Q 90.62 112.02 90.41 111.60
  C 89.75 110.30 89.88 109.63 91.11 108.83
  Q 94.72 106.49 94.15 101.92
  Q 94.10 101.48 94.32 101.09
  Q 94.79 100.32 95.52 100.53
  Q 96.14 100.70 96.19 101.34
  L 96.93 111.27
  Q 96.99 111.95 96.30 111.96
  Z"
/>
<path d="
  M 105.41 101.04
  A 0.22 0.21 79.3 0 1 105.51 101.11
  Q 106.38 101.99 106.17 103.06
  Q 106.06 103.63 105.48 103.67
  L 102.28 103.91
  Q 101.88 103.93 101.82 103.53
  L 101.54 101.42
  Q 101.46 100.83 102.04 100.77
  Q 103.76 100.58 105.41 101.04
  Z"
/>
<path d="
  M 76.46 117.46
  L 110.18 117.36
  Q 110.75 117.35 110.75 117.93
  L 110.75 120.24
  Q 110.75 120.76 110.23 120.71
  C 105.82 120.27 101.19 121.42 97.52 121.55
  C 90.49 121.81 84.35 122.50 76.86 121.17
  Q 76.35 121.08 76.31 120.56
  L 76.11 117.85
  Q 76.08 117.46 76.46 117.46
  Z"
/>
<path d="
  M 106.37 126.24
  C 108.94 126.10 116.20 126.22 113.84 130.89
  Q 113.64 131.29 113.21 131.39
  C 111.09 131.90 103.55 132.96 103.03 129.99
  C 102.74 128.35 104.75 126.33 106.37 126.24
  Z"
/>
<path d="
  M 75.01 127.93
  L 75.58 131.85
  Q 75.66 132.41 75.14 132.64
  C 72.79 133.68 67.54 134.41 65.97 131.68
  Q 65.05 130.09 66.51 128.74
  Q 69.41 126.04 74.52 127.39
  Q 74.95 127.50 75.01 127.93
  Z"
/>
<rect x="-2.58" y="-2.23" transform="translate(94.21,129.53) rotate(-2.5)" width="5.16" height="4.46" rx="0.60"/>
<path d="
  M 83.69 148.02
  Q 83.02 149.52 82.08 150.88
  Q 81.79 151.30 81.79 151.81
  L 81.79 165.90
  Q 81.79 166.34 81.35 166.31
  L 74.52 165.97
  Q 74.01 165.94 73.97 165.43
  Q 73.25 154.50 74.16 141.18
  C 74.28 139.34 74.75 138.47 76.73 138.29
  Q 93.94 136.78 111.15 138.26
  Q 111.61 138.30 111.64 138.76
  L 113.33 165.79
  Q 113.37 166.35 112.81 166.43
  C 110.59 166.71 105.35 168.02 105.11 164.20
  Q 104.72 157.79 103.45 151.50
  Q 103.34 150.98 103.00 150.57
  Q 102.36 149.81 102.15 148.85
  Q 102.04 148.34 101.53 148.32
  L 84.28 147.66
  Q 83.86 147.64 83.69 148.02
  Z"
/>
</g>
</svg>
