<?xml version="1.0" encoding="UTF-8" standalone="no"?>
<!DOCTYPE svg PUBLIC "-//W3C//DTD SVG 1.1//EN" "http://www.w3.org/Graphics/SVG/1.1/DTD/svg11.dtd">
<svg xmlns="http://www.w3.org/2000/svg" version="1.1" viewBox="0 0 180 180">
<g stroke-width="2.00" fill="none" stroke-linecap="butt">
<path stroke="#98989a" vector-effect="non-scaling-stroke" d="
  M 106.23 68.53
  C 104.76 63.99 100.43 64.25 96.68 63.92
  Q 87.36 63.08 78.06 64.34
  C 66.51 65.91 68.68 83.28 70.29 91.50
  Q 70.56 92.86 71.18 93.78
  Q 71.48 94.22 72.02 94.26
  C 77.33 94.65 76.21 98.80 76.79 102.40
  Q 76.97 103.52 78.10 103.55
  L 87.67 103.83
  Q 88.44 103.85 88.50 103.08
  L 88.84 98.34
  Q 88.87 97.91 89.14 97.56
  C 91.76 94.23 97.51 94.92 101.90 95.02
  Q 102.36 95.04 102.77 94.80
  Q 106.94 92.35 107.69 88.95
  Q 109.78 79.52 106.23 68.53"
/>
<path stroke="#9c3d44" vector-effect="non-scaling-stroke" d="
  M 122.81 78.69
  Q 121.30 77.32 119.38 76.85
  Q 118.40 76.61 118.87 77.50
  Q 120.02 79.68 122.13 80.88
  Q 122.59 81.15 123.01 80.82
  C 123.54 80.39 123.93 78.85 122.81 78.69"
/>
<path stroke="#9c3d44" vector-effect="non-scaling-stroke" d="
  M 129.39 80.00
  A 0.58 0.58 0.0 0 0 128.83 80.43
  L 128.18 82.84
  A 0.58 0.58 0.0 0 0 128.96 83.52
  L 134.64 81.11
  A 0.58 0.58 0.0 0 0 134.42 80.00
  L 129.39 80.00"
/>
<path stroke="#9c3d44" vector-effect="non-scaling-stroke" d="
  M 120.83 89.24
  C 123.68 86.35 118.40 85.47 116.79 84.38
  A 0.50 0.49 -84.2 0 0 116.06 84.98
  Q 117.23 87.87 119.99 89.36
  Q 120.46 89.61 120.83 89.24"
/>
<path stroke="#9c3d44" vector-effect="non-scaling-stroke" d="
  M 134.80 88.33
  C 132.70 88.18 125.09 88.43 126.04 92.04
  Q 126.18 92.56 126.69 92.39
  L 134.97 89.65
  A 0.68 0.68 0.0 0 0 134.80 88.33"
/>
<path stroke="#533d3e" vector-effect="non-scaling-stroke" d="
  M 68.77 134.80
  C 54.88 128.21 52.57 107.10 61.10 95.61
  Q 62.03 94.35 61.92 93.25
  A 0.76 0.75 67.2 0 0 60.69 92.74
  C 54.79 97.61 53.75 106.42 53.87 113.45
  C 54.04 123.99 59.16 132.43 67.86 138.05
  Q 68.47 138.44 68.81 137.81
  L 69.90 135.84
  Q 70.13 135.42 69.75 135.14
  C 69.53 134.98 68.94 134.88 68.77 134.80"
/>
<path stroke="#533d3e" vector-effect="non-scaling-stroke" d="
  M 126.27 105.60
  C 126.25 101.98 118.04 100.33 115.27 99.90
  Q 114.70 99.81 114.55 100.37
  L 111.86 110.81
  Q 111.71 111.39 112.29 111.58
  C 117.52 113.29 116.78 117.43 116.52 121.83
  Q 116.49 122.27 116.80 122.59
  Q 123.09 129.13 117.23 135.86
  Q 116.92 136.21 116.98 136.67
  L 117.94 144.44
  A 0.27 0.27 0.0 0 0 118.46 144.52
  Q 119.85 141.34 120.57 138.01
  Q 123.15 126.16 125.46 114.24
  Q 126.30 109.94 126.27 105.60"
/>
<path stroke="#98989a" vector-effect="non-scaling-stroke" d="
  M 95.30 100.51
  Q 94.66 100.44 94.30 101.15
  Q 94.10 101.56 94.16 102.01
  Q 94.80 106.82 90.65 109.17
  Q 90.08 109.48 90.15 110.13
  L 90.28 111.47
  Q 90.35 112.11 90.98 112.08
  L 96.48 111.79
  Q 96.97 111.76 96.93 111.27
  L 96.19 101.43
  Q 96.13 100.59 95.30 100.51"
/>
<path stroke="#98989a" vector-effect="non-scaling-stroke" d="
  M 106.09 103.25
  C 107.22 100.98 103.65 100.53 102.20 100.82
  Q 101.62 100.93 101.66 101.52
  L 101.77 103.36
  Q 101.81 103.90 102.35 103.87
  L 105.41 103.69
  Q 105.88 103.67 106.09 103.25"
/>
<path stroke="#98989a" vector-effect="non-scaling-stroke" d="
  M 110.08 117.11
  C 95.09 117.67 84.94 117.06 76.81 117.23
  Q 76.25 117.24 76.25 117.81
  L 76.25 120.51
  Q 76.25 121.12 76.85 121.20
  C 83.86 122.22 90.12 121.78 97.19 121.54
  C 101.00 121.42 105.72 120.25 110.24 120.69
  Q 110.75 120.74 110.75 120.23
  L 110.75 117.76
  Q 110.75 117.09 110.08 117.11"
/>
<path stroke="#98989a" vector-effect="non-scaling-stroke" d="
  M 113.59 127.51
  C 110.07 126.16 105.17 124.78 102.98 129.00
  A 1.69 1.68 -69.8 0 0 104.10 131.43
  Q 108.81 132.49 113.52 131.28
  Q 114.11 131.13 114.13 130.52
  L 114.18 128.39
  Q 114.20 127.74 113.59 127.51"
/>
<path stroke="#98989a" vector-effect="non-scaling-stroke" d="
  M 68.02 127.86
  Q 71.11 129.90 74.79 130.47
  Q 75.44 130.57 75.32 129.93
  L 74.88 127.60
  Q 74.73 126.79 73.91 126.87
  L 68.13 127.43
  A 0.24 0.24 0.0 0 0 68.02 127.86"
/>
<path stroke="#98989a" vector-effect="non-scaling-stroke" d="
  M 96.6948 127.7833
  A 0.58 0.58 0.0 0 0 96.0929 127.2260
  L 92.1558 127.3773
  A 0.58 0.58 0.0 0 0 91.5985 127.9791
  L 91.7252 131.2767
  A 0.58 0.58 0.0 0 0 92.3271 131.8340
  L 96.2642 131.6827
  A 0.58 0.58 0.0 0 0 96.8215 131.0809
  L 96.6948 127.7833"
/>
<path stroke="#98989a" vector-effect="non-scaling-stroke" d="
  M 84.28 147.66
  L 101.98 148.32
  Q 102.43 148.34 102.31 148.77
  Q 102.04 149.79 102.98 150.30
  Q 103.47 150.58 103.54 151.13
  L 105.37 165.03
  A 2.05 2.05 0.0 0 0 107.53 166.81
  L 112.86 166.46
  A 0.53 0.53 0.0 0 0 113.36 165.89
  L 111.62 138.74
  Q 111.59 138.31 111.03 138.26
  Q 94.00 136.79 76.98 138.25
  C 74.68 138.45 74.28 139.29 74.15 141.43
  Q 73.33 155.47 73.94 165.41
  Q 73.98 165.94 74.51 165.97
  L 81.35 166.31
  Q 81.79 166.34 81.79 165.90
  L 81.79 151.81
  Q 81.79 151.30 82.08 150.88
  Q 83.02 149.52 83.69 148.02
  Q 83.86 147.64 84.28 147.66"
/>
<path stroke="#98989a" vector-effect="non-scaling-stroke" d="
  M 76.5074 92.0813
  A 3.94 3.08 80.1 0 0 78.8641 87.6705
  A 3.94 3.08 80.1 0 0 75.1526 84.3187
  A 3.94 3.08 80.1 0 0 72.7959 88.7295
  A 3.94 3.08 80.1 0 0 76.5074 92.0813"
/>
<path stroke="#98989a" vector-effect="non-scaling-stroke" d="
  M 89.1994 92.2187
  A 3.77 3.25 96.1 0 0 92.8316 88.8154
  A 3.77 3.25 96.1 0 0 90.0006 84.7213
  A 3.77 3.25 96.1 0 0 86.3684 88.1246
  A 3.77 3.25 96.1 0 0 89.1994 92.2187"
/>
</g>
<g fill="#38383c">
<path d="
  M 113.29 73.72
  A 0.25 0.25 0.0 0 0 113.76 73.82
  C 116.31 69.19 120.54 70.74 124.48 73.40
  Q 124.93 73.71 125.27 73.28
  Q 126.61 71.54 128.75 72.41
  Q 129.26 72.62 129.53 73.11
  L 130.23 74.38
  Q 130.50 74.89 131.07 74.82
  C 134.41 74.45 139.14 74.64 140.90 77.90
  Q 142.50 80.88 139.36 83.90
  Q 138.99 84.25 139.30 84.65
  C 145.47 92.86 134.17 95.98 127.85 97.56
  Q 127.03 97.77 127.77 98.19
  C 133.94 101.71 132.24 109.94 130.96 116.49
  C 129.78 122.57 126.00 147.80 120.75 150.34
  Q 120.30 150.56 119.80 150.54
  L 118.36 150.49
  Q 117.58 150.47 117.68 151.24
  Q 118.61 159.12 119.02 167.00
  C 119.41 174.63 104.33 173.23 100.30 169.11
  Q 99.94 168.74 99.89 168.23
  L 98.75 154.73
  Q 98.69 154.05 98.00 154.01
  L 87.85 153.40
  Q 87.00 153.35 86.99 154.20
  C 86.94 157.67 88.80 169.46 86.50 171.66
  Q 86.11 172.03 85.57 172.02
  Q 79.06 171.82 72.59 171.54
  C 68.19 171.36 68.59 169.05 68.38 165.68
  Q 67.71 155.08 68.44 144.48
  Q 68.48 143.95 67.97 143.81
  C 60.42 141.59 57.02 136.71 52.32 129.93
  C 46.98 122.23 47.57 109.67 49.75 100.51
  C 50.97 95.38 56.69 84.39 63.56 87.56
  A 0.46 0.46 0.0 0 0 64.20 87.06
  C 61.68 73.47 63.86 59.64 80.58 58.60
  C 95.87 57.65 111.55 53.96 113.29 73.72
  Z
  M 106.23 68.53
  C 104.76 63.99 100.43 64.25 96.68 63.92
  Q 87.36 63.08 78.06 64.34
  C 66.51 65.91 68.68 83.28 70.29 91.50
  Q 70.56 92.86 71.18 93.78
  Q 71.48 94.22 72.02 94.26
  C 77.33 94.65 76.21 98.80 76.79 102.40
  Q 76.97 103.52 78.10 103.55
  L 87.67 103.83
  Q 88.44 103.85 88.50 103.08
  L 88.84 98.34
  Q 88.87 97.91 89.14 97.56
  C 91.76 94.23 97.51 94.92 101.90 95.02
  Q 102.36 95.04 102.77 94.80
  Q 106.94 92.35 107.69 88.95
  Q 109.78 79.52 106.23 68.53
  Z
  M 122.81 78.69
  Q 121.30 77.32 119.38 76.85
  Q 118.40 76.61 118.87 77.50
  Q 120.02 79.68 122.13 80.88
  Q 122.59 81.15 123.01 80.82
  C 123.54 80.39 123.93 78.85 122.81 78.69
  Z
  M 129.39 80.00
  A 0.58 0.58 0.0 0 0 128.83 80.43
  L 128.18 82.84
  A 0.58 0.58 0.0 0 0 128.96 83.52
  L 134.64 81.11
  A 0.58 0.58 0.0 0 0 134.42 80.00
  L 129.39 80.00
  Z
  M 120.83 89.24
  C 123.68 86.35 118.40 85.47 116.79 84.38
  A 0.50 0.49 -84.2 0 0 116.06 84.98
  Q 117.23 87.87 119.99 89.36
  Q 120.46 89.61 120.83 89.24
  Z
  M 134.80 88.33
  C 132.70 88.18 125.09 88.43 126.04 92.04
  Q 126.18 92.56 126.69 92.39
  L 134.97 89.65
  A 0.68 0.68 0.0 0 0 134.80 88.33
  Z
  M 117.19 94.04
  L 113.53 91.39
  Q 113.21 91.16 113.00 91.49
  L 109.83 96.56
  Q 109.52 97.05 109.92 96.63
  Q 111.87 94.60 114.54 94.11
  Q 115.07 94.01 115.55 94.27
  Q 116.37 94.73 117.14 94.42
  Q 117.51 94.27 117.19 94.04
  Z
  M 68.77 134.80
  C 54.88 128.21 52.57 107.10 61.10 95.61
  Q 62.03 94.35 61.92 93.25
  A 0.76 0.75 67.2 0 0 60.69 92.74
  C 54.79 97.61 53.75 106.42 53.87 113.45
  C 54.04 123.99 59.16 132.43 67.86 138.05
  Q 68.47 138.44 68.81 137.81
  L 69.90 135.84
  Q 70.13 135.42 69.75 135.14
  C 69.53 134.98 68.94 134.88 68.77 134.80
  Z
  M 64.94 99.75
  C 60.25 106.71 60.73 115.37 64.22 122.64
  Q 64.47 123.17 64.98 122.89
  Q 67.46 121.54 70.30 121.49
  Q 70.96 121.48 70.92 120.81
  C 70.72 118.08 69.99 114.26 72.16 112.18
  Q 72.47 111.88 72.26 111.51
  L 65.72 99.79
  A 0.46 0.46 0.0 0 0 64.94 99.75
  Z
  M 126.27 105.60
  C 126.25 101.98 118.04 100.33 115.27 99.90
  Q 114.70 99.81 114.55 100.37
  L 111.86 110.81
  Q 111.71 111.39 112.29 111.58
  C 117.52 113.29 116.78 117.43 116.52 121.83
  Q 116.49 122.27 116.80 122.59
  Q 123.09 129.13 117.23 135.86
  Q 116.92 136.21 116.98 136.67
  L 117.94 144.44
  A 0.27 0.27 0.0 0 0 118.46 144.52
  Q 119.85 141.34 120.57 138.01
  Q 123.15 126.16 125.46 114.24
  Q 126.30 109.94 126.27 105.60
  Z
  M 95.30 100.51
  Q 94.66 100.44 94.30 101.15
  Q 94.10 101.56 94.16 102.01
  Q 94.80 106.82 90.65 109.17
  Q 90.08 109.48 90.15 110.13
  L 90.28 111.47
  Q 90.35 112.11 90.98 112.08
  L 96.48 111.79
  Q 96.97 111.76 96.93 111.27
  L 96.19 101.43
  Q 96.13 100.59 95.30 100.51
  Z
  M 106.09 103.25
  C 107.22 100.98 103.65 100.53 102.20 100.82
  Q 101.62 100.93 101.66 101.52
  L 101.77 103.36
  Q 101.81 103.90 102.35 103.87
  L 105.41 103.69
  Q 105.88 103.67 106.09 103.25
  Z
  M 84.63 110.31
  L 78.10 109.06
  Q 77.11 108.87 77.72 109.67
  L 78.95 111.28
  Q 79.27 111.70 79.80 111.72
  C 80.80 111.75 85.34 112.51 84.97 110.65
  A 0.42 0.42 0.0 0 0 84.63 110.31
  Z
  M 106.53 110.14
  A 0.72 0.72 0.0 0 0 105.83 109.14
  L 102.58 109.30
  Q 102.00 109.33 102.00 109.92
  L 102.00 110.74
  Q 102.00 111.29 102.53 111.44
  Q 105.58 112.33 106.53 110.14
  Z
  M 110.08 117.11
  C 95.09 117.67 84.94 117.06 76.81 117.23
  Q 76.25 117.24 76.25 117.81
  L 76.25 120.51
  Q 76.25 121.12 76.85 121.20
  C 83.86 122.22 90.12 121.78 97.19 121.54
  C 101.00 121.42 105.72 120.25 110.24 120.69
  Q 110.75 120.74 110.75 120.23
  L 110.75 117.76
  Q 110.75 117.09 110.08 117.11
  Z
  M 113.59 127.51
  C 110.07 126.16 105.17 124.78 102.98 129.00
  A 1.69 1.68 -69.8 0 0 104.10 131.43
  Q 108.81 132.49 113.52 131.28
  Q 114.11 131.13 114.13 130.52
  L 114.18 128.39
  Q 114.20 127.74 113.59 127.51
  Z
  M 68.02 127.86
  Q 71.11 129.90 74.79 130.47
  Q 75.44 130.57 75.32 129.93
  L 74.88 127.60
  Q 74.73 126.79 73.91 126.87
  L 68.13 127.43
  A 0.24 0.24 0.0 0 0 68.02 127.86
  Z
  M 96.6948 127.7833
  A 0.58 0.58 0.0 0 0 96.0929 127.2260
  L 92.1558 127.3773
  A 0.58 0.58 0.0 0 0 91.5985 127.9791
  L 91.7252 131.2767
  A 0.58 0.58 0.0 0 0 92.3271 131.8340
  L 96.2642 131.6827
  A 0.58 0.58 0.0 0 0 96.8215 131.0809
  L 96.6948 127.7833
  Z
  M 84.28 147.66
  L 101.98 148.32
  Q 102.43 148.34 102.31 148.77
  Q 102.04 149.79 102.98 150.30
  Q 103.47 150.58 103.54 151.13
  L 105.37 165.03
  A 2.05 2.05 0.0 0 0 107.53 166.81
  L 112.86 166.46
  A 0.53 0.53 0.0 0 0 113.36 165.89
  L 111.62 138.74
  Q 111.59 138.31 111.03 138.26
  Q 94.00 136.79 76.98 138.25
  C 74.68 138.45 74.28 139.29 74.15 141.43
  Q 73.33 155.47 73.94 165.41
  Q 73.98 165.94 74.51 165.97
  L 81.35 166.31
  Q 81.79 166.34 81.79 165.90
  L 81.79 151.81
  Q 81.79 151.30 82.08 150.88
  Q 83.02 149.52 83.69 148.02
  Q 83.86 147.64 84.28 147.66
  Z"
/>
<ellipse cx="0.00" cy="0.00" transform="translate(75.83,88.20) rotate(80.1)" rx="3.94" ry="3.08"/>
<ellipse cx="0.00" cy="0.00" transform="translate(89.60,88.47) rotate(96.1)" rx="3.77" ry="3.25"/>
</g>
<g fill="#f8f8f8">
<path d="
  M 96.68 63.92
  C 100.43 64.25 104.76 63.99 106.23 68.53
  Q 109.78 79.52 107.69 88.95
  Q 106.94 92.35 102.77 94.80
  Q 102.36 95.04 101.90 95.02
  C 97.51 94.92 91.76 94.23 89.14 97.56
  Q 88.87 97.91 88.84 98.34
  L 88.50 103.08
  Q 88.44 103.85 87.67 103.83
  L 78.10 103.55
  Q 76.97 103.52 76.79 102.40
  C 76.21 98.80 77.33 94.65 72.02 94.26
  Q 71.48 94.22 71.18 93.78
  Q 70.56 92.86 70.29 91.50
  C 68.68 83.28 66.51 65.91 78.06 64.34
  Q 87.36 63.08 96.68 63.92
  Z
  M 76.5074 92.0813
  A 3.94 3.08 80.1 0 0 78.8641 87.6705
  A 3.94 3.08 80.1 0 0 75.1526 84.3187
  A 3.94 3.08 80.1 0 0 72.7959 88.7295
  A 3.94 3.08 80.1 0 0 76.5074 92.0813
  Z
  M 89.1994 92.2187
  A 3.77 3.25 96.1 0 0 92.8316 88.8154
  A 3.77 3.25 96.1 0 0 90.0006 84.7213
  A 3.77 3.25 96.1 0 0 86.3684 88.1246
  A 3.77 3.25 96.1 0 0 89.1994 92.2187
  Z"
/>
<path d="
  M 96.19 101.43
  L 96.93 111.27
  Q 96.97 111.76 96.48 111.79
  L 90.98 112.08
  Q 90.35 112.11 90.28 111.47
  L 90.15 110.13
  Q 90.08 109.48 90.65 109.17
  Q 94.80 106.82 94.16 102.01
  Q 94.10 101.56 94.30 101.15
  Q 94.66 100.44 95.30 100.51
  Q 96.13 100.59 96.19 101.43
  Z"
/>
<path d="
  M 102.20 100.82
  C 103.65 100.53 107.22 100.98 106.09 103.25
  Q 105.88 103.67 105.41 103.69
  L 102.35 103.87
  Q 101.81 103.90 101.77 103.36
  L 101.66 101.52
  Q 101.62 100.93 102.20 100.82
  Z"
/>
<path d="
  M 76.81 117.23
  C 84.94 117.06 95.09 117.67 110.08 117.11
  Q 110.75 117.09 110.75 117.76
  L 110.75 120.23
  Q 110.75 120.74 110.24 120.69
  C 105.72 120.25 101.00 121.42 97.19 121.54
  C 90.12 121.78 83.86 122.22 76.85 121.20
  Q 76.25 121.12 76.25 120.51
  L 76.25 117.81
  Q 76.25 117.24 76.81 117.23
  Z"
/>
<path d="
  M 114.18 128.39
  L 114.13 130.52
  Q 114.11 131.13 113.52 131.28
  Q 108.81 132.49 104.10 131.43
  A 1.69 1.68 -69.8 0 1 102.98 129.00
  C 105.17 124.78 110.07 126.16 113.59 127.51
  Q 114.20 127.74 114.18 128.39
  Z"
/>
<path d="
  M 68.02 127.86
  A 0.24 0.24 0.0 0 1 68.13 127.43
  L 73.91 126.87
  Q 74.73 126.79 74.88 127.60
  L 75.32 129.93
  Q 75.44 130.57 74.79 130.47
  Q 71.11 129.90 68.02 127.86
  Z"
/>
<rect x="-2.55" y="-2.23" transform="translate(94.21,129.53) rotate(-2.2)" width="5.10" height="4.46" rx="0.58"/>
<path d="
  M 83.69 148.02
  Q 83.02 149.52 82.08 150.88
  Q 81.79 151.30 81.79 151.81
  L 81.79 165.90
  Q 81.79 166.34 81.35 166.31
  L 74.51 165.97
  Q 73.98 165.94 73.94 165.41
  Q 73.33 155.47 74.15 141.43
  C 74.28 139.29 74.68 138.45 76.98 138.25
  Q 94.00 136.79 111.03 138.26
  Q 111.59 138.31 111.62 138.74
  L 113.36 165.89
  A 0.53 0.53 0.0 0 1 112.86 166.46
  L 107.53 166.81
  A 2.05 2.05 0.0 0 1 105.37 165.03
  L 103.54 151.13
  Q 103.47 150.58 102.98 150.30
  Q 102.04 149.79 102.31 148.77
  Q 102.43 148.34 101.98 148.32
  L 84.28 147.66
  Q 83.86 147.64 83.69 148.02
  Z"
/>
</g>
<g fill="#6e423f">
<path d="
  M 68.77 134.80
  C 68.94 134.88 69.53 134.98 69.75 135.14
  Q 70.13 135.42 69.90 135.84
  L 68.81 137.81
  Q 68.47 138.44 67.86 138.05
  C 59.16 132.43 54.04 123.99 53.87 113.45
  C 53.75 106.42 54.79 97.61 60.69 92.74
  A 0.76 0.75 67.2 0 1 61.92 93.25
  Q 62.03 94.35 61.10 95.61
  C 52.57 107.10 54.88 128.21 68.77 134.80
  Z"
/>
<path d="
  M 115.27 99.90
  C 118.04 100.33 126.25 101.98 126.27 105.60
  Q 126.30 109.94 125.46 114.24
  Q 123.15 126.16 120.57 138.01
  Q 119.85 141.34 118.46 144.52
  A 0.27 0.27 0.0 0 1 117.94 144.44
  L 116.98 136.67
  Q 116.92 136.21 117.23 135.86
  Q 123.09 129.13 116.80 122.59
  Q 116.49 122.27 116.52 121.83
  C 116.78 117.43 117.52 113.29 112.29 111.58
  Q 111.71 111.39 111.86 110.81
  L 114.55 100.37
  Q 114.70 99.81 115.27 99.90
  Z"
/>
</g>
<g fill="#ff414c">
<path d="
  M 122.81 78.69
  C 123.93 78.85 123.54 80.39 123.01 80.82
  Q 122.59 81.15 122.13 80.88
  Q 120.02 79.68 118.87 77.50
  Q 118.40 76.61 119.38 76.85
  Q 121.30 77.32 122.81 78.69
  Z"
/>
<path d="
  M 129.39 80.00
  L 134.42 80.00
  A 0.58 0.58 0.0 0 1 134.64 81.11
  L 128.96 83.52
  A 0.58 0.58 0.0 0 1 128.18 82.84
  L 128.83 80.43
  A 0.58 0.58 0.0 0 1 129.39 80.00
  Z"
/>
<path d="
  M 116.79 84.38
  C 118.40 85.47 123.68 86.35 120.83 89.24
  Q 120.46 89.61 119.99 89.36
  Q 117.23 87.87 116.06 84.98
  A 0.50 0.49 -84.2 0 1 116.79 84.38
  Z"
/>
<path d="
  M 134.80 88.33
  A 0.68 0.68 0.0 0 1 134.97 89.65
  L 126.69 92.39
  Q 126.18 92.56 126.04 92.04
  C 125.09 88.43 132.70 88.18 134.80 88.33
  Z"
/>
</g>
</svg>
