<?xml version="1.0" encoding="UTF-8" standalone="no"?>
<!DOCTYPE svg PUBLIC "-//W3C//DTD SVG 1.1//EN" "http://www.w3.org/Graphics/SVG/1.1/DTD/svg11.dtd">
<svg xmlns="http://www.w3.org/2000/svg" version="1.1" viewBox="0 0 180 180">
<g stroke-width="2.00" fill="none" stroke-linecap="butt">
<path stroke="#9b9c48" vector-effect="non-scaling-stroke" d="
  M 111.67 107.60
  C 99.93 90.81 79.40 92.49 66.69 106.83
  A 1.28 1.28 0.0 0 0 67.31 108.91
  C 75.42 111.11 73.63 120.01 78.73 124.28
  C 83.95 128.65 86.84 120.67 88.54 117.25
  C 92.70 108.88 102.51 106.15 111.33 108.12
  Q 112.16 108.31 111.67 107.60"
/>
<path stroke="#82883e" vector-effect="non-scaling-stroke" d="
  M 113.19 115.92
  C 109.69 110.75 100.18 113.26 96.40 116.24
  C 90.68 120.78 91.73 130.05 82.83 130.98
  C 75.63 131.73 71.12 124.68 69.29 118.68
  C 67.38 112.40 62.62 112.78 61.74 119.27
  Q 60.33 129.65 59.99 138.81
  Q 59.97 139.45 60.57 139.25
  C 69.03 136.45 76.81 140.79 81.82 147.52
  Q 82.13 147.93 82.60 147.75
  Q 85.16 146.79 87.81 147.48
  Q 88.33 147.61 88.70 147.21
  L 95.40 139.86
  Q 95.74 139.48 95.53 139.02
  C 89.16 124.97 108.74 117.21 111.03 131.87
  Q 111.11 132.34 111.55 132.50
  C 121.30 135.97 119.36 149.12 108.33 147.57
  Q 107.80 147.50 107.47 147.91
  L 100.53 156.48
  A 0.61 0.61 0.0 0 0 100.96 157.48
  C 108.74 158.13 115.53 152.35 119.80 146.41
  Q 120.10 145.99 120.08 145.48
  Q 119.54 131.21 115.61 117.51
  Q 115.49 117.06 115.05 116.90
  L 113.91 116.48
  Q 113.46 116.32 113.19 115.92"
/>
<path stroke="#98989a" vector-effect="non-scaling-stroke" d="
  M 91.30 152.03
  C 88.83 154.40 84.79 151.04 84.26 154.21
  Q 84.00 155.74 85.08 156.89
  Q 85.44 157.27 85.94 157.13
  L 87.97 156.54
  Q 88.36 156.43 88.73 156.60
  Q 92.32 158.24 92.02 162.08
  A 1.49 1.49 0.0 0 0 94.06 163.58
  C 96.06 162.79 96.11 161.34 95.35 159.42
  C 94.12 156.27 94.91 154.65 97.08 152.11
  C 100.71 147.87 104.23 140.93 110.96 142.11
  Q 111.45 142.19 111.80 141.85
  Q 113.34 140.33 111.57 138.61
  A 1.69 1.67 59.7 0 0 110.01 138.19
  C 104.24 139.66 107.34 130.66 103.04 129.31
  Q 102.56 129.16 102.14 129.41
  C 97.26 132.38 100.53 136.18 101.84 139.90
  Q 102.04 140.45 101.66 140.90
  Q 96.75 146.76 91.30 152.03"
/>
<path stroke="#485642" vector-effect="non-scaling-stroke" d="
  M 100.72 164.35
  C 97.88 171.71 88.47 169.66 86.47 162.94
  Q 86.31 162.40 85.76 162.53
  C 82.10 163.40 79.28 158.96 78.90 155.95
  C 77.94 148.51 67.92 140.41 60.75 145.69
  Q 60.36 145.98 60.36 146.47
  C 60.34 149.16 60.72 165.26 63.30 165.93
  C 67.88 167.12 72.45 168.71 77.00 169.20
  Q 88.87 170.47 100.74 169.45
  C 103.76 169.19 118.89 166.28 119.45 162.98
  Q 120.03 159.57 119.92 155.93
  Q 119.89 155.02 119.24 155.66
  Q 111.86 162.95 101.43 163.82
  Q 100.91 163.86 100.72 164.35"
/>
</g>
<path fill="#38383c" d="
  M 94.01 90.12
  C 105.19 91.06 115.82 100.23 119.38 110.70
  Q 128.23 136.75 125.09 164.08
  C 124.73 167.17 123.49 169.08 120.68 170.12
  C 114.67 172.35 108.60 174.49 102.25 175.15
  C 87.30 176.71 73.42 175.73 59.27 170.38
  C 51.86 167.58 54.95 126.74 56.02 119.59
  C 58.86 100.60 74.98 88.52 94.01 90.12
  Z
  M 111.67 107.60
  C 99.93 90.81 79.40 92.49 66.69 106.83
  A 1.28 1.28 0.0 0 0 67.31 108.91
  C 75.42 111.11 73.63 120.01 78.73 124.28
  C 83.95 128.65 86.84 120.67 88.54 117.25
  C 92.70 108.88 102.51 106.15 111.33 108.12
  Q 112.16 108.31 111.67 107.60
  Z
  M 113.19 115.92
  C 109.69 110.75 100.18 113.26 96.40 116.24
  C 90.68 120.78 91.73 130.05 82.83 130.98
  C 75.63 131.73 71.12 124.68 69.29 118.68
  C 67.38 112.40 62.62 112.78 61.74 119.27
  Q 60.33 129.65 59.99 138.81
  Q 59.97 139.45 60.57 139.25
  C 69.03 136.45 76.81 140.79 81.82 147.52
  Q 82.13 147.93 82.60 147.75
  Q 85.16 146.79 87.81 147.48
  Q 88.33 147.61 88.70 147.21
  L 95.40 139.86
  Q 95.74 139.48 95.53 139.02
  C 89.16 124.97 108.74 117.21 111.03 131.87
  Q 111.11 132.34 111.55 132.50
  C 121.30 135.97 119.36 149.12 108.33 147.57
  Q 107.80 147.50 107.47 147.91
  L 100.53 156.48
  A 0.61 0.61 0.0 0 0 100.96 157.48
  C 108.74 158.13 115.53 152.35 119.80 146.41
  Q 120.10 145.99 120.08 145.48
  Q 119.54 131.21 115.61 117.51
  Q 115.49 117.06 115.05 116.90
  L 113.91 116.48
  Q 113.46 116.32 113.19 115.92
  Z
  M 91.30 152.03
  C 88.83 154.40 84.79 151.04 84.26 154.21
  Q 84.00 155.74 85.08 156.89
  Q 85.44 157.27 85.94 157.13
  L 87.97 156.54
  Q 88.36 156.43 88.73 156.60
  Q 92.32 158.24 92.02 162.08
  A 1.49 1.49 0.0 0 0 94.06 163.58
  C 96.06 162.79 96.11 161.34 95.35 159.42
  C 94.12 156.27 94.91 154.65 97.08 152.11
  C 100.71 147.87 104.23 140.93 110.96 142.11
  Q 111.45 142.19 111.80 141.85
  Q 113.34 140.33 111.57 138.61
  A 1.69 1.67 59.7 0 0 110.01 138.19
  C 104.24 139.66 107.34 130.66 103.04 129.31
  Q 102.56 129.16 102.14 129.41
  C 97.26 132.38 100.53 136.18 101.84 139.90
  Q 102.04 140.45 101.66 140.90
  Q 96.75 146.76 91.30 152.03
  Z
  M 100.72 164.35
  C 97.88 171.71 88.47 169.66 86.47 162.94
  Q 86.31 162.40 85.76 162.53
  C 82.10 163.40 79.28 158.96 78.90 155.95
  C 77.94 148.51 67.92 140.41 60.75 145.69
  Q 60.36 145.98 60.36 146.47
  C 60.34 149.16 60.72 165.26 63.30 165.93
  C 67.88 167.12 72.45 168.71 77.00 169.20
  Q 88.87 170.47 100.74 169.45
  C 103.76 169.19 118.89 166.28 119.45 162.98
  Q 120.03 159.57 119.92 155.93
  Q 119.89 155.02 119.24 155.66
  Q 111.86 162.95 101.43 163.82
  Q 100.91 163.86 100.72 164.35
  Z"
/>
<path fill="#ccd73f" d="
  M 113.91 116.48
  L 115.05 116.90
  Q 115.49 117.06 115.61 117.51
  Q 119.54 131.21 120.08 145.48
  Q 120.10 145.99 119.80 146.41
  C 115.53 152.35 108.74 158.13 100.96 157.48
  A 0.61 0.61 0.0 0 1 100.53 156.48
  L 107.47 147.91
  Q 107.80 147.50 108.33 147.57
  C 119.36 149.12 121.30 135.97 111.55 132.50
  Q 111.11 132.34 111.03 131.87
  C 108.74 117.21 89.16 124.97 95.53 139.02
  Q 95.74 139.48 95.40 139.86
  L 88.70 147.21
  Q 88.33 147.61 87.81 147.48
  Q 85.16 146.79 82.60 147.75
  Q 82.13 147.93 81.82 147.52
  C 76.81 140.79 69.03 136.45 60.57 139.25
  Q 59.97 139.45 59.99 138.81
  Q 60.33 129.65 61.74 119.27
  C 62.62 112.78 67.38 112.40 69.29 118.68
  C 71.12 124.68 75.63 131.73 82.83 130.98
  C 91.73 130.05 90.68 120.78 96.40 116.24
  C 100.18 113.26 109.69 110.75 113.19 115.92
  Q 113.46 116.32 113.91 116.48
  Z"
/>
<path fill="#587347" d="
  M 86.47 162.94
  C 88.47 169.66 97.88 171.71 100.72 164.35
  Q 100.91 163.86 101.43 163.82
  Q 111.86 162.95 119.24 155.66
  Q 119.89 155.02 119.92 155.93
  Q 120.03 159.57 119.45 162.98
  C 118.89 166.28 103.76 169.19 100.74 169.45
  Q 88.87 170.47 77.00 169.20
  C 72.45 168.71 67.88 167.12 63.30 165.93
  C 60.72 165.26 60.34 149.16 60.36 146.47
  Q 60.36 145.98 60.75 145.69
  C 67.92 140.41 77.94 148.51 78.90 155.95
  C 79.28 158.96 82.10 163.40 85.76 162.53
  Q 86.31 162.40 86.47 162.94
  Z"
/>
<path fill="#f8f8f8" d="
  M 84.26 154.21
  C 84.79 151.04 88.83 154.40 91.30 152.03
  Q 96.75 146.76 101.66 140.90
  Q 102.04 140.45 101.84 139.90
  C 100.53 136.18 97.26 132.38 102.14 129.41
  Q 102.56 129.16 103.04 129.31
  C 107.34 130.66 104.24 139.66 110.01 138.19
  A 1.69 1.67 59.7 0 1 111.57 138.61
  Q 113.34 140.33 111.80 141.85
  Q 111.45 142.19 110.96 142.11
  C 104.23 140.93 100.71 147.87 97.08 152.11
  C 94.91 154.65 94.12 156.27 95.35 159.42
  C 96.11 161.34 96.06 162.79 94.06 163.58
  A 1.49 1.49 0.0 0 1 92.02 162.08
  Q 92.32 158.24 88.73 156.60
  Q 88.36 156.43 87.97 156.54
  L 85.94 157.13
  Q 85.44 157.27 85.08 156.89
  Q 84.00 155.74 84.26 154.21
  Z"
/>
<path fill="#feff53" d="
  M 66.69 106.83
  C 79.40 92.49 99.93 90.81 111.67 107.60
  Q 112.16 108.31 111.33 108.12
  C 102.51 106.15 92.70 108.88 88.54 117.25
  C 86.84 120.67 83.95 128.65 78.73 124.28
  C 73.63 120.01 75.42 111.11 67.31 108.91
  A 1.28 1.28 0.0 0 1 66.69 106.83
  Z"
/>
</svg>
