<?xml version="1.0" encoding="UTF-8" standalone="no"?>
<!DOCTYPE svg PUBLIC "-//W3C//DTD SVG 1.1//EN" "http://www.w3.org/Graphics/SVG/1.1/DTD/svg11.dtd">
<svg xmlns="http://www.w3.org/2000/svg" version="1.1" viewBox="0 0 180 180">
<g stroke-width="2.00" fill="none" stroke-linecap="butt">
<path stroke="#576461" vector-effect="non-scaling-stroke" d="
  M 93.05 77.50
  C 89.88 77.14 80.76 77.65 82.59 71.83
  Q 83.88 67.74 88.40 63.16
  C 93.51 57.98 98.22 59.71 98.81 67.20
  A 1.77 1.77 0.0 0 0 101.54 68.54
  Q 107.54 64.60 110.44 57.94
  A 0.93 0.93 0.0 0 0 109.44 56.65
  C 106.47 57.12 101.49 57.78 99.87 54.74
  Q 99.64 54.30 99.70 53.81
  C 102.48 29.51 72.67 23.24 66.18 46.98
  C 65.05 51.09 65.62 55.83 65.81 60.25
  C 65.90 62.21 67.14 62.50 68.08 63.62
  C 70.60 66.62 75.45 72.48 72.45 75.66
  Q 72.07 76.05 72.42 76.47
  C 77.31 82.30 87.53 81.41 93.14 77.93
  Q 93.71 77.57 93.05 77.50"
/>
<path stroke="#533d3e" vector-effect="non-scaling-stroke" d="
  M 39.85 59.93
  C 37.92 55.57 32.27 55.38 30.27 59.60
  C 26.45 67.66 29.18 79.95 32.39 88.59
  Q 39.30 107.20 45.53 126.05
  Q 45.75 126.73 46.44 126.56
  L 47.58 126.28
  Q 48.24 126.12 48.18 125.44
  Q 45.70 98.54 42.80 71.69
  Q 42.08 64.98 39.85 59.93"
/>
<path stroke="#576461" vector-effect="non-scaling-stroke" d="
  M 100.70 78.64
  C 91.86 89.01 74.45 89.70 66.20 78.01
  A 0.44 0.44 0.0 0 0 65.41 78.19
  Q 61.91 99.91 61.87 121.92
  Q 61.87 122.48 62.42 122.52
  Q 80.10 123.66 97.78 122.88
  Q 98.43 122.85 98.38 122.20
  Q 98.07 118.07 100.54 114.77
  Q 100.86 114.34 100.65 113.86
  L 99.33 110.93
  Q 99.12 110.45 98.60 110.50
  C 87.30 111.42 85.30 95.15 96.98 94.79
  Q 97.50 94.78 97.66 94.29
  Q 99.25 89.42 104.52 88.78
  C 113.07 87.74 114.90 96.82 112.54 103.25
  Q 112.36 103.75 112.56 104.25
  L 113.67 106.94
  Q 113.93 107.58 114.50 107.17
  L 116.00 106.08
  Q 116.44 105.76 116.27 105.24
  C 115.63 103.24 112.67 98.07 115.57 96.83
  C 119.60 95.11 121.43 101.97 121.82 104.96
  C 123.23 115.72 98.52 113.07 105.10 123.89
  Q 105.35 124.30 105.78 124.49
  C 112.81 127.63 122.27 125.86 129.08 122.91
  C 132.67 121.36 135.22 118.35 137.73 115.44
  A 1.38 1.36 -27.0 0 0 138.06 114.45
  Q 136.20 89.89 125.36 68.68
  Q 122.64 63.35 116.33 59.83
  Q 115.87 59.57 115.66 60.05
  C 113.28 65.54 109.58 70.02 104.44 73.10
  C 102.10 74.51 102.09 77.01 100.70 78.64"
/>
<path stroke="#98989a" vector-effect="non-scaling-stroke" d="
  M 92.33 71.72
  A 1.06 1.06 0.0 0 0 93.50 70.67
  L 93.50 66.49
  Q 93.50 65.19 92.71 66.23
  L 89.19 70.85
  Q 88.80 71.36 89.44 71.42
  L 92.33 71.72"
/>
<path stroke="#98989a" vector-effect="non-scaling-stroke" d="
  M 63.31 71.78
  L 66.58 71.43
  Q 67.28 71.36 66.85 70.80
  L 63.35 66.33
  Q 62.50 65.24 62.50 66.63
  L 62.50 71.06
  A 0.73 0.72 -3.2 0 0 63.31 71.78"
/>
<path stroke="#98989a" vector-effect="non-scaling-stroke" d="
  M 99.26 101.05
  C 97.90 101.02 96.85 99.75 95.30 100.87
  Q 94.87 101.17 94.81 101.69
  C 94.26 105.76 99.64 105.25 102.18 105.85
  Q 102.78 105.99 103.06 106.54
  L 105.04 110.47
  Q 105.23 110.85 105.60 110.65
  L 108.14 109.27
  Q 108.65 108.99 108.41 108.47
  L 107.14 105.71
  Q 106.94 105.28 107.07 104.82
  Q 108.32 100.14 107.81 95.38
  Q 107.75 94.83 107.27 94.53
  Q 105.27 93.32 103.52 94.88
  Q 103.12 95.23 103.02 95.75
  C 102.56 98.23 102.73 101.13 99.26 101.05"
/>
<path stroke="#576461" vector-effect="non-scaling-stroke" d="
  M 55.93 124.87
  L 56.17 113.17
  Q 56.18 112.64 55.66 112.71
  L 53.24 113.05
  Q 52.77 113.11 52.81 113.59
  C 52.93 115.13 53.14 126.17 55.19 125.75
  A 0.93 0.92 -5.1 0 0 55.93 124.87"
/>
<path stroke="#533d3e" vector-effect="non-scaling-stroke" d="
  M 118.78 155.41
  C 121.16 153.25 124.10 149.61 126.15 148.60
  C 130.97 146.22 133.26 150.84 136.80 153.08
  Q 137.35 153.43 137.85 153.00
  L 140.29 150.91
  Q 140.67 150.59 140.65 150.08
  L 139.69 128.53
  Q 139.67 127.87 139.00 127.81
  Q 133.07 127.24 127.78 129.83
  A 0.51 0.51 0.0 0 0 127.94 130.80
  C 134.98 131.71 139.04 141.40 130.98 144.21
  Q 129.85 144.60 126.23 144.79
  Q 125.70 144.82 125.39 145.25
  C 122.67 149.01 118.44 152.89 114.03 148.59
  C 111.17 145.80 111.66 140.92 112.98 137.41
  Q 113.16 136.91 112.90 136.46
  L 110.54 132.41
  Q 110.24 131.90 109.66 131.80
  Q 105.29 131.01 101.41 128.87
  Q 100.92 128.59 100.35 128.62
  Q 81.24 129.42 62.16 128.23
  A 0.43 0.43 0.0 0 0 61.70 128.66
  L 61.87 147.98
  Q 61.87 148.73 62.51 148.34
  C 69.16 144.35 73.34 152.82 75.97 157.37
  A 0.41 0.40 46.6 0 0 76.66 157.39
  C 80.10 152.18 83.55 143.48 91.18 150.69
  Q 92.28 151.74 93.08 150.44
  C 97.96 142.48 110.70 143.33 113.18 153.28
  Q 113.32 153.83 113.83 154.06
  L 117.38 155.63
  A 1.31 1.31 0.0 0 0 118.78 155.41"
/>
<path stroke="#98989a" vector-effect="non-scaling-stroke" d="
  M 128.90 137.00
  Q 126.85 135.55 124.43 136.56
  Q 123.81 136.82 123.30 136.38
  Q 121.24 134.56 120.18 131.99
  Q 119.91 131.34 119.21 131.48
  L 117.19 131.88
  Q 116.53 132.01 116.89 132.58
  Q 119.55 136.93 117.34 141.51
  Q 117.09 142.04 117.23 142.60
  L 117.62 144.27
  A 0.74 0.73 -32.1 0 0 118.91 144.56
  C 121.09 141.91 121.25 138.72 125.72 139.12
  Q 127.32 139.27 128.58 138.89
  A 1.07 1.06 -35.5 0 0 128.90 137.00"
/>
<path stroke="#576461" vector-effect="non-scaling-stroke" d="
  M 79.81 162.29
  C 74.97 168.71 68.63 156.40 66.70 153.39
  A 0.96 0.95 52.6 0 0 65.26 153.19
  L 62.66 155.53
  Q 62.30 155.85 62.34 156.33
  C 62.61 159.80 61.99 164.92 66.42 166.21
  C 73.03 168.13 81.85 167.40 88.65 166.54
  Q 89.02 166.50 89.05 166.13
  L 89.83 158.37
  Q 89.88 157.85 89.53 157.46
  L 86.54 154.14
  Q 86.06 153.62 85.66 154.20
  Q 82.75 158.39 79.81 162.29"
/>
<path stroke="#576461" vector-effect="non-scaling-stroke" d="
  M 128.15 153.97
  C 124.74 157.76 120.83 164.27 115.04 160.72
  Q 114.46 160.37 114.48 161.04
  L 114.55 164.47
  Q 114.56 165.17 115.26 165.31
  C 121.61 166.59 133.93 167.96 139.75 164.70
  Q 140.16 164.48 140.19 164.01
  L 140.55 158.78
  Q 140.58 158.28 140.12 158.50
  C 135.68 160.74 131.98 156.72 128.97 153.93
  Q 128.54 153.53 128.15 153.97"
/>
<path stroke="#576461" vector-effect="non-scaling-stroke" d="
  M 80.0682 57.4323
  A 2.58 2.58 0.0 0 0 77.4614 54.8795
  L 77.2614 54.8816
  A 2.58 2.58 0.0 0 0 74.7085 57.4884
  L 74.8518 71.1677
  A 2.58 2.58 0.0 0 0 77.4586 73.7205
  L 77.6586 73.7184
  A 2.58 2.58 0.0 0 0 80.2115 71.1116
  L 80.0682 57.4323"
/>
</g>
<g fill="#38383c">
<path d="
  M 99.38 151.84
  C 92.18 156.39 98.56 171.21 89.77 172.23
  C 81.22 173.22 63.81 175.22 58.50 166.87
  Q 57.04 164.58 56.75 160.28
  Q 55.78 146.17 56.02 132.02
  Q 56.03 131.46 55.48 131.46
  C 50.83 131.45 42.97 134.47 40.40 128.86
  Q 40.18 128.39 39.75 128.09
  Q 33.71 123.98 36.05 116.77
  Q 36.21 116.27 36.04 115.77
  C 31.45 102.36 25.30 88.97 22.96 75.02
  C 21.56 66.71 23.76 48.18 37.20 51.00
  C 44.84 52.61 47.80 62.83 48.47 70.01
  Q 50.17 88.36 52.37 106.68
  Q 52.45 107.34 53.11 107.30
  L 56.11 107.11
  Q 56.61 107.08 56.63 106.58
  Q 57.07 92.27 59.75 78.24
  Q 60.10 76.40 58.70 75.55
  Q 58.30 75.31 58.14 74.87
  Q 55.31 66.98 59.96 60.38
  Q 60.27 59.93 60.26 59.38
  C 60.12 52.19 60.35 43.80 64.38 37.39
  C 74.43 21.46 95.81 23.68 104.22 40.01
  Q 105.52 42.54 105.74 49.32
  Q 105.76 49.87 106.29 49.99
  C 109.88 50.77 113.15 51.00 116.32 53.13
  C 118.64 54.69 121.30 55.59 123.23 57.38
  Q 129.12 62.85 132.99 71.72
  Q 140.34 88.56 142.58 103.24
  Q 147.15 133.19 146.24 163.49
  Q 146.20 164.89 145.27 167.95
  Q 145.13 168.42 144.71 168.68
  C 136.24 173.85 125.89 172.91 116.00 171.26
  Q 111.73 170.55 109.32 167.91
  Q 108.95 167.51 108.95 166.97
  C 108.97 162.51 109.15 145.67 99.38 151.84
  Z
  M 93.05 77.50
  C 89.88 77.14 80.76 77.65 82.59 71.83
  Q 83.88 67.74 88.40 63.16
  C 93.51 57.98 98.22 59.71 98.81 67.20
  A 1.77 1.77 0.0 0 0 101.54 68.54
  Q 107.54 64.60 110.44 57.94
  A 0.93 0.93 0.0 0 0 109.44 56.65
  C 106.47 57.12 101.49 57.78 99.87 54.74
  Q 99.64 54.30 99.70 53.81
  C 102.48 29.51 72.67 23.24 66.18 46.98
  C 65.05 51.09 65.62 55.83 65.81 60.25
  C 65.90 62.21 67.14 62.50 68.08 63.62
  C 70.60 66.62 75.45 72.48 72.45 75.66
  Q 72.07 76.05 72.42 76.47
  C 77.31 82.30 87.53 81.41 93.14 77.93
  Q 93.71 77.57 93.05 77.50
  Z
  M 39.85 59.93
  C 37.92 55.57 32.27 55.38 30.27 59.60
  C 26.45 67.66 29.18 79.95 32.39 88.59
  Q 39.30 107.20 45.53 126.05
  Q 45.75 126.73 46.44 126.56
  L 47.58 126.28
  Q 48.24 126.12 48.18 125.44
  Q 45.70 98.54 42.80 71.69
  Q 42.08 64.98 39.85 59.93
  Z
  M 100.70 78.64
  C 91.86 89.01 74.45 89.70 66.20 78.01
  A 0.44 0.44 0.0 0 0 65.41 78.19
  Q 61.91 99.91 61.87 121.92
  Q 61.87 122.48 62.42 122.52
  Q 80.10 123.66 97.78 122.88
  Q 98.43 122.85 98.38 122.20
  Q 98.07 118.07 100.54 114.77
  Q 100.86 114.34 100.65 113.86
  L 99.33 110.93
  Q 99.12 110.45 98.60 110.50
  C 87.30 111.42 85.30 95.15 96.98 94.79
  Q 97.50 94.78 97.66 94.29
  Q 99.25 89.42 104.52 88.78
  C 113.07 87.74 114.90 96.82 112.54 103.25
  Q 112.36 103.75 112.56 104.25
  L 113.67 106.94
  Q 113.93 107.58 114.50 107.17
  L 116.00 106.08
  Q 116.44 105.76 116.27 105.24
  C 115.63 103.24 112.67 98.07 115.57 96.83
  C 119.60 95.11 121.43 101.97 121.82 104.96
  C 123.23 115.72 98.52 113.07 105.10 123.89
  Q 105.35 124.30 105.78 124.49
  C 112.81 127.63 122.27 125.86 129.08 122.91
  C 132.67 121.36 135.22 118.35 137.73 115.44
  A 1.38 1.36 -27.0 0 0 138.06 114.45
  Q 136.20 89.89 125.36 68.68
  Q 122.64 63.35 116.33 59.83
  Q 115.87 59.57 115.66 60.05
  C 113.28 65.54 109.58 70.02 104.44 73.10
  C 102.10 74.51 102.09 77.01 100.70 78.64
  Z
  M 92.33 71.72
  A 1.06 1.06 0.0 0 0 93.50 70.67
  L 93.50 66.49
  Q 93.50 65.19 92.71 66.23
  L 89.19 70.85
  Q 88.80 71.36 89.44 71.42
  L 92.33 71.72
  Z
  M 63.31 71.78
  L 66.58 71.43
  Q 67.28 71.36 66.85 70.80
  L 63.35 66.33
  Q 62.50 65.24 62.50 66.63
  L 62.50 71.06
  A 0.73 0.72 -3.2 0 0 63.31 71.78
  Z
  M 99.26 101.05
  C 97.90 101.02 96.85 99.75 95.30 100.87
  Q 94.87 101.17 94.81 101.69
  C 94.26 105.76 99.64 105.25 102.18 105.85
  Q 102.78 105.99 103.06 106.54
  L 105.04 110.47
  Q 105.23 110.85 105.60 110.65
  L 108.14 109.27
  Q 108.65 108.99 108.41 108.47
  L 107.14 105.71
  Q 106.94 105.28 107.07 104.82
  Q 108.32 100.14 107.81 95.38
  Q 107.75 94.83 107.27 94.53
  Q 105.27 93.32 103.52 94.88
  Q 103.12 95.23 103.02 95.75
  C 102.56 98.23 102.73 101.13 99.26 101.05
  Z
  M 55.93 124.87
  L 56.17 113.17
  Q 56.18 112.64 55.66 112.71
  L 53.24 113.05
  Q 52.77 113.11 52.81 113.59
  C 52.93 115.13 53.14 126.17 55.19 125.75
  A 0.93 0.92 -5.1 0 0 55.93 124.87
  Z
  M 118.78 155.41
  C 121.16 153.25 124.10 149.61 126.15 148.60
  C 130.97 146.22 133.26 150.84 136.80 153.08
  Q 137.35 153.43 137.85 153.00
  L 140.29 150.91
  Q 140.67 150.59 140.65 150.08
  L 139.69 128.53
  Q 139.67 127.87 139.00 127.81
  Q 133.07 127.24 127.78 129.83
  A 0.51 0.51 0.0 0 0 127.94 130.80
  C 134.98 131.71 139.04 141.40 130.98 144.21
  Q 129.85 144.60 126.23 144.79
  Q 125.70 144.82 125.39 145.25
  C 122.67 149.01 118.44 152.89 114.03 148.59
  C 111.17 145.80 111.66 140.92 112.98 137.41
  Q 113.16 136.91 112.90 136.46
  L 110.54 132.41
  Q 110.24 131.90 109.66 131.80
  Q 105.29 131.01 101.41 128.87
  Q 100.92 128.59 100.35 128.62
  Q 81.24 129.42 62.16 128.23
  A 0.43 0.43 0.0 0 0 61.70 128.66
  L 61.87 147.98
  Q 61.87 148.73 62.51 148.34
  C 69.16 144.35 73.34 152.82 75.97 157.37
  A 0.41 0.40 46.6 0 0 76.66 157.39
  C 80.10 152.18 83.55 143.48 91.18 150.69
  Q 92.28 151.74 93.08 150.44
  C 97.96 142.48 110.70 143.33 113.18 153.28
  Q 113.32 153.83 113.83 154.06
  L 117.38 155.63
  A 1.31 1.31 0.0 0 0 118.78 155.41
  Z
  M 128.90 137.00
  Q 126.85 135.55 124.43 136.56
  Q 123.81 136.82 123.30 136.38
  Q 121.24 134.56 120.18 131.99
  Q 119.91 131.34 119.21 131.48
  L 117.19 131.88
  Q 116.53 132.01 116.89 132.58
  Q 119.55 136.93 117.34 141.51
  Q 117.09 142.04 117.23 142.60
  L 117.62 144.27
  A 0.74 0.73 -32.1 0 0 118.91 144.56
  C 121.09 141.91 121.25 138.72 125.72 139.12
  Q 127.32 139.27 128.58 138.89
  A 1.07 1.06 -35.5 0 0 128.90 137.00
  Z
  M 79.81 162.29
  C 74.97 168.71 68.63 156.40 66.70 153.39
  A 0.96 0.95 52.6 0 0 65.26 153.19
  L 62.66 155.53
  Q 62.30 155.85 62.34 156.33
  C 62.61 159.80 61.99 164.92 66.42 166.21
  C 73.03 168.13 81.85 167.40 88.65 166.54
  Q 89.02 166.50 89.05 166.13
  L 89.83 158.37
  Q 89.88 157.85 89.53 157.46
  L 86.54 154.14
  Q 86.06 153.62 85.66 154.20
  Q 82.75 158.39 79.81 162.29
  Z
  M 128.15 153.97
  C 124.74 157.76 120.83 164.27 115.04 160.72
  Q 114.46 160.37 114.48 161.04
  L 114.55 164.47
  Q 114.56 165.17 115.26 165.31
  C 121.61 166.59 133.93 167.96 139.75 164.70
  Q 140.16 164.48 140.19 164.01
  L 140.55 158.78
  Q 140.58 158.28 140.12 158.50
  C 135.68 160.74 131.98 156.72 128.97 153.93
  Q 128.54 153.53 128.15 153.97
  Z"
/>
<rect x="-2.68" y="-9.42" transform="translate(77.46,64.30) rotate(-0.6)" width="5.36" height="18.84" rx="2.58"/>
</g>
<g fill="#759086">
<path d="
  M 93.05 77.50
  Q 93.71 77.57 93.14 77.93
  C 87.53 81.41 77.31 82.30 72.42 76.47
  Q 72.07 76.05 72.45 75.66
  C 75.45 72.48 70.60 66.62 68.08 63.62
  C 67.14 62.50 65.90 62.21 65.81 60.25
  C 65.62 55.83 65.05 51.09 66.18 46.98
  C 72.67 23.24 102.48 29.51 99.70 53.81
  Q 99.64 54.30 99.87 54.74
  C 101.49 57.78 106.47 57.12 109.44 56.65
  A 0.93 0.93 0.0 0 1 110.44 57.94
  Q 107.54 64.60 101.54 68.54
  A 1.77 1.77 0.0 0 1 98.81 67.20
  C 98.22 59.71 93.51 57.98 88.40 63.16
  Q 83.88 67.74 82.59 71.83
  C 80.76 77.65 89.88 77.14 93.05 77.50
  Z
  M 80.0682 57.4323
  A 2.58 2.58 0.0 0 0 77.4614 54.8795
  L 77.2614 54.8816
  A 2.58 2.58 0.0 0 0 74.7085 57.4884
  L 74.8518 71.1677
  A 2.58 2.58 0.0 0 0 77.4586 73.7205
  L 77.6586 73.7184
  A 2.58 2.58 0.0 0 0 80.2115 71.1116
  L 80.0682 57.4323
  Z"
/>
<path d="
  M 66.20 78.01
  C 74.45 89.70 91.86 89.01 100.70 78.64
  C 102.09 77.01 102.10 74.51 104.44 73.10
  C 109.58 70.02 113.28 65.54 115.66 60.05
  Q 115.87 59.57 116.33 59.83
  Q 122.64 63.35 125.36 68.68
  Q 136.20 89.89 138.06 114.45
  A 1.38 1.36 -27.0 0 1 137.73 115.44
  C 135.22 118.35 132.67 121.36 129.08 122.91
  C 122.27 125.86 112.81 127.63 105.78 124.49
  Q 105.35 124.30 105.10 123.89
  C 98.52 113.07 123.23 115.72 121.82 104.96
  C 121.43 101.97 119.60 95.11 115.57 96.83
  C 112.67 98.07 115.63 103.24 116.27 105.24
  Q 116.44 105.76 116.00 106.08
  L 114.50 107.17
  Q 113.93 107.58 113.67 106.94
  L 112.56 104.25
  Q 112.36 103.75 112.54 103.25
  C 114.90 96.82 113.07 87.74 104.52 88.78
  Q 99.25 89.42 97.66 94.29
  Q 97.50 94.78 96.98 94.79
  C 85.30 95.15 87.30 111.42 98.60 110.50
  Q 99.12 110.45 99.33 110.93
  L 100.65 113.86
  Q 100.86 114.34 100.54 114.77
  Q 98.07 118.07 98.38 122.20
  Q 98.43 122.85 97.78 122.88
  Q 80.10 123.66 62.42 122.52
  Q 61.87 122.48 61.87 121.92
  Q 61.91 99.91 65.41 78.19
  A 0.44 0.44 0.0 0 1 66.20 78.01
  Z"
/>
<path d="
  M 56.17 113.17
  L 55.93 124.87
  A 0.93 0.92 -5.1 0 1 55.19 125.75
  C 53.14 126.17 52.93 115.13 52.81 113.59
  Q 52.77 113.11 53.24 113.05
  L 55.66 112.71
  Q 56.18 112.64 56.17 113.17
  Z"
/>
<path d="
  M 66.70 153.39
  C 68.63 156.40 74.97 168.71 79.81 162.29
  Q 82.75 158.39 85.66 154.20
  Q 86.06 153.62 86.54 154.14
  L 89.53 157.46
  Q 89.88 157.85 89.83 158.37
  L 89.05 166.13
  Q 89.02 166.50 88.65 166.54
  C 81.85 167.40 73.03 168.13 66.42 166.21
  C 61.99 164.92 62.61 159.80 62.34 156.33
  Q 62.30 155.85 62.66 155.53
  L 65.26 153.19
  A 0.96 0.95 52.6 0 1 66.70 153.39
  Z"
/>
<path d="
  M 115.04 160.72
  C 120.83 164.27 124.74 157.76 128.15 153.97
  Q 128.54 153.53 128.97 153.93
  C 131.98 156.72 135.68 160.74 140.12 158.50
  Q 140.58 158.28 140.55 158.78
  L 140.19 164.01
  Q 140.16 164.48 139.75 164.70
  C 133.93 167.96 121.61 166.59 115.26 165.31
  Q 114.56 165.17 114.55 164.47
  L 114.48 161.04
  Q 114.46 160.37 115.04 160.72
  Z"
/>
</g>
<g fill="#6e423f">
<path d="
  M 30.27 59.60
  C 32.27 55.38 37.92 55.57 39.85 59.93
  Q 42.08 64.98 42.80 71.69
  Q 45.70 98.54 48.18 125.44
  Q 48.24 126.12 47.58 126.28
  L 46.44 126.56
  Q 45.75 126.73 45.53 126.05
  Q 39.30 107.20 32.39 88.59
  C 29.18 79.95 26.45 67.66 30.27 59.60
  Z"
/>
<path d="
  M 118.78 155.41
  A 1.31 1.31 0.0 0 1 117.38 155.63
  L 113.83 154.06
  Q 113.32 153.83 113.18 153.28
  C 110.70 143.33 97.96 142.48 93.08 150.44
  Q 92.28 151.74 91.18 150.69
  C 83.55 143.48 80.10 152.18 76.66 157.39
  A 0.41 0.40 46.6 0 1 75.97 157.37
  C 73.34 152.82 69.16 144.35 62.51 148.34
  Q 61.87 148.73 61.87 147.98
  L 61.70 128.66
  A 0.43 0.43 0.0 0 1 62.16 128.23
  Q 81.24 129.42 100.35 128.62
  Q 100.92 128.59 101.41 128.87
  Q 105.29 131.01 109.66 131.80
  Q 110.24 131.90 110.54 132.41
  L 112.90 136.46
  Q 113.16 136.91 112.98 137.41
  C 111.66 140.92 111.17 145.80 114.03 148.59
  C 118.44 152.89 122.67 149.01 125.39 145.25
  Q 125.70 144.82 126.23 144.79
  Q 129.85 144.60 130.98 144.21
  C 139.04 141.40 134.98 131.71 127.94 130.80
  A 0.51 0.51 0.0 0 1 127.78 129.83
  Q 133.07 127.24 139.00 127.81
  Q 139.67 127.87 139.69 128.53
  L 140.65 150.08
  Q 140.67 150.59 140.29 150.91
  L 137.85 153.00
  Q 137.35 153.43 136.80 153.08
  C 133.26 150.84 130.97 146.22 126.15 148.60
  C 124.10 149.61 121.16 153.25 118.78 155.41
  Z"
/>
</g>
<g fill="#f8f8f8">
<path d="
  M 92.33 71.72
  L 89.44 71.42
  Q 88.80 71.36 89.19 70.85
  L 92.71 66.23
  Q 93.50 65.19 93.50 66.49
  L 93.50 70.67
  A 1.06 1.06 0.0 0 1 92.33 71.72
  Z"
/>
<path d="
  M 63.31 71.78
  A 0.73 0.72 -3.2 0 1 62.50 71.06
  L 62.50 66.63
  Q 62.50 65.24 63.35 66.33
  L 66.85 70.80
  Q 67.28 71.36 66.58 71.43
  L 63.31 71.78
  Z"
/>
<path d="
  M 99.26 101.05
  C 102.73 101.13 102.56 98.23 103.02 95.75
  Q 103.12 95.23 103.52 94.88
  Q 105.27 93.32 107.27 94.53
  Q 107.75 94.83 107.81 95.38
  Q 108.32 100.14 107.07 104.82
  Q 106.94 105.28 107.14 105.71
  L 108.41 108.47
  Q 108.65 108.99 108.14 109.27
  L 105.60 110.65
  Q 105.23 110.85 105.04 110.47
  L 103.06 106.54
  Q 102.78 105.99 102.18 105.85
  C 99.64 105.25 94.26 105.76 94.81 101.69
  Q 94.87 101.17 95.30 100.87
  C 96.85 99.75 97.90 101.02 99.26 101.05
  Z"
/>
<path d="
  M 128.90 137.00
  A 1.07 1.06 -35.5 0 1 128.58 138.89
  Q 127.32 139.27 125.72 139.12
  C 121.25 138.72 121.09 141.91 118.91 144.56
  A 0.74 0.73 -32.1 0 1 117.62 144.27
  L 117.23 142.60
  Q 117.09 142.04 117.34 141.51
  Q 119.55 136.93 116.89 132.58
  Q 116.53 132.01 117.19 131.88
  L 119.21 131.48
  Q 119.91 131.34 120.18 131.99
  Q 121.24 134.56 123.30 136.38
  Q 123.81 136.82 124.43 136.56
  Q 126.85 135.55 128.90 137.00
  Z"
/>
</g>
</svg>
