<?xml version="1.0" encoding="UTF-8" standalone="no"?>
<!DOCTYPE svg PUBLIC "-//W3C//DTD SVG 1.1//EN" "http://www.w3.org/Graphics/SVG/1.1/DTD/svg11.dtd">
<svg xmlns="http://www.w3.org/2000/svg" version="1.1" viewBox="0 0 180 180">
<g stroke-width="2.00" fill="none" stroke-linecap="butt">
<path stroke="#576461" vector-effect="non-scaling-stroke" d="
  M 113.24 67.02
  C 109.30 65.04 110.47 61.89 112.10 58.44
  Q 114.61 53.15 115.13 47.24
  A 1.34 1.34 0.0 0 0 113.06 46.01
  Q 108.96 48.72 105.39 52.10
  C 103.31 54.07 101.04 54.01 99.39 51.69
  Q 99.07 51.24 98.57 51.45
  L 96.45 52.32
  Q 95.93 52.53 95.37 52.48
  Q 93.07 52.29 91.48 50.57
  Q 91.10 50.16 91.18 49.61
  L 91.73 45.47
  A 0.55 0.55 0.0 0 0 90.76 45.04
  C 88.55 47.69 85.60 54.41 81.13 50.80
  Q 77.66 48.00 73.53 45.41
  A 0.62 0.61 -76.6 0 0 72.59 45.99
  Q 73.37 53.86 76.01 61.27
  Q 76.18 61.77 76.08 62.28
  C 75.17 66.92 70.57 64.42 67.69 64.23
  Q 66.98 64.18 67.13 64.89
  L 67.91 68.57
  Q 68.06 69.27 68.72 69.00
  C 71.67 67.77 75.22 66.09 77.46 66.38
  C 79.19 66.61 80.28 68.32 79.68 69.94
  C 78.99 71.79 76.81 71.84 75.52 72.34
  Q 67.23 75.59 59.35 79.60
  Q 58.88 79.83 58.67 80.32
  Q 57.79 82.38 58.61 84.26
  Q 58.86 84.84 59.49 84.88
  Q 74.47 85.73 89.46 84.88
  Q 89.95 84.86 90.19 84.42
  C 92.01 81.08 96.00 75.06 99.90 74.23
  C 106.13 72.91 106.22 82.86 105.55 86.55
  C 104.15 94.17 94.62 90.37 89.58 90.62
  Q 87.41 90.73 85.20 90.78
  Q 83.45 90.82 85.07 91.48
  L 95.14 95.56
  Q 95.71 95.79 96.25 95.50
  Q 106.24 90.13 116.45 85.22
  Q 118.34 84.30 120.41 81.81
  Q 120.86 81.27 120.28 80.89
  C 117.65 79.15 113.25 80.33 114.42 75.11
  Q 114.53 74.65 114.85 74.31
  L 119.99 69.04
  A 1.25 1.24 27.8 0 0 119.34 66.95
  Q 116.77 66.43 114.23 67.12
  Q 113.71 67.26 113.24 67.02"
/>
<path stroke="#9a9a9c" vector-effect="non-scaling-stroke" d="
  M 96.21 84.74
  A 0.43 0.43 0.0 0 0 96.50 85.43
  L 100.03 85.79
  A 0.43 0.43 0.0 0 0 100.50 85.36
  L 100.50 80.47
  A 0.43 0.43 0.0 0 0 99.73 80.21
  L 96.21 84.74"
/>
<path stroke="#576461" vector-effect="non-scaling-stroke" d="
  M 71.74 114.03
  C 72.66 127.21 71.85 141.30 71.20 154.51
  C 70.99 158.69 70.21 161.89 71.85 166.06
  Q 72.07 166.62 72.66 166.66
  L 78.15 167.09
  Q 78.89 167.15 79.09 166.44
  C 79.40 165.32 79.15 164.02 79.51 163.08
  Q 81.17 158.70 86.56 159.51
  A 1.04 1.03 4.3 0 0 87.75 158.49
  L 87.75 155.30
  Q 87.75 154.87 88.00 154.52
  Q 92.76 147.85 101.23 149.41
  C 109.88 151.00 109.92 158.49 109.74 165.70
  Q 109.72 166.25 110.27 166.25
  L 116.97 166.25
  Q 117.51 166.25 117.50 165.71
  C 117.40 161.50 118.88 156.83 124.17 158.57
  A 1.24 1.23 -81.7 0 0 125.79 157.36
  Q 125.61 150.53 125.80 145.43
  Q 126.46 127.91 122.94 110.77
  Q 120.78 100.25 114.19 93.49
  Q 113.80 93.09 113.30 93.32
  Q 107.51 95.98 101.92 99.07
  C 97.34 101.59 95.62 101.91 90.91 100.06
  Q 85.18 97.82 79.40 95.20
  Q 78.92 94.98 78.59 95.40
  C 74.93 100.24 71.30 107.79 71.74 114.03"
/>
<path stroke="#576461" vector-effect="non-scaling-stroke" d="
  M 133.31 146.44
  Q 132.89 146.42 131.81 145.92
  Q 131.21 145.64 131.23 146.29
  L 131.29 149.47
  Q 131.30 149.98 131.69 150.31
  L 139.83 157.50
  Q 140.15 157.78 140.43 157.47
  C 143.81 153.86 147.47 149.64 151.97 147.44
  Q 152.39 147.24 152.84 147.34
  L 157.47 148.36
  Q 158.09 148.49 158.24 147.88
  C 159.55 142.60 157.99 138.13 156.53 131.67
  C 155.52 127.21 156.50 123.56 162.04 124.75
  Q 162.88 124.93 162.47 124.17
  C 159.20 118.25 151.58 114.97 145.28 115.98
  Q 144.65 116.08 145.05 116.59
  C 153.56 127.37 149.78 147.03 133.31 146.44"
/>
<path stroke="#576461" vector-effect="non-scaling-stroke" d="
  M 65.58 126.34
  L 55.31 125.82
  Q 53.62 125.73 53.10 127.34
  Q 51.97 130.82 52.66 135.32
  C 53.41 140.23 59.10 141.30 59.21 134.95
  Q 59.21 134.42 59.53 133.99
  Q 61.97 130.65 65.85 132.31
  Q 66.49 132.59 66.49 131.89
  L 66.51 127.32
  Q 66.51 126.39 65.58 126.34"
/>
<path stroke="#576461" vector-effect="non-scaling-stroke" d="
  M 79.85 128.74
  C 80.01 125.75 84.56 125.55 82.74 121.55
  Q 82.49 120.99 81.91 120.81
  Q 79.48 120.04 78.50 117.75
  Q 78.19 117.02 78.99 116.98
  Q 82.41 116.79 83.27 113.71
  Q 83.40 113.21 83.23 112.72
  L 81.71 108.51
  Q 81.40 107.65 82.24 108.00
  C 87.90 110.30 88.94 102.42 85.22 100.72
  C 83.90 100.12 82.71 100.80 82.20 102.05
  Q 82.01 102.53 81.50 102.50
  Q 78.85 102.34 76.72 103.88
  Q 76.30 104.18 76.20 104.68
  Q 75.49 108.12 76.96 111.22
  Q 77.22 111.77 76.65 111.99
  C 71.01 114.11 72.48 119.53 75.79 123.38
  Q 76.14 123.79 75.88 124.25
  C 73.52 128.37 72.90 135.67 80.14 134.44
  A 0.82 0.81 86.6 0 1 81.08 135.28
  L 80.76 141.93
  Q 80.73 142.40 81.00 142.80
  C 81.98 144.22 83.93 144.93 85.20 143.37
  C 86.76 141.44 86.29 136.06 86.27 133.60
  C 86.25 129.73 84.14 127.98 80.40 129.16
  Q 79.82 129.34 79.85 128.74"
/>
<path stroke="#576461" vector-effect="non-scaling-stroke" d="
  M 119.06 134.94
  C 116.22 133.58 107.19 132.71 107.74 138.51
  Q 107.79 139.00 107.54 139.41
  C 105.70 142.46 101.52 140.82 100.37 138.08
  C 99.72 136.52 100.20 131.34 100.80 130.04
  C 102.50 126.31 112.11 128.68 115.45 129.22
  C 119.18 129.82 120.92 124.54 115.51 123.56
  C 104.01 121.48 94.42 120.05 94.65 135.37
  Q 94.72 139.32 96.13 141.70
  C 100.38 148.87 110.56 148.24 113.52 140.26
  Q 113.72 139.72 114.29 139.79
  C 115.76 139.96 117.27 140.64 118.56 140.34
  C 121.13 139.72 121.68 136.19 119.06 134.94"
/>
</g>
<g fill="#759086">
<path d="
  M 114.23 67.12
  Q 116.77 66.43 119.34 66.95
  A 1.25 1.24 27.8 0 1 119.99 69.04
  L 114.85 74.31
  Q 114.53 74.65 114.42 75.11
  C 113.25 80.33 117.65 79.15 120.28 80.89
  Q 120.86 81.27 120.41 81.81
  Q 118.34 84.30 116.45 85.22
  Q 106.24 90.13 96.25 95.50
  Q 95.71 95.79 95.14 95.56
  L 85.07 91.48
  Q 83.45 90.82 85.20 90.78
  Q 87.41 90.73 89.58 90.62
  C 94.62 90.37 104.15 94.17 105.55 86.55
  C 106.22 82.86 106.13 72.91 99.90 74.23
  C 96.00 75.06 92.01 81.08 90.19 84.42
  Q 89.95 84.86 89.46 84.88
  Q 74.47 85.73 59.49 84.88
  Q 58.86 84.84 58.61 84.26
  Q 57.79 82.38 58.67 80.32
  Q 58.88 79.83 59.35 79.60
  Q 67.23 75.59 75.52 72.34
  C 76.81 71.84 78.99 71.79 79.68 69.94
  C 80.28 68.32 79.19 66.61 77.46 66.38
  C 75.22 66.09 71.67 67.77 68.72 69.00
  Q 68.06 69.27 67.91 68.57
  L 67.13 64.89
  Q 66.98 64.18 67.69 64.23
  C 70.57 64.42 75.17 66.92 76.08 62.28
  Q 76.18 61.77 76.01 61.27
  Q 73.37 53.86 72.59 45.99
  A 0.62 0.61 -76.6 0 1 73.53 45.41
  Q 77.66 48.00 81.13 50.80
  C 85.60 54.41 88.55 47.69 90.76 45.04
  A 0.55 0.55 0.0 0 1 91.73 45.47
  L 91.18 49.61
  Q 91.10 50.16 91.48 50.57
  Q 93.07 52.29 95.37 52.48
  Q 95.93 52.53 96.45 52.32
  L 98.57 51.45
  Q 99.07 51.24 99.39 51.69
  C 101.04 54.01 103.31 54.07 105.39 52.10
  Q 108.96 48.72 113.06 46.01
  A 1.34 1.34 0.0 0 1 115.13 47.24
  Q 114.61 53.15 112.10 58.44
  C 110.47 61.89 109.30 65.04 113.24 67.02
  Q 113.71 67.26 114.23 67.12
  Z"
/>
<path d="
  M 71.74 114.03
  C 71.30 107.79 74.93 100.24 78.59 95.40
  Q 78.92 94.98 79.40 95.20
  Q 85.18 97.82 90.91 100.06
  C 95.62 101.91 97.34 101.59 101.92 99.07
  Q 107.51 95.98 113.30 93.32
  Q 113.80 93.09 114.19 93.49
  Q 120.78 100.25 122.94 110.77
  Q 126.46 127.91 125.80 145.43
  Q 125.61 150.53 125.79 157.36
  A 1.24 1.23 -81.7 0 1 124.17 158.57
  C 118.88 156.83 117.40 161.50 117.50 165.71
  Q 117.51 166.25 116.97 166.25
  L 110.27 166.25
  Q 109.72 166.25 109.74 165.70
  C 109.92 158.49 109.88 151.00 101.23 149.41
  Q 92.76 147.85 88.00 154.52
  Q 87.75 154.87 87.75 155.30
  L 87.75 158.49
  A 1.04 1.03 4.3 0 1 86.56 159.51
  Q 81.17 158.70 79.51 163.08
  C 79.15 164.02 79.40 165.32 79.09 166.44
  Q 78.89 167.15 78.15 167.09
  L 72.66 166.66
  Q 72.07 166.62 71.85 166.06
  C 70.21 161.89 70.99 158.69 71.20 154.51
  C 71.85 141.30 72.66 127.21 71.74 114.03
  Z
  M 79.85 128.74
  C 80.01 125.75 84.56 125.55 82.74 121.55
  Q 82.49 120.99 81.91 120.81
  Q 79.48 120.04 78.50 117.75
  Q 78.19 117.02 78.99 116.98
  Q 82.41 116.79 83.27 113.71
  Q 83.40 113.21 83.23 112.72
  L 81.71 108.51
  Q 81.40 107.65 82.24 108.00
  C 87.90 110.30 88.94 102.42 85.22 100.72
  C 83.90 100.12 82.71 100.80 82.20 102.05
  Q 82.01 102.53 81.50 102.50
  Q 78.85 102.34 76.72 103.88
  Q 76.30 104.18 76.20 104.68
  Q 75.49 108.12 76.96 111.22
  Q 77.22 111.77 76.65 111.99
  C 71.01 114.11 72.48 119.53 75.79 123.38
  Q 76.14 123.79 75.88 124.25
  C 73.52 128.37 72.90 135.67 80.14 134.44
  A 0.82 0.81 86.6 0 1 81.08 135.28
  L 80.76 141.93
  Q 80.73 142.40 81.00 142.80
  C 81.98 144.22 83.93 144.93 85.20 143.37
  C 86.76 141.44 86.29 136.06 86.27 133.60
  C 86.25 129.73 84.14 127.98 80.40 129.16
  Q 79.82 129.34 79.85 128.74
  Z
  M 119.06 134.94
  C 116.22 133.58 107.19 132.71 107.74 138.51
  Q 107.79 139.00 107.54 139.41
  C 105.70 142.46 101.52 140.82 100.37 138.08
  C 99.72 136.52 100.20 131.34 100.80 130.04
  C 102.50 126.31 112.11 128.68 115.45 129.22
  C 119.18 129.82 120.92 124.54 115.51 123.56
  C 104.01 121.48 94.42 120.05 94.65 135.37
  Q 94.72 139.32 96.13 141.70
  C 100.38 148.87 110.56 148.24 113.52 140.26
  Q 113.72 139.72 114.29 139.79
  C 115.76 139.96 117.27 140.64 118.56 140.34
  C 121.13 139.72 121.68 136.19 119.06 134.94
  Z"
/>
<path d="
  M 133.31 146.44
  C 149.78 147.03 153.56 127.37 145.05 116.59
  Q 144.65 116.08 145.28 115.98
  C 151.58 114.97 159.20 118.25 162.47 124.17
  Q 162.88 124.93 162.04 124.75
  C 156.50 123.56 155.52 127.21 156.53 131.67
  C 157.99 138.13 159.55 142.60 158.24 147.88
  Q 158.09 148.49 157.47 148.36
  L 152.84 147.34
  Q 152.39 147.24 151.97 147.44
  C 147.47 149.64 143.81 153.86 140.43 157.47
  Q 140.15 157.78 139.83 157.50
  L 131.69 150.31
  Q 131.30 149.98 131.29 149.47
  L 131.23 146.29
  Q 131.21 145.64 131.81 145.92
  Q 132.89 146.42 133.31 146.44
  Z"
/>
<path d="
  M 66.51 127.32
  L 66.49 131.89
  Q 66.49 132.59 65.85 132.31
  Q 61.97 130.65 59.53 133.99
  Q 59.21 134.42 59.21 134.95
  C 59.10 141.30 53.41 140.23 52.66 135.32
  Q 51.97 130.82 53.10 127.34
  Q 53.62 125.73 55.31 125.82
  L 65.58 126.34
  Q 66.51 126.39 66.51 127.32
  Z"
/>
</g>
<g fill="#38383c">
<path d="
  M 132.22 140.16
  C 143.19 143.63 145.77 129.33 141.99 122.31
  C 140.84 120.15 137.39 117.92 137.40 115.45
  C 137.40 112.59 141.05 111.10 143.57 110.63
  C 154.28 108.66 164.28 113.69 168.41 123.84
  Q 170.16 128.14 166.84 129.99
  Q 166.37 130.25 165.83 130.25
  L 162.75 130.25
  Q 162.07 130.25 162.20 130.91
  C 163.29 136.29 167.32 151.79 160.10 154.04
  C 157.93 154.71 155.43 153.33 152.89 153.40
  Q 152.36 153.42 151.97 153.79
  Q 147.79 157.77 143.91 161.94
  C 139.02 167.18 135.12 160.42 131.70 157.69
  Q 131.20 157.29 131.16 157.94
  Q 130.78 165.32 123.71 164.06
  Q 123.10 163.95 123.19 164.57
  C 124.52 173.74 116.24 171.87 110.59 171.78
  C 97.56 171.55 109.37 156.48 100.01 154.82
  Q 96.66 154.23 93.97 155.94
  Q 93.49 156.24 93.45 156.80
  C 93.11 161.70 92.39 166.42 85.84 164.81
  A 1.23 1.23 0.0 0 0 84.42 166.51
  Q 85.76 169.50 83.75 171.68
  Q 83.39 172.06 82.87 172.12
  C 75.00 173.06 66.12 173.39 65.66 164.30
  Q 65.05 152.39 66.33 139.16
  A 2.03 0.84 36.8 0 0 65.51 137.78
  C 65.24 137.52 64.48 138.15 64.35 138.57
  C 62.88 143.27 58.51 146.63 53.56 144.57
  C 48.88 142.62 47.14 138.77 46.76 133.61
  C 45.70 119.47 54.75 119.10 66.26 120.86
  Q 66.93 120.96 66.88 120.28
  C 65.99 108.97 67.46 100.84 73.65 92.63
  A 1.03 1.03 0.0 0 0 72.78 90.98
  Q 65.32 91.33 58.25 90.26
  C 52.27 89.35 52.23 84.34 52.75 79.62
  C 53.22 75.40 58.52 73.51 62.42 71.96
  Q 62.97 71.74 62.79 71.18
  C 60.90 65.28 60.02 58.41 68.43 58.56
  A 0.62 0.62 0.0 0 0 69.03 57.76
  C 67.81 53.72 64.62 43.25 69.41 40.57
  C 74.39 37.78 79.38 42.37 83.09 45.05
  Q 83.51 45.35 83.84 44.96
  C 86.74 41.46 88.48 38.80 93.61 38.93
  Q 94.17 38.95 94.59 39.32
  Q 97.29 41.72 97.01 45.43
  Q 96.95 46.28 97.75 46.01
  Q 100.22 45.20 102.27 46.78
  Q 102.74 47.15 103.16 46.73
  C 107.16 42.83 113.74 37.29 118.38 42.08
  C 122.67 46.51 119.78 55.87 117.18 60.56
  Q 116.86 61.13 117.52 61.18
  C 126.38 61.88 128.71 68.71 122.06 74.82
  Q 121.68 75.17 122.13 75.43
  C 130.50 80.35 124.68 86.41 119.43 89.90
  Q 119.00 90.19 119.34 90.58
  C 130.98 103.51 131.14 123.45 131.66 139.42
  Q 131.68 139.99 132.22 140.16
  Z
  M 113.24 67.02
  C 109.30 65.04 110.47 61.89 112.10 58.44
  Q 114.61 53.15 115.13 47.24
  A 1.34 1.34 0.0 0 0 113.06 46.01
  Q 108.96 48.72 105.39 52.10
  C 103.31 54.07 101.04 54.01 99.39 51.69
  Q 99.07 51.24 98.57 51.45
  L 96.45 52.32
  Q 95.93 52.53 95.37 52.48
  Q 93.07 52.29 91.48 50.57
  Q 91.10 50.16 91.18 49.61
  L 91.73 45.47
  A 0.55 0.55 0.0 0 0 90.76 45.04
  C 88.55 47.69 85.60 54.41 81.13 50.80
  Q 77.66 48.00 73.53 45.41
  A 0.62 0.61 -76.6 0 0 72.59 45.99
  Q 73.37 53.86 76.01 61.27
  Q 76.18 61.77 76.08 62.28
  C 75.17 66.92 70.57 64.42 67.69 64.23
  Q 66.98 64.18 67.13 64.89
  L 67.91 68.57
  Q 68.06 69.27 68.72 69.00
  C 71.67 67.77 75.22 66.09 77.46 66.38
  C 79.19 66.61 80.28 68.32 79.68 69.94
  C 78.99 71.79 76.81 71.84 75.52 72.34
  Q 67.23 75.59 59.35 79.60
  Q 58.88 79.83 58.67 80.32
  Q 57.79 82.38 58.61 84.26
  Q 58.86 84.84 59.49 84.88
  Q 74.47 85.73 89.46 84.88
  Q 89.95 84.86 90.19 84.42
  C 92.01 81.08 96.00 75.06 99.90 74.23
  C 106.13 72.91 106.22 82.86 105.55 86.55
  C 104.15 94.17 94.62 90.37 89.58 90.62
  Q 87.41 90.73 85.20 90.78
  Q 83.45 90.82 85.07 91.48
  L 95.14 95.56
  Q 95.71 95.79 96.25 95.50
  Q 106.24 90.13 116.45 85.22
  Q 118.34 84.30 120.41 81.81
  Q 120.86 81.27 120.28 80.89
  C 117.65 79.15 113.25 80.33 114.42 75.11
  Q 114.53 74.65 114.85 74.31
  L 119.99 69.04
  A 1.25 1.24 27.8 0 0 119.34 66.95
  Q 116.77 66.43 114.23 67.12
  Q 113.71 67.26 113.24 67.02
  Z
  M 96.21 84.74
  A 0.43 0.43 0.0 0 0 96.50 85.43
  L 100.03 85.79
  A 0.43 0.43 0.0 0 0 100.50 85.36
  L 100.50 80.47
  A 0.43 0.43 0.0 0 0 99.73 80.21
  L 96.21 84.74
  Z
  M 71.74 114.03
  C 72.66 127.21 71.85 141.30 71.20 154.51
  C 70.99 158.69 70.21 161.89 71.85 166.06
  Q 72.07 166.62 72.66 166.66
  L 78.15 167.09
  Q 78.89 167.15 79.09 166.44
  C 79.40 165.32 79.15 164.02 79.51 163.08
  Q 81.17 158.70 86.56 159.51
  A 1.04 1.03 4.3 0 0 87.75 158.49
  L 87.75 155.30
  Q 87.75 154.87 88.00 154.52
  Q 92.76 147.85 101.23 149.41
  C 109.88 151.00 109.92 158.49 109.74 165.70
  Q 109.72 166.25 110.27 166.25
  L 116.97 166.25
  Q 117.51 166.25 117.50 165.71
  C 117.40 161.50 118.88 156.83 124.17 158.57
  A 1.24 1.23 -81.7 0 0 125.79 157.36
  Q 125.61 150.53 125.80 145.43
  Q 126.46 127.91 122.94 110.77
  Q 120.78 100.25 114.19 93.49
  Q 113.80 93.09 113.30 93.32
  Q 107.51 95.98 101.92 99.07
  C 97.34 101.59 95.62 101.91 90.91 100.06
  Q 85.18 97.82 79.40 95.20
  Q 78.92 94.98 78.59 95.40
  C 74.93 100.24 71.30 107.79 71.74 114.03
  Z
  M 133.31 146.44
  Q 132.89 146.42 131.81 145.92
  Q 131.21 145.64 131.23 146.29
  L 131.29 149.47
  Q 131.30 149.98 131.69 150.31
  L 139.83 157.50
  Q 140.15 157.78 140.43 157.47
  C 143.81 153.86 147.47 149.64 151.97 147.44
  Q 152.39 147.24 152.84 147.34
  L 157.47 148.36
  Q 158.09 148.49 158.24 147.88
  C 159.55 142.60 157.99 138.13 156.53 131.67
  C 155.52 127.21 156.50 123.56 162.04 124.75
  Q 162.88 124.93 162.47 124.17
  C 159.20 118.25 151.58 114.97 145.28 115.98
  Q 144.65 116.08 145.05 116.59
  C 153.56 127.37 149.78 147.03 133.31 146.44
  Z
  M 65.58 126.34
  L 55.31 125.82
  Q 53.62 125.73 53.10 127.34
  Q 51.97 130.82 52.66 135.32
  C 53.41 140.23 59.10 141.30 59.21 134.95
  Q 59.21 134.42 59.53 133.99
  Q 61.97 130.65 65.85 132.31
  Q 66.49 132.59 66.49 131.89
  L 66.51 127.32
  Q 66.51 126.39 65.58 126.34
  Z"
/>
<path d="
  M 82.74 121.55
  C 84.56 125.55 80.01 125.75 79.85 128.74
  Q 79.82 129.34 80.40 129.16
  C 84.14 127.98 86.25 129.73 86.27 133.60
  C 86.29 136.06 86.76 141.44 85.20 143.37
  C 83.93 144.93 81.98 144.22 81.00 142.80
  Q 80.73 142.40 80.76 141.93
  L 81.08 135.28
  A 0.82 0.81 86.6 0 0 80.14 134.44
  C 72.90 135.67 73.52 128.37 75.88 124.25
  Q 76.14 123.79 75.79 123.38
  C 72.48 119.53 71.01 114.11 76.65 111.99
  Q 77.22 111.77 76.96 111.22
  Q 75.49 108.12 76.20 104.68
  Q 76.30 104.18 76.72 103.88
  Q 78.85 102.34 81.50 102.50
  Q 82.01 102.53 82.20 102.05
  C 82.71 100.80 83.90 100.12 85.22 100.72
  C 88.94 102.42 87.90 110.30 82.24 108.00
  Q 81.40 107.65 81.71 108.51
  L 83.23 112.72
  Q 83.40 113.21 83.27 113.71
  Q 82.41 116.79 78.99 116.98
  Q 78.19 117.02 78.50 117.75
  Q 79.48 120.04 81.91 120.81
  Q 82.49 120.99 82.74 121.55
  Z"
/>
<path d="
  M 119.06 134.94
  C 121.68 136.19 121.13 139.72 118.56 140.34
  C 117.27 140.64 115.76 139.96 114.29 139.79
  Q 113.72 139.72 113.52 140.26
  C 110.56 148.24 100.38 148.87 96.13 141.70
  Q 94.72 139.32 94.65 135.37
  C 94.42 120.05 104.01 121.48 115.51 123.56
  C 120.92 124.54 119.18 129.82 115.45 129.22
  C 112.11 128.68 102.50 126.31 100.80 130.04
  C 100.20 131.34 99.72 136.52 100.37 138.08
  C 101.52 140.82 105.70 142.46 107.54 139.41
  Q 107.79 139.00 107.74 138.51
  C 107.19 132.71 116.22 133.58 119.06 134.94
  Z"
/>
</g>
<path fill="#fbfbfc" d="
  M 96.21 84.74
  L 99.73 80.21
  A 0.43 0.43 0.0 0 1 100.50 80.47
  L 100.50 85.36
  A 0.43 0.43 0.0 0 1 100.03 85.79
  L 96.50 85.43
  A 0.43 0.43 0.0 0 1 96.21 84.74
  Z"
/>
</svg>
