<?xml version="1.0" encoding="UTF-8" standalone="no"?>
<!DOCTYPE svg PUBLIC "-//W3C//DTD SVG 1.1//EN" "http://www.w3.org/Graphics/SVG/1.1/DTD/svg11.dtd">
<svg xmlns="http://www.w3.org/2000/svg" version="1.1" viewBox="0 0 180 180">
<g stroke-width="2.00" fill="none" stroke-linecap="butt">
<path stroke="#533d3e" vector-effect="non-scaling-stroke" d="
  M 95.02 40.99
  C 92.01 38.52 93.44 35.68 95.13 32.68
  Q 95.51 32.01 94.73 31.97
  L 83.36 31.39
  Q 82.77 31.36 82.35 31.78
  Q 74.34 39.84 67.64 49.01
  Q 67.37 49.39 66.91 49.49
  Q 62.25 50.51 57.90 52.43
  Q 57.01 52.82 57.98 52.94
  Q 62.72 53.54 67.50 53.48
  Q 89.91 53.19 112.19 50.70
  Q 114.14 50.48 115.32 50.20
  Q 116.72 49.86 115.30 49.61
  C 111.30 48.88 106.85 48.89 103.34 46.81
  Q 98.96 44.21 95.02 40.99"
/>
<path stroke="#82883e" vector-effect="non-scaling-stroke" d="
  M 107.15 66.02
  C 100.64 67.85 102.42 61.78 101.95 58.41
  Q 101.88 57.91 101.38 57.93
  L 67.93 59.41
  A 0.46 0.45 -1.3 0 0 67.49 59.86
  Q 67.53 66.57 68.00 73.39
  C 68.86 85.73 79.82 93.76 91.86 89.61
  Q 96.01 88.19 98.37 84.68
  C 100.57 81.40 98.26 79.25 104.07 79.00
  C 111.17 78.71 116.49 68.64 108.12 66.03
  Q 107.64 65.88 107.15 66.02"
/>
<path stroke="#533d3e" vector-effect="non-scaling-stroke" d="
  M 104.76 85.51
  C 96.84 98.28 79.34 101.01 69.15 89.32
  Q 68.79 88.91 68.27 89.07
  Q 65.20 90.01 63.60 92.71
  Q 63.28 93.26 63.85 93.55
  Q 71.19 97.40 78.82 100.54
  C 82.97 102.25 80.54 107.24 76.87 105.86
  Q 69.46 103.09 62.46 99.21
  A 1.10 1.10 0.0 0 0 60.91 99.74
  L 58.34 105.87
  Q 58.14 106.36 58.61 106.61
  Q 76.47 116.04 92.32 120.42
  C 102.21 123.15 107.89 113.30 110.18 105.55
  C 112.29 98.43 113.40 92.03 108.61 86.21
  C 107.69 85.09 105.74 83.95 104.76 85.51"
/>
<path stroke="#533d3e" vector-effect="non-scaling-stroke" d="
  M 42.18 93.10
  C 38.99 91.76 28.90 86.56 26.30 88.05
  Q 25.84 88.32 26.04 88.81
  C 27.41 92.15 36.98 95.95 40.44 97.73
  Q 40.97 98.01 41.18 97.45
  L 42.54 93.94
  Q 42.77 93.34 42.18 93.10"
/>
<path stroke="#82883e" vector-effect="non-scaling-stroke" d="
  M 55.52 97.01
  C 47.65 91.45 42.41 101.06 52.55 103.49
  Q 53.14 103.63 53.38 103.08
  L 55.72 97.74
  A 0.60 0.59 -60.6 0 0 55.52 97.01"
/>
<path stroke="#533d3e" vector-effect="non-scaling-stroke" d="
  M 93.83 126.63
  A 0.37 0.36 73.7 0 0 93.52 127.20
  C 104.09 142.89 119.20 153.71 133.56 133.99
  C 135.97 130.68 145.54 116.85 141.36 113.15
  Q 131.56 104.51 118.68 101.72
  Q 117.25 101.40 116.96 102.85
  C 114.59 114.88 107.78 126.97 93.83 126.63"
/>
<path stroke="#927a6d" vector-effect="non-scaling-stroke" d="
  M 146.41 153.36
  L 138.22 147.12
  Q 137.71 146.74 137.70 146.09
  Q 137.64 142.91 140.55 142.71
  Q 141.04 142.68 141.44 142.96
  L 148.37 147.76
  Q 148.97 148.18 149.18 147.48
  L 151.32 140.52
  Q 151.47 140.03 150.96 139.93
  L 146.79 139.12
  A 2.06 2.06 0.0 0 1 145.17 136.67
  C 145.94 133.03 149.07 134.19 151.61 134.30
  Q 152.11 134.33 152.15 133.83
  L 152.45 129.48
  A 1.30 1.30 0.0 0 0 151.17 128.09
  L 144.63 127.96
  Q 144.03 127.95 143.77 128.49
  Q 139.13 138.07 131.30 145.30
  Q 130.97 145.60 131.26 145.95
  L 142.30 158.68
  Q 142.75 159.19 143.16 158.65
  L 146.53 154.25
  A 0.64 0.64 0.0 0 0 146.41 153.36"
/>
<path stroke="#82883e" vector-effect="non-scaling-stroke" d="
  M 82.0224 67.4287
  A 2.58 2.58 0.0 0 0 79.4022 64.8896
  L 79.2022 64.8927
  A 2.58 2.58 0.0 0 0 76.6630 67.5129
  L 76.8776 81.1713
  A 2.58 2.58 0.0 0 0 79.4978 83.7104
  L 79.6978 83.7073
  A 2.58 2.58 0.0 0 0 82.2370 81.0871
  L 82.0224 67.4287"
/>
</g>
<g fill="#38383c">
<path d="
  M 147.72 122.19
  C 153.40 122.48 158.13 122.24 157.96 129.75
  Q 157.61 144.92 151.00 157.46
  C 149.40 160.49 146.78 162.86 144.43 165.41
  C 142.80 167.17 140.92 166.13 139.62 164.52
  Q 133.12 156.48 126.23 148.77
  Q 125.89 148.38 125.41 148.60
  C 105.77 157.47 93.73 136.12 83.61 123.94
  Q 83.28 123.54 82.79 123.38
  Q 68.88 118.80 56.14 111.76
  C 45.98 106.14 35.24 101.75 25.09 96.15
  Q 22.00 94.45 20.97 92.33
  C 17.76 85.75 22.48 83.23 27.75 81.34
  Q 28.24 81.16 28.71 81.35
  Q 37.40 84.78 45.89 88.61
  Q 47.50 89.34 49.85 89.44
  Q 53.87 89.61 57.48 91.57
  Q 58.04 91.87 58.25 91.27
  Q 60.01 86.32 64.95 84.46
  Q 65.49 84.26 65.28 83.71
  C 61.99 75.48 62.02 68.92 62.48 59.54
  Q 62.50 59.00 61.97 58.97
  C 57.43 58.76 48.65 59.88 48.09 53.52
  Q 48.04 53.03 48.30 52.61
  C 50.85 48.51 58.73 45.67 63.64 44.30
  Q 64.13 44.17 64.44 43.77
  Q 70.62 35.95 77.32 28.59
  Q 79.12 26.62 81.10 26.10
  C 85.46 24.97 91.47 26.07 97.72 26.58
  Q 102.02 26.93 102.66 30.75
  Q 102.75 31.27 102.46 31.72
  L 99.38 36.53
  Q 99.09 36.98 99.51 37.32
  Q 101.98 39.30 104.55 40.95
  C 107.69 42.97 111.33 43.15 114.97 43.87
  C 117.88 44.45 128.61 47.31 124.35 52.42
  C 121.17 56.25 112.15 56.59 108.34 56.90
  Q 107.75 56.95 107.75 57.54
  L 107.75 59.74
  Q 107.75 60.25 108.25 60.35
  C 119.62 62.73 120.75 74.65 112.93 81.69
  Q 112.53 82.05 112.91 82.44
  Q 117.99 87.73 117.76 95.18
  A 0.63 0.63 0.0 0 0 118.27 95.82
  C 128.85 97.78 153.67 106.57 147.34 121.58
  Q 147.10 122.16 147.72 122.19
  Z
  M 95.02 40.99
  C 92.01 38.52 93.44 35.68 95.13 32.68
  Q 95.51 32.01 94.73 31.97
  L 83.36 31.39
  Q 82.77 31.36 82.35 31.78
  Q 74.34 39.84 67.64 49.01
  Q 67.37 49.39 66.91 49.49
  Q 62.25 50.51 57.90 52.43
  Q 57.01 52.82 57.98 52.94
  Q 62.72 53.54 67.50 53.48
  Q 89.91 53.19 112.19 50.70
  Q 114.14 50.48 115.32 50.20
  Q 116.72 49.86 115.30 49.61
  C 111.30 48.88 106.85 48.89 103.34 46.81
  Q 98.96 44.21 95.02 40.99
  Z
  M 107.15 66.02
  C 100.64 67.85 102.42 61.78 101.95 58.41
  Q 101.88 57.91 101.38 57.93
  L 67.93 59.41
  A 0.46 0.45 -1.3 0 0 67.49 59.86
  Q 67.53 66.57 68.00 73.39
  C 68.86 85.73 79.82 93.76 91.86 89.61
  Q 96.01 88.19 98.37 84.68
  C 100.57 81.40 98.26 79.25 104.07 79.00
  C 111.17 78.71 116.49 68.64 108.12 66.03
  Q 107.64 65.88 107.15 66.02
  Z
  M 104.76 85.51
  C 96.84 98.28 79.34 101.01 69.15 89.32
  Q 68.79 88.91 68.27 89.07
  Q 65.20 90.01 63.60 92.71
  Q 63.28 93.26 63.85 93.55
  Q 71.19 97.40 78.82 100.54
  C 82.97 102.25 80.54 107.24 76.87 105.86
  Q 69.46 103.09 62.46 99.21
  A 1.10 1.10 0.0 0 0 60.91 99.74
  L 58.34 105.87
  Q 58.14 106.36 58.61 106.61
  Q 76.47 116.04 92.32 120.42
  C 102.21 123.15 107.89 113.30 110.18 105.55
  C 112.29 98.43 113.40 92.03 108.61 86.21
  C 107.69 85.09 105.74 83.95 104.76 85.51
  Z
  M 42.18 93.10
  C 38.99 91.76 28.90 86.56 26.30 88.05
  Q 25.84 88.32 26.04 88.81
  C 27.41 92.15 36.98 95.95 40.44 97.73
  Q 40.97 98.01 41.18 97.45
  L 42.54 93.94
  Q 42.77 93.34 42.18 93.10
  Z
  M 55.52 97.01
  C 47.65 91.45 42.41 101.06 52.55 103.49
  Q 53.14 103.63 53.38 103.08
  L 55.72 97.74
  A 0.60 0.59 -60.6 0 0 55.52 97.01
  Z
  M 93.83 126.63
  A 0.37 0.36 73.7 0 0 93.52 127.20
  C 104.09 142.89 119.20 153.71 133.56 133.99
  C 135.97 130.68 145.54 116.85 141.36 113.15
  Q 131.56 104.51 118.68 101.72
  Q 117.25 101.40 116.96 102.85
  C 114.59 114.88 107.78 126.97 93.83 126.63
  Z
  M 146.41 153.36
  L 138.22 147.12
  Q 137.71 146.74 137.70 146.09
  Q 137.64 142.91 140.55 142.71
  Q 141.04 142.68 141.44 142.96
  L 148.37 147.76
  Q 148.97 148.18 149.18 147.48
  L 151.32 140.52
  Q 151.47 140.03 150.96 139.93
  L 146.79 139.12
  A 2.06 2.06 0.0 0 1 145.17 136.67
  C 145.94 133.03 149.07 134.19 151.61 134.30
  Q 152.11 134.33 152.15 133.83
  L 152.45 129.48
  A 1.30 1.30 0.0 0 0 151.17 128.09
  L 144.63 127.96
  Q 144.03 127.95 143.77 128.49
  Q 139.13 138.07 131.30 145.30
  Q 130.97 145.60 131.26 145.95
  L 142.30 158.68
  Q 142.75 159.19 143.16 158.65
  L 146.53 154.25
  A 0.64 0.64 0.0 0 0 146.41 153.36
  Z"
/>
<rect x="-2.68" y="-9.41" transform="translate(79.45,74.30) rotate(-0.9)" width="5.36" height="18.82" rx="2.58"/>
</g>
<g fill="#ccd73f">
<path d="
  M 101.95 58.41
  C 102.42 61.78 100.64 67.85 107.15 66.02
  Q 107.64 65.88 108.12 66.03
  C 116.49 68.64 111.17 78.71 104.07 79.00
  C 98.26 79.25 100.57 81.40 98.37 84.68
  Q 96.01 88.19 91.86 89.61
  C 79.82 93.76 68.86 85.73 68.00 73.39
  Q 67.53 66.57 67.49 59.86
  A 0.46 0.45 -1.3 0 1 67.93 59.41
  L 101.38 57.93
  Q 101.88 57.91 101.95 58.41
  Z
  M 82.0224 67.4287
  A 2.58 2.58 0.0 0 0 79.4022 64.8896
  L 79.2022 64.8927
  A 2.58 2.58 0.0 0 0 76.6630 67.5129
  L 76.8776 81.1713
  A 2.58 2.58 0.0 0 0 79.4978 83.7104
  L 79.6978 83.7073
  A 2.58 2.58 0.0 0 0 82.2370 81.0871
  L 82.0224 67.4287
  Z"
/>
<path d="
  M 55.52 97.01
  A 0.60 0.59 -60.6 0 1 55.72 97.74
  L 53.38 103.08
  Q 53.14 103.63 52.55 103.49
  C 42.41 101.06 47.65 91.45 55.52 97.01
  Z"
/>
</g>
<g fill="#6e423f">
<path d="
  M 95.02 40.99
  Q 98.96 44.21 103.34 46.81
  C 106.85 48.89 111.30 48.88 115.30 49.61
  Q 116.72 49.86 115.32 50.20
  Q 114.14 50.48 112.19 50.70
  Q 89.91 53.19 67.50 53.48
  Q 62.72 53.54 57.98 52.94
  Q 57.01 52.82 57.90 52.43
  Q 62.25 50.51 66.91 49.49
  Q 67.37 49.39 67.64 49.01
  Q 74.34 39.84 82.35 31.78
  Q 82.77 31.36 83.36 31.39
  L 94.73 31.97
  Q 95.51 32.01 95.13 32.68
  C 93.44 35.68 92.01 38.52 95.02 40.99
  Z"
/>
<path d="
  M 69.15 89.32
  C 79.34 101.01 96.84 98.28 104.76 85.51
  C 105.74 83.95 107.69 85.09 108.61 86.21
  C 113.40 92.03 112.29 98.43 110.18 105.55
  C 107.89 113.30 102.21 123.15 92.32 120.42
  Q 76.47 116.04 58.61 106.61
  Q 58.14 106.36 58.34 105.87
  L 60.91 99.74
  A 1.10 1.10 0.0 0 1 62.46 99.21
  Q 69.46 103.09 76.87 105.86
  C 80.54 107.24 82.97 102.25 78.82 100.54
  Q 71.19 97.40 63.85 93.55
  Q 63.28 93.26 63.60 92.71
  Q 65.20 90.01 68.27 89.07
  Q 68.79 88.91 69.15 89.32
  Z"
/>
<path d="
  M 26.30 88.05
  C 28.90 86.56 38.99 91.76 42.18 93.10
  Q 42.77 93.34 42.54 93.94
  L 41.18 97.45
  Q 40.97 98.01 40.44 97.73
  C 36.98 95.95 27.41 92.15 26.04 88.81
  Q 25.84 88.32 26.30 88.05
  Z"
/>
<path d="
  M 93.83 126.63
  C 107.78 126.97 114.59 114.88 116.96 102.85
  Q 117.25 101.40 118.68 101.72
  Q 131.56 104.51 141.36 113.15
  C 145.54 116.85 135.97 130.68 133.56 133.99
  C 119.20 153.71 104.09 142.89 93.52 127.20
  A 0.37 0.36 73.7 0 1 93.83 126.63
  Z"
/>
</g>
<path fill="#ebbc9e" d="
  M 146.41 153.36
  A 0.64 0.64 0.0 0 1 146.53 154.25
  L 143.16 158.65
  Q 142.75 159.19 142.30 158.68
  L 131.26 145.95
  Q 130.97 145.60 131.30 145.30
  Q 139.13 138.07 143.77 128.49
  Q 144.03 127.95 144.63 127.96
  L 151.17 128.09
  A 1.30 1.30 0.0 0 1 152.45 129.48
  L 152.15 133.83
  Q 152.11 134.33 151.61 134.30
  C 149.07 134.19 145.94 133.03 145.17 136.67
  A 2.06 2.06 0.0 0 0 146.79 139.12
  L 150.96 139.93
  Q 151.47 140.03 151.32 140.52
  L 149.18 147.48
  Q 148.97 148.18 148.37 147.76
  L 141.44 142.96
  Q 141.04 142.68 140.55 142.71
  Q 137.64 142.91 137.70 146.09
  Q 137.71 146.74 138.22 147.12
  L 146.41 153.36
  Z"
/>
</svg>
