<?xml version="1.0" encoding="UTF-8" standalone="no"?>
<!DOCTYPE svg PUBLIC "-//W3C//DTD SVG 1.1//EN" "http://www.w3.org/Graphics/SVG/1.1/DTD/svg11.dtd">
<svg xmlns="http://www.w3.org/2000/svg" version="1.1" viewBox="0 0 180 180">
<g stroke-width="2.00" fill="none" stroke-linecap="butt">
<path stroke="#98989a" vector-effect="non-scaling-stroke" d="
  M 98.72 37.01
  C 95.70 36.98 90.60 37.04 92.48 32.10
  A 0.89 0.88 1.8 0 0 91.39 30.94
  C 82.90 33.56 75.63 30.04 69.75 38.93
  Q 69.51 39.29 69.14 39.53
  Q 67.79 40.40 66.23 40.24
  Q 65.70 40.18 65.33 40.57
  C 63.11 42.90 67.57 43.49 66.12 46.33
  Q 65.64 47.27 66.47 46.61
  C 77.38 37.95 92.63 42.77 98.18 55.07
  Q 98.45 55.66 98.81 55.12
  C 101.18 51.55 100.03 45.17 98.36 41.95
  Q 98.12 41.48 98.28 40.97
  L 99.27 37.75
  Q 99.50 37.01 98.72 37.01"
/>
<path stroke="#576461" vector-effect="non-scaling-stroke" d="
  M 65.99 60.48
  C 65.18 63.06 77.18 70.61 72.46 75.64
  Q 72.09 76.03 72.43 76.46
  C 77.09 82.34 87.54 81.30 93.12 78.01
  Q 93.75 77.64 93.03 77.54
  Q 89.98 77.09 86.90 76.86
  C 76.08 76.06 88.47 60.84 93.36 60.19
  Q 93.93 60.12 93.76 59.57
  C 90.88 50.11 78.56 43.22 70.30 50.57
  C 67.75 52.85 67.00 57.23 65.99 60.48"
/>
<path stroke="#576461" vector-effect="non-scaling-stroke" d="
  M 107.81 56.94
  C 101.66 53.47 101.67 65.58 102.44 68.53
  Q 102.58 69.03 103.08 68.94
  C 108.20 68.07 113.87 60.35 107.81 56.94"
/>
<path stroke="#98989a" vector-effect="non-scaling-stroke" d="
  M 121.65 64.58
  Q 119.99 61.17 116.57 59.84
  Q 116.09 59.66 116.05 60.17
  Q 115.27 72.59 103.23 74.79
  Q 102.76 74.88 102.56 75.30
  C 95.62 89.57 74.80 90.05 65.89 77.58
  A 0.32 0.32 0.0 0 0 65.32 77.73
  C 64.94 81.56 64.60 91.30 60.24 92.67
  Q 59.76 92.83 60.03 93.25
  Q 62.37 96.89 58.23 98.48
  Q 57.09 98.92 58.20 99.41
  C 60.89 100.61 62.45 102.66 62.31 105.84
  Q 61.33 127.89 61.89 149.96
  Q 61.90 150.45 61.44 150.59
  L 56.23 152.27
  Q 55.70 152.44 56.10 152.83
  Q 59.43 156.13 56.60 159.73
  Q 56.15 160.31 56.88 160.24
  C 59.85 159.95 63.69 158.57 63.24 163.51
  Q 63.20 164.03 63.55 164.41
  C 67.83 169.06 83.06 167.45 88.90 166.62
  Q 89.43 166.54 89.43 166.00
  C 89.47 159.09 90.83 150.15 97.32 146.63
  C 104.21 142.90 111.45 146.15 113.20 154.02
  Q 114.36 159.20 114.51 164.57
  A 0.92 0.92 0.0 0 0 115.24 165.43
  C 122.55 166.94 132.43 167.93 139.48 165.05
  A 1.49 1.49 0.0 0 0 140.39 163.79
  C 140.74 159.23 141.35 153.86 140.14 149.47
  C 139.05 145.49 143.19 145.50 145.66 146.17
  Q 146.19 146.31 146.25 145.77
  C 146.48 143.90 141.48 141.74 146.91 138.83
  Q 147.55 138.49 146.85 138.33
  C 143.42 137.54 142.04 135.70 144.72 132.61
  Q 145.65 131.52 144.26 131.86
  Q 141.67 132.49 140.16 130.47
  Q 139.84 130.05 139.81 129.52
  L 139.45 123.23
  Q 139.41 122.52 138.89 123.01
  Q 133.41 128.21 124.73 130.43
  C 116.34 132.58 101.43 134.01 98.69 123.17
  Q 98.54 122.59 98.11 123.02
  C 95.36 125.79 90.07 130.18 86.01 129.20
  C 79.32 127.59 73.82 121.16 69.70 115.07
  Q 63.19 105.45 64.62 93.82
  C 65.35 87.86 85.17 87.30 92.99 87.24
  Q 97.23 87.21 103.63 89.09
  C 111.53 91.42 107.28 105.41 105.47 110.15
  Q 105.35 110.47 105.67 110.36
  L 115.32 106.80
  A 1.54 1.54 0.0 0 0 116.23 104.83
  L 114.35 99.69
  A 2.15 2.15 0.0 0 1 115.77 96.89
  C 120.51 95.51 121.86 104.70 121.80 107.50
  Q 121.79 107.98 122.17 108.27
  C 126.48 111.61 127.46 118.41 126.81 123.47
  Q 126.73 124.10 127.32 123.86
  Q 133.94 121.17 137.94 115.18
  Q 138.24 114.73 138.20 114.20
  Q 137.17 102.03 134.08 90.20
  C 133.40 87.60 131.99 86.33 134.66 83.90
  Q 135.12 83.49 134.68 83.05
  C 131.73 80.05 126.89 78.52 131.51 73.67
  Q 132.45 72.69 131.10 72.52
  C 126.89 72.01 124.80 68.27 127.81 64.78
  A 0.27 0.27 0.0 0 0 127.56 64.33
  L 122.70 65.12
  Q 121.98 65.24 121.65 64.58"
/>
<path stroke="#98989a" vector-effect="non-scaling-stroke" d="
  M 92.33 71.72
  A 1.06 1.06 0.0 0 0 93.50 70.67
  L 93.50 66.49
  Q 93.50 65.19 92.71 66.23
  L 89.19 70.85
  Q 88.80 71.36 89.44 71.42
  L 92.33 71.72"
/>
<path stroke="#98989a" vector-effect="non-scaling-stroke" d="
  M 63.44 71.78
  L 66.58 71.43
  Q 67.27 71.35 66.84 70.80
  L 63.35 66.33
  Q 62.50 65.24 62.50 66.63
  L 62.50 70.94
  A 0.85 0.84 86.7 0 0 63.44 71.78"
/>
<path stroke="#576461" vector-effect="non-scaling-stroke" d="
  M 101.11 94.14
  Q 85.71 91.11 70.59 95.28
  Q 69.83 95.49 69.79 96.28
  C 69.26 107.15 77.10 118.60 86.55 123.53
  Q 87.03 123.77 87.52 123.57
  C 97.39 119.64 101.82 105.58 102.47 95.92
  Q 102.58 94.43 101.11 94.14"
/>
<path stroke="#576461" vector-effect="non-scaling-stroke" d="
  M 42.46 122.77
  Q 48.31 126.43 55.38 125.68
  Q 55.93 125.62 55.94 125.06
  L 56.14 113.23
  Q 56.14 112.86 55.77 112.87
  Q 49.23 113.14 46.57 114.32
  C 44.22 115.36 38.50 120.28 42.46 122.77"
/>
<path stroke="#576461" vector-effect="non-scaling-stroke" d="
  M 118.74 112.82
  C 114.56 112.81 105.33 115.20 104.32 120.08
  C 102.84 127.23 115.54 126.55 119.69 125.48
  Q 120.24 125.34 120.42 124.81
  Q 122.55 118.77 119.45 113.23
  A 0.82 0.80 -14.3 0 0 118.74 112.82"
/>
<path stroke="#576461" vector-effect="non-scaling-stroke" d="
  M 80.0881 57.3920
  A 2.60 2.60 0.0 0 0 77.4610 54.8194
  L 77.2410 54.8217
  A 2.60 2.60 0.0 0 0 74.6684 57.4488
  L 74.8119 71.1480
  A 2.60 2.60 0.0 0 0 77.4390 73.7206
  L 77.6590 73.7183
  A 2.60 2.60 0.0 0 0 80.2316 71.0912
  L 80.0881 57.3920"
/>
</g>
<g fill="#f8f8f8">
<path d="
  M 92.48 32.10
  C 90.60 37.04 95.70 36.98 98.72 37.01
  Q 99.50 37.01 99.27 37.75
  L 98.28 40.97
  Q 98.12 41.48 98.36 41.95
  C 100.03 45.17 101.18 51.55 98.81 55.12
  Q 98.45 55.66 98.18 55.07
  C 92.63 42.77 77.38 37.95 66.47 46.61
  Q 65.64 47.27 66.12 46.33
  C 67.57 43.49 63.11 42.90 65.33 40.57
  Q 65.70 40.18 66.23 40.24
  Q 67.79 40.40 69.14 39.53
  Q 69.51 39.29 69.75 38.93
  C 75.63 30.04 82.90 33.56 91.39 30.94
  A 0.89 0.88 1.8 0 1 92.48 32.10
  Z"
/>
<path d="
  M 122.70 65.12
  L 127.56 64.33
  A 0.27 0.27 0.0 0 1 127.81 64.78
  C 124.80 68.27 126.89 72.01 131.10 72.52
  Q 132.45 72.69 131.51 73.67
  C 126.89 78.52 131.73 80.05 134.68 83.05
  Q 135.12 83.49 134.66 83.90
  C 131.99 86.33 133.40 87.60 134.08 90.20
  Q 137.17 102.03 138.20 114.20
  Q 138.24 114.73 137.94 115.18
  Q 133.94 121.17 127.32 123.86
  Q 126.73 124.10 126.81 123.47
  C 127.46 118.41 126.48 111.61 122.17 108.27
  Q 121.79 107.98 121.80 107.50
  C 121.86 104.70 120.51 95.51 115.77 96.89
  A 2.15 2.15 0.0 0 0 114.35 99.69
  L 116.23 104.83
  A 1.54 1.54 0.0 0 1 115.32 106.80
  L 105.67 110.36
  Q 105.35 110.47 105.47 110.15
  C 107.28 105.41 111.53 91.42 103.63 89.09
  Q 97.23 87.21 92.99 87.24
  C 85.17 87.30 65.35 87.86 64.62 93.82
  Q 63.19 105.45 69.70 115.07
  C 73.82 121.16 79.32 127.59 86.01 129.20
  C 90.07 130.18 95.36 125.79 98.11 123.02
  Q 98.54 122.59 98.69 123.17
  C 101.43 134.01 116.34 132.58 124.73 130.43
  Q 133.41 128.21 138.89 123.01
  Q 139.41 122.52 139.45 123.23
  L 139.81 129.52
  Q 139.84 130.05 140.16 130.47
  Q 141.67 132.49 144.26 131.86
  Q 145.65 131.52 144.72 132.61
  C 142.04 135.70 143.42 137.54 146.85 138.33
  Q 147.55 138.49 146.91 138.83
  C 141.48 141.74 146.48 143.90 146.25 145.77
  Q 146.19 146.31 145.66 146.17
  C 143.19 145.50 139.05 145.49 140.14 149.47
  C 141.35 153.86 140.74 159.23 140.39 163.79
  A 1.49 1.49 0.0 0 1 139.48 165.05
  C 132.43 167.93 122.55 166.94 115.24 165.43
  A 0.92 0.92 0.0 0 1 114.51 164.57
  Q 114.36 159.20 113.20 154.02
  C 111.45 146.15 104.21 142.90 97.32 146.63
  C 90.83 150.15 89.47 159.09 89.43 166.00
  Q 89.43 166.54 88.90 166.62
  C 83.06 167.45 67.83 169.06 63.55 164.41
  Q 63.20 164.03 63.24 163.51
  C 63.69 158.57 59.85 159.95 56.88 160.24
  Q 56.15 160.31 56.60 159.73
  Q 59.43 156.13 56.10 152.83
  Q 55.70 152.44 56.23 152.27
  L 61.44 150.59
  Q 61.90 150.45 61.89 149.96
  Q 61.33 127.89 62.31 105.84
  C 62.45 102.66 60.89 100.61 58.20 99.41
  Q 57.09 98.92 58.23 98.48
  Q 62.37 96.89 60.03 93.25
  Q 59.76 92.83 60.24 92.67
  C 64.60 91.30 64.94 81.56 65.32 77.73
  A 0.32 0.32 0.0 0 1 65.89 77.58
  C 74.80 90.05 95.62 89.57 102.56 75.30
  Q 102.76 74.88 103.23 74.79
  Q 115.27 72.59 116.05 60.17
  Q 116.09 59.66 116.57 59.84
  Q 119.99 61.17 121.65 64.58
  Q 121.98 65.24 122.70 65.12
  Z"
/>
<path d="
  M 92.33 71.72
  L 89.44 71.42
  Q 88.80 71.36 89.19 70.85
  L 92.71 66.23
  Q 93.50 65.19 93.50 66.49
  L 93.50 70.67
  A 1.06 1.06 0.0 0 1 92.33 71.72
  Z"
/>
<path d="
  M 63.44 71.78
  A 0.85 0.84 86.7 0 1 62.50 70.94
  L 62.50 66.63
  Q 62.50 65.24 63.35 66.33
  L 66.84 70.80
  Q 67.27 71.35 66.58 71.43
  L 63.44 71.78
  Z"
/>
</g>
<g fill="#38383c">
<path d="
  M 133.16 67.53
  C 137.51 68.59 139.26 72.92 136.30 76.61
  Q 135.95 77.05 136.43 77.35
  Q 139.96 79.53 140.98 83.61
  Q 141.10 84.11 140.84 84.55
  L 139.52 86.70
  Q 139.24 87.17 139.36 87.71
  Q 143.75 106.32 145.22 125.40
  Q 145.26 125.94 145.80 125.91
  L 148.92 125.72
  Q 149.53 125.69 149.92 126.17
  Q 152.55 129.47 150.45 133.55
  Q 150.17 134.09 150.71 134.36
  L 152.17 135.08
  Q 152.68 135.33 152.98 135.81
  Q 155.64 140.10 151.67 142.70
  Q 151.24 142.99 151.31 143.50
  C 151.87 147.56 153.00 151.78 147.14 151.89
  Q 146.63 151.90 146.60 152.40
  C 146.28 157.29 146.95 163.60 145.22 168.10
  Q 145.03 168.60 144.57 168.86
  Q 139.70 171.70 133.01 172.30
  C 127.44 172.81 109.11 173.01 108.95 165.63
  Q 108.82 160.14 107.69 154.78
  C 106.27 148.04 98.19 150.57 96.57 155.59
  Q 95.12 160.09 94.38 168.05
  C 94.18 170.12 92.94 171.88 90.93 172.13
  C 82.95 173.14 62.31 175.51 58.57 166.48
  A 1.36 1.35 -16.5 0 0 57.07 165.67
  Q 53.35 166.36 50.75 163.88
  Q 50.37 163.52 50.30 163.00
  Q 49.84 159.66 51.72 156.91
  Q 52.03 156.46 51.74 155.99
  C 49.09 151.60 48.30 145.67 55.52 146.42
  Q 56.06 146.47 56.06 145.93
  L 55.97 131.98
  Q 55.97 131.47 55.46 131.51
  C 47.02 132.11 28.36 127.27 37.79 114.28
  C 42.05 108.41 48.87 107.48 55.70 107.11
  Q 56.24 107.08 56.53 106.62
  C 58.22 103.93 47.31 101.50 53.44 95.13
  Q 53.84 94.72 53.68 94.17
  Q 52.01 88.40 57.69 87.43
  Q 58.30 87.32 58.39 86.72
  L 59.86 77.12
  Q 59.93 76.65 59.54 76.38
  C 55.08 73.24 57.50 63.77 59.86 60.46
  Q 60.12 60.10 60.13 59.66
  L 60.60 46.71
  Q 60.61 46.22 60.36 45.81
  Q 56.93 40.14 61.67 36.30
  C 63.05 35.19 65.61 35.35 66.69 34.19
  Q 70.78 29.78 76.25 27.65
  C 80.61 25.95 84.97 27.44 89.53 26.12
  Q 92.64 25.22 95.91 25.47
  Q 96.47 25.52 96.86 25.90
  Q 98.92 27.93 98.14 31.02
  Q 97.95 31.79 98.73 31.62
  Q 103.89 30.53 105.24 34.68
  C 106.06 37.20 104.01 39.15 104.72 41.76
  Q 105.71 45.37 105.79 49.12
  Q 105.80 49.60 106.27 49.74
  C 112.66 51.68 120.13 54.22 124.93 59.03
  Q 125.32 59.41 125.82 59.21
  Q 128.28 58.26 130.67 59.08
  C 134.76 60.49 133.46 63.82 132.73 66.84
  Q 132.60 67.40 133.16 67.53
  Z
  M 98.72 37.01
  C 95.70 36.98 90.60 37.04 92.48 32.10
  A 0.89 0.88 1.8 0 0 91.39 30.94
  C 82.90 33.56 75.63 30.04 69.75 38.93
  Q 69.51 39.29 69.14 39.53
  Q 67.79 40.40 66.23 40.24
  Q 65.70 40.18 65.33 40.57
  C 63.11 42.90 67.57 43.49 66.12 46.33
  Q 65.64 47.27 66.47 46.61
  C 77.38 37.95 92.63 42.77 98.18 55.07
  Q 98.45 55.66 98.81 55.12
  C 101.18 51.55 100.03 45.17 98.36 41.95
  Q 98.12 41.48 98.28 40.97
  L 99.27 37.75
  Q 99.50 37.01 98.72 37.01
  Z
  M 65.99 60.48
  C 65.18 63.06 77.18 70.61 72.46 75.64
  Q 72.09 76.03 72.43 76.46
  C 77.09 82.34 87.54 81.30 93.12 78.01
  Q 93.75 77.64 93.03 77.54
  Q 89.98 77.09 86.90 76.86
  C 76.08 76.06 88.47 60.84 93.36 60.19
  Q 93.93 60.12 93.76 59.57
  C 90.88 50.11 78.56 43.22 70.30 50.57
  C 67.75 52.85 67.00 57.23 65.99 60.48
  Z
  M 107.81 56.94
  C 101.66 53.47 101.67 65.58 102.44 68.53
  Q 102.58 69.03 103.08 68.94
  C 108.20 68.07 113.87 60.35 107.81 56.94
  Z
  M 121.65 64.58
  Q 119.99 61.17 116.57 59.84
  Q 116.09 59.66 116.05 60.17
  Q 115.27 72.59 103.23 74.79
  Q 102.76 74.88 102.56 75.30
  C 95.62 89.57 74.80 90.05 65.89 77.58
  A 0.32 0.32 0.0 0 0 65.32 77.73
  C 64.94 81.56 64.60 91.30 60.24 92.67
  Q 59.76 92.83 60.03 93.25
  Q 62.37 96.89 58.23 98.48
  Q 57.09 98.92 58.20 99.41
  C 60.89 100.61 62.45 102.66 62.31 105.84
  Q 61.33 127.89 61.89 149.96
  Q 61.90 150.45 61.44 150.59
  L 56.23 152.27
  Q 55.70 152.44 56.10 152.83
  Q 59.43 156.13 56.60 159.73
  Q 56.15 160.31 56.88 160.24
  C 59.85 159.95 63.69 158.57 63.24 163.51
  Q 63.20 164.03 63.55 164.41
  C 67.83 169.06 83.06 167.45 88.90 166.62
  Q 89.43 166.54 89.43 166.00
  C 89.47 159.09 90.83 150.15 97.32 146.63
  C 104.21 142.90 111.45 146.15 113.20 154.02
  Q 114.36 159.20 114.51 164.57
  A 0.92 0.92 0.0 0 0 115.24 165.43
  C 122.55 166.94 132.43 167.93 139.48 165.05
  A 1.49 1.49 0.0 0 0 140.39 163.79
  C 140.74 159.23 141.35 153.86 140.14 149.47
  C 139.05 145.49 143.19 145.50 145.66 146.17
  Q 146.19 146.31 146.25 145.77
  C 146.48 143.90 141.48 141.74 146.91 138.83
  Q 147.55 138.49 146.85 138.33
  C 143.42 137.54 142.04 135.70 144.72 132.61
  Q 145.65 131.52 144.26 131.86
  Q 141.67 132.49 140.16 130.47
  Q 139.84 130.05 139.81 129.52
  L 139.45 123.23
  Q 139.41 122.52 138.89 123.01
  Q 133.41 128.21 124.73 130.43
  C 116.34 132.58 101.43 134.01 98.69 123.17
  Q 98.54 122.59 98.11 123.02
  C 95.36 125.79 90.07 130.18 86.01 129.20
  C 79.32 127.59 73.82 121.16 69.70 115.07
  Q 63.19 105.45 64.62 93.82
  C 65.35 87.86 85.17 87.30 92.99 87.24
  Q 97.23 87.21 103.63 89.09
  C 111.53 91.42 107.28 105.41 105.47 110.15
  Q 105.35 110.47 105.67 110.36
  L 115.32 106.80
  A 1.54 1.54 0.0 0 0 116.23 104.83
  L 114.35 99.69
  A 2.15 2.15 0.0 0 1 115.77 96.89
  C 120.51 95.51 121.86 104.70 121.80 107.50
  Q 121.79 107.98 122.17 108.27
  C 126.48 111.61 127.46 118.41 126.81 123.47
  Q 126.73 124.10 127.32 123.86
  Q 133.94 121.17 137.94 115.18
  Q 138.24 114.73 138.20 114.20
  Q 137.17 102.03 134.08 90.20
  C 133.40 87.60 131.99 86.33 134.66 83.90
  Q 135.12 83.49 134.68 83.05
  C 131.73 80.05 126.89 78.52 131.51 73.67
  Q 132.45 72.69 131.10 72.52
  C 126.89 72.01 124.80 68.27 127.81 64.78
  A 0.27 0.27 0.0 0 0 127.56 64.33
  L 122.70 65.12
  Q 121.98 65.24 121.65 64.58
  Z
  M 92.33 71.72
  A 1.06 1.06 0.0 0 0 93.50 70.67
  L 93.50 66.49
  Q 93.50 65.19 92.71 66.23
  L 89.19 70.85
  Q 88.80 71.36 89.44 71.42
  L 92.33 71.72
  Z
  M 63.44 71.78
  L 66.58 71.43
  Q 67.27 71.35 66.84 70.80
  L 63.35 66.33
  Q 62.50 65.24 62.50 66.63
  L 62.50 70.94
  A 0.85 0.84 86.7 0 0 63.44 71.78
  Z
  M 101.11 94.14
  Q 85.71 91.11 70.59 95.28
  Q 69.83 95.49 69.79 96.28
  C 69.26 107.15 77.10 118.60 86.55 123.53
  Q 87.03 123.77 87.52 123.57
  C 97.39 119.64 101.82 105.58 102.47 95.92
  Q 102.58 94.43 101.11 94.14
  Z
  M 42.46 122.77
  Q 48.31 126.43 55.38 125.68
  Q 55.93 125.62 55.94 125.06
  L 56.14 113.23
  Q 56.14 112.86 55.77 112.87
  Q 49.23 113.14 46.57 114.32
  C 44.22 115.36 38.50 120.28 42.46 122.77
  Z
  M 118.74 112.82
  C 114.56 112.81 105.33 115.20 104.32 120.08
  C 102.84 127.23 115.54 126.55 119.69 125.48
  Q 120.24 125.34 120.42 124.81
  Q 122.55 118.77 119.45 113.23
  A 0.82 0.80 -14.3 0 0 118.74 112.82
  Z"
/>
<rect x="-2.71" y="-9.45" transform="translate(77.45,64.27) rotate(-0.6)" width="5.42" height="18.90" rx="2.60"/>
</g>
<g fill="#759086">
<path d="
  M 72.46 75.64
  C 77.18 70.61 65.18 63.06 65.99 60.48
  C 67.00 57.23 67.75 52.85 70.30 50.57
  C 78.56 43.22 90.88 50.11 93.76 59.57
  Q 93.93 60.12 93.36 60.19
  C 88.47 60.84 76.08 76.06 86.90 76.86
  Q 89.98 77.09 93.03 77.54
  Q 93.75 77.64 93.12 78.01
  C 87.54 81.30 77.09 82.34 72.43 76.46
  Q 72.09 76.03 72.46 75.64
  Z
  M 80.0881 57.3920
  A 2.60 2.60 0.0 0 0 77.4610 54.8194
  L 77.2410 54.8217
  A 2.60 2.60 0.0 0 0 74.6684 57.4488
  L 74.8119 71.1480
  A 2.60 2.60 0.0 0 0 77.4390 73.7206
  L 77.6590 73.7183
  A 2.60 2.60 0.0 0 0 80.2316 71.0912
  L 80.0881 57.3920
  Z"
/>
<path d="
  M 107.81 56.94
  C 113.87 60.35 108.20 68.07 103.08 68.94
  Q 102.58 69.03 102.44 68.53
  C 101.67 65.58 101.66 53.47 107.81 56.94
  Z"
/>
<path d="
  M 101.11 94.14
  Q 102.58 94.43 102.47 95.92
  C 101.82 105.58 97.39 119.64 87.52 123.57
  Q 87.03 123.77 86.55 123.53
  C 77.10 118.60 69.26 107.15 69.79 96.28
  Q 69.83 95.49 70.59 95.28
  Q 85.71 91.11 101.11 94.14
  Z"
/>
<path d="
  M 42.46 122.77
  C 38.50 120.28 44.22 115.36 46.57 114.32
  Q 49.23 113.14 55.77 112.87
  Q 56.14 112.86 56.14 113.23
  L 55.94 125.06
  Q 55.93 125.62 55.38 125.68
  Q 48.31 126.43 42.46 122.77
  Z"
/>
<path d="
  M 118.74 112.82
  A 0.82 0.80 -14.3 0 1 119.45 113.23
  Q 122.55 118.77 120.42 124.81
  Q 120.24 125.34 119.69 125.48
  C 115.54 126.55 102.84 127.23 104.32 120.08
  C 105.33 115.20 114.56 112.81 118.74 112.82
  Z"
/>
</g>
</svg>
