<?xml version="1.0" encoding="UTF-8" standalone="no"?>
<!DOCTYPE svg PUBLIC "-//W3C//DTD SVG 1.1//EN" "http://www.w3.org/Graphics/SVG/1.1/DTD/svg11.dtd">
<svg xmlns="http://www.w3.org/2000/svg" version="1.1" viewBox="0 0 180 180">
<g stroke-width="2.00" fill="none" stroke-linecap="butt">
<path stroke="#927a6d" vector-effect="non-scaling-stroke" d="
  M 84.21 50.39
  Q 83.88 49.88 83.18 49.43
  A 0.72 0.72 0.0 0 0 82.13 50.32
  Q 84.89 56.54 89.85 61.20
  Q 90.30 61.63 90.47 61.03
  C 90.91 59.47 94.55 48.93 94.28 48.46
  C 91.23 43.19 89.46 53.69 84.93 51.08
  Q 84.48 50.82 84.21 50.39"
/>
<path stroke="#927a6d" vector-effect="non-scaling-stroke" d="
  M 103.12 52.31
  C 97.05 51.93 96.33 59.71 95.81 64.12
  Q 95.76 64.60 96.19 64.82
  C 98.47 65.97 112.43 70.69 107.15 62.57
  Q 106.86 62.13 106.39 61.90
  Q 101.82 59.68 104.63 55.27
  A 1.93 1.93 0.0 0 0 103.12 52.31"
/>
<path stroke="#576461" vector-effect="non-scaling-stroke" d="
  M 114.77 80.13
  C 115.99 76.62 113.10 71.66 109.10 73.30
  Q 108.64 73.49 108.14 73.47
  Q 86.66 72.60 77.35 53.62
  Q 77.10 53.12 76.73 53.54
  C 69.84 61.18 70.13 68.80 70.88 79.25
  C 71.48 87.76 76.29 95.76 85.18 97.42
  C 91.40 98.59 100.36 96.21 102.30 89.19
  C 103.97 83.19 111.79 88.74 114.77 80.13"
/>
<path stroke="#533d3e" vector-effect="non-scaling-stroke" d="
  M 88.72 107.88
  A 1.75 1.73 -74.3 0 1 89.45 109.20
  C 89.80 115.01 90.91 123.43 89.56 128.96
  Q 89.43 129.48 88.96 129.75
  Q 86.65 131.12 84.92 129.32
  Q 84.59 128.97 84.56 128.49
  L 84.39 125.63
  Q 84.37 125.17 83.90 125.17
  L 79.74 125.24
  Q 79.21 125.25 78.77 125.55
  C 74.75 128.33 74.05 130.07 68.56 128.94
  A 0.38 0.37 -85.1 0 0 68.12 129.32
  L 68.30 134.57
  Q 68.32 135.08 68.83 135.10
  L 92.03 136.20
  A 0.40 0.39 86.5 0 0 92.44 135.73
  C 90.78 126.52 98.55 124.46 105.30 121.83
  Q 105.79 121.64 105.87 121.11
  C 106.18 119.15 105.02 117.11 105.70 115.61
  C 106.56 113.71 109.70 113.46 110.55 115.94
  Q 111.81 119.62 111.26 122.74
  Q 111.17 123.25 111.48 123.66
  Q 114.89 128.16 114.04 133.94
  Q 113.95 134.52 114.53 134.46
  C 116.68 134.22 121.99 133.68 121.79 130.74
  Q 121.04 119.36 120.43 114.24
  Q 120.37 113.72 119.86 113.61
  C 113.41 112.20 102.21 107.29 107.17 99.04
  C 108.33 97.13 110.97 95.74 112.80 94.20
  Q 113.24 93.84 112.91 93.37
  L 111.79 91.82
  Q 111.49 91.40 110.98 91.47
  L 108.91 91.75
  Q 108.33 91.83 108.01 92.32
  C 99.66 105.05 83.28 108.29 72.00 96.20
  Q 71.53 95.69 71.24 96.32
  Q 69.52 100.09 69.52 104.26
  Q 69.52 104.79 70.04 104.87
  Q 76.57 105.87 79.35 111.81
  Q 79.55 112.25 80.03 112.25
  L 83.76 112.25
  Q 84.32 112.25 84.26 111.69
  C 84.01 109.12 85.57 105.67 88.72 107.88"
/>
<path stroke="#576461" vector-effect="non-scaling-stroke" d="
  M 112.25 104.35
  L 118.51 107.37
  Q 119.38 107.79 119.03 106.89
  L 116.13 99.48
  Q 115.88 98.84 115.34 99.25
  L 112.00 101.76
  A 1.52 1.52 0.0 0 0 112.25 104.35"
/>
<path stroke="#98989a" vector-effect="non-scaling-stroke" d="
  M 83.89 117.66
  C 80.96 117.90 78.10 118.46 75.59 116.10
  C 73.92 114.53 73.76 112.06 70.83 110.84
  Q 70.35 110.64 69.91 110.89
  C 66.08 113.08 73.38 115.32 71.39 118.38
  C 70.66 119.51 69.09 120.05 68.11 121.42
  Q 67.77 121.89 68.17 122.30
  C 70.12 124.33 72.05 123.76 74.10 121.99
  Q 78.21 118.43 83.97 120.10
  Q 84.50 120.25 84.50 119.70
  L 84.50 118.23
  Q 84.50 117.62 83.89 117.66"
/>
<path stroke="#576461" vector-effect="non-scaling-stroke" d="
  M 54.88 132.10
  Q 58.13 133.67 61.79 133.70
  Q 62.25 133.70 62.25 133.24
  L 62.25 127.27
  Q 62.25 126.85 61.83 126.84
  Q 57.12 126.68 54.44 130.38
  A 1.16 1.15 30.7 0 0 54.88 132.10"
/>
<path stroke="#576461" vector-effect="non-scaling-stroke" d="
  M 99.10 134.76
  L 105.65 135.81
  Q 106.26 135.90 106.71 135.48
  Q 109.98 132.44 107.79 128.03
  Q 107.57 127.59 107.07 127.66
  C 104.15 128.12 98.54 129.80 97.84 132.90
  A 1.55 1.53 -79.4 0 0 99.10 134.76"
/>
<path stroke="#533d3e" vector-effect="non-scaling-stroke" d="
  M 121.29 161.43
  C 116.70 162.69 112.76 159.97 110.56 155.96
  Q 109.77 154.51 110.02 153.25
  Q 111.88 143.86 121.62 144.56
  Q 122.34 144.61 122.29 143.89
  L 122.14 141.62
  Q 122.09 140.91 121.37 140.96
  Q 116.52 141.30 111.68 141.67
  C 104.79 142.19 97.39 141.49 90.17 142.03
  Q 89.69 142.06 89.45 142.47
  Q 87.24 146.16 83.91 148.90
  C 80.91 151.36 79.07 150.42 75.67 149.55
  C 71.25 148.42 71.60 145.07 71.46 141.47
  Q 71.44 141.00 70.97 141.00
  L 68.80 141.00
  Q 68.26 141.00 68.25 141.53
  C 68.13 148.85 66.65 157.43 68.87 164.46
  Q 69.04 165.02 69.64 165.01
  L 84.74 164.74
  A 0.76 0.76 0.0 0 0 85.49 163.98
  C 85.49 160.00 84.81 154.85 86.75 151.57
  C 91.31 143.88 103.23 146.88 106.06 154.59
  C 107.02 157.20 106.76 160.19 106.86 163.11
  A 1.59 1.59 0.0 0 0 108.45 164.65
  L 121.51 164.69
  Q 122.29 164.69 122.26 163.92
  L 122.19 162.09
  Q 122.16 161.19 121.29 161.43"
/>
<path stroke="#576461" vector-effect="non-scaling-stroke" d="
  M 82.33 142.74
  L 83.21 141.98
  Q 83.76 141.50 83.02 141.50
  L 77.70 141.50
  Q 77.13 141.50 77.02 142.05
  L 76.79 143.18
  Q 76.68 143.74 77.17 144.03
  Q 79.99 145.73 81.67 143.45
  Q 81.96 143.06 82.33 142.74"
/>
<path stroke="#576461" vector-effect="non-scaling-stroke" d="
  M 116.67 155.01
  Q 119.11 156.81 122.07 155.61
  Q 122.50 155.43 122.50 154.97
  L 122.50 151.01
  Q 122.50 150.53 122.03 150.40
  Q 118.52 149.40 116.33 151.87
  A 2.14 2.14 0.0 0 0 116.67 155.01"
/>
<path stroke="#576461" vector-effect="non-scaling-stroke" d="
  M 85.0251 74.3980
  A 2.56 2.56 0.0 0 0 82.4341 71.8695
  L 82.2341 71.8719
  A 2.56 2.56 0.0 0 0 79.7055 74.4630
  L 79.8749 88.3220
  A 2.56 2.56 0.0 0 0 82.4659 90.8505
  L 82.6659 90.8481
  A 2.56 2.56 0.0 0 0 85.1945 88.2570
  L 85.0251 74.3980"
/>
</g>
<g fill="#38383c">
<path d="
  M 114.33 68.31
  C 122.95 72.90 122.63 80.91 116.78 87.97
  Q 116.45 88.37 116.74 88.81
  C 128.92 107.06 127.31 128.56 128.26 149.32
  Q 128.69 158.82 127.99 165.50
  C 127.25 172.57 112.15 170.74 107.57 170.10
  C 99.50 168.96 102.46 162.57 100.70 157.33
  Q 98.59 151.07 92.26 153.54
  A 1.87 1.87 0.0 0 0 91.08 155.40
  C 91.47 161.24 93.04 170.43 84.07 170.67
  C 79.56 170.79 64.67 173.12 63.21 164.72
  C 61.78 156.55 62.37 148.76 62.56 140.66
  A 1.20 1.19 0.7 0 0 61.36 139.44
  C 43.13 139.50 45.86 122.17 61.80 121.02
  A 0.85 0.84 -1.9 0 0 62.58 120.19
  C 62.70 110.23 62.88 99.85 67.69 90.80
  Q 67.94 90.33 67.77 89.82
  Q 65.71 83.85 65.33 77.64
  C 64.47 63.31 67.02 51.74 80.72 44.24
  Q 82.43 43.30 85.88 43.87
  Q 86.42 43.95 86.89 43.66
  Q 94.63 38.72 99.60 46.26
  Q 99.86 46.65 100.33 46.65
  Q 111.20 46.52 110.16 57.29
  Q 110.11 57.81 110.50 58.16
  Q 114.82 62.00 113.99 67.63
  Q 113.92 68.09 114.33 68.31
  Z
  M 84.21 50.39
  Q 83.88 49.88 83.18 49.43
  A 0.72 0.72 0.0 0 0 82.13 50.32
  Q 84.89 56.54 89.85 61.20
  Q 90.30 61.63 90.47 61.03
  C 90.91 59.47 94.55 48.93 94.28 48.46
  C 91.23 43.19 89.46 53.69 84.93 51.08
  Q 84.48 50.82 84.21 50.39
  Z
  M 103.12 52.31
  C 97.05 51.93 96.33 59.71 95.81 64.12
  Q 95.76 64.60 96.19 64.82
  C 98.47 65.97 112.43 70.69 107.15 62.57
  Q 106.86 62.13 106.39 61.90
  Q 101.82 59.68 104.63 55.27
  A 1.93 1.93 0.0 0 0 103.12 52.31
  Z
  M 114.77 80.13
  C 115.99 76.62 113.10 71.66 109.10 73.30
  Q 108.64 73.49 108.14 73.47
  Q 86.66 72.60 77.35 53.62
  Q 77.10 53.12 76.73 53.54
  C 69.84 61.18 70.13 68.80 70.88 79.25
  C 71.48 87.76 76.29 95.76 85.18 97.42
  C 91.40 98.59 100.36 96.21 102.30 89.19
  C 103.97 83.19 111.79 88.74 114.77 80.13
  Z
  M 88.72 107.88
  A 1.75 1.73 -74.3 0 1 89.45 109.20
  C 89.80 115.01 90.91 123.43 89.56 128.96
  Q 89.43 129.48 88.96 129.75
  Q 86.65 131.12 84.92 129.32
  Q 84.59 128.97 84.56 128.49
  L 84.39 125.63
  Q 84.37 125.17 83.90 125.17
  L 79.74 125.24
  Q 79.21 125.25 78.77 125.55
  C 74.75 128.33 74.05 130.07 68.56 128.94
  A 0.38 0.37 -85.1 0 0 68.12 129.32
  L 68.30 134.57
  Q 68.32 135.08 68.83 135.10
  L 92.03 136.20
  A 0.40 0.39 86.5 0 0 92.44 135.73
  C 90.78 126.52 98.55 124.46 105.30 121.83
  Q 105.79 121.64 105.87 121.11
  C 106.18 119.15 105.02 117.11 105.70 115.61
  C 106.56 113.71 109.70 113.46 110.55 115.94
  Q 111.81 119.62 111.26 122.74
  Q 111.17 123.25 111.48 123.66
  Q 114.89 128.16 114.04 133.94
  Q 113.95 134.52 114.53 134.46
  C 116.68 134.22 121.99 133.68 121.79 130.74
  Q 121.04 119.36 120.43 114.24
  Q 120.37 113.72 119.86 113.61
  C 113.41 112.20 102.21 107.29 107.17 99.04
  C 108.33 97.13 110.97 95.74 112.80 94.20
  Q 113.24 93.84 112.91 93.37
  L 111.79 91.82
  Q 111.49 91.40 110.98 91.47
  L 108.91 91.75
  Q 108.33 91.83 108.01 92.32
  C 99.66 105.05 83.28 108.29 72.00 96.20
  Q 71.53 95.69 71.24 96.32
  Q 69.52 100.09 69.52 104.26
  Q 69.52 104.79 70.04 104.87
  Q 76.57 105.87 79.35 111.81
  Q 79.55 112.25 80.03 112.25
  L 83.76 112.25
  Q 84.32 112.25 84.26 111.69
  C 84.01 109.12 85.57 105.67 88.72 107.88
  Z
  M 112.25 104.35
  L 118.51 107.37
  Q 119.38 107.79 119.03 106.89
  L 116.13 99.48
  Q 115.88 98.84 115.34 99.25
  L 112.00 101.76
  A 1.52 1.52 0.0 0 0 112.25 104.35
  Z
  M 83.89 117.66
  C 80.96 117.90 78.10 118.46 75.59 116.10
  C 73.92 114.53 73.76 112.06 70.83 110.84
  Q 70.35 110.64 69.91 110.89
  C 66.08 113.08 73.38 115.32 71.39 118.38
  C 70.66 119.51 69.09 120.05 68.11 121.42
  Q 67.77 121.89 68.17 122.30
  C 70.12 124.33 72.05 123.76 74.10 121.99
  Q 78.21 118.43 83.97 120.10
  Q 84.50 120.25 84.50 119.70
  L 84.50 118.23
  Q 84.50 117.62 83.89 117.66
  Z
  M 54.88 132.10
  Q 58.13 133.67 61.79 133.70
  Q 62.25 133.70 62.25 133.24
  L 62.25 127.27
  Q 62.25 126.85 61.83 126.84
  Q 57.12 126.68 54.44 130.38
  A 1.16 1.15 30.7 0 0 54.88 132.10
  Z
  M 99.10 134.76
  L 105.65 135.81
  Q 106.26 135.90 106.71 135.48
  Q 109.98 132.44 107.79 128.03
  Q 107.57 127.59 107.07 127.66
  C 104.15 128.12 98.54 129.80 97.84 132.90
  A 1.55 1.53 -79.4 0 0 99.10 134.76
  Z
  M 121.29 161.43
  C 116.70 162.69 112.76 159.97 110.56 155.96
  Q 109.77 154.51 110.02 153.25
  Q 111.88 143.86 121.62 144.56
  Q 122.34 144.61 122.29 143.89
  L 122.14 141.62
  Q 122.09 140.91 121.37 140.96
  Q 116.52 141.30 111.68 141.67
  C 104.79 142.19 97.39 141.49 90.17 142.03
  Q 89.69 142.06 89.45 142.47
  Q 87.24 146.16 83.91 148.90
  C 80.91 151.36 79.07 150.42 75.67 149.55
  C 71.25 148.42 71.60 145.07 71.46 141.47
  Q 71.44 141.00 70.97 141.00
  L 68.80 141.00
  Q 68.26 141.00 68.25 141.53
  C 68.13 148.85 66.65 157.43 68.87 164.46
  Q 69.04 165.02 69.64 165.01
  L 84.74 164.74
  A 0.76 0.76 0.0 0 0 85.49 163.98
  C 85.49 160.00 84.81 154.85 86.75 151.57
  C 91.31 143.88 103.23 146.88 106.06 154.59
  C 107.02 157.20 106.76 160.19 106.86 163.11
  A 1.59 1.59 0.0 0 0 108.45 164.65
  L 121.51 164.69
  Q 122.29 164.69 122.26 163.92
  L 122.19 162.09
  Q 122.16 161.19 121.29 161.43
  Z
  M 82.33 142.74
  L 83.21 141.98
  Q 83.76 141.50 83.02 141.50
  L 77.70 141.50
  Q 77.13 141.50 77.02 142.05
  L 76.79 143.18
  Q 76.68 143.74 77.17 144.03
  Q 79.99 145.73 81.67 143.45
  Q 81.96 143.06 82.33 142.74
  Z
  M 116.67 155.01
  Q 119.11 156.81 122.07 155.61
  Q 122.50 155.43 122.50 154.97
  L 122.50 151.01
  Q 122.50 150.53 122.03 150.40
  Q 118.52 149.40 116.33 151.87
  A 2.14 2.14 0.0 0 0 116.67 155.01
  Z"
/>
<rect x="-2.66" y="-9.49" transform="translate(82.45,81.36) rotate(-0.7)" width="5.32" height="18.98" rx="2.56"/>
</g>
<g fill="#759086">
<path d="
  M 109.10 73.30
  C 113.10 71.66 115.99 76.62 114.77 80.13
  C 111.79 88.74 103.97 83.19 102.30 89.19
  C 100.36 96.21 91.40 98.59 85.18 97.42
  C 76.29 95.76 71.48 87.76 70.88 79.25
  C 70.13 68.80 69.84 61.18 76.73 53.54
  Q 77.10 53.12 77.35 53.62
  Q 86.66 72.60 108.14 73.47
  Q 108.64 73.49 109.10 73.30
  Z
  M 85.0251 74.3980
  A 2.56 2.56 0.0 0 0 82.4341 71.8695
  L 82.2341 71.8719
  A 2.56 2.56 0.0 0 0 79.7055 74.4630
  L 79.8749 88.3220
  A 2.56 2.56 0.0 0 0 82.4659 90.8505
  L 82.6659 90.8481
  A 2.56 2.56 0.0 0 0 85.1945 88.2570
  L 85.0251 74.3980
  Z"
/>
<path d="
  M 112.25 104.35
  A 1.52 1.52 0.0 0 1 112.00 101.76
  L 115.34 99.25
  Q 115.88 98.84 116.13 99.48
  L 119.03 106.89
  Q 119.38 107.79 118.51 107.37
  L 112.25 104.35
  Z"
/>
<path d="
  M 54.88 132.10
  A 1.16 1.15 30.7 0 1 54.44 130.38
  Q 57.12 126.68 61.83 126.84
  Q 62.25 126.85 62.25 127.27
  L 62.25 133.24
  Q 62.25 133.70 61.79 133.70
  Q 58.13 133.67 54.88 132.10
  Z"
/>
<path d="
  M 99.10 134.76
  A 1.55 1.53 -79.4 0 1 97.84 132.90
  C 98.54 129.80 104.15 128.12 107.07 127.66
  Q 107.57 127.59 107.79 128.03
  Q 109.98 132.44 106.71 135.48
  Q 106.26 135.90 105.65 135.81
  L 99.10 134.76
  Z"
/>
<path d="
  M 81.67 143.45
  Q 79.99 145.73 77.17 144.03
  Q 76.68 143.74 76.79 143.18
  L 77.02 142.05
  Q 77.13 141.50 77.70 141.50
  L 83.02 141.50
  Q 83.76 141.50 83.21 141.98
  L 82.33 142.74
  Q 81.96 143.06 81.67 143.45
  Z"
/>
<path d="
  M 116.67 155.01
  A 2.14 2.14 0.0 0 1 116.33 151.87
  Q 118.52 149.40 122.03 150.40
  Q 122.50 150.53 122.50 151.01
  L 122.50 154.97
  Q 122.50 155.43 122.07 155.61
  Q 119.11 156.81 116.67 155.01
  Z"
/>
</g>
<g fill="#6e423f">
<path d="
  M 88.72 107.88
  C 85.57 105.67 84.01 109.12 84.26 111.69
  Q 84.32 112.25 83.76 112.25
  L 80.03 112.25
  Q 79.55 112.25 79.35 111.81
  Q 76.57 105.87 70.04 104.87
  Q 69.52 104.79 69.52 104.26
  Q 69.52 100.09 71.24 96.32
  Q 71.53 95.69 72.00 96.20
  C 83.28 108.29 99.66 105.05 108.01 92.32
  Q 108.33 91.83 108.91 91.75
  L 110.98 91.47
  Q 111.49 91.40 111.79 91.82
  L 112.91 93.37
  Q 113.24 93.84 112.80 94.20
  C 110.97 95.74 108.33 97.13 107.17 99.04
  C 102.21 107.29 113.41 112.20 119.86 113.61
  Q 120.37 113.72 120.43 114.24
  Q 121.04 119.36 121.79 130.74
  C 121.99 133.68 116.68 134.22 114.53 134.46
  Q 113.95 134.52 114.04 133.94
  Q 114.89 128.16 111.48 123.66
  Q 111.17 123.25 111.26 122.74
  Q 111.81 119.62 110.55 115.94
  C 109.70 113.46 106.56 113.71 105.70 115.61
  C 105.02 117.11 106.18 119.15 105.87 121.11
  Q 105.79 121.64 105.30 121.83
  C 98.55 124.46 90.78 126.52 92.44 135.73
  A 0.40 0.39 86.5 0 1 92.03 136.20
  L 68.83 135.10
  Q 68.32 135.08 68.30 134.57
  L 68.12 129.32
  A 0.38 0.37 -85.1 0 1 68.56 128.94
  C 74.05 130.07 74.75 128.33 78.77 125.55
  Q 79.21 125.25 79.74 125.24
  L 83.90 125.17
  Q 84.37 125.17 84.39 125.63
  L 84.56 128.49
  Q 84.59 128.97 84.92 129.32
  Q 86.65 131.12 88.96 129.75
  Q 89.43 129.48 89.56 128.96
  C 90.91 123.43 89.80 115.01 89.45 109.20
  A 1.75 1.73 -74.3 0 0 88.72 107.88
  Z"
/>
<path d="
  M 110.56 155.96
  C 112.76 159.97 116.70 162.69 121.29 161.43
  Q 122.16 161.19 122.19 162.09
  L 122.26 163.92
  Q 122.29 164.69 121.51 164.69
  L 108.45 164.65
  A 1.59 1.59 0.0 0 1 106.86 163.11
  C 106.76 160.19 107.02 157.20 106.06 154.59
  C 103.23 146.88 91.31 143.88 86.75 151.57
  C 84.81 154.85 85.49 160.00 85.49 163.98
  A 0.76 0.76 0.0 0 1 84.74 164.74
  L 69.64 165.01
  Q 69.04 165.02 68.87 164.46
  C 66.65 157.43 68.13 148.85 68.25 141.53
  Q 68.26 141.00 68.80 141.00
  L 70.97 141.00
  Q 71.44 141.00 71.46 141.47
  C 71.60 145.07 71.25 148.42 75.67 149.55
  C 79.07 150.42 80.91 151.36 83.91 148.90
  Q 87.24 146.16 89.45 142.47
  Q 89.69 142.06 90.17 142.03
  C 97.39 141.49 104.79 142.19 111.68 141.67
  Q 116.52 141.30 121.37 140.96
  Q 122.09 140.91 122.14 141.62
  L 122.29 143.89
  Q 122.34 144.61 121.62 144.56
  Q 111.88 143.86 110.02 153.25
  Q 109.77 154.51 110.56 155.96
  Z"
/>
</g>
<g fill="#ebbc9e">
<path d="
  M 84.93 51.08
  C 89.46 53.69 91.23 43.19 94.28 48.46
  C 94.55 48.93 90.91 59.47 90.47 61.03
  Q 90.30 61.63 89.85 61.20
  Q 84.89 56.54 82.13 50.32
  A 0.72 0.72 0.0 0 1 83.18 49.43
  Q 83.88 49.88 84.21 50.39
  Q 84.48 50.82 84.93 51.08
  Z"
/>
<path d="
  M 103.12 52.31
  A 1.93 1.93 0.0 0 1 104.63 55.27
  Q 101.82 59.68 106.39 61.90
  Q 106.86 62.13 107.15 62.57
  C 112.43 70.69 98.47 65.97 96.19 64.82
  Q 95.76 64.60 95.81 64.12
  C 96.33 59.71 97.05 51.93 103.12 52.31
  Z"
/>
</g>
<path fill="#f8f8f8" d="
  M 75.59 116.10
  C 78.10 118.46 80.96 117.90 83.89 117.66
  Q 84.50 117.62 84.50 118.23
  L 84.50 119.70
  Q 84.50 120.25 83.97 120.10
  Q 78.21 118.43 74.10 121.99
  C 72.05 123.76 70.12 124.33 68.17 122.30
  Q 67.77 121.89 68.11 121.42
  C 69.09 120.05 70.66 119.51 71.39 118.38
  C 73.38 115.32 66.08 113.08 69.91 110.89
  Q 70.35 110.64 70.83 110.84
  C 73.76 112.06 73.92 114.53 75.59 116.10
  Z"
/>
</svg>
