<?xml version="1.0" encoding="UTF-8" standalone="no"?>
<!DOCTYPE svg PUBLIC "-//W3C//DTD SVG 1.1//EN" "http://www.w3.org/Graphics/SVG/1.1/DTD/svg11.dtd">
<svg xmlns="http://www.w3.org/2000/svg" version="1.1" viewBox="0 0 180 180">
<g stroke-width="2.00" fill="none" stroke-linecap="butt">
<path stroke="#98989a" vector-effect="non-scaling-stroke" d="
  M 96.07 120.72
  A 0.70 0.70 0.0 0 0 96.95 121.51
  L 104.20 119.39
  A 0.70 0.70 0.0 0 0 104.52 118.25
  L 98.69 111.74
  A 0.70 0.70 0.0 0 0 97.47 112.09
  L 96.07 120.72"
/>
<path stroke="#9c3d44" vector-effect="non-scaling-stroke" d="
  M 116.43 146.24
  L 110.58 144.54
  Q 110.09 144.40 109.90 144.87
  C 109.10 146.96 114.24 146.87 115.64 147.16
  Q 116.07 147.25 116.29 146.88
  L 116.52 146.49
  A 0.17 0.16 -65.7 0 0 116.43 146.24"
/>
<path stroke="#9c3d44" vector-effect="non-scaling-stroke" d="
  M 104.5776 145.9881
  A 0.96 0.96 0.0 0 0 103.2222 145.9099
  L 99.8474 148.9168
  A 0.96 0.96 0.0 0 0 99.7692 150.2722
  L 99.8224 150.3319
  A 0.96 0.96 0.0 0 0 101.1778 150.4101
  L 104.5526 147.4032
  A 0.96 0.96 0.0 0 0 104.6308 146.0478
  L 104.5776 145.9881"
/>
<path stroke="#9c3d44" vector-effect="non-scaling-stroke" d="
  M 118.17 154.03
  Q 115.30 152.48 112.04 151.98
  Q 111.22 151.86 111.42 152.67
  L 111.88 154.48
  Q 112.01 155.00 112.55 155.00
  L 117.79 155.00
  Q 118.33 155.00 118.26 154.46
  L 118.20 154.07
  A 0.04 0.04 0.0 0 0 118.17 154.03"
/>
<path stroke="#9c3d44" vector-effect="non-scaling-stroke" d="
  M 100.47 158.71
  A 0.36 0.36 0.0 0 0 100.80 159.32
  C 102.75 158.93 108.48 157.08 105.99 153.99
  Q 105.59 153.50 105.15 153.95
  L 100.47 158.71"
/>
</g>
<path fill="#38383c" d="
  M 109.04 139.05
  C 114.51 139.50 125.12 141.66 121.73 149.53
  Q 121.52 150.01 121.92 150.34
  Q 124.95 152.83 124.28 155.97
  C 123.31 160.45 118.15 160.64 114.40 160.16
  A 1.02 1.01 -89.3 0 0 113.26 161.28
  C 113.52 163.71 109.88 164.52 108.30 162.45
  Q 107.96 162.00 107.50 162.33
  C 103.31 165.29 93.80 166.72 94.77 158.39
  Q 94.82 157.96 95.05 157.60
  L 96.31 155.67
  Q 96.71 155.06 96.00 154.88
  C 86.56 152.52 99.56 141.87 102.48 140.09
  Q 102.98 139.78 102.85 139.21
  L 100.05 126.99
  Q 99.94 126.50 99.43 126.52
  C 96.10 126.61 93.89 128.80 91.52 124.97
  C 89.67 121.96 91.55 108.47 94.47 106.11
  C 99.06 102.38 106.91 112.15 109.29 115.95
  C 111.76 119.90 110.16 123.43 105.93 124.83
  A 0.96 0.95 -16.2 0 0 105.30 125.96
  L 108.35 138.46
  Q 108.48 139.01 109.04 139.05
  Z
  M 96.07 120.72
  A 0.70 0.70 0.0 0 0 96.95 121.51
  L 104.20 119.39
  A 0.70 0.70 0.0 0 0 104.52 118.25
  L 98.69 111.74
  A 0.70 0.70 0.0 0 0 97.47 112.09
  L 96.07 120.72
  Z
  M 116.43 146.24
  L 110.58 144.54
  Q 110.09 144.40 109.90 144.87
  C 109.10 146.96 114.24 146.87 115.64 147.16
  Q 116.07 147.25 116.29 146.88
  L 116.52 146.49
  A 0.17 0.16 -65.7 0 0 116.43 146.24
  Z
  M 104.5776 145.9881
  A 0.96 0.96 0.0 0 0 103.2222 145.9099
  L 99.8474 148.9168
  A 0.96 0.96 0.0 0 0 99.7692 150.2722
  L 99.8224 150.3319
  A 0.96 0.96 0.0 0 0 101.1778 150.4101
  L 104.5526 147.4032
  A 0.96 0.96 0.0 0 0 104.6308 146.0478
  L 104.5776 145.9881
  Z
  M 118.17 154.03
  Q 115.30 152.48 112.04 151.98
  Q 111.22 151.86 111.42 152.67
  L 111.88 154.48
  Q 112.01 155.00 112.55 155.00
  L 117.79 155.00
  Q 118.33 155.00 118.26 154.46
  L 118.20 154.07
  A 0.04 0.04 0.0 0 0 118.17 154.03
  Z
  M 100.47 158.71
  A 0.36 0.36 0.0 0 0 100.80 159.32
  C 102.75 158.93 108.48 157.08 105.99 153.99
  Q 105.59 153.50 105.15 153.95
  L 100.47 158.71
  Z"
/>
<path fill="#f8f8f8" d="
  M 96.07 120.72
  L 97.47 112.09
  A 0.70 0.70 0.0 0 1 98.69 111.74
  L 104.52 118.25
  A 0.70 0.70 0.0 0 1 104.20 119.39
  L 96.95 121.51
  A 0.70 0.70 0.0 0 1 96.07 120.72
  Z"
/>
<g fill="#ff414b">
<path d="
  M 116.43 146.24
  A 0.17 0.16 -65.7 0 1 116.52 146.49
  L 116.29 146.88
  Q 116.07 147.25 115.64 147.16
  C 114.24 146.87 109.10 146.96 109.90 144.87
  Q 110.09 144.40 110.58 144.54
  L 116.43 146.24
  Z"
/>
<rect x="-3.22" y="-1.00" transform="translate(102.20,148.16) rotate(-41.7)" width="6.44" height="2.00" rx="0.96"/>
<path d="
  M 118.17 154.03
  A 0.04 0.04 0.0 0 1 118.20 154.07
  L 118.26 154.46
  Q 118.33 155.00 117.79 155.00
  L 112.55 155.00
  Q 112.01 155.00 111.88 154.48
  L 111.42 152.67
  Q 111.22 151.86 112.04 151.98
  Q 115.30 152.48 118.17 154.03
  Z"
/>
<path d="
  M 100.47 158.71
  L 105.15 153.95
  Q 105.59 153.50 105.99 153.99
  C 108.48 157.08 102.75 158.93 100.80 159.32
  A 0.36 0.36 0.0 0 1 100.47 158.71
  Z"
/>
</g>
</svg>
