<?xml version="1.0" encoding="UTF-8" standalone="no"?>
<!DOCTYPE svg PUBLIC "-//W3C//DTD SVG 1.1//EN" "http://www.w3.org/Graphics/SVG/1.1/DTD/svg11.dtd">
<svg xmlns="http://www.w3.org/2000/svg" version="1.1" viewBox="0 0 180 180">
<g stroke-width="2.00" fill="none" stroke-linecap="butt">
<path stroke="#533d3e" vector-effect="non-scaling-stroke" d="
  M 106.00 126.96
  L 103.93 117.59
  Q 103.79 116.92 103.13 117.10
  L 87.59 121.55
  A 0.51 0.50 78.2 0 0 87.23 122.11
  Q 89.03 134.91 92.60 147.34
  Q 92.99 148.68 94.34 148.33
  L 108.81 144.60
  Q 109.30 144.47 109.34 143.96
  Q 109.50 141.87 108.50 140.04"
/>
<path stroke="#533d3e" vector-effect="non-scaling-stroke" d="
  M 84.49 149.52
  L 86.39 149.38
  Q 87.20 149.33 86.98 148.55
  Q 83.62 136.74 81.98 124.58
  Q 81.90 123.99 81.34 124.17
  L 79.25 124.81
  Q 78.41 125.07 78.58 125.93
  L 83.21 148.54
  A 1.22 1.22 0.0 0 0 84.49 149.52"
/>
</g>
<path fill="#38383c" d="
  M 102.16 111.37
  C 105.33 110.51 108.17 112.18 109.05 115.29
  Q 114.09 133.10 115.48 146.01
  C 115.66 147.64 113.79 149.04 112.22 149.54
  Q 100.28 153.40 86.55 155.05
  Q 79.05 155.94 77.48 148.88
  Q 76.24 143.30 73.49 128.27
  C 72.74 124.19 73.16 120.84 77.47 119.42
  Q 81.56 118.08 85.53 116.50
  C 91.25 114.22 96.52 112.90 102.16 111.37
  Z
  M 108.50 140.04
  Q 108.11 133.34 106.00 126.96
  L 103.93 117.59
  Q 103.79 116.92 103.13 117.10
  L 87.59 121.55
  A 0.51 0.50 78.2 0 0 87.23 122.11
  Q 89.03 134.91 92.60 147.34
  Q 92.99 148.68 94.34 148.33
  L 108.81 144.60
  Q 109.30 144.47 109.34 143.96
  Q 109.50 141.87 108.50 140.04
  Z
  M 84.49 149.52
  L 86.39 149.38
  Q 87.20 149.33 86.98 148.55
  Q 83.62 136.74 81.98 124.58
  Q 81.90 123.99 81.34 124.17
  L 79.25 124.81
  Q 78.41 125.07 78.58 125.93
  L 83.21 148.54
  A 1.22 1.22 0.0 0 0 84.49 149.52
  Z"
/>
<g fill="#6e423f">
<path d="
  M 106.00 126.96
  C 103.34 128.40 97.62 129.98 96.56 132.61
  C 94.02 138.92 104.65 139.31 108.50 140.04
  Q 109.50 141.87 109.34 143.96
  Q 109.30 144.47 108.81 144.60
  L 94.34 148.33
  Q 92.99 148.68 92.60 147.34
  Q 89.03 134.91 87.23 122.11
  A 0.51 0.50 78.2 0 1 87.59 121.55
  L 103.13 117.10
  Q 103.79 116.92 103.93 117.59
  L 106.00 126.96
  Z"
/>
<path d="
  M 84.49 149.52
  A 1.22 1.22 0.0 0 1 83.21 148.54
  L 78.58 125.93
  Q 78.41 125.07 79.25 124.81
  L 81.34 124.17
  Q 81.90 123.99 81.98 124.58
  Q 83.62 136.74 86.98 148.55
  Q 87.20 149.33 86.39 149.38
  L 84.49 149.52
  Z"
/>
</g>
</svg>
