<?xml version="1.0" encoding="UTF-8" standalone="no"?>
<!DOCTYPE svg PUBLIC "-//W3C//DTD SVG 1.1//EN" "http://www.w3.org/Graphics/SVG/1.1/DTD/svg11.dtd">
<svg xmlns="http://www.w3.org/2000/svg" version="1.1" viewBox="0 0 180 180">
<path stroke="#98989a" stroke-width="2.00" fill="none" stroke-linecap="butt" vector-effect="non-scaling-stroke" d="
  M 103.26 127.13
  Q 100.04 120.88 95.21 115.54
  Q 94.55 114.80 94.75 115.77
  L 97.47 129.32
  Q 97.51 129.54 97.39 129.73
  L 97.26 129.96
  Q 97.17 130.11 97.24 130.27
  Q 97.40 130.60 97.75 130.54"
/>
<path fill="#38383c" d="
  M 103.26 127.13
  Q 100.04 120.88 95.21 115.54
  Q 94.55 114.80 94.75 115.77
  L 97.47 129.32
  Q 97.51 129.54 97.39 129.73
  L 97.26 129.96
  Q 97.17 130.11 97.24 130.27
  Q 97.40 130.60 97.75 130.54
  Q 95.69 133.24 93.20 131.80
  Q 92.74 131.54 92.59 131.04
  Q 89.70 121.32 88.88 111.35
  C 88.68 108.95 89.44 106.54 91.99 106.21
  C 95.85 105.70 104.73 118.76 106.60 121.86
  C 108.54 125.09 107.68 128.06 103.26 127.13
  Z"
/>
<path fill="#f8f8f8" d="
  M 103.26 127.13
  L 97.75 130.54
  Q 97.40 130.60 97.24 130.27
  Q 97.17 130.11 97.26 129.96
  L 97.39 129.73
  Q 97.51 129.54 97.47 129.32
  L 94.75 115.77
  Q 94.55 114.80 95.21 115.54
  Q 100.04 120.88 103.26 127.13
  Z"
/>
</svg>
