<?xml version="1.0" encoding="UTF-8" standalone="no"?>
<!DOCTYPE svg PUBLIC "-//W3C//DTD SVG 1.1//EN" "http://www.w3.org/Graphics/SVG/1.1/DTD/svg11.dtd">
<svg xmlns="http://www.w3.org/2000/svg" version="1.1" viewBox="0 0 180 180">
<g stroke-width="2.00" fill="none" stroke-linecap="butt">
<path stroke="#82883e" vector-effect="non-scaling-stroke" d="
  M 105.54 125.40
  Q 106.38 119.38 104.95 113.72
  A 0.84 0.83 47.0 0 0 103.35 113.66
  L 102.41 116.53
  Q 102.24 117.06 101.77 117.36
  C 97.89 119.86 96.92 115.02 96.18 112.59
  A 1.09 1.09 0.0 0 0 94.18 112.38
  C 92.44 115.53 95.07 119.77 92.41 121.36
  C 91.31 122.02 89.94 121.80 88.77 121.46
  A 0.45 0.45 0.0 0 0 88.23 122.07
  Q 91.04 128.29 97.25 129.29"
/>
<path stroke="#82883e" vector-effect="non-scaling-stroke" d="
  M 105.21 139.00
  C 106.16 142.50 106.16 145.57 106.82 149.11
  Q 106.93 149.68 107.33 149.27
  Q 109.69 146.85 112.72 148.33
  A 0.78 0.78 0.0 0 0 113.74 147.24
  L 110.16 141.15
  Q 109.88 140.67 110.02 140.14
  L 110.50 138.29"
/>
</g>
<g fill="#38383c">
<path d="
  M 105.54 125.40
  Q 106.38 119.38 104.95 113.72
  A 0.84 0.83 47.0 0 0 103.35 113.66
  L 102.41 116.53
  Q 102.24 117.06 101.77 117.36
  C 97.89 119.86 96.92 115.02 96.18 112.59
  A 1.09 1.09 0.0 0 0 94.18 112.38
  C 92.44 115.53 95.07 119.77 92.41 121.36
  C 91.31 122.02 89.94 121.80 88.77 121.46
  A 0.45 0.45 0.0 0 0 88.23 122.07
  Q 91.04 128.29 97.25 129.29
  L 97.02 129.66
  Q 96.82 130.00 96.91 130.38
  Q 97.61 133.65 94.23 133.98
  C 87.85 134.62 76.50 120.24 87.27 115.80
  Q 87.74 115.60 87.76 115.08
  C 87.89 109.88 92.81 103.94 98.32 106.89
  C 98.95 107.23 99.42 108.00 100.11 108.43
  Q 100.59 108.73 101.08 108.43
  C 112.25 101.46 115.19 129.38 105.54 125.40
  Z"
/>
<path d="
  M 105.21 139.00
  C 106.16 142.50 106.16 145.57 106.82 149.11
  Q 106.93 149.68 107.33 149.27
  Q 109.69 146.85 112.72 148.33
  A 0.78 0.78 0.0 0 0 113.74 147.24
  L 110.16 141.15
  Q 109.88 140.67 110.02 140.14
  L 110.50 138.29
  Q 111.83 137.49 113.35 137.66
  Q 113.82 137.71 114.17 138.04
  C 117.77 141.47 124.33 154.30 115.13 154.69
  C 113.94 154.74 113.02 154.22 111.75 154.02
  Q 111.22 153.93 110.85 154.32
  Q 107.64 157.71 104.52 155.77
  C 100.69 153.37 100.34 144.71 100.59 140.78
  Q 100.62 140.27 100.95 139.88
  Q 102.54 138.00 105.21 139.00
  Z"
/>
</g>
<g fill="#ccd73f">
<path d="
  M 105.54 125.40
  Q 101.82 127.79 97.25 129.29
  Q 91.04 128.29 88.23 122.07
  A 0.45 0.45 0.0 0 1 88.77 121.46
  C 89.94 121.80 91.31 122.02 92.41 121.36
  C 95.07 119.77 92.44 115.53 94.18 112.38
  A 1.09 1.09 0.0 0 1 96.18 112.59
  C 96.92 115.02 97.89 119.86 101.77 117.36
  Q 102.24 117.06 102.41 116.53
  L 103.35 113.66
  A 0.84 0.83 47.0 0 1 104.95 113.72
  Q 106.38 119.38 105.54 125.40
  Z"
/>
<path d="
  M 110.50 138.29
  L 110.02 140.14
  Q 109.88 140.67 110.16 141.15
  L 113.74 147.24
  A 0.78 0.78 0.0 0 1 112.72 148.33
  Q 109.69 146.85 107.33 149.27
  Q 106.93 149.68 106.82 149.11
  C 106.16 145.57 106.16 142.50 105.21 139.00
  Q 107.64 137.55 110.50 138.29
  Z"
/>
</g>
</svg>
