<?xml version="1.0" encoding="UTF-8" standalone="no"?>
<!DOCTYPE svg PUBLIC "-//W3C//DTD SVG 1.1//EN" "http://www.w3.org/Graphics/SVG/1.1/DTD/svg11.dtd">
<svg xmlns="http://www.w3.org/2000/svg" version="1.1" viewBox="0 0 180 180">
<g stroke-width="2.00" fill="none" stroke-linecap="butt">
<path stroke="#98989a" vector-effect="non-scaling-stroke" d="
  M 123.94 109.40
  C 115.67 103.55 104.10 102.68 96.71 110.20
  Q 85.41 121.70 90.28 138.13
  A 1.97 1.97 0.0 0 0 93.49 139.03
  L 124.06 111.39
  Q 125.24 110.32 123.94 109.40"
/>
<path stroke="#98989a" vector-effect="non-scaling-stroke" d="
  M 96.32 145.01
  C 101.98 148.82 106.87 149.01 113.31 149.22
  C 133.42 149.90 132.91 128.98 128.35 115.60
  A 0.36 0.36 0.0 0 0 127.77 115.45
  L 96.21 143.95
  Q 95.58 144.52 96.32 145.01"
/>
<path stroke="#98989a" vector-effect="non-scaling-stroke" d="
  M 116.45 110.98
  A 2.45 2.45 0.0 0 0 114.00 108.53
  A 2.45 2.45 0.0 0 0 111.55 110.98
  A 2.45 2.45 0.0 0 0 114.00 113.43
  A 2.45 2.45 0.0 0 0 116.45 110.98"
/>
<path stroke="#98989a" vector-effect="non-scaling-stroke" d="
  M 101.80 114.83
  A 2.46 2.46 0.0 0 0 99.34 112.37
  A 2.46 2.46 0.0 0 0 96.88 114.83
  A 2.46 2.46 0.0 0 0 99.34 117.29
  A 2.46 2.46 0.0 0 0 101.80 114.83"
/>
<path stroke="#98989a" vector-effect="non-scaling-stroke" d="
  M 96.00 129.06
  A 2.51 2.51 0.0 0 0 93.49 126.55
  A 2.51 2.51 0.0 0 0 90.98 129.06
  A 2.51 2.51 0.0 0 0 93.49 131.57
  A 2.51 2.51 0.0 0 0 96.00 129.06"
/>
<path stroke="#98989a" vector-effect="non-scaling-stroke" d="
  M 128.41 127.14
  A 2.46 2.46 0.0 0 0 125.95 124.68
  A 2.46 2.46 0.0 0 0 123.49 127.14
  A 2.46 2.46 0.0 0 0 125.95 129.60
  A 2.46 2.46 0.0 0 0 128.41 127.14"
/>
<path stroke="#98989a" vector-effect="non-scaling-stroke" d="
  M 124.50 141.39
  A 2.48 2.48 0.0 0 0 122.02 138.91
  A 2.48 2.48 0.0 0 0 119.54 141.39
  A 2.48 2.48 0.0 0 0 122.02 143.87
  A 2.48 2.48 0.0 0 0 124.50 141.39"
/>
<path stroke="#98989a" vector-effect="non-scaling-stroke" d="
  M 108.93 143.78
  A 2.46 2.46 0.0 0 0 106.47 141.32
  A 2.46 2.46 0.0 0 0 104.01 143.78
  A 2.46 2.46 0.0 0 0 106.47 146.24
  A 2.46 2.46 0.0 0 0 108.93 143.78"
/>
</g>
<g fill="#f8f8f8">
<path d="
  M 123.94 109.40
  Q 125.24 110.32 124.06 111.39
  L 93.49 139.03
  A 1.97 1.97 0.0 0 1 90.28 138.13
  Q 85.41 121.70 96.71 110.20
  C 104.10 102.68 115.67 103.55 123.94 109.40
  Z
  M 116.45 110.98
  A 2.45 2.45 0.0 0 0 114.00 108.53
  A 2.45 2.45 0.0 0 0 111.55 110.98
  A 2.45 2.45 0.0 0 0 114.00 113.43
  A 2.45 2.45 0.0 0 0 116.45 110.98
  Z
  M 101.80 114.83
  A 2.46 2.46 0.0 0 0 99.34 112.37
  A 2.46 2.46 0.0 0 0 96.88 114.83
  A 2.46 2.46 0.0 0 0 99.34 117.29
  A 2.46 2.46 0.0 0 0 101.80 114.83
  Z
  M 96.00 129.06
  A 2.51 2.51 0.0 0 0 93.49 126.55
  A 2.51 2.51 0.0 0 0 90.98 129.06
  A 2.51 2.51 0.0 0 0 93.49 131.57
  A 2.51 2.51 0.0 0 0 96.00 129.06
  Z"
/>
<path d="
  M 96.32 145.01
  Q 95.58 144.52 96.21 143.95
  L 127.77 115.45
  A 0.36 0.36 0.0 0 1 128.35 115.60
  C 132.91 128.98 133.42 149.90 113.31 149.22
  C 106.87 149.01 101.98 148.82 96.32 145.01
  Z
  M 128.41 127.14
  A 2.46 2.46 0.0 0 0 125.95 124.68
  A 2.46 2.46 0.0 0 0 123.49 127.14
  A 2.46 2.46 0.0 0 0 125.95 129.60
  A 2.46 2.46 0.0 0 0 128.41 127.14
  Z
  M 124.50 141.39
  A 2.48 2.48 0.0 0 0 122.02 138.91
  A 2.48 2.48 0.0 0 0 119.54 141.39
  A 2.48 2.48 0.0 0 0 122.02 143.87
  A 2.48 2.48 0.0 0 0 124.50 141.39
  Z
  M 108.93 143.78
  A 2.46 2.46 0.0 0 0 106.47 141.32
  A 2.46 2.46 0.0 0 0 104.01 143.78
  A 2.46 2.46 0.0 0 0 106.47 146.24
  A 2.46 2.46 0.0 0 0 108.93 143.78
  Z"
/>
</g>
<g fill="#38383c">
<path d="
  M 121.22 101.23
  C 132.02 105.73 135.20 115.15 136.65 125.99
  C 137.68 133.62 136.35 141.83 131.25 147.69
  C 123.31 156.82 106.43 156.89 96.27 151.56
  C 67.77 136.61 89.39 87.97 121.22 101.23
  Z
  M 123.94 109.40
  C 115.67 103.55 104.10 102.68 96.71 110.20
  Q 85.41 121.70 90.28 138.13
  A 1.97 1.97 0.0 0 0 93.49 139.03
  L 124.06 111.39
  Q 125.24 110.32 123.94 109.40
  Z
  M 96.32 145.01
  C 101.98 148.82 106.87 149.01 113.31 149.22
  C 133.42 149.90 132.91 128.98 128.35 115.60
  A 0.36 0.36 0.0 0 0 127.77 115.45
  L 96.21 143.95
  Q 95.58 144.52 96.32 145.01
  Z"
/>
<circle cx="114.00" cy="110.98" r="2.45"/>
<circle cx="99.34" cy="114.83" r="2.46"/>
<circle cx="125.95" cy="127.14" r="2.46"/>
<circle cx="93.49" cy="129.06" r="2.51"/>
<circle cx="122.02" cy="141.39" r="2.48"/>
<circle cx="106.47" cy="143.78" r="2.46"/>
</g>
</svg>
