<?xml version="1.0" encoding="UTF-8" standalone="no"?>
<!DOCTYPE svg PUBLIC "-//W3C//DTD SVG 1.1//EN" "http://www.w3.org/Graphics/SVG/1.1/DTD/svg11.dtd">
<svg xmlns="http://www.w3.org/2000/svg" version="1.1" viewBox="0 0 180 180">
<g stroke-width="2.00" fill="none" stroke-linecap="butt">
<path stroke="#98989a" vector-effect="non-scaling-stroke" d="
  M 103.50 126.46
  L 102.37 124.99
  Q 102.06 124.59 101.92 124.10
  L 99.21 114.78
  A 1.50 1.49 69.9 0 0 97.17 113.83
  Q 93.17 115.59 90.30 118.89
  Q 89.94 119.29 90.22 119.76
  Q 93.64 125.47 99.25 129.04"
/>
<path stroke="#98989a" vector-effect="non-scaling-stroke" d="
  M 102.04 139.25
  Q 103.30 145.22 104.97 151.08
  C 105.99 154.68 111.36 152.16 113.15 150.95
  A 1.78 1.77 53.5 0 0 113.53 148.37
  L 108.03 141.58
  Q 107.68 141.14 107.76 140.59
  L 108.00 139.04"
/>
</g>
<g fill="#38383c">
<path d="
  M 103.50 126.46
  L 102.37 124.99
  Q 102.06 124.59 101.92 124.10
  L 99.21 114.78
  A 1.50 1.49 69.9 0 0 97.17 113.83
  Q 93.17 115.59 90.30 118.89
  Q 89.94 119.29 90.22 119.76
  Q 93.64 125.47 99.25 129.04
  Q 99.34 132.09 96.47 132.97
  Q 95.98 133.12 95.55 132.86
  C 90.89 130.06 81.05 121.33 85.89 115.50
  C 89.68 110.94 100.02 103.49 103.88 112.21
  C 105.14 115.07 110.79 127.02 103.50 126.46
  Z"
/>
<path d="
  M 102.04 139.25
  Q 103.30 145.22 104.97 151.08
  C 105.99 154.68 111.36 152.16 113.15 150.95
  A 1.78 1.77 53.5 0 0 113.53 148.37
  L 108.03 141.58
  Q 107.68 141.14 107.76 140.59
  L 108.00 139.04
  C 110.61 136.08 112.22 138.18 114.32 140.31
  C 117.69 143.74 123.58 151.81 117.37 155.23
  C 102.01 163.70 98.79 154.43 97.27 141.50
  C 96.96 138.88 99.80 137.69 102.04 139.25
  Z"
/>
</g>
<g fill="#f8f8f8">
<path d="
  M 103.50 126.46
  L 99.25 129.04
  Q 93.64 125.47 90.22 119.76
  Q 89.94 119.29 90.30 118.89
  Q 93.17 115.59 97.17 113.83
  A 1.50 1.49 69.9 0 1 99.21 114.78
  L 101.92 124.10
  Q 102.06 124.59 102.37 124.99
  L 103.50 126.46
  Z"
/>
<path d="
  M 108.00 139.04
  L 107.76 140.59
  Q 107.68 141.14 108.03 141.58
  L 113.53 148.37
  A 1.78 1.77 53.5 0 1 113.15 150.95
  C 111.36 152.16 105.99 154.68 104.97 151.08
  Q 103.30 145.22 102.04 139.25
  L 108.00 139.04
  Z"
/>
</g>
</svg>
