<?xml version="1.0" encoding="UTF-8" standalone="no"?>
<!DOCTYPE svg PUBLIC "-//W3C//DTD SVG 1.1//EN" "http://www.w3.org/Graphics/SVG/1.1/DTD/svg11.dtd">
<svg xmlns="http://www.w3.org/2000/svg" version="1.1" viewBox="0 0 180 180">
<g stroke-width="2.00" fill="none" stroke-linecap="butt">
<path stroke="#533d3e" vector-effect="non-scaling-stroke" d="
  M 120.16 140.77
  Q 115.49 144.58 110.84 148.55
  Q 110.35 148.96 110.99 149.04
  Q 121.13 150.28 127.36 143.08
  C 130.07 139.95 130.70 135.96 131.19 131.92
  A 0.32 0.32 0.0 0 0 130.69 131.62
  L 127.94 133.62
  Q 127.56 133.90 127.10 133.75
  Q 124.72 132.96 124.73 130.60
  Q 124.73 130.15 125.03 129.80
  L 130.04 123.95
  Q 130.43 123.50 130.29 122.92
  L 128.65 116.25
  A 0.30 0.30 0.0 0 0 128.16 116.10
  L 114.20 128.88
  Q 113.80 129.25 113.24 129.27
  Q 109.86 129.37 109.69 126.17
  Q 109.66 125.56 110.10 125.15
  L 124.77 111.28
  Q 125.33 110.75 124.71 110.28
  L 120.37 106.98
  Q 119.87 106.60 119.42 107.03
  C 117.19 109.11 109.10 118.19 106.68 112.82
  A 1.70 1.70 0.0 0 1 107.11 110.84
  L 113.28 105.46
  A 0.40 0.40 0.0 0 0 113.03 104.75
  C 99.81 104.32 90.78 113.23 88.91 126.10
  Q 88.80 126.84 89.50 126.61
  L 90.47 126.29
  Q 91.02 126.11 91.50 126.45
  C 95.28 129.20 91.37 131.61 89.36 133.18
  Q 88.93 133.52 89.15 134.04
  L 91.88 140.43
  Q 92.18 141.12 92.73 140.61
  C 95.00 138.52 102.23 130.15 105.14 130.93
  A 2.30 2.30 0.0 0 1 106.71 133.96
  C 105.16 138.09 100.45 140.69 96.80 144.68
  Q 96.33 145.19 96.96 145.48
  L 102.35 148.00
  Q 102.93 148.27 103.41 147.85
  Q 110.26 141.83 117.33 136.09
  C 120.70 133.34 124.27 137.42 120.16 140.77"
/>
<path stroke="#533d3e" vector-effect="non-scaling-stroke" d="
  M 103.3540 117.3026
  A 2.46 2.46 0.0 0 0 99.8911 116.9691
  L 95.2922 120.7602
  A 2.46 2.46 0.0 0 0 94.9588 124.2231
  L 95.0860 124.3774
  A 2.46 2.46 0.0 0 0 98.5489 124.7109
  L 103.1478 120.9198
  A 2.46 2.46 0.0 0 0 103.4812 117.4569
  L 103.3540 117.3026"
/>
</g>
<g fill="#38383c">
<path d="
  M 125.56 103.44
  C 133.04 108.30 136.39 118.88 136.77 128.10
  C 137.55 146.61 127.51 156.10 108.77 154.93
  C 73.61 152.72 76.39 104.96 106.42 99.39
  Q 116.46 97.52 125.56 103.44
  Z
  M 120.16 140.77
  Q 115.49 144.58 110.84 148.55
  Q 110.35 148.96 110.99 149.04
  Q 121.13 150.28 127.36 143.08
  C 130.07 139.95 130.70 135.96 131.19 131.92
  A 0.32 0.32 0.0 0 0 130.69 131.62
  L 127.94 133.62
  Q 127.56 133.90 127.10 133.75
  Q 124.72 132.96 124.73 130.60
  Q 124.73 130.15 125.03 129.80
  L 130.04 123.95
  Q 130.43 123.50 130.29 122.92
  L 128.65 116.25
  A 0.30 0.30 0.0 0 0 128.16 116.10
  L 114.20 128.88
  Q 113.80 129.25 113.24 129.27
  Q 109.86 129.37 109.69 126.17
  Q 109.66 125.56 110.10 125.15
  L 124.77 111.28
  Q 125.33 110.75 124.71 110.28
  L 120.37 106.98
  Q 119.87 106.60 119.42 107.03
  C 117.19 109.11 109.10 118.19 106.68 112.82
  A 1.70 1.70 0.0 0 1 107.11 110.84
  L 113.28 105.46
  A 0.40 0.40 0.0 0 0 113.03 104.75
  C 99.81 104.32 90.78 113.23 88.91 126.10
  Q 88.80 126.84 89.50 126.61
  L 90.47 126.29
  Q 91.02 126.11 91.50 126.45
  C 95.28 129.20 91.37 131.61 89.36 133.18
  Q 88.93 133.52 89.15 134.04
  L 91.88 140.43
  Q 92.18 141.12 92.73 140.61
  C 95.00 138.52 102.23 130.15 105.14 130.93
  A 2.30 2.30 0.0 0 1 106.71 133.96
  C 105.16 138.09 100.45 140.69 96.80 144.68
  Q 96.33 145.19 96.96 145.48
  L 102.35 148.00
  Q 102.93 148.27 103.41 147.85
  Q 110.26 141.83 117.33 136.09
  C 120.70 133.34 124.27 137.42 120.16 140.77
  Z"
/>
<rect x="-5.44" y="-2.56" transform="translate(99.22,120.84) rotate(-39.5)" width="10.88" height="5.12" rx="2.46"/>
</g>
<path fill="#6e423f" d="
  M 120.16 140.77
  C 124.27 137.42 120.70 133.34 117.33 136.09
  Q 110.26 141.83 103.41 147.85
  Q 102.93 148.27 102.35 148.00
  L 96.96 145.48
  Q 96.33 145.19 96.80 144.68
  C 100.45 140.69 105.16 138.09 106.71 133.96
  A 2.30 2.30 0.0 0 0 105.14 130.93
  C 102.23 130.15 95.00 138.52 92.73 140.61
  Q 92.18 141.12 91.88 140.43
  L 89.15 134.04
  Q 88.93 133.52 89.36 133.18
  C 91.37 131.61 95.28 129.20 91.50 126.45
  Q 91.02 126.11 90.47 126.29
  L 89.50 126.61
  Q 88.80 126.84 88.91 126.10
  C 90.78 113.23 99.81 104.32 113.03 104.75
  A 0.40 0.40 0.0 0 1 113.28 105.46
  L 107.11 110.84
  A 1.70 1.70 0.0 0 0 106.68 112.82
  C 109.10 118.19 117.19 109.11 119.42 107.03
  Q 119.87 106.60 120.37 106.98
  L 124.71 110.28
  Q 125.33 110.75 124.77 111.28
  L 110.10 125.15
  Q 109.66 125.56 109.69 126.17
  Q 109.86 129.37 113.24 129.27
  Q 113.80 129.25 114.20 128.88
  L 128.16 116.10
  A 0.30 0.30 0.0 0 1 128.65 116.25
  L 130.29 122.92
  Q 130.43 123.50 130.04 123.95
  L 125.03 129.80
  Q 124.73 130.15 124.73 130.60
  Q 124.72 132.96 127.10 133.75
  Q 127.56 133.90 127.94 133.62
  L 130.69 131.62
  A 0.32 0.32 0.0 0 1 131.19 131.92
  C 130.70 135.96 130.07 139.95 127.36 143.08
  Q 121.13 150.28 110.99 149.04
  Q 110.35 148.96 110.84 148.55
  Q 115.49 144.58 120.16 140.77
  Z
  M 103.3540 117.3026
  A 2.46 2.46 0.0 0 0 99.8911 116.9691
  L 95.2922 120.7602
  A 2.46 2.46 0.0 0 0 94.9588 124.2231
  L 95.0860 124.3774
  A 2.46 2.46 0.0 0 0 98.5489 124.7109
  L 103.1478 120.9198
  A 2.46 2.46 0.0 0 0 103.4812 117.4569
  L 103.3540 117.3026
  Z"
/>
</svg>
