<?xml version="1.0" encoding="UTF-8" standalone="no"?>
<!DOCTYPE svg PUBLIC "-//W3C//DTD SVG 1.1//EN" "http://www.w3.org/Graphics/SVG/1.1/DTD/svg11.dtd">
<svg xmlns="http://www.w3.org/2000/svg" version="1.1" viewBox="0 0 180 180">
<path fill="#6e423f" d="
  M 96.92 81.96
  C 102.80 83.37 112.69 86.74 115.49 92.76
  Q 117.54 97.15 118.99 101.77
  Q 119.14 102.25 119.49 102.60
  C 121.13 104.23 122.95 110.73 123.39 112.82
  C 126.47 127.43 126.58 141.29 127.52 160.00
  C 127.76 164.96 125.16 168.57 120.08 169.18
  C 115.37 169.75 106.96 170.73 104.22 166.97
  Q 103.94 166.57 104.01 166.08
  C 107.14 145.03 85.80 147.27 86.31 164.93
  Q 86.35 166.22 87.64 167.26
  Q 88.07 167.61 87.65 167.96
  C 84.62 170.44 80.55 169.59 77.01 170.04
  Q 72.47 170.62 70.98 170.21
  C 63.41 168.17 64.93 156.36 64.60 150.66
  C 64.20 143.48 63.17 135.67 63.92 128.53
  C 64.31 124.85 63.86 121.07 65.01 117.63
  C 65.74 115.47 66.76 113.60 66.69 111.27
  C 66.59 108.30 66.14 105.55 67.08 102.65
  C 68.59 97.97 69.70 93.28 72.84 89.64
  C 78.17 83.47 88.77 80.00 96.92 81.96
  Z"
/>
</svg>
