<?xml version="1.0" encoding="UTF-8" standalone="no"?>
<!DOCTYPE svg PUBLIC "-//W3C//DTD SVG 1.1//EN" "http://www.w3.org/Graphics/SVG/1.1/DTD/svg11.dtd">
<svg xmlns="http://www.w3.org/2000/svg" version="1.1" viewBox="0 0 180 180">
<path fill="#38383c" d="
  M 78.00 82.38
  C 114.51 68.67 126.86 99.48 127.48 128.63
  Q 127.76 141.79 128.10 147.94
  Q 128.90 162.07 127.79 167.26
  C 126.47 173.37 111.96 171.75 107.57 171.10
  C 98.23 169.72 103.25 161.80 100.29 156.73
  C 98.43 153.56 93.61 152.49 91.30 155.73
  Q 91.00 156.16 91.04 156.68
  C 91.55 163.33 92.69 171.47 84.06 171.70
  C 74.26 171.97 62.18 174.83 62.22 159.85
  C 62.26 141.40 61.92 122.41 63.78 103.88
  C 64.63 95.33 69.47 85.58 78.00 82.38
  Z
  M 121.87 129.22
  C 119.91 105.29 115.38 78.30 83.24 86.34
  C 75.93 88.17 71.03 94.38 69.80 101.54
  Q 67.71 113.76 68.27 129.75
  Q 68.29 130.24 68.78 130.23
  Q 94.64 129.61 120.51 130.64
  Q 121.99 130.70 121.87 129.22
  Z
  M 117.31 136.45
  Q 93.01 135.47 68.66 135.80
  Q 68.00 135.81 68.00 136.47
  L 68.00 138.85
  Q 68.00 139.45 68.60 139.45
  L 121.41 139.43
  Q 122.00 139.43 122.00 138.84
  L 122.00 137.08
  Q 122.00 136.48 121.40 136.49
  Q 119.34 136.53 117.31 136.45
  Z
  M 121.78 145.21
  L 68.79 145.21
  Q 68.14 145.21 68.10 145.86
  C 67.74 151.66 66.90 159.59 68.59 165.11
  Q 68.75 165.64 69.30 165.74
  Q 73.66 166.54 78.05 165.95
  C 80.22 165.66 82.55 166.35 84.95 165.59
  Q 85.47 165.43 85.48 164.88
  C 85.60 157.87 84.41 148.81 94.27 148.25
  Q 104.06 147.69 106.39 156.78
  C 106.96 159.02 106.74 161.56 106.75 163.99
  A 1.68 1.67 -89.8 0 0 108.40 165.66
  L 121.52 165.81
  Q 122.36 165.82 122.36 164.98
  L 122.42 145.85
  A 0.64 0.64 0.0 0 0 121.78 145.21
  Z"
/>
</svg>
