<?xml version="1.0" encoding="UTF-8" standalone="no"?>
<!DOCTYPE svg PUBLIC "-//W3C//DTD SVG 1.1//EN" "http://www.w3.org/Graphics/SVG/1.1/DTD/svg11.dtd">
<svg xmlns="http://www.w3.org/2000/svg" version="1.1" viewBox="0 0 180 180">
<path fill="#ffffff" d="
  M 109.03 69.52
  L 113.56 67.82
  Q 114.11 67.62 114.57 67.96
  L 116.39 69.33
  Q 116.96 69.76 116.55 70.34
  Q 115.56 71.75 115.65 73.39
  Q 115.68 73.94 115.33 74.38
  C 110.02 81.03 106.88 88.62 104.22 96.81
  Q 104.10 97.18 103.76 97.40
  L 98.33 100.86
  Q 97.90 101.13 97.40 101.16
  Q 89.17 101.55 86.07 100.70
  Q 82.87 99.81 81.40 99.74
  Q 80.87 99.72 80.45 99.38
  Q 78.79 98.02 76.62 97.96
  Q 76.12 97.95 75.77 97.60
  C 73.37 95.16 70.98 92.86 69.83 89.56
  C 67.19 82.04 67.45 74.87 67.42 67.03
  C 67.37 54.46 78.92 45.89 91.10 47.20
  C 97.94 47.93 104.54 55.12 105.83 60.69
  C 106.41 63.22 108.01 65.72 108.00 68.81
  A 0.77 0.76 -10.2 0 0 109.03 69.52
  Z"
/>
</svg>
