<?xml version="1.0" encoding="UTF-8" standalone="no"?>
<!DOCTYPE svg PUBLIC "-//W3C//DTD SVG 1.1//EN" "http://www.w3.org/Graphics/SVG/1.1/DTD/svg11.dtd">
<svg xmlns="http://www.w3.org/2000/svg" version="1.1" viewBox="0 0 180 180">
<g fill="#38383c">
<path d="
  M 111.04 64.83
  C 115.17 63.42 123.59 59.30 124.22 64.92
  Q 124.28 65.41 123.99 65.82
  Q 117.69 74.97 111.35 84.04
  C 108.00 88.82 108.92 95.72 104.03 99.24
  C 87.88 110.87 68.16 102.54 65.71 82.78
  Q 64.72 74.77 65.65 65.95
  C 65.92 63.46 67.05 61.39 67.82 58.94
  C 74.60 37.41 109.26 41.34 110.47 64.45
  Q 110.50 65.02 111.04 64.83
  Z
  M 107.32 70.98
  A 1.56 1.55 -8.6 0 1 105.91 69.94
  C 104.93 67.14 104.89 63.77 104.12 61.43
  C 100.27 49.72 84.71 46.35 76.35 54.87
  C 69.58 61.77 70.05 71.69 70.90 81.01
  C 72.32 96.35 88.25 105.02 100.59 94.03
  C 103.43 91.51 103.92 88.17 104.43 84.58
  Q 104.50 84.11 104.78 83.72
  L 114.67 69.95
  A 0.45 0.45 0.0 0 0 114.08 69.29
  Q 110.92 71.11 107.32 70.98
  Z"
/>
<rect x="-2.70" y="-9.51" transform="translate(82.46,82.37) rotate(-0.7)" width="5.40" height="19.02" rx="2.60"/>
</g>
</svg>
