<?xml version="1.0" encoding="UTF-8" standalone="no"?>
<!DOCTYPE svg PUBLIC "-//W3C//DTD SVG 1.1//EN" "http://www.w3.org/Graphics/SVG/1.1/DTD/svg11.dtd">
<svg xmlns="http://www.w3.org/2000/svg" version="1.1" viewBox="0 0 180 180">
<g stroke-width="2.00" fill="none" stroke-linecap="butt">
<path stroke="#9b9b9d" vector-effect="non-scaling-stroke" d="
  M 67.51 89.41
  A 0.43 0.43 0.0 0 0 67.98 89.84
  L 71.53 89.46
  A 0.43 0.43 0.0 0 0 71.82 88.77
  L 68.26 84.13
  A 0.43 0.43 0.0 0 0 67.49 84.39
  L 67.51 89.41"
/>
<path stroke="#9b9b9d" vector-effect="non-scaling-stroke" d="
  M 96.62 89.67
  Q 97.31 89.91 97.98 89.71
  Q 98.50 89.55 98.50 89.01
  L 98.50 84.49
  Q 98.50 83.20 97.70 84.21
  L 94.17 88.73
  Q 93.57 89.50 94.55 89.50
  L 95.58 89.50
  Q 96.11 89.50 96.62 89.67"
/>
</g>
<g fill="#38383c">
<path d="
  M 112.44 69.26
  C 116.53 69.05 123.18 68.72 121.34 75.38
  Q 118.90 84.18 111.38 89.59
  C 109.56 90.91 108.24 91.81 107.17 93.96
  Q 103.57 101.22 95.49 103.44
  Q 80.01 107.70 70.61 95.47
  Q 70.30 95.06 69.79 95.14
  C 59.38 96.85 61.35 83.17 65.01 78.32
  Q 65.32 77.91 65.29 77.41
  C 65.06 72.28 64.92 66.47 66.85 61.65
  C 67.59 59.81 68.08 57.56 69.05 55.99
  C 76.90 43.32 93.36 40.52 103.90 50.80
  Q 110.31 57.05 111.09 68.06
  Q 111.17 69.32 112.44 69.26
  Z
  M 98.13 95.16
  C 94.19 94.80 83.83 96.00 88.65 87.76
  C 90.43 84.73 95.42 77.04 99.83 78.18
  C 103.03 79.00 104.00 84.03 103.69 86.93
  Q 103.62 87.54 104.22 87.40
  C 109.39 86.21 113.79 80.18 115.76 75.55
  A 0.58 0.58 0.0 0 0 115.23 74.75
  C 112.18 74.75 104.37 76.27 104.82 71.02
  C 105.48 63.10 103.55 56.09 96.57 52.35
  C 88.61 48.08 78.37 49.97 73.71 58.26
  Q 68.38 67.75 71.39 79.76
  Q 71.50 80.23 71.85 80.56
  C 74.86 83.50 80.77 90.39 77.27 93.77
  Q 76.89 94.14 77.26 94.52
  C 82.63 100.05 91.58 99.59 97.92 96.41
  Q 98.51 96.12 98.51 95.56
  A 0.43 0.41 2.4 0 0 98.13 95.16
  Z
  M 67.51 89.41
  A 0.43 0.43 0.0 0 0 67.98 89.84
  L 71.53 89.46
  A 0.43 0.43 0.0 0 0 71.82 88.77
  L 68.26 84.13
  A 0.43 0.43 0.0 0 0 67.49 84.39
  L 67.51 89.41
  Z
  M 96.62 89.67
  Q 97.31 89.91 97.98 89.71
  Q 98.50 89.55 98.50 89.01
  L 98.50 84.49
  Q 98.50 83.20 97.70 84.21
  L 94.17 88.73
  Q 93.57 89.50 94.55 89.50
  L 95.58 89.50
  Q 96.11 89.50 96.62 89.67
  Z"
/>
<rect x="-2.71" y="-9.43" transform="translate(82.47,82.29) rotate(-1.0)" width="5.42" height="18.86" rx="2.60"/>
</g>
<g fill="#fefefe">
<path d="
  M 67.51 89.41
  L 67.49 84.39
  A 0.43 0.43 0.0 0 1 68.26 84.13
  L 71.82 88.77
  A 0.43 0.43 0.0 0 1 71.53 89.46
  L 67.98 89.84
  A 0.43 0.43 0.0 0 1 67.51 89.41
  Z"
/>
<path d="
  M 95.58 89.50
  L 94.55 89.50
  Q 93.57 89.50 94.17 88.73
  L 97.70 84.21
  Q 98.50 83.20 98.50 84.49
  L 98.50 89.01
  Q 98.50 89.55 97.98 89.71
  Q 97.31 89.91 96.62 89.67
  Q 96.11 89.50 95.58 89.50
  Z"
/>
</g>
</svg>
