<?xml version="1.0" encoding="UTF-8" standalone="no"?>
<!DOCTYPE svg PUBLIC "-//W3C//DTD SVG 1.1//EN" "http://www.w3.org/Graphics/SVG/1.1/DTD/svg11.dtd">
<svg xmlns="http://www.w3.org/2000/svg" version="1.1" viewBox="0 0 180 180">
<path fill="#ffffff" d="
  M 116.60 74.07
  C 125.08 82.00 114.73 89.97 106.79 90.03
  Q 106.34 90.04 106.21 90.47
  L 104.32 96.71
  Q 104.19 97.16 103.80 97.40
  C 101.12 99.06 98.88 101.20 95.61 101.32
  Q 88.60 101.57 85.25 100.51
  Q 82.70 99.71 81.30 99.63
  Q 80.78 99.61 80.36 99.29
  Q 78.79 98.12 76.79 97.98
  Q 76.33 97.95 75.98 97.64
  C 68.74 91.06 66.81 82.88 67.63 73.34
  C 67.85 70.79 66.87 68.16 67.19 65.95
  Q 69.08 53.05 80.73 48.39
  C 84.00 47.09 90.10 46.61 93.35 47.59
  C 96.97 48.69 99.34 51.33 101.95 53.66
  C 105.30 56.65 105.37 60.23 107.05 64.14
  Q 107.97 66.29 107.99 68.50
  Q 108.00 69.20 108.69 69.31
  C 112.81 69.99 113.35 71.03 116.60 74.07
  Z"
/>
</svg>
