<?xml version="1.0" encoding="UTF-8" standalone="no"?>
<!DOCTYPE svg PUBLIC "-//W3C//DTD SVG 1.1//EN" "http://www.w3.org/Graphics/SVG/1.1/DTD/svg11.dtd">
<svg xmlns="http://www.w3.org/2000/svg" version="1.1" viewBox="0 0 180 180">
<path fill="#34343a" d="
  M 114.62 135.81
  L 123.96 132.93
  Q 124.47 132.77 124.98 132.94
  C 129.26 134.36 126.05 138.35 123.42 139.14
  C 113.41 142.15 105.19 143.90 97.26 140.98
  C 90.86 138.63 90.81 131.55 95.39 127.56
  C 97.88 125.39 102.21 124.27 105.57 122.67
  Q 106.19 122.37 106.09 121.69
  L 105.50 117.63
  A 2.04 2.04 0.0 0 1 107.00 115.37
  C 111.65 114.13 111.68 120.95 111.12 123.62
  Q 111.01 124.15 111.34 124.58
  Q 114.94 129.26 113.94 135.21
  Q 113.80 136.06 114.62 135.81
  Z
  M 98.82 135.59
  Q 102.20 136.68 105.79 136.86
  Q 106.42 136.90 106.89 136.47
  Q 110.21 133.41 107.85 128.91
  A 0.74 0.73 -20.0 0 0 107.04 128.54
  C 104.25 129.13 99.13 130.50 97.86 133.46
  A 1.58 1.58 0.0 0 0 98.82 135.59
  Z"
/>
</svg>
