<?xml version="1.0" encoding="UTF-8" standalone="no"?>
<!DOCTYPE svg PUBLIC "-//W3C//DTD SVG 1.1//EN" "http://www.w3.org/Graphics/SVG/1.1/DTD/svg11.dtd">
<svg xmlns="http://www.w3.org/2000/svg" version="1.1" viewBox="0 0 180 180">
<g stroke-width="2.00" fill="none" stroke-linecap="butt">
<path stroke="#533d3e" vector-effect="non-scaling-stroke" d="
  M 44.60 61.43
  L 50.30 63.32
  Q 50.93 63.52 50.81 62.87
  L 49.65 56.56
  A 0.64 0.64 0.0 0 0 48.55 56.25
  L 44.41 60.71
  Q 43.94 61.21 44.60 61.43"
/>
<path stroke="#3d504e" vector-effect="non-scaling-stroke" d="
  M 39.52 66.09
  C 35.56 70.48 33.35 76.45 30.27 81.28
  A 1.30 1.30 0.0 0 0 31.81 83.20
  Q 42.95 79.17 50.59 70.11
  Q 50.91 69.73 50.45 69.55
  L 40.98 65.75
  Q 40.13 65.41 39.52 66.09"
/>
<path stroke="#3d504e" vector-effect="non-scaling-stroke" d="
  M 46.35 86.90
  C 51.79 88.31 53.74 101.55 54.73 107.35
  C 55.93 114.43 57.78 120.00 60.05 126.40
  A 1.49 1.49 0.0 0 0 62.26 127.15
  C 70.23 121.98 74.44 116.55 80.27 109.03
  C 82.74 105.84 83.80 102.47 85.73 98.94
  C 86.84 96.91 86.55 95.36 86.48 93.17
  Q 86.46 92.65 86.01 92.38
  L 83.27 90.78
  Q 82.66 90.42 82.57 91.12
  C 81.83 96.90 79.71 104.71 74.25 106.61
  C 67.27 109.04 66.26 96.26 66.06 92.44
  A 0.63 0.62 74.4 0 0 65.14 91.92
  C 63.45 92.81 61.75 94.19 59.75 93.99
  C 52.91 93.32 53.59 82.33 53.44 76.17
  Q 53.42 75.45 52.94 75.98
  Q 45.44 84.04 35.23 88.06
  Q 34.69 88.27 34.86 88.83
  L 36.09 92.95
  Q 36.23 93.40 36.61 93.13
  L 45.37 87.08
  Q 45.82 86.77 46.35 86.90"
/>
<path stroke="#3d504e" vector-effect="non-scaling-stroke" d="
  M 94.98 102.66
  A 0.52 0.52 0.0 0 0 95.72 102.24
  Q 96.73 92.52 94.59 82.97
  A 0.38 0.38 0.0 0 0 93.91 82.82
  C 91.32 86.33 91.96 93.75 91.89 97.95
  C 91.84 100.71 92.63 101.57 94.98 102.66"
/>
<path stroke="#533d3e" vector-effect="non-scaling-stroke" d="
  M 28.45 98.32
  C 32.23 95.54 29.57 89.81 26.92 87.34
  Q 26.59 87.03 26.24 87.31
  C 22.50 90.31 19.71 93.87 22.74 98.30
  Q 23.01 98.71 23.48 98.87
  Q 26.39 99.84 28.45 98.32"
/>
<path stroke="#3d504e" vector-effect="non-scaling-stroke" d="
  M 119.85 95.11
  L 120.42 102.97
  A 0.48 0.48 0.0 0 0 121.32 103.18
  C 122.37 101.38 125.85 93.78 122.38 92.95
  A 2.06 2.06 0.0 0 0 119.85 95.11"
/>
<path stroke="#576461" vector-effect="non-scaling-stroke" d="
  M 113.65 96.99
  Q 107.70 96.90 102.01 95.26
  Q 101.40 95.08 101.41 95.72
  Q 101.46 102.49 101.42 109.25
  C 101.39 116.21 101.54 118.80 108.64 119.59
  C 112.57 120.03 112.91 116.78 113.57 113.44
  Q 115.16 105.43 114.17 97.46
  A 0.54 0.54 0.0 0 0 113.65 96.99"
/>
<path stroke="#3d504e" vector-effect="non-scaling-stroke" d="
  M 143.34 130.08
  C 146.61 119.90 148.92 93.23 129.60 98.85
  A 1.16 1.15 -4.1 0 0 128.79 99.78
  Q 127.63 107.25 120.59 109.45
  Q 120.14 109.59 120.06 110.06
  L 118.24 119.97
  Q 118.16 120.41 118.53 120.67
  Q 129.51 128.28 142.71 130.46
  Q 143.19 130.54 143.34 130.08"
/>
<path stroke="#3d504e" vector-effect="non-scaling-stroke" d="
  M 113.40 124.73
  C 103.90 126.92 96.00 122.88 95.88 112.49
  Q 95.86 110.88 95.69 109.05
  Q 95.64 108.48 95.07 108.38
  Q 92.05 107.82 89.73 105.91
  Q 89.26 105.52 88.96 106.05
  Q 85.61 112.01 81.20 117.27
  Q 80.88 117.65 81.19 118.04
  Q 83.02 120.31 84.24 122.93
  C 85.48 125.56 84.56 129.40 84.84 132.42
  Q 84.89 133.01 85.48 133.06
  C 94.65 133.89 107.12 129.70 114.32 127.44
  Q 115.13 127.19 114.77 126.43
  L 114.14 125.09
  Q 113.91 124.62 113.40 124.73"
/>
<path stroke="#533d3e" vector-effect="non-scaling-stroke" d="
  M 65.29 163.36
  L 69.51 163.92
  Q 69.97 163.98 70.10 163.54
  Q 74.34 149.53 78.34 135.44
  Q 80.20 128.91 77.73 122.66
  A 0.40 0.39 -33.5 0 0 77.08 122.53
  Q 71.02 128.76 63.43 132.98
  Q 63.09 133.18 63.11 133.57
  L 64.89 162.94
  Q 64.92 163.31 65.29 163.36"
/>
<path stroke="#533d3e" vector-effect="non-scaling-stroke" d="
  M 141.65 136.17
  Q 130.94 134.55 121.55 129.18
  Q 120.94 128.83 121.05 129.52
  C 122.14 136.50 125.79 141.88 129.56 147.64
  C 130.94 149.73 128.64 160.59 128.23 163.61
  Q 128.17 164.08 128.64 164.12
  L 133.12 164.58
  A 0.49 0.48 11.9 0 0 133.63 164.25
  L 142.30 137.22
  Q 142.59 136.31 141.65 136.17"
/>
<path stroke="#533d3e" vector-effect="non-scaling-stroke" d="
  M 118.35 146.91
  C 122.04 150.18 121.10 157.46 119.74 161.58
  Q 119.54 162.17 120.17 162.21
  L 122.23 162.34
  Q 122.75 162.37 122.82 161.85
  L 124.46 150.50
  Q 124.54 149.93 124.18 149.49
  Q 118.36 142.28 115.95 133.38
  A 0.45 0.45 0.0 0 0 115.34 133.07
  L 110.72 134.93
  Q 110.31 135.09 110.47 135.50
  Q 113.09 142.24 118.35 146.91"
/>
<path stroke="#533d3e" vector-effect="non-scaling-stroke" d="
  M 88.95 139.70
  A 0.43 0.43 0.0 0 0 88.60 139.13
  L 84.05 138.54
  A 0.43 0.43 0.0 0 0 83.58 138.84
  L 76.33 162.37
  A 0.43 0.43 0.0 0 0 76.70 162.92
  L 80.56 163.29
  A 0.43 0.43 0.0 0 0 81.01 163.00
  L 88.95 139.70"
/>
</g>
<path fill="#38383c" d="
  M 129.12 92.70
  A 0.37 0.37 0.0 0 0 129.56 92.95
  C 142.09 89.82 147.97 97.17 152.34 107.27
  Q 157.09 118.25 159.64 129.85
  C 161.89 140.07 160.31 147.35 155.93 156.50
  C 152.56 163.52 146.45 152.49 144.80 149.91
  Q 144.46 149.39 144.27 149.98
  Q 141.71 157.59 139.14 165.17
  C 137.76 169.21 135.61 173.24 130.90 173.60
  C 125.87 173.99 122.85 172.45 118.24 171.40
  C 104.28 168.20 120.94 157.43 113.16 149.69
  Q 107.63 144.20 105.07 136.72
  A 0.61 0.61 0.0 0 0 104.36 136.32
  L 95.17 138.43
  A 1.05 1.05 0.0 0 0 94.38 139.23
  Q 90.94 154.94 83.78 168.98
  C 82.13 172.22 74.90 172.15 71.75 172.63
  C 67.74 173.24 64.07 172.04 59.82 172.92
  Q 59.35 173.02 58.92 172.83
  C 54.47 170.85 56.22 165.43 58.77 162.49
  Q 59.10 162.11 59.07 161.62
  L 57.81 135.81
  A 1.63 1.62 -3.6 0 0 56.06 134.27
  C 37.99 135.66 33.66 116.50 31.32 103.74
  Q 31.22 103.19 30.72 103.44
  C 22.35 107.78 15.06 101.67 16.13 92.64
  C 16.39 90.52 19.02 86.73 20.95 84.60
  C 25.15 79.98 27.96 74.29 31.20 68.16
  C 34.09 62.69 40.01 57.84 44.14 53.15
  C 51.53 44.74 54.87 54.16 55.71 59.79
  Q 55.78 60.26 56.23 60.42
  C 69.04 64.83 76.22 77.89 86.41 86.14
  A 0.53 0.53 0.0 0 0 87.27 85.79
  Q 87.67 82.79 89.42 80.18
  C 91.91 76.46 96.97 76.52 99.23 80.28
  C 100.51 82.42 100.46 85.77 101.06 88.39
  Q 101.19 88.99 101.76 89.21
  Q 108.59 91.85 115.92 91.09
  Q 116.45 91.04 116.72 90.59
  C 120.23 84.81 127.32 87.19 129.12 92.70
  Z
  M 44.60 61.43
  L 50.30 63.32
  Q 50.93 63.52 50.81 62.87
  L 49.65 56.56
  A 0.64 0.64 0.0 0 0 48.55 56.25
  L 44.41 60.71
  Q 43.94 61.21 44.60 61.43
  Z
  M 39.52 66.09
  C 35.56 70.48 33.35 76.45 30.27 81.28
  A 1.30 1.30 0.0 0 0 31.81 83.20
  Q 42.95 79.17 50.59 70.11
  Q 50.91 69.73 50.45 69.55
  L 40.98 65.75
  Q 40.13 65.41 39.52 66.09
  Z
  M 46.35 86.90
  C 51.79 88.31 53.74 101.55 54.73 107.35
  C 55.93 114.43 57.78 120.00 60.05 126.40
  A 1.49 1.49 0.0 0 0 62.26 127.15
  C 70.23 121.98 74.44 116.55 80.27 109.03
  C 82.74 105.84 83.80 102.47 85.73 98.94
  C 86.84 96.91 86.55 95.36 86.48 93.17
  Q 86.46 92.65 86.01 92.38
  L 83.27 90.78
  Q 82.66 90.42 82.57 91.12
  C 81.83 96.90 79.71 104.71 74.25 106.61
  C 67.27 109.04 66.26 96.26 66.06 92.44
  A 0.63 0.62 74.4 0 0 65.14 91.92
  C 63.45 92.81 61.75 94.19 59.75 93.99
  C 52.91 93.32 53.59 82.33 53.44 76.17
  Q 53.42 75.45 52.94 75.98
  Q 45.44 84.04 35.23 88.06
  Q 34.69 88.27 34.86 88.83
  L 36.09 92.95
  Q 36.23 93.40 36.61 93.13
  L 45.37 87.08
  Q 45.82 86.77 46.35 86.90
  Z
  M 94.98 102.66
  A 0.52 0.52 0.0 0 0 95.72 102.24
  Q 96.73 92.52 94.59 82.97
  A 0.38 0.38 0.0 0 0 93.91 82.82
  C 91.32 86.33 91.96 93.75 91.89 97.95
  C 91.84 100.71 92.63 101.57 94.98 102.66
  Z
  M 28.45 98.32
  C 32.23 95.54 29.57 89.81 26.92 87.34
  Q 26.59 87.03 26.24 87.31
  C 22.50 90.31 19.71 93.87 22.74 98.30
  Q 23.01 98.71 23.48 98.87
  Q 26.39 99.84 28.45 98.32
  Z
  M 119.85 95.11
  L 120.42 102.97
  A 0.48 0.48 0.0 0 0 121.32 103.18
  C 122.37 101.38 125.85 93.78 122.38 92.95
  A 2.06 2.06 0.0 0 0 119.85 95.11
  Z
  M 36.24 100.60
  C 36.83 110.69 41.40 128.51 54.24 128.71
  Q 54.78 128.72 54.60 128.21
  C 52.34 121.75 50.44 115.88 49.17 108.75
  Q 47.86 101.41 46.02 94.15
  A 0.37 0.37 0.0 0 0 45.46 93.94
  L 36.64 99.80
  Q 36.21 100.09 36.24 100.60
  Z
  M 113.65 96.99
  Q 107.70 96.90 102.01 95.26
  Q 101.40 95.08 101.41 95.72
  Q 101.46 102.49 101.42 109.25
  C 101.39 116.21 101.54 118.80 108.64 119.59
  C 112.57 120.03 112.91 116.78 113.57 113.44
  Q 115.16 105.43 114.17 97.46
  A 0.54 0.54 0.0 0 0 113.65 96.99
  Z
  M 143.34 130.08
  C 146.61 119.90 148.92 93.23 129.60 98.85
  A 1.16 1.15 -4.1 0 0 128.79 99.78
  Q 127.63 107.25 120.59 109.45
  Q 120.14 109.59 120.06 110.06
  L 118.24 119.97
  Q 118.16 120.41 118.53 120.67
  Q 129.51 128.28 142.71 130.46
  Q 143.19 130.54 143.34 130.08
  Z
  M 113.40 124.73
  C 103.90 126.92 96.00 122.88 95.88 112.49
  Q 95.86 110.88 95.69 109.05
  Q 95.64 108.48 95.07 108.38
  Q 92.05 107.82 89.73 105.91
  Q 89.26 105.52 88.96 106.05
  Q 85.61 112.01 81.20 117.27
  Q 80.88 117.65 81.19 118.04
  Q 83.02 120.31 84.24 122.93
  C 85.48 125.56 84.56 129.40 84.84 132.42
  Q 84.89 133.01 85.48 133.06
  C 94.65 133.89 107.12 129.70 114.32 127.44
  Q 115.13 127.19 114.77 126.43
  L 114.14 125.09
  Q 113.91 124.62 113.40 124.73
  Z
  M 65.29 163.36
  L 69.51 163.92
  Q 69.97 163.98 70.10 163.54
  Q 74.34 149.53 78.34 135.44
  Q 80.20 128.91 77.73 122.66
  A 0.40 0.39 -33.5 0 0 77.08 122.53
  Q 71.02 128.76 63.43 132.98
  Q 63.09 133.18 63.11 133.57
  L 64.89 162.94
  Q 64.92 163.31 65.29 163.36
  Z
  M 141.65 136.17
  Q 130.94 134.55 121.55 129.18
  Q 120.94 128.83 121.05 129.52
  C 122.14 136.50 125.79 141.88 129.56 147.64
  C 130.94 149.73 128.64 160.59 128.23 163.61
  Q 128.17 164.08 128.64 164.12
  L 133.12 164.58
  A 0.49 0.48 11.9 0 0 133.63 164.25
  L 142.30 137.22
  Q 142.59 136.31 141.65 136.17
  Z
  M 118.35 146.91
  C 122.04 150.18 121.10 157.46 119.74 161.58
  Q 119.54 162.17 120.17 162.21
  L 122.23 162.34
  Q 122.75 162.37 122.82 161.85
  L 124.46 150.50
  Q 124.54 149.93 124.18 149.49
  Q 118.36 142.28 115.95 133.38
  A 0.45 0.45 0.0 0 0 115.34 133.07
  L 110.72 134.93
  Q 110.31 135.09 110.47 135.50
  Q 113.09 142.24 118.35 146.91
  Z
  M 88.95 139.70
  A 0.43 0.43 0.0 0 0 88.60 139.13
  L 84.05 138.54
  A 0.43 0.43 0.0 0 0 83.58 138.84
  L 76.33 162.37
  A 0.43 0.43 0.0 0 0 76.70 162.92
  L 80.56 163.29
  A 0.43 0.43 0.0 0 0 81.01 163.00
  L 88.95 139.70
  Z"
/>
<g fill="#42685f">
<path d="
  M 39.52 66.09
  Q 40.13 65.41 40.98 65.75
  L 50.45 69.55
  Q 50.91 69.73 50.59 70.11
  Q 42.95 79.17 31.81 83.20
  A 1.30 1.30 0.0 0 1 30.27 81.28
  C 33.35 76.45 35.56 70.48 39.52 66.09
  Z"
/>
<path d="
  M 45.37 87.08
  L 36.61 93.13
  Q 36.23 93.40 36.09 92.95
  L 34.86 88.83
  Q 34.69 88.27 35.23 88.06
  Q 45.44 84.04 52.94 75.98
  Q 53.42 75.45 53.44 76.17
  C 53.59 82.33 52.91 93.32 59.75 93.99
  C 61.75 94.19 63.45 92.81 65.14 91.92
  A 0.63 0.62 74.4 0 1 66.06 92.44
  C 66.26 96.26 67.27 109.04 74.25 106.61
  C 79.71 104.71 81.83 96.90 82.57 91.12
  Q 82.66 90.42 83.27 90.78
  L 86.01 92.38
  Q 86.46 92.65 86.48 93.17
  C 86.55 95.36 86.84 96.91 85.73 98.94
  C 83.80 102.47 82.74 105.84 80.27 109.03
  C 74.44 116.55 70.23 121.98 62.26 127.15
  A 1.49 1.49 0.0 0 1 60.05 126.40
  C 57.78 120.00 55.93 114.43 54.73 107.35
  C 53.74 101.55 51.79 88.31 46.35 86.90
  Q 45.82 86.77 45.37 87.08
  Z"
/>
<path d="
  M 94.98 102.66
  C 92.63 101.57 91.84 100.71 91.89 97.95
  C 91.96 93.75 91.32 86.33 93.91 82.82
  A 0.38 0.38 0.0 0 1 94.59 82.97
  Q 96.73 92.52 95.72 102.24
  A 0.52 0.52 0.0 0 1 94.98 102.66
  Z"
/>
<path d="
  M 119.85 95.11
  A 2.06 2.06 0.0 0 1 122.38 92.95
  C 125.85 93.78 122.37 101.38 121.32 103.18
  A 0.48 0.48 0.0 0 1 120.42 102.97
  L 119.85 95.11
  Z"
/>
<path d="
  M 129.60 98.85
  C 148.92 93.23 146.61 119.90 143.34 130.08
  Q 143.19 130.54 142.71 130.46
  Q 129.51 128.28 118.53 120.67
  Q 118.16 120.41 118.24 119.97
  L 120.06 110.06
  Q 120.14 109.59 120.59 109.45
  Q 127.63 107.25 128.79 99.78
  A 1.16 1.15 -4.1 0 1 129.60 98.85
  Z"
/>
<path d="
  M 95.88 112.49
  C 96.00 122.88 103.90 126.92 113.40 124.73
  Q 113.91 124.62 114.14 125.09
  L 114.77 126.43
  Q 115.13 127.19 114.32 127.44
  C 107.12 129.70 94.65 133.89 85.48 133.06
  Q 84.89 133.01 84.84 132.42
  C 84.56 129.40 85.48 125.56 84.24 122.93
  Q 83.02 120.31 81.19 118.04
  Q 80.88 117.65 81.20 117.27
  Q 85.61 112.01 88.96 106.05
  Q 89.26 105.52 89.73 105.91
  Q 92.05 107.82 95.07 108.38
  Q 95.64 108.48 95.69 109.05
  Q 95.86 110.88 95.88 112.49
  Z"
/>
</g>
<g fill="#6e423f">
<path d="
  M 50.30 63.32
  L 44.60 61.43
  Q 43.94 61.21 44.41 60.71
  L 48.55 56.25
  A 0.64 0.64 0.0 0 1 49.65 56.56
  L 50.81 62.87
  Q 50.93 63.52 50.30 63.32
  Z"
/>
<path d="
  M 28.45 98.32
  Q 26.39 99.84 23.48 98.87
  Q 23.01 98.71 22.74 98.30
  C 19.71 93.87 22.50 90.31 26.24 87.31
  Q 26.59 87.03 26.92 87.34
  C 29.57 89.81 32.23 95.54 28.45 98.32
  Z"
/>
<path d="
  M 69.51 163.92
  L 65.29 163.36
  Q 64.92 163.31 64.89 162.94
  L 63.11 133.57
  Q 63.09 133.18 63.43 132.98
  Q 71.02 128.76 77.08 122.53
  A 0.40 0.39 -33.5 0 1 77.73 122.66
  Q 80.20 128.91 78.34 135.44
  Q 74.34 149.53 70.10 163.54
  Q 69.97 163.98 69.51 163.92
  Z"
/>
<path d="
  M 141.65 136.17
  Q 142.59 136.31 142.30 137.22
  L 133.63 164.25
  A 0.49 0.48 11.9 0 1 133.12 164.58
  L 128.64 164.12
  Q 128.17 164.08 128.23 163.61
  C 128.64 160.59 130.94 149.73 129.56 147.64
  C 125.79 141.88 122.14 136.50 121.05 129.52
  Q 120.94 128.83 121.55 129.18
  Q 130.94 134.55 141.65 136.17
  Z"
/>
<path d="
  M 118.35 146.91
  Q 113.09 142.24 110.47 135.50
  Q 110.31 135.09 110.72 134.93
  L 115.34 133.07
  A 0.45 0.45 0.0 0 1 115.95 133.38
  Q 118.36 142.28 124.18 149.49
  Q 124.54 149.93 124.46 150.50
  L 122.82 161.85
  Q 122.75 162.37 122.23 162.34
  L 120.17 162.21
  Q 119.54 162.17 119.74 161.58
  C 121.10 157.46 122.04 150.18 118.35 146.91
  Z"
/>
<path d="
  M 88.95 139.70
  L 81.01 163.00
  A 0.43 0.43 0.0 0 1 80.56 163.29
  L 76.70 162.92
  A 0.43 0.43 0.0 0 1 76.33 162.37
  L 83.58 138.84
  A 0.43 0.43 0.0 0 1 84.05 138.54
  L 88.60 139.13
  A 0.43 0.43 0.0 0 1 88.95 139.70
  Z"
/>
</g>
<path fill="#759086" d="
  M 113.65 96.99
  A 0.54 0.54 0.0 0 1 114.17 97.46
  Q 115.16 105.43 113.57 113.44
  C 112.91 116.78 112.57 120.03 108.64 119.59
  C 101.54 118.80 101.39 116.21 101.42 109.25
  Q 101.46 102.49 101.41 95.72
  Q 101.40 95.08 102.01 95.26
  Q 107.70 96.90 113.65 96.99
  Z"
/>
</svg>
