<?xml version="1.0" encoding="UTF-8" standalone="no"?>
<!DOCTYPE svg PUBLIC "-//W3C//DTD SVG 1.1//EN" "http://www.w3.org/Graphics/SVG/1.1/DTD/svg11.dtd">
<svg xmlns="http://www.w3.org/2000/svg" version="1.1" viewBox="0 0 180 180">
<g stroke-width="2.00" fill="none" stroke-linecap="butt">
<path stroke="#3d504e" vector-effect="non-scaling-stroke" d="
  M 105.42 80.89
  Q 109.38 83.49 112.24 87.24
  Q 112.56 87.66 112.99 87.36
  C 115.60 85.52 120.71 82.80 120.24 79.00
  Q 118.67 66.37 112.46 55.11
  A 0.34 0.33 -53.9 0 0 111.84 55.21
  Q 109.35 67.96 105.21 80.28
  A 0.53 0.52 -64.4 0 0 105.42 80.89"
/>
<path stroke="#3d504e" vector-effect="non-scaling-stroke" d="
  M 73.05 87.86
  Q 74.31 88.58 75.01 87.31
  Q 77.67 82.51 82.19 79.48
  Q 82.70 79.14 82.53 78.56
  L 76.82 58.67
  Q 76.21 56.54 75.46 58.62
  Q 72.45 66.99 69.87 74.21
  C 68.25 78.72 68.33 85.18 73.05 87.86"
/>
<path stroke="#576461" vector-effect="non-scaling-stroke" d="
  M 102.84 111.17
  C 90.41 110.34 103.47 94.78 108.48 94.14
  Q 109.09 94.06 108.86 93.50
  Q 106.39 87.32 99.75 84.76
  Q 83.91 78.66 78.53 93.34
  Q 78.36 93.81 78.77 94.10
  C 82.39 96.55 96.72 111.45 82.28 110.99
  Q 81.49 110.96 82.11 111.45
  C 87.86 115.99 97.36 115.50 102.99 111.74
  Q 103.75 111.23 102.84 111.17"
/>
<path stroke="#3d504e" vector-effect="non-scaling-stroke" d="
  M 71.11 103.53
  C 58.23 104.97 40.80 99.78 35.92 86.34
  A 0.22 0.21 46.3 0 0 35.52 86.33
  Q 31.64 95.49 25.53 103.33
  A 0.45 0.45 0.0 0 0 25.73 104.03
  C 34.02 106.98 38.88 118.03 39.75 126.08
  Q 39.81 126.61 40.17 126.21
  C 44.94 120.95 55.16 115.23 62.33 118.88
  Q 62.83 119.14 63.20 118.71
  Q 67.45 113.78 73.62 111.63
  Q 74.29 111.40 73.91 110.80
  Q 71.95 107.72 71.74 104.07
  Q 71.71 103.47 71.11 103.53"
/>
<path stroke="#3d504e" vector-effect="non-scaling-stroke" d="
  M 112.00 112.74
  C 113.88 112.81 118.34 117.35 119.57 118.81
  Q 119.91 119.21 120.40 119.00
  C 131.40 114.13 138.99 117.77 147.46 124.44
  Q 147.96 124.82 147.98 124.20
  Q 148.34 111.51 157.32 102.79
  Q 157.68 102.44 157.33 102.08
  Q 150.71 95.33 147.27 86.45
  A 0.38 0.38 0.0 0 0 146.56 86.46
  C 141.74 99.98 128.60 103.22 115.71 103.16
  Q 115.13 103.15 115.09 103.72
  Q 114.75 108.43 111.78 112.00
  A 0.46 0.39 -66.2 0 0 112.00 112.74"
/>
<path stroke="#9b9b9d" vector-effect="non-scaling-stroke" d="
  M 80.00 105.50
  L 81.54 105.50
  Q 82.37 105.50 81.86 104.85
  L 78.27 100.24
  Q 77.50 99.25 77.50 100.50
  L 77.50 104.80
  Q 77.50 105.43 78.08 105.67
  Q 78.65 105.90 79.18 105.67
  Q 79.57 105.50 80.00 105.50"
/>
<path stroke="#9b9b9d" vector-effect="non-scaling-stroke" d="
  M 104.22 104.75
  A 0.43 0.43 0.0 0 0 104.51 105.44
  L 108.02 105.84
  A 0.43 0.43 0.0 0 0 108.50 105.41
  L 108.50 100.49
  A 0.43 0.43 0.0 0 0 107.73 100.22
  L 104.22 104.75"
/>
</g>
<path fill="#38383c" d="
  M 71.88 93.57
  C 64.72 90.95 61.77 82.27 63.78 75.26
  Q 67.19 63.38 72.65 52.32
  C 73.84 49.92 75.80 48.55 78.40 49.26
  Q 78.92 49.40 79.19 49.86
  C 83.46 57.33 85.55 68.46 87.89 76.85
  Q 88.04 77.40 88.61 77.33
  Q 94.06 76.63 99.21 78.56
  Q 99.86 78.81 100.07 78.14
  Q 102.99 68.45 107.44 50.01
  Q 108.45 45.81 112.76 46.72
  Q 113.23 46.82 113.55 47.16
  C 120.49 54.44 124.39 67.29 125.69 77.00
  C 126.83 85.57 121.39 88.40 115.18 92.42
  Q 114.81 92.66 114.87 93.10
  L 115.39 96.77
  A 0.84 0.83 -3.9 0 0 116.22 97.49
  C 138.40 97.45 144.89 86.60 141.72 65.50
  C 141.22 62.18 146.85 61.04 147.78 65.25
  C 150.91 79.38 152.59 90.41 163.28 99.64
  C 165.27 101.36 166.50 103.82 163.74 105.49
  C 153.56 111.66 152.51 124.56 153.58 135.05
  C 153.92 138.38 151.06 139.77 148.67 137.23
  C 147.45 135.92 146.55 135.13 146.01 133.26
  C 144.81 129.11 141.12 126.25 137.48 124.34
  C 131.76 121.35 125.69 122.01 120.35 125.55
  C 118.68 126.65 117.40 125.86 116.43 124.28
  Q 113.10 118.92 107.11 116.68
  Q 106.62 116.49 106.17 116.75
  Q 92.50 124.44 79.08 116.43
  A 1.70 1.69 52.9 0 0 77.81 116.25
  Q 70.31 118.22 65.65 124.39
  C 63.90 126.72 61.08 125.05 59.32 123.73
  Q 58.91 123.42 58.40 123.43
  C 49.39 123.63 44.99 129.18 39.36 135.11
  C 36.40 138.24 32.67 134.68 33.21 131.49
  C 34.44 124.28 32.69 117.12 27.90 112.06
  Q 25.00 108.99 20.04 109.47
  Q 19.54 109.52 19.12 109.23
  C 16.14 107.18 17.26 104.74 19.21 102.36
  C 28.02 91.56 31.47 81.15 35.62 68.10
  C 37.00 63.77 42.01 65.97 40.97 69.91
  C 35.39 91.07 53.69 99.20 71.03 97.72
  Q 71.54 97.68 71.65 97.18
  L 72.27 94.28
  Q 72.39 93.75 71.88 93.57
  Z
  M 105.42 80.89
  Q 109.38 83.49 112.24 87.24
  Q 112.56 87.66 112.99 87.36
  C 115.60 85.52 120.71 82.80 120.24 79.00
  Q 118.67 66.37 112.46 55.11
  A 0.34 0.33 -53.9 0 0 111.84 55.21
  Q 109.35 67.96 105.21 80.28
  A 0.53 0.52 -64.4 0 0 105.42 80.89
  Z
  M 73.05 87.86
  Q 74.31 88.58 75.01 87.31
  Q 77.67 82.51 82.19 79.48
  Q 82.70 79.14 82.53 78.56
  L 76.82 58.67
  Q 76.21 56.54 75.46 58.62
  Q 72.45 66.99 69.87 74.21
  C 68.25 78.72 68.33 85.18 73.05 87.86
  Z
  M 102.84 111.17
  C 90.41 110.34 103.47 94.78 108.48 94.14
  Q 109.09 94.06 108.86 93.50
  Q 106.39 87.32 99.75 84.76
  Q 83.91 78.66 78.53 93.34
  Q 78.36 93.81 78.77 94.10
  C 82.39 96.55 96.72 111.45 82.28 110.99
  Q 81.49 110.96 82.11 111.45
  C 87.86 115.99 97.36 115.50 102.99 111.74
  Q 103.75 111.23 102.84 111.17
  Z
  M 71.11 103.53
  C 58.23 104.97 40.80 99.78 35.92 86.34
  A 0.22 0.21 46.3 0 0 35.52 86.33
  Q 31.64 95.49 25.53 103.33
  A 0.45 0.45 0.0 0 0 25.73 104.03
  C 34.02 106.98 38.88 118.03 39.75 126.08
  Q 39.81 126.61 40.17 126.21
  C 44.94 120.95 55.16 115.23 62.33 118.88
  Q 62.83 119.14 63.20 118.71
  Q 67.45 113.78 73.62 111.63
  Q 74.29 111.40 73.91 110.80
  Q 71.95 107.72 71.74 104.07
  Q 71.71 103.47 71.11 103.53
  Z
  M 112.00 112.74
  C 113.88 112.81 118.34 117.35 119.57 118.81
  Q 119.91 119.21 120.40 119.00
  C 131.40 114.13 138.99 117.77 147.46 124.44
  Q 147.96 124.82 147.98 124.20
  Q 148.34 111.51 157.32 102.79
  Q 157.68 102.44 157.33 102.08
  Q 150.71 95.33 147.27 86.45
  A 0.38 0.38 0.0 0 0 146.56 86.46
  C 141.74 99.98 128.60 103.22 115.71 103.16
  Q 115.13 103.15 115.09 103.72
  Q 114.75 108.43 111.78 112.00
  A 0.46 0.39 -66.2 0 0 112.00 112.74
  Z
  M 80.00 105.50
  L 81.54 105.50
  Q 82.37 105.50 81.86 104.85
  L 78.27 100.24
  Q 77.50 99.25 77.50 100.50
  L 77.50 104.80
  Q 77.50 105.43 78.08 105.67
  Q 78.65 105.90 79.18 105.67
  Q 79.57 105.50 80.00 105.50
  Z
  M 104.22 104.75
  A 0.43 0.43 0.0 0 0 104.51 105.44
  L 108.02 105.84
  A 0.43 0.43 0.0 0 0 108.50 105.41
  L 108.50 100.49
  A 0.43 0.43 0.0 0 0 107.73 100.22
  L 104.22 104.75
  Z"
/>
<g fill="#42685f">
<path d="
  M 105.42 80.89
  A 0.53 0.52 -64.4 0 1 105.21 80.28
  Q 109.35 67.96 111.84 55.21
  A 0.34 0.33 -53.9 0 1 112.46 55.11
  Q 118.67 66.37 120.24 79.00
  C 120.71 82.80 115.60 85.52 112.99 87.36
  Q 112.56 87.66 112.24 87.24
  Q 109.38 83.49 105.42 80.89
  Z"
/>
<path d="
  M 73.05 87.86
  C 68.33 85.18 68.25 78.72 69.87 74.21
  Q 72.45 66.99 75.46 58.62
  Q 76.21 56.54 76.82 58.67
  L 82.53 78.56
  Q 82.70 79.14 82.19 79.48
  Q 77.67 82.51 75.01 87.31
  Q 74.31 88.58 73.05 87.86
  Z"
/>
<path d="
  M 35.92 86.34
  C 40.80 99.78 58.23 104.97 71.11 103.53
  Q 71.71 103.47 71.74 104.07
  Q 71.95 107.72 73.91 110.80
  Q 74.29 111.40 73.62 111.63
  Q 67.45 113.78 63.20 118.71
  Q 62.83 119.14 62.33 118.88
  C 55.16 115.23 44.94 120.95 40.17 126.21
  Q 39.81 126.61 39.75 126.08
  C 38.88 118.03 34.02 106.98 25.73 104.03
  A 0.45 0.45 0.0 0 1 25.53 103.33
  Q 31.64 95.49 35.52 86.33
  A 0.22 0.21 46.3 0 1 35.92 86.34
  Z"
/>
<path d="
  M 119.57 118.81
  C 118.34 117.35 113.88 112.81 112.00 112.74
  A 0.46 0.39 -66.2 0 1 111.78 112.00
  Q 114.75 108.43 115.09 103.72
  Q 115.13 103.15 115.71 103.16
  C 128.60 103.22 141.74 99.98 146.56 86.46
  A 0.38 0.38 0.0 0 1 147.27 86.45
  Q 150.71 95.33 157.33 102.08
  Q 157.68 102.44 157.32 102.79
  Q 148.34 111.51 147.98 124.20
  Q 147.96 124.82 147.46 124.44
  C 138.99 117.77 131.40 114.13 120.40 119.00
  Q 119.91 119.21 119.57 118.81
  Z"
/>
</g>
<path fill="#759086" d="
  M 102.84 111.17
  Q 103.75 111.23 102.99 111.74
  C 97.36 115.50 87.86 115.99 82.11 111.45
  Q 81.49 110.96 82.28 110.99
  C 96.72 111.45 82.39 96.55 78.77 94.10
  Q 78.36 93.81 78.53 93.34
  Q 83.91 78.66 99.75 84.76
  Q 106.39 87.32 108.86 93.50
  Q 109.09 94.06 108.48 94.14
  C 103.47 94.78 90.41 110.34 102.84 111.17
  Z"
/>
<g fill="#fdfdfe">
<path d="
  M 79.18 105.67
  Q 78.65 105.90 78.08 105.67
  Q 77.50 105.43 77.50 104.80
  L 77.50 100.50
  Q 77.50 99.25 78.27 100.24
  L 81.86 104.85
  Q 82.37 105.50 81.54 105.50
  L 80.00 105.50
  Q 79.57 105.50 79.18 105.67
  Z"
/>
<path d="
  M 104.22 104.75
  L 107.73 100.22
  A 0.43 0.43 0.0 0 1 108.50 100.49
  L 108.50 105.41
  A 0.43 0.43 0.0 0 1 108.02 105.84
  L 104.51 105.44
  A 0.43 0.43 0.0 0 1 104.22 104.75
  Z"
/>
</g>
</svg>
