<?xml version="1.0" encoding="UTF-8" standalone="no"?>
<!DOCTYPE svg PUBLIC "-//W3C//DTD SVG 1.1//EN" "http://www.w3.org/Graphics/SVG/1.1/DTD/svg11.dtd">
<svg xmlns="http://www.w3.org/2000/svg" version="1.1" viewBox="0 0 180 180">
<g stroke-width="2.00" fill="none" stroke-linecap="butt">
<path stroke="#533d3e" vector-effect="non-scaling-stroke" d="
  M 104.03 34.09
  C 96.15 31.32 93.27 24.55 83.57 29.08
  Q 83.13 29.29 82.88 29.71
  Q 80.90 33.11 77.25 34.32
  C 75.26 34.98 74.03 33.18 72.71 32.55
  C 67.65 30.14 62.99 29.53 62.38 36.80
  C 61.31 49.37 74.13 42.72 74.66 50.59
  C 74.99 55.52 79.44 58.72 83.10 61.27
  Q 83.53 61.57 83.80 61.13
  C 87.14 55.75 92.82 55.32 96.15 60.95
  Q 96.43 61.42 96.81 61.02
  L 103.34 54.00
  Q 103.72 53.59 103.72 53.04
  C 103.74 50.67 103.70 45.94 106.70 45.43
  C 111.82 44.57 119.21 41.30 118.86 35.29
  C 118.56 29.96 112.23 28.82 108.22 30.87
  Q 107.80 31.09 107.56 31.51
  Q 106.65 33.13 105.01 34.02
  Q 104.53 34.27 104.03 34.09"
/>
<path stroke="#533d3e" vector-effect="non-scaling-stroke" d="
  M 76.49 129.77
  A 2.16 2.16 0.0 0 1 77.09 132.53
  C 74.77 136.83 70.68 132.77 69.05 130.37
  Q 68.76 129.95 68.26 130.02
  Q 62.17 130.91 56.57 128.52
  A 0.34 0.34 0.0 0 0 56.10 128.79
  L 54.92 138.82
  Q 54.83 139.52 54.18 139.77
  L 50.47 141.20
  Q 49.91 141.42 50.30 141.88
  L 50.94 142.61
  Q 51.23 142.95 51.24 143.40
  Q 51.27 145.91 49.52 147.66
  Q 48.78 148.40 49.82 148.31
  Q 52.79 148.07 54.76 149.98
  Q 55.16 150.37 55.13 150.92
  Q 54.80 157.75 56.34 164.40
  A 1.57 1.57 0.0 0 0 57.40 165.55
  Q 65.90 168.29 74.76 167.19
  Q 75.30 167.12 75.52 166.62
  C 77.27 162.58 76.87 157.52 76.62 153.23
  C 76.47 150.76 78.42 149.62 80.75 150.08
  Q 91.20 152.13 101.72 150.12
  C 108.77 148.77 104.27 161.75 107.89 165.60
  C 110.85 168.75 118.31 167.85 122.16 167.08
  C 124.20 166.67 126.09 165.36 128.32 164.98
  A 0.50 0.50 0.0 0 0 128.47 164.05
  Q 126.22 162.89 126.88 160.50
  Q 127.04 159.94 127.54 159.65
  L 129.34 158.63
  Q 130.42 158.01 129.20 157.76
  C 126.82 157.26 125.61 156.01 125.50 153.46
  Q 125.00 142.06 122.80 130.81
  Q 122.72 130.37 122.28 130.51
  L 115.22 132.71
  Q 114.74 132.86 114.61 133.34
  C 112.74 140.57 106.09 137.12 108.99 132.35
  Q 109.30 131.85 108.77 131.60
  L 106.13 130.39
  Q 105.49 130.10 105.18 130.73
  Q 103.53 134.12 100.56 132.27
  C 97.66 130.47 100.76 127.56 102.13 126.25
  Q 102.53 125.87 102.42 125.32
  L 101.85 122.45
  Q 101.72 121.79 101.10 122.06
  Q 97.74 123.54 96.70 119.95
  Q 96.51 119.30 96.90 118.74
  Q 98.34 116.62 101.05 116.41
  Q 101.60 116.37 101.71 115.83
  Q 102.95 109.75 107.56 106.08
  C 114.22 100.78 118.13 94.64 120.20 86.32
  Q 120.32 85.82 120.05 85.39
  Q 117.49 81.36 113.94 78.22
  C 108.07 73.02 106.80 68.49 105.38 60.94
  Q 105.24 60.22 104.76 60.77
  C 94.66 72.42 85.88 72.18 74.85 61.70
  A 0.52 0.52 0.0 0 0 73.99 61.92
  Q 70.37 73.67 61.58 82.26
  Q 61.27 82.56 61.26 82.99
  C 61.15 88.99 60.48 93.23 66.18 96.82
  C 70.24 99.38 76.39 103.97 78.31 109.45
  Q 78.50 109.97 79.05 109.99
  C 87.92 110.28 84.77 117.47 79.47 115.35
  Q 78.87 115.11 78.80 115.74
  L 78.46 118.70
  Q 78.39 119.29 78.92 119.57
  C 81.17 120.74 83.76 121.82 82.25 125.01
  A 2.21 2.21 0.0 0 1 79.15 125.99
  L 76.44 124.45
  Q 75.89 124.13 75.48 124.62
  L 73.64 126.81
  Q 73.22 127.31 73.74 127.70
  L 76.49 129.77"
/>
<path stroke="#533d3e" vector-effect="non-scaling-stroke" d="
  M 69.06 106.44
  C 62.13 100.76 55.46 97.64 55.48 87.87
  Q 55.49 87.32 55.06 87.65
  C 47.65 93.35 47.18 107.88 49.77 115.89
  C 51.17 120.24 55.36 121.66 59.87 123.53
  C 62.27 124.53 64.49 124.28 67.01 124.24
  Q 67.52 124.23 67.92 123.92
  C 73.83 119.39 75.30 111.55 69.06 106.44"
/>
<path stroke="#533d3e" vector-effect="non-scaling-stroke" d="
  M 110.89 110.35
  C 105.47 114.27 104.52 128.52 115.51 126.32
  C 133.39 122.74 128.85 104.88 124.45 92.94
  A 0.38 0.38 0.0 0 0 123.74 92.95
  Q 120.02 103.73 110.89 110.35"
/>
<path stroke="#533d3e" vector-effect="non-scaling-stroke" d="
  M 85.68 86.70
  C 87.91 86.25 90.32 86.42 91.91 84.49
  Q 92.25 84.08 92.25 83.54
  L 92.25 77.03
  A 2.27 2.26 6.4 0 0 90.48 74.82
  C 87.74 74.20 86.53 76.57 86.99 78.93
  A 2.07 2.05 -5.3 0 1 84.95 81.37
  Q 79.03 81.34 79.13 87.11
  Q 79.14 87.67 79.52 88.09
  C 82.03 90.87 79.46 91.85 78.82 94.03
  C 77.50 98.56 82.94 100.08 86.22 100.47
  Q 87.36 100.60 87.27 101.75
  Q 87.07 104.25 88.00 106.57
  A 2.16 2.16 0.0 0 0 90.98 107.69
  C 93.48 106.42 92.90 102.97 92.54 100.64
  C 91.95 96.85 90.03 95.26 86.05 95.08
  A 0.49 0.49 0.0 0 1 85.92 94.12
  C 89.52 93.02 88.79 89.09 85.59 87.89
  A 0.62 0.62 0.0 0 1 85.68 86.70"
/>
</g>
<g fill="#6e423f">
<path d="
  M 105.01 34.02
  Q 106.65 33.13 107.56 31.51
  Q 107.80 31.09 108.22 30.87
  C 112.23 28.82 118.56 29.96 118.86 35.29
  C 119.21 41.30 111.82 44.57 106.70 45.43
  C 103.70 45.94 103.74 50.67 103.72 53.04
  Q 103.72 53.59 103.34 54.00
  L 96.81 61.02
  Q 96.43 61.42 96.15 60.95
  C 92.82 55.32 87.14 55.75 83.80 61.13
  Q 83.53 61.57 83.10 61.27
  C 79.44 58.72 74.99 55.52 74.66 50.59
  C 74.13 42.72 61.31 49.37 62.38 36.80
  C 62.99 29.53 67.65 30.14 72.71 32.55
  C 74.03 33.18 75.26 34.98 77.25 34.32
  Q 80.90 33.11 82.88 29.71
  Q 83.13 29.29 83.57 29.08
  C 93.27 24.55 96.15 31.32 104.03 34.09
  Q 104.53 34.27 105.01 34.02
  Z"
/>
<path d="
  M 76.49 129.77
  L 73.74 127.70
  Q 73.22 127.31 73.64 126.81
  L 75.48 124.62
  Q 75.89 124.13 76.44 124.45
  L 79.15 125.99
  A 2.21 2.21 0.0 0 0 82.25 125.01
  C 83.76 121.82 81.17 120.74 78.92 119.57
  Q 78.39 119.29 78.46 118.70
  L 78.80 115.74
  Q 78.87 115.11 79.47 115.35
  C 84.77 117.47 87.92 110.28 79.05 109.99
  Q 78.50 109.97 78.31 109.45
  C 76.39 103.97 70.24 99.38 66.18 96.82
  C 60.48 93.23 61.15 88.99 61.26 82.99
  Q 61.27 82.56 61.58 82.26
  Q 70.37 73.67 73.99 61.92
  A 0.52 0.52 0.0 0 1 74.85 61.70
  C 85.88 72.18 94.66 72.42 104.76 60.77
  Q 105.24 60.22 105.38 60.94
  C 106.80 68.49 108.07 73.02 113.94 78.22
  Q 117.49 81.36 120.05 85.39
  Q 120.32 85.82 120.20 86.32
  C 118.13 94.64 114.22 100.78 107.56 106.08
  Q 102.95 109.75 101.71 115.83
  Q 101.60 116.37 101.05 116.41
  Q 98.34 116.62 96.90 118.74
  Q 96.51 119.30 96.70 119.95
  Q 97.74 123.54 101.10 122.06
  Q 101.72 121.79 101.85 122.45
  L 102.42 125.32
  Q 102.53 125.87 102.13 126.25
  C 100.76 127.56 97.66 130.47 100.56 132.27
  Q 103.53 134.12 105.18 130.73
  Q 105.49 130.10 106.13 130.39
  L 108.77 131.60
  Q 109.30 131.85 108.99 132.35
  C 106.09 137.12 112.74 140.57 114.61 133.34
  Q 114.74 132.86 115.22 132.71
  L 122.28 130.51
  Q 122.72 130.37 122.80 130.81
  Q 125.00 142.06 125.50 153.46
  C 125.61 156.01 126.82 157.26 129.20 157.76
  Q 130.42 158.01 129.34 158.63
  L 127.54 159.65
  Q 127.04 159.94 126.88 160.50
  Q 126.22 162.89 128.47 164.05
  A 0.50 0.50 0.0 0 1 128.32 164.98
  C 126.09 165.36 124.20 166.67 122.16 167.08
  C 118.31 167.85 110.85 168.75 107.89 165.60
  C 104.27 161.75 108.77 148.77 101.72 150.12
  Q 91.20 152.13 80.75 150.08
  C 78.42 149.62 76.47 150.76 76.62 153.23
  C 76.87 157.52 77.27 162.58 75.52 166.62
  Q 75.30 167.12 74.76 167.19
  Q 65.90 168.29 57.40 165.55
  A 1.57 1.57 0.0 0 1 56.34 164.40
  Q 54.80 157.75 55.13 150.92
  Q 55.16 150.37 54.76 149.98
  Q 52.79 148.07 49.82 148.31
  Q 48.78 148.40 49.52 147.66
  Q 51.27 145.91 51.24 143.40
  Q 51.23 142.95 50.94 142.61
  L 50.30 141.88
  Q 49.91 141.42 50.47 141.20
  L 54.18 139.77
  Q 54.83 139.52 54.92 138.82
  L 56.10 128.79
  A 0.34 0.34 0.0 0 1 56.57 128.52
  Q 62.17 130.91 68.26 130.02
  Q 68.76 129.95 69.05 130.37
  C 70.68 132.77 74.77 136.83 77.09 132.53
  A 2.16 2.16 0.0 0 0 76.49 129.77
  Z
  M 85.68 86.70
  C 87.91 86.25 90.32 86.42 91.91 84.49
  Q 92.25 84.08 92.25 83.54
  L 92.25 77.03
  A 2.27 2.26 6.4 0 0 90.48 74.82
  C 87.74 74.20 86.53 76.57 86.99 78.93
  A 2.07 2.05 -5.3 0 1 84.95 81.37
  Q 79.03 81.34 79.13 87.11
  Q 79.14 87.67 79.52 88.09
  C 82.03 90.87 79.46 91.85 78.82 94.03
  C 77.50 98.56 82.94 100.08 86.22 100.47
  Q 87.36 100.60 87.27 101.75
  Q 87.07 104.25 88.00 106.57
  A 2.16 2.16 0.0 0 0 90.98 107.69
  C 93.48 106.42 92.90 102.97 92.54 100.64
  C 91.95 96.85 90.03 95.26 86.05 95.08
  A 0.49 0.49 0.0 0 1 85.92 94.12
  C 89.52 93.02 88.79 89.09 85.59 87.89
  A 0.62 0.62 0.0 0 1 85.68 86.70
  Z"
/>
<path d="
  M 69.06 106.44
  C 75.30 111.55 73.83 119.39 67.92 123.92
  Q 67.52 124.23 67.01 124.24
  C 64.49 124.28 62.27 124.53 59.87 123.53
  C 55.36 121.66 51.17 120.24 49.77 115.89
  C 47.18 107.88 47.65 93.35 55.06 87.65
  Q 55.49 87.32 55.48 87.87
  C 55.46 97.64 62.13 100.76 69.06 106.44
  Z"
/>
<path d="
  M 115.51 126.32
  C 104.52 128.52 105.47 114.27 110.89 110.35
  Q 120.02 103.73 123.74 92.95
  A 0.38 0.38 0.0 0 1 124.45 92.94
  C 128.85 104.88 133.39 122.74 115.51 126.32
  Z"
/>
</g>
<g fill="#38383c">
<path d="
  M 77.39 27.92
  C 81.93 20.60 91.85 20.94 98.59 24.52
  Q 100.95 25.77 103.24 27.19
  Q 103.66 27.45 104.05 27.15
  Q 111.88 21.12 120.38 27.12
  C 126.37 31.34 125.59 39.88 121.03 44.51
  C 118.18 47.41 114.05 49.98 109.86 50.83
  A 0.76 0.75 -11.2 0 0 109.27 51.71
  C 110.96 60.43 111.50 67.31 118.00 73.99
  C 129.97 86.29 141.35 111.66 128.20 127.31
  Q 127.89 127.69 127.99 128.17
  Q 130.63 140.09 131.29 152.27
  Q 131.33 152.84 131.78 153.17
  C 134.74 155.33 137.79 156.90 134.90 160.97
  Q 134.25 161.90 134.77 163.49
  C 136.38 168.45 132.43 169.66 128.33 171.30
  C 120.25 174.53 102.74 176.30 100.79 163.73
  Q 100.41 161.26 100.44 156.91
  Q 100.45 156.29 99.83 156.36
  Q 91.40 157.27 82.97 156.37
  Q 82.36 156.31 82.41 156.92
  Q 83.07 164.96 80.34 170.08
  C 78.90 172.79 75.19 172.99 71.69 173.22
  C 64.92 173.65 51.51 172.73 50.25 163.78
  Q 49.56 158.93 49.20 154.06
  Q 49.16 153.51 48.63 153.39
  C 45.29 152.59 43.09 151.31 43.33 147.97
  C 43.42 146.76 44.41 145.56 44.76 144.21
  Q 44.89 143.69 44.50 143.34
  C 40.82 139.99 46.61 136.70 49.12 135.75
  Q 49.65 135.55 49.74 134.98
  L 51.04 126.31
  Q 51.12 125.81 50.69 125.55
  Q 46.87 123.23 45.79 120.71
  C 40.35 108.04 41.68 91.32 52.89 82.17
  Q 58.19 77.85 58.70 77.31
  C 64.62 70.97 69.94 61.30 69.40 52.30
  Q 69.37 51.75 68.85 51.58
  C 67.87 51.23 66.69 51.27 65.83 50.94
  C 56.48 47.38 54.61 37.34 59.59 29.35
  C 63.52 23.04 70.96 25.54 76.53 28.18
  Q 77.08 28.44 77.39 27.92
  Z
  M 104.03 34.09
  C 96.15 31.32 93.27 24.55 83.57 29.08
  Q 83.13 29.29 82.88 29.71
  Q 80.90 33.11 77.25 34.32
  C 75.26 34.98 74.03 33.18 72.71 32.55
  C 67.65 30.14 62.99 29.53 62.38 36.80
  C 61.31 49.37 74.13 42.72 74.66 50.59
  C 74.99 55.52 79.44 58.72 83.10 61.27
  Q 83.53 61.57 83.80 61.13
  C 87.14 55.75 92.82 55.32 96.15 60.95
  Q 96.43 61.42 96.81 61.02
  L 103.34 54.00
  Q 103.72 53.59 103.72 53.04
  C 103.74 50.67 103.70 45.94 106.70 45.43
  C 111.82 44.57 119.21 41.30 118.86 35.29
  C 118.56 29.96 112.23 28.82 108.22 30.87
  Q 107.80 31.09 107.56 31.51
  Q 106.65 33.13 105.01 34.02
  Q 104.53 34.27 104.03 34.09
  Z
  M 76.49 129.77
  A 2.16 2.16 0.0 0 1 77.09 132.53
  C 74.77 136.83 70.68 132.77 69.05 130.37
  Q 68.76 129.95 68.26 130.02
  Q 62.17 130.91 56.57 128.52
  A 0.34 0.34 0.0 0 0 56.10 128.79
  L 54.92 138.82
  Q 54.83 139.52 54.18 139.77
  L 50.47 141.20
  Q 49.91 141.42 50.30 141.88
  L 50.94 142.61
  Q 51.23 142.95 51.24 143.40
  Q 51.27 145.91 49.52 147.66
  Q 48.78 148.40 49.82 148.31
  Q 52.79 148.07 54.76 149.98
  Q 55.16 150.37 55.13 150.92
  Q 54.80 157.75 56.34 164.40
  A 1.57 1.57 0.0 0 0 57.40 165.55
  Q 65.90 168.29 74.76 167.19
  Q 75.30 167.12 75.52 166.62
  C 77.27 162.58 76.87 157.52 76.62 153.23
  C 76.47 150.76 78.42 149.62 80.75 150.08
  Q 91.20 152.13 101.72 150.12
  C 108.77 148.77 104.27 161.75 107.89 165.60
  C 110.85 168.75 118.31 167.85 122.16 167.08
  C 124.20 166.67 126.09 165.36 128.32 164.98
  A 0.50 0.50 0.0 0 0 128.47 164.05
  Q 126.22 162.89 126.88 160.50
  Q 127.04 159.94 127.54 159.65
  L 129.34 158.63
  Q 130.42 158.01 129.20 157.76
  C 126.82 157.26 125.61 156.01 125.50 153.46
  Q 125.00 142.06 122.80 130.81
  Q 122.72 130.37 122.28 130.51
  L 115.22 132.71
  Q 114.74 132.86 114.61 133.34
  C 112.74 140.57 106.09 137.12 108.99 132.35
  Q 109.30 131.85 108.77 131.60
  L 106.13 130.39
  Q 105.49 130.10 105.18 130.73
  Q 103.53 134.12 100.56 132.27
  C 97.66 130.47 100.76 127.56 102.13 126.25
  Q 102.53 125.87 102.42 125.32
  L 101.85 122.45
  Q 101.72 121.79 101.10 122.06
  Q 97.74 123.54 96.70 119.95
  Q 96.51 119.30 96.90 118.74
  Q 98.34 116.62 101.05 116.41
  Q 101.60 116.37 101.71 115.83
  Q 102.95 109.75 107.56 106.08
  C 114.22 100.78 118.13 94.64 120.20 86.32
  Q 120.32 85.82 120.05 85.39
  Q 117.49 81.36 113.94 78.22
  C 108.07 73.02 106.80 68.49 105.38 60.94
  Q 105.24 60.22 104.76 60.77
  C 94.66 72.42 85.88 72.18 74.85 61.70
  A 0.52 0.52 0.0 0 0 73.99 61.92
  Q 70.37 73.67 61.58 82.26
  Q 61.27 82.56 61.26 82.99
  C 61.15 88.99 60.48 93.23 66.18 96.82
  C 70.24 99.38 76.39 103.97 78.31 109.45
  Q 78.50 109.97 79.05 109.99
  C 87.92 110.28 84.77 117.47 79.47 115.35
  Q 78.87 115.11 78.80 115.74
  L 78.46 118.70
  Q 78.39 119.29 78.92 119.57
  C 81.17 120.74 83.76 121.82 82.25 125.01
  A 2.21 2.21 0.0 0 1 79.15 125.99
  L 76.44 124.45
  Q 75.89 124.13 75.48 124.62
  L 73.64 126.81
  Q 73.22 127.31 73.74 127.70
  L 76.49 129.77
  Z
  M 69.06 106.44
  C 62.13 100.76 55.46 97.64 55.48 87.87
  Q 55.49 87.32 55.06 87.65
  C 47.65 93.35 47.18 107.88 49.77 115.89
  C 51.17 120.24 55.36 121.66 59.87 123.53
  C 62.27 124.53 64.49 124.28 67.01 124.24
  Q 67.52 124.23 67.92 123.92
  C 73.83 119.39 75.30 111.55 69.06 106.44
  Z
  M 110.89 110.35
  C 105.47 114.27 104.52 128.52 115.51 126.32
  C 133.39 122.74 128.85 104.88 124.45 92.94
  A 0.38 0.38 0.0 0 0 123.74 92.95
  Q 120.02 103.73 110.89 110.35
  Z"
/>
<path d="
  M 85.68 86.70
  A 0.62 0.62 0.0 0 0 85.59 87.89
  C 88.79 89.09 89.52 93.02 85.92 94.12
  A 0.49 0.49 0.0 0 0 86.05 95.08
  C 90.03 95.26 91.95 96.85 92.54 100.64
  C 92.90 102.97 93.48 106.42 90.98 107.69
  A 2.16 2.16 0.0 0 1 88.00 106.57
  Q 87.07 104.25 87.27 101.75
  Q 87.36 100.60 86.22 100.47
  C 82.94 100.08 77.50 98.56 78.82 94.03
  C 79.46 91.85 82.03 90.87 79.52 88.09
  Q 79.14 87.67 79.13 87.11
  Q 79.03 81.34 84.95 81.37
  A 2.07 2.05 -5.3 0 0 86.99 78.93
  C 86.53 76.57 87.74 74.20 90.48 74.82
  A 2.27 2.26 6.4 0 1 92.25 77.03
  L 92.25 83.54
  Q 92.25 84.08 91.91 84.49
  C 90.32 86.42 87.91 86.25 85.68 86.70
  Z"
/>
</g>
</svg>
