<?xml version="1.0" encoding="UTF-8" standalone="no"?>
<!DOCTYPE svg PUBLIC "-//W3C//DTD SVG 1.1//EN" "http://www.w3.org/Graphics/SVG/1.1/DTD/svg11.dtd">
<svg xmlns="http://www.w3.org/2000/svg" version="1.1" viewBox="0 0 180 180">
<g stroke-width="2.00" fill="none" stroke-linecap="butt">
<path stroke="#533d3e" vector-effect="non-scaling-stroke" d="
  M 113.13 157.40
  Q 115.76 156.14 117.27 158.50
  Q 117.56 158.95 117.51 159.48
  Q 117.23 162.23 117.24 165.00
  C 117.26 169.71 123.65 169.51 124.22 166.25
  Q 124.69 163.49 123.74 158.73
  C 123.30 156.59 125.90 154.86 126.76 153.42
  C 133.93 141.49 129.80 126.87 119.90 117.83
  Q 114.49 112.89 111.31 111.72
  Q 94.08 105.39 75.99 107.99
  C 73.72 108.32 72.00 107.56 71.36 105.40
  A 1.01 1.01 0.0 0 0 69.53 105.15
  L 66.26 110.31
  Q 65.90 110.89 65.22 110.82
  C 60.31 110.30 60.76 107.69 58.37 104.61
  A 0.88 0.88 0.0 0 0 56.81 104.99
  L 54.35 118.50
  Q 54.29 118.83 54.09 119.09
  Q 46.31 128.99 46.99 141.71
  A 1.87 1.87 0.0 0 0 49.67 143.30
  Q 57.99 139.26 66.31 143.09
  Q 66.82 143.32 67.37 143.23
  C 71.85 142.50 74.49 139.13 76.95 135.63
  Q 77.21 135.25 77.67 135.17
  C 89.46 133.15 87.70 156.17 73.11 155.76
  Q 72.56 155.74 72.27 156.22
  L 69.36 160.96
  Q 69.09 161.41 69.59 161.55
  L 72.03 162.28
  Q 72.71 162.48 72.87 161.79
  L 73.50 159.22
  Q 73.62 158.74 74.00 158.43
  Q 76.28 156.62 78.26 158.90
  A 1.87 1.85 -59.1 0 1 78.66 160.53
  C 75.92 172.34 87.68 170.87 84.94 162.69
  C 83.58 158.64 90.22 155.98 90.80 163.00
  Q 90.86 163.73 91.59 163.69
  L 110.90 162.70
  Q 111.53 162.67 111.66 162.05
  L 112.42 158.30
  Q 112.55 157.67 113.13 157.40"
/>
<path stroke="#533d3e" vector-effect="non-scaling-stroke" d="
  M 43.08 125.51
  L 39.90 124.64
  Q 38.99 124.38 39.15 125.32
  Q 39.81 129.09 41.56 132.55
  A 0.50 0.50 0.0 0 0 42.50 132.29
  Q 42.31 129.39 43.63 126.75
  A 0.88 0.88 0.0 0 0 43.08 125.51"
/>
<path stroke="#98989a" vector-effect="non-scaling-stroke" d="
  M 43.01 149.68
  C 42.65 146.41 38.99 144.76 37.01 142.34
  Q 36.59 141.83 36.49 142.48
  C 35.87 146.54 38.31 150.32 42.51 150.24
  Q 43.06 150.23 43.01 149.68"
/>
<path stroke="#98989a" vector-effect="non-scaling-stroke" d="
  M 72.19 150.19
  Q 80.11 150.47 79.56 142.34
  A 0.23 0.23 0.0 0 0 79.15 142.22
  Q 76.20 145.91 71.75 147.85
  A 1.22 1.22 0.0 0 0 72.19 150.19"
/>
<path stroke="#927a6d" vector-effect="non-scaling-stroke" d="
  M 66.4694 153.5934
  A 8.46 6.43 0.7 0 0 58.0886 147.0605
  A 8.46 6.43 0.7 0 0 49.5506 153.3866
  A 8.46 6.43 0.7 0 0 57.9314 159.9195
  A 8.46 6.43 0.7 0 0 66.4694 153.5934"
/>
<path stroke="#533d3e" vector-effect="non-scaling-stroke" d="
  M 91.51 124.84
  Q 93.18 132.24 87.65 136.82
  A 2.22 2.21 -37.6 0 0 87.26 139.82
  C 88.45 141.47 89.99 141.75 91.70 140.51
  C 98.34 135.71 97.92 128.26 97.18 121.16
  A 1.99 1.98 -85.0 0 0 95.76 119.46
  C 87.73 117.14 79.98 121.66 75.86 128.40
  C 73.41 132.40 78.52 135.14 80.40 131.70
  Q 83.98 125.13 90.98 124.45
  Q 91.42 124.41 91.51 124.84"
/>
<path stroke="#927a6d" vector-effect="non-scaling-stroke" d="
  M 56.17 153.27
  A 2.51 2.51 0.0 0 0 53.66 150.76
  A 2.51 2.51 0.0 0 0 51.15 153.27
  A 2.51 2.51 0.0 0 0 53.66 155.78
  A 2.51 2.51 0.0 0 0 56.17 153.27"
/>
<path stroke="#927a6d" vector-effect="non-scaling-stroke" d="
  M 63.38 153.39
  A 2.38 2.38 0.0 0 0 61.00 151.01
  A 2.38 2.38 0.0 0 0 58.62 153.39
  A 2.38 2.38 0.0 0 0 61.00 155.77
  A 2.38 2.38 0.0 0 0 63.38 153.39"
/>
</g>
<g fill="#6e423f">
<path d="
  M 112.42 158.30
  L 111.66 162.05
  Q 111.53 162.67 110.90 162.70
  L 91.59 163.69
  Q 90.86 163.73 90.80 163.00
  C 90.22 155.98 83.58 158.64 84.94 162.69
  C 87.68 170.87 75.92 172.34 78.66 160.53
  A 1.87 1.85 -59.1 0 0 78.26 158.90
  Q 76.28 156.62 74.00 158.43
  Q 73.62 158.74 73.50 159.22
  L 72.87 161.79
  Q 72.71 162.48 72.03 162.28
  L 69.59 161.55
  Q 69.09 161.41 69.36 160.96
  L 72.27 156.22
  Q 72.56 155.74 73.11 155.76
  C 87.70 156.17 89.46 133.15 77.67 135.17
  Q 77.21 135.25 76.95 135.63
  C 74.49 139.13 71.85 142.50 67.37 143.23
  Q 66.82 143.32 66.31 143.09
  Q 57.99 139.26 49.67 143.30
  A 1.87 1.87 0.0 0 1 46.99 141.71
  Q 46.31 128.99 54.09 119.09
  Q 54.29 118.83 54.35 118.50
  L 56.81 104.99
  A 0.88 0.88 0.0 0 1 58.37 104.61
  C 60.76 107.69 60.31 110.30 65.22 110.82
  Q 65.90 110.89 66.26 110.31
  L 69.53 105.15
  A 1.01 1.01 0.0 0 1 71.36 105.40
  C 72.00 107.56 73.72 108.32 75.99 107.99
  Q 94.08 105.39 111.31 111.72
  Q 114.49 112.89 119.90 117.83
  C 129.80 126.87 133.93 141.49 126.76 153.42
  C 125.90 154.86 123.30 156.59 123.74 158.73
  Q 124.69 163.49 124.22 166.25
  C 123.65 169.51 117.26 169.71 117.24 165.00
  Q 117.23 162.23 117.51 159.48
  Q 117.56 158.95 117.27 158.50
  Q 115.76 156.14 113.13 157.40
  Q 112.55 157.67 112.42 158.30
  Z
  M 91.51 124.84
  Q 93.18 132.24 87.65 136.82
  A 2.22 2.21 -37.6 0 0 87.26 139.82
  C 88.45 141.47 89.99 141.75 91.70 140.51
  C 98.34 135.71 97.92 128.26 97.18 121.16
  A 1.99 1.98 -85.0 0 0 95.76 119.46
  C 87.73 117.14 79.98 121.66 75.86 128.40
  C 73.41 132.40 78.52 135.14 80.40 131.70
  Q 83.98 125.13 90.98 124.45
  Q 91.42 124.41 91.51 124.84
  Z"
/>
<path d="
  M 43.08 125.51
  A 0.88 0.88 0.0 0 1 43.63 126.75
  Q 42.31 129.39 42.50 132.29
  A 0.50 0.50 0.0 0 1 41.56 132.55
  Q 39.81 129.09 39.15 125.32
  Q 38.99 124.38 39.90 124.64
  L 43.08 125.51
  Z"
/>
</g>
<g fill="#38383c">
<path d="
  M 139.55 153.33
  A 0.41 0.40 47.8 0 0 140.23 153.37
  Q 144.04 148.20 149.19 145.89
  C 151.82 144.70 154.86 145.88 155.43 148.69
  C 156.34 153.16 151.28 160.12 146.83 160.98
  Q 146.33 161.07 145.86 160.88
  C 143.18 159.79 140.03 160.21 137.88 158.91
  Q 135.13 157.25 133.60 154.13
  A 0.32 0.32 0.0 0 0 133.03 154.12
  C 131.80 156.50 130.04 158.21 129.84 160.96
  C 129.65 163.61 130.14 166.62 129.22 168.92
  C 126.27 176.30 115.22 176.03 112.30 168.57
  Q 112.11 168.09 111.63 168.28
  Q 111.35 168.39 111.30 168.89
  Q 111.28 169.13 111.28 169.37
  C 111.37 174.91 98.55 175.00 98.17 169.88
  Q 98.13 169.25 97.49 169.25
  L 91.03 169.25
  Q 90.54 169.25 90.34 169.70
  C 87.86 175.37 79.74 176.29 75.58 172.07
  C 73.22 169.67 73.63 167.34 69.14 167.51
  Q 68.71 167.52 68.63 167.94
  C 67.03 175.52 53.91 174.26 54.95 165.67
  Q 55.02 165.08 54.44 164.98
  Q 46.73 163.57 44.23 156.14
  Q 44.04 155.56 43.43 155.64
  C 31.56 157.11 25.30 138.63 35.96 134.86
  Q 36.55 134.65 36.21 134.13
  C 31.07 126.28 32.71 114.07 45.63 120.58
  Q 46.09 120.82 46.35 120.36
  C 47.75 117.87 49.34 116.21 49.87 113.28
  C 50.82 108.03 51.49 102.49 55.74 98.56
  Q 56.19 98.14 56.81 98.17
  Q 61.54 98.39 63.22 103.03
  A 0.59 0.59 0.0 0 0 64.30 103.10
  C 67.18 97.51 71.12 96.46 75.34 101.68
  Q 75.66 102.08 76.17 102.02
  C 95.76 99.74 122.19 103.67 131.88 123.97
  Q 134.88 130.25 135.70 133.52
  C 136.73 137.61 135.38 143.59 137.10 148.20
  Q 138.13 150.97 139.55 153.33
  Z
  M 113.13 157.40
  Q 115.76 156.14 117.27 158.50
  Q 117.56 158.95 117.51 159.48
  Q 117.23 162.23 117.24 165.00
  C 117.26 169.71 123.65 169.51 124.22 166.25
  Q 124.69 163.49 123.74 158.73
  C 123.30 156.59 125.90 154.86 126.76 153.42
  C 133.93 141.49 129.80 126.87 119.90 117.83
  Q 114.49 112.89 111.31 111.72
  Q 94.08 105.39 75.99 107.99
  C 73.72 108.32 72.00 107.56 71.36 105.40
  A 1.01 1.01 0.0 0 0 69.53 105.15
  L 66.26 110.31
  Q 65.90 110.89 65.22 110.82
  C 60.31 110.30 60.76 107.69 58.37 104.61
  A 0.88 0.88 0.0 0 0 56.81 104.99
  L 54.35 118.50
  Q 54.29 118.83 54.09 119.09
  Q 46.31 128.99 46.99 141.71
  A 1.87 1.87 0.0 0 0 49.67 143.30
  Q 57.99 139.26 66.31 143.09
  Q 66.82 143.32 67.37 143.23
  C 71.85 142.50 74.49 139.13 76.95 135.63
  Q 77.21 135.25 77.67 135.17
  C 89.46 133.15 87.70 156.17 73.11 155.76
  Q 72.56 155.74 72.27 156.22
  L 69.36 160.96
  Q 69.09 161.41 69.59 161.55
  L 72.03 162.28
  Q 72.71 162.48 72.87 161.79
  L 73.50 159.22
  Q 73.62 158.74 74.00 158.43
  Q 76.28 156.62 78.26 158.90
  A 1.87 1.85 -59.1 0 1 78.66 160.53
  C 75.92 172.34 87.68 170.87 84.94 162.69
  C 83.58 158.64 90.22 155.98 90.80 163.00
  Q 90.86 163.73 91.59 163.69
  L 110.90 162.70
  Q 111.53 162.67 111.66 162.05
  L 112.42 158.30
  Q 112.55 157.67 113.13 157.40
  Z
  M 43.08 125.51
  L 39.90 124.64
  Q 38.99 124.38 39.15 125.32
  Q 39.81 129.09 41.56 132.55
  A 0.50 0.50 0.0 0 0 42.50 132.29
  Q 42.31 129.39 43.63 126.75
  A 0.88 0.88 0.0 0 0 43.08 125.51
  Z
  M 43.01 149.68
  C 42.65 146.41 38.99 144.76 37.01 142.34
  Q 36.59 141.83 36.49 142.48
  C 35.87 146.54 38.31 150.32 42.51 150.24
  Q 43.06 150.23 43.01 149.68
  Z
  M 72.19 150.19
  Q 80.11 150.47 79.56 142.34
  A 0.23 0.23 0.0 0 0 79.15 142.22
  Q 76.20 145.91 71.75 147.85
  A 1.22 1.22 0.0 0 0 72.19 150.19
  Z
  M 66.4694 153.5934
  A 8.46 6.43 0.7 0 0 58.0886 147.0605
  A 8.46 6.43 0.7 0 0 49.5506 153.3866
  A 8.46 6.43 0.7 0 0 57.9314 159.9195
  A 8.46 6.43 0.7 0 0 66.4694 153.5934
  Z"
/>
<path d="
  M 90.98 124.45
  Q 83.98 125.13 80.40 131.70
  C 78.52 135.14 73.41 132.40 75.86 128.40
  C 79.98 121.66 87.73 117.14 95.76 119.46
  A 1.99 1.98 -85.0 0 1 97.18 121.16
  C 97.92 128.26 98.34 135.71 91.70 140.51
  C 89.99 141.75 88.45 141.47 87.26 139.82
  A 2.22 2.21 -37.6 0 1 87.65 136.82
  Q 93.18 132.24 91.51 124.84
  Q 91.42 124.41 90.98 124.45
  Z"
/>
<circle cx="53.66" cy="153.27" r="2.51"/>
<circle cx="61.00" cy="153.39" r="2.38"/>
</g>
<path fill="#ebbc9e" d="
  M 66.4694 153.5934
  A 8.46 6.43 0.7 0 1 57.9314 159.9195
  A 8.46 6.43 0.7 0 1 49.5506 153.3866
  A 8.46 6.43 0.7 0 1 58.0886 147.0605
  A 8.46 6.43 0.7 0 1 66.4694 153.5934
  Z
  M 56.17 153.27
  A 2.51 2.51 0.0 0 0 53.66 150.76
  A 2.51 2.51 0.0 0 0 51.15 153.27
  A 2.51 2.51 0.0 0 0 53.66 155.78
  A 2.51 2.51 0.0 0 0 56.17 153.27
  Z
  M 63.38 153.39
  A 2.38 2.38 0.0 0 0 61.00 151.01
  A 2.38 2.38 0.0 0 0 58.62 153.39
  A 2.38 2.38 0.0 0 0 61.00 155.77
  A 2.38 2.38 0.0 0 0 63.38 153.39
  Z"
/>
<g fill="#f8f8f8">
<path d="
  M 37.01 142.34
  C 38.99 144.76 42.65 146.41 43.01 149.68
  Q 43.06 150.23 42.51 150.24
  C 38.31 150.32 35.87 146.54 36.49 142.48
  Q 36.59 141.83 37.01 142.34
  Z"
/>
<path d="
  M 72.19 150.19
  A 1.22 1.22 0.0 0 1 71.75 147.85
  Q 76.20 145.91 79.15 142.22
  A 0.23 0.23 0.0 0 1 79.56 142.34
  Q 80.11 150.47 72.19 150.19
  Z"
/>
</g>
</svg>
