<?xml version="1.0" encoding="UTF-8" standalone="no"?>
<!DOCTYPE svg PUBLIC "-//W3C//DTD SVG 1.1//EN" "http://www.w3.org/Graphics/SVG/1.1/DTD/svg11.dtd">
<svg xmlns="http://www.w3.org/2000/svg" version="1.1" viewBox="0 0 180 180">
<g stroke-width="2.00" fill="none" stroke-linecap="butt">
<path stroke="#98989a" vector-effect="non-scaling-stroke" d="
  M 46.64 106.63
  Q 47.83 107.97 49.28 106.92
  L 52.05 104.92
  Q 52.46 104.62 52.28 104.15
  L 47.00 90.19
  Q 46.77 89.59 46.63 90.22
  C 45.73 94.09 43.87 103.54 46.64 106.63"
/>
<path stroke="#98989a" vector-effect="non-scaling-stroke" d="
  M 83.13 103.38
  L 87.81 105.97
  Q 88.26 106.22 88.39 105.71
  Q 90.17 98.68 88.01 91.71
  Q 87.78 90.98 87.50 91.69
  L 82.99 102.98
  Q 82.88 103.24 83.13 103.38"
/>
<path stroke="#533d3e" vector-effect="non-scaling-stroke" d="
  M 126.56 159.06
  Q 132.67 152.79 133.25 144.93
  Q 134.15 132.77 132.29 120.82
  C 131.53 115.91 131.09 111.80 127.96 109.33
  C 120.39 103.33 104.72 103.99 95.21 103.88
  Q 94.65 103.88 94.49 104.42
  L 93.94 106.39
  Q 93.76 107.01 94.41 107.02
  C 99.78 107.09 106.32 109.34 107.68 115.10
  C 109.58 123.13 99.59 128.13 93.51 129.29
  C 89.87 130.00 88.02 124.53 92.26 123.56
  C 95.07 122.91 103.97 120.12 102.19 116.00
  C 100.32 111.70 92.50 112.43 89.06 113.98
  Q 88.60 114.19 88.16 113.94
  Q 85.84 112.66 84.23 110.51
  Q 83.87 110.03 83.31 109.79
  L 78.43 107.75
  Q 77.89 107.52 77.69 106.96
  L 77.06 105.17
  Q 76.92 104.78 76.51 104.80
  C 69.96 105.09 52.31 106.74 51.18 114.00
  C 49.58 124.33 49.35 140.51 54.56 150.95
  C 57.36 156.57 64.58 158.69 70.26 159.72
  Q 70.76 159.81 71.19 159.55
  L 72.59 158.71
  Q 73.04 158.45 73.55 158.56
  C 77.03 159.32 75.89 165.02 76.65 167.67
  Q 76.78 168.15 77.28 168.18
  L 82.80 168.42
  Q 83.27 168.44 83.36 167.98
  C 83.75 165.94 83.31 161.92 84.38 160.48
  C 85.59 158.84 88.12 159.01 88.93 161.11
  Q 89.13 161.61 89.67 161.62
  L 108.96 161.95
  Q 109.44 161.95 109.78 161.61
  Q 110.12 161.27 109.99 160.76
  Q 109.85 160.19 110.18 159.70
  Q 111.38 157.86 113.67 158.68
  A 2.47 2.47 0.0 0 1 115.28 161.39
  C 113.98 169.72 118.86 167.74 124.45 167.81
  A 1.02 1.01 -86.6 0 0 125.47 166.90
  C 125.65 165.12 125.49 160.17 126.56 159.06"
/>
<path stroke="#533d3e" vector-effect="non-scaling-stroke" d="
  M 38.01 115.21
  C 33.36 118.24 42.09 122.73 44.04 123.42
  Q 44.59 123.62 44.65 123.04
  L 45.62 113.98
  Q 45.65 113.62 45.29 113.57
  Q 41.30 113.07 38.01 115.21"
/>
<path stroke="#533d3e" vector-effect="non-scaling-stroke" d="
  M 82.72 125.27
  Q 82.20 124.81 81.51 124.77
  C 77.82 124.56 55.75 122.99 54.75 127.05
  C 52.25 137.24 53.30 155.19 68.78 154.32
  Q 71.84 154.14 74.45 152.50
  C 77.90 150.33 82.17 149.63 83.50 145.24
  C 84.38 142.32 86.20 128.40 82.72 125.27"
/>
<path stroke="#927a6d" vector-effect="non-scaling-stroke" d="
  M 77.73 130.29
  L 60.13 130.23
  Q 59.50 130.23 59.50 130.87
  L 59.50 137.24
  Q 59.50 137.73 59.99 137.70
  C 61.50 137.60 60.72 133.05 64.35 133.50
  C 69.67 134.15 65.50 140.42 67.14 141.52
  Q 67.54 141.80 67.83 141.40
  Q 68.98 139.76 68.77 138.74
  C 67.54 132.68 76.18 131.45 75.15 136.99
  Q 75.04 137.57 75.51 137.93
  Q 77.17 139.20 77.93 141.13
  Q 78.42 142.36 78.59 141.05
  Q 79.22 136.17 78.81 131.28
  A 1.08 1.08 0.0 0 0 77.73 130.29"
/>
<path stroke="#9c8c48" vector-effect="non-scaling-stroke" d="
  M 72.37 144.49
  C 69.53 148.76 64.45 147.00 62.16 143.47
  A 0.28 0.28 0.0 0 0 61.65 143.62
  C 61.51 151.25 73.16 150.04 72.95 144.66
  Q 72.92 143.67 72.37 144.49"
/>
</g>
<g fill="#6e423f">
<path d="
  M 126.56 159.06
  C 125.49 160.17 125.65 165.12 125.47 166.90
  A 1.02 1.01 -86.6 0 1 124.45 167.81
  C 118.86 167.74 113.98 169.72 115.28 161.39
  A 2.47 2.47 0.0 0 0 113.67 158.68
  Q 111.38 157.86 110.18 159.70
  Q 109.85 160.19 109.99 160.76
  Q 110.12 161.27 109.78 161.61
  Q 109.44 161.95 108.96 161.95
  L 89.67 161.62
  Q 89.13 161.61 88.93 161.11
  C 88.12 159.01 85.59 158.84 84.38 160.48
  C 83.31 161.92 83.75 165.94 83.36 167.98
  Q 83.27 168.44 82.80 168.42
  L 77.28 168.18
  Q 76.78 168.15 76.65 167.67
  C 75.89 165.02 77.03 159.32 73.55 158.56
  Q 73.04 158.45 72.59 158.71
  L 71.19 159.55
  Q 70.76 159.81 70.26 159.72
  C 64.58 158.69 57.36 156.57 54.56 150.95
  C 49.35 140.51 49.58 124.33 51.18 114.00
  C 52.31 106.74 69.96 105.09 76.51 104.80
  Q 76.92 104.78 77.06 105.17
  L 77.69 106.96
  Q 77.89 107.52 78.43 107.75
  L 83.31 109.79
  Q 83.87 110.03 84.23 110.51
  Q 85.84 112.66 88.16 113.94
  Q 88.60 114.19 89.06 113.98
  C 92.50 112.43 100.32 111.70 102.19 116.00
  C 103.97 120.12 95.07 122.91 92.26 123.56
  C 88.02 124.53 89.87 130.00 93.51 129.29
  C 99.59 128.13 109.58 123.13 107.68 115.10
  C 106.32 109.34 99.78 107.09 94.41 107.02
  Q 93.76 107.01 93.94 106.39
  L 94.49 104.42
  Q 94.65 103.88 95.21 103.88
  C 104.72 103.99 120.39 103.33 127.96 109.33
  C 131.09 111.80 131.53 115.91 132.29 120.82
  Q 134.15 132.77 133.25 144.93
  Q 132.67 152.79 126.56 159.06
  Z
  M 82.72 125.27
  Q 82.20 124.81 81.51 124.77
  C 77.82 124.56 55.75 122.99 54.75 127.05
  C 52.25 137.24 53.30 155.19 68.78 154.32
  Q 71.84 154.14 74.45 152.50
  C 77.90 150.33 82.17 149.63 83.50 145.24
  C 84.38 142.32 86.20 128.40 82.72 125.27
  Z"
/>
<path d="
  M 44.04 123.42
  C 42.09 122.73 33.36 118.24 38.01 115.21
  Q 41.30 113.07 45.29 113.57
  Q 45.65 113.62 45.62 113.98
  L 44.65 123.04
  Q 44.59 123.62 44.04 123.42
  Z"
/>
</g>
<g fill="#38383c">
<path d="
  M 57.52 101.85
  Q 67.65 98.98 78.25 98.92
  A 0.99 0.98 10.3 0 0 79.17 98.29
  C 80.50 94.76 83.78 83.59 86.84 82.13
  Q 87.27 81.93 87.73 82.02
  C 92.09 82.86 94.27 93.66 94.66 97.68
  Q 94.72 98.27 95.31 98.27
  C 110.13 98.16 135.45 97.12 137.59 116.06
  Q 138.12 120.72 138.26 121.42
  C 139.68 128.74 139.26 136.14 139.67 143.56
  C 140.01 149.91 145.27 146.89 146.86 143.49
  C 147.93 141.19 147.20 138.45 148.10 135.78
  C 149.07 132.91 151.92 130.61 154.24 128.57
  A 1.94 1.93 50.9 0 1 157.07 128.87
  C 159.87 132.65 156.70 141.87 152.84 144.32
  Q 152.41 144.59 152.23 145.07
  C 149.98 151.00 144.71 154.06 138.59 152.00
  Q 138.12 151.84 137.92 152.30
  Q 135.73 157.50 132.07 161.84
  Q 131.72 162.25 131.72 162.78
  C 131.67 167.03 130.88 173.40 125.25 173.48
  C 120.29 173.55 114.84 174.40 111.03 170.46
  Q 110.70 170.12 110.61 169.66
  Q 110.34 168.31 109.08 167.66
  Q 108.55 167.40 108.39 167.96
  C 107.99 169.34 107.96 171.08 107.09 172.12
  C 104.90 174.77 96.64 173.20 94.49 172.74
  Q 92.00 172.20 90.70 169.68
  Q 90.49 169.25 90.52 168.77
  Q 90.54 168.32 90.29 167.82
  Q 89.54 166.30 89.21 167.97
  Q 88.00 173.97 83.78 174.15
  C 78.00 174.40 70.35 174.01 71.14 166.49
  Q 71.20 165.87 70.59 165.79
  L 70.31 165.75
  Q 69.93 165.70 69.96 166.08
  C 70.38 172.40 64.91 172.01 60.63 171.13
  C 54.56 169.89 54.37 165.50 54.52 160.32
  Q 54.53 159.81 54.13 159.49
  C 46.58 153.44 44.33 139.33 44.86 130.28
  Q 44.90 129.72 44.38 129.51
  Q 43.29 129.08 41.71 128.56
  C 30.26 124.79 25.69 112.65 40.05 108.07
  Q 40.53 107.91 40.43 107.42
  C 39.37 102.12 39.55 83.95 45.64 81.43
  Q 46.08 81.25 46.55 81.36
  C 50.93 82.43 55.57 97.27 56.90 101.52
  Q 57.05 101.99 57.52 101.85
  Z
  M 46.64 106.63
  Q 47.83 107.97 49.28 106.92
  L 52.05 104.92
  Q 52.46 104.62 52.28 104.15
  L 47.00 90.19
  Q 46.77 89.59 46.63 90.22
  C 45.73 94.09 43.87 103.54 46.64 106.63
  Z
  M 83.13 103.38
  L 87.81 105.97
  Q 88.26 106.22 88.39 105.71
  Q 90.17 98.68 88.01 91.71
  Q 87.78 90.98 87.50 91.69
  L 82.99 102.98
  Q 82.88 103.24 83.13 103.38
  Z
  M 126.56 159.06
  Q 132.67 152.79 133.25 144.93
  Q 134.15 132.77 132.29 120.82
  C 131.53 115.91 131.09 111.80 127.96 109.33
  C 120.39 103.33 104.72 103.99 95.21 103.88
  Q 94.65 103.88 94.49 104.42
  L 93.94 106.39
  Q 93.76 107.01 94.41 107.02
  C 99.78 107.09 106.32 109.34 107.68 115.10
  C 109.58 123.13 99.59 128.13 93.51 129.29
  C 89.87 130.00 88.02 124.53 92.26 123.56
  C 95.07 122.91 103.97 120.12 102.19 116.00
  C 100.32 111.70 92.50 112.43 89.06 113.98
  Q 88.60 114.19 88.16 113.94
  Q 85.84 112.66 84.23 110.51
  Q 83.87 110.03 83.31 109.79
  L 78.43 107.75
  Q 77.89 107.52 77.69 106.96
  L 77.06 105.17
  Q 76.92 104.78 76.51 104.80
  C 69.96 105.09 52.31 106.74 51.18 114.00
  C 49.58 124.33 49.35 140.51 54.56 150.95
  C 57.36 156.57 64.58 158.69 70.26 159.72
  Q 70.76 159.81 71.19 159.55
  L 72.59 158.71
  Q 73.04 158.45 73.55 158.56
  C 77.03 159.32 75.89 165.02 76.65 167.67
  Q 76.78 168.15 77.28 168.18
  L 82.80 168.42
  Q 83.27 168.44 83.36 167.98
  C 83.75 165.94 83.31 161.92 84.38 160.48
  C 85.59 158.84 88.12 159.01 88.93 161.11
  Q 89.13 161.61 89.67 161.62
  L 108.96 161.95
  Q 109.44 161.95 109.78 161.61
  Q 110.12 161.27 109.99 160.76
  Q 109.85 160.19 110.18 159.70
  Q 111.38 157.86 113.67 158.68
  A 2.47 2.47 0.0 0 1 115.28 161.39
  C 113.98 169.72 118.86 167.74 124.45 167.81
  A 1.02 1.01 -86.6 0 0 125.47 166.90
  C 125.65 165.12 125.49 160.17 126.56 159.06
  Z
  M 38.01 115.21
  C 33.36 118.24 42.09 122.73 44.04 123.42
  Q 44.59 123.62 44.65 123.04
  L 45.62 113.98
  Q 45.65 113.62 45.29 113.57
  Q 41.30 113.07 38.01 115.21
  Z"
/>
<path d="
  M 82.72 125.27
  C 86.20 128.40 84.38 142.32 83.50 145.24
  C 82.17 149.63 77.90 150.33 74.45 152.50
  Q 71.84 154.14 68.78 154.32
  C 53.30 155.19 52.25 137.24 54.75 127.05
  C 55.75 122.99 77.82 124.56 81.51 124.77
  Q 82.20 124.81 82.72 125.27
  Z
  M 77.73 130.29
  L 60.13 130.23
  Q 59.50 130.23 59.50 130.87
  L 59.50 137.24
  Q 59.50 137.73 59.99 137.70
  C 61.50 137.60 60.72 133.05 64.35 133.50
  C 69.67 134.15 65.50 140.42 67.14 141.52
  Q 67.54 141.80 67.83 141.40
  Q 68.98 139.76 68.77 138.74
  C 67.54 132.68 76.18 131.45 75.15 136.99
  Q 75.04 137.57 75.51 137.93
  Q 77.17 139.20 77.93 141.13
  Q 78.42 142.36 78.59 141.05
  Q 79.22 136.17 78.81 131.28
  A 1.08 1.08 0.0 0 0 77.73 130.29
  Z
  M 72.37 144.49
  C 69.53 148.76 64.45 147.00 62.16 143.47
  A 0.28 0.28 0.0 0 0 61.65 143.62
  C 61.51 151.25 73.16 150.04 72.95 144.66
  Q 72.92 143.67 72.37 144.49
  Z"
/>
</g>
<g fill="#f8f8f8">
<path d="
  M 46.64 106.63
  C 43.87 103.54 45.73 94.09 46.63 90.22
  Q 46.77 89.59 47.00 90.19
  L 52.28 104.15
  Q 52.46 104.62 52.05 104.92
  L 49.28 106.92
  Q 47.83 107.97 46.64 106.63
  Z"
/>
<path d="
  M 83.13 103.38
  Q 82.88 103.24 82.99 102.98
  L 87.50 91.69
  Q 87.78 90.98 88.01 91.71
  Q 90.17 98.68 88.39 105.71
  Q 88.26 106.22 87.81 105.97
  L 83.13 103.38
  Z"
/>
</g>
<path fill="#ebbc9e" d="
  M 77.73 130.29
  A 1.08 1.08 0.0 0 1 78.81 131.28
  Q 79.22 136.17 78.59 141.05
  Q 78.42 142.36 77.93 141.13
  Q 77.17 139.20 75.51 137.93
  Q 75.04 137.57 75.15 136.99
  C 76.18 131.45 67.54 132.68 68.77 138.74
  Q 68.98 139.76 67.83 141.40
  Q 67.54 141.80 67.14 141.52
  C 65.50 140.42 69.67 134.15 64.35 133.50
  C 60.72 133.05 61.50 137.60 59.99 137.70
  Q 59.50 137.73 59.50 137.24
  L 59.50 130.87
  Q 59.50 130.23 60.13 130.23
  L 77.73 130.29
  Z"
/>
<path fill="#ffe054" d="
  M 62.16 143.47
  C 64.45 147.00 69.53 148.76 72.37 144.49
  Q 72.92 143.67 72.95 144.66
  C 73.16 150.04 61.51 151.25 61.65 143.62
  A 0.28 0.28 0.0 0 1 62.16 143.47
  Z"
/>
</svg>
