<?xml version="1.0" encoding="UTF-8" standalone="no"?>
<!DOCTYPE svg PUBLIC "-//W3C//DTD SVG 1.1//EN" "http://www.w3.org/Graphics/SVG/1.1/DTD/svg11.dtd">
<svg xmlns="http://www.w3.org/2000/svg" version="1.1" viewBox="0 0 180 180">
<g stroke-width="2.00" fill="none" stroke-linecap="butt">
<path stroke="#98989a" vector-effect="non-scaling-stroke" d="
  M 99.46 86.87
  C 95.73 86.49 93.71 88.95 91.16 84.52
  Q 89.83 82.20 88.63 79.75
  A 0.26 0.26 0.0 0 0 88.15 79.80
  C 86.11 86.90 85.73 93.53 88.14 100.76
  C 90.75 108.57 91.19 114.89 87.30 122.07
  C 80.89 133.90 76.04 151.62 77.65 164.38
  A 2.26 2.26 0.0 0 0 79.52 166.33
  L 86.73 167.50
  Q 87.26 167.59 87.38 167.06
  Q 88.08 163.94 88.25 160.75
  C 88.44 157.25 94.02 156.69 93.44 162.05
  Q 93.15 164.70 92.97 167.39
  Q 92.94 167.90 93.46 167.92
  L 103.74 168.27
  Q 104.21 168.29 104.19 167.82
  Q 104.08 164.28 103.91 160.74
  C 103.74 157.30 108.41 156.85 108.98 160.75
  Q 109.47 164.07 109.77 167.47
  Q 109.82 168.09 110.44 167.96
  L 115.50 166.88
  Q 116.00 166.77 116.12 166.28
  C 120.02 150.39 119.11 134.92 112.72 119.94
  C 109.52 112.42 107.86 105.19 109.63 96.99
  Q 111.28 89.34 110.67 80.76
  Q 110.51 78.59 109.26 80.37
  C 106.34 84.56 105.79 87.53 99.46 86.87"
/>
<path stroke="#98989a" vector-effect="non-scaling-stroke" d="
  M 71.40 162.25
  C 56.04 162.43 50.95 137.10 65.69 132.41
  Q 66.23 132.24 66.06 131.70
  Q 65.74 130.64 64.22 130.58
  C 56.75 130.32 53.66 138.10 53.74 144.36
  C 53.88 155.63 59.06 165.95 71.87 165.92
  Q 72.37 165.91 72.31 165.42
  L 72.00 162.77
  Q 71.94 162.24 71.40 162.25"
/>
</g>
<g fill="#f8f8f8">
<path d="
  M 99.46 86.87
  C 105.79 87.53 106.34 84.56 109.26 80.37
  Q 110.51 78.59 110.67 80.76
  Q 111.28 89.34 109.63 96.99
  C 107.86 105.19 109.52 112.42 112.72 119.94
  C 119.11 134.92 120.02 150.39 116.12 166.28
  Q 116.00 166.77 115.50 166.88
  L 110.44 167.96
  Q 109.82 168.09 109.77 167.47
  Q 109.47 164.07 108.98 160.75
  C 108.41 156.85 103.74 157.30 103.91 160.74
  Q 104.08 164.28 104.19 167.82
  Q 104.21 168.29 103.74 168.27
  L 93.46 167.92
  Q 92.94 167.90 92.97 167.39
  Q 93.15 164.70 93.44 162.05
  C 94.02 156.69 88.44 157.25 88.25 160.75
  Q 88.08 163.94 87.38 167.06
  Q 87.26 167.59 86.73 167.50
  L 79.52 166.33
  A 2.26 2.26 0.0 0 1 77.65 164.38
  C 76.04 151.62 80.89 133.90 87.30 122.07
  C 91.19 114.89 90.75 108.57 88.14 100.76
  C 85.73 93.53 86.11 86.90 88.15 79.80
  A 0.26 0.26 0.0 0 1 88.63 79.75
  Q 89.83 82.20 91.16 84.52
  C 93.71 88.95 95.73 86.49 99.46 86.87
  Z"
/>
<path d="
  M 65.69 132.41
  C 50.95 137.10 56.04 162.43 71.40 162.25
  Q 71.94 162.24 72.00 162.77
  L 72.31 165.42
  Q 72.37 165.91 71.87 165.92
  C 59.06 165.95 53.88 155.63 53.74 144.36
  C 53.66 138.10 56.75 130.32 64.22 130.58
  Q 65.74 130.64 66.06 131.70
  Q 66.23 132.24 65.69 132.41
  Z"
/>
</g>
<path fill="#38383c" d="
  M 72.07 155.85
  C 73.92 141.48 75.81 132.27 81.55 121.07
  Q 84.09 116.12 84.45 113.44
  C 85.30 107.12 82.31 103.42 81.39 97.96
  Q 79.06 84.18 85.49 72.56
  C 88.96 66.30 94.52 79.05 95.60 81.19
  Q 95.85 81.69 96.40 81.55
  Q 98.86 80.90 101.28 81.63
  Q 101.84 81.80 102.17 81.32
  C 104.02 78.57 110.02 65.25 114.07 74.32
  Q 117.96 83.06 116.23 91.76
  C 114.81 98.87 113.53 104.65 115.64 111.56
  C 117.32 117.03 120.33 122.40 121.58 127.40
  Q 126.85 148.43 121.19 169.79
  Q 120.89 170.91 119.82 171.34
  C 108.64 175.85 89.82 174.06 77.05 171.65
  Q 75.27 171.31 72.43 171.55
  C 44.34 173.91 39.82 125.23 63.50 124.81
  C 70.68 124.69 75.04 132.49 68.84 137.72
  Q 68.44 138.05 67.93 138.05
  Q 63.76 137.99 62.94 142.16
  Q 61.23 150.83 67.68 156.19
  Q 68.07 156.51 68.57 156.51
  L 71.36 156.48
  Q 71.99 156.48 72.07 155.85
  Z
  M 99.46 86.87
  C 95.73 86.49 93.71 88.95 91.16 84.52
  Q 89.83 82.20 88.63 79.75
  A 0.26 0.26 0.0 0 0 88.15 79.80
  C 86.11 86.90 85.73 93.53 88.14 100.76
  C 90.75 108.57 91.19 114.89 87.30 122.07
  C 80.89 133.90 76.04 151.62 77.65 164.38
  A 2.26 2.26 0.0 0 0 79.52 166.33
  L 86.73 167.50
  Q 87.26 167.59 87.38 167.06
  Q 88.08 163.94 88.25 160.75
  C 88.44 157.25 94.02 156.69 93.44 162.05
  Q 93.15 164.70 92.97 167.39
  Q 92.94 167.90 93.46 167.92
  L 103.74 168.27
  Q 104.21 168.29 104.19 167.82
  Q 104.08 164.28 103.91 160.74
  C 103.74 157.30 108.41 156.85 108.98 160.75
  Q 109.47 164.07 109.77 167.47
  Q 109.82 168.09 110.44 167.96
  L 115.50 166.88
  Q 116.00 166.77 116.12 166.28
  C 120.02 150.39 119.11 134.92 112.72 119.94
  C 109.52 112.42 107.86 105.19 109.63 96.99
  Q 111.28 89.34 110.67 80.76
  Q 110.51 78.59 109.26 80.37
  C 106.34 84.56 105.79 87.53 99.46 86.87
  Z
  M 71.40 162.25
  C 56.04 162.43 50.95 137.10 65.69 132.41
  Q 66.23 132.24 66.06 131.70
  Q 65.74 130.64 64.22 130.58
  C 56.75 130.32 53.66 138.10 53.74 144.36
  C 53.88 155.63 59.06 165.95 71.87 165.92
  Q 72.37 165.91 72.31 165.42
  L 72.00 162.77
  Q 71.94 162.24 71.40 162.25
  Z"
/>
</svg>
