<?xml version="1.0" encoding="UTF-8" standalone="no"?>
<!DOCTYPE svg PUBLIC "-//W3C//DTD SVG 1.1//EN" "http://www.w3.org/Graphics/SVG/1.1/DTD/svg11.dtd">
<svg xmlns="http://www.w3.org/2000/svg" version="1.1" viewBox="0 0 180 180">
<g stroke-width="2.00" fill="none" stroke-linecap="butt">
<path stroke="#9c4249" vector-effect="non-scaling-stroke" d="
  M 112.46 121.36
  C 111.12 119.02 108.75 119.07 106.28 118.85
  Q 105.78 118.80 105.39 118.49
  C 101.36 115.28 105.61 113.20 108.63 113.04
  Q 109.09 113.01 109.43 112.71
  C 112.89 109.59 110.14 104.99 105.98 105.19
  C 104.35 105.26 103.19 106.04 101.84 106.94
  Q 101.42 107.23 100.91 107.18
  C 93.20 106.54 103.81 96.77 95.51 95.03
  C 89.88 93.84 86.53 97.97 86.24 103.50
  Q 86.21 104.13 86.83 104.19
  C 99.54 105.47 101.61 120.09 102.48 130.05
  A 0.59 0.59 0.0 0 0 102.96 130.58
  C 108.15 131.54 115.93 127.42 112.46 121.36"
/>
<path stroke="#98989a" vector-effect="non-scaling-stroke" d="
  M 116.65 157.03
  Q 115.46 156.48 114.46 157.32
  C 111.93 159.44 107.28 159.63 108.20 154.97
  Q 108.30 154.46 108.71 154.13
  C 116.55 147.86 110.99 140.04 103.53 148.19
  C 99.12 153.01 97.38 148.40 97.28 144.30
  C 97.06 134.49 97.13 125.71 93.81 115.71
  Q 91.99 110.23 86.16 109.61
  C 68.14 107.67 60.99 123.57 61.75 138.70
  Q 62.30 149.55 62.68 160.46
  Q 62.92 167.31 69.87 168.86
  C 82.04 171.57 94.45 170.44 106.48 168.96
  C 109.39 168.60 114.77 165.87 116.44 163.57
  C 117.64 161.91 119.62 158.41 116.65 157.03"
/>
<path stroke="#98989a" vector-effect="non-scaling-stroke" d="
  M 89.05 132.43
  C 91.10 125.31 82.68 124.49 77.92 124.48
  C 57.86 124.47 72.23 143.80 79.11 143.01
  C 84.02 142.45 87.76 136.92 89.05 132.43"
/>
<path stroke="#9c8f4d" vector-effect="non-scaling-stroke" d="
  M 83.15 130.59
  L 73.81 129.87
  A 0.74 0.73 79.9 0 0 73.09 130.91
  Q 74.73 134.51 77.57 137.20
  Q 77.99 137.60 78.55 137.48
  C 81.20 136.90 82.77 133.58 83.63 131.36
  Q 83.91 130.65 83.15 130.59"
/>
</g>
<path fill="#f8f8f8" d="
  M 116.65 157.03
  C 119.62 158.41 117.64 161.91 116.44 163.57
  C 114.77 165.87 109.39 168.60 106.48 168.96
  C 94.45 170.44 82.04 171.57 69.87 168.86
  Q 62.92 167.31 62.68 160.46
  Q 62.30 149.55 61.75 138.70
  C 60.99 123.57 68.14 107.67 86.16 109.61
  Q 91.99 110.23 93.81 115.71
  C 97.13 125.71 97.06 134.49 97.28 144.30
  C 97.38 148.40 99.12 153.01 103.53 148.19
  C 110.99 140.04 116.55 147.86 108.71 154.13
  Q 108.30 154.46 108.20 154.97
  C 107.28 159.63 111.93 159.44 114.46 157.32
  Q 115.46 156.48 116.65 157.03
  Z
  M 89.05 132.43
  C 91.10 125.31 82.68 124.49 77.92 124.48
  C 57.86 124.47 72.23 143.80 79.11 143.01
  C 84.02 142.45 87.76 136.92 89.05 132.43
  Z"
/>
<g fill="#38383c">
<path d="
  M 105.00 99.69
  C 113.52 98.80 119.65 107.05 115.04 114.81
  Q 114.75 115.29 115.15 115.68
  C 121.90 122.25 118.66 131.88 111.00 135.29
  Q 107.86 136.68 103.31 136.46
  Q 102.75 136.43 102.75 136.99
  L 102.75 140.76
  A 0.52 0.52 0.0 0 0 103.59 141.17
  C 110.89 135.59 120.41 141.24 117.76 150.82
  Q 117.57 151.48 118.23 151.68
  L 119.62 152.08
  Q 120.06 152.21 120.42 152.50
  Q 124.40 155.75 123.91 160.35
  C 122.58 172.88 106.24 175.28 96.76 175.70
  C 85.25 176.21 60.27 179.23 57.35 163.04
  C 56.95 160.84 57.45 157.73 57.17 155.18
  C 55.04 135.49 54.25 107.60 80.18 103.69
  Q 80.70 103.61 80.75 103.08
  C 81.29 97.81 83.62 92.83 88.45 90.40
  C 95.05 87.07 104.44 90.57 104.43 99.19
  Q 104.43 99.75 105.00 99.69
  Z
  M 112.46 121.36
  C 111.12 119.02 108.75 119.07 106.28 118.85
  Q 105.78 118.80 105.39 118.49
  C 101.36 115.28 105.61 113.20 108.63 113.04
  Q 109.09 113.01 109.43 112.71
  C 112.89 109.59 110.14 104.99 105.98 105.19
  C 104.35 105.26 103.19 106.04 101.84 106.94
  Q 101.42 107.23 100.91 107.18
  C 93.20 106.54 103.81 96.77 95.51 95.03
  C 89.88 93.84 86.53 97.97 86.24 103.50
  Q 86.21 104.13 86.83 104.19
  C 99.54 105.47 101.61 120.09 102.48 130.05
  A 0.59 0.59 0.0 0 0 102.96 130.58
  C 108.15 131.54 115.93 127.42 112.46 121.36
  Z
  M 116.65 157.03
  Q 115.46 156.48 114.46 157.32
  C 111.93 159.44 107.28 159.63 108.20 154.97
  Q 108.30 154.46 108.71 154.13
  C 116.55 147.86 110.99 140.04 103.53 148.19
  C 99.12 153.01 97.38 148.40 97.28 144.30
  C 97.06 134.49 97.13 125.71 93.81 115.71
  Q 91.99 110.23 86.16 109.61
  C 68.14 107.67 60.99 123.57 61.75 138.70
  Q 62.30 149.55 62.68 160.46
  Q 62.92 167.31 69.87 168.86
  C 82.04 171.57 94.45 170.44 106.48 168.96
  C 109.39 168.60 114.77 165.87 116.44 163.57
  C 117.64 161.91 119.62 158.41 116.65 157.03
  Z"
/>
<path d="
  M 77.92 124.48
  C 82.68 124.49 91.10 125.31 89.05 132.43
  C 87.76 136.92 84.02 142.45 79.11 143.01
  C 72.23 143.80 57.86 124.47 77.92 124.48
  Z
  M 83.15 130.59
  L 73.81 129.87
  A 0.74 0.73 79.9 0 0 73.09 130.91
  Q 74.73 134.51 77.57 137.20
  Q 77.99 137.60 78.55 137.48
  C 81.20 136.90 82.77 133.58 83.63 131.36
  Q 83.91 130.65 83.15 130.59
  Z"
/>
</g>
<path fill="#ff4b55" d="
  M 112.46 121.36
  C 115.93 127.42 108.15 131.54 102.96 130.58
  A 0.59 0.59 0.0 0 1 102.48 130.05
  C 101.61 120.09 99.54 105.47 86.83 104.19
  Q 86.21 104.13 86.24 103.50
  C 86.53 97.97 89.88 93.84 95.51 95.03
  C 103.81 96.77 93.20 106.54 100.91 107.18
  Q 101.42 107.23 101.84 106.94
  C 103.19 106.04 104.35 105.26 105.98 105.19
  C 110.14 104.99 112.89 109.59 109.43 112.71
  Q 109.09 113.01 108.63 113.04
  C 105.61 113.20 101.36 115.28 105.39 118.49
  Q 105.78 118.80 106.28 118.85
  C 108.75 119.07 111.12 119.02 112.46 121.36
  Z"
/>
<path fill="#ffe65d" d="
  M 83.15 130.59
  Q 83.91 130.65 83.63 131.36
  C 82.77 133.58 81.20 136.90 78.55 137.48
  Q 77.99 137.60 77.57 137.20
  Q 74.73 134.51 73.09 130.91
  A 0.74 0.73 79.9 0 1 73.81 129.87
  L 83.15 130.59
  Z"
/>
</svg>
