<?xml version="1.0" encoding="UTF-8" standalone="no"?>
<!DOCTYPE svg PUBLIC "-//W3C//DTD SVG 1.1//EN" "http://www.w3.org/Graphics/SVG/1.1/DTD/svg11.dtd">
<svg xmlns="http://www.w3.org/2000/svg" version="1.1" viewBox="0 0 180 180">
<g stroke-width="2.00" fill="none" stroke-linecap="butt">
<path stroke="#98989a" vector-effect="non-scaling-stroke" d="
  M 85.26 159.85
  Q 87.86 158.79 88.92 161.17
  Q 89.15 161.66 89.69 161.67
  L 109.29 162.03
  Q 109.80 162.04 109.88 161.53
  C 110.25 159.15 111.95 157.45 114.33 159.28
  Q 114.68 159.55 114.77 159.98
  L 116.33 167.24
  Q 116.48 167.93 117.19 167.94
  L 123.97 168.03
  A 2.01 2.00 0.3 0 0 126.00 166.03
  L 126.00 159.97
  Q 126.00 159.49 126.36 159.16
  Q 131.75 154.35 133.30 147.34
  Q 133.43 146.78 132.86 146.88
  C 124.83 148.31 116.41 143.73 117.86 134.44
  C 118.78 128.59 124.83 124.93 130.18 122.42
  Q 130.70 122.18 131.56 122.26
  Q 132.09 122.31 132.13 121.78
  C 132.49 116.58 131.16 111.27 126.53 108.27
  Q 122.29 105.52 119.50 105.20
  Q 99.03 102.88 78.41 104.23
  A 1.04 1.04 0.0 0 0 77.45 105.09
  C 76.61 110.25 73.61 117.04 68.12 118.55
  C 61.48 120.39 57.02 116.55 54.05 110.92
  Q 53.81 110.48 53.38 110.72
  C 49.51 112.88 50.01 127.00 50.44 132.26
  Q 50.47 132.68 50.88 132.81
  L 53.57 133.68
  Q 54.10 133.86 54.12 133.30
  C 54.21 130.67 54.25 124.93 58.06 124.79
  Q 63.41 124.60 80.43 124.83
  Q 83.45 124.87 83.91 127.05
  C 84.92 131.91 85.57 145.21 80.45 149.18
  C 76.31 152.38 62.02 150.91 57.55 148.51
  Q 57.11 148.28 56.71 148.57
  L 54.62 150.06
  Q 54.22 150.35 54.38 150.81
  C 56.38 156.31 65.08 158.91 70.49 159.86
  Q 71.03 159.95 71.46 159.60
  Q 73.78 157.67 75.55 160.07
  Q 75.88 160.52 75.91 161.08
  L 76.19 167.45
  Q 76.22 168.16 76.93 168.21
  L 82.60 168.58
  Q 83.35 168.63 83.47 167.89
  L 84.64 160.63
  Q 84.73 160.07 85.26 159.85"
/>
<path stroke="#927a6d" vector-effect="non-scaling-stroke" d="
  M 77.67 130.31
  L 60.20 130.22
  Q 59.36 130.22 59.39 131.05
  L 59.79 142.75
  Q 59.81 143.30 60.26 143.61
  C 63.47 145.86 72.88 145.20 76.57 145.09
  Q 77.13 145.07 77.37 144.56
  C 79.11 140.94 79.26 135.36 78.79 131.31
  Q 78.67 130.32 77.67 130.31"
/>
<path stroke="#98989a" vector-effect="non-scaling-stroke" d="
  M 126.11 120.46
  C 133.86 113.34 116.10 102.15 112.34 108.58
  C 106.83 118.00 117.46 128.41 126.11 120.46"
/>
<path stroke="#98989a" vector-effect="non-scaling-stroke" d="
  M 104.81 110.69
  Q 96.66 104.67 87.21 109.02
  A 2.02 2.02 0.0 0 0 86.19 111.64
  Q 86.86 113.25 88.48 113.71
  Q 88.98 113.85 89.45 113.64
  C 93.09 112.04 103.24 111.51 102.38 118.21
  Q 102.31 118.75 101.90 119.10
  C 99.18 121.48 96.32 122.73 92.81 123.46
  C 87.85 124.51 89.84 130.61 95.21 128.64
  C 100.50 126.71 107.74 123.87 107.90 117.04
  Q 107.99 113.04 104.81 110.69"
/>
<path stroke="#98989a" vector-effect="non-scaling-stroke" d="
  M 92.1673 154.6720
  A 12.09 10.30 129.7 0 0 107.8148 151.9493
  A 12.09 10.30 129.7 0 0 107.6127 136.0680
  A 12.09 10.30 129.7 0 0 91.9652 138.7907
  A 12.09 10.30 129.7 0 0 92.1673 154.6720"
/>
<path stroke="#927a6d" vector-effect="non-scaling-stroke" d="
  M 63.7231 141.1686
  A 3.87 3.15 94.4 0 0 67.1607 137.5517
  A 3.87 3.15 94.4 0 0 64.3169 133.4514
  A 3.87 3.15 94.4 0 0 60.8793 137.0683
  A 3.87 3.15 94.4 0 0 63.7231 141.1686"
/>
<path stroke="#927a6d" vector-effect="non-scaling-stroke" d="
  M 70.3482 140.8572
  A 3.95 3.25 114.4 0 0 74.9397 138.6026
  A 3.95 3.25 114.4 0 0 73.6118 133.6628
  A 3.95 3.25 114.4 0 0 69.0203 135.9174
  A 3.95 3.25 114.4 0 0 70.3482 140.8572"
/>
</g>
<g fill="#38383c">
<path d="
  M 69.87 166.20
  C 70.15 172.52 64.90 172.01 60.64 171.14
  C 54.52 169.88 54.47 165.60 54.50 160.41
  Q 54.50 159.92 54.12 159.60
  C 46.53 153.31 44.40 139.22 44.78 130.18
  Q 44.81 129.64 44.29 129.49
  C 34.69 126.62 22.83 115.70 38.13 108.76
  C 41.26 107.34 44.48 107.73 47.92 107.75
  Q 48.43 107.76 48.81 107.43
  Q 56.11 101.21 65.25 100.02
  Q 89.18 96.91 114.24 98.91
  C 120.34 99.39 126.72 100.96 131.10 104.40
  C 137.74 109.61 137.32 115.87 138.55 123.28
  C 139.67 130.01 139.27 136.82 139.67 143.57
  C 140.04 149.91 145.27 146.90 146.85 143.49
  C 147.93 141.19 147.20 138.45 148.10 135.78
  C 149.07 132.91 151.92 130.61 154.24 128.57
  A 1.94 1.93 50.9 0 1 157.07 128.87
  C 159.86 132.62 156.71 141.84 152.88 144.29
  Q 152.46 144.57 152.27 145.04
  C 149.85 151.03 144.79 154.07 138.56 152.00
  Q 138.08 151.84 137.89 152.31
  Q 135.87 157.39 132.24 161.54
  Q 131.88 161.96 131.83 162.51
  C 131.50 166.72 131.21 172.73 126.18 173.20
  C 119.58 173.81 112.46 174.67 109.86 168.11
  A 0.81 0.81 0.0 0 0 108.31 168.23
  L 107.60 171.37
  Q 107.48 171.90 107.06 172.24
  C 104.08 174.65 97.42 173.33 94.76 172.77
  Q 90.85 171.95 90.27 167.82
  A 0.46 0.46 0.0 0 0 89.38 167.72
  L 87.46 172.72
  Q 87.25 173.27 86.69 173.43
  C 81.21 174.98 70.39 175.14 71.03 166.44
  Q 71.07 165.88 70.53 165.76
  Q 70.37 165.72 70.21 165.76
  Q 69.85 165.84 69.87 166.20
  Z
  M 85.26 159.85
  Q 87.86 158.79 88.92 161.17
  Q 89.15 161.66 89.69 161.67
  L 109.29 162.03
  Q 109.80 162.04 109.88 161.53
  C 110.25 159.15 111.95 157.45 114.33 159.28
  Q 114.68 159.55 114.77 159.98
  L 116.33 167.24
  Q 116.48 167.93 117.19 167.94
  L 123.97 168.03
  A 2.01 2.00 0.3 0 0 126.00 166.03
  L 126.00 159.97
  Q 126.00 159.49 126.36 159.16
  Q 131.75 154.35 133.30 147.34
  Q 133.43 146.78 132.86 146.88
  C 124.83 148.31 116.41 143.73 117.86 134.44
  C 118.78 128.59 124.83 124.93 130.18 122.42
  Q 130.70 122.18 131.56 122.26
  Q 132.09 122.31 132.13 121.78
  C 132.49 116.58 131.16 111.27 126.53 108.27
  Q 122.29 105.52 119.50 105.20
  Q 99.03 102.88 78.41 104.23
  A 1.04 1.04 0.0 0 0 77.45 105.09
  C 76.61 110.25 73.61 117.04 68.12 118.55
  C 61.48 120.39 57.02 116.55 54.05 110.92
  Q 53.81 110.48 53.38 110.72
  C 49.51 112.88 50.01 127.00 50.44 132.26
  Q 50.47 132.68 50.88 132.81
  L 53.57 133.68
  Q 54.10 133.86 54.12 133.30
  C 54.21 130.67 54.25 124.93 58.06 124.79
  Q 63.41 124.60 80.43 124.83
  Q 83.45 124.87 83.91 127.05
  C 84.92 131.91 85.57 145.21 80.45 149.18
  C 76.31 152.38 62.02 150.91 57.55 148.51
  Q 57.11 148.28 56.71 148.57
  L 54.62 150.06
  Q 54.22 150.35 54.38 150.81
  C 56.38 156.31 65.08 158.91 70.49 159.86
  Q 71.03 159.95 71.46 159.60
  Q 73.78 157.67 75.55 160.07
  Q 75.88 160.52 75.91 161.08
  L 76.19 167.45
  Q 76.22 168.16 76.93 168.21
  L 82.60 168.58
  Q 83.35 168.63 83.47 167.89
  L 84.64 160.63
  Q 84.73 160.07 85.26 159.85
  Z
  M 77.67 130.31
  L 60.20 130.22
  Q 59.36 130.22 59.39 131.05
  L 59.79 142.75
  Q 59.81 143.30 60.26 143.61
  C 63.47 145.86 72.88 145.20 76.57 145.09
  Q 77.13 145.07 77.37 144.56
  C 79.11 140.94 79.26 135.36 78.79 131.31
  Q 78.67 130.32 77.67 130.31
  Z"
/>
<path d="
  M 112.34 108.58
  C 116.10 102.15 133.86 113.34 126.11 120.46
  C 117.46 128.41 106.83 118.00 112.34 108.58
  Z"
/>
<path d="
  M 104.81 110.69
  Q 107.99 113.04 107.90 117.04
  C 107.74 123.87 100.50 126.71 95.21 128.64
  C 89.84 130.61 87.85 124.51 92.81 123.46
  C 96.32 122.73 99.18 121.48 101.90 119.10
  Q 102.31 118.75 102.38 118.21
  C 103.24 111.51 93.09 112.04 89.45 113.64
  Q 88.98 113.85 88.48 113.71
  Q 86.86 113.25 86.19 111.64
  A 2.02 2.02 0.0 0 1 87.21 109.02
  Q 96.66 104.67 104.81 110.69
  Z"
/>
<ellipse cx="0.00" cy="0.00" transform="translate(64.02,137.31) rotate(94.4)" rx="3.87" ry="3.15"/>
<ellipse cx="0.00" cy="0.00" transform="translate(71.98,137.26) rotate(114.4)" rx="3.95" ry="3.25"/>
<ellipse cx="0.00" cy="0.00" transform="translate(99.89,145.37) rotate(129.7)" rx="12.09" ry="10.30"/>
</g>
<path fill="#f8f8f8" d="
  M 84.64 160.63
  L 83.47 167.89
  Q 83.35 168.63 82.60 168.58
  L 76.93 168.21
  Q 76.22 168.16 76.19 167.45
  L 75.91 161.08
  Q 75.88 160.52 75.55 160.07
  Q 73.78 157.67 71.46 159.60
  Q 71.03 159.95 70.49 159.86
  C 65.08 158.91 56.38 156.31 54.38 150.81
  Q 54.22 150.35 54.62 150.06
  L 56.71 148.57
  Q 57.11 148.28 57.55 148.51
  C 62.02 150.91 76.31 152.38 80.45 149.18
  C 85.57 145.21 84.92 131.91 83.91 127.05
  Q 83.45 124.87 80.43 124.83
  Q 63.41 124.60 58.06 124.79
  C 54.25 124.93 54.21 130.67 54.12 133.30
  Q 54.10 133.86 53.57 133.68
  L 50.88 132.81
  Q 50.47 132.68 50.44 132.26
  C 50.01 127.00 49.51 112.88 53.38 110.72
  Q 53.81 110.48 54.05 110.92
  C 57.02 116.55 61.48 120.39 68.12 118.55
  C 73.61 117.04 76.61 110.25 77.45 105.09
  A 1.04 1.04 0.0 0 1 78.41 104.23
  Q 99.03 102.88 119.50 105.20
  Q 122.29 105.52 126.53 108.27
  C 131.16 111.27 132.49 116.58 132.13 121.78
  Q 132.09 122.31 131.56 122.26
  Q 130.70 122.18 130.18 122.42
  C 124.83 124.93 118.78 128.59 117.86 134.44
  C 116.41 143.73 124.83 148.31 132.86 146.88
  Q 133.43 146.78 133.30 147.34
  Q 131.75 154.35 126.36 159.16
  Q 126.00 159.49 126.00 159.97
  L 126.00 166.03
  A 2.01 2.00 0.3 0 1 123.97 168.03
  L 117.19 167.94
  Q 116.48 167.93 116.33 167.24
  L 114.77 159.98
  Q 114.68 159.55 114.33 159.28
  C 111.95 157.45 110.25 159.15 109.88 161.53
  Q 109.80 162.04 109.29 162.03
  L 89.69 161.67
  Q 89.15 161.66 88.92 161.17
  Q 87.86 158.79 85.26 159.85
  Q 84.73 160.07 84.64 160.63
  Z
  M 126.11 120.46
  C 133.86 113.34 116.10 102.15 112.34 108.58
  C 106.83 118.00 117.46 128.41 126.11 120.46
  Z
  M 104.81 110.69
  Q 96.66 104.67 87.21 109.02
  A 2.02 2.02 0.0 0 0 86.19 111.64
  Q 86.86 113.25 88.48 113.71
  Q 88.98 113.85 89.45 113.64
  C 93.09 112.04 103.24 111.51 102.38 118.21
  Q 102.31 118.75 101.90 119.10
  C 99.18 121.48 96.32 122.73 92.81 123.46
  C 87.85 124.51 89.84 130.61 95.21 128.64
  C 100.50 126.71 107.74 123.87 107.90 117.04
  Q 107.99 113.04 104.81 110.69
  Z
  M 92.1673 154.6720
  A 12.09 10.30 129.7 0 0 107.8148 151.9493
  A 12.09 10.30 129.7 0 0 107.6127 136.0680
  A 12.09 10.30 129.7 0 0 91.9652 138.7907
  A 12.09 10.30 129.7 0 0 92.1673 154.6720
  Z"
/>
<path fill="#ebbc9e" d="
  M 77.67 130.31
  Q 78.67 130.32 78.79 131.31
  C 79.26 135.36 79.11 140.94 77.37 144.56
  Q 77.13 145.07 76.57 145.09
  C 72.88 145.20 63.47 145.86 60.26 143.61
  Q 59.81 143.30 59.79 142.75
  L 59.39 131.05
  Q 59.36 130.22 60.20 130.22
  L 77.67 130.31
  Z
  M 63.7231 141.1686
  A 3.87 3.15 94.4 0 0 67.1607 137.5517
  A 3.87 3.15 94.4 0 0 64.3169 133.4514
  A 3.87 3.15 94.4 0 0 60.8793 137.0683
  A 3.87 3.15 94.4 0 0 63.7231 141.1686
  Z
  M 70.3482 140.8572
  A 3.95 3.25 114.4 0 0 74.9397 138.6026
  A 3.95 3.25 114.4 0 0 73.6118 133.6628
  A 3.95 3.25 114.4 0 0 69.0203 135.9174
  A 3.95 3.25 114.4 0 0 70.3482 140.8572
  Z"
/>
</svg>
