<?xml version="1.0" encoding="UTF-8" standalone="no"?>
<!DOCTYPE svg PUBLIC "-//W3C//DTD SVG 1.1//EN" "http://www.w3.org/Graphics/SVG/1.1/DTD/svg11.dtd">
<svg xmlns="http://www.w3.org/2000/svg" version="1.1" viewBox="0 0 180 180">
<g stroke-width="2.00" fill="none" stroke-linecap="butt">
<path stroke="#9c4249" vector-effect="non-scaling-stroke" d="
  M 30.55 120.94
  C 33.09 124.18 35.74 125.21 39.66 123.73
  Q 40.12 123.56 40.30 123.10
  C 43.83 114.23 36.47 103.49 33.72 94.92
  A 0.30 0.29 56.9 0 0 33.22 94.81
  C 26.47 102.49 23.94 112.52 30.55 120.94"
/>
<path stroke="#9c4249" vector-effect="non-scaling-stroke" d="
  M 144.94 123.81
  C 151.01 124.50 154.24 119.73 155.30 114.24
  Q 157.27 104.05 150.77 95.11
  Q 150.28 94.44 150.01 95.23
  C 148.05 100.96 144.28 107.28 143.17 112.42
  C 142.71 114.53 141.56 123.43 144.94 123.81"
/>
<path stroke="#9c4249" vector-effect="non-scaling-stroke" d="
  M 95.84 118.86
  Q 91.26 117.61 85.26 118.76
  C 82.59 119.27 81.30 116.80 81.19 114.38
  Q 80.89 107.65 80.95 100.30
  A 1.12 1.12 0.0 0 0 78.95 99.59
  C 75.00 104.51 78.91 118.68 74.91 121.21
  C 67.04 126.18 62.78 137.98 68.68 145.54
  C 75.87 154.74 93.81 155.56 104.29 152.91
  C 112.30 150.87 115.95 147.00 116.22 138.74
  Q 116.59 127.74 109.27 121.32
  C 103.00 115.83 108.27 105.60 104.80 98.56
  Q 104.53 98.02 104.04 98.38
  C 102.52 99.50 102.22 112.33 102.04 114.85
  C 101.76 118.76 99.62 119.90 95.84 118.86"
/>
<path stroke="#9c4249" vector-effect="non-scaling-stroke" d="
  M 126.60 107.48
  C 126.78 112.36 130.76 125.13 137.37 124.65
  Q 137.94 124.61 137.80 124.05
  Q 136.29 118.26 137.43 112.38
  Q 137.52 111.92 137.27 111.53
  L 129.57 99.50
  A 0.60 0.59 42.2 0 0 128.54 99.55
  Q 126.46 103.60 126.60 107.48"
/>
<path stroke="#9c4249" vector-effect="non-scaling-stroke" d="
  M 55.20 99.92
  L 46.44 111.10
  Q 46.14 111.49 46.27 111.96
  Q 47.90 117.74 46.24 123.50
  A 0.28 0.28 0.0 0 0 46.54 123.86
  C 57.55 122.86 60.78 108.17 55.89 99.96
  A 0.42 0.42 0.0 0 0 55.20 99.92"
/>
<path stroke="#9c4249" vector-effect="non-scaling-stroke" d="
  M 59.33 140.79
  C 51.24 141.36 45.17 138.82 43.25 130.31
  Q 43.11 129.68 42.47 129.73
  L 40.73 129.87
  Q 40.07 129.93 40.22 130.57
  Q 43.79 146.12 59.83 143.59
  A 1.40 1.39 -0.6 0 0 61.00 142.40
  C 61.16 141.20 60.48 140.71 59.33 140.79"
/>
<path stroke="#9c4249" vector-effect="non-scaling-stroke" d="
  M 122.27 141.80
  A 0.37 0.36 -80.1 0 0 121.90 142.07
  L 121.25 144.52
  A 0.74 0.74 0.0 0 0 121.92 145.45
  C 134.00 146.21 139.77 141.96 143.55 130.72
  Q 143.67 130.36 143.32 130.22
  Q 140.86 129.21 140.09 131.03
  Q 135.27 142.37 122.27 141.80"
/>
<path stroke="#9c4249" vector-effect="non-scaling-stroke" d="
  M 65.35 151.51
  C 63.08 153.30 61.73 158.59 62.05 161.18
  A 0.44 0.44 0.0 0 0 62.83 161.41
  C 64.14 159.83 70.03 152.44 66.22 151.34
  Q 65.74 151.21 65.35 151.51"
/>
<path stroke="#9c4249" vector-effect="non-scaling-stroke" d="
  M 119.74 162.23
  C 119.54 158.94 116.87 157.36 114.73 155.38
  Q 114.27 154.95 113.72 155.28
  L 112.71 155.87
  Q 112.10 156.24 112.48 156.84
  Q 114.82 160.48 118.26 163.03
  A 0.93 0.93 0.0 0 0 119.74 162.23"
/>
<path stroke="#9c4249" vector-effect="non-scaling-stroke" d="
  M 81.03 158.48
  Q 78.95 158.05 78.27 159.32
  C 77.62 160.53 74.84 165.72 78.20 165.47
  A 1.74 1.73 9.8 0 0 79.65 164.45
  L 81.71 159.80
  Q 82.19 158.72 81.03 158.48"
/>
<path stroke="#9c4249" vector-effect="non-scaling-stroke" d="
  M 100.47 159.56
  L 98.58 159.83
  Q 97.86 159.93 98.01 160.63
  Q 98.74 164.12 101.68 166.12
  A 0.94 0.94 0.0 0 0 103.10 165.04
  L 101.44 160.15
  Q 101.21 159.45 100.47 159.56"
/>
</g>
<path fill="#38383c" d="
  M 139.36 104.96
  A 0.22 0.21 -44.2 0 0 139.74 104.96
  Q 143.83 97.34 145.64 88.89
  Q 145.75 88.39 146.18 88.12
  Q 149.19 86.20 151.76 88.50
  Q 163.30 98.83 161.18 114.52
  Q 159.85 124.40 151.73 128.49
  Q 150.11 129.30 149.88 130.09
  C 145.27 145.45 135.45 154.25 118.67 150.43
  A 0.54 0.54 0.0 0 0 118.20 151.36
  C 122.16 154.84 125.78 157.05 125.18 163.08
  C 124.63 168.61 119.33 170.60 114.86 167.61
  Q 111.34 165.25 108.06 160.26
  Q 107.05 158.73 107.48 160.52
  C 107.90 162.27 108.62 163.74 108.43 165.47
  C 107.88 170.75 103.13 173.56 98.52 170.43
  Q 93.62 167.11 92.69 160.90
  Q 92.61 160.37 92.08 160.33
  L 88.20 160.03
  Q 87.72 160.00 87.54 160.45
  C 86.26 163.53 84.83 167.68 82.34 169.55
  C 79.42 171.74 74.23 171.67 72.07 168.43
  C 69.66 164.83 71.61 160.49 73.50 156.83
  Q 73.85 156.14 73.08 156.09
  C 71.65 156.01 68.41 167.99 61.63 167.25
  C 53.38 166.34 56.61 154.56 59.88 150.05
  Q 60.28 149.50 59.60 149.55
  Q 38.21 151.16 34.75 130.37
  Q 34.67 129.89 34.19 129.80
  Q 28.92 128.80 26.56 125.45
  Q 15.53 109.75 26.60 94.06
  Q 29.91 89.36 35.52 87.48
  C 37.86 86.69 40.61 87.54 39.97 90.77
  C 38.93 95.98 41.65 100.66 43.70 105.04
  A 0.37 0.36 51.0 0 0 44.32 105.11
  Q 47.99 100.35 51.47 95.65
  C 52.97 93.62 54.39 93.07 56.80 93.61
  Q 57.26 93.71 57.60 94.03
  C 66.28 102.20 65.16 113.64 58.83 122.90
  Q 55.31 128.05 49.19 129.10
  A 0.68 0.68 0.0 0 0 48.69 130.05
  Q 51.93 137.04 59.80 134.90
  Q 60.34 134.75 60.44 134.21
  Q 62.46 123.59 71.00 117.24
  Q 71.39 116.94 71.36 116.45
  C 70.91 109.85 71.00 97.98 76.63 94.10
  C 81.22 90.95 85.63 95.48 86.14 100.08
  Q 86.48 103.07 86.53 112.41
  Q 86.53 113.07 87.18 112.94
  Q 91.89 111.97 96.46 113.32
  A 0.42 0.41 -82.4 0 0 96.99 112.91
  C 96.90 108.51 96.49 95.04 101.40 92.91
  C 106.23 90.81 110.37 95.84 110.93 100.25
  Q 111.78 106.88 111.72 115.26
  C 111.71 116.70 113.36 117.23 114.08 117.93
  Q 121.24 124.87 121.88 134.38
  A 2.00 2.00 0.0 0 0 123.86 136.24
  Q 130.64 136.28 134.17 130.62
  Q 134.51 130.08 133.92 129.84
  C 121.26 124.84 117.49 104.72 125.22 94.45
  C 131.19 86.52 137.35 101.05 139.36 104.96
  Z
  M 30.55 120.94
  C 33.09 124.18 35.74 125.21 39.66 123.73
  Q 40.12 123.56 40.30 123.10
  C 43.83 114.23 36.47 103.49 33.72 94.92
  A 0.30 0.29 56.9 0 0 33.22 94.81
  C 26.47 102.49 23.94 112.52 30.55 120.94
  Z
  M 144.94 123.81
  C 151.01 124.50 154.24 119.73 155.30 114.24
  Q 157.27 104.05 150.77 95.11
  Q 150.28 94.44 150.01 95.23
  C 148.05 100.96 144.28 107.28 143.17 112.42
  C 142.71 114.53 141.56 123.43 144.94 123.81
  Z
  M 95.84 118.86
  Q 91.26 117.61 85.26 118.76
  C 82.59 119.27 81.30 116.80 81.19 114.38
  Q 80.89 107.65 80.95 100.30
  A 1.12 1.12 0.0 0 0 78.95 99.59
  C 75.00 104.51 78.91 118.68 74.91 121.21
  C 67.04 126.18 62.78 137.98 68.68 145.54
  C 75.87 154.74 93.81 155.56 104.29 152.91
  C 112.30 150.87 115.95 147.00 116.22 138.74
  Q 116.59 127.74 109.27 121.32
  C 103.00 115.83 108.27 105.60 104.80 98.56
  Q 104.53 98.02 104.04 98.38
  C 102.52 99.50 102.22 112.33 102.04 114.85
  C 101.76 118.76 99.62 119.90 95.84 118.86
  Z
  M 126.60 107.48
  C 126.78 112.36 130.76 125.13 137.37 124.65
  Q 137.94 124.61 137.80 124.05
  Q 136.29 118.26 137.43 112.38
  Q 137.52 111.92 137.27 111.53
  L 129.57 99.50
  A 0.60 0.59 42.2 0 0 128.54 99.55
  Q 126.46 103.60 126.60 107.48
  Z
  M 55.20 99.92
  L 46.44 111.10
  Q 46.14 111.49 46.27 111.96
  Q 47.90 117.74 46.24 123.50
  A 0.28 0.28 0.0 0 0 46.54 123.86
  C 57.55 122.86 60.78 108.17 55.89 99.96
  A 0.42 0.42 0.0 0 0 55.20 99.92
  Z
  M 59.33 140.79
  C 51.24 141.36 45.17 138.82 43.25 130.31
  Q 43.11 129.68 42.47 129.73
  L 40.73 129.87
  Q 40.07 129.93 40.22 130.57
  Q 43.79 146.12 59.83 143.59
  A 1.40 1.39 -0.6 0 0 61.00 142.40
  C 61.16 141.20 60.48 140.71 59.33 140.79
  Z
  M 122.27 141.80
  A 0.37 0.36 -80.1 0 0 121.90 142.07
  L 121.25 144.52
  A 0.74 0.74 0.0 0 0 121.92 145.45
  C 134.00 146.21 139.77 141.96 143.55 130.72
  Q 143.67 130.36 143.32 130.22
  Q 140.86 129.21 140.09 131.03
  Q 135.27 142.37 122.27 141.80
  Z
  M 65.35 151.51
  C 63.08 153.30 61.73 158.59 62.05 161.18
  A 0.44 0.44 0.0 0 0 62.83 161.41
  C 64.14 159.83 70.03 152.44 66.22 151.34
  Q 65.74 151.21 65.35 151.51
  Z
  M 119.74 162.23
  C 119.54 158.94 116.87 157.36 114.73 155.38
  Q 114.27 154.95 113.72 155.28
  L 112.71 155.87
  Q 112.10 156.24 112.48 156.84
  Q 114.82 160.48 118.26 163.03
  A 0.93 0.93 0.0 0 0 119.74 162.23
  Z
  M 81.03 158.48
  Q 78.95 158.05 78.27 159.32
  C 77.62 160.53 74.84 165.72 78.20 165.47
  A 1.74 1.73 9.8 0 0 79.65 164.45
  L 81.71 159.80
  Q 82.19 158.72 81.03 158.48
  Z
  M 100.47 159.56
  L 98.58 159.83
  Q 97.86 159.93 98.01 160.63
  Q 98.74 164.12 101.68 166.12
  A 0.94 0.94 0.0 0 0 103.10 165.04
  L 101.44 160.15
  Q 101.21 159.45 100.47 159.56
  Z"
/>
<g fill="#ff4c55">
<path d="
  M 30.55 120.94
  C 23.94 112.52 26.47 102.49 33.22 94.81
  A 0.30 0.29 56.9 0 1 33.72 94.92
  C 36.47 103.49 43.83 114.23 40.30 123.10
  Q 40.12 123.56 39.66 123.73
  C 35.74 125.21 33.09 124.18 30.55 120.94
  Z"
/>
<path d="
  M 144.94 123.81
  C 141.56 123.43 142.71 114.53 143.17 112.42
  C 144.28 107.28 148.05 100.96 150.01 95.23
  Q 150.28 94.44 150.77 95.11
  Q 157.27 104.05 155.30 114.24
  C 154.24 119.73 151.01 124.50 144.94 123.81
  Z"
/>
<path d="
  M 95.84 118.86
  C 99.62 119.90 101.76 118.76 102.04 114.85
  C 102.22 112.33 102.52 99.50 104.04 98.38
  Q 104.53 98.02 104.80 98.56
  C 108.27 105.60 103.00 115.83 109.27 121.32
  Q 116.59 127.74 116.22 138.74
  C 115.95 147.00 112.30 150.87 104.29 152.91
  C 93.81 155.56 75.87 154.74 68.68 145.54
  C 62.78 137.98 67.04 126.18 74.91 121.21
  C 78.91 118.68 75.00 104.51 78.95 99.59
  A 1.12 1.12 0.0 0 1 80.95 100.30
  Q 80.89 107.65 81.19 114.38
  C 81.30 116.80 82.59 119.27 85.26 118.76
  Q 91.26 117.61 95.84 118.86
  Z"
/>
<path d="
  M 137.37 124.65
  C 130.76 125.13 126.78 112.36 126.60 107.48
  Q 126.46 103.60 128.54 99.55
  A 0.60 0.59 42.2 0 1 129.57 99.50
  L 137.27 111.53
  Q 137.52 111.92 137.43 112.38
  Q 136.29 118.26 137.80 124.05
  Q 137.94 124.61 137.37 124.65
  Z"
/>
<path d="
  M 46.44 111.10
  L 55.20 99.92
  A 0.42 0.42 0.0 0 1 55.89 99.96
  C 60.78 108.17 57.55 122.86 46.54 123.86
  A 0.28 0.28 0.0 0 1 46.24 123.50
  Q 47.90 117.74 46.27 111.96
  Q 46.14 111.49 46.44 111.10
  Z"
/>
<path d="
  M 43.25 130.31
  C 45.17 138.82 51.24 141.36 59.33 140.79
  C 60.48 140.71 61.16 141.20 61.00 142.40
  A 1.40 1.39 -0.6 0 1 59.83 143.59
  Q 43.79 146.12 40.22 130.57
  Q 40.07 129.93 40.73 129.87
  L 42.47 129.73
  Q 43.11 129.68 43.25 130.31
  Z"
/>
<path d="
  M 122.27 141.80
  Q 135.27 142.37 140.09 131.03
  Q 140.86 129.21 143.32 130.22
  Q 143.67 130.36 143.55 130.72
  C 139.77 141.96 134.00 146.21 121.92 145.45
  A 0.74 0.74 0.0 0 1 121.25 144.52
  L 121.90 142.07
  A 0.37 0.36 -80.1 0 1 122.27 141.80
  Z"
/>
<path d="
  M 66.22 151.34
  C 70.03 152.44 64.14 159.83 62.83 161.41
  A 0.44 0.44 0.0 0 1 62.05 161.18
  C 61.73 158.59 63.08 153.30 65.35 151.51
  Q 65.74 151.21 66.22 151.34
  Z"
/>
<path d="
  M 114.73 155.38
  C 116.87 157.36 119.54 158.94 119.74 162.23
  A 0.93 0.93 0.0 0 1 118.26 163.03
  Q 114.82 160.48 112.48 156.84
  Q 112.10 156.24 112.71 155.87
  L 113.72 155.28
  Q 114.27 154.95 114.73 155.38
  Z"
/>
<path d="
  M 81.03 158.48
  Q 82.19 158.72 81.71 159.80
  L 79.65 164.45
  A 1.74 1.73 9.8 0 1 78.20 165.47
  C 74.84 165.72 77.62 160.53 78.27 159.32
  Q 78.95 158.05 81.03 158.48
  Z"
/>
<path d="
  M 101.44 160.15
  L 103.10 165.04
  A 0.94 0.94 0.0 0 1 101.68 166.12
  Q 98.74 164.12 98.01 160.63
  Q 97.86 159.93 98.58 159.83
  L 100.47 159.56
  Q 101.21 159.45 101.44 160.15
  Z"
/>
</g>
</svg>
