<?xml version="1.0" encoding="UTF-8" standalone="no"?>
<!DOCTYPE svg PUBLIC "-//W3C//DTD SVG 1.1//EN" "http://www.w3.org/Graphics/SVG/1.1/DTD/svg11.dtd">
<svg xmlns="http://www.w3.org/2000/svg" version="1.1" viewBox="0 0 180 180">
<g stroke-width="2.00" fill="none" stroke-linecap="butt">
<path stroke="#82883e" vector-effect="non-scaling-stroke" d="
  M 70.94 131.19
  C 64.29 134.92 59.01 126.90 64.40 122.63
  Q 74.45 114.69 79.48 104.74
  C 83.59 96.59 89.85 87.34 92.01 78.55
  A 1.41 1.41 0.0 0 0 90.32 76.85
  C 83.95 78.36 79.21 81.90 73.75 85.07
  Q 73.31 85.32 73.41 85.82
  C 74.23 89.95 75.36 101.29 69.14 101.59
  C 65.16 101.78 60.42 97.57 57.85 94.68
  Q 57.52 94.30 57.06 94.49
  Q 51.44 96.76 45.69 98.68
  C 36.86 101.64 36.98 110.11 36.56 117.57
  C 35.84 130.15 29.89 153.23 49.37 156.04
  Q 50.00 156.14 50.00 155.50
  L 50.00 150.93
  A 2.45 2.45 0.0 0 1 51.84 148.56
  C 54.67 147.84 55.43 150.23 55.42 152.62
  Q 55.40 157.15 57.45 161.11
  C 58.66 163.45 58.65 165.27 57.23 167.30
  Q 56.90 167.79 57.43 168.02
  C 60.53 169.40 65.11 169.05 68.51 169.25
  A 0.55 0.54 -16.0 0 0 68.99 168.39
  L 66.58 165.04
  Q 66.25 164.58 66.45 164.06
  Q 68.21 159.49 67.38 154.70
  C 67.00 152.47 68.84 150.33 71.10 151.36
  C 73.32 152.36 73.32 155.33 73.25 157.84
  Q 73.24 158.44 73.83 158.37
  C 84.55 157.13 94.91 151.57 105.57 151.19
  Q 106.10 151.17 106.22 150.66
  C 106.88 147.79 109.38 145.58 111.66 148.87
  Q 111.92 149.26 111.89 149.72
  Q 111.59 155.16 112.65 160.54
  Q 112.74 160.98 112.42 161.31
  L 110.02 163.73
  Q 109.13 164.63 110.40 164.58
  L 119.51 164.22
  Q 120.16 164.20 120.03 163.55
  C 119.13 159.27 121.47 154.88 120.97 150.17
  A 2.38 2.38 0.0 0 1 122.73 147.61
  C 126.93 146.49 127.24 150.87 126.97 153.62
  Q 126.92 154.13 127.34 154.44
  C 129.77 156.22 131.55 158.74 133.76 160.18
  Q 141.12 164.97 149.03 161.20
  C 153.88 158.89 154.60 152.02 153.81 147.34
  A 0.76 0.76 0.0 0 0 152.84 146.74
  C 148.25 148.14 142.72 147.80 144.85 141.17
  Q 145.69 138.55 144.96 135.74
  A 0.99 0.98 82.8 0 0 144.01 135.00
  L 136.69 134.99
  A 2.43 2.42 79.1 0 1 134.44 133.46
  L 132.63 128.87
  Q 132.41 128.30 131.80 128.27
  Q 127.58 128.08 123.61 129.48
  C 120.45 130.60 119.06 126.92 117.62 124.90
  A 1.89 1.87 -28.8 0 0 115.38 124.26
  C 111.67 125.77 107.93 128.92 103.72 126.62
  Q 103.29 126.38 103.09 125.93
  C 99.27 116.98 89.36 134.56 83.62 126.49
  Q 83.32 126.07 82.83 125.94
  C 79.74 125.12 73.73 129.62 70.94 131.19"
/>
<path stroke="#98989a" vector-effect="non-scaling-stroke" d="
  M 62.86 91.97
  L 67.26 95.49
  A 0.61 0.61 0.0 0 0 68.25 95.01
  L 68.25 88.76
  Q 68.25 88.29 67.79 88.42
  Q 65.00 89.22 62.83 91.21
  Q 62.40 91.60 62.86 91.97"
/>
<path stroke="#485642" vector-effect="non-scaling-stroke" d="
  M 128.02 122.49
  C 130.88 122.50 133.47 121.87 135.76 124.16
  Q 136.12 124.52 136.54 124.24
  L 141.85 120.63
  Q 142.22 120.38 142.03 119.97
  C 139.60 114.74 136.41 113.72 138.72 107.30
  Q 138.97 106.61 138.27 106.85
  C 132.00 108.99 129.08 116.04 127.61 121.97
  Q 127.48 122.49 128.02 122.49"
/>
<path stroke="#485642" vector-effect="non-scaling-stroke" d="
  M 35.06 165.61
  C 33.87 162.24 34.60 160.15 36.54 157.17
  Q 36.83 156.72 36.45 156.34
  Q 33.10 153.01 31.44 148.59
  A 0.35 0.35 0.0 0 0 30.81 148.54
  Q 27.27 154.46 27.53 161.44
  Q 27.55 162.00 27.18 162.43
  L 25.08 164.88
  A 0.74 0.73 -63.3 0 0 25.47 166.07
  Q 30.06 167.14 34.72 166.22
  Q 35.24 166.12 35.06 165.61"
/>
<path stroke="#485642" vector-effect="non-scaling-stroke" d="
  M 96.20 163.08
  L 95.36 159.80
  Q 95.19 159.16 94.55 159.33
  C 91.46 160.17 85.11 161.33 85.26 163.65
  Q 85.31 164.35 86.00 164.32
  L 95.55 163.95
  A 0.70 0.69 -8.7 0 0 96.20 163.08"
/>
</g>
<path fill="#ccd73f" d="
  M 64.40 122.63
  C 59.01 126.90 64.29 134.92 70.94 131.19
  C 73.73 129.62 79.74 125.12 82.83 125.94
  Q 83.32 126.07 83.62 126.49
  C 89.36 134.56 99.27 116.98 103.09 125.93
  Q 103.29 126.38 103.72 126.62
  C 107.93 128.92 111.67 125.77 115.38 124.26
  A 1.89 1.87 -28.8 0 1 117.62 124.90
  C 119.06 126.92 120.45 130.60 123.61 129.48
  Q 127.58 128.08 131.80 128.27
  Q 132.41 128.30 132.63 128.87
  L 134.44 133.46
  A 2.43 2.42 79.1 0 0 136.69 134.99
  L 144.01 135.00
  A 0.99 0.98 82.8 0 1 144.96 135.74
  Q 145.69 138.55 144.85 141.17
  C 142.72 147.80 148.25 148.14 152.84 146.74
  A 0.76 0.76 0.0 0 1 153.81 147.34
  C 154.60 152.02 153.88 158.89 149.03 161.20
  Q 141.12 164.97 133.76 160.18
  C 131.55 158.74 129.77 156.22 127.34 154.44
  Q 126.92 154.13 126.97 153.62
  C 127.24 150.87 126.93 146.49 122.73 147.61
  A 2.38 2.38 0.0 0 0 120.97 150.17
  C 121.47 154.88 119.13 159.27 120.03 163.55
  Q 120.16 164.20 119.51 164.22
  L 110.40 164.58
  Q 109.13 164.63 110.02 163.73
  L 112.42 161.31
  Q 112.74 160.98 112.65 160.54
  Q 111.59 155.16 111.89 149.72
  Q 111.92 149.26 111.66 148.87
  C 109.38 145.58 106.88 147.79 106.22 150.66
  Q 106.10 151.17 105.57 151.19
  C 94.91 151.57 84.55 157.13 73.83 158.37
  Q 73.24 158.44 73.25 157.84
  C 73.32 155.33 73.32 152.36 71.10 151.36
  C 68.84 150.33 67.00 152.47 67.38 154.70
  Q 68.21 159.49 66.45 164.06
  Q 66.25 164.58 66.58 165.04
  L 68.99 168.39
  A 0.55 0.54 -16.0 0 1 68.51 169.25
  C 65.11 169.05 60.53 169.40 57.43 168.02
  Q 56.90 167.79 57.23 167.30
  C 58.65 165.27 58.66 163.45 57.45 161.11
  Q 55.40 157.15 55.42 152.62
  C 55.43 150.23 54.67 147.84 51.84 148.56
  A 2.45 2.45 0.0 0 0 50.00 150.93
  L 50.00 155.50
  Q 50.00 156.14 49.37 156.04
  C 29.89 153.23 35.84 130.15 36.56 117.57
  C 36.98 110.11 36.86 101.64 45.69 98.68
  Q 51.44 96.76 57.06 94.49
  Q 57.52 94.30 57.85 94.68
  C 60.42 97.57 65.16 101.78 69.14 101.59
  C 75.36 101.29 74.23 89.95 73.41 85.82
  Q 73.31 85.32 73.75 85.07
  C 79.21 81.90 83.95 78.36 90.32 76.85
  A 1.41 1.41 0.0 0 1 92.01 78.55
  C 89.85 87.34 83.59 96.59 79.48 104.74
  Q 74.45 114.69 64.40 122.63
  Z"
/>
<path fill="#38383c" d="
  M 151.38 141.48
  C 156.85 139.99 159.53 143.06 160.06 148.21
  C 161.38 161.02 152.65 169.81 139.77 168.53
  C 135.20 168.08 131.00 165.37 126.91 163.00
  Q 126.26 162.62 126.19 163.37
  Q 125.71 168.16 122.36 169.35
  C 117.14 171.19 94.83 171.80 106.68 158.85
  A 1.00 1.00 0.0 0 0 105.89 157.18
  L 101.08 157.45
  Q 100.53 157.48 100.75 157.99
  C 102.96 163.08 102.69 169.18 95.73 169.64
  C 90.85 169.96 79.13 172.50 79.46 163.92
  Q 79.48 163.43 78.99 163.49
  L 73.89 164.15
  A 0.45 0.45 0.0 0 0 73.57 164.83
  C 77.06 170.54 74.04 174.73 67.93 174.99
  C 62.46 175.22 46.33 174.55 52.45 164.06
  A 0.95 0.94 21.8 0 0 51.85 162.67
  L 42.22 160.34
  Q 41.73 160.22 41.32 160.50
  C 38.14 162.65 45.69 169.72 36.73 171.84
  Q 30.03 173.42 23.73 171.44
  C 18.27 169.72 17.51 164.36 21.38 160.34
  Q 21.73 159.98 21.75 159.48
  C 21.95 153.89 23.94 145.99 29.05 143.05
  Q 29.48 142.80 29.44 142.30
  C 28.77 133.63 30.33 125.70 30.91 117.13
  Q 31.19 113.00 31.95 107.44
  C 33.85 93.52 45.87 93.86 55.59 88.53
  Q 68.68 81.35 81.65 73.96
  C 92.30 67.90 102.07 73.43 95.70 85.94
  C 88.54 99.98 83.19 113.80 73.00 122.86
  Q 72.57 123.24 73.13 123.36
  Q 73.53 123.44 73.88 123.14
  Q 80.90 117.18 88.17 122.51
  Q 88.58 122.81 89.01 122.53
  C 95.31 118.49 100.93 114.46 107.28 121.41
  Q 107.66 121.81 108.13 121.53
  C 112.81 118.76 117.17 116.64 121.63 121.02
  Q 122.09 121.48 122.23 120.85
  C 124.66 109.77 131.09 100.37 143.51 100.47
  Q 144.01 100.47 144.37 100.81
  C 148.17 104.25 143.47 107.65 143.58 111.78
  Q 143.59 112.31 143.92 112.71
  Q 147.13 116.67 148.20 119.58
  C 149.55 123.29 142.35 127.18 139.93 129.01
  A 0.24 0.24 0.0 0 0 140.11 129.44
  C 149.10 128.26 151.28 133.13 150.82 141.03
  Q 150.78 141.65 151.38 141.48
  Z
  M 70.94 131.19
  C 64.29 134.92 59.01 126.90 64.40 122.63
  Q 74.45 114.69 79.48 104.74
  C 83.59 96.59 89.85 87.34 92.01 78.55
  A 1.41 1.41 0.0 0 0 90.32 76.85
  C 83.95 78.36 79.21 81.90 73.75 85.07
  Q 73.31 85.32 73.41 85.82
  C 74.23 89.95 75.36 101.29 69.14 101.59
  C 65.16 101.78 60.42 97.57 57.85 94.68
  Q 57.52 94.30 57.06 94.49
  Q 51.44 96.76 45.69 98.68
  C 36.86 101.64 36.98 110.11 36.56 117.57
  C 35.84 130.15 29.89 153.23 49.37 156.04
  Q 50.00 156.14 50.00 155.50
  L 50.00 150.93
  A 2.45 2.45 0.0 0 1 51.84 148.56
  C 54.67 147.84 55.43 150.23 55.42 152.62
  Q 55.40 157.15 57.45 161.11
  C 58.66 163.45 58.65 165.27 57.23 167.30
  Q 56.90 167.79 57.43 168.02
  C 60.53 169.40 65.11 169.05 68.51 169.25
  A 0.55 0.54 -16.0 0 0 68.99 168.39
  L 66.58 165.04
  Q 66.25 164.58 66.45 164.06
  Q 68.21 159.49 67.38 154.70
  C 67.00 152.47 68.84 150.33 71.10 151.36
  C 73.32 152.36 73.32 155.33 73.25 157.84
  Q 73.24 158.44 73.83 158.37
  C 84.55 157.13 94.91 151.57 105.57 151.19
  Q 106.10 151.17 106.22 150.66
  C 106.88 147.79 109.38 145.58 111.66 148.87
  Q 111.92 149.26 111.89 149.72
  Q 111.59 155.16 112.65 160.54
  Q 112.74 160.98 112.42 161.31
  L 110.02 163.73
  Q 109.13 164.63 110.40 164.58
  L 119.51 164.22
  Q 120.16 164.20 120.03 163.55
  C 119.13 159.27 121.47 154.88 120.97 150.17
  A 2.38 2.38 0.0 0 1 122.73 147.61
  C 126.93 146.49 127.24 150.87 126.97 153.62
  Q 126.92 154.13 127.34 154.44
  C 129.77 156.22 131.55 158.74 133.76 160.18
  Q 141.12 164.97 149.03 161.20
  C 153.88 158.89 154.60 152.02 153.81 147.34
  A 0.76 0.76 0.0 0 0 152.84 146.74
  C 148.25 148.14 142.72 147.80 144.85 141.17
  Q 145.69 138.55 144.96 135.74
  A 0.99 0.98 82.8 0 0 144.01 135.00
  L 136.69 134.99
  A 2.43 2.42 79.1 0 1 134.44 133.46
  L 132.63 128.87
  Q 132.41 128.30 131.80 128.27
  Q 127.58 128.08 123.61 129.48
  C 120.45 130.60 119.06 126.92 117.62 124.90
  A 1.89 1.87 -28.8 0 0 115.38 124.26
  C 111.67 125.77 107.93 128.92 103.72 126.62
  Q 103.29 126.38 103.09 125.93
  C 99.27 116.98 89.36 134.56 83.62 126.49
  Q 83.32 126.07 82.83 125.94
  C 79.74 125.12 73.73 129.62 70.94 131.19
  Z
  M 62.86 91.97
  L 67.26 95.49
  A 0.61 0.61 0.0 0 0 68.25 95.01
  L 68.25 88.76
  Q 68.25 88.29 67.79 88.42
  Q 65.00 89.22 62.83 91.21
  Q 62.40 91.60 62.86 91.97
  Z
  M 128.02 122.49
  C 130.88 122.50 133.47 121.87 135.76 124.16
  Q 136.12 124.52 136.54 124.24
  L 141.85 120.63
  Q 142.22 120.38 142.03 119.97
  C 139.60 114.74 136.41 113.72 138.72 107.30
  Q 138.97 106.61 138.27 106.85
  C 132.00 108.99 129.08 116.04 127.61 121.97
  Q 127.48 122.49 128.02 122.49
  Z
  M 35.06 165.61
  C 33.87 162.24 34.60 160.15 36.54 157.17
  Q 36.83 156.72 36.45 156.34
  Q 33.10 153.01 31.44 148.59
  A 0.35 0.35 0.0 0 0 30.81 148.54
  Q 27.27 154.46 27.53 161.44
  Q 27.55 162.00 27.18 162.43
  L 25.08 164.88
  A 0.74 0.73 -63.3 0 0 25.47 166.07
  Q 30.06 167.14 34.72 166.22
  Q 35.24 166.12 35.06 165.61
  Z
  M 96.20 163.08
  L 95.36 159.80
  Q 95.19 159.16 94.55 159.33
  C 91.46 160.17 85.11 161.33 85.26 163.65
  Q 85.31 164.35 86.00 164.32
  L 95.55 163.95
  A 0.70 0.69 -8.7 0 0 96.20 163.08
  Z"
/>
<g fill="#587347">
<path d="
  M 135.76 124.16
  C 133.47 121.87 130.88 122.50 128.02 122.49
  Q 127.48 122.49 127.61 121.97
  C 129.08 116.04 132.00 108.99 138.27 106.85
  Q 138.97 106.61 138.72 107.30
  C 136.41 113.72 139.60 114.74 142.03 119.97
  Q 142.22 120.38 141.85 120.63
  L 136.54 124.24
  Q 136.12 124.52 135.76 124.16
  Z"
/>
<path d="
  M 36.54 157.17
  C 34.60 160.15 33.87 162.24 35.06 165.61
  Q 35.24 166.12 34.72 166.22
  Q 30.06 167.14 25.47 166.07
  A 0.74 0.73 -63.3 0 1 25.08 164.88
  L 27.18 162.43
  Q 27.55 162.00 27.53 161.44
  Q 27.27 154.46 30.81 148.54
  A 0.35 0.35 0.0 0 1 31.44 148.59
  Q 33.10 153.01 36.45 156.34
  Q 36.83 156.72 36.54 157.17
  Z"
/>
<path d="
  M 96.20 163.08
  A 0.70 0.69 -8.7 0 1 95.55 163.95
  L 86.00 164.32
  Q 85.31 164.35 85.26 163.65
  C 85.11 161.33 91.46 160.17 94.55 159.33
  Q 95.19 159.16 95.36 159.80
  L 96.20 163.08
  Z"
/>
</g>
<path fill="#f8f8f8" d="
  M 62.83 91.21
  Q 65.00 89.22 67.79 88.42
  Q 68.25 88.29 68.25 88.76
  L 68.25 95.01
  A 0.61 0.61 0.0 0 1 67.26 95.49
  L 62.86 91.97
  Q 62.40 91.60 62.83 91.21
  Z"
/>
</svg>
