<?xml version="1.0" encoding="UTF-8" standalone="no"?>
<!DOCTYPE svg PUBLIC "-//W3C//DTD SVG 1.1//EN" "http://www.w3.org/Graphics/SVG/1.1/DTD/svg11.dtd">
<svg xmlns="http://www.w3.org/2000/svg" version="1.1" viewBox="0 0 180 180">
<path fill="#38383c" d="
  M 96.11 168.49
  C 94.27 168.88 92.79 171.21 91.10 172.11
  Q 90.65 172.35 90.16 172.22
  C 86.86 171.38 81.59 168.78 78.47 168.95
  Q 77.97 168.97 77.57 169.29
  C 75.44 170.98 71.75 174.51 69.25 171.35
  A 2.19 2.18 -38.4 0 1 69.61 168.27
  C 73.48 165.24 75.92 162.56 81.32 163.62
  Q 81.72 163.70 82.02 163.43
  L 89.42 156.83
  A 0.39 0.39 0.0 0 0 89.29 156.17
  Q 73.62 150.55 61.32 139.56
  C 53.01 132.13 47.18 119.30 56.71 109.97
  Q 57.09 109.60 56.94 109.09
  C 56.14 106.51 54.69 105.52 51.91 105.47
  C 49.22 105.43 30.90 106.40 36.55 99.05
  Q 42.19 91.72 51.54 90.74
  Q 52.03 90.69 52.44 90.40
  C 65.01 81.43 79.83 80.28 84.79 98.28
  Q 86.73 105.32 93.75 107.76
  C 101.48 110.44 106.05 112.55 112.17 118.35
  Q 121.47 127.18 132.24 134.16
  C 136.03 136.62 138.81 139.15 136.19 143.59
  Q 135.93 144.04 135.46 144.27
  L 134.33 144.82
  Q 133.63 145.17 134.31 145.57
  Q 142.04 150.04 149.66 154.60
  C 151.89 155.94 155.81 158.65 154.03 161.68
  C 152.13 164.90 145.34 168.96 141.97 170.51
  C 135.51 173.46 116.90 162.06 110.79 158.84
  A 1.06 1.05 -87.7 0 0 109.33 160.19
  Q 110.81 163.62 107.57 165.18
  Q 106.65 165.62 107.64 165.88
  L 109.61 166.40
  Q 110.14 166.54 110.44 167.00
  Q 112.03 169.46 109.64 171.30
  Q 109.30 171.56 108.88 171.56
  Q 102.66 171.48 97.13 168.63
  Q 96.65 168.38 96.11 168.49
  Z
  M 101.95 158.96
  C 99.46 158.21 97.25 157.70 94.97 159.42
  Q 91.43 162.08 88.16 165.10
  Q 87.77 165.46 88.08 165.89
  C 88.68 166.76 90.69 165.57 91.28 165.02
  Q 93.53 162.97 96.73 162.84
  Q 97.30 162.82 97.81 163.10
  Q 100.32 164.52 102.70 162.47
  A 2.05 2.05 0.0 0 0 101.95 158.96
  Z"
/>
</svg>
