<?xml version="1.0" encoding="UTF-8" standalone="no"?>
<!DOCTYPE svg PUBLIC "-//W3C//DTD SVG 1.1//EN" "http://www.w3.org/Graphics/SVG/1.1/DTD/svg11.dtd">
<svg xmlns="http://www.w3.org/2000/svg" version="1.1" viewBox="0 0 180 180">
<g stroke-width="2.00" fill="none" stroke-linecap="butt">
<path stroke="#533d3e" vector-effect="non-scaling-stroke" d="
  M 78.44 124.43
  L 73.01 124.13
  A 0.71 0.71 0.0 0 0 72.27 124.95
  Q 73.57 132.65 70.83 139.42
  C 67.35 148.00 64.09 156.67 64.86 165.41
  Q 64.92 166.07 65.58 166.08
  L 75.35 166.31
  A 1.26 1.24 -3.5 0 0 76.62 164.89
  C 76.32 162.82 75.89 158.36 77.96 157.04
  C 83.10 153.76 82.37 163.81 82.09 165.70
  Q 82.00 166.25 82.56 166.25
  L 84.92 166.25
  Q 85.52 166.25 85.44 165.65
  Q 84.95 161.82 85.78 158.09
  A 2.04 2.03 -83.8 0 1 87.77 156.48
  Q 89.46 156.47 90.33 157.72
  Q 90.65 158.19 90.67 158.77
  L 90.90 165.42
  Q 90.92 166.08 91.56 166.23
  Q 95.78 167.26 100.07 166.33
  A 1.44 1.44 0.0 0 0 101.20 164.78
  Q 100.89 161.72 100.59 158.73
  C 100.12 154.06 105.64 155.68 106.38 159.09
  Q 106.87 161.33 106.73 164.92
  Q 106.71 165.45 107.25 165.44
  L 113.18 165.35
  Q 113.64 165.34 113.71 164.88
  Q 115.63 151.68 108.58 140.67
  C 103.59 132.85 99.03 127.44 99.39 117.67
  Q 99.41 117.15 98.94 116.93
  C 86.41 111.04 85.38 101.90 85.47 89.43
  Q 85.48 88.86 84.91 88.84
  C 80.00 88.70 72.39 89.16 70.54 94.81
  C 68.50 101.05 65.57 107.74 58.18 107.66
  Q 57.66 107.66 57.41 108.11
  C 56.13 110.44 54.15 119.38 59.27 118.82
  Q 66.58 118.03 77.24 118.55
  C 80.97 118.74 82.30 122.78 78.61 124.40
  A 0.51 0.44 30.8 0 1 78.44 124.43"
/>
<path stroke="#533d3e" vector-effect="non-scaling-stroke" d="
  M 103.80 92.25
  C 102.66 90.08 94.41 89.33 91.85 88.96
  A 0.85 0.85 0.0 0 0 90.88 89.81
  Q 90.97 95.63 92.04 101.62
  C 92.95 106.65 99.56 112.49 104.74 111.64
  Q 105.23 111.56 105.48 111.12
  C 108.85 105.03 106.85 98.03 103.80 92.25"
/>
<path stroke="#9c4248" vector-effect="non-scaling-stroke" d="
  M 61.57 131.71
  C 66.76 133.51 67.64 128.47 66.79 124.73
  Q 66.69 124.25 66.19 124.25
  L 60.52 124.25
  Q 59.83 124.25 59.77 124.94
  Q 59.49 128.25 60.92 131.13
  Q 61.13 131.55 61.57 131.71"
/>
<path stroke="#533d3e" vector-effect="non-scaling-stroke" d="
  M 126.93 128.52
  C 124.22 134.38 124.44 139.28 123.68 145.32
  Q 123.06 150.24 120.03 154.00
  Q 119.75 154.36 119.75 154.81
  L 119.76 163.93
  A 0.26 0.26 0.0 0 0 120.20 164.11
  C 126.93 157.31 128.37 149.59 128.91 140.08
  Q 129.24 134.27 127.95 128.63
  A 0.54 0.54 0.0 0 0 126.93 128.52"
/>
</g>
<g fill="#6e423f">
<path d="
  M 78.44 124.43
  A 0.51 0.44 30.8 0 0 78.61 124.40
  C 82.30 122.78 80.97 118.74 77.24 118.55
  Q 66.58 118.03 59.27 118.82
  C 54.15 119.38 56.13 110.44 57.41 108.11
  Q 57.66 107.66 58.18 107.66
  C 65.57 107.74 68.50 101.05 70.54 94.81
  C 72.39 89.16 80.00 88.70 84.91 88.84
  Q 85.48 88.86 85.47 89.43
  C 85.38 101.90 86.41 111.04 98.94 116.93
  Q 99.41 117.15 99.39 117.67
  C 99.03 127.44 103.59 132.85 108.58 140.67
  Q 115.63 151.68 113.71 164.88
  Q 113.64 165.34 113.18 165.35
  L 107.25 165.44
  Q 106.71 165.45 106.73 164.92
  Q 106.87 161.33 106.38 159.09
  C 105.64 155.68 100.12 154.06 100.59 158.73
  Q 100.89 161.72 101.20 164.78
  A 1.44 1.44 0.0 0 1 100.07 166.33
  Q 95.78 167.26 91.56 166.23
  Q 90.92 166.08 90.90 165.42
  L 90.67 158.77
  Q 90.65 158.19 90.33 157.72
  Q 89.46 156.47 87.77 156.48
  A 2.04 2.03 -83.8 0 0 85.78 158.09
  Q 84.95 161.82 85.44 165.65
  Q 85.52 166.25 84.92 166.25
  L 82.56 166.25
  Q 82.00 166.25 82.09 165.70
  C 82.37 163.81 83.10 153.76 77.96 157.04
  C 75.89 158.36 76.32 162.82 76.62 164.89
  A 1.26 1.24 -3.5 0 1 75.35 166.31
  L 65.58 166.08
  Q 64.92 166.07 64.86 165.41
  C 64.09 156.67 67.35 148.00 70.83 139.42
  Q 73.57 132.65 72.27 124.95
  A 0.71 0.71 0.0 0 1 73.01 124.13
  L 78.44 124.43
  Z"
/>
<path d="
  M 91.85 88.96
  C 94.41 89.33 102.66 90.08 103.80 92.25
  C 106.85 98.03 108.85 105.03 105.48 111.12
  Q 105.23 111.56 104.74 111.64
  C 99.56 112.49 92.95 106.65 92.04 101.62
  Q 90.97 95.63 90.88 89.81
  A 0.85 0.85 0.0 0 1 91.85 88.96
  Z"
/>
<path d="
  M 126.93 128.52
  A 0.54 0.54 0.0 0 1 127.95 128.63
  Q 129.24 134.27 128.91 140.08
  C 128.37 149.59 126.93 157.31 120.20 164.11
  A 0.26 0.26 0.0 0 1 119.76 163.93
  L 119.75 154.81
  Q 119.75 154.36 120.03 154.00
  Q 123.06 150.24 123.68 145.32
  C 124.44 139.28 124.22 134.38 126.93 128.52
  Z"
/>
</g>
<path fill="#38383c" d="
  M 104.73 118.24
  C 104.81 122.86 105.78 126.31 108.66 130.33
  Q 113.59 137.23 117.53 144.86
  Q 117.89 145.55 117.98 144.78
  C 118.84 137.76 118.40 129.20 123.78 123.65
  C 126.59 120.75 130.70 120.70 132.53 124.58
  C 134.37 128.46 134.96 134.25 134.72 138.51
  C 134.07 150.13 132.88 159.89 123.83 168.16
  C 118.23 173.27 108.96 170.40 102.03 171.85
  Q 98.20 172.65 96.50 172.52
  C 84.45 171.62 73.63 172.28 63.11 171.41
  C 53.21 170.60 62.87 143.36 64.93 138.39
  Q 65.34 137.38 64.26 137.49
  C 55.96 138.34 53.92 130.63 54.26 124.25
  Q 54.29 123.73 53.88 123.41
  Q 51.95 121.88 51.66 121.09
  C 48.94 113.53 49.61 102.32 60.02 101.60
  Q 60.55 101.57 60.93 101.20
  Q 63.54 98.74 64.63 94.68
  Q 67.31 84.71 78.00 83.73
  C 84.80 83.10 102.32 82.37 106.50 87.14
  C 113.15 94.71 116.65 109.83 107.44 117.18
  Q 107.08 117.47 106.62 117.48
  L 105.40 117.53
  Q 104.71 117.55 104.73 118.24
  Z
  M 78.44 124.43
  L 73.01 124.13
  A 0.71 0.71 0.0 0 0 72.27 124.95
  Q 73.57 132.65 70.83 139.42
  C 67.35 148.00 64.09 156.67 64.86 165.41
  Q 64.92 166.07 65.58 166.08
  L 75.35 166.31
  A 1.26 1.24 -3.5 0 0 76.62 164.89
  C 76.32 162.82 75.89 158.36 77.96 157.04
  C 83.10 153.76 82.37 163.81 82.09 165.70
  Q 82.00 166.25 82.56 166.25
  L 84.92 166.25
  Q 85.52 166.25 85.44 165.65
  Q 84.95 161.82 85.78 158.09
  A 2.04 2.03 -83.8 0 1 87.77 156.48
  Q 89.46 156.47 90.33 157.72
  Q 90.65 158.19 90.67 158.77
  L 90.90 165.42
  Q 90.92 166.08 91.56 166.23
  Q 95.78 167.26 100.07 166.33
  A 1.44 1.44 0.0 0 0 101.20 164.78
  Q 100.89 161.72 100.59 158.73
  C 100.12 154.06 105.64 155.68 106.38 159.09
  Q 106.87 161.33 106.73 164.92
  Q 106.71 165.45 107.25 165.44
  L 113.18 165.35
  Q 113.64 165.34 113.71 164.88
  Q 115.63 151.68 108.58 140.67
  C 103.59 132.85 99.03 127.44 99.39 117.67
  Q 99.41 117.15 98.94 116.93
  C 86.41 111.04 85.38 101.90 85.47 89.43
  Q 85.48 88.86 84.91 88.84
  C 80.00 88.70 72.39 89.16 70.54 94.81
  C 68.50 101.05 65.57 107.74 58.18 107.66
  Q 57.66 107.66 57.41 108.11
  C 56.13 110.44 54.15 119.38 59.27 118.82
  Q 66.58 118.03 77.24 118.55
  C 80.97 118.74 82.30 122.78 78.61 124.40
  A 0.51 0.44 30.8 0 1 78.44 124.43
  Z
  M 103.80 92.25
  C 102.66 90.08 94.41 89.33 91.85 88.96
  A 0.85 0.85 0.0 0 0 90.88 89.81
  Q 90.97 95.63 92.04 101.62
  C 92.95 106.65 99.56 112.49 104.74 111.64
  Q 105.23 111.56 105.48 111.12
  C 108.85 105.03 106.85 98.03 103.80 92.25
  Z
  M 61.57 131.71
  C 66.76 133.51 67.64 128.47 66.79 124.73
  Q 66.69 124.25 66.19 124.25
  L 60.52 124.25
  Q 59.83 124.25 59.77 124.94
  Q 59.49 128.25 60.92 131.13
  Q 61.13 131.55 61.57 131.71
  Z
  M 126.93 128.52
  C 124.22 134.38 124.44 139.28 123.68 145.32
  Q 123.06 150.24 120.03 154.00
  Q 119.75 154.36 119.75 154.81
  L 119.76 163.93
  A 0.26 0.26 0.0 0 0 120.20 164.11
  C 126.93 157.31 128.37 149.59 128.91 140.08
  Q 129.24 134.27 127.95 128.63
  A 0.54 0.54 0.0 0 0 126.93 128.52
  Z"
/>
<path fill="#ff4b54" d="
  M 66.79 124.73
  C 67.64 128.47 66.76 133.51 61.57 131.71
  Q 61.13 131.55 60.92 131.13
  Q 59.49 128.25 59.77 124.94
  Q 59.83 124.25 60.52 124.25
  L 66.19 124.25
  Q 66.69 124.25 66.79 124.73
  Z"
/>
</svg>
