<?xml version="1.0" encoding="UTF-8" standalone="no"?>
<!DOCTYPE svg PUBLIC "-//W3C//DTD SVG 1.1//EN" "http://www.w3.org/Graphics/SVG/1.1/DTD/svg11.dtd">
<svg xmlns="http://www.w3.org/2000/svg" version="1.1" viewBox="0 0 180 180">
<g stroke-width="2.00" fill="none" stroke-linecap="butt">
<path stroke="#576461" vector-effect="non-scaling-stroke" d="
  M 109.60 63.34
  C 104.20 57.81 94.13 60.59 88.02 63.57
  Q 73.57 70.62 65.94 84.11
  Q 65.71 84.52 65.25 84.57
  Q 62.69 84.85 59.24 86.77
  Q 46.13 94.07 42.99 108.60
  Q 42.78 109.56 43.76 109.70
  C 53.51 111.05 58.60 108.11 66.58 103.36
  C 70.14 101.23 73.18 105.70 69.01 108.57
  Q 62.65 112.94 55.19 115.42
  Q 54.72 115.58 54.61 116.06
  C 51.91 128.07 53.47 139.93 64.78 146.51
  C 67.25 147.95 68.90 147.25 70.98 145.73
  C 76.18 141.94 77.95 138.16 79.39 131.68
  C 82.63 117.00 92.52 109.48 100.03 97.34
  C 104.78 89.66 117.66 71.59 109.60 63.34"
/>
<path stroke="#576461" vector-effect="non-scaling-stroke" d="
  M 88.95 123.09
  C 89.96 125.86 93.33 127.37 95.50 128.66
  Q 96.16 129.05 96.32 128.31
  Q 97.97 120.56 96.60 112.73
  Q 96.48 112.09 96.03 112.57
  Q 91.97 116.87 89.04 122.01
  Q 88.75 122.53 88.95 123.09"
/>
<path stroke="#3d504e" vector-effect="non-scaling-stroke" d="
  M 115.90 124.90
  C 111.76 127.35 108.22 126.38 103.48 125.15
  Q 102.96 125.01 102.86 125.54
  C 102.36 128.05 101.43 132.96 99.03 134.30
  C 95.69 136.17 89.98 132.31 86.55 129.76
  Q 86.06 129.40 85.92 129.98
  L 83.23 141.11
  Q 83.11 141.58 83.59 141.49
  C 90.44 140.15 100.29 139.44 106.41 142.69
  Q 106.87 142.94 107.10 143.41
  Q 112.27 153.58 122.24 159.02
  A 1.96 1.95 -68.8 0 0 125.07 157.77
  Q 127.43 148.11 123.66 138.99
  A 1.95 1.95 0.0 0 1 124.35 136.63
  C 129.50 133.07 136.51 125.16 136.47 118.56
  A 1.58 1.57 0.9 0 0 134.94 116.99
  C 127.38 116.78 122.15 121.19 115.90 124.90"
/>
<path stroke="#576461" vector-effect="non-scaling-stroke" d="
  M 107.3301 73.4704
  A 2.52 2.52 0.0 0 0 106.2525 70.0734
  L 102.5770 68.1681
  A 2.52 2.52 0.0 0 0 99.1800 69.2457
  L 98.9499 69.6896
  A 2.52 2.52 0.0 0 0 100.0275 73.0866
  L 103.7030 74.9919
  A 2.52 2.52 0.0 0 0 107.1000 73.9143
  L 107.3301 73.4704"
/>
</g>
<g fill="#759086">
<path d="
  M 109.60 63.34
  C 117.66 71.59 104.78 89.66 100.03 97.34
  C 92.52 109.48 82.63 117.00 79.39 131.68
  C 77.95 138.16 76.18 141.94 70.98 145.73
  C 68.90 147.25 67.25 147.95 64.78 146.51
  C 53.47 139.93 51.91 128.07 54.61 116.06
  Q 54.72 115.58 55.19 115.42
  Q 62.65 112.94 69.01 108.57
  C 73.18 105.70 70.14 101.23 66.58 103.36
  C 58.60 108.11 53.51 111.05 43.76 109.70
  Q 42.78 109.56 42.99 108.60
  Q 46.13 94.07 59.24 86.77
  Q 62.69 84.85 65.25 84.57
  Q 65.71 84.52 65.94 84.11
  Q 73.57 70.62 88.02 63.57
  C 94.13 60.59 104.20 57.81 109.60 63.34
  Z
  M 107.3301 73.4704
  A 2.52 2.52 0.0 0 0 106.2525 70.0734
  L 102.5770 68.1681
  A 2.52 2.52 0.0 0 0 99.1800 69.2457
  L 98.9499 69.6896
  A 2.52 2.52 0.0 0 0 100.0275 73.0866
  L 103.7030 74.9919
  A 2.52 2.52 0.0 0 0 107.1000 73.9143
  L 107.3301 73.4704
  Z"
/>
<path d="
  M 95.50 128.66
  C 93.33 127.37 89.96 125.86 88.95 123.09
  Q 88.75 122.53 89.04 122.01
  Q 91.97 116.87 96.03 112.57
  Q 96.48 112.09 96.60 112.73
  Q 97.97 120.56 96.32 128.31
  Q 96.16 129.05 95.50 128.66
  Z"
/>
</g>
<g fill="#38383c">
<path d="
  M 141.13 113.65
  Q 142.17 114.25 142.23 115.45
  C 142.73 124.66 137.25 133.28 130.45 139.12
  Q 130.06 139.45 130.20 139.95
  C 132.53 148.05 134.03 172.35 117.44 162.81
  C 111.95 159.66 106.95 153.77 103.48 148.54
  C 100.85 144.57 87.11 146.47 83.82 147.34
  Q 78.81 148.66 69.97 152.74
  Q 68.86 153.25 66.48 152.99
  C 55.11 151.76 47.06 136.27 47.87 126.02
  Q 48.26 121.16 48.67 116.30
  Q 48.72 115.71 48.13 115.73
  C 42.80 115.88 36.34 115.36 37.41 108.54
  C 39.71 93.84 49.01 85.39 61.53 78.73
  Q 63.29 77.80 64.48 76.13
  Q 74.62 61.90 91.17 56.18
  C 108.00 50.36 122.99 60.05 116.30 78.88
  C 112.93 88.36 106.12 98.59 101.37 106.08
  Q 101.14 106.45 101.21 106.88
  L 103.03 118.67
  Q 103.09 119.05 103.45 119.17
  Q 107.46 120.58 111.68 120.80
  Q 112.25 120.82 112.71 120.50
  C 120.95 114.74 130.80 107.61 141.13 113.65
  Z
  M 109.60 63.34
  C 104.20 57.81 94.13 60.59 88.02 63.57
  Q 73.57 70.62 65.94 84.11
  Q 65.71 84.52 65.25 84.57
  Q 62.69 84.85 59.24 86.77
  Q 46.13 94.07 42.99 108.60
  Q 42.78 109.56 43.76 109.70
  C 53.51 111.05 58.60 108.11 66.58 103.36
  C 70.14 101.23 73.18 105.70 69.01 108.57
  Q 62.65 112.94 55.19 115.42
  Q 54.72 115.58 54.61 116.06
  C 51.91 128.07 53.47 139.93 64.78 146.51
  C 67.25 147.95 68.90 147.25 70.98 145.73
  C 76.18 141.94 77.95 138.16 79.39 131.68
  C 82.63 117.00 92.52 109.48 100.03 97.34
  C 104.78 89.66 117.66 71.59 109.60 63.34
  Z
  M 88.95 123.09
  C 89.96 125.86 93.33 127.37 95.50 128.66
  Q 96.16 129.05 96.32 128.31
  Q 97.97 120.56 96.60 112.73
  Q 96.48 112.09 96.03 112.57
  Q 91.97 116.87 89.04 122.01
  Q 88.75 122.53 88.95 123.09
  Z
  M 115.90 124.90
  C 111.76 127.35 108.22 126.38 103.48 125.15
  Q 102.96 125.01 102.86 125.54
  C 102.36 128.05 101.43 132.96 99.03 134.30
  C 95.69 136.17 89.98 132.31 86.55 129.76
  Q 86.06 129.40 85.92 129.98
  L 83.23 141.11
  Q 83.11 141.58 83.59 141.49
  C 90.44 140.15 100.29 139.44 106.41 142.69
  Q 106.87 142.94 107.10 143.41
  Q 112.27 153.58 122.24 159.02
  A 1.96 1.95 -68.8 0 0 125.07 157.77
  Q 127.43 148.11 123.66 138.99
  A 1.95 1.95 0.0 0 1 124.35 136.63
  C 129.50 133.07 136.51 125.16 136.47 118.56
  A 1.58 1.57 0.9 0 0 134.94 116.99
  C 127.38 116.78 122.15 121.19 115.90 124.90
  Z"
/>
<rect x="-4.59" y="-2.77" transform="translate(103.14,71.58) rotate(27.4)" width="9.18" height="5.54" rx="2.52"/>
</g>
<path fill="#42685f" d="
  M 103.48 125.15
  C 108.22 126.38 111.76 127.35 115.90 124.90
  C 122.15 121.19 127.38 116.78 134.94 116.99
  A 1.58 1.57 0.9 0 1 136.47 118.56
  C 136.51 125.16 129.50 133.07 124.35 136.63
  A 1.95 1.95 0.0 0 0 123.66 138.99
  Q 127.43 148.11 125.07 157.77
  A 1.96 1.95 -68.8 0 1 122.24 159.02
  Q 112.27 153.58 107.10 143.41
  Q 106.87 142.94 106.41 142.69
  C 100.29 139.44 90.44 140.15 83.59 141.49
  Q 83.11 141.58 83.23 141.11
  L 85.92 129.98
  Q 86.06 129.40 86.55 129.76
  C 89.98 132.31 95.69 136.17 99.03 134.30
  C 101.43 132.96 102.36 128.05 102.86 125.54
  Q 102.96 125.01 103.48 125.15
  Z"
/>
</svg>
