<?xml version="1.0" encoding="UTF-8" standalone="no"?>
<!DOCTYPE svg PUBLIC "-//W3C//DTD SVG 1.1//EN" "http://www.w3.org/Graphics/SVG/1.1/DTD/svg11.dtd">
<svg xmlns="http://www.w3.org/2000/svg" version="1.1" viewBox="0 0 180 180">
<g stroke-width="2.00" fill="none" stroke-linecap="butt">
<path stroke="#485642" vector-effect="non-scaling-stroke" d="
  M 70.67 158.19
  C 62.75 154.07 55.97 142.42 62.99 134.47
  Q 63.33 134.09 63.32 133.57
  Q 63.19 126.31 57.90 121.47
  A 2.40 2.40 0.0 0 0 54.16 122.10
  C 50.05 129.76 56.07 149.01 59.32 156.68
  C 60.59 159.66 59.38 162.75 56.04 162.82
  Q 47.47 162.99 41.92 164.75
  Q 41.11 165.01 41.92 165.28
  Q 44.45 166.10 46.76 166.06
  Q 57.25 165.84 67.79 165.82
  Q 68.35 165.82 68.42 165.26
  Q 68.82 162.02 70.93 159.52
  Q 71.63 158.69 70.67 158.19"
/>
<path stroke="#485642" vector-effect="non-scaling-stroke" d="
  M 140.50 164.25
  Q 130.73 161.70 121.37 163.00
  C 118.37 163.41 116.39 161.44 117.83 158.33
  Q 121.24 150.99 123.25 143.18
  C 124.24 139.33 129.05 120.17 121.92 121.60
  Q 121.43 121.70 121.10 122.07
  Q 116.97 126.58 115.01 132.42
  Q 114.84 132.93 115.22 133.31
  Q 117.24 135.29 117.79 137.74
  Q 120.95 151.71 108.82 158.64
  Q 108.26 158.95 108.74 159.38
  Q 111.36 161.71 111.98 165.17
  Q 112.08 165.76 112.68 165.74
  C 122.09 165.57 131.00 165.70 140.44 164.94
  A 0.35 0.35 0.0 0 0 140.50 164.25"
/>
<path stroke="#98989a" vector-effect="non-scaling-stroke" d="
  M 80.05 125.30
  C 73.72 117.79 63.97 132.24 73.79 135.90
  C 81.62 138.82 84.57 130.66 80.05 125.30"
/>
<path stroke="#98989a" vector-effect="non-scaling-stroke" d="
  M 108.6658 129.1797
  A 5.54 5.54 0.0 0 0 103.4132 123.3665
  L 101.5156 123.2704
  A 5.54 5.54 0.0 0 0 95.7024 128.5230
  L 95.5942 130.6603
  A 5.54 5.54 0.0 0 0 100.8468 136.4735
  L 102.7444 136.5696
  A 5.54 5.54 0.0 0 0 108.5576 131.3170
  L 108.6658 129.1797"
/>
<path stroke="#82883e" vector-effect="non-scaling-stroke" d="
  M 87.06 126.44
  C 91.90 139.46 76.64 147.47 67.47 138.43
  Q 67.07 138.03 66.72 138.47
  C 63.34 142.71 68.07 149.88 71.61 152.10
  Q 72.10 152.41 72.39 151.90
  Q 79.29 139.98 93.28 142.00
  Q 102.81 143.38 106.80 152.36
  Q 107.05 152.92 107.54 152.55
  Q 114.49 147.36 111.91 138.76
  Q 111.75 138.24 111.37 138.63
  Q 107.21 142.86 100.43 142.11
  C 91.34 141.09 89.03 134.46 90.43 126.47
  Q 90.56 125.78 89.85 125.77
  L 87.55 125.74
  Q 86.80 125.73 87.06 126.44"
/>
<path stroke="#9b9c48" vector-effect="non-scaling-stroke" d="
  M 101.34 154.69
  C 100.16 150.08 94.69 147.53 90.41 147.35
  C 85.24 147.14 81.12 148.88 77.96 153.12
  A 1.46 1.46 0.0 0 0 78.66 155.37
  C 84.08 157.23 95.54 157.49 100.96 155.43
  Q 101.47 155.23 101.34 154.69"
/>
<path stroke="#485642" vector-effect="non-scaling-stroke" d="
  M 86.31 162.79
  L 77.38 161.37
  Q 76.82 161.29 76.47 161.73
  L 74.44 164.25
  Q 73.89 164.94 74.71 165.26
  Q 80.19 167.39 86.10 167.22
  Q 86.75 167.20 86.75 166.55
  L 86.75 163.31
  A 0.53 0.52 -85.5 0 0 86.31 162.79"
/>
<path stroke="#485642" vector-effect="non-scaling-stroke" d="
  M 92.71 162.28
  A 0.36 0.35 -0.7 0 0 92.33 162.66
  L 92.58 166.99
  Q 92.62 167.63 93.25 167.60
  L 105.33 167.03
  A 0.99 0.99 0.0 0 0 106.02 165.37
  L 102.77 161.79
  Q 102.31 161.29 101.65 161.45
  Q 97.24 162.58 92.71 162.28"
/>
<path stroke="#98989a" vector-effect="non-scaling-stroke" d="
  M 74.33 132.67
  C 80.04 139.83 84.09 126.93 77.83 127.99
  Q 77.31 128.08 77.00 127.66
  C 72.49 121.46 68.01 129.23 71.92 131.98
  Q 72.31 132.25 72.78 132.25
  L 73.47 132.25
  Q 74.00 132.25 74.33 132.67"
/>
<path stroke="#98989a" vector-effect="non-scaling-stroke" d="
  M 104.68 132.00
  C 109.55 131.76 107.38 123.19 102.00 125.21
  Q 101.51 125.40 101.25 125.86
  C 99.95 128.20 95.44 130.03 97.32 133.17
  Q 99.25 136.38 102.99 134.27
  Q 103.43 134.02 103.60 133.55
  L 103.97 132.53
  Q 104.15 132.03 104.68 132.00"
/>
</g>
<g fill="#38383c">
<path d="
  M 93.30 120.81
  Q 104.17 113.41 112.81 123.24
  Q 113.18 123.66 113.43 123.15
  C 119.75 110.46 132.69 115.53 131.49 129.21
  Q 130.27 143.09 125.14 156.07
  Q 124.90 156.67 125.55 156.68
  C 132.77 156.75 139.80 156.86 145.86 160.71
  Q 146.29 160.98 146.47 161.45
  C 148.32 166.25 146.00 169.95 141.03 170.62
  C 130.80 171.99 121.17 171.52 110.89 171.47
  C 108.94 171.46 107.66 172.58 105.72 172.79
  C 97.56 173.69 87.65 173.74 78.82 172.40
  Q 73.98 171.66 70.97 171.68
  Q 63.30 171.73 46.00 171.71
  C 42.34 171.70 34.83 169.89 34.59 165.27
  C 34.27 158.84 48.17 157.56 52.72 156.86
  Q 53.26 156.78 53.05 156.28
  C 48.99 146.38 44.08 126.61 50.69 118.28
  C 55.50 112.21 63.11 117.42 65.92 122.41
  Q 66.20 122.93 66.58 122.48
  C 70.12 118.26 79.81 114.74 83.78 120.57
  Q 84.07 120.98 84.53 120.80
  Q 88.51 119.28 92.44 120.90
  Q 92.89 121.09 93.30 120.81
  Z
  M 70.67 158.19
  C 62.75 154.07 55.97 142.42 62.99 134.47
  Q 63.33 134.09 63.32 133.57
  Q 63.19 126.31 57.90 121.47
  A 2.40 2.40 0.0 0 0 54.16 122.10
  C 50.05 129.76 56.07 149.01 59.32 156.68
  C 60.59 159.66 59.38 162.75 56.04 162.82
  Q 47.47 162.99 41.92 164.75
  Q 41.11 165.01 41.92 165.28
  Q 44.45 166.10 46.76 166.06
  Q 57.25 165.84 67.79 165.82
  Q 68.35 165.82 68.42 165.26
  Q 68.82 162.02 70.93 159.52
  Q 71.63 158.69 70.67 158.19
  Z
  M 140.50 164.25
  Q 130.73 161.70 121.37 163.00
  C 118.37 163.41 116.39 161.44 117.83 158.33
  Q 121.24 150.99 123.25 143.18
  C 124.24 139.33 129.05 120.17 121.92 121.60
  Q 121.43 121.70 121.10 122.07
  Q 116.97 126.58 115.01 132.42
  Q 114.84 132.93 115.22 133.31
  Q 117.24 135.29 117.79 137.74
  Q 120.95 151.71 108.82 158.64
  Q 108.26 158.95 108.74 159.38
  Q 111.36 161.71 111.98 165.17
  Q 112.08 165.76 112.68 165.74
  C 122.09 165.57 131.00 165.70 140.44 164.94
  A 0.35 0.35 0.0 0 0 140.50 164.25
  Z
  M 80.05 125.30
  C 73.72 117.79 63.97 132.24 73.79 135.90
  C 81.62 138.82 84.57 130.66 80.05 125.30
  Z
  M 108.6658 129.1797
  A 5.54 5.54 0.0 0 0 103.4132 123.3665
  L 101.5156 123.2704
  A 5.54 5.54 0.0 0 0 95.7024 128.5230
  L 95.5942 130.6603
  A 5.54 5.54 0.0 0 0 100.8468 136.4735
  L 102.7444 136.5696
  A 5.54 5.54 0.0 0 0 108.5576 131.3170
  L 108.6658 129.1797
  Z
  M 87.06 126.44
  C 91.90 139.46 76.64 147.47 67.47 138.43
  Q 67.07 138.03 66.72 138.47
  C 63.34 142.71 68.07 149.88 71.61 152.10
  Q 72.10 152.41 72.39 151.90
  Q 79.29 139.98 93.28 142.00
  Q 102.81 143.38 106.80 152.36
  Q 107.05 152.92 107.54 152.55
  Q 114.49 147.36 111.91 138.76
  Q 111.75 138.24 111.37 138.63
  Q 107.21 142.86 100.43 142.11
  C 91.34 141.09 89.03 134.46 90.43 126.47
  Q 90.56 125.78 89.85 125.77
  L 87.55 125.74
  Q 86.80 125.73 87.06 126.44
  Z
  M 101.34 154.69
  C 100.16 150.08 94.69 147.53 90.41 147.35
  C 85.24 147.14 81.12 148.88 77.96 153.12
  A 1.46 1.46 0.0 0 0 78.66 155.37
  C 84.08 157.23 95.54 157.49 100.96 155.43
  Q 101.47 155.23 101.34 154.69
  Z
  M 86.31 162.79
  L 77.38 161.37
  Q 76.82 161.29 76.47 161.73
  L 74.44 164.25
  Q 73.89 164.94 74.71 165.26
  Q 80.19 167.39 86.10 167.22
  Q 86.75 167.20 86.75 166.55
  L 86.75 163.31
  A 0.53 0.52 -85.5 0 0 86.31 162.79
  Z
  M 92.71 162.28
  A 0.36 0.35 -0.7 0 0 92.33 162.66
  L 92.58 166.99
  Q 92.62 167.63 93.25 167.60
  L 105.33 167.03
  A 0.99 0.99 0.0 0 0 106.02 165.37
  L 102.77 161.79
  Q 102.31 161.29 101.65 161.45
  Q 97.24 162.58 92.71 162.28
  Z"
/>
<path d="
  M 102.00 125.21
  C 107.38 123.19 109.55 131.76 104.68 132.00
  Q 104.15 132.03 103.97 132.53
  L 103.60 133.55
  Q 103.43 134.02 102.99 134.27
  Q 99.25 136.38 97.32 133.17
  C 95.44 130.03 99.95 128.20 101.25 125.86
  Q 101.51 125.40 102.00 125.21
  Z"
/>
<path d="
  M 77.83 127.99
  C 84.09 126.93 80.04 139.83 74.33 132.67
  Q 74.00 132.25 73.47 132.25
  L 72.78 132.25
  Q 72.31 132.25 71.92 131.98
  C 68.01 129.23 72.49 121.46 77.00 127.66
  Q 77.31 128.08 77.83 127.99
  Z"
/>
</g>
<g fill="#587347">
<path d="
  M 70.67 158.19
  Q 71.63 158.69 70.93 159.52
  Q 68.82 162.02 68.42 165.26
  Q 68.35 165.82 67.79 165.82
  Q 57.25 165.84 46.76 166.06
  Q 44.45 166.10 41.92 165.28
  Q 41.11 165.01 41.92 164.75
  Q 47.47 162.99 56.04 162.82
  C 59.38 162.75 60.59 159.66 59.32 156.68
  C 56.07 149.01 50.05 129.76 54.16 122.10
  A 2.40 2.40 0.0 0 1 57.90 121.47
  Q 63.19 126.31 63.32 133.57
  Q 63.33 134.09 62.99 134.47
  C 55.97 142.42 62.75 154.07 70.67 158.19
  Z"
/>
<path d="
  M 140.50 164.25
  A 0.35 0.35 0.0 0 1 140.44 164.94
  C 131.00 165.70 122.09 165.57 112.68 165.74
  Q 112.08 165.76 111.98 165.17
  Q 111.36 161.71 108.74 159.38
  Q 108.26 158.95 108.82 158.64
  Q 120.95 151.71 117.79 137.74
  Q 117.24 135.29 115.22 133.31
  Q 114.84 132.93 115.01 132.42
  Q 116.97 126.58 121.10 122.07
  Q 121.43 121.70 121.92 121.60
  C 129.05 120.17 124.24 139.33 123.25 143.18
  Q 121.24 150.99 117.83 158.33
  C 116.39 161.44 118.37 163.41 121.37 163.00
  Q 130.73 161.70 140.50 164.25
  Z"
/>
<path d="
  M 86.31 162.79
  A 0.53 0.52 -85.5 0 1 86.75 163.31
  L 86.75 166.55
  Q 86.75 167.20 86.10 167.22
  Q 80.19 167.39 74.71 165.26
  Q 73.89 164.94 74.44 164.25
  L 76.47 161.73
  Q 76.82 161.29 77.38 161.37
  L 86.31 162.79
  Z"
/>
<path d="
  M 92.71 162.28
  Q 97.24 162.58 101.65 161.45
  Q 102.31 161.29 102.77 161.79
  L 106.02 165.37
  A 0.99 0.99 0.0 0 1 105.33 167.03
  L 93.25 167.60
  Q 92.62 167.63 92.58 166.99
  L 92.33 162.66
  A 0.36 0.35 -0.7 0 1 92.71 162.28
  Z"
/>
</g>
<path fill="#ccd73f" d="
  M 67.47 138.43
  C 76.64 147.47 91.90 139.46 87.06 126.44
  Q 86.80 125.73 87.55 125.74
  L 89.85 125.77
  Q 90.56 125.78 90.43 126.47
  C 89.03 134.46 91.34 141.09 100.43 142.11
  Q 107.21 142.86 111.37 138.63
  Q 111.75 138.24 111.91 138.76
  Q 114.49 147.36 107.54 152.55
  Q 107.05 152.92 106.80 152.36
  Q 102.81 143.38 93.28 142.00
  Q 79.29 139.98 72.39 151.90
  Q 72.10 152.41 71.61 152.10
  C 68.07 149.88 63.34 142.71 66.72 138.47
  Q 67.07 138.03 67.47 138.43
  Z"
/>
<g fill="#f8f8f8">
<path d="
  M 80.05 125.30
  C 84.57 130.66 81.62 138.82 73.79 135.90
  C 63.97 132.24 73.72 117.79 80.05 125.30
  Z
  M 74.33 132.67
  C 80.04 139.83 84.09 126.93 77.83 127.99
  Q 77.31 128.08 77.00 127.66
  C 72.49 121.46 68.01 129.23 71.92 131.98
  Q 72.31 132.25 72.78 132.25
  L 73.47 132.25
  Q 74.00 132.25 74.33 132.67
  Z"
/>
<path d="
  M 108.5576 131.3170
  A 5.54 5.54 0.0 0 1 102.7444 136.5696
  L 100.8468 136.4735
  A 5.54 5.54 0.0 0 1 95.5942 130.6603
  L 95.7024 128.5230
  A 5.54 5.54 0.0 0 1 101.5156 123.2704
  L 103.4132 123.3665
  A 5.54 5.54 0.0 0 1 108.6658 129.1797
  L 108.5576 131.3170
  Z
  M 104.68 132.00
  C 109.55 131.76 107.38 123.19 102.00 125.21
  Q 101.51 125.40 101.25 125.86
  C 99.95 128.20 95.44 130.03 97.32 133.17
  Q 99.25 136.38 102.99 134.27
  Q 103.43 134.02 103.60 133.55
  L 103.97 132.53
  Q 104.15 132.03 104.68 132.00
  Z"
/>
</g>
<path fill="#feff53" d="
  M 90.41 147.35
  C 94.69 147.53 100.16 150.08 101.34 154.69
  Q 101.47 155.23 100.96 155.43
  C 95.54 157.49 84.08 157.23 78.66 155.37
  A 1.46 1.46 0.0 0 1 77.96 153.12
  C 81.12 148.88 85.24 147.14 90.41 147.35
  Z"
/>
</svg>
