<?xml version="1.0" encoding="UTF-8" standalone="no"?>
<!DOCTYPE svg PUBLIC "-//W3C//DTD SVG 1.1//EN" "http://www.w3.org/Graphics/SVG/1.1/DTD/svg11.dtd">
<svg xmlns="http://www.w3.org/2000/svg" version="1.1" viewBox="0 0 180 180">
<g stroke-width="2.00" fill="none" stroke-linecap="butt">
<path stroke="#533d3e" vector-effect="non-scaling-stroke" d="
  M 64.86 92.00
  C 51.30 100.82 53.57 76.51 52.93 70.78
  C 52.45 66.52 50.31 61.98 49.79 57.11
  A 0.95 0.95 0.0 0 0 48.13 56.58
  C 44.05 61.23 38.12 66.53 35.41 72.16
  Q 30.31 82.73 23.87 89.62
  Q 20.62 93.10 21.85 96.66
  C 22.88 99.62 25.79 99.89 28.20 98.42
  Q 36.82 93.18 45.06 87.27
  Q 45.46 86.98 45.94 87.02
  Q 49.27 87.24 50.28 89.80
  C 53.65 98.35 54.82 110.34 57.18 118.00
  C 58.88 123.51 62.35 129.58 62.98 135.16
  Q 64.53 148.93 64.65 162.81
  Q 64.66 163.29 65.13 163.35
  L 69.43 163.89
  Q 69.91 163.95 70.06 163.48
  Q 74.20 150.11 78.23 136.70
  Q 79.23 133.36 79.28 129.91
  C 79.31 127.32 76.45 121.57 81.48 121.47
  A 2.28 2.27 80.2 0 1 83.68 123.03
  Q 85.13 127.38 84.70 131.99
  A 0.88 0.87 -82.7 0 0 85.43 132.94
  C 92.92 134.11 103.02 130.84 110.25 128.72
  Q 114.04 127.61 116.20 125.62
  Q 116.55 125.29 117.02 125.26
  Q 120.03 125.04 120.59 127.94
  Q 122.60 138.48 128.97 146.28
  C 131.33 149.18 128.76 159.82 128.18 163.59
  Q 128.10 164.10 128.61 164.14
  L 132.78 164.51
  Q 133.26 164.55 133.44 164.09
  C 137.67 153.07 155.46 103.37 137.61 98.56
  Q 135.62 98.02 128.42 98.96
  C 112.41 101.04 97.06 99.46 83.40 90.75
  A 0.50 0.50 0.0 0 0 82.64 91.11
  C 82.02 96.14 79.86 104.33 74.59 106.49
  C 67.38 109.43 66.20 96.47 66.15 92.68
  A 0.83 0.83 0.0 0 0 64.86 92.00"
/>
<path stroke="#533d3e" vector-effect="non-scaling-stroke" d="
  M 118.33 146.93
  C 122.08 150.27 121.09 157.41 119.71 161.56
  Q 119.50 162.17 120.14 162.21
  L 122.24 162.34
  Q 122.77 162.37 122.84 161.85
  L 124.47 150.50
  Q 124.55 149.94 124.20 149.50
  Q 118.36 142.29 115.96 133.38
  A 0.48 0.47 -18.6 0 0 115.32 133.07
  L 110.81 134.91
  Q 110.36 135.09 110.53 135.54
  Q 113.05 142.24 118.33 146.93"
/>
<path stroke="#533d3e" vector-effect="non-scaling-stroke" d="
  M 88.26 139.09
  L 84.31 138.57
  Q 83.71 138.49 83.53 139.06
  L 76.35 162.30
  Q 76.17 162.87 76.77 162.93
  L 80.05 163.24
  Q 80.62 163.29 80.84 162.76
  Q 85.46 151.48 88.68 139.72
  Q 88.83 139.17 88.26 139.09"
/>
</g>
<g fill="#6e423f">
<path d="
  M 52.93 70.78
  C 53.57 76.51 51.30 100.82 64.86 92.00
  A 0.83 0.83 0.0 0 1 66.15 92.68
  C 66.20 96.47 67.38 109.43 74.59 106.49
  C 79.86 104.33 82.02 96.14 82.64 91.11
  A 0.50 0.50 0.0 0 1 83.40 90.75
  C 97.06 99.46 112.41 101.04 128.42 98.96
  Q 135.62 98.02 137.61 98.56
  C 155.46 103.37 137.67 153.07 133.44 164.09
  Q 133.26 164.55 132.78 164.51
  L 128.61 164.14
  Q 128.10 164.10 128.18 163.59
  C 128.76 159.82 131.33 149.18 128.97 146.28
  Q 122.60 138.48 120.59 127.94
  Q 120.03 125.04 117.02 125.26
  Q 116.55 125.29 116.20 125.62
  Q 114.04 127.61 110.25 128.72
  C 103.02 130.84 92.92 134.11 85.43 132.94
  A 0.88 0.87 -82.7 0 1 84.70 131.99
  Q 85.13 127.38 83.68 123.03
  A 2.28 2.27 80.2 0 0 81.48 121.47
  C 76.45 121.57 79.31 127.32 79.28 129.91
  Q 79.23 133.36 78.23 136.70
  Q 74.20 150.11 70.06 163.48
  Q 69.91 163.95 69.43 163.89
  L 65.13 163.35
  Q 64.66 163.29 64.65 162.81
  Q 64.53 148.93 62.98 135.16
  C 62.35 129.58 58.88 123.51 57.18 118.00
  C 54.82 110.34 53.65 98.35 50.28 89.80
  Q 49.27 87.24 45.94 87.02
  Q 45.46 86.98 45.06 87.27
  Q 36.82 93.18 28.20 98.42
  C 25.79 99.89 22.88 99.62 21.85 96.66
  Q 20.62 93.10 23.87 89.62
  Q 30.31 82.73 35.41 72.16
  C 38.12 66.53 44.05 61.23 48.13 56.58
  A 0.95 0.95 0.0 0 1 49.79 57.11
  C 50.31 61.98 52.45 66.52 52.93 70.78
  Z"
/>
<path d="
  M 118.33 146.93
  Q 113.05 142.24 110.53 135.54
  Q 110.36 135.09 110.81 134.91
  L 115.32 133.07
  A 0.48 0.47 -18.6 0 1 115.96 133.38
  Q 118.36 142.29 124.20 149.50
  Q 124.55 149.94 124.47 150.50
  L 122.84 161.85
  Q 122.77 162.37 122.24 162.34
  L 120.14 162.21
  Q 119.50 162.17 119.71 161.56
  C 121.09 157.41 122.08 150.27 118.33 146.93
  Z"
/>
<path d="
  M 84.31 138.57
  L 88.26 139.09
  Q 88.83 139.17 88.68 139.72
  Q 85.46 151.48 80.84 162.76
  Q 80.62 163.29 80.05 163.24
  L 76.77 162.93
  Q 76.17 162.87 76.35 162.30
  L 83.53 139.06
  Q 83.71 138.49 84.31 138.57
  Z"
/>
</g>
<path fill="#38383c" d="
  M 133.92 172.95
  C 132.80 174.51 123.88 173.12 122.17 172.54
  Q 120.06 171.82 117.86 171.34
  C 104.73 168.51 120.69 157.19 113.16 149.69
  Q 107.63 144.20 105.07 136.72
  A 0.61 0.61 0.0 0 0 104.36 136.32
  L 95.17 138.43
  A 1.05 1.05 0.0 0 0 94.38 139.23
  Q 90.94 154.94 83.78 168.98
  C 82.13 172.23 74.90 172.14 71.73 172.62
  C 67.69 173.24 64.03 172.04 59.76 172.93
  Q 59.27 173.04 58.83 172.82
  C 54.50 170.71 56.28 165.30 58.71 162.49
  Q 59.03 162.13 59.01 161.64
  Q 58.61 150.17 57.96 138.72
  C 57.62 132.83 53.75 125.86 51.90 120.10
  C 49.44 112.43 48.28 102.86 46.05 94.26
  A 0.47 0.47 0.0 0 0 45.33 93.99
  Q 38.56 98.60 31.67 102.91
  C 21.26 109.43 11.60 98.38 18.22 88.16
  Q 19.03 86.92 20.79 84.76
  Q 26.79 77.40 30.80 68.78
  C 33.29 63.40 39.77 57.99 43.83 53.55
  C 51.67 44.99 54.56 53.45 55.81 59.92
  Q 55.91 60.42 56.39 60.58
  C 69.92 65.19 74.57 77.69 85.69 85.29
  Q 99.17 94.50 116.02 93.70
  Q 117.71 93.62 118.91 94.10
  Q 119.35 94.27 119.83 94.20
  C 123.50 93.61 126.14 93.40 130.80 92.60
  C 143.39 90.47 149.44 98.95 153.43 109.13
  C 159.69 125.10 164.28 140.25 155.96 156.51
  C 152.43 163.42 146.38 152.44 144.79 149.92
  Q 144.46 149.40 144.27 149.98
  C 142.14 156.31 139.68 168.20 134.40 172.31
  Q 134.36 172.34 133.92 172.95
  Z
  M 64.86 92.00
  C 51.30 100.82 53.57 76.51 52.93 70.78
  C 52.45 66.52 50.31 61.98 49.79 57.11
  A 0.95 0.95 0.0 0 0 48.13 56.58
  C 44.05 61.23 38.12 66.53 35.41 72.16
  Q 30.31 82.73 23.87 89.62
  Q 20.62 93.10 21.85 96.66
  C 22.88 99.62 25.79 99.89 28.20 98.42
  Q 36.82 93.18 45.06 87.27
  Q 45.46 86.98 45.94 87.02
  Q 49.27 87.24 50.28 89.80
  C 53.65 98.35 54.82 110.34 57.18 118.00
  C 58.88 123.51 62.35 129.58 62.98 135.16
  Q 64.53 148.93 64.65 162.81
  Q 64.66 163.29 65.13 163.35
  L 69.43 163.89
  Q 69.91 163.95 70.06 163.48
  Q 74.20 150.11 78.23 136.70
  Q 79.23 133.36 79.28 129.91
  C 79.31 127.32 76.45 121.57 81.48 121.47
  A 2.28 2.27 80.2 0 1 83.68 123.03
  Q 85.13 127.38 84.70 131.99
  A 0.88 0.87 -82.7 0 0 85.43 132.94
  C 92.92 134.11 103.02 130.84 110.25 128.72
  Q 114.04 127.61 116.20 125.62
  Q 116.55 125.29 117.02 125.26
  Q 120.03 125.04 120.59 127.94
  Q 122.60 138.48 128.97 146.28
  C 131.33 149.18 128.76 159.82 128.18 163.59
  Q 128.10 164.10 128.61 164.14
  L 132.78 164.51
  Q 133.26 164.55 133.44 164.09
  C 137.67 153.07 155.46 103.37 137.61 98.56
  Q 135.62 98.02 128.42 98.96
  C 112.41 101.04 97.06 99.46 83.40 90.75
  A 0.50 0.50 0.0 0 0 82.64 91.11
  C 82.02 96.14 79.86 104.33 74.59 106.49
  C 67.38 109.43 66.20 96.47 66.15 92.68
  A 0.83 0.83 0.0 0 0 64.86 92.00
  Z
  M 118.33 146.93
  C 122.08 150.27 121.09 157.41 119.71 161.56
  Q 119.50 162.17 120.14 162.21
  L 122.24 162.34
  Q 122.77 162.37 122.84 161.85
  L 124.47 150.50
  Q 124.55 149.94 124.20 149.50
  Q 118.36 142.29 115.96 133.38
  A 0.48 0.47 -18.6 0 0 115.32 133.07
  L 110.81 134.91
  Q 110.36 135.09 110.53 135.54
  Q 113.05 142.24 118.33 146.93
  Z
  M 88.26 139.09
  L 84.31 138.57
  Q 83.71 138.49 83.53 139.06
  L 76.35 162.30
  Q 76.17 162.87 76.77 162.93
  L 80.05 163.24
  Q 80.62 163.29 80.84 162.76
  Q 85.46 151.48 88.68 139.72
  Q 88.83 139.17 88.26 139.09
  Z"
/>
</svg>
