<?xml version="1.0" encoding="UTF-8" standalone="no"?>
<!DOCTYPE svg PUBLIC "-//W3C//DTD SVG 1.1//EN" "http://www.w3.org/Graphics/SVG/1.1/DTD/svg11.dtd">
<svg xmlns="http://www.w3.org/2000/svg" version="1.1" viewBox="0 0 180 180">
<g stroke-width="2.00" fill="none" stroke-linecap="butt">
<path stroke="#576461" vector-effect="non-scaling-stroke" d="
  M 118.53 46.47
  C 110.02 38.37 93.93 37.30 83.18 40.81
  C 66.56 46.26 54.91 62.93 52.82 79.56
  Q 51.92 86.72 50.74 93.90
  Q 50.66 94.43 51.01 94.84
  C 55.22 99.65 64.75 102.56 70.08 103.28
  C 88.27 105.74 117.31 109.28 132.09 95.29
  Q 132.45 94.95 132.52 94.47
  Q 132.99 91.27 132.68 88.07
  C 131.07 71.29 131.10 58.45 118.53 46.47"
/>
<path stroke="#3d504e" vector-effect="non-scaling-stroke" d="
  M 112.73 110.57
  C 97.39 111.78 84.27 111.07 67.23 108.99
  Q 66.15 108.86 66.84 109.70
  Q 68.36 111.52 71.75 112.25
  C 85.03 115.09 101.69 117.70 112.82 110.86
  Q 113.38 110.52 112.73 110.57"
/>
<path stroke="#3d504e" vector-effect="non-scaling-stroke" d="
  M 43.49 156.88
  C 40.72 155.80 35.20 153.12 34.67 156.46
  Q 34.60 156.94 34.90 157.32
  C 36.12 158.84 37.85 158.85 39.19 159.35
  C 49.90 163.36 62.58 163.63 71.38 155.48
  C 78.32 149.06 77.26 134.00 75.56 125.74
  C 74.70 121.61 72.56 117.70 68.26 117.55
  Q 67.74 117.53 67.92 118.01
  C 70.36 124.52 73.53 130.71 73.79 137.97
  C 74.45 155.97 58.53 162.75 43.49 156.88"
/>
<path stroke="#3d504e" vector-effect="non-scaling-stroke" d="
  M 113.55 154.68
  L 118.94 154.78
  Q 119.53 154.79 119.82 154.28
  C 127.40 141.03 120.66 129.21 112.99 118.04
  Q 112.73 117.66 112.30 117.83
  L 109.78 118.83
  Q 109.14 119.08 109.59 119.59
  C 118.04 129.27 122.06 142.98 113.30 154.16
  Q 112.90 154.67 113.55 154.68"
/>
<path stroke="#3d504e" vector-effect="non-scaling-stroke" d="
  M 142.38 136.33
  A 0.99 0.99 0.0 0 0 140.70 136.92
  C 139.96 143.61 142.93 148.53 138.19 154.65
  Q 133.94 160.13 126.14 161.55
  C 123.14 162.10 119.86 160.98 116.71 160.65
  C 105.53 159.50 99.37 155.08 96.97 143.66
  Q 94.70 132.84 95.17 121.65
  Q 95.19 121.00 94.54 121.00
  L 92.50 121.00
  Q 91.98 121.00 91.92 121.51
  C 89.60 141.39 92.40 161.75 116.37 165.11
  C 131.52 167.23 143.68 163.11 145.64 146.22
  Q 146.33 140.29 142.38 136.33"
/>
<path stroke="#3d504e" vector-effect="non-scaling-stroke" d="
  M 66.25 147.54
  Q 66.63 147.19 66.86 146.76
  Q 67.10 146.31 66.79 145.90
  C 63.73 141.89 59.95 135.38 55.98 132.50
  Q 55.46 132.13 55.60 132.75
  Q 57.67 142.08 64.47 148.75
  Q 64.85 149.13 65.30 148.82
  Q 65.73 148.54 65.91 148.05
  Q 66.01 147.75 66.25 147.54"
/>
<path stroke="#3d504e" vector-effect="non-scaling-stroke" d="
  M 94.81 161.44
  Q 93.90 160.18 92.93 158.75
  Q 92.61 158.29 92.06 158.39
  Q 85.13 159.72 78.73 156.98
  Q 78.20 156.75 77.84 157.20
  L 76.10 159.35
  Q 75.68 159.86 76.29 160.11
  C 81.76 162.35 89.71 162.39 94.94 162.49
  Q 95.65 162.50 95.41 161.83
  Q 95.28 161.43 94.81 161.44"
/>
</g>
<path fill="#759086" d="
  M 118.53 46.47
  C 131.10 58.45 131.07 71.29 132.68 88.07
  Q 132.99 91.27 132.52 94.47
  Q 132.45 94.95 132.09 95.29
  C 117.31 109.28 88.27 105.74 70.08 103.28
  C 64.75 102.56 55.22 99.65 51.01 94.84
  Q 50.66 94.43 50.74 93.90
  Q 51.92 86.72 52.82 79.56
  C 54.91 62.93 66.56 46.26 83.18 40.81
  C 93.93 37.30 110.02 38.37 118.53 46.47
  Z"
/>
<path fill="#38383c" d="
  M 126.33 155.71
  Q 131.68 153.96 134.91 149.43
  Q 135.24 148.97 135.24 148.40
  C 135.30 144.36 134.00 139.20 135.37 135.20
  C 137.41 129.23 143.54 128.37 147.39 133.12
  C 153.79 141.01 152.03 152.20 146.79 160.21
  C 138.10 173.52 124.41 172.25 110.71 170.16
  C 107.63 169.69 105.25 168.30 102.36 167.01
  Q 101.88 166.79 101.37 166.94
  C 91.98 169.60 79.53 168.40 71.09 163.69
  Q 70.65 163.44 70.20 163.68
  C 58.84 169.77 45.43 168.55 34.00 163.72
  C 27.25 160.87 26.88 152.06 33.81 149.58
  C 41.64 146.77 49.44 155.42 59.33 152.12
  Q 59.77 151.98 59.45 151.64
  Q 52.29 144.23 50.18 134.35
  C 48.72 127.54 54.04 123.07 59.65 128.24
  Q 64.30 132.51 67.61 137.97
  A 0.31 0.31 0.0 0 0 68.18 137.78
  Q 67.42 130.63 64.24 124.02
  Q 61.93 119.19 62.38 113.93
  Q 62.42 113.39 62.17 112.90
  Q 60.91 110.41 60.83 107.57
  Q 60.82 107.02 60.30 106.83
  Q 53.64 104.48 48.23 100.15
  C 44.89 97.48 44.94 95.42 45.43 91.44
  C 47.21 76.91 48.24 69.03 54.80 57.53
  C 66.13 37.68 85.12 30.38 107.51 34.24
  C 120.21 36.44 129.97 48.51 134.35 60.28
  C 137.52 68.80 138.11 81.56 138.76 91.01
  C 139.39 100.19 129.80 105.03 122.42 107.52
  Q 121.98 107.67 121.76 108.09
  L 118.44 114.56
  A 1.72 1.71 -48.8 0 0 118.55 116.29
  C 126.83 128.52 132.78 140.53 126.00 155.33
  Q 125.74 155.90 126.33 155.71
  Z
  M 118.53 46.47
  C 110.02 38.37 93.93 37.30 83.18 40.81
  C 66.56 46.26 54.91 62.93 52.82 79.56
  Q 51.92 86.72 50.74 93.90
  Q 50.66 94.43 51.01 94.84
  C 55.22 99.65 64.75 102.56 70.08 103.28
  C 88.27 105.74 117.31 109.28 132.09 95.29
  Q 132.45 94.95 132.52 94.47
  Q 132.99 91.27 132.68 88.07
  C 131.07 71.29 131.10 58.45 118.53 46.47
  Z
  M 112.73 110.57
  C 97.39 111.78 84.27 111.07 67.23 108.99
  Q 66.15 108.86 66.84 109.70
  Q 68.36 111.52 71.75 112.25
  C 85.03 115.09 101.69 117.70 112.82 110.86
  Q 113.38 110.52 112.73 110.57
  Z
  M 43.49 156.88
  C 40.72 155.80 35.20 153.12 34.67 156.46
  Q 34.60 156.94 34.90 157.32
  C 36.12 158.84 37.85 158.85 39.19 159.35
  C 49.90 163.36 62.58 163.63 71.38 155.48
  C 78.32 149.06 77.26 134.00 75.56 125.74
  C 74.70 121.61 72.56 117.70 68.26 117.55
  Q 67.74 117.53 67.92 118.01
  C 70.36 124.52 73.53 130.71 73.79 137.97
  C 74.45 155.97 58.53 162.75 43.49 156.88
  Z
  M 113.55 154.68
  L 118.94 154.78
  Q 119.53 154.79 119.82 154.28
  C 127.40 141.03 120.66 129.21 112.99 118.04
  Q 112.73 117.66 112.30 117.83
  L 109.78 118.83
  Q 109.14 119.08 109.59 119.59
  C 118.04 129.27 122.06 142.98 113.30 154.16
  Q 112.90 154.67 113.55 154.68
  Z
  M 85.78 120.46
  L 80.18 119.65
  Q 79.73 119.58 79.87 120.02
  Q 84.64 135.47 80.85 151.24
  A 0.64 0.63 -72.6 0 0 81.23 151.98
  Q 84.73 153.41 88.52 153.18
  Q 89.15 153.14 88.96 152.53
  C 85.44 141.63 85.70 131.80 86.28 121.06
  Q 86.30 120.53 85.78 120.46
  Z
  M 102.77 120.64
  A 1.05 1.05 0.0 0 0 101.04 121.30
  Q 100.54 125.12 101.09 129.15
  C 102.19 137.18 101.10 146.34 107.39 151.72
  Q 107.81 152.08 108.16 151.66
  C 116.73 141.50 111.63 128.33 102.77 120.64
  Z
  M 142.38 136.33
  A 0.99 0.99 0.0 0 0 140.70 136.92
  C 139.96 143.61 142.93 148.53 138.19 154.65
  Q 133.94 160.13 126.14 161.55
  C 123.14 162.10 119.86 160.98 116.71 160.65
  C 105.53 159.50 99.37 155.08 96.97 143.66
  Q 94.70 132.84 95.17 121.65
  Q 95.19 121.00 94.54 121.00
  L 92.50 121.00
  Q 91.98 121.00 91.92 121.51
  C 89.60 141.39 92.40 161.75 116.37 165.11
  C 131.52 167.23 143.68 163.11 145.64 146.22
  Q 146.33 140.29 142.38 136.33
  Z
  M 66.25 147.54
  Q 66.63 147.19 66.86 146.76
  Q 67.10 146.31 66.79 145.90
  C 63.73 141.89 59.95 135.38 55.98 132.50
  Q 55.46 132.13 55.60 132.75
  Q 57.67 142.08 64.47 148.75
  Q 64.85 149.13 65.30 148.82
  Q 65.73 148.54 65.91 148.05
  Q 66.01 147.75 66.25 147.54
  Z
  M 94.81 161.44
  Q 93.90 160.18 92.93 158.75
  Q 92.61 158.29 92.06 158.39
  Q 85.13 159.72 78.73 156.98
  Q 78.20 156.75 77.84 157.20
  L 76.10 159.35
  Q 75.68 159.86 76.29 160.11
  C 81.76 162.35 89.71 162.39 94.94 162.49
  Q 95.65 162.50 95.41 161.83
  Q 95.28 161.43 94.81 161.44
  Z"
/>
<g fill="#42685f">
<path d="
  M 67.23 108.99
  C 84.27 111.07 97.39 111.78 112.73 110.57
  Q 113.38 110.52 112.82 110.86
  C 101.69 117.70 85.03 115.09 71.75 112.25
  Q 68.36 111.52 66.84 109.70
  Q 66.15 108.86 67.23 108.99
  Z"
/>
<path d="
  M 43.49 156.88
  C 58.53 162.75 74.45 155.97 73.79 137.97
  C 73.53 130.71 70.36 124.52 67.92 118.01
  Q 67.74 117.53 68.26 117.55
  C 72.56 117.70 74.70 121.61 75.56 125.74
  C 77.26 134.00 78.32 149.06 71.38 155.48
  C 62.58 163.63 49.90 163.36 39.19 159.35
  C 37.85 158.85 36.12 158.84 34.90 157.32
  Q 34.60 156.94 34.67 156.46
  C 35.20 153.12 40.72 155.80 43.49 156.88
  Z"
/>
<path d="
  M 113.55 154.68
  Q 112.90 154.67 113.30 154.16
  C 122.06 142.98 118.04 129.27 109.59 119.59
  Q 109.14 119.08 109.78 118.83
  L 112.30 117.83
  Q 112.73 117.66 112.99 118.04
  C 120.66 129.21 127.40 141.03 119.82 154.28
  Q 119.53 154.79 118.94 154.78
  L 113.55 154.68
  Z"
/>
<path d="
  M 142.38 136.33
  Q 146.33 140.29 145.64 146.22
  C 143.68 163.11 131.52 167.23 116.37 165.11
  C 92.40 161.75 89.60 141.39 91.92 121.51
  Q 91.98 121.00 92.50 121.00
  L 94.54 121.00
  Q 95.19 121.00 95.17 121.65
  Q 94.70 132.84 96.97 143.66
  C 99.37 155.08 105.53 159.50 116.71 160.65
  C 119.86 160.98 123.14 162.10 126.14 161.55
  Q 133.94 160.13 138.19 154.65
  C 142.93 148.53 139.96 143.61 140.70 136.92
  A 0.99 0.99 0.0 0 1 142.38 136.33
  Z"
/>
<path d="
  M 65.91 148.05
  Q 65.73 148.54 65.30 148.82
  Q 64.85 149.13 64.47 148.75
  Q 57.67 142.08 55.60 132.75
  Q 55.46 132.13 55.98 132.50
  C 59.95 135.38 63.73 141.89 66.79 145.90
  Q 67.10 146.31 66.86 146.76
  Q 66.63 147.19 66.25 147.54
  Q 66.01 147.75 65.91 148.05
  Z"
/>
<path d="
  M 94.81 161.44
  Q 95.28 161.43 95.41 161.83
  Q 95.65 162.50 94.94 162.49
  C 89.71 162.39 81.76 162.35 76.29 160.11
  Q 75.68 159.86 76.10 159.35
  L 77.84 157.20
  Q 78.20 156.75 78.73 156.98
  Q 85.13 159.72 92.06 158.39
  Q 92.61 158.29 92.93 158.75
  Q 93.90 160.18 94.81 161.44
  Z"
/>
</g>
</svg>
