<?xml version="1.0" encoding="UTF-8" standalone="no"?>
<!DOCTYPE svg PUBLIC "-//W3C//DTD SVG 1.1//EN" "http://www.w3.org/Graphics/SVG/1.1/DTD/svg11.dtd">
<svg xmlns="http://www.w3.org/2000/svg" version="1.1" viewBox="0 0 180 180">
<g stroke-width="2.00" fill="none" stroke-linecap="butt">
<path stroke="#927a6d" vector-effect="non-scaling-stroke" d="
  M 47.06 143.81
  Q 56.02 137.49 64.25 142.04
  C 71.28 145.93 73.36 153.52 68.11 160.06
  Q 67.75 160.52 68.32 160.63
  L 71.33 161.23
  Q 72.09 161.38 72.07 160.61
  C 71.91 155.02 78.57 156.37 77.61 160.02
  Q 76.66 163.63 77.74 166.14
  C 78.81 168.65 81.70 168.65 83.53 167.10
  Q 83.92 166.77 83.99 166.26
  Q 84.33 163.79 84.10 161.33
  C 83.64 156.14 89.12 156.70 89.78 161.89
  Q 89.86 162.46 90.43 162.48
  Q 100.23 162.73 109.96 161.54
  Q 110.44 161.49 110.59 161.03
  C 111.31 158.87 111.02 155.74 114.44 155.98
  A 2.23 2.22 -84.8 0 1 116.49 158.45
  C 116.24 160.66 115.57 165.14 117.24 166.77
  C 119.18 168.67 123.74 167.49 123.37 164.25
  Q 122.94 160.40 123.61 157.23
  Q 123.93 155.72 126.36 151.33
  C 135.85 134.18 122.32 113.55 105.00 109.03
  C 84.03 103.55 57.89 103.70 47.97 126.88
  C 45.65 132.28 45.74 138.06 46.07 143.91
  A 0.44 0.44 0.0 0 0 46.69 144.29
  Q 47.06 144.14 47.06 143.81"
/>
<path stroke="#927a6d" vector-effect="non-scaling-stroke" d="
  M 39.11 144.87
  A 1.04 1.04 0.0 0 0 40.73 144.01
  L 40.80 137.70
  Q 40.81 137.03 40.31 137.47
  C 38.03 139.46 34.98 142.14 39.11 144.87"
/>
<path stroke="#927a6d" vector-effect="non-scaling-stroke" d="
  M 65.4995 152.5686
  A 8.46 6.45 0.6 0 0 57.1075 146.0304
  A 8.46 6.45 0.6 0 0 48.5805 152.3914
  A 8.46 6.45 0.6 0 0 56.9725 158.9296
  A 8.46 6.45 0.6 0 0 65.4995 152.5686"
/>
<path stroke="#927a6d" vector-effect="non-scaling-stroke" d="
  M 81.09 143.77
  Q 76.50 141.51 73.02 137.89
  C 71.57 136.37 70.36 135.87 68.62 137.26
  A 2.04 2.04 0.0 0 0 68.14 139.89
  C 70.87 144.50 77.24 149.25 82.64 149.32
  C 91.90 149.45 89.48 136.11 87.15 131.04
  C 85.29 127.01 80.37 129.02 82.33 133.95
  Q 83.98 138.10 83.74 142.22
  A 1.85 1.84 -75.2 0 1 81.09 143.77"
/>
<path stroke="#927a6d" vector-effect="non-scaling-stroke" d="
  M 55.16 152.26
  A 2.50 2.50 0.0 0 0 52.66 149.76
  A 2.50 2.50 0.0 0 0 50.16 152.26
  A 2.50 2.50 0.0 0 0 52.66 154.76
  A 2.50 2.50 0.0 0 0 55.16 152.26"
/>
<path stroke="#927a6d" vector-effect="non-scaling-stroke" d="
  M 62.37 152.37
  A 2.37 2.37 0.0 0 0 60.00 150.00
  A 2.37 2.37 0.0 0 0 57.63 152.37
  A 2.37 2.37 0.0 0 0 60.00 154.74
  A 2.37 2.37 0.0 0 0 62.37 152.37"
/>
</g>
<g fill="#ebbc9e">
<path d="
  M 47.06 143.81
  Q 47.06 144.14 46.69 144.29
  A 0.44 0.44 0.0 0 1 46.07 143.91
  C 45.74 138.06 45.65 132.28 47.97 126.88
  C 57.89 103.70 84.03 103.55 105.00 109.03
  C 122.32 113.55 135.85 134.18 126.36 151.33
  Q 123.93 155.72 123.61 157.23
  Q 122.94 160.40 123.37 164.25
  C 123.74 167.49 119.18 168.67 117.24 166.77
  C 115.57 165.14 116.24 160.66 116.49 158.45
  A 2.23 2.22 -84.8 0 0 114.44 155.98
  C 111.02 155.74 111.31 158.87 110.59 161.03
  Q 110.44 161.49 109.96 161.54
  Q 100.23 162.73 90.43 162.48
  Q 89.86 162.46 89.78 161.89
  C 89.12 156.70 83.64 156.14 84.10 161.33
  Q 84.33 163.79 83.99 166.26
  Q 83.92 166.77 83.53 167.10
  C 81.70 168.65 78.81 168.65 77.74 166.14
  Q 76.66 163.63 77.61 160.02
  C 78.57 156.37 71.91 155.02 72.07 160.61
  Q 72.09 161.38 71.33 161.23
  L 68.32 160.63
  Q 67.75 160.52 68.11 160.06
  C 73.36 153.52 71.28 145.93 64.25 142.04
  Q 56.02 137.49 47.06 143.81
  Z
  M 81.09 143.77
  Q 76.50 141.51 73.02 137.89
  C 71.57 136.37 70.36 135.87 68.62 137.26
  A 2.04 2.04 0.0 0 0 68.14 139.89
  C 70.87 144.50 77.24 149.25 82.64 149.32
  C 91.90 149.45 89.48 136.11 87.15 131.04
  C 85.29 127.01 80.37 129.02 82.33 133.95
  Q 83.98 138.10 83.74 142.22
  A 1.85 1.84 -75.2 0 1 81.09 143.77
  Z"
/>
<path d="
  M 39.11 144.87
  C 34.98 142.14 38.03 139.46 40.31 137.47
  Q 40.81 137.03 40.80 137.70
  L 40.73 144.01
  A 1.04 1.04 0.0 0 1 39.11 144.87
  Z"
/>
<path d="
  M 65.4995 152.5686
  A 8.46 6.45 0.6 0 1 56.9725 158.9296
  A 8.46 6.45 0.6 0 1 48.5805 152.3914
  A 8.46 6.45 0.6 0 1 57.1075 146.0304
  A 8.46 6.45 0.6 0 1 65.4995 152.5686
  Z
  M 55.16 152.26
  A 2.50 2.50 0.0 0 0 52.66 149.76
  A 2.50 2.50 0.0 0 0 50.16 152.26
  A 2.50 2.50 0.0 0 0 52.66 154.76
  A 2.50 2.50 0.0 0 0 55.16 152.26
  Z
  M 62.37 152.37
  A 2.37 2.37 0.0 0 0 60.00 150.00
  A 2.37 2.37 0.0 0 0 57.63 152.37
  A 2.37 2.37 0.0 0 0 60.00 154.74
  A 2.37 2.37 0.0 0 0 62.37 152.37
  Z"
/>
</g>
<g fill="#38383c">
<path d="
  M 124.06 113.94
  C 126.79 116.67 128.75 118.33 130.33 121.82
  Q 132.51 126.64 134.51 132.12
  A 0.49 0.49 0.0 0 0 135.40 132.18
  C 138.69 126.09 146.55 128.73 147.52 135.23
  Q 148.99 145.07 140.47 148.10
  C 138.43 148.83 136.45 148.56 134.66 147.51
  A 0.43 0.43 0.0 0 0 134.03 147.78
  Q 132.91 152.30 130.34 156.09
  C 127.39 160.45 130.03 164.20 128.04 168.31
  C 124.86 174.88 113.94 175.22 111.42 167.69
  Q 111.26 167.22 110.76 167.26
  C 110.41 167.30 110.37 171.54 106.82 172.14
  C 103.69 172.67 97.55 172.93 97.18 168.88
  Q 97.13 168.24 96.48 168.25
  L 89.85 168.26
  Q 89.24 168.26 89.04 168.84
  C 86.77 175.42 77.88 174.48 74.03 170.51
  C 73.32 169.78 72.96 168.55 72.24 167.64
  Q 71.94 167.26 71.47 167.15
  L 67.89 166.32
  Q 67.25 166.18 67.25 166.84
  L 67.25 168.11
  Q 67.25 168.59 67.01 169.00
  C 64.22 173.84 54.43 172.50 53.79 166.14
  Q 53.74 165.63 53.99 165.19
  C 54.50 164.29 53.88 164.04 53.10 163.87
  Q 42.79 161.56 43.04 151.50
  Q 43.06 150.42 41.98 150.39
  Q 33.57 150.17 31.74 143.25
  C 30.34 137.96 39.99 132.46 42.11 126.63
  C 50.99 102.23 76.78 97.31 99.64 101.83
  C 110.38 103.96 116.60 106.47 124.06 113.94
  Z
  M 47.06 143.81
  Q 56.02 137.49 64.25 142.04
  C 71.28 145.93 73.36 153.52 68.11 160.06
  Q 67.75 160.52 68.32 160.63
  L 71.33 161.23
  Q 72.09 161.38 72.07 160.61
  C 71.91 155.02 78.57 156.37 77.61 160.02
  Q 76.66 163.63 77.74 166.14
  C 78.81 168.65 81.70 168.65 83.53 167.10
  Q 83.92 166.77 83.99 166.26
  Q 84.33 163.79 84.10 161.33
  C 83.64 156.14 89.12 156.70 89.78 161.89
  Q 89.86 162.46 90.43 162.48
  Q 100.23 162.73 109.96 161.54
  Q 110.44 161.49 110.59 161.03
  C 111.31 158.87 111.02 155.74 114.44 155.98
  A 2.23 2.22 -84.8 0 1 116.49 158.45
  C 116.24 160.66 115.57 165.14 117.24 166.77
  C 119.18 168.67 123.74 167.49 123.37 164.25
  Q 122.94 160.40 123.61 157.23
  Q 123.93 155.72 126.36 151.33
  C 135.85 134.18 122.32 113.55 105.00 109.03
  C 84.03 103.55 57.89 103.70 47.97 126.88
  C 45.65 132.28 45.74 138.06 46.07 143.91
  A 0.44 0.44 0.0 0 0 46.69 144.29
  Q 47.06 144.14 47.06 143.81
  Z
  M 141.71 137.51
  A 0.62 0.61 83.5 0 0 142.39 136.65
  L 141.56 134.86
  Q 141.20 134.07 140.53 134.61
  Q 139.59 135.36 139.75 136.58
  Q 139.81 137.13 140.36 137.24
  L 141.71 137.51
  Z
  M 39.11 144.87
  A 1.04 1.04 0.0 0 0 40.73 144.01
  L 40.80 137.70
  Q 40.81 137.03 40.31 137.47
  C 38.03 139.46 34.98 142.14 39.11 144.87
  Z
  M 136.16 141.84
  Q 136.91 143.20 138.47 142.96
  A 0.41 0.40 -37.7 0 0 138.57 142.19
  L 136.62 141.34
  A 0.36 0.36 0.0 0 0 136.16 141.84
  Z
  M 65.4995 152.5686
  A 8.46 6.45 0.6 0 0 57.1075 146.0304
  A 8.46 6.45 0.6 0 0 48.5805 152.3914
  A 8.46 6.45 0.6 0 0 56.9725 158.9296
  A 8.46 6.45 0.6 0 0 65.4995 152.5686
  Z"
/>
<path d="
  M 81.09 143.77
  A 1.85 1.84 -75.2 0 0 83.74 142.22
  Q 83.98 138.10 82.33 133.95
  C 80.37 129.02 85.29 127.01 87.15 131.04
  C 89.48 136.11 91.90 149.45 82.64 149.32
  C 77.24 149.25 70.87 144.50 68.14 139.89
  A 2.04 2.04 0.0 0 1 68.62 137.26
  C 70.36 135.87 71.57 136.37 73.02 137.89
  Q 76.50 141.51 81.09 143.77
  Z"
/>
<circle cx="52.66" cy="152.26" r="2.50"/>
<circle cx="60.00" cy="152.37" r="2.37"/>
</g>
</svg>
