<?xml version="1.0" encoding="UTF-8" standalone="no"?>
<!DOCTYPE svg PUBLIC "-//W3C//DTD SVG 1.1//EN" "http://www.w3.org/Graphics/SVG/1.1/DTD/svg11.dtd">
<svg xmlns="http://www.w3.org/2000/svg" version="1.1" viewBox="0 0 180 180">
<g stroke-width="2.00" fill="none" stroke-linecap="butt">
<path stroke="#533d3e" vector-effect="non-scaling-stroke" d="
  M 103.06 71.60
  C 93.47 73.10 87.87 78.01 81.45 84.72
  C 77.66 88.67 75.36 94.07 72.56 98.83
  Q 72.29 99.27 71.82 99.47
  C 64.20 102.66 55.73 106.41 51.74 114.50
  C 45.87 126.41 64.39 125.28 70.18 124.57
  C 72.05 124.34 74.75 124.02 75.99 125.67
  C 77.48 127.66 75.91 129.29 74.01 130.05
  Q 73.54 130.24 73.24 130.64
  C 68.19 137.36 63.05 142.71 62.67 152.00
  C 62.32 160.82 62.12 167.27 72.52 167.42
  Q 72.99 167.43 72.85 166.98
  Q 69.56 156.19 76.85 147.83
  Q 80.85 143.24 86.76 144.52
  Q 87.24 144.62 87.55 144.99
  Q 89.63 147.42 87.17 149.31
  Q 86.74 149.64 86.19 149.66
  C 76.10 149.91 74.39 168.27 84.31 170.75
  Q 98.97 174.41 111.69 166.35
  C 118.35 162.13 103.99 136.12 100.82 130.13
  C 96.41 121.81 92.67 109.63 97.34 100.78
  C 102.22 91.53 104.20 82.52 103.58 72.03
  A 0.46 0.46 0.0 0 0 103.06 71.60"
/>
<path stroke="#98989a" vector-effect="non-scaling-stroke" d="
  M 120.32 162.46
  C 129.23 163.24 129.57 149.69 127.50 144.36
  Q 127.30 143.83 126.78 144.05
  Q 120.94 146.57 117.72 152.09
  Q 117.44 152.57 117.56 153.11
  L 119.36 161.61
  A 1.08 1.07 -3.2 0 0 120.32 162.46"
/>
</g>
<path fill="#6e423f" d="
  M 103.06 71.60
  A 0.46 0.46 0.0 0 1 103.58 72.03
  C 104.20 82.52 102.22 91.53 97.34 100.78
  C 92.67 109.63 96.41 121.81 100.82 130.13
  C 103.99 136.12 118.35 162.13 111.69 166.35
  Q 98.97 174.41 84.31 170.75
  C 74.39 168.27 76.10 149.91 86.19 149.66
  Q 86.74 149.64 87.17 149.31
  Q 89.63 147.42 87.55 144.99
  Q 87.24 144.62 86.76 144.52
  Q 80.85 143.24 76.85 147.83
  Q 69.56 156.19 72.85 166.98
  Q 72.99 167.43 72.52 167.42
  C 62.12 167.27 62.32 160.82 62.67 152.00
  C 63.05 142.71 68.19 137.36 73.24 130.64
  Q 73.54 130.24 74.01 130.05
  C 75.91 129.29 77.48 127.66 75.99 125.67
  C 74.75 124.02 72.05 124.34 70.18 124.57
  C 64.39 125.28 45.87 126.41 51.74 114.50
  C 55.73 106.41 64.20 102.66 71.82 99.47
  Q 72.29 99.27 72.56 98.83
  C 75.36 94.07 77.66 88.67 81.45 84.72
  C 87.87 78.01 93.47 73.10 103.06 71.60
  Z"
/>
<path fill="#38383c" d="
  M 65.56 130.62
  C 57.33 131.71 45.07 128.76 44.78 118.55
  C 44.44 106.56 59.25 98.80 68.28 94.75
  Q 68.75 94.54 68.98 94.09
  C 71.40 89.38 73.54 84.85 77.18 80.95
  C 85.00 72.59 92.81 66.98 104.69 65.55
  C 107.87 65.17 109.28 71.20 109.35 73.00
  C 109.80 84.23 107.55 93.90 102.31 103.74
  C 95.46 116.62 111.40 133.86 114.88 145.65
  Q 115.09 146.34 115.55 145.79
  C 118.95 141.72 125.12 137.12 130.51 138.73
  C 133.84 139.73 134.41 151.31 134.24 153.75
  C 133.66 161.82 127.69 168.86 118.99 168.27
  Q 118.49 168.24 118.13 168.61
  C 109.24 177.95 91.59 179.97 79.77 175.19
  Q 77.02 174.08 74.42 173.72
  C 64.27 172.33 58.33 170.56 56.94 159.15
  Q 55.04 143.55 65.92 131.31
  A 0.42 0.41 -72.8 0 0 65.56 130.62
  Z
  M 103.06 71.60
  C 93.47 73.10 87.87 78.01 81.45 84.72
  C 77.66 88.67 75.36 94.07 72.56 98.83
  Q 72.29 99.27 71.82 99.47
  C 64.20 102.66 55.73 106.41 51.74 114.50
  C 45.87 126.41 64.39 125.28 70.18 124.57
  C 72.05 124.34 74.75 124.02 75.99 125.67
  C 77.48 127.66 75.91 129.29 74.01 130.05
  Q 73.54 130.24 73.24 130.64
  C 68.19 137.36 63.05 142.71 62.67 152.00
  C 62.32 160.82 62.12 167.27 72.52 167.42
  Q 72.99 167.43 72.85 166.98
  Q 69.56 156.19 76.85 147.83
  Q 80.85 143.24 86.76 144.52
  Q 87.24 144.62 87.55 144.99
  Q 89.63 147.42 87.17 149.31
  Q 86.74 149.64 86.19 149.66
  C 76.10 149.91 74.39 168.27 84.31 170.75
  Q 98.97 174.41 111.69 166.35
  C 118.35 162.13 103.99 136.12 100.82 130.13
  C 96.41 121.81 92.67 109.63 97.34 100.78
  C 102.22 91.53 104.20 82.52 103.58 72.03
  A 0.46 0.46 0.0 0 0 103.06 71.60
  Z
  M 120.32 162.46
  C 129.23 163.24 129.57 149.69 127.50 144.36
  Q 127.30 143.83 126.78 144.05
  Q 120.94 146.57 117.72 152.09
  Q 117.44 152.57 117.56 153.11
  L 119.36 161.61
  A 1.08 1.07 -3.2 0 0 120.32 162.46
  Z"
/>
<path fill="#f8f8f8" d="
  M 120.32 162.46
  A 1.08 1.07 -3.2 0 1 119.36 161.61
  L 117.56 153.11
  Q 117.44 152.57 117.72 152.09
  Q 120.94 146.57 126.78 144.05
  Q 127.30 143.83 127.50 144.36
  C 129.57 149.69 129.23 163.24 120.32 162.46
  Z"
/>
</svg>
