<?xml version="1.0" encoding="UTF-8" standalone="no"?>
<!DOCTYPE svg PUBLIC "-//W3C//DTD SVG 1.1//EN" "http://www.w3.org/Graphics/SVG/1.1/DTD/svg11.dtd">
<svg xmlns="http://www.w3.org/2000/svg" version="1.1" viewBox="0 0 180 180">
<g stroke-width="2.00" fill="none" stroke-linecap="butt">
<path stroke="#576461" vector-effect="non-scaling-stroke" d="
  M 62.06 60.33
  C 57.97 64.27 54.69 72.05 52.03 77.11
  A 0.54 0.53 19.2 0 0 52.41 77.89
  L 57.94 78.83
  Q 58.43 78.91 58.56 78.43
  C 60.16 72.35 62.08 66.91 62.60 60.59
  Q 62.67 59.74 62.06 60.33"
/>
<path stroke="#576461" vector-effect="non-scaling-stroke" d="
  M 40.48 94.75
  C 41.71 95.76 42.50 96.30 44.12 95.64
  C 48.96 93.67 53.30 89.28 57.45 84.88
  Q 57.90 84.40 57.26 84.25
  L 49.86 82.48
  Q 49.24 82.33 48.86 82.84
  L 40.42 94.32
  A 0.31 0.31 0.0 0 0 40.48 94.75"
/>
<path stroke="#576461" vector-effect="non-scaling-stroke" d="
  M 80.76 99.17
  C 76.52 94.06 71.30 88.14 66.10 84.05
  Q 65.72 83.75 65.42 84.13
  C 60.70 89.99 53.90 97.39 46.88 100.36
  Q 46.35 100.58 46.62 101.08
  L 48.16 104.03
  Q 48.43 104.55 48.88 104.18
  L 51.83 101.74
  Q 52.19 101.44 52.66 101.42
  C 59.03 101.22 60.08 111.03 60.40 116.07
  Q 60.73 121.41 63.30 128.00
  Q 63.46 128.42 63.90 128.30
  C 71.77 126.09 74.42 119.78 78.47 113.81
  C 81.11 109.92 80.99 104.58 81.07 100.04
  Q 81.07 99.55 80.76 99.17"
/>
<path stroke="#533d3e" vector-effect="non-scaling-stroke" d="
  M 87.67 95.43
  C 86.79 98.88 85.11 107.43 87.36 110.32
  Q 88.03 111.17 88.14 110.09
  Q 88.89 102.82 88.41 95.49
  A 0.38 0.37 -40.0 0 0 87.67 95.43"
/>
<path stroke="#927a6d" vector-effect="non-scaling-stroke" d="
  M 43.08 107.06
  C 42.03 103.81 40.03 100.79 36.90 99.22
  Q 36.47 99.00 36.11 99.33
  C 29.20 105.68 36.08 113.50 42.86 107.82
  Q 43.22 107.51 43.08 107.06"
/>
<path stroke="#533d3e" vector-effect="non-scaling-stroke" d="
  M 112.24 103.30
  Q 110.48 108.81 110.64 114.62
  Q 110.66 115.27 111.30 115.22
  C 114.15 114.98 113.50 109.43 113.84 106.42
  C 113.98 105.26 113.72 104.07 113.11 103.18
  A 0.49 0.48 36.8 0 0 112.24 103.30"
/>
<path stroke="#533d3e" vector-effect="non-scaling-stroke" d="
  M 104.58 109.16
  L 94.38 107.12
  A 0.44 0.43 8.5 0 0 93.86 107.50
  C 93.51 111.16 92.93 129.70 102.42 121.16
  C 104.49 119.29 105.07 112.17 104.96 109.60
  A 0.49 0.48 4.9 0 0 104.58 109.16"
/>
<path stroke="#576461" vector-effect="non-scaling-stroke" d="
  M 109.96 120.77
  Q 109.80 120.72 109.61 120.74
  Q 109.15 120.79 108.99 121.23
  C 104.32 133.78 89.14 130.47 88.31 117.39
  Q 88.28 116.84 87.77 116.62
  L 84.72 115.34
  Q 84.15 115.09 83.84 115.63
  C 78.70 124.42 75.32 130.16 66.43 133.46
  Q 65.85 133.68 66.20 134.19
  C 67.75 136.49 69.00 138.10 68.97 141.08
  C 68.88 148.52 70.27 155.67 70.21 162.97
  Q 70.21 163.62 70.86 163.55
  L 73.10 163.34
  Q 73.57 163.29 73.67 162.84
  Q 76.17 152.29 78.75 141.74
  Q 79.62 138.20 76.90 133.70
  C 75.84 131.95 76.70 129.40 78.93 129.18
  C 81.46 128.93 83.09 133.90 83.98 135.78
  C 88.50 145.40 106.19 136.67 112.16 132.97
  C 113.74 131.98 116.37 131.78 116.94 133.81
  Q 118.49 139.29 120.31 144.74
  C 121.39 147.97 123.30 149.71 125.38 152.32
  Q 125.73 152.77 125.52 153.29
  Q 123.56 158.07 124.07 163.26
  Q 124.13 163.89 124.76 163.94
  L 127.59 164.17
  Q 128.16 164.22 128.28 163.67
  Q 131.38 149.95 131.92 135.91
  Q 132.03 133.03 132.96 129.73
  C 135.98 119.08 133.44 108.15 119.80 109.68
  Q 119.30 109.74 119.28 110.25
  C 119.09 116.04 117.52 121.01 110.71 120.95
  Q 110.54 120.95 109.96 120.77"
/>
<path stroke="#576461" vector-effect="non-scaling-stroke" d="
  M 114.90 149.61
  C 117.85 154.03 116.26 156.57 115.43 161.19
  Q 115.29 161.93 116.03 161.81
  L 117.79 161.53
  Q 118.30 161.45 118.35 160.94
  L 119.07 154.68
  Q 119.13 154.15 118.82 153.72
  Q 114.42 147.63 112.98 140.13
  A 0.60 0.60 0.0 0 0 111.79 140.18
  C 111.44 143.99 112.86 146.55 114.90 149.61"
/>
<path stroke="#576461" vector-effect="non-scaling-stroke" d="
  M 86.08 145.19
  L 84.75 144.50
  Q 84.13 144.17 83.96 144.85
  L 79.83 161.68
  Q 79.69 162.25 80.27 162.25
  L 82.21 162.25
  Q 82.68 162.25 82.84 161.80
  Q 85.66 154.03 86.40 145.78
  Q 86.44 145.38 86.08 145.19"
/>
</g>
<path fill="#38383c" d="
  M 119.86 103.81
  C 134.04 102.47 139.87 112.14 141.39 124.59
  C 142.12 130.57 145.23 136.47 147.11 142.21
  Q 147.27 142.69 147.70 142.93
  C 154.09 146.54 152.78 153.21 151.51 159.22
  C 150.71 163.07 148.01 163.00 145.50 160.75
  C 141.18 156.86 136.97 149.93 141.16 144.80
  A 1.87 1.86 -35.1 0 0 141.48 142.98
  L 138.30 134.06
  A 0.33 0.32 38.5 0 0 137.67 134.13
  C 136.70 143.73 136.92 166.75 129.09 173.06
  Q 128.67 173.40 128.14 173.28
  C 123.33 172.17 120.07 174.90 115.94 170.55
  Q 115.59 170.18 115.08 170.23
  C 112.14 170.50 107.34 169.90 108.48 165.50
  Q 110.36 158.26 111.15 154.84
  Q 111.26 154.35 110.96 153.96
  Q 107.16 149.06 106.10 142.95
  Q 105.99 142.32 105.42 142.61
  Q 99.43 145.59 92.69 145.78
  Q 92.05 145.80 92.00 146.44
  Q 90.94 159.23 85.95 168.92
  C 84.12 172.47 78.77 171.45 75.54 171.51
  Q 75.03 171.52 74.70 171.90
  C 73.67 173.09 67.75 172.82 66.49 172.72
  C 59.81 172.18 60.11 164.57 64.45 161.33
  Q 64.88 161.02 64.79 160.49
  Q 63.20 151.05 63.53 141.48
  Q 63.55 140.94 63.28 140.47
  L 60.50 135.55
  Q 60.26 135.12 59.78 135.03
  C 48.97 133.00 45.14 124.09 44.67 114.02
  A 0.33 0.33 0.0 0 0 44.18 113.75
  C 32.92 120.00 22.52 108.07 30.29 97.48
  C 31.84 95.37 34.49 93.41 36.20 90.84
  C 39.80 85.46 44.17 80.80 46.99 75.00
  C 49.63 69.57 59.37 48.33 66.31 54.49
  C 69.80 57.57 67.53 68.08 66.03 72.50
  Q 65.82 73.09 66.45 73.06
  C 72.93 72.80 86.37 76.27 85.17 84.51
  Q 85.10 85.03 85.51 85.36
  L 88.50 87.71
  Q 88.92 88.04 89.42 88.21
  C 94.13 89.75 93.95 96.07 94.21 100.28
  A 1.16 1.16 0.0 0 0 95.13 101.35
  L 105.65 103.60
  Q 106.31 103.74 106.56 103.11
  C 109.90 94.56 116.66 94.95 119.10 103.30
  Q 119.27 103.87 119.86 103.81
  Z
  M 62.06 60.33
  C 57.97 64.27 54.69 72.05 52.03 77.11
  A 0.54 0.53 19.2 0 0 52.41 77.89
  L 57.94 78.83
  Q 58.43 78.91 58.56 78.43
  C 60.16 72.35 62.08 66.91 62.60 60.59
  Q 62.67 59.74 62.06 60.33
  Z
  M 40.48 94.75
  C 41.71 95.76 42.50 96.30 44.12 95.64
  C 48.96 93.67 53.30 89.28 57.45 84.88
  Q 57.90 84.40 57.26 84.25
  L 49.86 82.48
  Q 49.24 82.33 48.86 82.84
  L 40.42 94.32
  A 0.31 0.31 0.0 0 0 40.48 94.75
  Z
  M 80.76 99.17
  C 76.52 94.06 71.30 88.14 66.10 84.05
  Q 65.72 83.75 65.42 84.13
  C 60.70 89.99 53.90 97.39 46.88 100.36
  Q 46.35 100.58 46.62 101.08
  L 48.16 104.03
  Q 48.43 104.55 48.88 104.18
  L 51.83 101.74
  Q 52.19 101.44 52.66 101.42
  C 59.03 101.22 60.08 111.03 60.40 116.07
  Q 60.73 121.41 63.30 128.00
  Q 63.46 128.42 63.90 128.30
  C 71.77 126.09 74.42 119.78 78.47 113.81
  C 81.11 109.92 80.99 104.58 81.07 100.04
  Q 81.07 99.55 80.76 99.17
  Z
  M 87.67 95.43
  C 86.79 98.88 85.11 107.43 87.36 110.32
  Q 88.03 111.17 88.14 110.09
  Q 88.89 102.82 88.41 95.49
  A 0.38 0.37 -40.0 0 0 87.67 95.43
  Z
  M 43.08 107.06
  C 42.03 103.81 40.03 100.79 36.90 99.22
  Q 36.47 99.00 36.11 99.33
  C 29.20 105.68 36.08 113.50 42.86 107.82
  Q 43.22 107.51 43.08 107.06
  Z
  M 112.24 103.30
  Q 110.48 108.81 110.64 114.62
  Q 110.66 115.27 111.30 115.22
  C 114.15 114.98 113.50 109.43 113.84 106.42
  C 113.98 105.26 113.72 104.07 113.11 103.18
  A 0.49 0.48 36.8 0 0 112.24 103.30
  Z
  M 104.58 109.16
  L 94.38 107.12
  A 0.44 0.43 8.5 0 0 93.86 107.50
  C 93.51 111.16 92.93 129.70 102.42 121.16
  C 104.49 119.29 105.07 112.17 104.96 109.60
  A 0.49 0.48 4.9 0 0 104.58 109.16
  Z
  M 56.95 128.83
  A 0.26 0.26 0.0 0 0 57.36 128.55
  Q 54.63 119.56 54.03 110.15
  A 1.41 1.40 70.1 0 0 51.80 109.10
  L 49.85 110.53
  Q 49.41 110.85 49.43 111.40
  C 49.71 118.92 51.02 123.97 56.95 128.83
  Z
  M 109.96 120.77
  Q 109.80 120.72 109.61 120.74
  Q 109.15 120.79 108.99 121.23
  C 104.32 133.78 89.14 130.47 88.31 117.39
  Q 88.28 116.84 87.77 116.62
  L 84.72 115.34
  Q 84.15 115.09 83.84 115.63
  C 78.70 124.42 75.32 130.16 66.43 133.46
  Q 65.85 133.68 66.20 134.19
  C 67.75 136.49 69.00 138.10 68.97 141.08
  C 68.88 148.52 70.27 155.67 70.21 162.97
  Q 70.21 163.62 70.86 163.55
  L 73.10 163.34
  Q 73.57 163.29 73.67 162.84
  Q 76.17 152.29 78.75 141.74
  Q 79.62 138.20 76.90 133.70
  C 75.84 131.95 76.70 129.40 78.93 129.18
  C 81.46 128.93 83.09 133.90 83.98 135.78
  C 88.50 145.40 106.19 136.67 112.16 132.97
  C 113.74 131.98 116.37 131.78 116.94 133.81
  Q 118.49 139.29 120.31 144.74
  C 121.39 147.97 123.30 149.71 125.38 152.32
  Q 125.73 152.77 125.52 153.29
  Q 123.56 158.07 124.07 163.26
  Q 124.13 163.89 124.76 163.94
  L 127.59 164.17
  Q 128.16 164.22 128.28 163.67
  Q 131.38 149.95 131.92 135.91
  Q 132.03 133.03 132.96 129.73
  C 135.98 119.08 133.44 108.15 119.80 109.68
  Q 119.30 109.74 119.28 110.25
  C 119.09 116.04 117.52 121.01 110.71 120.95
  Q 110.54 120.95 109.96 120.77
  Z
  M 114.90 149.61
  C 117.85 154.03 116.26 156.57 115.43 161.19
  Q 115.29 161.93 116.03 161.81
  L 117.79 161.53
  Q 118.30 161.45 118.35 160.94
  L 119.07 154.68
  Q 119.13 154.15 118.82 153.72
  Q 114.42 147.63 112.98 140.13
  A 0.60 0.60 0.0 0 0 111.79 140.18
  C 111.44 143.99 112.86 146.55 114.90 149.61
  Z
  M 86.08 145.19
  L 84.75 144.50
  Q 84.13 144.17 83.96 144.85
  L 79.83 161.68
  Q 79.69 162.25 80.27 162.25
  L 82.21 162.25
  Q 82.68 162.25 82.84 161.80
  Q 85.66 154.03 86.40 145.78
  Q 86.44 145.38 86.08 145.19
  Z"
/>
<g fill="#759086">
<path d="
  M 52.03 77.11
  C 54.69 72.05 57.97 64.27 62.06 60.33
  Q 62.67 59.74 62.60 60.59
  C 62.08 66.91 60.16 72.35 58.56 78.43
  Q 58.43 78.91 57.94 78.83
  L 52.41 77.89
  A 0.54 0.53 19.2 0 1 52.03 77.11
  Z"
/>
<path d="
  M 40.48 94.75
  A 0.31 0.31 0.0 0 1 40.42 94.32
  L 48.86 82.84
  Q 49.24 82.33 49.86 82.48
  L 57.26 84.25
  Q 57.90 84.40 57.45 84.88
  C 53.30 89.28 48.96 93.67 44.12 95.64
  C 42.50 96.30 41.71 95.76 40.48 94.75
  Z"
/>
<path d="
  M 66.10 84.05
  C 71.30 88.14 76.52 94.06 80.76 99.17
  Q 81.07 99.55 81.07 100.04
  C 80.99 104.58 81.11 109.92 78.47 113.81
  C 74.42 119.78 71.77 126.09 63.90 128.30
  Q 63.46 128.42 63.30 128.00
  Q 60.73 121.41 60.40 116.07
  C 60.08 111.03 59.03 101.22 52.66 101.42
  Q 52.19 101.44 51.83 101.74
  L 48.88 104.18
  Q 48.43 104.55 48.16 104.03
  L 46.62 101.08
  Q 46.35 100.58 46.88 100.36
  C 53.90 97.39 60.70 89.99 65.42 84.13
  Q 65.72 83.75 66.10 84.05
  Z"
/>
<path d="
  M 110.71 120.95
  C 117.52 121.01 119.09 116.04 119.28 110.25
  Q 119.30 109.74 119.80 109.68
  C 133.44 108.15 135.98 119.08 132.96 129.73
  Q 132.03 133.03 131.92 135.91
  Q 131.38 149.95 128.28 163.67
  Q 128.16 164.22 127.59 164.17
  L 124.76 163.94
  Q 124.13 163.89 124.07 163.26
  Q 123.56 158.07 125.52 153.29
  Q 125.73 152.77 125.38 152.32
  C 123.30 149.71 121.39 147.97 120.31 144.74
  Q 118.49 139.29 116.94 133.81
  C 116.37 131.78 113.74 131.98 112.16 132.97
  C 106.19 136.67 88.50 145.40 83.98 135.78
  C 83.09 133.90 81.46 128.93 78.93 129.18
  C 76.70 129.40 75.84 131.95 76.90 133.70
  Q 79.62 138.20 78.75 141.74
  Q 76.17 152.29 73.67 162.84
  Q 73.57 163.29 73.10 163.34
  L 70.86 163.55
  Q 70.21 163.62 70.21 162.97
  C 70.27 155.67 68.88 148.52 68.97 141.08
  C 69.00 138.10 67.75 136.49 66.20 134.19
  Q 65.85 133.68 66.43 133.46
  C 75.32 130.16 78.70 124.42 83.84 115.63
  Q 84.15 115.09 84.72 115.34
  L 87.77 116.62
  Q 88.28 116.84 88.31 117.39
  C 89.14 130.47 104.32 133.78 108.99 121.23
  Q 109.15 120.79 109.61 120.74
  Q 109.80 120.72 109.96 120.77
  Q 110.54 120.95 110.71 120.95
  Z"
/>
<path d="
  M 115.43 161.19
  C 116.26 156.57 117.85 154.03 114.90 149.61
  C 112.86 146.55 111.44 143.99 111.79 140.18
  A 0.60 0.60 0.0 0 1 112.98 140.13
  Q 114.42 147.63 118.82 153.72
  Q 119.13 154.15 119.07 154.68
  L 118.35 160.94
  Q 118.30 161.45 117.79 161.53
  L 116.03 161.81
  Q 115.29 161.93 115.43 161.19
  Z"
/>
<path d="
  M 84.75 144.50
  L 86.08 145.19
  Q 86.44 145.38 86.40 145.78
  Q 85.66 154.03 82.84 161.80
  Q 82.68 162.25 82.21 162.25
  L 80.27 162.25
  Q 79.69 162.25 79.83 161.68
  L 83.96 144.85
  Q 84.13 144.17 84.75 144.50
  Z"
/>
</g>
<path fill="#ebbc9e" d="
  M 36.90 99.22
  C 40.03 100.79 42.03 103.81 43.08 107.06
  Q 43.22 107.51 42.86 107.82
  C 36.08 113.50 29.20 105.68 36.11 99.33
  Q 36.47 99.00 36.90 99.22
  Z"
/>
<g fill="#6e423f">
<path d="
  M 87.67 95.43
  A 0.38 0.37 -40.0 0 1 88.41 95.49
  Q 88.89 102.82 88.14 110.09
  Q 88.03 111.17 87.36 110.32
  C 85.11 107.43 86.79 98.88 87.67 95.43
  Z"
/>
<path d="
  M 112.24 103.30
  A 0.49 0.48 36.8 0 1 113.11 103.18
  C 113.72 104.07 113.98 105.26 113.84 106.42
  C 113.50 109.43 114.15 114.98 111.30 115.22
  Q 110.66 115.27 110.64 114.62
  Q 110.48 108.81 112.24 103.30
  Z"
/>
<path d="
  M 104.58 109.16
  A 0.49 0.48 4.9 0 1 104.96 109.60
  C 105.07 112.17 104.49 119.29 102.42 121.16
  C 92.93 129.70 93.51 111.16 93.86 107.50
  A 0.44 0.43 8.5 0 1 94.38 107.12
  L 104.58 109.16
  Z"
/>
</g>
</svg>
