<?xml version="1.0" encoding="UTF-8" standalone="no"?>
<!DOCTYPE svg PUBLIC "-//W3C//DTD SVG 1.1//EN" "http://www.w3.org/Graphics/SVG/1.1/DTD/svg11.dtd">
<svg xmlns="http://www.w3.org/2000/svg" version="1.1" viewBox="0 0 180 180">
<g stroke-width="2.00" fill="none" stroke-linecap="butt">
<path stroke="#533d3e" vector-effect="non-scaling-stroke" d="
  M 44.60 61.43
  L 50.34 63.34
  Q 50.91 63.53 50.81 62.94
  L 49.76 56.93
  A 0.85 0.85 0.0 0 0 48.29 56.50
  L 44.42 60.71
  Q 43.96 61.21 44.60 61.43"
/>
<path stroke="#533d3e" vector-effect="non-scaling-stroke" d="
  M 39.34 66.28
  C 35.48 70.85 32.80 77.12 29.92 81.82
  A 0.75 0.75 0.0 0 0 30.50 82.96
  C 36.72 83.45 46.91 74.44 50.76 69.90
  A 0.18 0.18 0.0 0 0 50.69 69.62
  L 41.09 65.84
  Q 40.06 65.44 39.34 66.28"
/>
<path stroke="#533d3e" vector-effect="non-scaling-stroke" d="
  M 64.87 91.99
  C 53.10 99.65 53.67 83.52 53.41 76.46
  Q 53.38 75.61 52.80 76.22
  Q 45.27 84.04 35.23 88.12
  Q 34.73 88.32 34.87 88.84
  L 35.95 92.99
  Q 36.08 93.51 36.53 93.20
  L 45.39 87.04
  Q 45.87 86.71 46.42 86.88
  Q 49.58 87.85 50.53 90.49
  C 53.42 98.60 54.40 108.51 56.72 116.42
  Q 58.32 121.91 60.38 127.07
  A 0.87 0.87 0.0 0 0 61.65 127.49
  C 70.36 122.14 74.71 116.25 80.93 108.04
  C 83.06 105.23 83.96 102.08 85.72 98.98
  C 86.85 96.99 86.57 95.36 86.47 93.21
  Q 86.44 92.60 85.91 92.31
  L 83.51 90.95
  Q 82.80 90.55 82.68 91.35
  C 81.90 96.36 79.99 103.76 75.33 106.20
  C 67.51 110.29 66.17 96.81 66.16 92.69
  A 0.83 0.83 0.0 0 0 64.87 91.99"
/>
<path stroke="#927a6d" vector-effect="non-scaling-stroke" d="
  M 94.27 102.43
  Q 95.73 103.43 95.88 101.66
  Q 96.67 92.35 94.71 83.21
  A 0.63 0.63 0.0 0 0 93.53 83.06
  C 91.24 87.66 92.07 93.47 91.88 98.44
  C 91.79 100.93 92.44 101.19 94.27 102.43"
/>
<path stroke="#533d3e" vector-effect="non-scaling-stroke" d="
  M 28.45 98.32
  C 32.24 95.53 29.59 89.81 26.91 87.34
  Q 26.58 87.04 26.23 87.32
  C 22.50 90.32 19.71 93.87 22.74 98.30
  Q 23.01 98.71 23.48 98.87
  Q 26.39 99.84 28.45 98.32"
/>
<path stroke="#927a6d" vector-effect="non-scaling-stroke" d="
  M 119.81 95.97
  L 120.33 102.81
  A 0.58 0.58 0.0 0 0 121.39 103.09
  Q 124.20 98.90 123.65 93.79
  A 1.01 1.01 0.0 0 0 121.94 93.18
  L 120.20 94.92
  Q 119.77 95.36 119.81 95.97"
/>
<path stroke="#927a6d" vector-effect="non-scaling-stroke" d="
  M 113.67 96.91
  C 109.98 97.23 105.47 96.22 101.88 95.25
  Q 101.15 95.05 101.16 95.81
  L 101.45 115.44
  Q 101.46 116.02 101.84 116.46
  Q 105.46 120.59 111.13 119.28
  Q 111.60 119.17 111.86 118.76
  C 115.06 113.66 114.80 102.63 114.27 97.41
  Q 114.21 96.86 113.67 96.91"
/>
<path stroke="#533d3e" vector-effect="non-scaling-stroke" d="
  M 107.56 125.19
  C 96.95 124.19 95.99 117.94 95.51 108.94
  Q 95.48 108.45 95.00 108.36
  Q 91.97 107.82 89.65 105.85
  Q 89.27 105.53 89.02 105.96
  C 82.32 117.22 74.83 126.66 63.45 132.93
  Q 63.08 133.13 63.10 133.56
  L 64.89 162.95
  Q 64.92 163.33 65.29 163.37
  L 69.44 163.89
  Q 69.93 163.95 70.07 163.48
  Q 74.35 149.61 78.43 135.68
  Q 79.84 130.90 79.21 128.32
  C 78.72 126.29 77.72 124.07 79.19 122.56
  C 84.58 117.02 84.85 130.41 84.71 132.09
  A 0.87 0.87 0.0 0 0 85.50 133.03
  C 94.13 133.77 103.18 130.65 111.42 128.35
  Q 114.18 127.58 116.24 125.66
  Q 116.59 125.34 117.06 125.28
  Q 119.97 124.94 120.53 127.76
  Q 122.73 138.73 129.16 146.58
  C 129.52 147.02 129.82 147.96 130.05 148.50
  Q 130.27 149.00 130.20 149.55
  L 128.20 163.63
  Q 128.13 164.10 128.61 164.14
  L 132.80 164.51
  Q 133.32 164.55 133.50 164.07
  Q 141.21 143.72 144.91 122.30
  Q 146.52 112.95 143.43 104.03
  C 141.23 97.66 135.19 97.54 129.67 98.76
  A 1.08 1.06 88.9 0 0 128.84 99.64
  Q 127.66 107.32 120.35 109.62
  Q 119.81 109.78 119.79 110.35
  C 119.56 118.20 117.18 126.09 107.56 125.19"
/>
<path stroke="#533d3e" vector-effect="non-scaling-stroke" d="
  M 117.77 146.25
  C 121.99 150.13 121.40 156.54 119.64 161.66
  Q 119.45 162.19 120.01 162.22
  L 122.23 162.33
  Q 122.75 162.36 122.82 161.85
  L 124.48 150.51
  Q 124.56 149.95 124.20 149.50
  Q 118.38 142.32 115.98 133.43
  Q 115.83 132.86 115.28 133.08
  L 110.81 134.91
  Q 110.31 135.11 110.51 135.62
  Q 112.96 141.82 117.77 146.25"
/>
<path stroke="#533d3e" vector-effect="non-scaling-stroke" d="
  M 88.95 139.70
  A 0.43 0.43 0.0 0 0 88.60 139.13
  L 84.06 138.54
  A 0.43 0.43 0.0 0 0 83.59 138.84
  L 76.33 162.37
  A 0.43 0.43 0.0 0 0 76.70 162.92
  L 80.56 163.29
  A 0.43 0.43 0.0 0 0 81.01 163.00
  L 88.95 139.70"
/>
</g>
<path fill="#38383c" d="
  M 129.19 92.72
  A 0.34 0.34 0.0 0 0 129.60 92.93
  C 142.47 89.70 149.13 98.25 153.41 109.13
  Q 157.20 118.77 159.45 128.81
  C 161.87 139.60 160.55 146.90 155.92 156.49
  C 152.49 163.60 146.21 152.11 144.80 149.91
  Q 144.46 149.39 144.27 149.98
  Q 141.71 157.59 139.14 165.17
  C 137.76 169.21 135.61 173.24 130.90 173.60
  C 125.87 173.99 122.85 172.45 118.24 171.40
  C 104.28 168.20 120.91 157.39 113.17 149.71
  Q 107.63 144.20 105.07 136.72
  A 0.61 0.61 0.0 0 0 104.36 136.32
  L 95.17 138.43
  A 1.05 1.05 0.0 0 0 94.38 139.23
  Q 90.94 154.94 83.78 168.98
  C 82.14 172.21 74.93 172.15 71.78 172.62
  C 67.73 173.23 64.03 172.04 59.74 172.94
  Q 59.25 173.04 58.80 172.82
  C 54.37 170.63 56.43 165.25 58.76 162.35
  Q 59.09 161.94 59.07 161.41
  L 57.80 135.80
  A 1.59 1.59 0.0 0 0 56.09 134.29
  C 37.98 135.62 33.67 116.55 31.32 103.74
  Q 31.22 103.19 30.72 103.44
  C 20.13 108.93 12.20 97.67 18.13 88.22
  Q 18.96 86.90 21.08 84.40
  Q 25.32 79.43 28.26 73.54
  C 30.19 69.69 31.87 66.23 34.96 63.03
  Q 39.65 58.18 44.16 53.16
  C 51.62 44.83 54.86 54.09 55.71 59.81
  Q 55.78 60.29 56.25 60.45
  C 69.23 64.87 75.72 77.63 86.55 86.24
  A 0.39 0.39 0.0 0 0 87.18 86.00
  C 88.26 79.97 95.02 72.33 99.68 81.08
  C 101.28 84.09 98.88 88.75 104.00 90.00
  C 108.03 90.98 115.60 93.13 117.95 88.81
  Q 118.23 88.30 118.77 88.10
  Q 126.23 85.37 129.19 92.72
  Z
  M 44.60 61.43
  L 50.34 63.34
  Q 50.91 63.53 50.81 62.94
  L 49.76 56.93
  A 0.85 0.85 0.0 0 0 48.29 56.50
  L 44.42 60.71
  Q 43.96 61.21 44.60 61.43
  Z
  M 39.34 66.28
  C 35.48 70.85 32.80 77.12 29.92 81.82
  A 0.75 0.75 0.0 0 0 30.50 82.96
  C 36.72 83.45 46.91 74.44 50.76 69.90
  A 0.18 0.18 0.0 0 0 50.69 69.62
  L 41.09 65.84
  Q 40.06 65.44 39.34 66.28
  Z
  M 64.87 91.99
  C 53.10 99.65 53.67 83.52 53.41 76.46
  Q 53.38 75.61 52.80 76.22
  Q 45.27 84.04 35.23 88.12
  Q 34.73 88.32 34.87 88.84
  L 35.95 92.99
  Q 36.08 93.51 36.53 93.20
  L 45.39 87.04
  Q 45.87 86.71 46.42 86.88
  Q 49.58 87.85 50.53 90.49
  C 53.42 98.60 54.40 108.51 56.72 116.42
  Q 58.32 121.91 60.38 127.07
  A 0.87 0.87 0.0 0 0 61.65 127.49
  C 70.36 122.14 74.71 116.25 80.93 108.04
  C 83.06 105.23 83.96 102.08 85.72 98.98
  C 86.85 96.99 86.57 95.36 86.47 93.21
  Q 86.44 92.60 85.91 92.31
  L 83.51 90.95
  Q 82.80 90.55 82.68 91.35
  C 81.90 96.36 79.99 103.76 75.33 106.20
  C 67.51 110.29 66.17 96.81 66.16 92.69
  A 0.83 0.83 0.0 0 0 64.87 91.99
  Z
  M 94.27 102.43
  Q 95.73 103.43 95.88 101.66
  Q 96.67 92.35 94.71 83.21
  A 0.63 0.63 0.0 0 0 93.53 83.06
  C 91.24 87.66 92.07 93.47 91.88 98.44
  C 91.79 100.93 92.44 101.19 94.27 102.43
  Z
  M 28.45 98.32
  C 32.24 95.53 29.59 89.81 26.91 87.34
  Q 26.58 87.04 26.23 87.32
  C 22.50 90.32 19.71 93.87 22.74 98.30
  Q 23.01 98.71 23.48 98.87
  Q 26.39 99.84 28.45 98.32
  Z
  M 119.81 95.97
  L 120.33 102.81
  A 0.58 0.58 0.0 0 0 121.39 103.09
  Q 124.20 98.90 123.65 93.79
  A 1.01 1.01 0.0 0 0 121.94 93.18
  L 120.20 94.92
  Q 119.77 95.36 119.81 95.97
  Z
  M 36.22 100.64
  C 36.82 110.47 41.45 128.66 54.25 128.74
  Q 54.85 128.74 54.65 128.18
  Q 50.27 116.15 49.78 112.74
  Q 48.43 103.36 46.00 94.15
  A 0.37 0.36 -24.0 0 0 45.45 93.94
  L 36.64 99.81
  Q 36.19 100.11 36.22 100.64
  Z
  M 113.67 96.91
  C 109.98 97.23 105.47 96.22 101.88 95.25
  Q 101.15 95.05 101.16 95.81
  L 101.45 115.44
  Q 101.46 116.02 101.84 116.46
  Q 105.46 120.59 111.13 119.28
  Q 111.60 119.17 111.86 118.76
  C 115.06 113.66 114.80 102.63 114.27 97.41
  Q 114.21 96.86 113.67 96.91
  Z
  M 107.56 125.19
  C 96.95 124.19 95.99 117.94 95.51 108.94
  Q 95.48 108.45 95.00 108.36
  Q 91.97 107.82 89.65 105.85
  Q 89.27 105.53 89.02 105.96
  C 82.32 117.22 74.83 126.66 63.45 132.93
  Q 63.08 133.13 63.10 133.56
  L 64.89 162.95
  Q 64.92 163.33 65.29 163.37
  L 69.44 163.89
  Q 69.93 163.95 70.07 163.48
  Q 74.35 149.61 78.43 135.68
  Q 79.84 130.90 79.21 128.32
  C 78.72 126.29 77.72 124.07 79.19 122.56
  C 84.58 117.02 84.85 130.41 84.71 132.09
  A 0.87 0.87 0.0 0 0 85.50 133.03
  C 94.13 133.77 103.18 130.65 111.42 128.35
  Q 114.18 127.58 116.24 125.66
  Q 116.59 125.34 117.06 125.28
  Q 119.97 124.94 120.53 127.76
  Q 122.73 138.73 129.16 146.58
  C 129.52 147.02 129.82 147.96 130.05 148.50
  Q 130.27 149.00 130.20 149.55
  L 128.20 163.63
  Q 128.13 164.10 128.61 164.14
  L 132.80 164.51
  Q 133.32 164.55 133.50 164.07
  Q 141.21 143.72 144.91 122.30
  Q 146.52 112.95 143.43 104.03
  C 141.23 97.66 135.19 97.54 129.67 98.76
  A 1.08 1.06 88.9 0 0 128.84 99.64
  Q 127.66 107.32 120.35 109.62
  Q 119.81 109.78 119.79 110.35
  C 119.56 118.20 117.18 126.09 107.56 125.19
  Z
  M 117.77 146.25
  C 121.99 150.13 121.40 156.54 119.64 161.66
  Q 119.45 162.19 120.01 162.22
  L 122.23 162.33
  Q 122.75 162.36 122.82 161.85
  L 124.48 150.51
  Q 124.56 149.95 124.20 149.50
  Q 118.38 142.32 115.98 133.43
  Q 115.83 132.86 115.28 133.08
  L 110.81 134.91
  Q 110.31 135.11 110.51 135.62
  Q 112.96 141.82 117.77 146.25
  Z
  M 88.95 139.70
  A 0.43 0.43 0.0 0 0 88.60 139.13
  L 84.06 138.54
  A 0.43 0.43 0.0 0 0 83.59 138.84
  L 76.33 162.37
  A 0.43 0.43 0.0 0 0 76.70 162.92
  L 80.56 163.29
  A 0.43 0.43 0.0 0 0 81.01 163.00
  L 88.95 139.70
  Z"
/>
<g fill="#6e423f">
<path d="
  M 50.34 63.34
  L 44.60 61.43
  Q 43.96 61.21 44.42 60.71
  L 48.29 56.50
  A 0.85 0.85 0.0 0 1 49.76 56.93
  L 50.81 62.94
  Q 50.91 63.53 50.34 63.34
  Z"
/>
<path d="
  M 39.34 66.28
  Q 40.06 65.44 41.09 65.84
  L 50.69 69.62
  A 0.18 0.18 0.0 0 1 50.76 69.90
  C 46.91 74.44 36.72 83.45 30.50 82.96
  A 0.75 0.75 0.0 0 1 29.92 81.82
  C 32.80 77.12 35.48 70.85 39.34 66.28
  Z"
/>
<path d="
  M 53.41 76.46
  C 53.67 83.52 53.10 99.65 64.87 91.99
  A 0.83 0.83 0.0 0 1 66.16 92.69
  C 66.17 96.81 67.51 110.29 75.33 106.20
  C 79.99 103.76 81.90 96.36 82.68 91.35
  Q 82.80 90.55 83.51 90.95
  L 85.91 92.31
  Q 86.44 92.60 86.47 93.21
  C 86.57 95.36 86.85 96.99 85.72 98.98
  C 83.96 102.08 83.06 105.23 80.93 108.04
  C 74.71 116.25 70.36 122.14 61.65 127.49
  A 0.87 0.87 0.0 0 1 60.38 127.07
  Q 58.32 121.91 56.72 116.42
  C 54.40 108.51 53.42 98.60 50.53 90.49
  Q 49.58 87.85 46.42 86.88
  Q 45.87 86.71 45.39 87.04
  L 36.53 93.20
  Q 36.08 93.51 35.95 92.99
  L 34.87 88.84
  Q 34.73 88.32 35.23 88.12
  Q 45.27 84.04 52.80 76.22
  Q 53.38 75.61 53.41 76.46
  Z"
/>
<path d="
  M 28.45 98.32
  Q 26.39 99.84 23.48 98.87
  Q 23.01 98.71 22.74 98.30
  C 19.71 93.87 22.50 90.32 26.23 87.32
  Q 26.58 87.04 26.91 87.34
  C 29.59 89.81 32.24 95.53 28.45 98.32
  Z"
/>
<path d="
  M 107.56 125.19
  C 117.18 126.09 119.56 118.20 119.79 110.35
  Q 119.81 109.78 120.35 109.62
  Q 127.66 107.32 128.84 99.64
  A 1.08 1.06 88.9 0 1 129.67 98.76
  C 135.19 97.54 141.23 97.66 143.43 104.03
  Q 146.52 112.95 144.91 122.30
  Q 141.21 143.72 133.50 164.07
  Q 133.32 164.55 132.80 164.51
  L 128.61 164.14
  Q 128.13 164.10 128.20 163.63
  L 130.20 149.55
  Q 130.27 149.00 130.05 148.50
  C 129.82 147.96 129.52 147.02 129.16 146.58
  Q 122.73 138.73 120.53 127.76
  Q 119.97 124.94 117.06 125.28
  Q 116.59 125.34 116.24 125.66
  Q 114.18 127.58 111.42 128.35
  C 103.18 130.65 94.13 133.77 85.50 133.03
  A 0.87 0.87 0.0 0 1 84.71 132.09
  C 84.85 130.41 84.58 117.02 79.19 122.56
  C 77.72 124.07 78.72 126.29 79.21 128.32
  Q 79.84 130.90 78.43 135.68
  Q 74.35 149.61 70.07 163.48
  Q 69.93 163.95 69.44 163.89
  L 65.29 163.37
  Q 64.92 163.33 64.89 162.95
  L 63.10 133.56
  Q 63.08 133.13 63.45 132.93
  C 74.83 126.66 82.32 117.22 89.02 105.96
  Q 89.27 105.53 89.65 105.85
  Q 91.97 107.82 95.00 108.36
  Q 95.48 108.45 95.51 108.94
  C 95.99 117.94 96.95 124.19 107.56 125.19
  Z"
/>
<path d="
  M 117.77 146.25
  Q 112.96 141.82 110.51 135.62
  Q 110.31 135.11 110.81 134.91
  L 115.28 133.08
  Q 115.83 132.86 115.98 133.43
  Q 118.38 142.32 124.20 149.50
  Q 124.56 149.95 124.48 150.51
  L 122.82 161.85
  Q 122.75 162.36 122.23 162.33
  L 120.01 162.22
  Q 119.45 162.19 119.64 161.66
  C 121.40 156.54 121.99 150.13 117.77 146.25
  Z"
/>
<path d="
  M 88.95 139.70
  L 81.01 163.00
  A 0.43 0.43 0.0 0 1 80.56 163.29
  L 76.70 162.92
  A 0.43 0.43 0.0 0 1 76.33 162.37
  L 83.59 138.84
  A 0.43 0.43 0.0 0 1 84.06 138.54
  L 88.60 139.13
  A 0.43 0.43 0.0 0 1 88.95 139.70
  Z"
/>
</g>
<g fill="#ebbc9e">
<path d="
  M 94.27 102.43
  C 92.44 101.19 91.79 100.93 91.88 98.44
  C 92.07 93.47 91.24 87.66 93.53 83.06
  A 0.63 0.63 0.0 0 1 94.71 83.21
  Q 96.67 92.35 95.88 101.66
  Q 95.73 103.43 94.27 102.43
  Z"
/>
<path d="
  M 120.20 94.92
  L 121.94 93.18
  A 1.01 1.01 0.0 0 1 123.65 93.79
  Q 124.20 98.90 121.39 103.09
  A 0.58 0.58 0.0 0 1 120.33 102.81
  L 119.81 95.97
  Q 119.77 95.36 120.20 94.92
  Z"
/>
<path d="
  M 101.88 95.25
  C 105.47 96.22 109.98 97.23 113.67 96.91
  Q 114.21 96.86 114.27 97.41
  C 114.80 102.63 115.06 113.66 111.86 118.76
  Q 111.60 119.17 111.13 119.28
  Q 105.46 120.59 101.84 116.46
  Q 101.46 116.02 101.45 115.44
  L 101.16 95.81
  Q 101.15 95.05 101.88 95.25
  Z"
/>
</g>
</svg>
