<?xml version="1.0" encoding="UTF-8" standalone="no"?>
<!DOCTYPE svg PUBLIC "-//W3C//DTD SVG 1.1//EN" "http://www.w3.org/Graphics/SVG/1.1/DTD/svg11.dtd">
<svg xmlns="http://www.w3.org/2000/svg" version="1.1" viewBox="0 0 180 180">
<g stroke-width="2.00" fill="none" stroke-linecap="butt">
<path stroke="#3d504e" vector-effect="non-scaling-stroke" d="
  M 104.64 41.96
  Q 117.45 47.34 127.83 56.58
  Q 128.41 57.10 128.47 56.32
  Q 129.56 42.94 128.30 29.60
  A 0.77 0.77 0.0 0 0 127.21 28.97
  Q 115.74 34.13 104.57 41.02
  Q 103.68 41.56 104.64 41.96"
/>
<path stroke="#3d504e" vector-effect="non-scaling-stroke" d="
  M 103.87 67.76
  C 106.59 69.78 108.38 72.88 110.50 75.56
  C 116.69 83.43 118.88 92.30 128.65 96.97
  Q 129.86 97.54 130.02 96.21
  C 130.90 88.85 129.00 83.95 126.60 77.32
  C 125.34 73.87 129.91 72.00 131.46 74.76
  Q 138.13 86.62 135.05 99.70
  C 133.44 106.57 124.82 102.04 121.69 99.43
  A 0.41 0.41 0.0 0 0 121.02 99.75
  C 121.14 104.02 120.10 107.28 117.49 110.86
  C 107.67 124.35 92.41 130.86 75.91 127.19
  Q 73.88 126.74 72.18 125.21
  C 68.03 121.50 64.98 118.56 58.71 117.62
  Q 58.02 117.51 58.48 118.04
  C 65.64 126.09 67.42 141.20 66.63 151.49
  Q 66.59 152.06 67.04 151.70
  C 71.99 147.75 72.36 139.90 77.55 135.59
  C 81.86 132.00 86.59 131.98 92.70 131.96
  C 103.13 131.93 113.56 128.23 123.02 123.52
  Q 139.81 115.16 143.64 97.57
  C 144.65 92.94 144.54 88.32 142.52 84.24
  C 139.21 77.58 134.86 70.95 129.21 65.68
  C 108.32 46.15 86.75 38.47 57.50 43.93
  Q 57.28 43.97 57.50 44.02
  C 74.95 47.85 89.74 57.26 103.87 67.76"
/>
<path stroke="#98989a" vector-effect="non-scaling-stroke" d="
  M 97.42 70.14
  C 81.12 58.59 63.26 47.10 42.81 49.65
  Q 41.15 49.85 40.26 51.22
  Q 39.94 51.71 40.09 52.26
  Q 42.41 60.76 49.17 66.40
  Q 49.56 66.73 50.06 66.61
  C 55.66 65.23 77.82 63.35 81.92 67.04
  C 87.44 72.00 79.40 75.06 75.25 76.24
  Q 72.39 77.06 67.43 79.54
  Q 67.01 79.76 67.41 80.01
  C 82.70 89.77 97.09 99.13 114.33 103.29
  Q 114.84 103.41 114.94 102.89
  C 116.47 95.06 113.77 89.99 108.54 83.99
  Q 108.20 83.60 108.12 83.10
  C 107.74 80.64 104.37 77.21 102.79 75.22
  Q 100.45 72.28 97.42 70.14"
/>
<path stroke="#9c4148" vector-effect="non-scaling-stroke" d="
  M 71.22 70.90
  Q 63.06 70.44 54.92 71.07
  A 0.38 0.38 0.0 0 0 54.75 71.77
  C 57.42 73.39 59.86 76.32 63.43 74.91
  Q 67.81 73.19 71.36 71.75
  Q 73.18 71.01 71.22 70.90"
/>
<path stroke="#3d504e" vector-effect="non-scaling-stroke" d="
  M 93.10 102.13
  L 76.35 92.45
  Q 75.81 92.13 75.93 92.75
  Q 77.92 102.42 82.47 111.15
  A 0.82 0.81 60.2 0 0 83.62 111.47
  Q 89.33 107.98 93.19 102.54
  Q 93.37 102.28 93.10 102.13"
/>
</g>
<path fill="#38383c" d="
  M 98.65 104.73
  C 95.08 110.39 82.96 124.57 76.90 112.84
  Q 71.08 101.58 69.70 89.06
  A 1.52 1.49 13.9 0 0 69.03 87.98
  Q 58.95 81.31 49.31 74.94
  Q 47.06 73.46 40.97 66.25
  Q 35.58 59.87 34.36 51.64
  C 33.40 45.24 48.33 40.06 52.73 39.08
  C 67.12 35.88 82.66 35.26 97.04 39.15
  Q 97.52 39.28 97.89 38.94
  C 104.08 33.09 114.93 28.47 122.61 24.56
  Q 126.18 22.74 128.19 22.93
  C 136.81 23.73 134.80 43.34 134.77 51.93
  C 134.76 54.64 134.14 58.22 134.05 61.42
  Q 134.04 61.95 134.40 62.33
  C 142.92 71.34 152.35 84.78 149.63 97.78
  C 144.54 122.10 123.86 132.41 101.53 137.13
  C 91.79 139.19 82.86 133.80 77.60 145.41
  Q 74.61 151.99 68.90 158.64
  C 67.13 160.69 61.24 167.35 59.08 162.19
  Q 58.70 161.27 59.10 159.83
  C 63.40 144.21 61.04 126.76 48.81 115.17
  Q 48.43 114.81 48.34 114.30
  C 46.85 105.97 66.40 113.91 68.99 115.25
  C 72.26 116.96 74.92 121.07 78.72 121.82
  C 91.52 124.38 103.14 119.16 111.39 109.25
  Q 111.67 108.91 111.25 108.77
  L 99.01 104.60
  A 0.31 0.30 -64.4 0 0 98.65 104.73
  Z
  M 104.64 41.96
  Q 117.45 47.34 127.83 56.58
  Q 128.41 57.10 128.47 56.32
  Q 129.56 42.94 128.30 29.60
  A 0.77 0.77 0.0 0 0 127.21 28.97
  Q 115.74 34.13 104.57 41.02
  Q 103.68 41.56 104.64 41.96
  Z
  M 103.87 67.76
  C 106.59 69.78 108.38 72.88 110.50 75.56
  C 116.69 83.43 118.88 92.30 128.65 96.97
  Q 129.86 97.54 130.02 96.21
  C 130.90 88.85 129.00 83.95 126.60 77.32
  C 125.34 73.87 129.91 72.00 131.46 74.76
  Q 138.13 86.62 135.05 99.70
  C 133.44 106.57 124.82 102.04 121.69 99.43
  A 0.41 0.41 0.0 0 0 121.02 99.75
  C 121.14 104.02 120.10 107.28 117.49 110.86
  C 107.67 124.35 92.41 130.86 75.91 127.19
  Q 73.88 126.74 72.18 125.21
  C 68.03 121.50 64.98 118.56 58.71 117.62
  Q 58.02 117.51 58.48 118.04
  C 65.64 126.09 67.42 141.20 66.63 151.49
  Q 66.59 152.06 67.04 151.70
  C 71.99 147.75 72.36 139.90 77.55 135.59
  C 81.86 132.00 86.59 131.98 92.70 131.96
  C 103.13 131.93 113.56 128.23 123.02 123.52
  Q 139.81 115.16 143.64 97.57
  C 144.65 92.94 144.54 88.32 142.52 84.24
  C 139.21 77.58 134.86 70.95 129.21 65.68
  C 108.32 46.15 86.75 38.47 57.50 43.93
  Q 57.28 43.97 57.50 44.02
  C 74.95 47.85 89.74 57.26 103.87 67.76
  Z
  M 97.42 70.14
  C 81.12 58.59 63.26 47.10 42.81 49.65
  Q 41.15 49.85 40.26 51.22
  Q 39.94 51.71 40.09 52.26
  Q 42.41 60.76 49.17 66.40
  Q 49.56 66.73 50.06 66.61
  C 55.66 65.23 77.82 63.35 81.92 67.04
  C 87.44 72.00 79.40 75.06 75.25 76.24
  Q 72.39 77.06 67.43 79.54
  Q 67.01 79.76 67.41 80.01
  C 82.70 89.77 97.09 99.13 114.33 103.29
  Q 114.84 103.41 114.94 102.89
  C 116.47 95.06 113.77 89.99 108.54 83.99
  Q 108.20 83.60 108.12 83.10
  C 107.74 80.64 104.37 77.21 102.79 75.22
  Q 100.45 72.28 97.42 70.14
  Z
  M 71.22 70.90
  Q 63.06 70.44 54.92 71.07
  A 0.38 0.38 0.0 0 0 54.75 71.77
  C 57.42 73.39 59.86 76.32 63.43 74.91
  Q 67.81 73.19 71.36 71.75
  Q 73.18 71.01 71.22 70.90
  Z
  M 93.10 102.13
  L 76.35 92.45
  Q 75.81 92.13 75.93 92.75
  Q 77.92 102.42 82.47 111.15
  A 0.82 0.81 60.2 0 0 83.62 111.47
  Q 89.33 107.98 93.19 102.54
  Q 93.37 102.28 93.10 102.13
  Z"
/>
<path fill="#f8f8f8" d="
  M 42.81 49.65
  C 63.26 47.10 81.12 58.59 97.42 70.14
  Q 100.45 72.28 102.79 75.22
  C 104.37 77.21 107.74 80.64 108.12 83.10
  Q 108.20 83.60 108.54 83.99
  C 113.77 89.99 116.47 95.06 114.94 102.89
  Q 114.84 103.41 114.33 103.29
  C 97.09 99.13 82.70 89.77 67.41 80.01
  Q 67.01 79.76 67.43 79.54
  Q 72.39 77.06 75.25 76.24
  C 79.40 75.06 87.44 72.00 81.92 67.04
  C 77.82 63.35 55.66 65.23 50.06 66.61
  Q 49.56 66.73 49.17 66.40
  Q 42.41 60.76 40.09 52.26
  Q 39.94 51.71 40.26 51.22
  Q 41.15 49.85 42.81 49.65
  Z"
/>
<g fill="#42685f">
<path d="
  M 104.57 41.02
  Q 115.74 34.13 127.21 28.97
  A 0.77 0.77 0.0 0 1 128.30 29.60
  Q 129.56 42.94 128.47 56.32
  Q 128.41 57.10 127.83 56.58
  Q 117.45 47.34 104.64 41.96
  Q 103.68 41.56 104.57 41.02
  Z"
/>
<path d="
  M 103.87 67.76
  C 89.74 57.26 74.95 47.85 57.50 44.02
  Q 57.28 43.97 57.50 43.93
  C 86.75 38.47 108.32 46.15 129.21 65.68
  C 134.86 70.95 139.21 77.58 142.52 84.24
  C 144.54 88.32 144.65 92.94 143.64 97.57
  Q 139.81 115.16 123.02 123.52
  C 113.56 128.23 103.13 131.93 92.70 131.96
  C 86.59 131.98 81.86 132.00 77.55 135.59
  C 72.36 139.90 71.99 147.75 67.04 151.70
  Q 66.59 152.06 66.63 151.49
  C 67.42 141.20 65.64 126.09 58.48 118.04
  Q 58.02 117.51 58.71 117.62
  C 64.98 118.56 68.03 121.50 72.18 125.21
  Q 73.88 126.74 75.91 127.19
  C 92.41 130.86 107.67 124.35 117.49 110.86
  C 120.10 107.28 121.14 104.02 121.02 99.75
  A 0.41 0.41 0.0 0 1 121.69 99.43
  C 124.82 102.04 133.44 106.57 135.05 99.70
  Q 138.13 86.62 131.46 74.76
  C 129.91 72.00 125.34 73.87 126.60 77.32
  C 129.00 83.95 130.90 88.85 130.02 96.21
  Q 129.86 97.54 128.65 96.97
  C 118.88 92.30 116.69 83.43 110.50 75.56
  C 108.38 72.88 106.59 69.78 103.87 67.76
  Z"
/>
<path d="
  M 93.10 102.13
  Q 93.37 102.28 93.19 102.54
  Q 89.33 107.98 83.62 111.47
  A 0.82 0.81 60.2 0 1 82.47 111.15
  Q 77.92 102.42 75.93 92.75
  Q 75.81 92.13 76.35 92.45
  L 93.10 102.13
  Z"
/>
</g>
<path fill="#ff4954" d="
  M 71.22 70.90
  Q 73.18 71.01 71.36 71.75
  Q 67.81 73.19 63.43 74.91
  C 59.86 76.32 57.42 73.39 54.75 71.77
  A 0.38 0.38 0.0 0 1 54.92 71.07
  Q 63.06 70.44 71.22 70.90
  Z"
/>
</svg>
