<?xml version="1.0" encoding="UTF-8" standalone="no"?>
<!DOCTYPE svg PUBLIC "-//W3C//DTD SVG 1.1//EN" "http://www.w3.org/Graphics/SVG/1.1/DTD/svg11.dtd">
<svg xmlns="http://www.w3.org/2000/svg" version="1.1" viewBox="0 0 180 180">
<path stroke="#98989a" stroke-width="2.00" fill="none" stroke-linecap="butt" vector-effect="non-scaling-stroke" d="
  M 67.97 148.69
  Q 69.88 147.53 71.96 146.52
  C 73.95 145.56 75.58 143.75 78.75 143.08
  Q 86.69 141.43 93.57 143.03
  C 96.31 143.66 108.01 150.92 102.09 154.13
  Q 101.66 154.36 101.20 154.20
  L 99.80 153.72
  Q 99.17 153.50 99.21 154.16
  Q 99.52 159.92 97.00 165.05
  Q 96.74 165.59 97.28 165.84
  C 108.30 170.90 123.37 168.52 126.14 154.78
  Q 126.24 154.28 126.69 154.01
  C 131.67 151.03 135.15 149.30 136.55 143.24
  C 138.43 135.18 136.81 123.20 128.10 119.57
  C 125.27 118.39 124.64 117.19 124.74 114.24
  C 125.44 95.00 105.24 92.03 91.03 95.59
  C 87.05 96.59 79.71 100.64 77.05 103.88
  C 75.48 105.79 73.47 109.32 70.38 107.38
  C 63.56 103.10 54.51 104.96 50.62 110.99
  C 46.13 117.95 47.52 129.45 51.18 136.96
  C 53.51 141.75 48.28 141.76 48.20 145.77
  C 47.93 159.52 61.03 169.37 73.81 165.70
  Q 74.35 165.55 74.10 165.05
  Q 71.28 159.30 72.65 152.97
  Q 72.88 151.90 71.95 152.48
  Q 69.00 154.34 67.29 151.40
  A 1.99 1.99 0.0 0 1 67.97 148.69"
/>
<path fill="#f8f8f8" d="
  M 67.97 148.69
  A 1.99 1.99 0.0 0 0 67.29 151.40
  Q 69.00 154.34 71.95 152.48
  Q 72.88 151.90 72.65 152.97
  Q 71.28 159.30 74.10 165.05
  Q 74.35 165.55 73.81 165.70
  C 61.03 169.37 47.93 159.52 48.20 145.77
  C 48.28 141.76 53.51 141.75 51.18 136.96
  C 47.52 129.45 46.13 117.95 50.62 110.99
  C 54.51 104.96 63.56 103.10 70.38 107.38
  C 73.47 109.32 75.48 105.79 77.05 103.88
  C 79.71 100.64 87.05 96.59 91.03 95.59
  C 105.24 92.03 125.44 95.00 124.74 114.24
  C 124.64 117.19 125.27 118.39 128.10 119.57
  C 136.81 123.20 138.43 135.18 136.55 143.24
  C 135.15 149.30 131.67 151.03 126.69 154.01
  Q 126.24 154.28 126.14 154.78
  C 123.37 168.52 108.30 170.90 97.28 165.84
  Q 96.74 165.59 97.00 165.05
  Q 99.52 159.92 99.21 154.16
  Q 99.17 153.50 99.80 153.72
  L 101.20 154.20
  Q 101.66 154.36 102.09 154.13
  C 108.01 150.92 96.31 143.66 93.57 143.03
  Q 86.69 141.43 78.75 143.08
  C 75.58 143.75 73.95 145.56 71.96 146.52
  Q 69.88 147.53 67.97 148.69
  Z"
/>
<path fill="#38383c" d="
  M 131.00 114.90
  C 146.42 121.28 146.97 148.83 132.72 157.08
  C 130.24 158.51 130.97 159.61 129.83 161.66
  C 127.65 165.58 124.97 168.99 120.79 170.95
  Q 108.17 176.85 94.95 171.04
  Q 94.49 170.84 94.14 171.19
  C 87.72 177.40 82.48 174.76 75.92 171.24
  Q 75.45 170.98 74.94 171.14
  Q 68.94 173.07 62.54 171.23
  Q 42.02 165.34 42.69 143.74
  Q 42.75 142.07 45.46 139.18
  Q 45.83 138.79 45.63 138.29
  C 40.04 124.80 40.14 105.19 56.77 100.26
  Q 63.47 98.27 70.97 101.44
  Q 71.42 101.63 71.76 101.28
  Q 87.47 85.20 110.26 89.75
  Q 130.16 93.71 130.50 114.16
  Q 130.51 114.70 131.00 114.90
  Z
  M 67.97 148.69
  Q 69.88 147.53 71.96 146.52
  C 73.95 145.56 75.58 143.75 78.75 143.08
  Q 86.69 141.43 93.57 143.03
  C 96.31 143.66 108.01 150.92 102.09 154.13
  Q 101.66 154.36 101.20 154.20
  L 99.80 153.72
  Q 99.17 153.50 99.21 154.16
  Q 99.52 159.92 97.00 165.05
  Q 96.74 165.59 97.28 165.84
  C 108.30 170.90 123.37 168.52 126.14 154.78
  Q 126.24 154.28 126.69 154.01
  C 131.67 151.03 135.15 149.30 136.55 143.24
  C 138.43 135.18 136.81 123.20 128.10 119.57
  C 125.27 118.39 124.64 117.19 124.74 114.24
  C 125.44 95.00 105.24 92.03 91.03 95.59
  C 87.05 96.59 79.71 100.64 77.05 103.88
  C 75.48 105.79 73.47 109.32 70.38 107.38
  C 63.56 103.10 54.51 104.96 50.62 110.99
  C 46.13 117.95 47.52 129.45 51.18 136.96
  C 53.51 141.75 48.28 141.76 48.20 145.77
  C 47.93 159.52 61.03 169.37 73.81 165.70
  Q 74.35 165.55 74.10 165.05
  Q 71.28 159.30 72.65 152.97
  Q 72.88 151.90 71.95 152.48
  Q 69.00 154.34 67.29 151.40
  A 1.99 1.99 0.0 0 1 67.97 148.69
  Z"
/>
</svg>
