<?xml version="1.0" encoding="UTF-8" standalone="no"?>
<!DOCTYPE svg PUBLIC "-//W3C//DTD SVG 1.1//EN" "http://www.w3.org/Graphics/SVG/1.1/DTD/svg11.dtd">
<svg xmlns="http://www.w3.org/2000/svg" version="1.1" viewBox="0 0 180 180">
<g stroke-width="2.00" fill="none" stroke-linecap="butt">
<path stroke="#98989a" vector-effect="non-scaling-stroke" d="
  M 114.60 94.18
  C 118.14 89.70 106.85 86.35 104.16 85.66
  Q 90.09 82.02 75.75 84.53
  C 73.41 84.94 66.02 87.37 71.33 90.94
  Q 71.75 91.22 72.24 91.11
  C 86.39 88.06 99.16 88.64 111.77 94.82
  A 2.32 2.30 32.1 0 0 114.60 94.18"
/>
<path stroke="#98989a" vector-effect="non-scaling-stroke" d="
  M 93.03 112.65
  A 3.10 3.10 0.0 0 0 89.93 109.55
  A 3.10 3.10 0.0 0 0 86.83 112.65
  A 3.10 3.10 0.0 0 0 89.93 115.75
  A 3.10 3.10 0.0 0 0 93.03 112.65"
/>
<path stroke="#98989a" vector-effect="non-scaling-stroke" d="
  M 83.06 119.50
  A 3.18 3.18 0.0 0 0 79.88 116.32
  A 3.18 3.18 0.0 0 0 76.70 119.50
  A 3.18 3.18 0.0 0 0 79.88 122.68
  A 3.18 3.18 0.0 0 0 83.06 119.50"
/>
<path stroke="#98989a" vector-effect="non-scaling-stroke" d="
  M 98.7132 123.5114
  A 3.63 3.08 95.8 0 0 102.1442 120.2113
  A 3.63 3.08 95.8 0 0 99.4468 116.2886
  A 3.63 3.08 95.8 0 0 96.0158 119.5887
  A 3.63 3.08 95.8 0 0 98.7132 123.5114"
/>
<path stroke="#98989a" vector-effect="non-scaling-stroke" d="
  M 92.97 123.78
  A 3.15 3.15 0.0 0 0 89.82 120.63
  A 3.15 3.15 0.0 0 0 86.67 123.78
  A 3.15 3.15 0.0 0 0 89.82 126.93
  A 3.15 3.15 0.0 0 0 92.97 123.78"
/>
<path stroke="#98989a" vector-effect="non-scaling-stroke" d="
  M 77.06 132.06
  Q 76.68 131.84 76.50 132.01
  A 1.69 0.70 -37.0 0 0 75.77 133.25
  Q 77.14 139.50 82.35 143.32
  A 0.97 0.97 0.0 0 0 83.78 142.09
  C 82.75 140.16 78.88 132.26 77.66 132.23
  Q 77.34 132.23 77.06 132.06"
/>
<path stroke="#98989a" vector-effect="non-scaling-stroke" d="
  M 101.60 133.38
  C 98.34 132.24 95.66 140.87 94.86 143.44
  Q 94.72 143.89 95.16 143.74
  C 99.21 142.40 100.28 138.43 101.88 133.96
  Q 102.03 133.53 101.60 133.38"
/>
</g>
<path fill="#38383c" d="
  M 89.00 144.00
  L 93.09 134.09
  Q 93.32 133.54 92.73 133.53
  L 85.81 133.42
  Q 85.06 133.41 85.52 134.01
  Q 89.01 138.51 89.00 144.00
  C 88.20 148.48 84.86 151.48 80.44 148.56
  C 73.93 144.26 69.77 137.89 70.76 129.97
  Q 70.82 129.46 70.41 129.15
  C 60.78 121.85 61.94 106.65 64.07 96.25
  Q 64.17 95.75 63.67 95.63
  Q 60.86 94.99 58.84 92.94
  Q 58.48 92.57 58.10 92.92
  Q 51.74 98.83 52.75 106.25
  Q 54.96 122.48 62.15 143.67
  C 63.65 148.10 61.70 155.31 55.66 153.90
  C 45.67 151.58 40.86 123.38 39.49 114.85
  C 37.88 104.82 36.73 96.98 42.31 89.60
  Q 46.14 84.53 54.43 77.28
  Q 54.81 76.95 54.89 76.45
  L 55.41 72.97
  Q 55.48 72.48 55.01 72.61
  C 33.04 78.26 37.07 99.34 34.83 116.00
  Q 34.58 117.85 32.67 119.14
  C 28.09 122.24 23.73 116.71 22.80 112.84
  C 20.86 104.73 21.93 95.89 23.01 87.72
  C 24.45 76.88 25.55 68.69 35.98 63.03
  C 43.69 58.84 53.14 57.89 61.48 54.63
  A 0.67 0.67 0.0 0 0 61.36 53.35
  C 49.99 51.32 46.59 48.34 49.25 36.44
  C 50.31 31.65 55.14 9.23 63.75 19.67
  C 67.08 23.71 65.72 28.84 64.49 34.50
  Q 64.22 35.74 65.04 37.75
  Q 65.23 38.22 65.71 38.40
  C 67.83 39.19 70.28 41.51 72.17 38.89
  C 73.42 37.16 72.24 37.13 71.49 35.94
  C 68.66 31.45 71.24 16.57 77.14 14.79
  C 84.26 12.64 83.49 24.83 83.48 28.48
  A 0.66 0.66 0.0 0 0 84.47 29.06
  C 95.04 23.01 107.83 25.45 116.65 33.52
  A 1.07 1.06 -54.2 0 0 118.31 33.25
  L 124.68 21.66
  Q 124.97 21.13 125.54 20.93
  C 134.16 17.97 132.54 30.81 131.47 35.49
  Q 130.19 41.05 126.16 44.97
  Q 125.82 45.30 126.02 45.72
  L 127.92 49.77
  Q 128.15 50.27 128.68 50.41
  C 131.43 51.14 133.17 50.14 133.96 47.34
  C 135.89 40.43 135.41 32.62 142.65 28.76
  Q 143.14 28.50 143.65 28.73
  Q 148.69 30.99 149.27 37.19
  Q 150.65 51.91 146.80 62.77
  C 145.26 67.13 137.65 68.10 133.55 68.03
  A 0.42 0.42 0.0 0 0 133.37 68.83
  C 140.76 72.17 148.05 74.07 155.10 78.36
  C 160.80 81.83 162.75 86.41 162.41 93.31
  C 161.74 106.74 158.72 119.81 155.17 132.73
  Q 154.01 136.96 150.07 139.82
  C 146.70 142.25 142.57 141.58 142.81 136.67
  C 143.48 122.96 147.83 109.65 146.29 96.25
  C 145.83 92.19 138.19 86.95 134.57 84.91
  Q 134.04 84.61 133.91 85.21
  L 132.94 89.89
  Q 132.85 90.35 133.10 90.75
  C 138.16 98.90 143.30 105.80 140.66 114.73
  Q 134.83 134.41 125.59 152.74
  C 122.48 158.92 113.62 159.79 115.10 150.74
  C 115.96 145.52 116.88 140.50 118.55 135.30
  C 122.70 122.43 126.86 113.07 123.12 102.21
  Q 122.94 101.68 122.38 101.75
  L 119.86 102.08
  Q 119.23 102.16 119.28 102.79
  C 119.99 112.77 118.26 126.68 108.68 131.47
  Q 108.21 131.71 108.07 132.21
  C 105.91 140.12 104.06 145.69 96.74 149.21
  C 92.51 151.24 87.98 149.32 89.00 144.00
  Z
  M 114.60 94.18
  C 118.14 89.70 106.85 86.35 104.16 85.66
  Q 90.09 82.02 75.75 84.53
  C 73.41 84.94 66.02 87.37 71.33 90.94
  Q 71.75 91.22 72.24 91.11
  C 86.39 88.06 99.16 88.64 111.77 94.82
  A 2.32 2.30 32.1 0 0 114.60 94.18
  Z
  M 93.03 112.65
  A 3.10 3.10 0.0 0 0 89.93 109.55
  A 3.10 3.10 0.0 0 0 86.83 112.65
  A 3.10 3.10 0.0 0 0 89.93 115.75
  A 3.10 3.10 0.0 0 0 93.03 112.65
  Z
  M 83.06 119.50
  A 3.18 3.18 0.0 0 0 79.88 116.32
  A 3.18 3.18 0.0 0 0 76.70 119.50
  A 3.18 3.18 0.0 0 0 79.88 122.68
  A 3.18 3.18 0.0 0 0 83.06 119.50
  Z
  M 98.7132 123.5114
  A 3.63 3.08 95.8 0 0 102.1442 120.2113
  A 3.63 3.08 95.8 0 0 99.4468 116.2886
  A 3.63 3.08 95.8 0 0 96.0158 119.5887
  A 3.63 3.08 95.8 0 0 98.7132 123.5114
  Z
  M 92.97 123.78
  A 3.15 3.15 0.0 0 0 89.82 120.63
  A 3.15 3.15 0.0 0 0 86.67 123.78
  A 3.15 3.15 0.0 0 0 89.82 126.93
  A 3.15 3.15 0.0 0 0 92.97 123.78
  Z
  M 77.06 132.06
  Q 76.68 131.84 76.50 132.01
  A 1.69 0.70 -37.0 0 0 75.77 133.25
  Q 77.14 139.50 82.35 143.32
  A 0.97 0.97 0.0 0 0 83.78 142.09
  C 82.75 140.16 78.88 132.26 77.66 132.23
  Q 77.34 132.23 77.06 132.06
  Z
  M 101.60 133.38
  C 98.34 132.24 95.66 140.87 94.86 143.44
  Q 94.72 143.89 95.16 143.74
  C 99.21 142.40 100.28 138.43 101.88 133.96
  Q 102.03 133.53 101.60 133.38
  Z"
/>
<g fill="#f8f8f8">
<path d="
  M 104.16 85.66
  C 106.85 86.35 118.14 89.70 114.60 94.18
  A 2.32 2.30 32.1 0 1 111.77 94.82
  C 99.16 88.64 86.39 88.06 72.24 91.11
  Q 71.75 91.22 71.33 90.94
  C 66.02 87.37 73.41 84.94 75.75 84.53
  Q 90.09 82.02 104.16 85.66
  Z"
/>
<circle cx="89.93" cy="112.65" r="3.10"/>
<circle cx="79.88" cy="119.50" r="3.18"/>
<ellipse cx="0.00" cy="0.00" transform="translate(99.08,119.90) rotate(95.8)" rx="3.63" ry="3.08"/>
<circle cx="89.82" cy="123.78" r="3.15"/>
<path d="
  M 77.66 132.23
  C 78.88 132.26 82.75 140.16 83.78 142.09
  A 0.97 0.97 0.0 0 1 82.35 143.32
  Q 77.14 139.50 75.77 133.25
  A 1.69 0.70 -37.0 0 1 76.50 132.01
  Q 76.68 131.84 77.06 132.06
  Q 77.34 132.23 77.66 132.23
  Z"
/>
<path d="
  M 94.86 143.44
  C 95.66 140.87 98.34 132.24 101.60 133.38
  Q 102.03 133.53 101.88 133.96
  C 100.28 138.43 99.21 142.40 95.16 143.74
  Q 94.72 143.89 94.86 143.44
  Z"
/>
</g>
</svg>
