<?xml version="1.0" encoding="UTF-8" standalone="no"?>
<!DOCTYPE svg PUBLIC "-//W3C//DTD SVG 1.1//EN" "http://www.w3.org/Graphics/SVG/1.1/DTD/svg11.dtd">
<svg xmlns="http://www.w3.org/2000/svg" version="1.1" viewBox="0 0 180 180">
<g stroke-width="2.00" fill="none" stroke-linecap="butt">
<path stroke="#927a6d" vector-effect="non-scaling-stroke" d="
  M 76.12 34.04
  C 73.24 32.09 70.76 26.94 68.42 24.02
  A 0.68 0.68 0.0 0 0 67.21 24.48
  C 67.37 27.39 70.45 30.15 72.46 33.06
  C 77.07 39.75 73.56 44.21 69.38 49.35
  Q 66.89 52.42 63.63 50.53
  Q 63.12 50.24 63.00 50.81
  C 62.63 52.54 64.73 54.16 64.07 57.00
  Q 63.98 57.41 64.39 57.46
  L 64.72 57.51
  Q 65.13 57.56 65.38 57.22
  C 68.12 53.32 72.02 52.21 74.60 48.81
  Q 79.37 42.50 80.45 40.45
  C 80.66 40.05 88.00 23.30 86.25 21.33
  A 0.88 0.88 0.0 0 0 84.79 21.54
  L 79.33 33.15
  A 2.20 2.19 -60.4 0 1 76.12 34.04"
/>
<path stroke="#927a6d" vector-effect="non-scaling-stroke" d="
  M 48.48 49.25
  C 42.93 51.02 39.84 44.61 37.99 40.70
  A 2.41 2.40 50.1 0 1 38.20 38.27
  C 41.08 34.26 44.77 30.65 46.93 25.96
  Q 47.14 25.51 46.79 25.16
  L 46.53 24.91
  Q 46.24 24.62 45.98 24.93
  Q 42.44 29.07 38.61 32.96
  C 34.86 36.76 31.65 26.76 30.31 24.49
  A 1.26 1.25 -23.1 0 0 28.88 23.92
  Q 27.02 24.46 28.04 26.49
  Q 33.77 37.89 40.59 48.69
  C 42.84 52.25 46.69 54.36 49.28 58.04
  Q 49.37 58.17 49.42 58.02
  Q 49.46 57.89 49.50 57.75
  Q 49.61 57.41 49.38 57.14
  Q 46.73 54.02 49.41 51.04
  Q 49.75 50.65 49.70 50.15
  Q 49.57 48.90 48.48 49.25"
/>
<path stroke="#533d3e" vector-effect="non-scaling-stroke" d="
  M 69.82 60.56
  A 1.42 1.41 -35.3 0 0 69.59 61.88
  L 71.49 67.72
  Q 71.63 68.14 72.02 67.93
  Q 79.66 63.70 79.28 54.76
  Q 79.24 53.95 78.48 54.23
  Q 73.22 56.17 69.82 60.56"
/>
<path stroke="#533d3e" vector-effect="non-scaling-stroke" d="
  M 44.38 67.56
  L 45.88 63.30
  Q 46.04 62.82 45.74 62.42
  Q 42.33 57.92 37.56 54.98
  Q 36.72 54.47 36.81 55.45
  Q 37.47 63.19 43.48 67.82
  Q 44.12 68.31 44.38 67.56"
/>
<path stroke="#533d3e" vector-effect="non-scaling-stroke" d="
  M 62.31 62.94
  C 52.76 59.10 48.27 67.68 50.20 75.75
  Q 52.03 83.39 57.34 89.67
  A 1.34 1.34 0.0 0 0 59.31 89.75
  Q 68.53 80.53 65.28 67.24
  Q 64.43 63.79 62.31 62.94"
/>
<path stroke="#533d3e" vector-effect="non-scaling-stroke" d="
  M 68.37 87.40
  C 65.15 92.69 58.75 101.13 52.46 92.48
  A 0.39 0.38 -64.6 0 0 51.77 92.73
  Q 52.36 105.49 54.57 117.99
  C 55.87 125.37 58.47 131.84 66.85 133.14
  Q 67.43 133.23 67.39 132.65
  C 67.17 129.18 63.80 114.02 67.82 112.58
  C 69.96 111.81 71.27 113.50 71.35 115.54
  C 71.71 124.43 71.88 131.63 76.70 139.10
  C 78.97 142.62 81.93 146.80 82.12 151.10
  C 82.36 156.87 82.03 162.24 83.37 168.01
  A 0.58 0.57 41.7 0 0 84.50 167.95
  Q 85.61 157.36 85.18 146.72
  Q 85.16 146.22 85.39 145.77
  C 88.51 139.67 88.52 129.02 88.07 122.32
  Q 87.87 119.24 90.58 118.55
  Q 91.08 118.42 91.53 118.68
  C 94.90 120.63 93.76 130.32 93.75 133.84
  Q 93.75 134.49 94.39 134.43
  L 111.89 132.93
  A 0.57 0.56 79.1 0 0 112.38 132.20
  C 111.59 129.56 108.71 119.66 114.73 120.81
  A 2.02 2.01 1.3 0 1 116.35 122.49
  C 117.55 130.60 119.07 137.45 124.20 144.01
  C 130.04 151.49 130.44 156.07 130.29 166.06
  Q 130.26 168.13 130.90 170.03
  Q 131.19 170.92 131.30 169.99
  C 132.36 160.48 131.94 150.39 134.54 141.19
  C 136.04 135.92 136.73 131.22 137.65 126.07
  C 139.24 117.26 135.86 109.48 126.00 108.88
  C 103.25 107.50 82.49 107.22 69.02 87.38
  A 0.39 0.39 0.0 0 0 68.37 87.40"
/>
<path stroke="#927a6d" vector-effect="non-scaling-stroke" d="
  M 143.49 115.82
  Q 146.71 111.98 147.11 106.98
  Q 147.16 106.28 146.47 106.26
  Q 142.49 106.11 138.84 107.57
  Q 138.24 107.81 138.67 108.30
  Q 141.52 111.55 142.82 115.69
  A 0.39 0.39 0.0 0 0 143.49 115.82"
/>
<path stroke="#533d3e" vector-effect="non-scaling-stroke" d="
  M 68.82 139.08
  C 64.25 138.77 60.89 138.40 57.51 135.43
  Q 55.78 133.91 56.27 136.16
  C 57.75 143.01 60.65 149.74 61.46 156.34
  Q 62.03 161.03 62.26 165.63
  A 0.31 0.31 0.0 0 0 62.87 165.67
  Q 64.09 158.96 64.87 152.46
  C 65.43 147.78 67.49 144.05 69.26 139.78
  Q 69.53 139.12 68.82 139.08"
/>
<path stroke="#533d3e" vector-effect="non-scaling-stroke" d="
  M 117.30 163.99
  Q 117.47 156.22 119.73 148.79
  A 1.52 1.49 34.3 0 0 119.45 147.37
  Q 116.32 143.51 114.48 138.89
  Q 114.27 138.35 113.69 138.44
  L 107.84 139.35
  Q 107.23 139.44 107.32 140.06
  C 108.20 146.03 113.01 150.87 114.85 156.99
  Q 115.99 160.80 116.54 164.05
  Q 117.22 168.04 117.30 163.99"
/>
</g>
<path fill="#38383c" d="
  M 123.64 155.94
  Q 122.87 162.62 122.63 169.34
  C 122.31 178.46 112.99 177.37 111.68 169.76
  C 110.09 160.58 109.39 156.67 104.83 149.67
  Q 102.44 145.99 101.74 140.39
  Q 101.66 139.75 101.01 139.75
  L 93.53 139.75
  Q 92.98 139.75 92.86 140.29
  C 92.17 143.53 90.97 146.29 91.01 149.61
  C 91.07 156.14 92.06 172.08 86.01 174.44
  C 81.45 176.22 78.34 171.29 77.27 167.24
  Q 75.90 162.05 76.68 151.18
  Q 76.72 150.61 76.44 150.11
  L 73.71 145.30
  A 0.40 0.40 0.0 0 0 72.98 145.37
  C 72.08 148.01 70.79 150.19 70.55 153.00
  Q 69.79 161.70 67.60 170.16
  C 65.89 176.75 58.48 174.61 57.27 169.25
  C 56.03 163.80 56.57 156.84 54.57 151.31
  Q 51.03 141.50 49.96 131.18
  C 48.36 115.67 46.15 100.55 45.84 84.90
  C 45.78 81.61 44.67 78.41 44.21 75.09
  Q 44.14 74.57 43.67 74.33
  Q 30.43 67.64 31.20 52.49
  Q 31.29 50.71 33.53 48.92
  Q 33.96 48.56 33.69 48.08
  Q 29.96 41.56 26.17 35.14
  C 23.69 30.93 19.43 24.19 24.35 20.21
  C 30.73 15.05 35.14 20.12 37.27 25.87
  A 0.35 0.35 0.0 0 0 37.85 25.98
  C 40.85 22.68 44.85 15.57 50.17 20.58
  C 56.20 26.26 47.57 34.91 44.04 39.32
  Q 43.68 39.76 43.97 40.24
  L 45.88 43.45
  Q 46.21 43.99 46.80 43.76
  C 50.87 42.17 52.75 44.79 55.02 47.53
  Q 55.34 47.92 55.43 48.41
  Q 55.96 51.45 53.84 53.60
  Q 53.35 54.10 53.77 54.66
  L 54.53 55.66
  Q 54.94 56.21 55.62 56.07
  L 57.81 55.62
  Q 58.46 55.48 58.22 54.85
  Q 55.51 47.90 61.83 44.59
  Q 63.37 43.78 65.24 44.96
  Q 65.63 45.21 65.98 44.92
  Q 69.18 42.29 69.32 38.26
  Q 69.34 37.66 68.94 37.22
  C 65.04 32.84 59.04 26.44 62.63 20.78
  C 67.43 13.23 73.98 21.77 76.48 25.72
  Q 76.87 26.33 77.13 25.66
  C 78.80 21.42 80.24 15.06 86.22 15.39
  C 99.98 16.14 84.81 44.39 82.08 47.92
  A 0.44 0.44 0.0 0 0 82.15 48.52
  Q 84.50 50.55 84.70 52.31
  Q 86.41 67.87 72.63 73.91
  Q 72.18 74.11 72.10 74.59
  C 71.71 76.95 71.14 78.99 72.17 81.28
  C 82.83 105.09 114.39 100.80 133.09 104.01
  Q 133.60 104.10 134.05 103.84
  C 139.02 100.97 153.17 96.71 152.74 106.91
  Q 152.33 116.48 144.59 122.30
  Q 144.19 122.60 144.12 123.09
  Q 142.43 134.10 139.48 144.79
  Q 138.44 148.58 138.31 152.33
  Q 137.86 165.96 136.74 172.99
  C 136.42 175.00 133.99 176.83 131.82 176.82
  C 124.28 176.81 124.43 168.30 124.57 162.75
  Q 124.66 159.40 124.05 155.93
  Q 123.81 154.56 123.64 155.94
  Z
  M 76.12 34.04
  C 73.24 32.09 70.76 26.94 68.42 24.02
  A 0.68 0.68 0.0 0 0 67.21 24.48
  C 67.37 27.39 70.45 30.15 72.46 33.06
  C 77.07 39.75 73.56 44.21 69.38 49.35
  Q 66.89 52.42 63.63 50.53
  Q 63.12 50.24 63.00 50.81
  C 62.63 52.54 64.73 54.16 64.07 57.00
  Q 63.98 57.41 64.39 57.46
  L 64.72 57.51
  Q 65.13 57.56 65.38 57.22
  C 68.12 53.32 72.02 52.21 74.60 48.81
  Q 79.37 42.50 80.45 40.45
  C 80.66 40.05 88.00 23.30 86.25 21.33
  A 0.88 0.88 0.0 0 0 84.79 21.54
  L 79.33 33.15
  A 2.20 2.19 -60.4 0 1 76.12 34.04
  Z
  M 48.48 49.25
  C 42.93 51.02 39.84 44.61 37.99 40.70
  A 2.41 2.40 50.1 0 1 38.20 38.27
  C 41.08 34.26 44.77 30.65 46.93 25.96
  Q 47.14 25.51 46.79 25.16
  L 46.53 24.91
  Q 46.24 24.62 45.98 24.93
  Q 42.44 29.07 38.61 32.96
  C 34.86 36.76 31.65 26.76 30.31 24.49
  A 1.26 1.25 -23.1 0 0 28.88 23.92
  Q 27.02 24.46 28.04 26.49
  Q 33.77 37.89 40.59 48.69
  C 42.84 52.25 46.69 54.36 49.28 58.04
  Q 49.37 58.17 49.42 58.02
  Q 49.46 57.89 49.50 57.75
  Q 49.61 57.41 49.38 57.14
  Q 46.73 54.02 49.41 51.04
  Q 49.75 50.65 49.70 50.15
  Q 49.57 48.90 48.48 49.25
  Z
  M 69.82 60.56
  A 1.42 1.41 -35.3 0 0 69.59 61.88
  L 71.49 67.72
  Q 71.63 68.14 72.02 67.93
  Q 79.66 63.70 79.28 54.76
  Q 79.24 53.95 78.48 54.23
  Q 73.22 56.17 69.82 60.56
  Z
  M 44.38 67.56
  L 45.88 63.30
  Q 46.04 62.82 45.74 62.42
  Q 42.33 57.92 37.56 54.98
  Q 36.72 54.47 36.81 55.45
  Q 37.47 63.19 43.48 67.82
  Q 44.12 68.31 44.38 67.56
  Z
  M 62.31 62.94
  C 52.76 59.10 48.27 67.68 50.20 75.75
  Q 52.03 83.39 57.34 89.67
  A 1.34 1.34 0.0 0 0 59.31 89.75
  Q 68.53 80.53 65.28 67.24
  Q 64.43 63.79 62.31 62.94
  Z
  M 68.37 87.40
  C 65.15 92.69 58.75 101.13 52.46 92.48
  A 0.39 0.38 -64.6 0 0 51.77 92.73
  Q 52.36 105.49 54.57 117.99
  C 55.87 125.37 58.47 131.84 66.85 133.14
  Q 67.43 133.23 67.39 132.65
  C 67.17 129.18 63.80 114.02 67.82 112.58
  C 69.96 111.81 71.27 113.50 71.35 115.54
  C 71.71 124.43 71.88 131.63 76.70 139.10
  C 78.97 142.62 81.93 146.80 82.12 151.10
  C 82.36 156.87 82.03 162.24 83.37 168.01
  A 0.58 0.57 41.7 0 0 84.50 167.95
  Q 85.61 157.36 85.18 146.72
  Q 85.16 146.22 85.39 145.77
  C 88.51 139.67 88.52 129.02 88.07 122.32
  Q 87.87 119.24 90.58 118.55
  Q 91.08 118.42 91.53 118.68
  C 94.90 120.63 93.76 130.32 93.75 133.84
  Q 93.75 134.49 94.39 134.43
  L 111.89 132.93
  A 0.57 0.56 79.1 0 0 112.38 132.20
  C 111.59 129.56 108.71 119.66 114.73 120.81
  A 2.02 2.01 1.3 0 1 116.35 122.49
  C 117.55 130.60 119.07 137.45 124.20 144.01
  C 130.04 151.49 130.44 156.07 130.29 166.06
  Q 130.26 168.13 130.90 170.03
  Q 131.19 170.92 131.30 169.99
  C 132.36 160.48 131.94 150.39 134.54 141.19
  C 136.04 135.92 136.73 131.22 137.65 126.07
  C 139.24 117.26 135.86 109.48 126.00 108.88
  C 103.25 107.50 82.49 107.22 69.02 87.38
  A 0.39 0.39 0.0 0 0 68.37 87.40
  Z
  M 143.49 115.82
  Q 146.71 111.98 147.11 106.98
  Q 147.16 106.28 146.47 106.26
  Q 142.49 106.11 138.84 107.57
  Q 138.24 107.81 138.67 108.30
  Q 141.52 111.55 142.82 115.69
  A 0.39 0.39 0.0 0 0 143.49 115.82
  Z
  M 68.82 139.08
  C 64.25 138.77 60.89 138.40 57.51 135.43
  Q 55.78 133.91 56.27 136.16
  C 57.75 143.01 60.65 149.74 61.46 156.34
  Q 62.03 161.03 62.26 165.63
  A 0.31 0.31 0.0 0 0 62.87 165.67
  Q 64.09 158.96 64.87 152.46
  C 65.43 147.78 67.49 144.05 69.26 139.78
  Q 69.53 139.12 68.82 139.08
  Z
  M 117.30 163.99
  Q 117.47 156.22 119.73 148.79
  A 1.52 1.49 34.3 0 0 119.45 147.37
  Q 116.32 143.51 114.48 138.89
  Q 114.27 138.35 113.69 138.44
  L 107.84 139.35
  Q 107.23 139.44 107.32 140.06
  C 108.20 146.03 113.01 150.87 114.85 156.99
  Q 115.99 160.80 116.54 164.05
  Q 117.22 168.04 117.30 163.99
  Z"
/>
<g fill="#6e423f">
<path d="
  M 69.82 60.56
  Q 73.22 56.17 78.48 54.23
  Q 79.24 53.95 79.28 54.76
  Q 79.66 63.70 72.02 67.93
  Q 71.63 68.14 71.49 67.72
  L 69.59 61.88
  A 1.42 1.41 -35.3 0 1 69.82 60.56
  Z"
/>
<path d="
  M 44.38 67.56
  Q 44.12 68.31 43.48 67.82
  Q 37.47 63.19 36.81 55.45
  Q 36.72 54.47 37.56 54.98
  Q 42.33 57.92 45.74 62.42
  Q 46.04 62.82 45.88 63.30
  L 44.38 67.56
  Z"
/>
<path d="
  M 62.31 62.94
  Q 64.43 63.79 65.28 67.24
  Q 68.53 80.53 59.31 89.75
  A 1.34 1.34 0.0 0 1 57.34 89.67
  Q 52.03 83.39 50.20 75.75
  C 48.27 67.68 52.76 59.10 62.31 62.94
  Z"
/>
<path d="
  M 52.46 92.48
  C 58.75 101.13 65.15 92.69 68.37 87.40
  A 0.39 0.39 0.0 0 1 69.02 87.38
  C 82.49 107.22 103.25 107.50 126.00 108.88
  C 135.86 109.48 139.24 117.26 137.65 126.07
  C 136.73 131.22 136.04 135.92 134.54 141.19
  C 131.94 150.39 132.36 160.48 131.30 169.99
  Q 131.19 170.92 130.90 170.03
  Q 130.26 168.13 130.29 166.06
  C 130.44 156.07 130.04 151.49 124.20 144.01
  C 119.07 137.45 117.55 130.60 116.35 122.49
  A 2.02 2.01 1.3 0 0 114.73 120.81
  C 108.71 119.66 111.59 129.56 112.38 132.20
  A 0.57 0.56 79.1 0 1 111.89 132.93
  L 94.39 134.43
  Q 93.75 134.49 93.75 133.84
  C 93.76 130.32 94.90 120.63 91.53 118.68
  Q 91.08 118.42 90.58 118.55
  Q 87.87 119.24 88.07 122.32
  C 88.52 129.02 88.51 139.67 85.39 145.77
  Q 85.16 146.22 85.18 146.72
  Q 85.61 157.36 84.50 167.95
  A 0.58 0.57 41.7 0 1 83.37 168.01
  C 82.03 162.24 82.36 156.87 82.12 151.10
  C 81.93 146.80 78.97 142.62 76.70 139.10
  C 71.88 131.63 71.71 124.43 71.35 115.54
  C 71.27 113.50 69.96 111.81 67.82 112.58
  C 63.80 114.02 67.17 129.18 67.39 132.65
  Q 67.43 133.23 66.85 133.14
  C 58.47 131.84 55.87 125.37 54.57 117.99
  Q 52.36 105.49 51.77 92.73
  A 0.39 0.38 -64.6 0 1 52.46 92.48
  Z"
/>
<path d="
  M 57.51 135.43
  C 60.89 138.40 64.25 138.77 68.82 139.08
  Q 69.53 139.12 69.26 139.78
  C 67.49 144.05 65.43 147.78 64.87 152.46
  Q 64.09 158.96 62.87 165.67
  A 0.31 0.31 0.0 0 1 62.26 165.63
  Q 62.03 161.03 61.46 156.34
  C 60.65 149.74 57.75 143.01 56.27 136.16
  Q 55.78 133.91 57.51 135.43
  Z"
/>
<path d="
  M 117.30 163.99
  Q 117.22 168.04 116.54 164.05
  Q 115.99 160.80 114.85 156.99
  C 113.01 150.87 108.20 146.03 107.32 140.06
  Q 107.23 139.44 107.84 139.35
  L 113.69 138.44
  Q 114.27 138.35 114.48 138.89
  Q 116.32 143.51 119.45 147.37
  A 1.52 1.49 34.3 0 1 119.73 148.79
  Q 117.47 156.22 117.30 163.99
  Z"
/>
</g>
<g fill="#ebbc9e">
<path d="
  M 76.12 34.04
  A 2.20 2.19 -60.4 0 0 79.33 33.15
  L 84.79 21.54
  A 0.88 0.88 0.0 0 1 86.25 21.33
  C 88.00 23.30 80.66 40.05 80.45 40.45
  Q 79.37 42.50 74.60 48.81
  C 72.02 52.21 68.12 53.32 65.38 57.22
  Q 65.13 57.56 64.72 57.51
  L 64.39 57.46
  Q 63.98 57.41 64.07 57.00
  C 64.73 54.16 62.63 52.54 63.00 50.81
  Q 63.12 50.24 63.63 50.53
  Q 66.89 52.42 69.38 49.35
  C 73.56 44.21 77.07 39.75 72.46 33.06
  C 70.45 30.15 67.37 27.39 67.21 24.48
  A 0.68 0.68 0.0 0 1 68.42 24.02
  C 70.76 26.94 73.24 32.09 76.12 34.04
  Z"
/>
<path d="
  M 37.99 40.70
  C 39.84 44.61 42.93 51.02 48.48 49.25
  Q 49.57 48.90 49.70 50.15
  Q 49.75 50.65 49.41 51.04
  Q 46.73 54.02 49.38 57.14
  Q 49.61 57.41 49.50 57.75
  Q 49.46 57.89 49.42 58.02
  Q 49.37 58.17 49.28 58.04
  C 46.69 54.36 42.84 52.25 40.59 48.69
  Q 33.77 37.89 28.04 26.49
  Q 27.02 24.46 28.88 23.92
  A 1.26 1.25 -23.1 0 1 30.31 24.49
  C 31.65 26.76 34.86 36.76 38.61 32.96
  Q 42.44 29.07 45.98 24.93
  Q 46.24 24.62 46.53 24.91
  L 46.79 25.16
  Q 47.14 25.51 46.93 25.96
  C 44.77 30.65 41.08 34.26 38.20 38.27
  A 2.41 2.40 50.1 0 0 37.99 40.70
  Z"
/>
<path d="
  M 143.49 115.82
  A 0.39 0.39 0.0 0 1 142.82 115.69
  Q 141.52 111.55 138.67 108.30
  Q 138.24 107.81 138.84 107.57
  Q 142.49 106.11 146.47 106.26
  Q 147.16 106.28 147.11 106.98
  Q 146.71 111.98 143.49 115.82
  Z"
/>
</g>
</svg>
