<?xml version="1.0" encoding="UTF-8" standalone="no"?>
<!DOCTYPE svg PUBLIC "-//W3C//DTD SVG 1.1//EN" "http://www.w3.org/Graphics/SVG/1.1/DTD/svg11.dtd">
<svg xmlns="http://www.w3.org/2000/svg" version="1.1" viewBox="0 0 180 180">
<g stroke-width="2.00" fill="none" stroke-linecap="butt">
<path stroke="#927a6d" vector-effect="non-scaling-stroke" d="
  M 113.17 96.76
  C 109.23 98.36 105.22 106.99 104.10 110.86
  C 102.95 114.78 104.73 120.95 104.77 125.26
  Q 104.77 125.69 105.01 125.33
  C 109.83 118.00 115.26 106.65 114.69 97.72
  A 1.11 1.11 0.0 0 0 113.17 96.76"
/>
<path stroke="#533d3e" vector-effect="non-scaling-stroke" d="
  M 110.56 148.94
  C 109.13 147.70 110.22 145.45 111.61 144.27
  C 113.70 142.49 116.48 136.49 112.28 135.67
  C 109.64 135.15 106.20 138.69 104.51 140.41
  Q 104.17 140.76 103.69 140.87
  C 99.78 141.79 99.26 139.43 99.23 136.20
  C 99.14 124.94 98.99 114.77 94.80 104.98
  C 93.77 102.56 91.27 101.11 88.92 100.80
  C 72.74 98.60 63.92 111.52 63.93 126.01
  Q 63.94 136.17 65.12 152.79
  C 66.02 165.41 99.20 160.90 108.27 159.81
  C 111.00 159.48 113.21 158.05 115.67 156.92
  C 117.66 156.01 123.04 149.25 118.12 148.01
  Q 117.62 147.88 117.17 148.13
  C 115.03 149.31 113.04 151.08 110.56 148.94"
/>
<path stroke="#927a6d" vector-effect="non-scaling-stroke" d="
  M 113.22 130.08
  Q 113.39 130.21 113.57 130.25
  Q 114.09 130.38 114.42 129.95
  Q 116.66 126.95 119.05 124.07
  Q 125.67 116.13 128.49 105.47
  A 1.48 1.47 -81.9 0 0 127.11 103.62
  C 121.52 103.47 119.39 107.62 117.59 112.71
  Q 114.36 121.87 108.77 129.90
  Q 108.49 130.30 108.98 130.26
  L 112.65 129.93
  Q 112.96 129.90 113.22 130.08"
/>
<path stroke="#927a6d" vector-effect="non-scaling-stroke" d="
  M 137.79 115.05
  C 134.41 113.67 131.83 114.14 130.10 117.59
  Q 125.88 126.00 119.22 132.72
  Q 118.81 133.14 119.07 133.65
  L 119.92 135.33
  Q 120.15 135.78 120.58 135.53
  C 127.58 131.52 136.35 124.51 138.41 116.27
  A 1.04 1.04 0.0 0 0 137.79 115.05"
/>
<path stroke="#927a6d" vector-effect="non-scaling-stroke" d="
  M 143.40 127.41
  C 140.97 126.34 139.65 127.13 137.84 129.00
  Q 130.23 136.91 120.55 142.14
  Q 120.22 142.32 120.54 142.51
  L 124.12 144.69
  Q 124.49 144.92 124.89 144.78
  C 128.93 143.46 143.14 134.63 144.24 129.01
  A 1.46 1.44 17.5 0 0 143.40 127.41"
/>
<path stroke="#927a6d" vector-effect="non-scaling-stroke" d="
  M 138.81 143.43
  C 138.54 143.09 131.09 148.38 130.11 148.96
  C 129.20 149.50 127.79 149.68 126.76 150.25
  Q 126.36 150.48 126.21 150.92
  L 124.21 156.68
  Q 124.13 156.89 124.35 156.84
  C 129.13 155.74 142.75 149.58 143.00 143.71
  Q 143.02 143.17 142.48 143.22
  L 139.10 143.56
  Q 138.92 143.57 138.81 143.43"
/>
<path stroke="#533d3e" vector-effect="non-scaling-stroke" d="
  M 90.10 117.54
  C 85.45 115.62 71.90 112.89 69.67 119.68
  C 68.33 123.74 73.40 129.94 76.02 132.75
  Q 76.37 133.11 76.09 133.53
  C 68.36 145.57 83.03 154.02 90.46 145.19
  Q 97.53 136.81 93.14 125.74
  Q 91.78 122.29 90.99 118.61
  Q 90.83 117.84 90.10 117.54"
/>
<path stroke="#9c8f4d" vector-effect="non-scaling-stroke" d="
  M 85.16 121.55
  L 75.63 120.87
  Q 74.60 120.80 75.03 121.73
  Q 76.69 125.40 79.53 128.19
  Q 79.95 128.60 80.51 128.48
  C 83.17 127.95 84.78 124.56 85.66 122.34
  Q 85.94 121.61 85.16 121.55"
/>
<path stroke="#9c4248" vector-effect="non-scaling-stroke" d="
  M 88.28 129.34
  C 85.69 131.50 82.13 134.84 80.25 137.51
  C 77.25 141.79 82.96 144.64 85.24 142.46
  Q 90.78 137.14 88.78 129.49
  Q 88.65 129.03 88.28 129.34"
/>
</g>
<g fill="#38383c">
<path d="
  M 145.54 138.07
  Q 150.22 140.34 148.55 145.59
  C 144.93 156.98 127.80 162.83 117.35 164.45
  C 111.95 165.29 104.42 166.58 97.97 166.68
  A 0.75 0.75 0.0 0 0 97.26 167.63
  C 98.63 172.64 92.37 174.49 91.88 167.97
  A 0.88 0.87 -4.0 0 0 90.95 167.17
  Q 83.34 167.65 75.79 166.56
  Q 74.30 166.34 74.77 167.78
  C 76.66 173.55 68.93 174.76 69.53 165.69
  Q 69.57 165.16 69.07 164.98
  Q 59.04 161.24 59.11 151.01
  C 59.24 133.05 53.08 107.63 73.85 97.15
  C 81.96 93.07 96.80 93.07 100.63 103.76
  Q 100.84 104.35 101.11 103.79
  C 103.31 99.21 106.57 94.12 110.89 91.96
  C 116.49 89.16 120.52 93.98 120.19 99.51
  Q 120.15 100.13 120.70 99.84
  C 128.53 95.68 135.54 98.48 133.51 108.40
  Q 133.34 109.26 134.21 109.18
  C 141.63 108.55 146.47 113.56 142.73 120.80
  Q 142.48 121.29 143.02 121.41
  C 152.34 123.49 151.08 132.57 145.48 137.63
  A 0.27 0.26 -53.2 0 0 145.54 138.07
  Z
  M 113.17 96.76
  C 109.23 98.36 105.22 106.99 104.10 110.86
  C 102.95 114.78 104.73 120.95 104.77 125.26
  Q 104.77 125.69 105.01 125.33
  C 109.83 118.00 115.26 106.65 114.69 97.72
  A 1.11 1.11 0.0 0 0 113.17 96.76
  Z
  M 110.56 148.94
  C 109.13 147.70 110.22 145.45 111.61 144.27
  C 113.70 142.49 116.48 136.49 112.28 135.67
  C 109.64 135.15 106.20 138.69 104.51 140.41
  Q 104.17 140.76 103.69 140.87
  C 99.78 141.79 99.26 139.43 99.23 136.20
  C 99.14 124.94 98.99 114.77 94.80 104.98
  C 93.77 102.56 91.27 101.11 88.92 100.80
  C 72.74 98.60 63.92 111.52 63.93 126.01
  Q 63.94 136.17 65.12 152.79
  C 66.02 165.41 99.20 160.90 108.27 159.81
  C 111.00 159.48 113.21 158.05 115.67 156.92
  C 117.66 156.01 123.04 149.25 118.12 148.01
  Q 117.62 147.88 117.17 148.13
  C 115.03 149.31 113.04 151.08 110.56 148.94
  Z
  M 113.22 130.08
  Q 113.39 130.21 113.57 130.25
  Q 114.09 130.38 114.42 129.95
  Q 116.66 126.95 119.05 124.07
  Q 125.67 116.13 128.49 105.47
  A 1.48 1.47 -81.9 0 0 127.11 103.62
  C 121.52 103.47 119.39 107.62 117.59 112.71
  Q 114.36 121.87 108.77 129.90
  Q 108.49 130.30 108.98 130.26
  L 112.65 129.93
  Q 112.96 129.90 113.22 130.08
  Z
  M 137.79 115.05
  C 134.41 113.67 131.83 114.14 130.10 117.59
  Q 125.88 126.00 119.22 132.72
  Q 118.81 133.14 119.07 133.65
  L 119.92 135.33
  Q 120.15 135.78 120.58 135.53
  C 127.58 131.52 136.35 124.51 138.41 116.27
  A 1.04 1.04 0.0 0 0 137.79 115.05
  Z
  M 143.40 127.41
  C 140.97 126.34 139.65 127.13 137.84 129.00
  Q 130.23 136.91 120.55 142.14
  Q 120.22 142.32 120.54 142.51
  L 124.12 144.69
  Q 124.49 144.92 124.89 144.78
  C 128.93 143.46 143.14 134.63 144.24 129.01
  A 1.46 1.44 17.5 0 0 143.40 127.41
  Z
  M 138.81 143.43
  C 138.54 143.09 131.09 148.38 130.11 148.96
  C 129.20 149.50 127.79 149.68 126.76 150.25
  Q 126.36 150.48 126.21 150.92
  L 124.21 156.68
  Q 124.13 156.89 124.35 156.84
  C 129.13 155.74 142.75 149.58 143.00 143.71
  Q 143.02 143.17 142.48 143.22
  L 139.10 143.56
  Q 138.92 143.57 138.81 143.43
  Z"
/>
<path d="
  M 90.10 117.54
  Q 90.83 117.84 90.99 118.61
  Q 91.78 122.29 93.14 125.74
  Q 97.53 136.81 90.46 145.19
  C 83.03 154.02 68.36 145.57 76.09 133.53
  Q 76.37 133.11 76.02 132.75
  C 73.40 129.94 68.33 123.74 69.67 119.68
  C 71.90 112.89 85.45 115.62 90.10 117.54
  Z
  M 85.16 121.55
  L 75.63 120.87
  Q 74.60 120.80 75.03 121.73
  Q 76.69 125.40 79.53 128.19
  Q 79.95 128.60 80.51 128.48
  C 83.17 127.95 84.78 124.56 85.66 122.34
  Q 85.94 121.61 85.16 121.55
  Z
  M 88.28 129.34
  C 85.69 131.50 82.13 134.84 80.25 137.51
  C 77.25 141.79 82.96 144.64 85.24 142.46
  Q 90.78 137.14 88.78 129.49
  Q 88.65 129.03 88.28 129.34
  Z"
/>
</g>
<g fill="#ebbc9e">
<path d="
  M 104.10 110.86
  C 105.22 106.99 109.23 98.36 113.17 96.76
  A 1.11 1.11 0.0 0 1 114.69 97.72
  C 115.26 106.65 109.83 118.00 105.01 125.33
  Q 104.77 125.69 104.77 125.26
  C 104.73 120.95 102.95 114.78 104.10 110.86
  Z"
/>
<path d="
  M 112.65 129.93
  L 108.98 130.26
  Q 108.49 130.30 108.77 129.90
  Q 114.36 121.87 117.59 112.71
  C 119.39 107.62 121.52 103.47 127.11 103.62
  A 1.48 1.47 -81.9 0 1 128.49 105.47
  Q 125.67 116.13 119.05 124.07
  Q 116.66 126.95 114.42 129.95
  Q 114.09 130.38 113.57 130.25
  Q 113.39 130.21 113.22 130.08
  Q 112.96 129.90 112.65 129.93
  Z"
/>
<path d="
  M 137.79 115.05
  A 1.04 1.04 0.0 0 1 138.41 116.27
  C 136.35 124.51 127.58 131.52 120.58 135.53
  Q 120.15 135.78 119.92 135.33
  L 119.07 133.65
  Q 118.81 133.14 119.22 132.72
  Q 125.88 126.00 130.10 117.59
  C 131.83 114.14 134.41 113.67 137.79 115.05
  Z"
/>
<path d="
  M 143.40 127.41
  A 1.46 1.44 17.5 0 1 144.24 129.01
  C 143.14 134.63 128.93 143.46 124.89 144.78
  Q 124.49 144.92 124.12 144.69
  L 120.54 142.51
  Q 120.22 142.32 120.55 142.14
  Q 130.23 136.91 137.84 129.00
  C 139.65 127.13 140.97 126.34 143.40 127.41
  Z"
/>
<path d="
  M 139.10 143.56
  L 142.48 143.22
  Q 143.02 143.17 143.00 143.71
  C 142.75 149.58 129.13 155.74 124.35 156.84
  Q 124.13 156.89 124.21 156.68
  L 126.21 150.92
  Q 126.36 150.48 126.76 150.25
  C 127.79 149.68 129.20 149.50 130.11 148.96
  C 131.09 148.38 138.54 143.09 138.81 143.43
  Q 138.92 143.57 139.10 143.56
  Z"
/>
</g>
<path fill="#6e423f" d="
  M 110.56 148.94
  C 113.04 151.08 115.03 149.31 117.17 148.13
  Q 117.62 147.88 118.12 148.01
  C 123.04 149.25 117.66 156.01 115.67 156.92
  C 113.21 158.05 111.00 159.48 108.27 159.81
  C 99.20 160.90 66.02 165.41 65.12 152.79
  Q 63.94 136.17 63.93 126.01
  C 63.92 111.52 72.74 98.60 88.92 100.80
  C 91.27 101.11 93.77 102.56 94.80 104.98
  C 98.99 114.77 99.14 124.94 99.23 136.20
  C 99.26 139.43 99.78 141.79 103.69 140.87
  Q 104.17 140.76 104.51 140.41
  C 106.20 138.69 109.64 135.15 112.28 135.67
  C 116.48 136.49 113.70 142.49 111.61 144.27
  C 110.22 145.45 109.13 147.70 110.56 148.94
  Z
  M 90.10 117.54
  C 85.45 115.62 71.90 112.89 69.67 119.68
  C 68.33 123.74 73.40 129.94 76.02 132.75
  Q 76.37 133.11 76.09 133.53
  C 68.36 145.57 83.03 154.02 90.46 145.19
  Q 97.53 136.81 93.14 125.74
  Q 91.78 122.29 90.99 118.61
  Q 90.83 117.84 90.10 117.54
  Z"
/>
<path fill="#ff4b54" d="
  M 80.25 137.51
  C 82.13 134.84 85.69 131.50 88.28 129.34
  Q 88.65 129.03 88.78 129.49
  Q 90.78 137.14 85.24 142.46
  C 82.96 144.64 77.25 141.79 80.25 137.51
  Z"
/>
<path fill="#ffe65d" d="
  M 85.16 121.55
  Q 85.94 121.61 85.66 122.34
  C 84.78 124.56 83.17 127.95 80.51 128.48
  Q 79.95 128.60 79.53 128.19
  Q 76.69 125.40 75.03 121.73
  Q 74.60 120.80 75.63 120.87
  L 85.16 121.55
  Z"
/>
</svg>
