<?xml version="1.0" encoding="UTF-8" standalone="no"?>
<!DOCTYPE svg PUBLIC "-//W3C//DTD SVG 1.1//EN" "http://www.w3.org/Graphics/SVG/1.1/DTD/svg11.dtd">
<svg xmlns="http://www.w3.org/2000/svg" version="1.1" viewBox="0 0 180 180">
<g stroke-width="2.00" fill="none" stroke-linecap="butt">
<path stroke="#533d3e" vector-effect="non-scaling-stroke" d="
  M 128.62 91.78
  C 123.10 86.43 115.87 81.30 108.39 79.70
  C 97.03 77.27 83.17 81.04 73.39 86.62
  A 0.83 0.82 -39.0 0 0 73.25 87.95
  C 79.00 93.08 84.80 99.62 92.55 100.49
  Q 104.06 101.79 115.67 101.57
  C 120.36 101.49 125.63 96.65 128.66 93.45
  A 1.20 1.19 -46.6 0 0 128.62 91.78"
/>
<path stroke="#533d3e" vector-effect="non-scaling-stroke" d="
  M 83.94 104.30
  Q 76.33 98.88 69.87 92.76
  C 69.04 91.97 68.79 90.90 67.30 91.14
  Q 56.17 92.88 52.67 103.48
  Q 52.52 103.96 52.94 104.24
  C 59.47 108.51 66.23 110.98 70.23 118.28
  Q 70.49 118.75 70.95 118.47
  Q 79.23 113.33 84.06 104.83
  A 0.41 0.40 -57.8 0 0 83.94 104.30"
/>
<path stroke="#533d3e" vector-effect="non-scaling-stroke" d="
  M 123.37 105.66
  C 123.70 116.48 127.04 122.21 136.01 127.89
  Q 136.48 128.18 136.85 127.77
  Q 139.62 124.76 143.76 124.68
  Q 144.22 124.67 144.37 124.23
  C 147.99 113.24 142.22 104.18 133.78 97.19
  Q 133.40 96.87 133.08 97.24
  Q 129.05 101.81 123.79 104.90
  Q 123.35 105.15 123.37 105.66"
/>
<path stroke="#82883e" vector-effect="non-scaling-stroke" d="
  M 57.35 113.89
  C 48.59 108.46 37.88 98.71 28.89 110.08
  Q 24.82 115.22 27.03 121.27
  Q 27.21 121.75 27.65 122.01
  Q 30.72 123.82 33.44 123.01
  C 44.41 119.75 50.03 123.00 58.40 129.59
  Q 60.59 131.31 63.38 131.51
  Q 63.90 131.55 64.26 131.15
  Q 65.16 130.15 65.50 128.49
  C 67.09 120.74 63.79 117.88 57.35 113.89"
/>
<path stroke="#533d3e" vector-effect="non-scaling-stroke" d="
  M 117.19 107.51
  C 108.03 107.50 99.72 107.25 90.62 106.24
  Q 90.18 106.19 89.92 106.55
  L 83.11 116.23
  Q 82.83 116.63 83.13 117.01
  L 97.67 135.84
  Q 98.02 136.29 98.59 136.25
  Q 104.21 135.90 109.13 138.53
  Q 109.62 138.80 110.05 138.44
  Q 117.83 131.90 120.94 122.22
  Q 121.09 121.76 120.89 121.32
  Q 118.00 115.02 117.77 108.06
  Q 117.75 107.51 117.19 107.51"
/>
<path stroke="#533d3e" vector-effect="non-scaling-stroke" d="
  M 61.67 145.33
  Q 74.04 151.26 87.82 151.03
  Q 88.45 151.02 88.47 150.40
  C 88.68 144.88 88.98 142.36 91.92 138.85
  Q 92.22 138.48 91.93 138.10
  L 78.73 120.80
  Q 78.31 120.24 77.73 120.66
  L 72.20 124.68
  Q 71.72 125.03 71.73 125.63
  C 71.84 130.96 69.29 137.74 62.93 137.51
  Q 62.29 137.49 62.22 138.13
  L 61.44 144.93
  A 0.40 0.39 15.6 0 0 61.67 145.33"
/>
<path stroke="#533d3e" vector-effect="non-scaling-stroke" d="
  M 134.24 133.64
  Q 129.57 131.14 125.93 127.32
  A 0.56 0.56 0.0 0 0 125.01 127.51
  Q 121.69 136.24 114.45 142.22
  Q 113.94 142.63 114.35 143.15
  Q 116.70 146.08 117.60 149.73
  Q 117.76 150.37 118.41 150.24
  Q 126.96 148.43 134.81 144.52
  Q 135.24 144.30 135.20 143.82
  L 134.36 133.83
  A 0.24 0.23 -78.6 0 0 134.24 133.64"
/>
<path stroke="#533d3e" vector-effect="non-scaling-stroke" d="
  M 56.69 135.55
  L 47.17 128.63
  A 0.62 0.61 15.9 0 0 46.19 129.17
  Q 46.89 138.48 55.33 142.29
  Q 55.83 142.51 55.91 141.97
  L 56.80 135.92
  Q 56.83 135.65 56.69 135.55"
/>
<path stroke="#82883e" vector-effect="non-scaling-stroke" d="
  M 154.16 151.65
  C 162.14 149.36 155.51 143.30 152.04 141.36
  Q 151.59 141.12 151.35 140.67
  C 150.00 138.22 145.46 127.59 141.48 131.33
  C 139.44 133.26 140.72 141.69 141.33 143.99
  Q 144.15 154.53 154.16 151.65"
/>
<path stroke="#82883e" vector-effect="non-scaling-stroke" d="
  M 41.11 136.51
  C 38.46 137.29 34.52 143.87 37.84 146.14
  Q 43.73 150.17 51.16 147.64
  A 0.46 0.45 50.0 0 0 51.23 146.81
  Q 44.94 143.38 41.93 136.89
  Q 41.68 136.35 41.11 136.51"
/>
<path stroke="#82883e" vector-effect="non-scaling-stroke" d="
  M 112.09 153.14
  C 111.83 144.60 103.12 139.73 95.59 143.42
  Q 95.13 143.65 94.99 144.15
  C 93.51 149.78 95.55 154.59 92.84 159.76
  C 90.85 163.56 91.17 166.36 95.74 167.47
  C 103.02 169.25 111.90 170.28 116.09 162.79
  A 2.42 2.40 -51.6 0 0 115.78 159.99
  L 113.47 157.43
  Q 113.09 157.01 113.22 156.45
  Q 113.56 154.99 112.55 154.10
  Q 112.11 153.72 112.09 153.14"
/>
</g>
<path fill="#38383c" d="
  M 87.22 157.00
  Q 71.89 157.13 58.29 150.19
  A 0.70 0.70 0.0 0 0 57.55 150.25
  Q 46.25 158.39 34.59 150.88
  C 26.73 145.82 32.73 132.47 40.11 131.08
  Q 40.77 130.96 40.75 130.28
  L 40.70 128.06
  Q 40.68 127.30 39.93 127.44
  C 32.07 128.86 23.22 131.08 20.88 120.45
  C 18.69 110.52 26.70 101.19 36.10 99.18
  C 39.74 98.40 43.37 99.76 46.89 100.94
  Q 47.40 101.11 47.63 100.62
  C 51.99 91.14 56.36 87.69 66.59 85.42
  Q 67.10 85.31 67.46 84.93
  C 77.52 74.35 101.76 70.32 114.86 75.64
  C 125.19 79.82 131.33 86.69 139.08 94.03
  C 147.96 102.44 153.85 111.89 150.39 124.69
  C 150.16 125.53 150.29 126.62 150.24 127.51
  Q 150.21 128.05 150.56 128.45
  Q 153.51 131.84 155.10 136.03
  Q 155.29 136.55 155.76 136.82
  C 167.71 143.75 165.97 158.20 150.15 157.84
  C 144.66 157.71 140.30 155.67 138.24 150.46
  A 1.00 1.00 0.0 0 0 136.84 149.94
  Q 129.02 154.15 120.31 155.65
  Q 119.79 155.74 120.14 156.14
  Q 124.06 160.58 120.90 165.90
  Q 115.83 174.44 105.75 174.50
  C 96.02 174.55 80.82 171.64 87.53 157.49
  Q 87.77 156.99 87.22 157.00
  Z
  M 128.62 91.78
  C 123.10 86.43 115.87 81.30 108.39 79.70
  C 97.03 77.27 83.17 81.04 73.39 86.62
  A 0.83 0.82 -39.0 0 0 73.25 87.95
  C 79.00 93.08 84.80 99.62 92.55 100.49
  Q 104.06 101.79 115.67 101.57
  C 120.36 101.49 125.63 96.65 128.66 93.45
  A 1.20 1.19 -46.6 0 0 128.62 91.78
  Z
  M 83.94 104.30
  Q 76.33 98.88 69.87 92.76
  C 69.04 91.97 68.79 90.90 67.30 91.14
  Q 56.17 92.88 52.67 103.48
  Q 52.52 103.96 52.94 104.24
  C 59.47 108.51 66.23 110.98 70.23 118.28
  Q 70.49 118.75 70.95 118.47
  Q 79.23 113.33 84.06 104.83
  A 0.41 0.40 -57.8 0 0 83.94 104.30
  Z
  M 123.37 105.66
  C 123.70 116.48 127.04 122.21 136.01 127.89
  Q 136.48 128.18 136.85 127.77
  Q 139.62 124.76 143.76 124.68
  Q 144.22 124.67 144.37 124.23
  C 147.99 113.24 142.22 104.18 133.78 97.19
  Q 133.40 96.87 133.08 97.24
  Q 129.05 101.81 123.79 104.90
  Q 123.35 105.15 123.37 105.66
  Z
  M 57.35 113.89
  C 48.59 108.46 37.88 98.71 28.89 110.08
  Q 24.82 115.22 27.03 121.27
  Q 27.21 121.75 27.65 122.01
  Q 30.72 123.82 33.44 123.01
  C 44.41 119.75 50.03 123.00 58.40 129.59
  Q 60.59 131.31 63.38 131.51
  Q 63.90 131.55 64.26 131.15
  Q 65.16 130.15 65.50 128.49
  C 67.09 120.74 63.79 117.88 57.35 113.89
  Z
  M 117.19 107.51
  C 108.03 107.50 99.72 107.25 90.62 106.24
  Q 90.18 106.19 89.92 106.55
  L 83.11 116.23
  Q 82.83 116.63 83.13 117.01
  L 97.67 135.84
  Q 98.02 136.29 98.59 136.25
  Q 104.21 135.90 109.13 138.53
  Q 109.62 138.80 110.05 138.44
  Q 117.83 131.90 120.94 122.22
  Q 121.09 121.76 120.89 121.32
  Q 118.00 115.02 117.77 108.06
  Q 117.75 107.51 117.19 107.51
  Z
  M 61.67 145.33
  Q 74.04 151.26 87.82 151.03
  Q 88.45 151.02 88.47 150.40
  C 88.68 144.88 88.98 142.36 91.92 138.85
  Q 92.22 138.48 91.93 138.10
  L 78.73 120.80
  Q 78.31 120.24 77.73 120.66
  L 72.20 124.68
  Q 71.72 125.03 71.73 125.63
  C 71.84 130.96 69.29 137.74 62.93 137.51
  Q 62.29 137.49 62.22 138.13
  L 61.44 144.93
  A 0.40 0.39 15.6 0 0 61.67 145.33
  Z
  M 134.24 133.64
  Q 129.57 131.14 125.93 127.32
  A 0.56 0.56 0.0 0 0 125.01 127.51
  Q 121.69 136.24 114.45 142.22
  Q 113.94 142.63 114.35 143.15
  Q 116.70 146.08 117.60 149.73
  Q 117.76 150.37 118.41 150.24
  Q 126.96 148.43 134.81 144.52
  Q 135.24 144.30 135.20 143.82
  L 134.36 133.83
  A 0.24 0.23 -78.6 0 0 134.24 133.64
  Z
  M 56.69 135.55
  L 47.17 128.63
  A 0.62 0.61 15.9 0 0 46.19 129.17
  Q 46.89 138.48 55.33 142.29
  Q 55.83 142.51 55.91 141.97
  L 56.80 135.92
  Q 56.83 135.65 56.69 135.55
  Z
  M 154.16 151.65
  C 162.14 149.36 155.51 143.30 152.04 141.36
  Q 151.59 141.12 151.35 140.67
  C 150.00 138.22 145.46 127.59 141.48 131.33
  C 139.44 133.26 140.72 141.69 141.33 143.99
  Q 144.15 154.53 154.16 151.65
  Z
  M 41.11 136.51
  C 38.46 137.29 34.52 143.87 37.84 146.14
  Q 43.73 150.17 51.16 147.64
  A 0.46 0.45 50.0 0 0 51.23 146.81
  Q 44.94 143.38 41.93 136.89
  Q 41.68 136.35 41.11 136.51
  Z
  M 112.09 153.14
  C 111.83 144.60 103.12 139.73 95.59 143.42
  Q 95.13 143.65 94.99 144.15
  C 93.51 149.78 95.55 154.59 92.84 159.76
  C 90.85 163.56 91.17 166.36 95.74 167.47
  C 103.02 169.25 111.90 170.28 116.09 162.79
  A 2.42 2.40 -51.6 0 0 115.78 159.99
  L 113.47 157.43
  Q 113.09 157.01 113.22 156.45
  Q 113.56 154.99 112.55 154.10
  Q 112.11 153.72 112.09 153.14
  Z"
/>
<g fill="#ccd73f">
<path d="
  M 57.35 113.89
  C 63.79 117.88 67.09 120.74 65.50 128.49
  Q 65.16 130.15 64.26 131.15
  Q 63.90 131.55 63.38 131.51
  Q 60.59 131.31 58.40 129.59
  C 50.03 123.00 44.41 119.75 33.44 123.01
  Q 30.72 123.82 27.65 122.01
  Q 27.21 121.75 27.03 121.27
  Q 24.82 115.22 28.89 110.08
  C 37.88 98.71 48.59 108.46 57.35 113.89
  Z"
/>
<path d="
  M 152.04 141.36
  C 155.51 143.30 162.14 149.36 154.16 151.65
  Q 144.15 154.53 141.33 143.99
  C 140.72 141.69 139.44 133.26 141.48 131.33
  C 145.46 127.59 150.00 138.22 151.35 140.67
  Q 151.59 141.12 152.04 141.36
  Z"
/>
<path d="
  M 37.84 146.14
  C 34.52 143.87 38.46 137.29 41.11 136.51
  Q 41.68 136.35 41.93 136.89
  Q 44.94 143.38 51.23 146.81
  A 0.46 0.45 50.0 0 1 51.16 147.64
  Q 43.73 150.17 37.84 146.14
  Z"
/>
<path d="
  M 95.59 143.42
  C 103.12 139.73 111.83 144.60 112.09 153.14
  Q 112.11 153.72 112.55 154.10
  Q 113.56 154.99 113.22 156.45
  Q 113.09 157.01 113.47 157.43
  L 115.78 159.99
  A 2.42 2.40 -51.6 0 1 116.09 162.79
  C 111.90 170.28 103.02 169.25 95.74 167.47
  C 91.17 166.36 90.85 163.56 92.84 159.76
  C 95.55 154.59 93.51 149.78 94.99 144.15
  Q 95.13 143.65 95.59 143.42
  Z"
/>
</g>
<g fill="#6e423f">
<path d="
  M 128.62 91.78
  A 1.20 1.19 -46.6 0 1 128.66 93.45
  C 125.63 96.65 120.36 101.49 115.67 101.57
  Q 104.06 101.79 92.55 100.49
  C 84.80 99.62 79.00 93.08 73.25 87.95
  A 0.83 0.82 -39.0 0 1 73.39 86.62
  C 83.17 81.04 97.03 77.27 108.39 79.70
  C 115.87 81.30 123.10 86.43 128.62 91.78
  Z"
/>
<path d="
  M 83.94 104.30
  A 0.41 0.40 -57.8 0 1 84.06 104.83
  Q 79.23 113.33 70.95 118.47
  Q 70.49 118.75 70.23 118.28
  C 66.23 110.98 59.47 108.51 52.94 104.24
  Q 52.52 103.96 52.67 103.48
  Q 56.17 92.88 67.30 91.14
  C 68.79 90.90 69.04 91.97 69.87 92.76
  Q 76.33 98.88 83.94 104.30
  Z"
/>
<path d="
  M 136.01 127.89
  C 127.04 122.21 123.70 116.48 123.37 105.66
  Q 123.35 105.15 123.79 104.90
  Q 129.05 101.81 133.08 97.24
  Q 133.40 96.87 133.78 97.19
  C 142.22 104.18 147.99 113.24 144.37 124.23
  Q 144.22 124.67 143.76 124.68
  Q 139.62 124.76 136.85 127.77
  Q 136.48 128.18 136.01 127.89
  Z"
/>
<path d="
  M 90.62 106.24
  C 99.72 107.25 108.03 107.50 117.19 107.51
  Q 117.75 107.51 117.77 108.06
  Q 118.00 115.02 120.89 121.32
  Q 121.09 121.76 120.94 122.22
  Q 117.83 131.90 110.05 138.44
  Q 109.62 138.80 109.13 138.53
  Q 104.21 135.90 98.59 136.25
  Q 98.02 136.29 97.67 135.84
  L 83.13 117.01
  Q 82.83 116.63 83.11 116.23
  L 89.92 106.55
  Q 90.18 106.19 90.62 106.24
  Z"
/>
<path d="
  M 61.67 145.33
  A 0.40 0.39 15.6 0 1 61.44 144.93
  L 62.22 138.13
  Q 62.29 137.49 62.93 137.51
  C 69.29 137.74 71.84 130.96 71.73 125.63
  Q 71.72 125.03 72.20 124.68
  L 77.73 120.66
  Q 78.31 120.24 78.73 120.80
  L 91.93 138.10
  Q 92.22 138.48 91.92 138.85
  C 88.98 142.36 88.68 144.88 88.47 150.40
  Q 88.45 151.02 87.82 151.03
  Q 74.04 151.26 61.67 145.33
  Z"
/>
<path d="
  M 134.24 133.64
  A 0.24 0.23 -78.6 0 1 134.36 133.83
  L 135.20 143.82
  Q 135.24 144.30 134.81 144.52
  Q 126.96 148.43 118.41 150.24
  Q 117.76 150.37 117.60 149.73
  Q 116.70 146.08 114.35 143.15
  Q 113.94 142.63 114.45 142.22
  Q 121.69 136.24 125.01 127.51
  A 0.56 0.56 0.0 0 1 125.93 127.32
  Q 129.57 131.14 134.24 133.64
  Z"
/>
<path d="
  M 47.17 128.63
  L 56.69 135.55
  Q 56.83 135.65 56.80 135.92
  L 55.91 141.97
  Q 55.83 142.51 55.33 142.29
  Q 46.89 138.48 46.19 129.17
  A 0.62 0.61 15.9 0 1 47.17 128.63
  Z"
/>
</g>
</svg>
