<?xml version="1.0" encoding="UTF-8" standalone="no"?>
<!DOCTYPE svg PUBLIC "-//W3C//DTD SVG 1.1//EN" "http://www.w3.org/Graphics/SVG/1.1/DTD/svg11.dtd">
<svg xmlns="http://www.w3.org/2000/svg" version="1.1" viewBox="0 0 180 180">
<g stroke-width="2.00" fill="none" stroke-linecap="butt">
<path stroke="#3d504e" vector-effect="non-scaling-stroke" d="
  M 112.56 133.06
  Q 112.90 132.70 114.37 131.94
  Q 114.81 131.71 115.31 131.81
  C 122.32 133.22 113.56 140.54 111.60 142.26
  Q 111.13 142.67 111.74 142.83
  C 118.50 144.59 133.09 143.99 137.02 136.77
  Q 143.16 125.48 142.70 112.68
  C 142.62 110.42 141.15 107.83 144.17 106.40
  C 145.12 105.95 146.60 106.06 147.66 105.15
  C 152.46 101.04 157.92 93.02 156.89 86.31
  Q 156.80 85.77 156.29 85.93
  C 150.00 87.80 146.43 91.19 140.88 93.94
  Q 140.44 94.15 139.97 94.01
  L 134.49 92.34
  Q 133.98 92.18 133.73 91.71
  Q 130.28 85.17 124.03 81.29
  Q 123.33 80.86 122.85 81.52
  C 119.19 86.56 126.90 99.02 130.62 102.71
  A 1.99 1.99 0.0 0 1 131.20 104.23
  Q 130.59 114.97 123.30 122.78
  Q 122.96 123.14 123.43 123.31
  C 125.90 124.18 132.95 122.99 131.57 127.52
  C 130.51 131.03 123.24 129.47 120.63 128.60
  C 115.34 126.84 110.72 122.74 107.16 118.43
  Q 104.82 115.60 102.70 110.64
  C 99.47 103.10 95.91 93.17 91.67 87.49
  C 80.32 72.28 62.02 74.12 46.08 79.21
  C 41.45 80.69 33.14 84.79 30.78 89.04
  C 28.90 92.44 25.80 94.02 25.03 97.88
  Q 24.55 100.31 26.85 99.38
  C 40.09 93.99 58.37 89.32 70.85 99.23
  C 78.59 105.38 83.79 114.55 89.36 122.50
  A 0.37 0.36 34.1 0 0 90.02 122.38
  Q 90.45 120.53 91.52 119.00
  C 93.67 115.92 97.61 117.83 96.22 121.49
  C 93.33 129.13 88.68 136.82 93.37 144.81
  Q 93.62 145.23 94.09 145.14
  C 101.88 143.59 106.89 139.07 112.56 133.06"
/>
<path stroke="#576461" vector-effect="non-scaling-stroke" d="
  M 125.46 149.47
  C 117.86 150.04 113.09 149.83 106.27 147.03
  Q 105.78 146.83 105.33 147.10
  C 101.11 149.62 92.05 153.45 88.85 148.66
  Q 83.23 140.27 86.96 129.90
  Q 87.13 129.42 86.83 129.01
  Q 82.14 122.59 75.82 113.18
  C 72.24 107.85 67.38 102.64 61.14 100.71
  C 50.51 97.42 37.28 100.74 27.60 105.44
  A 1.06 1.06 0.0 0 0 27.06 106.74
  C 31.87 120.75 39.30 134.66 51.06 143.55
  C 63.81 153.18 80.00 156.98 95.51 158.22
  C 104.87 158.97 117.94 156.11 125.65 149.96
  Q 126.33 149.41 125.46 149.47"
/>
<path stroke="#3d504e" vector-effect="non-scaling-stroke" d="
  M 33.65 150.59
  Q 40.80 152.17 47.09 148.69
  Q 47.63 148.39 47.13 148.02
  Q 40.27 142.99 35.62 135.87
  A 0.59 0.59 0.0 0 0 34.60 135.94
  Q 31.70 141.95 32.04 148.68
  A 2.07 2.06 -85.2 0 0 33.65 150.59"
/>
</g>
<g fill="#42685f">
<path d="
  M 112.56 133.06
  C 106.89 139.07 101.88 143.59 94.09 145.14
  Q 93.62 145.23 93.37 144.81
  C 88.68 136.82 93.33 129.13 96.22 121.49
  C 97.61 117.83 93.67 115.92 91.52 119.00
  Q 90.45 120.53 90.02 122.38
  A 0.37 0.36 34.1 0 1 89.36 122.50
  C 83.79 114.55 78.59 105.38 70.85 99.23
  C 58.37 89.32 40.09 93.99 26.85 99.38
  Q 24.55 100.31 25.03 97.88
  C 25.80 94.02 28.90 92.44 30.78 89.04
  C 33.14 84.79 41.45 80.69 46.08 79.21
  C 62.02 74.12 80.32 72.28 91.67 87.49
  C 95.91 93.17 99.47 103.10 102.70 110.64
  Q 104.82 115.60 107.16 118.43
  C 110.72 122.74 115.34 126.84 120.63 128.60
  C 123.24 129.47 130.51 131.03 131.57 127.52
  C 132.95 122.99 125.90 124.18 123.43 123.31
  Q 122.96 123.14 123.30 122.78
  Q 130.59 114.97 131.20 104.23
  A 1.99 1.99 0.0 0 0 130.62 102.71
  C 126.90 99.02 119.19 86.56 122.85 81.52
  Q 123.33 80.86 124.03 81.29
  Q 130.28 85.17 133.73 91.71
  Q 133.98 92.18 134.49 92.34
  L 139.97 94.01
  Q 140.44 94.15 140.88 93.94
  C 146.43 91.19 150.00 87.80 156.29 85.93
  Q 156.80 85.77 156.89 86.31
  C 157.92 93.02 152.46 101.04 147.66 105.15
  C 146.60 106.06 145.12 105.95 144.17 106.40
  C 141.15 107.83 142.62 110.42 142.70 112.68
  Q 143.16 125.48 137.02 136.77
  C 133.09 143.99 118.50 144.59 111.74 142.83
  Q 111.13 142.67 111.60 142.26
  C 113.56 140.54 122.32 133.22 115.31 131.81
  Q 114.81 131.71 114.37 131.94
  Q 112.90 132.70 112.56 133.06
  Z"
/>
<path d="
  M 33.65 150.59
  A 2.07 2.06 -85.2 0 1 32.04 148.68
  Q 31.70 141.95 34.60 135.94
  A 0.59 0.59 0.0 0 1 35.62 135.87
  Q 40.27 142.99 47.13 148.02
  Q 47.63 148.39 47.09 148.69
  Q 40.80 152.17 33.65 150.59
  Z"
/>
</g>
<path fill="#38383c" d="
  M 148.78 111.22
  C 148.44 121.89 147.05 132.75 140.90 141.86
  Q 135.67 149.61 127.56 155.58
  C 120.27 160.96 108.24 164.56 99.37 164.22
  C 83.49 163.60 66.70 160.30 52.92 151.99
  Q 52.49 151.74 52.10 152.04
  C 46.43 156.37 34.23 159.80 28.42 153.63
  C 23.42 148.33 27.92 135.99 31.44 130.87
  Q 31.72 130.46 31.48 130.02
  C 27.16 122.33 23.42 114.74 21.51 107.24
  C 20.30 102.51 17.63 100.05 19.87 94.69
  Q 20.77 92.54 24.06 88.11
  C 33.01 76.05 46.92 71.79 61.27 70.19
  Q 71.14 69.09 78.53 71.47
  C 97.78 77.65 102.05 94.98 109.35 111.47
  C 110.74 114.62 112.90 116.67 115.29 118.97
  C 120.34 123.84 125.06 108.89 125.37 106.00
  Q 125.42 105.52 125.10 105.15
  C 119.23 98.47 111.76 83.73 120.01 76.00
  C 125.15 71.17 135.64 83.96 137.87 87.77
  A 1.47 1.47 0.0 0 0 140.04 88.19
  C 143.73 85.35 154.18 78.85 158.87 80.25
  C 169.24 83.35 156.55 109.19 149.35 110.55
  Q 148.80 110.65 148.78 111.22
  Z
  M 112.56 133.06
  Q 112.90 132.70 114.37 131.94
  Q 114.81 131.71 115.31 131.81
  C 122.32 133.22 113.56 140.54 111.60 142.26
  Q 111.13 142.67 111.74 142.83
  C 118.50 144.59 133.09 143.99 137.02 136.77
  Q 143.16 125.48 142.70 112.68
  C 142.62 110.42 141.15 107.83 144.17 106.40
  C 145.12 105.95 146.60 106.06 147.66 105.15
  C 152.46 101.04 157.92 93.02 156.89 86.31
  Q 156.80 85.77 156.29 85.93
  C 150.00 87.80 146.43 91.19 140.88 93.94
  Q 140.44 94.15 139.97 94.01
  L 134.49 92.34
  Q 133.98 92.18 133.73 91.71
  Q 130.28 85.17 124.03 81.29
  Q 123.33 80.86 122.85 81.52
  C 119.19 86.56 126.90 99.02 130.62 102.71
  A 1.99 1.99 0.0 0 1 131.20 104.23
  Q 130.59 114.97 123.30 122.78
  Q 122.96 123.14 123.43 123.31
  C 125.90 124.18 132.95 122.99 131.57 127.52
  C 130.51 131.03 123.24 129.47 120.63 128.60
  C 115.34 126.84 110.72 122.74 107.16 118.43
  Q 104.82 115.60 102.70 110.64
  C 99.47 103.10 95.91 93.17 91.67 87.49
  C 80.32 72.28 62.02 74.12 46.08 79.21
  C 41.45 80.69 33.14 84.79 30.78 89.04
  C 28.90 92.44 25.80 94.02 25.03 97.88
  Q 24.55 100.31 26.85 99.38
  C 40.09 93.99 58.37 89.32 70.85 99.23
  C 78.59 105.38 83.79 114.55 89.36 122.50
  A 0.37 0.36 34.1 0 0 90.02 122.38
  Q 90.45 120.53 91.52 119.00
  C 93.67 115.92 97.61 117.83 96.22 121.49
  C 93.33 129.13 88.68 136.82 93.37 144.81
  Q 93.62 145.23 94.09 145.14
  C 101.88 143.59 106.89 139.07 112.56 133.06
  Z
  M 125.46 149.47
  C 117.86 150.04 113.09 149.83 106.27 147.03
  Q 105.78 146.83 105.33 147.10
  C 101.11 149.62 92.05 153.45 88.85 148.66
  Q 83.23 140.27 86.96 129.90
  Q 87.13 129.42 86.83 129.01
  Q 82.14 122.59 75.82 113.18
  C 72.24 107.85 67.38 102.64 61.14 100.71
  C 50.51 97.42 37.28 100.74 27.60 105.44
  A 1.06 1.06 0.0 0 0 27.06 106.74
  C 31.87 120.75 39.30 134.66 51.06 143.55
  C 63.81 153.18 80.00 156.98 95.51 158.22
  C 104.87 158.97 117.94 156.11 125.65 149.96
  Q 126.33 149.41 125.46 149.47
  Z
  M 33.65 150.59
  Q 40.80 152.17 47.09 148.69
  Q 47.63 148.39 47.13 148.02
  Q 40.27 142.99 35.62 135.87
  A 0.59 0.59 0.0 0 0 34.60 135.94
  Q 31.70 141.95 32.04 148.68
  A 2.07 2.06 -85.2 0 0 33.65 150.59
  Z"
/>
<path fill="#759086" d="
  M 106.27 147.03
  C 113.09 149.83 117.86 150.04 125.46 149.47
  Q 126.33 149.41 125.65 149.96
  C 117.94 156.11 104.87 158.97 95.51 158.22
  C 80.00 156.98 63.81 153.18 51.06 143.55
  C 39.30 134.66 31.87 120.75 27.06 106.74
  A 1.06 1.06 0.0 0 1 27.60 105.44
  C 37.28 100.74 50.51 97.42 61.14 100.71
  C 67.38 102.64 72.24 107.85 75.82 113.18
  Q 82.14 122.59 86.83 129.01
  Q 87.13 129.42 86.96 129.90
  Q 83.23 140.27 88.85 148.66
  C 92.05 153.45 101.11 149.62 105.33 147.10
  Q 105.78 146.83 106.27 147.03
  Z"
/>
</svg>
