<?xml version="1.0" encoding="UTF-8" standalone="no"?>
<!DOCTYPE svg PUBLIC "-//W3C//DTD SVG 1.1//EN" "http://www.w3.org/Graphics/SVG/1.1/DTD/svg11.dtd">
<svg xmlns="http://www.w3.org/2000/svg" version="1.1" viewBox="0 0 180 180">
<g stroke-width="2.00" fill="none" stroke-linecap="butt">
<path stroke="#576461" vector-effect="non-scaling-stroke" d="
  M 76.88 154.72
  A 2.04 2.03 -57.2 0 1 79.80 154.08
  C 83.19 156.47 81.95 162.67 81.22 165.95
  A 0.87 0.87 0.0 0 0 82.07 167.01
  L 86.15 166.99
  Q 86.83 166.98 86.75 166.31
  Q 86.10 160.74 87.24 155.22
  A 2.28 2.28 0.0 0 1 89.98 153.46
  C 93.80 154.34 92.32 161.70 92.17 164.76
  A 2.05 2.05 0.0 0 0 94.21 166.91
  L 100.30 166.94
  A 1.46 1.45 -82.1 0 0 101.70 165.88
  Q 102.82 162.01 102.22 158.04
  C 101.88 155.81 102.56 154.57 104.35 153.43
  Q 104.77 153.16 105.26 153.26
  C 109.71 154.16 108.10 161.49 107.88 164.89
  Q 107.83 165.61 108.55 165.58
  L 115.59 165.23
  Q 116.10 165.21 116.21 164.72
  C 118.25 156.03 115.41 147.48 111.96 139.02
  C 108.26 129.97 105.94 124.45 106.07 116.50
  Q 106.28 103.75 106.47 90.99
  C 106.52 87.59 107.49 80.73 106.48 76.01
  Q 105.82 72.92 103.78 66.80
  C 102.17 61.94 101.68 56.23 99.72 51.01
  A 0.46 0.46 0.0 0 0 98.86 51.02
  C 98.16 53.09 95.86 61.64 93.76 62.29
  C 91.39 63.02 83.18 65.07 82.09 60.97
  Q 80.58 55.33 78.75 49.92
  A 0.38 0.37 49.0 0 0 78.06 49.87
  Q 75.42 55.17 74.46 60.92
  C 73.55 66.44 70.22 71.71 68.43 77.15
  Q 68.26 77.68 67.73 77.85
  Q 64.65 78.91 60.48 78.71
  Q 56.01 78.50 47.64 79.78
  Q 46.96 79.88 46.83 80.55
  L 45.83 85.71
  Q 45.72 86.30 46.26 86.57
  Q 50.36 88.58 55.01 88.42
  Q 66.19 88.05 77.46 88.86
  Q 77.98 88.89 78.23 88.43
  C 80.04 85.01 83.83 79.33 87.70 78.23
  C 93.88 76.48 94.34 86.93 93.55 90.80
  C 92.09 97.90 79.93 94.74 74.68 94.41
  Q 74.13 94.37 74.15 94.92
  C 74.60 106.65 73.28 116.76 70.01 128.75
  C 66.64 141.08 63.11 151.61 64.42 164.74
  A 2.21 2.20 -0.8 0 0 66.45 166.71
  L 74.17 167.29
  Q 74.74 167.33 74.93 166.79
  C 76.44 162.33 75.24 157.54 76.88 154.72"
/>
<path stroke="#9a9a9c" vector-effect="non-scaling-stroke" d="
  M 87.43 89.77
  A 0.97 0.96 -86.8 0 0 88.50 88.81
  L 88.50 84.63
  Q 88.50 83.23 87.64 84.33
  L 84.14 88.78
  Q 83.69 89.34 84.41 89.42
  L 87.43 89.77"
/>
<path stroke="#576461" vector-effect="non-scaling-stroke" d="
  M 137.77 116.97
  C 137.02 114.03 133.91 112.72 131.12 113.36
  Q 130.60 113.48 130.71 114.00
  C 133.01 124.25 132.12 140.32 120.68 145.05
  Q 120.24 145.23 120.39 145.67
  Q 122.59 151.99 122.96 158.64
  C 123.01 159.54 123.66 160.66 124.62 160.51
  A 0.84 0.83 83.6 0 0 125.32 159.63
  C 124.96 154.64 122.81 141.76 133.06 150.28
  A 0.69 0.69 0.0 0 0 134.19 149.79
  Q 134.43 145.11 133.32 140.46
  C 131.80 134.04 133.89 132.24 140.06 131.67
  Q 140.65 131.61 140.43 131.06
  C 138.91 127.27 131.75 120.78 137.42 117.76
  Q 137.90 117.50 137.77 116.97"
/>
<path stroke="#576461" vector-effect="non-scaling-stroke" d="
  M 81.03 123.96
  A 0.22 0.22 0.0 0 1 81.25 123.60
  C 85.12 124.60 87.34 121.93 85.47 118.40
  Q 84.32 116.21 82.50 114.35
  Q 82.05 113.88 82.70 113.86
  C 89.24 113.63 87.27 101.82 83.27 101.69
  Q 82.68 101.68 82.32 102.15
  Q 80.43 104.60 81.48 107.83
  Q 81.69 108.49 81.00 108.52
  Q 76.84 108.74 75.47 112.69
  Q 75.30 113.17 75.58 113.59
  L 78.68 118.36
  Q 78.90 118.69 78.51 118.76
  C 69.81 120.31 78.14 129.29 80.57 131.74
  Q 80.93 132.11 80.84 132.61
  C 80.48 134.56 81.28 138.34 84.03 137.71
  C 87.06 137.03 86.27 132.76 86.25 130.43
  Q 86.24 129.92 85.91 129.53
  L 81.03 123.96"
/>
</g>
<g fill="#759086">
<path d="
  M 76.88 154.72
  C 75.24 157.54 76.44 162.33 74.93 166.79
  Q 74.74 167.33 74.17 167.29
  L 66.45 166.71
  A 2.21 2.20 -0.8 0 1 64.42 164.74
  C 63.11 151.61 66.64 141.08 70.01 128.75
  C 73.28 116.76 74.60 106.65 74.15 94.92
  Q 74.13 94.37 74.68 94.41
  C 79.93 94.74 92.09 97.90 93.55 90.80
  C 94.34 86.93 93.88 76.48 87.70 78.23
  C 83.83 79.33 80.04 85.01 78.23 88.43
  Q 77.98 88.89 77.46 88.86
  Q 66.19 88.05 55.01 88.42
  Q 50.36 88.58 46.26 86.57
  Q 45.72 86.30 45.83 85.71
  L 46.83 80.55
  Q 46.96 79.88 47.64 79.78
  Q 56.01 78.50 60.48 78.71
  Q 64.65 78.91 67.73 77.85
  Q 68.26 77.68 68.43 77.15
  C 70.22 71.71 73.55 66.44 74.46 60.92
  Q 75.42 55.17 78.06 49.87
  A 0.38 0.37 49.0 0 1 78.75 49.92
  Q 80.58 55.33 82.09 60.97
  C 83.18 65.07 91.39 63.02 93.76 62.29
  C 95.86 61.64 98.16 53.09 98.86 51.02
  A 0.46 0.46 0.0 0 1 99.72 51.01
  C 101.68 56.23 102.17 61.94 103.78 66.80
  Q 105.82 72.92 106.48 76.01
  C 107.49 80.73 106.52 87.59 106.47 90.99
  Q 106.28 103.75 106.07 116.50
  C 105.94 124.45 108.26 129.97 111.96 139.02
  C 115.41 147.48 118.25 156.03 116.21 164.72
  Q 116.10 165.21 115.59 165.23
  L 108.55 165.58
  Q 107.83 165.61 107.88 164.89
  C 108.10 161.49 109.71 154.16 105.26 153.26
  Q 104.77 153.16 104.35 153.43
  C 102.56 154.57 101.88 155.81 102.22 158.04
  Q 102.82 162.01 101.70 165.88
  A 1.46 1.45 -82.1 0 1 100.30 166.94
  L 94.21 166.91
  A 2.05 2.05 0.0 0 1 92.17 164.76
  C 92.32 161.70 93.80 154.34 89.98 153.46
  A 2.28 2.28 0.0 0 0 87.24 155.22
  Q 86.10 160.74 86.75 166.31
  Q 86.83 166.98 86.15 166.99
  L 82.07 167.01
  A 0.87 0.87 0.0 0 1 81.22 165.95
  C 81.95 162.67 83.19 156.47 79.80 154.08
  A 2.04 2.03 -57.2 0 0 76.88 154.72
  Z
  M 81.03 123.96
  A 0.22 0.22 0.0 0 1 81.25 123.60
  C 85.12 124.60 87.34 121.93 85.47 118.40
  Q 84.32 116.21 82.50 114.35
  Q 82.05 113.88 82.70 113.86
  C 89.24 113.63 87.27 101.82 83.27 101.69
  Q 82.68 101.68 82.32 102.15
  Q 80.43 104.60 81.48 107.83
  Q 81.69 108.49 81.00 108.52
  Q 76.84 108.74 75.47 112.69
  Q 75.30 113.17 75.58 113.59
  L 78.68 118.36
  Q 78.90 118.69 78.51 118.76
  C 69.81 120.31 78.14 129.29 80.57 131.74
  Q 80.93 132.11 80.84 132.61
  C 80.48 134.56 81.28 138.34 84.03 137.71
  C 87.06 137.03 86.27 132.76 86.25 130.43
  Q 86.24 129.92 85.91 129.53
  L 81.03 123.96
  Z"
/>
<path d="
  M 131.12 113.36
  C 133.91 112.72 137.02 114.03 137.77 116.97
  Q 137.90 117.50 137.42 117.76
  C 131.75 120.78 138.91 127.27 140.43 131.06
  Q 140.65 131.61 140.06 131.67
  C 133.89 132.24 131.80 134.04 133.32 140.46
  Q 134.43 145.11 134.19 149.79
  A 0.69 0.69 0.0 0 1 133.06 150.28
  C 122.81 141.76 124.96 154.64 125.32 159.63
  A 0.84 0.83 83.6 0 1 124.62 160.51
  C 123.66 160.66 123.01 159.54 122.96 158.64
  Q 122.59 151.99 120.39 145.67
  Q 120.24 145.23 120.68 145.05
  C 132.12 140.32 133.01 124.25 130.71 114.00
  Q 130.60 113.48 131.12 113.36
  Z"
/>
</g>
<g fill="#38383c">
<path d="
  M 139.14 137.41
  Q 138.20 137.93 138.52 138.95
  C 140.16 144.14 142.00 159.66 130.96 155.46
  A 0.32 0.32 0.0 0 0 130.53 155.83
  Q 131.54 160.95 129.03 165.42
  Q 128.79 165.84 128.35 166.05
  Q 125.54 167.38 122.72 166.22
  Q 122.14 165.98 121.97 166.58
  C 120.14 173.25 108.52 170.40 103.33 171.99
  C 97.97 173.64 92.80 171.93 87.35 172.55
  C 83.79 172.96 80.28 172.42 76.90 172.71
  C 67.29 173.53 59.27 173.38 58.71 161.87
  C 57.90 145.30 64.05 133.24 66.96 117.16
  Q 68.98 106.04 68.40 95.07
  Q 68.34 93.89 67.16 93.93
  C 54.86 94.33 34.63 97.39 42.29 76.36
  Q 42.47 75.87 42.96 75.68
  Q 51.09 72.50 59.74 73.36
  Q 61.02 73.48 63.67 72.95
  Q 64.15 72.85 64.32 72.38
  C 65.89 67.99 68.15 64.28 69.10 59.63
  C 70.02 55.11 72.97 44.41 77.08 41.88
  Q 77.52 41.61 78.03 41.71
  C 82.82 42.65 85.90 53.40 86.46 57.20
  Q 86.56 57.82 87.18 57.75
  L 90.66 57.36
  Q 91.29 57.29 91.42 56.68
  C 92.24 53.05 95.74 38.33 101.61 44.76
  C 105.63 49.16 106.59 53.62 107.80 59.78
  C 109.25 67.16 112.65 73.92 112.42 81.63
  Q 111.95 97.67 111.85 113.71
  C 111.79 123.40 113.66 130.59 118.24 138.49
  A 1.68 1.68 0.0 0 0 120.95 138.76
  C 127.80 131.04 126.17 121.95 124.51 111.52
  C 123.93 107.89 126.98 106.49 130.22 106.93
  C 136.11 107.74 140.83 109.06 143.11 115.05
  Q 144.37 118.36 141.70 121.38
  Q 141.33 121.80 141.69 122.22
  C 144.91 125.90 150.38 137.15 141.29 137.08
  Q 139.75 137.07 139.14 137.41
  Z
  M 76.88 154.72
  A 2.04 2.03 -57.2 0 1 79.80 154.08
  C 83.19 156.47 81.95 162.67 81.22 165.95
  A 0.87 0.87 0.0 0 0 82.07 167.01
  L 86.15 166.99
  Q 86.83 166.98 86.75 166.31
  Q 86.10 160.74 87.24 155.22
  A 2.28 2.28 0.0 0 1 89.98 153.46
  C 93.80 154.34 92.32 161.70 92.17 164.76
  A 2.05 2.05 0.0 0 0 94.21 166.91
  L 100.30 166.94
  A 1.46 1.45 -82.1 0 0 101.70 165.88
  Q 102.82 162.01 102.22 158.04
  C 101.88 155.81 102.56 154.57 104.35 153.43
  Q 104.77 153.16 105.26 153.26
  C 109.71 154.16 108.10 161.49 107.88 164.89
  Q 107.83 165.61 108.55 165.58
  L 115.59 165.23
  Q 116.10 165.21 116.21 164.72
  C 118.25 156.03 115.41 147.48 111.96 139.02
  C 108.26 129.97 105.94 124.45 106.07 116.50
  Q 106.28 103.75 106.47 90.99
  C 106.52 87.59 107.49 80.73 106.48 76.01
  Q 105.82 72.92 103.78 66.80
  C 102.17 61.94 101.68 56.23 99.72 51.01
  A 0.46 0.46 0.0 0 0 98.86 51.02
  C 98.16 53.09 95.86 61.64 93.76 62.29
  C 91.39 63.02 83.18 65.07 82.09 60.97
  Q 80.58 55.33 78.75 49.92
  A 0.38 0.37 49.0 0 0 78.06 49.87
  Q 75.42 55.17 74.46 60.92
  C 73.55 66.44 70.22 71.71 68.43 77.15
  Q 68.26 77.68 67.73 77.85
  Q 64.65 78.91 60.48 78.71
  Q 56.01 78.50 47.64 79.78
  Q 46.96 79.88 46.83 80.55
  L 45.83 85.71
  Q 45.72 86.30 46.26 86.57
  Q 50.36 88.58 55.01 88.42
  Q 66.19 88.05 77.46 88.86
  Q 77.98 88.89 78.23 88.43
  C 80.04 85.01 83.83 79.33 87.70 78.23
  C 93.88 76.48 94.34 86.93 93.55 90.80
  C 92.09 97.90 79.93 94.74 74.68 94.41
  Q 74.13 94.37 74.15 94.92
  C 74.60 106.65 73.28 116.76 70.01 128.75
  C 66.64 141.08 63.11 151.61 64.42 164.74
  A 2.21 2.20 -0.8 0 0 66.45 166.71
  L 74.17 167.29
  Q 74.74 167.33 74.93 166.79
  C 76.44 162.33 75.24 157.54 76.88 154.72
  Z
  M 87.43 89.77
  A 0.97 0.96 -86.8 0 0 88.50 88.81
  L 88.50 84.63
  Q 88.50 83.23 87.64 84.33
  L 84.14 88.78
  Q 83.69 89.34 84.41 89.42
  L 87.43 89.77
  Z
  M 137.77 116.97
  C 137.02 114.03 133.91 112.72 131.12 113.36
  Q 130.60 113.48 130.71 114.00
  C 133.01 124.25 132.12 140.32 120.68 145.05
  Q 120.24 145.23 120.39 145.67
  Q 122.59 151.99 122.96 158.64
  C 123.01 159.54 123.66 160.66 124.62 160.51
  A 0.84 0.83 83.6 0 0 125.32 159.63
  C 124.96 154.64 122.81 141.76 133.06 150.28
  A 0.69 0.69 0.0 0 0 134.19 149.79
  Q 134.43 145.11 133.32 140.46
  C 131.80 134.04 133.89 132.24 140.06 131.67
  Q 140.65 131.61 140.43 131.06
  C 138.91 127.27 131.75 120.78 137.42 117.76
  Q 137.90 117.50 137.77 116.97
  Z"
/>
<path d="
  M 81.03 123.96
  L 85.91 129.53
  Q 86.24 129.92 86.25 130.43
  C 86.27 132.76 87.06 137.03 84.03 137.71
  C 81.28 138.34 80.48 134.56 80.84 132.61
  Q 80.93 132.11 80.57 131.74
  C 78.14 129.29 69.81 120.31 78.51 118.76
  Q 78.90 118.69 78.68 118.36
  L 75.58 113.59
  Q 75.30 113.17 75.47 112.69
  Q 76.84 108.74 81.00 108.52
  Q 81.69 108.49 81.48 107.83
  Q 80.43 104.60 82.32 102.15
  Q 82.68 101.68 83.27 101.69
  C 87.27 101.82 89.24 113.63 82.70 113.86
  Q 82.05 113.88 82.50 114.35
  Q 84.32 116.21 85.47 118.40
  C 87.34 121.93 85.12 124.60 81.25 123.60
  A 0.22 0.22 0.0 0 0 81.03 123.96
  Z"
/>
</g>
<path fill="#fbfbfb" d="
  M 87.43 89.77
  L 84.41 89.42
  Q 83.69 89.34 84.14 88.78
  L 87.64 84.33
  Q 88.50 83.23 88.50 84.63
  L 88.50 88.81
  A 0.97 0.96 -86.8 0 1 87.43 89.77
  Z"
/>
</svg>
