<?xml version="1.0" encoding="UTF-8" standalone="no"?>
<!DOCTYPE svg PUBLIC "-//W3C//DTD SVG 1.1//EN" "http://www.w3.org/Graphics/SVG/1.1/DTD/svg11.dtd">
<svg xmlns="http://www.w3.org/2000/svg" version="1.1" viewBox="0 0 180 180">
<g stroke-width="2.00" fill="none" stroke-linecap="butt">
<path stroke="#533d3e" vector-effect="non-scaling-stroke" d="
  M 44.58 47.66
  A 0.52 0.52 0.0 0 0 43.72 47.39
  L 39.18 51.57
  A 0.52 0.52 0.0 0 0 39.38 52.45
  L 45.17 54.19
  A 0.52 0.52 0.0 0 0 45.83 53.58
  L 44.58 47.66"
/>
<path stroke="#533d3e" vector-effect="non-scaling-stroke" d="
  M 45.39 60.49
  L 35.71 56.67
  Q 35.28 56.50 34.94 56.82
  C 30.63 60.83 28.40 67.57 25.31 72.32
  A 1.26 1.26 0.0 0 0 26.80 74.19
  Q 37.86 70.15 45.56 61.19
  Q 45.97 60.72 45.39 60.49"
/>
<path stroke="#927a6d" vector-effect="non-scaling-stroke" d="
  M 92.19 87.16
  C 96.98 99.02 110.59 102.67 120.17 94.24
  C 123.03 91.73 121.26 86.86 126.37 87.06
  C 133.78 87.33 139.73 77.32 131.16 74.10
  Q 130.78 73.95 130.40 74.11
  L 124.82 76.45
  Q 124.31 76.66 123.79 76.47
  Q 117.54 74.12 114.02 68.51
  Q 113.75 68.08 113.24 68.17
  C 105.52 69.62 98.86 67.86 91.73 64.52
  Q 91.20 64.27 91.06 64.83
  C 89.95 69.19 90.16 82.13 92.19 87.16"
/>
<path stroke="#533d3e" vector-effect="non-scaling-stroke" d="
  M 39.94 78.54
  C 44.77 75.24 46.95 86.24 47.60 88.62
  Q 47.91 89.77 48.21 88.62
  Q 48.88 85.94 50.72 83.88
  Q 51.08 83.47 50.85 82.98
  C 48.50 78.01 48.43 72.68 48.47 67.23
  Q 48.47 66.57 48.01 67.04
  Q 40.38 74.94 30.25 79.14
  Q 29.81 79.32 29.92 79.78
  L 30.95 84.05
  Q 31.05 84.44 31.39 84.22
  Q 35.77 81.39 39.94 78.54"
/>
<path stroke="#533d3e" vector-effect="non-scaling-stroke" d="
  M 25.21 85.19
  Q 25.03 81.30 21.99 78.45
  Q 21.62 78.11 21.22 78.40
  C 17.57 81.02 14.80 85.04 17.68 89.22
  Q 17.97 89.63 18.43 89.79
  C 22.04 91.06 25.40 89.39 25.21 85.19"
/>
<path stroke="#533d3e" vector-effect="non-scaling-stroke" d="
  M 81.69 86.86
  C 81.82 83.46 80.91 83.30 78.27 81.91
  Q 77.72 81.62 77.62 82.23
  Q 76.28 89.91 76.85 97.71
  A 0.18 0.18 0.0 0 0 77.20 97.76
  C 78.30 94.95 81.59 89.48 81.69 86.86"
/>
<path stroke="#533d3e" vector-effect="non-scaling-stroke" d="
  M 55.52 96.59
  C 52.21 84.51 68.79 82.18 69.49 91.25
  Q 70.90 109.32 70.52 129.82
  C 70.31 140.84 70.97 151.42 71.19 162.25
  C 71.20 162.95 71.04 165.59 72.40 165.26
  Q 72.91 165.13 72.89 164.61
  Q 72.41 149.39 72.15 134.18
  C 72.03 127.03 72.60 114.58 71.81 104.73
  C 71.37 99.24 73.45 85.76 66.34 84.24
  Q 56.23 82.06 53.15 90.79
  C 52.30 93.20 52.62 95.43 54.31 97.26
  A 0.71 0.71 0.0 0 0 55.52 96.59"
/>
<path stroke="#533d3e" vector-effect="non-scaling-stroke" d="
  M 61.49 98.23
  Q 57.90 105.72 50.43 101.18
  A 0.33 0.33 0.0 0 0 49.94 101.56
  L 55.05 117.70
  A 1.26 1.26 0.0 0 0 56.95 118.37
  Q 60.57 115.98 63.90 113.40
  C 65.49 112.17 64.59 101.57 64.52 99.19
  C 64.44 96.41 63.06 94.50 62.30 91.84
  A 0.61 0.61 0.0 0 0 61.32 91.55
  C 59.66 92.95 61.07 95.66 61.56 97.29
  Q 61.71 97.77 61.49 98.23"
/>
<path stroke="#533d3e" vector-effect="non-scaling-stroke" d="
  M 115.42 108.95
  C 121.15 107.05 125.19 109.22 125.87 114.98
  Q 125.95 115.70 126.65 115.52
  L 127.70 115.25
  A 2.35 2.34 72.0 0 1 130.48 116.67
  Q 131.82 120.09 131.28 123.73
  Q 131.20 124.28 131.53 124.72
  Q 134.91 129.23 134.10 134.97
  Q 133.98 135.77 134.76 135.57
  L 140.65 134.05
  A 1.58 1.58 0.0 0 0 141.84 132.48
  C 141.51 118.56 139.92 105.30 131.92 93.01
  Q 131.66 92.60 131.18 92.53
  C 129.06 92.24 128.11 92.74 126.99 94.66
  Q 123.84 100.08 117.98 102.77
  Q 117.53 102.97 117.32 103.43
  L 115.00 108.48
  Q 114.67 109.19 115.42 108.95"
/>
<path stroke="#533d3e" vector-effect="non-scaling-stroke" d="
  M 83.95 96.95
  Q 81.61 101.74 78.11 105.79
  Q 77.75 106.20 77.75 106.75
  L 77.75 111.76
  Q 77.75 112.24 77.97 112.67
  Q 80.17 116.85 79.70 121.61
  Q 79.63 122.32 80.34 122.28
  L 81.97 122.18
  Q 82.70 122.13 82.69 121.40
  Q 82.43 109.34 84.69 97.47
  C 84.76 97.11 84.56 96.68 84.17 96.77
  A 0.35 0.34 -84.0 0 0 83.95 96.95"
/>
<path stroke="#533d3e" vector-effect="non-scaling-stroke" d="
  M 105.39 119.22
  C 105.69 118.47 105.38 117.96 104.71 117.51
  C 99.45 114.00 96.48 106.82 95.30 100.83
  Q 95.19 100.26 94.75 99.87
  L 91.87 97.33
  Q 91.43 96.94 91.16 97.46
  Q 90.35 99.00 90.08 100.77
  Q 88.05 114.36 88.35 129.38
  A 0.79 0.79 0.0 0 0 89.15 130.15
  L 111.52 129.94
  A 0.44 0.44 0.0 0 0 111.80 129.16
  Q 107.44 125.51 105.39 120.22
  Q 105.19 119.72 105.39 119.22"
/>
<path stroke="#533d3e" vector-effect="non-scaling-stroke" d="
  M 148.88 97.09
  Q 146.05 96.74 142.60 97.81
  Q 141.46 98.17 141.94 99.26
  Q 145.71 107.74 146.45 116.99
  Q 146.49 117.45 146.95 117.41
  L 157.12 116.62
  Q 157.83 116.57 157.96 115.86
  C 159.12 109.37 156.87 98.07 148.88 97.09"
/>
<path stroke="#927a6d" vector-effect="non-scaling-stroke" d="
  M 109.97 104.56
  C 107.40 104.94 104.63 104.32 102.13 103.68
  A 0.35 0.34 -7.3 0 0 101.74 104.18
  L 105.52 111.20
  A 1.00 1.00 0.0 0 0 107.29 111.17
  L 110.34 105.07
  Q 110.64 104.46 109.97 104.56"
/>
<path stroke="#98989a" vector-effect="non-scaling-stroke" d="
  M 120.19 114.77
  Q 119.71 113.06 118.10 113.83
  Q 114.18 115.70 111.20 118.97
  Q 110.71 119.51 111.18 120.06
  L 116.12 125.95
  Q 116.53 126.44 117.12 126.19
  L 122.16 124.13
  Q 122.79 123.88 122.60 123.23
  L 120.19 114.77"
/>
<path stroke="#533d3e" vector-effect="non-scaling-stroke" d="
  M 62.64 154.61
  L 64.16 154.99
  Q 64.76 155.14 64.76 154.52
  L 64.62 120.34
  A 0.11 0.11 0.0 0 0 64.45 120.24
  L 58.40 124.18
  Q 58.12 124.36 58.14 124.69
  L 59.95 154.04
  Q 59.98 154.50 60.43 154.50
  Q 61.09 154.51 61.75 154.50
  Q 62.20 154.50 62.64 154.61"
/>
<path stroke="#533d3e" vector-effect="non-scaling-stroke" d="
  M 161.3787 123.5004
  A 1.00 1.00 0.0 0 0 160.3631 122.5162
  L 148.4046 122.7041
  A 1.00 1.00 0.0 0 0 147.4204 123.7196
  L 147.4213 123.7796
  A 1.00 1.00 0.0 0 0 148.4369 124.7638
  L 160.3954 124.5759
  A 1.00 1.00 0.0 0 0 161.3796 123.5604
  L 161.3787 123.5004"
/>
<path stroke="#927a6d" vector-effect="non-scaling-stroke" d="
  M 78.49 134.41
  L 81.73 134.81
  Q 82.25 134.87 82.25 134.35
  L 82.25 128.20
  Q 82.25 127.65 81.70 127.72
  L 78.84 128.08
  A 1.29 1.28 -4.9 0 0 77.71 129.41
  L 77.87 133.73
  Q 77.89 134.33 78.49 134.41"
/>
<path stroke="#927a6d" vector-effect="non-scaling-stroke" d="
  M 118.87 135.72
  L 125.59 136.87
  Q 126.26 136.98 126.74 136.52
  Q 130.11 133.31 127.74 128.98
  A 0.76 0.76 0.0 0 0 126.89 128.61
  C 124.03 129.31 118.37 130.77 117.70 134.02
  A 1.44 1.44 0.0 0 0 118.87 135.72"
/>
<path stroke="#533d3e" vector-effect="non-scaling-stroke" d="
  M 157.79 130.54
  L 148.28 130.41
  Q 147.65 130.41 147.67 131.03
  L 148.04 144.90
  Q 148.07 146.07 149.23 146.18
  C 158.43 147.05 163.42 138.33 158.59 130.98
  Q 158.30 130.55 157.79 130.54"
/>
<path stroke="#533d3e" vector-effect="non-scaling-stroke" d="
  M 111.48 135.75
  L 88.90 135.75
  Q 88.25 135.75 88.25 136.41
  L 88.25 139.04
  Q 88.25 139.58 88.79 139.58
  L 113.25 139.29
  Q 114.53 139.27 113.56 138.44
  Q 112.62 137.64 112.33 136.42
  Q 112.16 135.75 111.48 135.75"
/>
<path stroke="#98989a" vector-effect="non-scaling-stroke" d="
  M 129.25 142.55
  L 124.29 142.40
  Q 123.72 142.38 123.87 142.94
  L 126.47 152.04
  A 1.65 1.64 -18.0 0 0 128.63 153.13
  L 134.83 150.84
  Q 135.99 150.41 135.23 149.43
  L 130.29 143.08
  Q 129.89 142.57 129.25 142.55"
/>
<path stroke="#533d3e" vector-effect="non-scaling-stroke" d="
  M 88.64 145.58
  A 0.33 0.33 0.0 0 0 88.31 145.89
  C 87.99 151.83 86.92 158.89 88.59 164.50
  Q 89.05 166.04 90.66 166.02
  L 104.25 165.85
  A 1.29 1.28 89.3 0 0 105.52 164.54
  C 105.48 160.91 104.68 155.98 106.54 153.03
  Q 110.58 146.65 119.06 148.67
  Q 119.78 148.84 119.58 148.13
  L 118.85 145.49
  Q 118.72 145.01 118.22 145.02
  L 88.64 145.58"
/>
<path stroke="#533d3e" vector-effect="non-scaling-stroke" d="
  M 139.95 154.21
  Q 134.22 158.20 127.25 158.88
  Q 126.60 158.94 126.65 159.59
  L 127.05 164.76
  Q 127.11 165.58 127.93 165.59
  L 140.79 165.76
  Q 142.36 165.78 142.36 164.21
  L 142.35 145.94
  Q 142.35 145.21 141.62 145.25
  L 139.99 145.32
  Q 139.17 145.36 139.61 146.06
  Q 141.79 149.54 140.58 153.36
  Q 140.41 153.89 139.95 154.21"
/>
<path stroke="#927a6d" vector-effect="non-scaling-stroke" d="
  M 105.0362 75.5309
  A 2.50 2.50 0.0 0 0 102.5275 73.0397
  L 102.3075 73.0404
  A 2.50 2.50 0.0 0 0 99.8162 75.5492
  L 99.8638 89.1691
  A 2.50 2.50 0.0 0 0 102.3725 91.6603
  L 102.5925 91.6596
  A 2.50 2.50 0.0 0 0 105.0838 89.1508
  L 105.0362 75.5309"
/>
</g>
<g fill="#38383c">
<path d="
  M 81.64 154.21
  Q 80.64 156.33 79.53 158.42
  C 78.29 160.77 78.60 162.86 77.97 165.40
  Q 77.85 165.87 77.95 166.34
  C 79.14 171.86 67.52 173.12 65.58 164.68
  Q 65.47 164.20 64.99 164.10
  Q 59.78 162.95 54.56 163.91
  Q 54.07 163.99 53.64 163.75
  C 49.53 161.37 51.32 156.20 53.78 153.44
  Q 54.09 153.09 54.07 152.62
  L 52.82 126.85
  A 1.63 1.62 -3.0 0 0 51.10 125.31
  C 32.86 126.41 28.76 107.84 26.32 94.72
  Q 26.23 94.20 25.76 94.43
  C 18.21 98.16 11.73 94.21 11.05 86.13
  C 10.79 83.06 13.02 78.72 15.15 76.47
  C 19.63 71.71 22.64 66.08 25.69 60.09
  C 28.82 53.91 35.40 48.23 40.17 43.18
  C 47.25 35.69 49.95 46.83 50.86 50.88
  Q 50.97 51.35 51.42 51.51
  C 64.07 55.92 71.29 68.93 81.33 77.15
  A 0.57 0.57 0.0 0 0 82.26 76.80
  Q 82.75 73.43 84.72 70.64
  Q 84.97 70.29 85.05 69.85
  L 86.44 61.84
  Q 86.54 61.32 86.12 60.98
  C 82.80 58.28 74.86 49.70 78.53 45.73
  C 80.33 43.79 83.55 44.49 85.71 42.96
  Q 94.61 36.66 98.04 35.29
  C 107.84 31.37 120.45 33.37 124.34 44.39
  Q 124.51 44.89 125.04 44.91
  C 137.39 45.36 140.72 59.75 134.72 68.69
  Q 134.39 69.19 134.90 69.51
  Q 144.28 75.31 139.27 85.60
  Q 139.05 86.07 139.47 86.37
  Q 142.22 88.36 143.74 91.41
  Q 144.01 91.95 144.60 91.83
  C 159.17 88.95 165.68 104.84 163.53 116.60
  Q 163.45 117.02 163.78 117.30
  Q 169.75 122.46 164.78 128.78
  Q 164.46 129.19 164.65 129.68
  C 169.20 141.35 162.07 153.43 148.73 151.74
  Q 148.15 151.66 148.17 152.25
  C 148.39 158.91 150.17 170.15 142.94 171.05
  C 137.54 171.73 124.40 173.39 121.81 166.84
  C 120.79 164.26 122.04 165.37 119.46 164.32
  Q 115.70 162.80 111.72 162.04
  Q 111.13 161.92 111.14 162.53
  C 111.26 167.43 110.28 171.61 104.07 171.74
  C 99.56 171.83 89.15 173.00 85.08 169.34
  C 81.94 166.52 82.12 158.20 82.11 154.31
  Q 82.11 153.20 81.64 154.21
  Z
  M 44.58 47.66
  A 0.52 0.52 0.0 0 0 43.72 47.39
  L 39.18 51.57
  A 0.52 0.52 0.0 0 0 39.38 52.45
  L 45.17 54.19
  A 0.52 0.52 0.0 0 0 45.83 53.58
  L 44.58 47.66
  Z
  M 45.39 60.49
  L 35.71 56.67
  Q 35.28 56.50 34.94 56.82
  C 30.63 60.83 28.40 67.57 25.31 72.32
  A 1.26 1.26 0.0 0 0 26.80 74.19
  Q 37.86 70.15 45.56 61.19
  Q 45.97 60.72 45.39 60.49
  Z
  M 92.19 87.16
  C 96.98 99.02 110.59 102.67 120.17 94.24
  C 123.03 91.73 121.26 86.86 126.37 87.06
  C 133.78 87.33 139.73 77.32 131.16 74.10
  Q 130.78 73.95 130.40 74.11
  L 124.82 76.45
  Q 124.31 76.66 123.79 76.47
  Q 117.54 74.12 114.02 68.51
  Q 113.75 68.08 113.24 68.17
  C 105.52 69.62 98.86 67.86 91.73 64.52
  Q 91.20 64.27 91.06 64.83
  C 89.95 69.19 90.16 82.13 92.19 87.16
  Z
  M 39.94 78.54
  C 44.77 75.24 46.95 86.24 47.60 88.62
  Q 47.91 89.77 48.21 88.62
  Q 48.88 85.94 50.72 83.88
  Q 51.08 83.47 50.85 82.98
  C 48.50 78.01 48.43 72.68 48.47 67.23
  Q 48.47 66.57 48.01 67.04
  Q 40.38 74.94 30.25 79.14
  Q 29.81 79.32 29.92 79.78
  L 30.95 84.05
  Q 31.05 84.44 31.39 84.22
  Q 35.77 81.39 39.94 78.54
  Z
  M 25.21 85.19
  Q 25.03 81.30 21.99 78.45
  Q 21.62 78.11 21.22 78.40
  C 17.57 81.02 14.80 85.04 17.68 89.22
  Q 17.97 89.63 18.43 89.79
  C 22.04 91.06 25.40 89.39 25.21 85.19
  Z
  M 81.69 86.86
  C 81.82 83.46 80.91 83.30 78.27 81.91
  Q 77.72 81.62 77.62 82.23
  Q 76.28 89.91 76.85 97.71
  A 0.18 0.18 0.0 0 0 77.20 97.76
  C 78.30 94.95 81.59 89.48 81.69 86.86
  Z
  M 55.52 96.59
  C 52.21 84.51 68.79 82.18 69.49 91.25
  Q 70.90 109.32 70.52 129.82
  C 70.31 140.84 70.97 151.42 71.19 162.25
  C 71.20 162.95 71.04 165.59 72.40 165.26
  Q 72.91 165.13 72.89 164.61
  Q 72.41 149.39 72.15 134.18
  C 72.03 127.03 72.60 114.58 71.81 104.73
  C 71.37 99.24 73.45 85.76 66.34 84.24
  Q 56.23 82.06 53.15 90.79
  C 52.30 93.20 52.62 95.43 54.31 97.26
  A 0.71 0.71 0.0 0 0 55.52 96.59
  Z
  M 31.24 91.65
  C 31.83 101.71 36.36 119.37 49.22 119.73
  Q 49.78 119.75 49.59 119.22
  Q 47.79 114.12 46.25 108.93
  C 44.12 101.72 43.18 93.23 41.10 85.52
  Q 40.87 84.64 40.11 85.15
  L 31.66 90.80
  Q 31.21 91.10 31.24 91.65
  Z
  M 61.49 98.23
  Q 57.90 105.72 50.43 101.18
  A 0.33 0.33 0.0 0 0 49.94 101.56
  L 55.05 117.70
  A 1.26 1.26 0.0 0 0 56.95 118.37
  Q 60.57 115.98 63.90 113.40
  C 65.49 112.17 64.59 101.57 64.52 99.19
  C 64.44 96.41 63.06 94.50 62.30 91.84
  A 0.61 0.61 0.0 0 0 61.32 91.55
  C 59.66 92.95 61.07 95.66 61.56 97.29
  Q 61.71 97.77 61.49 98.23
  Z
  M 115.42 108.95
  C 121.15 107.05 125.19 109.22 125.87 114.98
  Q 125.95 115.70 126.65 115.52
  L 127.70 115.25
  A 2.35 2.34 72.0 0 1 130.48 116.67
  Q 131.82 120.09 131.28 123.73
  Q 131.20 124.28 131.53 124.72
  Q 134.91 129.23 134.10 134.97
  Q 133.98 135.77 134.76 135.57
  L 140.65 134.05
  A 1.58 1.58 0.0 0 0 141.84 132.48
  C 141.51 118.56 139.92 105.30 131.92 93.01
  Q 131.66 92.60 131.18 92.53
  C 129.06 92.24 128.11 92.74 126.99 94.66
  Q 123.84 100.08 117.98 102.77
  Q 117.53 102.97 117.32 103.43
  L 115.00 108.48
  Q 114.67 109.19 115.42 108.95
  Z
  M 83.95 96.95
  Q 81.61 101.74 78.11 105.79
  Q 77.75 106.20 77.75 106.75
  L 77.75 111.76
  Q 77.75 112.24 77.97 112.67
  Q 80.17 116.85 79.70 121.61
  Q 79.63 122.32 80.34 122.28
  L 81.97 122.18
  Q 82.70 122.13 82.69 121.40
  Q 82.43 109.34 84.69 97.47
  C 84.76 97.11 84.56 96.68 84.17 96.77
  A 0.35 0.34 -84.0 0 0 83.95 96.95
  Z
  M 105.39 119.22
  C 105.69 118.47 105.38 117.96 104.71 117.51
  C 99.45 114.00 96.48 106.82 95.30 100.83
  Q 95.19 100.26 94.75 99.87
  L 91.87 97.33
  Q 91.43 96.94 91.16 97.46
  Q 90.35 99.00 90.08 100.77
  Q 88.05 114.36 88.35 129.38
  A 0.79 0.79 0.0 0 0 89.15 130.15
  L 111.52 129.94
  A 0.44 0.44 0.0 0 0 111.80 129.16
  Q 107.44 125.51 105.39 120.22
  Q 105.19 119.72 105.39 119.22
  Z
  M 148.88 97.09
  Q 146.05 96.74 142.60 97.81
  Q 141.46 98.17 141.94 99.26
  Q 145.71 107.74 146.45 116.99
  Q 146.49 117.45 146.95 117.41
  L 157.12 116.62
  Q 157.83 116.57 157.96 115.86
  C 159.12 109.37 156.87 98.07 148.88 97.09
  Z
  M 109.97 104.56
  C 107.40 104.94 104.63 104.32 102.13 103.68
  A 0.35 0.34 -7.3 0 0 101.74 104.18
  L 105.52 111.20
  A 1.00 1.00 0.0 0 0 107.29 111.17
  L 110.34 105.07
  Q 110.64 104.46 109.97 104.56
  Z
  M 120.19 114.77
  Q 119.71 113.06 118.10 113.83
  Q 114.18 115.70 111.20 118.97
  Q 110.71 119.51 111.18 120.06
  L 116.12 125.95
  Q 116.53 126.44 117.12 126.19
  L 122.16 124.13
  Q 122.79 123.88 122.60 123.23
  L 120.19 114.77
  Z
  M 62.64 154.61
  L 64.16 154.99
  Q 64.76 155.14 64.76 154.52
  L 64.62 120.34
  A 0.11 0.11 0.0 0 0 64.45 120.24
  L 58.40 124.18
  Q 58.12 124.36 58.14 124.69
  L 59.95 154.04
  Q 59.98 154.50 60.43 154.50
  Q 61.09 154.51 61.75 154.50
  Q 62.20 154.50 62.64 154.61
  Z
  M 161.3787 123.5004
  A 1.00 1.00 0.0 0 0 160.3631 122.5162
  L 148.4046 122.7041
  A 1.00 1.00 0.0 0 0 147.4204 123.7196
  L 147.4213 123.7796
  A 1.00 1.00 0.0 0 0 148.4369 124.7638
  L 160.3954 124.5759
  A 1.00 1.00 0.0 0 0 161.3796 123.5604
  L 161.3787 123.5004
  Z
  M 78.49 134.41
  L 81.73 134.81
  Q 82.25 134.87 82.25 134.35
  L 82.25 128.20
  Q 82.25 127.65 81.70 127.72
  L 78.84 128.08
  A 1.29 1.28 -4.9 0 0 77.71 129.41
  L 77.87 133.73
  Q 77.89 134.33 78.49 134.41
  Z
  M 118.87 135.72
  L 125.59 136.87
  Q 126.26 136.98 126.74 136.52
  Q 130.11 133.31 127.74 128.98
  A 0.76 0.76 0.0 0 0 126.89 128.61
  C 124.03 129.31 118.37 130.77 117.70 134.02
  A 1.44 1.44 0.0 0 0 118.87 135.72
  Z
  M 157.79 130.54
  L 148.28 130.41
  Q 147.65 130.41 147.67 131.03
  L 148.04 144.90
  Q 148.07 146.07 149.23 146.18
  C 158.43 147.05 163.42 138.33 158.59 130.98
  Q 158.30 130.55 157.79 130.54
  Z
  M 111.48 135.75
  L 88.90 135.75
  Q 88.25 135.75 88.25 136.41
  L 88.25 139.04
  Q 88.25 139.58 88.79 139.58
  L 113.25 139.29
  Q 114.53 139.27 113.56 138.44
  Q 112.62 137.64 112.33 136.42
  Q 112.16 135.75 111.48 135.75
  Z
  M 129.25 142.55
  L 124.29 142.40
  Q 123.72 142.38 123.87 142.94
  L 126.47 152.04
  A 1.65 1.64 -18.0 0 0 128.63 153.13
  L 134.83 150.84
  Q 135.99 150.41 135.23 149.43
  L 130.29 143.08
  Q 129.89 142.57 129.25 142.55
  Z
  M 88.64 145.58
  A 0.33 0.33 0.0 0 0 88.31 145.89
  C 87.99 151.83 86.92 158.89 88.59 164.50
  Q 89.05 166.04 90.66 166.02
  L 104.25 165.85
  A 1.29 1.28 89.3 0 0 105.52 164.54
  C 105.48 160.91 104.68 155.98 106.54 153.03
  Q 110.58 146.65 119.06 148.67
  Q 119.78 148.84 119.58 148.13
  L 118.85 145.49
  Q 118.72 145.01 118.22 145.02
  L 88.64 145.58
  Z
  M 139.95 154.21
  Q 134.22 158.20 127.25 158.88
  Q 126.60 158.94 126.65 159.59
  L 127.05 164.76
  Q 127.11 165.58 127.93 165.59
  L 140.79 165.76
  Q 142.36 165.78 142.36 164.21
  L 142.35 145.94
  Q 142.35 145.21 141.62 145.25
  L 139.99 145.32
  Q 139.17 145.36 139.61 146.06
  Q 141.79 149.54 140.58 153.36
  Q 140.41 153.89 139.95 154.21
  Z"
/>
<rect x="-2.61" y="-9.31" transform="translate(102.45,82.35) rotate(-0.2)" width="5.22" height="18.62" rx="2.50"/>
</g>
<g fill="#ebbc9e">
<path d="
  M 120.17 94.24
  C 110.59 102.67 96.98 99.02 92.19 87.16
  C 90.16 82.13 89.95 69.19 91.06 64.83
  Q 91.20 64.27 91.73 64.52
  C 98.86 67.86 105.52 69.62 113.24 68.17
  Q 113.75 68.08 114.02 68.51
  Q 117.54 74.12 123.79 76.47
  Q 124.31 76.66 124.82 76.45
  L 130.40 74.11
  Q 130.78 73.95 131.16 74.10
  C 139.73 77.32 133.78 87.33 126.37 87.06
  C 121.26 86.86 123.03 91.73 120.17 94.24
  Z
  M 105.0362 75.5309
  A 2.50 2.50 0.0 0 0 102.5275 73.0397
  L 102.3075 73.0404
  A 2.50 2.50 0.0 0 0 99.8162 75.5492
  L 99.8638 89.1691
  A 2.50 2.50 0.0 0 0 102.3725 91.6603
  L 102.5925 91.6596
  A 2.50 2.50 0.0 0 0 105.0838 89.1508
  L 105.0362 75.5309
  Z"
/>
<path d="
  M 102.13 103.68
  C 104.63 104.32 107.40 104.94 109.97 104.56
  Q 110.64 104.46 110.34 105.07
  L 107.29 111.17
  A 1.00 1.00 0.0 0 1 105.52 111.20
  L 101.74 104.18
  A 0.35 0.34 -7.3 0 1 102.13 103.68
  Z"
/>
<path d="
  M 81.73 134.81
  L 78.49 134.41
  Q 77.89 134.33 77.87 133.73
  L 77.71 129.41
  A 1.29 1.28 -4.9 0 1 78.84 128.08
  L 81.70 127.72
  Q 82.25 127.65 82.25 128.20
  L 82.25 134.35
  Q 82.25 134.87 81.73 134.81
  Z"
/>
<path d="
  M 118.87 135.72
  A 1.44 1.44 0.0 0 1 117.70 134.02
  C 118.37 130.77 124.03 129.31 126.89 128.61
  A 0.76 0.76 0.0 0 1 127.74 128.98
  Q 130.11 133.31 126.74 136.52
  Q 126.26 136.98 125.59 136.87
  L 118.87 135.72
  Z"
/>
</g>
<g fill="#6e423f">
<path d="
  M 44.58 47.66
  L 45.83 53.58
  A 0.52 0.52 0.0 0 1 45.17 54.19
  L 39.38 52.45
  A 0.52 0.52 0.0 0 1 39.18 51.57
  L 43.72 47.39
  A 0.52 0.52 0.0 0 1 44.58 47.66
  Z"
/>
<path d="
  M 35.71 56.67
  L 45.39 60.49
  Q 45.97 60.72 45.56 61.19
  Q 37.86 70.15 26.80 74.19
  A 1.26 1.26 0.0 0 1 25.31 72.32
  C 28.40 67.57 30.63 60.83 34.94 56.82
  Q 35.28 56.50 35.71 56.67
  Z"
/>
<path d="
  M 47.60 88.62
  C 46.95 86.24 44.77 75.24 39.94 78.54
  Q 35.77 81.39 31.39 84.22
  Q 31.05 84.44 30.95 84.05
  L 29.92 79.78
  Q 29.81 79.32 30.25 79.14
  Q 40.38 74.94 48.01 67.04
  Q 48.47 66.57 48.47 67.23
  C 48.43 72.68 48.50 78.01 50.85 82.98
  Q 51.08 83.47 50.72 83.88
  Q 48.88 85.94 48.21 88.62
  Q 47.91 89.77 47.60 88.62
  Z"
/>
<path d="
  M 25.21 85.19
  C 25.40 89.39 22.04 91.06 18.43 89.79
  Q 17.97 89.63 17.68 89.22
  C 14.80 85.04 17.57 81.02 21.22 78.40
  Q 21.62 78.11 21.99 78.45
  Q 25.03 81.30 25.21 85.19
  Z"
/>
<path d="
  M 78.27 81.91
  C 80.91 83.30 81.82 83.46 81.69 86.86
  C 81.59 89.48 78.30 94.95 77.20 97.76
  A 0.18 0.18 0.0 0 1 76.85 97.71
  Q 76.28 89.91 77.62 82.23
  Q 77.72 81.62 78.27 81.91
  Z"
/>
<path d="
  M 69.49 91.25
  C 68.79 82.18 52.21 84.51 55.52 96.59
  A 0.71 0.71 0.0 0 1 54.31 97.26
  C 52.62 95.43 52.30 93.20 53.15 90.79
  Q 56.23 82.06 66.34 84.24
  C 73.45 85.76 71.37 99.24 71.81 104.73
  C 72.60 114.58 72.03 127.03 72.15 134.18
  Q 72.41 149.39 72.89 164.61
  Q 72.91 165.13 72.40 165.26
  C 71.04 165.59 71.20 162.95 71.19 162.25
  C 70.97 151.42 70.31 140.84 70.52 129.82
  Q 70.90 109.32 69.49 91.25
  Z"
/>
<path d="
  M 61.56 97.29
  C 61.07 95.66 59.66 92.95 61.32 91.55
  A 0.61 0.61 0.0 0 1 62.30 91.84
  C 63.06 94.50 64.44 96.41 64.52 99.19
  C 64.59 101.57 65.49 112.17 63.90 113.40
  Q 60.57 115.98 56.95 118.37
  A 1.26 1.26 0.0 0 1 55.05 117.70
  L 49.94 101.56
  A 0.33 0.33 0.0 0 1 50.43 101.18
  Q 57.90 105.72 61.49 98.23
  Q 61.71 97.77 61.56 97.29
  Z"
/>
<path d="
  M 125.87 114.98
  C 125.19 109.22 121.15 107.05 115.42 108.95
  Q 114.67 109.19 115.00 108.48
  L 117.32 103.43
  Q 117.53 102.97 117.98 102.77
  Q 123.84 100.08 126.99 94.66
  C 128.11 92.74 129.06 92.24 131.18 92.53
  Q 131.66 92.60 131.92 93.01
  C 139.92 105.30 141.51 118.56 141.84 132.48
  A 1.58 1.58 0.0 0 1 140.65 134.05
  L 134.76 135.57
  Q 133.98 135.77 134.10 134.97
  Q 134.91 129.23 131.53 124.72
  Q 131.20 124.28 131.28 123.73
  Q 131.82 120.09 130.48 116.67
  A 2.35 2.34 72.0 0 0 127.70 115.25
  L 126.65 115.52
  Q 125.95 115.70 125.87 114.98
  Z"
/>
<path d="
  M 83.95 96.95
  A 0.35 0.34 -84.0 0 1 84.17 96.77
  C 84.56 96.68 84.76 97.11 84.69 97.47
  Q 82.43 109.34 82.69 121.40
  Q 82.70 122.13 81.97 122.18
  L 80.34 122.28
  Q 79.63 122.32 79.70 121.61
  Q 80.17 116.85 77.97 112.67
  Q 77.75 112.24 77.75 111.76
  L 77.75 106.75
  Q 77.75 106.20 78.11 105.79
  Q 81.61 101.74 83.95 96.95
  Z"
/>
<path d="
  M 105.39 120.22
  Q 107.44 125.51 111.80 129.16
  A 0.44 0.44 0.0 0 1 111.52 129.94
  L 89.15 130.15
  A 0.79 0.79 0.0 0 1 88.35 129.38
  Q 88.05 114.36 90.08 100.77
  Q 90.35 99.00 91.16 97.46
  Q 91.43 96.94 91.87 97.33
  L 94.75 99.87
  Q 95.19 100.26 95.30 100.83
  C 96.48 106.82 99.45 114.00 104.71 117.51
  C 105.38 117.96 105.69 118.47 105.39 119.22
  Q 105.19 119.72 105.39 120.22
  Z"
/>
<path d="
  M 148.88 97.09
  C 156.87 98.07 159.12 109.37 157.96 115.86
  Q 157.83 116.57 157.12 116.62
  L 146.95 117.41
  Q 146.49 117.45 146.45 116.99
  Q 145.71 107.74 141.94 99.26
  Q 141.46 98.17 142.60 97.81
  Q 146.05 96.74 148.88 97.09
  Z"
/>
<path d="
  M 61.75 154.50
  Q 61.09 154.51 60.43 154.50
  Q 59.98 154.50 59.95 154.04
  L 58.14 124.69
  Q 58.12 124.36 58.40 124.18
  L 64.45 120.24
  A 0.11 0.11 0.0 0 1 64.62 120.34
  L 64.76 154.52
  Q 64.76 155.14 64.16 154.99
  L 62.64 154.61
  Q 62.20 154.50 61.75 154.50
  Z"
/>
<rect x="-6.98" y="-1.03" transform="translate(154.40,123.64) rotate(-0.9)" width="13.96" height="2.06" rx="1.00"/>
<path d="
  M 158.59 130.98
  C 163.42 138.33 158.43 147.05 149.23 146.18
  Q 148.07 146.07 148.04 144.90
  L 147.67 131.03
  Q 147.65 130.41 148.28 130.41
  L 157.79 130.54
  Q 158.30 130.55 158.59 130.98
  Z"
/>
<path d="
  M 112.33 136.42
  Q 112.62 137.64 113.56 138.44
  Q 114.53 139.27 113.25 139.29
  L 88.79 139.58
  Q 88.25 139.58 88.25 139.04
  L 88.25 136.41
  Q 88.25 135.75 88.90 135.75
  L 111.48 135.75
  Q 112.16 135.75 112.33 136.42
  Z"
/>
<path d="
  M 88.64 145.58
  L 118.22 145.02
  Q 118.72 145.01 118.85 145.49
  L 119.58 148.13
  Q 119.78 148.84 119.06 148.67
  Q 110.58 146.65 106.54 153.03
  C 104.68 155.98 105.48 160.91 105.52 164.54
  A 1.29 1.28 89.3 0 1 104.25 165.85
  L 90.66 166.02
  Q 89.05 166.04 88.59 164.50
  C 86.92 158.89 87.99 151.83 88.31 145.89
  A 0.33 0.33 0.0 0 1 88.64 145.58
  Z"
/>
<path d="
  M 140.58 153.36
  Q 141.79 149.54 139.61 146.06
  Q 139.17 145.36 139.99 145.32
  L 141.62 145.25
  Q 142.35 145.21 142.35 145.94
  L 142.36 164.21
  Q 142.36 165.78 140.79 165.76
  L 127.93 165.59
  Q 127.11 165.58 127.05 164.76
  L 126.65 159.59
  Q 126.60 158.94 127.25 158.88
  Q 134.22 158.20 139.95 154.21
  Q 140.41 153.89 140.58 153.36
  Z"
/>
</g>
<g fill="#f8f8f8">
<path d="
  M 120.19 114.77
  L 122.60 123.23
  Q 122.79 123.88 122.16 124.13
  L 117.12 126.19
  Q 116.53 126.44 116.12 125.95
  L 111.18 120.06
  Q 110.71 119.51 111.20 118.97
  Q 114.18 115.70 118.10 113.83
  Q 119.71 113.06 120.19 114.77
  Z"
/>
<path d="
  M 130.29 143.08
  L 135.23 149.43
  Q 135.99 150.41 134.83 150.84
  L 128.63 153.13
  A 1.65 1.64 -18.0 0 1 126.47 152.04
  L 123.87 142.94
  Q 123.72 142.38 124.29 142.40
  L 129.25 142.55
  Q 129.89 142.57 130.29 143.08
  Z"
/>
</g>
</svg>
