<?xml version="1.0" encoding="UTF-8" standalone="no"?>
<!DOCTYPE svg PUBLIC "-//W3C//DTD SVG 1.1//EN" "http://www.w3.org/Graphics/SVG/1.1/DTD/svg11.dtd">
<svg xmlns="http://www.w3.org/2000/svg" version="1.1" viewBox="0 0 180 180">
<g stroke-width="2.00" fill="none" stroke-linecap="butt">
<path stroke="#533d3e" vector-effect="non-scaling-stroke" d="
  M 78.43 45.98
  Q 59.59 39.48 53.52 57.72
  A 0.68 0.67 -80.5 0 0 54.15 58.61
  L 67.11 58.81
  Q 67.60 58.82 67.80 58.37
  Q 71.13 50.76 78.50 46.93
  A 0.52 0.52 0.0 0 0 78.43 45.98"
/>
<path stroke="#533d3e" vector-effect="non-scaling-stroke" d="
  M 125.16 57.40
  C 122.71 44.97 110.01 41.56 99.59 46.59
  A 0.32 0.32 0.0 0 0 99.56 47.15
  Q 106.11 51.34 109.47 58.41
  Q 109.66 58.79 110.08 58.79
  L 124.13 58.66
  Q 125.40 58.65 125.16 57.40"
/>
<path stroke="#533d3e" vector-effect="non-scaling-stroke" d="
  M 104.52 63.03
  C 99.81 45.51 76.12 46.01 71.67 63.69
  Q 71.55 64.15 72.01 64.26
  Q 73.62 64.64 75.25 64.68
  Q 89.74 65.03 103.70 64.17
  Q 104.81 64.10 104.52 63.03"
/>
<path stroke="#927a6d" vector-effect="non-scaling-stroke" d="
  M 64.65 66.98
  C 65.54 67.26 65.80 65.66 65.75 65.14
  Q 65.70 64.68 65.23 64.66
  L 52.85 64.12
  Q 52.52 64.10 52.52 64.42
  C 52.49 74.51 52.83 84.15 61.93 90.48
  Q 64.31 92.14 66.70 92.21
  A 1.12 1.12 0.0 0 0 67.79 90.72
  L 66.13 86.02
  Q 65.96 85.53 65.47 85.70
  C 63.16 86.50 61.99 84.84 61.89 82.69
  C 61.65 77.73 60.53 67.62 63.95 66.95
  Q 64.31 66.88 64.65 66.98"
/>
<path stroke="#927a6d" vector-effect="non-scaling-stroke" d="
  M 111.87 68.34
  L 113.81 66.94
  Q 114.12 66.72 114.50 66.77
  Q 117.58 67.17 117.25 70.24
  Q 117.20 70.76 117.52 71.18
  C 122.20 77.23 122.20 82.90 117.06 88.65
  Q 116.75 88.99 116.75 89.45
  L 116.75 89.95
  A 0.51 0.50 -18.6 0 0 117.56 90.35
  C 126.99 83.16 125.93 75.39 126.53 64.66
  Q 126.56 64.22 126.12 64.23
  L 111.16 64.61
  Q 110.69 64.62 110.71 65.10
  L 110.85 67.85
  Q 110.91 69.03 111.87 68.34"
/>
<path stroke="#533d3e" vector-effect="non-scaling-stroke" d="
  M 29.56 83.81
  C 29.85 80.78 31.21 77.67 30.30 74.42
  C 29.31 70.87 26.36 65.94 22.22 67.80
  C 14.22 71.39 18.35 91.57 20.30 96.74
  Q 27.84 116.74 34.54 137.06
  Q 34.76 137.73 35.44 137.56
  L 36.57 137.28
  Q 37.18 137.14 37.13 136.51
  Q 36.24 125.45 35.06 114.41
  C 33.95 104.11 28.54 94.51 29.56 83.81"
/>
<path stroke="#533d3e" vector-effect="non-scaling-stroke" d="
  M 155.55 67.52
  C 149.42 66.23 147.67 78.65 147.25 82.58
  Q 144.35 109.26 142.15 136.01
  Q 142.00 137.80 143.70 137.45
  A 1.20 1.19 -86.5 0 0 144.58 136.67
  Q 150.20 119.76 156.20 103.38
  C 158.79 96.32 167.40 70.03 155.55 67.52"
/>
<path stroke="#927a6d" vector-effect="non-scaling-stroke" d="
  M 111.62 74.04
  A 0.89 0.88 15.9 0 0 110.25 74.80
  C 110.34 78.47 108.98 82.81 105.13 84.12
  C 97.31 86.80 96.60 75.38 96.21 71.12
  Q 96.18 70.75 95.80 70.74
  L 70.88 70.28
  Q 70.45 70.27 70.47 70.70
  C 70.73 76.28 70.37 82.91 72.48 87.66
  C 77.68 99.43 90.74 102.52 100.55 93.94
  C 102.89 91.88 101.52 87.02 105.74 87.02
  C 113.40 87.02 119.60 79.26 111.62 74.04"
/>
<path stroke="#533d3e" vector-effect="non-scaling-stroke" d="
  M 103.61 78.51
  C 104.72 77.57 104.55 71.89 104.43 70.43
  Q 104.39 69.94 103.91 69.97
  L 102.18 70.08
  Q 101.52 70.12 101.62 70.77
  L 102.82 78.23
  A 0.48 0.48 0.0 0 0 103.61 78.51"
/>
<path stroke="#533d3e" vector-effect="non-scaling-stroke" d="
  M 44.31 74.19
  C 35.53 70.25 35.01 85.16 35.82 90.29
  C 36.51 94.72 37.06 99.08 38.63 103.36
  Q 45.85 123.10 52.57 143.01
  Q 52.78 143.63 53.42 143.53
  L 54.55 143.36
  Q 55.18 143.27 55.23 142.63
  C 55.35 141.29 54.83 139.83 54.74 138.73
  Q 53.26 119.77 50.98 100.90
  C 50.32 95.45 50.09 76.77 44.31 74.19"
/>
<path stroke="#533d3e" vector-effect="non-scaling-stroke" d="
  M 120.44 95.51
  A 0.31 0.31 0.0 0 0 120.37 95.88
  L 121.98 99.17
  A 0.31 0.31 0.0 0 0 122.44 99.28
  L 127.34 95.70
  A 0.31 0.31 0.0 0 0 127.44 95.34
  L 125.82 91.24
  A 0.31 0.31 0.0 0 0 125.33 91.13
  L 120.44 95.51"
/>
<path stroke="#533d3e" vector-effect="non-scaling-stroke" d="
  M 102.98 99.87
  L 109.09 99.00
  Q 109.60 98.93 109.98 98.58
  L 113.16 95.65
  Q 113.60 95.24 113.25 94.75
  L 111.79 92.72
  Q 111.41 92.20 110.93 92.63
  L 102.89 99.68
  A 0.11 0.11 0.0 0 0 102.98 99.87"
/>
<path stroke="#533d3e" vector-effect="non-scaling-stroke" d="
  M 63.98 97.96
  Q 59.96 96.77 56.85 93.97
  Q 56.11 93.31 56.22 94.30
  L 56.75 98.87
  Q 56.81 99.38 57.24 99.65
  L 63.19 103.41
  Q 63.65 103.70 63.74 103.15
  L 64.42 98.65
  A 0.62 0.62 0.0 0 0 63.98 97.96"
/>
<path stroke="#533d3e" vector-effect="non-scaling-stroke" d="
  M 89.10 109.55
  C 86.33 107.84 84.29 105.38 81.41 104.03
  Q 76.06 101.53 71.87 97.30
  Q 71.37 96.80 71.13 97.47
  L 69.78 101.19
  Q 69.61 101.67 70.02 101.96
  C 75.48 105.93 80.96 109.32 86.45 113.48
  Q 86.92 113.83 87.23 113.34
  L 89.24 110.15
  A 0.44 0.44 0.0 0 0 89.10 109.55"
/>
<path stroke="#533d3e" vector-effect="non-scaling-stroke" d="
  M 89.35 126.70
  C 92.38 125.13 94.22 129.19 92.06 131.02
  Q 90.78 132.11 89.39 133.15
  Q 88.93 133.49 89.15 134.02
  L 91.88 140.38
  Q 92.19 141.11 92.77 140.57
  Q 97.41 136.19 101.99 131.74
  C 105.61 128.23 108.38 134.27 105.27 136.81
  Q 100.80 140.47 96.77 144.59
  Q 96.24 145.14 96.93 145.46
  L 102.34 148.03
  Q 102.93 148.31 103.41 147.87
  Q 110.09 141.92 116.95 136.19
  C 120.36 133.34 124.66 137.16 120.00 140.95
  Q 115.40 144.69 110.76 148.66
  Q 110.09 149.24 110.97 149.28
  Q 129.49 150.09 131.11 131.96
  Q 131.18 131.11 130.51 131.64
  C 128.58 133.15 126.79 135.40 124.93 132.03
  Q 124.22 130.73 125.18 129.60
  L 130.04 123.94
  Q 130.42 123.49 130.28 122.92
  L 128.68 116.24
  A 0.32 0.32 0.0 0 0 128.15 116.08
  L 114.25 128.84
  Q 113.86 129.21 113.33 129.25
  Q 110.14 129.51 109.74 126.55
  Q 109.68 126.05 109.99 125.66
  C 114.30 120.31 120.01 116.31 124.64 111.07
  Q 125.09 110.56 124.55 110.15
  L 120.40 106.98
  Q 119.94 106.62 119.51 107.03
  C 117.84 108.59 109.00 117.86 107.00 113.40
  C 105.74 110.61 111.44 106.89 113.34 105.56
  A 0.50 0.50 0.0 0 0 113.06 104.65
  C 99.58 104.53 90.77 113.27 88.79 126.30
  Q 88.68 127.04 89.35 126.70"
/>
<path stroke="#3d504e" vector-effect="non-scaling-stroke" d="
  M 76.41 113.24
  L 69.62 108.62
  A 0.51 0.51 0.0 0 0 68.82 109.02
  L 68.40 120.95
  Q 68.38 121.59 68.84 121.15
  L 76.46 113.83
  A 0.38 0.38 0.0 0 0 76.41 113.24"
/>
<path stroke="#533d3e" vector-effect="non-scaling-stroke" d="
  M 58.53 116.30
  L 59.05 121.03
  Q 59.16 122.02 59.92 121.39
  L 62.19 119.51
  Q 62.61 119.16 62.56 118.62
  Q 62.22 115.39 62.98 112.26
  A 0.30 0.30 0.0 0 0 62.49 111.97
  L 58.93 115.25
  Q 58.47 115.67 58.53 116.30"
/>
<path stroke="#533d3e" vector-effect="non-scaling-stroke" d="
  M 74.56 129.84
  C 76.62 128.72 83.32 123.93 84.39 120.17
  Q 84.53 119.66 84.16 119.28
  L 82.22 117.35
  Q 81.69 116.82 81.15 117.34
  L 68.66 129.33
  Q 68.14 129.83 68.84 130.01
  Q 72.54 130.94 74.56 129.84"
/>
<path stroke="#927a6d" vector-effect="non-scaling-stroke" d="
  M 137.26 128.29
  C 137.24 126.98 137.86 122.13 136.59 121.73
  A 0.47 0.47 0.0 0 0 135.97 122.23
  L 136.64 128.29
  Q 136.65 128.38 136.73 128.41
  Q 136.85 128.45 136.98 128.49
  Q 137.26 128.59 137.26 128.29"
/>
<path stroke="#927a6d" vector-effect="non-scaling-stroke" d="
  M 60.11 134.16
  A 0.40 0.40 0.0 0 0 60.42 134.52
  L 61.76 134.83
  A 0.40 0.40 0.0 0 0 62.25 134.44
  L 62.25 128.08
  A 0.40 0.40 0.0 0 0 61.80 127.68
  L 60.04 127.89
  A 0.40 0.40 0.0 0 0 59.69 128.32
  L 60.11 134.16"
/>
<path stroke="#533d3e" vector-effect="non-scaling-stroke" d="
  M 68.24 138.92
  A 0.63 0.63 0.0 0 0 68.87 139.55
  L 83.96 139.38
  A 0.63 0.63 0.0 0 0 84.56 138.58
  L 83.90 136.21
  A 0.63 0.63 0.0 0 0 83.29 135.75
  L 68.89 135.75
  A 0.63 0.63 0.0 0 0 68.26 136.37
  L 68.24 138.92"
/>
<path stroke="#533d3e" vector-effect="non-scaling-stroke" d="
  M 61.37 159.98
  A 0.80 0.80 0.0 0 0 62.17 159.20
  C 62.22 157.52 62.95 140.69 61.63 140.48
  Q 60.98 140.37 60.86 141.02
  C 60.50 143.03 61.42 146.45 59.19 147.67
  Q 55.06 149.93 50.39 148.83
  Q 49.84 148.70 49.80 149.26
  Q 49.40 154.36 50.73 159.32
  Q 50.88 159.91 51.50 159.91
  L 61.37 159.98"
/>
<path stroke="#533d3e" vector-effect="non-scaling-stroke" d="
  M 91.37 148.39
  L 88.57 145.68
  Q 88.19 145.32 87.68 145.32
  L 68.95 145.52
  Q 68.52 145.53 68.46 145.95
  Q 67.13 155.04 68.35 164.15
  A 2.20 2.19 85.5 0 0 70.58 166.06
  L 84.50 165.71
  A 1.01 1.00 -89.4 0 0 85.47 164.76
  C 85.74 158.65 83.68 151.68 91.20 149.13
  A 0.45 0.44 -32.5 0 0 91.37 148.39"
/>
<path stroke="#533d3e" vector-effect="non-scaling-stroke" d="
  M 122.00 153.86
  C 116.13 155.65 111.92 154.73 106.28 154.60
  Q 105.63 154.58 105.86 155.19
  Q 107.27 159.02 106.69 163.10
  A 2.25 2.24 -85.9 0 0 108.90 165.66
  L 120.85 165.70
  Q 122.15 165.71 122.20 164.40
  L 122.57 154.29
  Q 122.59 153.68 122.00 153.86"
/>
<path stroke="#533d3e" vector-effect="non-scaling-stroke" d="
  M 100.64 159.28
  C 101.05 153.13 91.57 152.10 91.05 157.13
  C 90.81 159.45 91.85 159.76 93.96 159.76
  Q 97.12 159.76 100.14 159.75
  Q 100.61 159.74 100.64 159.28"
/>
<path stroke="#927a6d" vector-effect="non-scaling-stroke" d="
  M 85.0362 75.5509
  A 2.50 2.50 0.0 0 0 82.5275 73.0597
  L 82.3075 73.0604
  A 2.50 2.50 0.0 0 0 79.8163 75.5692
  L 79.8638 89.1691
  A 2.50 2.50 0.0 0 0 82.3725 91.6603
  L 82.5925 91.6596
  A 2.50 2.50 0.0 0 0 85.0837 89.1508
  L 85.0362 75.5509"
/>
<path stroke="#533d3e" vector-effect="non-scaling-stroke" d="
  M 103.3880 117.3116
  A 2.49 2.49 0.0 0 0 99.8846 116.9558
  L 95.2815 120.7100
  A 2.49 2.49 0.0 0 0 94.9256 124.2134
  L 95.0520 124.3684
  A 2.49 2.49 0.0 0 0 98.5554 124.7242
  L 103.1585 120.9700
  A 2.49 2.49 0.0 0 0 103.5144 117.4666
  L 103.3880 117.3116"
/>
</g>
<g fill="#38383c">
<path d="
  M 136.08 137.29
  C 135.64 140.28 134.60 142.88 134.77 145.95
  Q 135.14 152.79 133.93 159.51
  C 133.32 162.84 131.59 164.34 128.59 165.32
  Q 128.09 165.48 128.02 166.00
  Q 127.32 170.63 122.26 171.25
  C 118.69 171.68 104.47 172.52 102.80 168.71
  Q 102.24 167.42 101.54 166.23
  Q 101.27 165.77 100.74 165.76
  L 91.82 165.46
  Q 91.29 165.44 91.17 165.96
  Q 89.92 171.75 83.68 171.79
  C 77.84 171.82 65.98 173.98 62.94 165.98
  Q 62.75 165.47 62.21 165.50
  C 55.80 165.90 46.18 167.55 44.87 158.50
  Q 43.75 150.74 44.44 142.93
  C 44.59 141.29 44.56 134.79 43.29 134.54
  Q 42.78 134.43 42.77 134.96
  C 42.73 137.44 43.39 140.50 40.68 141.88
  C 37.94 143.28 31.50 144.55 30.17 140.73
  Q 23.28 121.02 15.95 101.48
  C 12.07 91.15 7.70 70.71 18.11 63.68
  C 24.79 59.16 31.27 62.99 34.63 69.52
  Q 35.09 70.42 35.91 69.83
  Q 41.18 65.97 47.01 69.25
  A 0.31 0.31 0.0 0 0 47.47 68.95
  C 46.48 58.92 49.90 47.14 59.03 41.69
  C 67.68 36.51 78.35 38.10 86.07 44.43
  Q 86.46 44.75 86.97 44.75
  L 92.29 44.75
  Q 92.87 44.75 93.29 44.36
  C 104.84 33.65 121.41 38.51 128.32 50.65
  C 133.39 59.54 132.50 75.19 129.28 84.66
  Q 129.11 85.16 129.35 85.63
  C 131.21 89.41 132.62 92.50 133.11 96.78
  Q 134.18 106.10 134.49 115.45
  Q 134.51 116.08 135.13 116.13
  L 137.12 116.29
  Q 137.80 116.35 137.88 115.67
  Q 139.83 99.36 141.27 83.01
  C 141.87 76.20 143.94 65.69 151.11 62.59
  C 160.16 58.69 166.48 67.99 167.10 75.72
  C 167.86 85.11 166.16 92.64 162.64 102.33
  Q 155.66 121.49 149.03 140.81
  C 147.67 144.79 135.84 144.30 136.24 137.30
  Q 136.33 135.59 136.08 137.29
  Z
  M 78.43 45.98
  Q 59.59 39.48 53.52 57.72
  A 0.68 0.67 -80.5 0 0 54.15 58.61
  L 67.11 58.81
  Q 67.60 58.82 67.80 58.37
  Q 71.13 50.76 78.50 46.93
  A 0.52 0.52 0.0 0 0 78.43 45.98
  Z
  M 125.16 57.40
  C 122.71 44.97 110.01 41.56 99.59 46.59
  A 0.32 0.32 0.0 0 0 99.56 47.15
  Q 106.11 51.34 109.47 58.41
  Q 109.66 58.79 110.08 58.79
  L 124.13 58.66
  Q 125.40 58.65 125.16 57.40
  Z
  M 104.52 63.03
  C 99.81 45.51 76.12 46.01 71.67 63.69
  Q 71.55 64.15 72.01 64.26
  Q 73.62 64.64 75.25 64.68
  Q 89.74 65.03 103.70 64.17
  Q 104.81 64.10 104.52 63.03
  Z
  M 64.65 66.98
  C 65.54 67.26 65.80 65.66 65.75 65.14
  Q 65.70 64.68 65.23 64.66
  L 52.85 64.12
  Q 52.52 64.10 52.52 64.42
  C 52.49 74.51 52.83 84.15 61.93 90.48
  Q 64.31 92.14 66.70 92.21
  A 1.12 1.12 0.0 0 0 67.79 90.72
  L 66.13 86.02
  Q 65.96 85.53 65.47 85.70
  C 63.16 86.50 61.99 84.84 61.89 82.69
  C 61.65 77.73 60.53 67.62 63.95 66.95
  Q 64.31 66.88 64.65 66.98
  Z
  M 111.87 68.34
  L 113.81 66.94
  Q 114.12 66.72 114.50 66.77
  Q 117.58 67.17 117.25 70.24
  Q 117.20 70.76 117.52 71.18
  C 122.20 77.23 122.20 82.90 117.06 88.65
  Q 116.75 88.99 116.75 89.45
  L 116.75 89.95
  A 0.51 0.50 -18.6 0 0 117.56 90.35
  C 126.99 83.16 125.93 75.39 126.53 64.66
  Q 126.56 64.22 126.12 64.23
  L 111.16 64.61
  Q 110.69 64.62 110.71 65.10
  L 110.85 67.85
  Q 110.91 69.03 111.87 68.34
  Z
  M 29.56 83.81
  C 29.85 80.78 31.21 77.67 30.30 74.42
  C 29.31 70.87 26.36 65.94 22.22 67.80
  C 14.22 71.39 18.35 91.57 20.30 96.74
  Q 27.84 116.74 34.54 137.06
  Q 34.76 137.73 35.44 137.56
  L 36.57 137.28
  Q 37.18 137.14 37.13 136.51
  Q 36.24 125.45 35.06 114.41
  C 33.95 104.11 28.54 94.51 29.56 83.81
  Z
  M 155.55 67.52
  C 149.42 66.23 147.67 78.65 147.25 82.58
  Q 144.35 109.26 142.15 136.01
  Q 142.00 137.80 143.70 137.45
  A 1.20 1.19 -86.5 0 0 144.58 136.67
  Q 150.20 119.76 156.20 103.38
  C 158.79 96.32 167.40 70.03 155.55 67.52
  Z
  M 111.62 74.04
  A 0.89 0.88 15.9 0 0 110.25 74.80
  C 110.34 78.47 108.98 82.81 105.13 84.12
  C 97.31 86.80 96.60 75.38 96.21 71.12
  Q 96.18 70.75 95.80 70.74
  L 70.88 70.28
  Q 70.45 70.27 70.47 70.70
  C 70.73 76.28 70.37 82.91 72.48 87.66
  C 77.68 99.43 90.74 102.52 100.55 93.94
  C 102.89 91.88 101.52 87.02 105.74 87.02
  C 113.40 87.02 119.60 79.26 111.62 74.04
  Z
  M 103.61 78.51
  C 104.72 77.57 104.55 71.89 104.43 70.43
  Q 104.39 69.94 103.91 69.97
  L 102.18 70.08
  Q 101.52 70.12 101.62 70.77
  L 102.82 78.23
  A 0.48 0.48 0.0 0 0 103.61 78.51
  Z
  M 44.31 74.19
  C 35.53 70.25 35.01 85.16 35.82 90.29
  C 36.51 94.72 37.06 99.08 38.63 103.36
  Q 45.85 123.10 52.57 143.01
  Q 52.78 143.63 53.42 143.53
  L 54.55 143.36
  Q 55.18 143.27 55.23 142.63
  C 55.35 141.29 54.83 139.83 54.74 138.73
  Q 53.26 119.77 50.98 100.90
  C 50.32 95.45 50.09 76.77 44.31 74.19
  Z
  M 120.44 95.51
  A 0.31 0.31 0.0 0 0 120.37 95.88
  L 121.98 99.17
  A 0.31 0.31 0.0 0 0 122.44 99.28
  L 127.34 95.70
  A 0.31 0.31 0.0 0 0 127.44 95.34
  L 125.82 91.24
  A 0.31 0.31 0.0 0 0 125.33 91.13
  L 120.44 95.51
  Z
  M 102.98 99.87
  L 109.09 99.00
  Q 109.60 98.93 109.98 98.58
  L 113.16 95.65
  Q 113.60 95.24 113.25 94.75
  L 111.79 92.72
  Q 111.41 92.20 110.93 92.63
  L 102.89 99.68
  A 0.11 0.11 0.0 0 0 102.98 99.87
  Z
  M 63.98 97.96
  Q 59.96 96.77 56.85 93.97
  Q 56.11 93.31 56.22 94.30
  L 56.75 98.87
  Q 56.81 99.38 57.24 99.65
  L 63.19 103.41
  Q 63.65 103.70 63.74 103.15
  L 64.42 98.65
  A 0.62 0.62 0.0 0 0 63.98 97.96
  Z
  M 89.10 109.55
  C 86.33 107.84 84.29 105.38 81.41 104.03
  Q 76.06 101.53 71.87 97.30
  Q 71.37 96.80 71.13 97.47
  L 69.78 101.19
  Q 69.61 101.67 70.02 101.96
  C 75.48 105.93 80.96 109.32 86.45 113.48
  Q 86.92 113.83 87.23 113.34
  L 89.24 110.15
  A 0.44 0.44 0.0 0 0 89.10 109.55
  Z
  M 89.35 126.70
  C 92.38 125.13 94.22 129.19 92.06 131.02
  Q 90.78 132.11 89.39 133.15
  Q 88.93 133.49 89.15 134.02
  L 91.88 140.38
  Q 92.19 141.11 92.77 140.57
  Q 97.41 136.19 101.99 131.74
  C 105.61 128.23 108.38 134.27 105.27 136.81
  Q 100.80 140.47 96.77 144.59
  Q 96.24 145.14 96.93 145.46
  L 102.34 148.03
  Q 102.93 148.31 103.41 147.87
  Q 110.09 141.92 116.95 136.19
  C 120.36 133.34 124.66 137.16 120.00 140.95
  Q 115.40 144.69 110.76 148.66
  Q 110.09 149.24 110.97 149.28
  Q 129.49 150.09 131.11 131.96
  Q 131.18 131.11 130.51 131.64
  C 128.58 133.15 126.79 135.40 124.93 132.03
  Q 124.22 130.73 125.18 129.60
  L 130.04 123.94
  Q 130.42 123.49 130.28 122.92
  L 128.68 116.24
  A 0.32 0.32 0.0 0 0 128.15 116.08
  L 114.25 128.84
  Q 113.86 129.21 113.33 129.25
  Q 110.14 129.51 109.74 126.55
  Q 109.68 126.05 109.99 125.66
  C 114.30 120.31 120.01 116.31 124.64 111.07
  Q 125.09 110.56 124.55 110.15
  L 120.40 106.98
  Q 119.94 106.62 119.51 107.03
  C 117.84 108.59 109.00 117.86 107.00 113.40
  C 105.74 110.61 111.44 106.89 113.34 105.56
  A 0.50 0.50 0.0 0 0 113.06 104.65
  C 99.58 104.53 90.77 113.27 88.79 126.30
  Q 88.68 127.04 89.35 126.70
  Z
  M 76.41 113.24
  L 69.62 108.62
  A 0.51 0.51 0.0 0 0 68.82 109.02
  L 68.40 120.95
  Q 68.38 121.59 68.84 121.15
  L 76.46 113.83
  A 0.38 0.38 0.0 0 0 76.41 113.24
  Z
  M 58.53 116.30
  L 59.05 121.03
  Q 59.16 122.02 59.92 121.39
  L 62.19 119.51
  Q 62.61 119.16 62.56 118.62
  Q 62.22 115.39 62.98 112.26
  A 0.30 0.30 0.0 0 0 62.49 111.97
  L 58.93 115.25
  Q 58.47 115.67 58.53 116.30
  Z
  M 74.56 129.84
  C 76.62 128.72 83.32 123.93 84.39 120.17
  Q 84.53 119.66 84.16 119.28
  L 82.22 117.35
  Q 81.69 116.82 81.15 117.34
  L 68.66 129.33
  Q 68.14 129.83 68.84 130.01
  Q 72.54 130.94 74.56 129.84
  Z
  M 137.26 128.29
  C 137.24 126.98 137.86 122.13 136.59 121.73
  A 0.47 0.47 0.0 0 0 135.97 122.23
  L 136.64 128.29
  Q 136.65 128.38 136.73 128.41
  Q 136.85 128.45 136.98 128.49
  Q 137.26 128.59 137.26 128.29
  Z
  M 60.11 134.16
  A 0.40 0.40 0.0 0 0 60.42 134.52
  L 61.76 134.83
  A 0.40 0.40 0.0 0 0 62.25 134.44
  L 62.25 128.08
  A 0.40 0.40 0.0 0 0 61.80 127.68
  L 60.04 127.89
  A 0.40 0.40 0.0 0 0 59.69 128.32
  L 60.11 134.16
  Z
  M 68.24 138.92
  A 0.63 0.63 0.0 0 0 68.87 139.55
  L 83.96 139.38
  A 0.63 0.63 0.0 0 0 84.56 138.58
  L 83.90 136.21
  A 0.63 0.63 0.0 0 0 83.29 135.75
  L 68.89 135.75
  A 0.63 0.63 0.0 0 0 68.26 136.37
  L 68.24 138.92
  Z
  M 61.37 159.98
  A 0.80 0.80 0.0 0 0 62.17 159.20
  C 62.22 157.52 62.95 140.69 61.63 140.48
  Q 60.98 140.37 60.86 141.02
  C 60.50 143.03 61.42 146.45 59.19 147.67
  Q 55.06 149.93 50.39 148.83
  Q 49.84 148.70 49.80 149.26
  Q 49.40 154.36 50.73 159.32
  Q 50.88 159.91 51.50 159.91
  L 61.37 159.98
  Z
  M 91.37 148.39
  L 88.57 145.68
  Q 88.19 145.32 87.68 145.32
  L 68.95 145.52
  Q 68.52 145.53 68.46 145.95
  Q 67.13 155.04 68.35 164.15
  A 2.20 2.19 85.5 0 0 70.58 166.06
  L 84.50 165.71
  A 1.01 1.00 -89.4 0 0 85.47 164.76
  C 85.74 158.65 83.68 151.68 91.20 149.13
  A 0.45 0.44 -32.5 0 0 91.37 148.39
  Z
  M 122.00 153.86
  C 116.13 155.65 111.92 154.73 106.28 154.60
  Q 105.63 154.58 105.86 155.19
  Q 107.27 159.02 106.69 163.10
  A 2.25 2.24 -85.9 0 0 108.90 165.66
  L 120.85 165.70
  Q 122.15 165.71 122.20 164.40
  L 122.57 154.29
  Q 122.59 153.68 122.00 153.86
  Z
  M 100.64 159.28
  C 101.05 153.13 91.57 152.10 91.05 157.13
  C 90.81 159.45 91.85 159.76 93.96 159.76
  Q 97.12 159.76 100.14 159.75
  Q 100.61 159.74 100.64 159.28
  Z"
/>
<rect x="-2.61" y="-9.30" transform="translate(82.45,82.36) rotate(-0.2)" width="5.22" height="18.60" rx="2.50"/>
<rect x="-5.46" y="-2.59" transform="translate(99.22,120.84) rotate(-39.2)" width="10.92" height="5.18" rx="2.49"/>
</g>
<g fill="#ebbc9e">
<path d="
  M 63.95 66.95
  C 60.53 67.62 61.65 77.73 61.89 82.69
  C 61.99 84.84 63.16 86.50 65.47 85.70
  Q 65.96 85.53 66.13 86.02
  L 67.79 90.72
  A 1.12 1.12 0.0 0 1 66.70 92.21
  Q 64.31 92.14 61.93 90.48
  C 52.83 84.15 52.49 74.51 52.52 64.42
  Q 52.52 64.10 52.85 64.12
  L 65.23 64.66
  Q 65.70 64.68 65.75 65.14
  C 65.80 65.66 65.54 67.26 64.65 66.98
  Q 64.31 66.88 63.95 66.95
  Z"
/>
<path d="
  M 110.85 67.85
  L 110.71 65.10
  Q 110.69 64.62 111.16 64.61
  L 126.12 64.23
  Q 126.56 64.22 126.53 64.66
  C 125.93 75.39 126.99 83.16 117.56 90.35
  A 0.51 0.50 -18.6 0 1 116.75 89.95
  L 116.75 89.45
  Q 116.75 88.99 117.06 88.65
  C 122.20 82.90 122.20 77.23 117.52 71.18
  Q 117.20 70.76 117.25 70.24
  Q 117.58 67.17 114.50 66.77
  Q 114.12 66.72 113.81 66.94
  L 111.87 68.34
  Q 110.91 69.03 110.85 67.85
  Z"
/>
<path d="
  M 111.62 74.04
  C 119.60 79.26 113.40 87.02 105.74 87.02
  C 101.52 87.02 102.89 91.88 100.55 93.94
  C 90.74 102.52 77.68 99.43 72.48 87.66
  C 70.37 82.91 70.73 76.28 70.47 70.70
  Q 70.45 70.27 70.88 70.28
  L 95.80 70.74
  Q 96.18 70.75 96.21 71.12
  C 96.60 75.38 97.31 86.80 105.13 84.12
  C 108.98 82.81 110.34 78.47 110.25 74.80
  A 0.89 0.88 15.9 0 1 111.62 74.04
  Z
  M 85.0362 75.5509
  A 2.50 2.50 0.0 0 0 82.5275 73.0597
  L 82.3075 73.0604
  A 2.50 2.50 0.0 0 0 79.8163 75.5692
  L 79.8638 89.1691
  A 2.50 2.50 0.0 0 0 82.3725 91.6603
  L 82.5925 91.6596
  A 2.50 2.50 0.0 0 0 85.0837 89.1508
  L 85.0362 75.5509
  Z"
/>
<path d="
  M 136.59 121.73
  C 137.86 122.13 137.24 126.98 137.26 128.29
  Q 137.26 128.59 136.98 128.49
  Q 136.85 128.45 136.73 128.41
  Q 136.65 128.38 136.64 128.29
  L 135.97 122.23
  A 0.47 0.47 0.0 0 1 136.59 121.73
  Z"
/>
<path d="
  M 60.11 134.16
  L 59.69 128.32
  A 0.40 0.40 0.0 0 1 60.04 127.89
  L 61.80 127.68
  A 0.40 0.40 0.0 0 1 62.25 128.08
  L 62.25 134.44
  A 0.40 0.40 0.0 0 1 61.76 134.83
  L 60.42 134.52
  A 0.40 0.40 0.0 0 1 60.11 134.16
  Z"
/>
</g>
<g fill="#6e423f">
<path d="
  M 78.43 45.98
  A 0.52 0.52 0.0 0 1 78.50 46.93
  Q 71.13 50.76 67.80 58.37
  Q 67.60 58.82 67.11 58.81
  L 54.15 58.61
  A 0.68 0.67 -80.5 0 1 53.52 57.72
  Q 59.59 39.48 78.43 45.98
  Z"
/>
<path d="
  M 99.59 46.59
  C 110.01 41.56 122.71 44.97 125.16 57.40
  Q 125.40 58.65 124.13 58.66
  L 110.08 58.79
  Q 109.66 58.79 109.47 58.41
  Q 106.11 51.34 99.56 47.15
  A 0.32 0.32 0.0 0 1 99.59 46.59
  Z"
/>
<path d="
  M 71.67 63.69
  C 76.12 46.01 99.81 45.51 104.52 63.03
  Q 104.81 64.10 103.70 64.17
  Q 89.74 65.03 75.25 64.68
  Q 73.62 64.64 72.01 64.26
  Q 71.55 64.15 71.67 63.69
  Z"
/>
<path d="
  M 29.56 83.81
  C 28.54 94.51 33.95 104.11 35.06 114.41
  Q 36.24 125.45 37.13 136.51
  Q 37.18 137.14 36.57 137.28
  L 35.44 137.56
  Q 34.76 137.73 34.54 137.06
  Q 27.84 116.74 20.30 96.74
  C 18.35 91.57 14.22 71.39 22.22 67.80
  C 26.36 65.94 29.31 70.87 30.30 74.42
  C 31.21 77.67 29.85 80.78 29.56 83.81
  Z"
/>
<path d="
  M 155.55 67.52
  C 167.40 70.03 158.79 96.32 156.20 103.38
  Q 150.20 119.76 144.58 136.67
  A 1.20 1.19 -86.5 0 1 143.70 137.45
  Q 142.00 137.80 142.15 136.01
  Q 144.35 109.26 147.25 82.58
  C 147.67 78.65 149.42 66.23 155.55 67.52
  Z"
/>
<path d="
  M 104.43 70.43
  C 104.55 71.89 104.72 77.57 103.61 78.51
  A 0.48 0.48 0.0 0 1 102.82 78.23
  L 101.62 70.77
  Q 101.52 70.12 102.18 70.08
  L 103.91 69.97
  Q 104.39 69.94 104.43 70.43
  Z"
/>
<path d="
  M 44.31 74.19
  C 50.09 76.77 50.32 95.45 50.98 100.90
  Q 53.26 119.77 54.74 138.73
  C 54.83 139.83 55.35 141.29 55.23 142.63
  Q 55.18 143.27 54.55 143.36
  L 53.42 143.53
  Q 52.78 143.63 52.57 143.01
  Q 45.85 123.10 38.63 103.36
  C 37.06 99.08 36.51 94.72 35.82 90.29
  C 35.01 85.16 35.53 70.25 44.31 74.19
  Z"
/>
<path d="
  M 120.44 95.51
  L 125.33 91.13
  A 0.31 0.31 0.0 0 1 125.82 91.24
  L 127.44 95.34
  A 0.31 0.31 0.0 0 1 127.34 95.70
  L 122.44 99.28
  A 0.31 0.31 0.0 0 1 121.98 99.17
  L 120.37 95.88
  A 0.31 0.31 0.0 0 1 120.44 95.51
  Z"
/>
<path d="
  M 102.98 99.87
  A 0.11 0.11 0.0 0 1 102.89 99.68
  L 110.93 92.63
  Q 111.41 92.20 111.79 92.72
  L 113.25 94.75
  Q 113.60 95.24 113.16 95.65
  L 109.98 98.58
  Q 109.60 98.93 109.09 99.00
  L 102.98 99.87
  Z"
/>
<path d="
  M 63.98 97.96
  A 0.62 0.62 0.0 0 1 64.42 98.65
  L 63.74 103.15
  Q 63.65 103.70 63.19 103.41
  L 57.24 99.65
  Q 56.81 99.38 56.75 98.87
  L 56.22 94.30
  Q 56.11 93.31 56.85 93.97
  Q 59.96 96.77 63.98 97.96
  Z"
/>
<path d="
  M 89.10 109.55
  A 0.44 0.44 0.0 0 1 89.24 110.15
  L 87.23 113.34
  Q 86.92 113.83 86.45 113.48
  C 80.96 109.32 75.48 105.93 70.02 101.96
  Q 69.61 101.67 69.78 101.19
  L 71.13 97.47
  Q 71.37 96.80 71.87 97.30
  Q 76.06 101.53 81.41 104.03
  C 84.29 105.38 86.33 107.84 89.10 109.55
  Z"
/>
<path d="
  M 92.06 131.02
  C 94.22 129.19 92.38 125.13 89.35 126.70
  Q 88.68 127.04 88.79 126.30
  C 90.77 113.27 99.58 104.53 113.06 104.65
  A 0.50 0.50 0.0 0 1 113.34 105.56
  C 111.44 106.89 105.74 110.61 107.00 113.40
  C 109.00 117.86 117.84 108.59 119.51 107.03
  Q 119.94 106.62 120.40 106.98
  L 124.55 110.15
  Q 125.09 110.56 124.64 111.07
  C 120.01 116.31 114.30 120.31 109.99 125.66
  Q 109.68 126.05 109.74 126.55
  Q 110.14 129.51 113.33 129.25
  Q 113.86 129.21 114.25 128.84
  L 128.15 116.08
  A 0.32 0.32 0.0 0 1 128.68 116.24
  L 130.28 122.92
  Q 130.42 123.49 130.04 123.94
  L 125.18 129.60
  Q 124.22 130.73 124.93 132.03
  C 126.79 135.40 128.58 133.15 130.51 131.64
  Q 131.18 131.11 131.11 131.96
  Q 129.49 150.09 110.97 149.28
  Q 110.09 149.24 110.76 148.66
  Q 115.40 144.69 120.00 140.95
  C 124.66 137.16 120.36 133.34 116.95 136.19
  Q 110.09 141.92 103.41 147.87
  Q 102.93 148.31 102.34 148.03
  L 96.93 145.46
  Q 96.24 145.14 96.77 144.59
  Q 100.80 140.47 105.27 136.81
  C 108.38 134.27 105.61 128.23 101.99 131.74
  Q 97.41 136.19 92.77 140.57
  Q 92.19 141.11 91.88 140.38
  L 89.15 134.02
  Q 88.93 133.49 89.39 133.15
  Q 90.78 132.11 92.06 131.02
  Z
  M 103.3880 117.3116
  A 2.49 2.49 0.0 0 0 99.8846 116.9558
  L 95.2815 120.7100
  A 2.49 2.49 0.0 0 0 94.9256 124.2134
  L 95.0520 124.3684
  A 2.49 2.49 0.0 0 0 98.5554 124.7242
  L 103.1585 120.9700
  A 2.49 2.49 0.0 0 0 103.5144 117.4666
  L 103.3880 117.3116
  Z"
/>
<path d="
  M 58.93 115.25
  L 62.49 111.97
  A 0.30 0.30 0.0 0 1 62.98 112.26
  Q 62.22 115.39 62.56 118.62
  Q 62.61 119.16 62.19 119.51
  L 59.92 121.39
  Q 59.16 122.02 59.05 121.03
  L 58.53 116.30
  Q 58.47 115.67 58.93 115.25
  Z"
/>
<path d="
  M 84.39 120.17
  C 83.32 123.93 76.62 128.72 74.56 129.84
  Q 72.54 130.94 68.84 130.01
  Q 68.14 129.83 68.66 129.33
  L 81.15 117.34
  Q 81.69 116.82 82.22 117.35
  L 84.16 119.28
  Q 84.53 119.66 84.39 120.17
  Z"
/>
<path d="
  M 68.24 138.92
  L 68.26 136.37
  A 0.63 0.63 0.0 0 1 68.89 135.75
  L 83.29 135.75
  A 0.63 0.63 0.0 0 1 83.90 136.21
  L 84.56 138.58
  A 0.63 0.63 0.0 0 1 83.96 139.38
  L 68.87 139.55
  A 0.63 0.63 0.0 0 1 68.24 138.92
  Z"
/>
<path d="
  M 61.37 159.98
  L 51.50 159.91
  Q 50.88 159.91 50.73 159.32
  Q 49.40 154.36 49.80 149.26
  Q 49.84 148.70 50.39 148.83
  Q 55.06 149.93 59.19 147.67
  C 61.42 146.45 60.50 143.03 60.86 141.02
  Q 60.98 140.37 61.63 140.48
  C 62.95 140.69 62.22 157.52 62.17 159.20
  A 0.80 0.80 0.0 0 1 61.37 159.98
  Z"
/>
<path d="
  M 91.37 148.39
  A 0.45 0.44 -32.5 0 1 91.20 149.13
  C 83.68 151.68 85.74 158.65 85.47 164.76
  A 1.01 1.00 -89.4 0 1 84.50 165.71
  L 70.58 166.06
  A 2.20 2.19 85.5 0 1 68.35 164.15
  Q 67.13 155.04 68.46 145.95
  Q 68.52 145.53 68.95 145.52
  L 87.68 145.32
  Q 88.19 145.32 88.57 145.68
  L 91.37 148.39
  Z"
/>
<path d="
  M 106.28 154.60
  C 111.92 154.73 116.13 155.65 122.00 153.86
  Q 122.59 153.68 122.57 154.29
  L 122.20 164.40
  Q 122.15 165.71 120.85 165.70
  L 108.90 165.66
  A 2.25 2.24 -85.9 0 1 106.69 163.10
  Q 107.27 159.02 105.86 155.19
  Q 105.63 154.58 106.28 154.60
  Z"
/>
<path d="
  M 91.05 157.13
  C 91.57 152.10 101.05 153.13 100.64 159.28
  Q 100.61 159.74 100.14 159.75
  Q 97.12 159.76 93.96 159.76
  C 91.85 159.76 90.81 159.45 91.05 157.13
  Z"
/>
</g>
<path fill="#42685f" d="
  M 76.41 113.24
  A 0.38 0.38 0.0 0 1 76.46 113.83
  L 68.84 121.15
  Q 68.38 121.59 68.40 120.95
  L 68.82 109.02
  A 0.51 0.51 0.0 0 1 69.62 108.62
  L 76.41 113.24
  Z"
/>
</svg>
