<?xml version="1.0" encoding="UTF-8" standalone="no"?>
<!DOCTYPE svg PUBLIC "-//W3C//DTD SVG 1.1//EN" "http://www.w3.org/Graphics/SVG/1.1/DTD/svg11.dtd">
<svg xmlns="http://www.w3.org/2000/svg" version="1.1" viewBox="0 0 180 180">
<g stroke-width="2.00" fill="none" stroke-linecap="butt">
<path stroke="#82883e" vector-effect="non-scaling-stroke" d="
  M 80.84 62.71
  C 74.56 57.08 64.53 56.52 58.32 62.01
  C 54.80 65.12 52.92 69.83 51.71 74.43
  A 0.85 0.84 -76.0 0 0 52.33 75.47
  C 58.35 76.91 60.88 80.91 67.83 79.58
  Q 68.32 79.49 68.55 79.04
  C 69.61 76.93 70.11 74.39 71.19 72.62
  Q 74.77 66.72 80.68 63.88
  Q 81.63 63.42 80.84 62.71"
/>
<path stroke="#82883e" vector-effect="non-scaling-stroke" d="
  M 128.19 82.88
  C 130.78 66.03 117.18 51.15 100.11 61.58
  Q 98.41 62.61 100.18 63.54
  Q 106.98 67.11 110.57 73.85
  Q 110.83 74.33 111.37 74.43
  C 114.47 75.04 119.82 75.07 117.07 80.22
  Q 116.73 80.86 117.44 81.01
  Q 119.32 81.40 119.26 83.29
  Q 119.24 83.99 119.94 83.94
  L 127.70 83.33
  Q 128.12 83.30 128.19 82.88"
/>
<path stroke="#82883e" vector-effect="non-scaling-stroke" d="
  M 100.25 112.28
  C 98.16 112.18 95.83 112.22 93.42 111.84
  C 84.81 110.46 92.68 101.11 95.82 97.85
  C 102.22 91.22 106.14 97.89 105.84 103.96
  Q 105.82 104.48 106.31 104.31
  Q 107.85 103.79 108.85 102.49
  Q 109.18 102.07 109.67 101.84
  C 117.74 98.10 124.43 95.43 129.96 89.75
  Q 130.39 89.30 129.77 89.28
  Q 122.38 89.04 115.22 90.71
  C 111.98 91.47 109.84 93.55 106.92 89.94
  Q 106.59 89.54 106.66 89.03
  C 108.36 77.10 102.22 67.07 89.48 67.17
  C 79.18 67.25 72.73 77.08 72.44 86.48
  Q 72.37 88.94 72.98 96.04
  Q 73.02 96.55 73.38 96.91
  C 76.24 99.81 82.72 106.93 79.46 110.66
  Q 79.12 111.06 79.44 111.47
  C 84.14 117.49 94.78 116.30 100.39 112.81
  Q 101.17 112.32 100.25 112.28"
/>
<path stroke="#98989a" vector-effect="non-scaling-stroke" d="
  M 32.12 75.48
  Q 32.59 74.57 33.40 74.08
  Q 34.39 73.47 33.30 73.08
  L 20.43 68.55
  Q 19.66 68.28 19.54 69.09
  C 18.48 76.16 17.48 88.53 20.60 95.09
  Q 20.81 95.55 21.32 95.52
  Q 27.72 95.09 33.66 92.73
  Q 34.20 92.52 34.26 91.94
  Q 34.72 87.06 32.29 81.97
  Q 31.13 79.52 31.78 76.40
  Q 31.89 75.91 32.12 75.48"
/>
<path stroke="#98989a" vector-effect="non-scaling-stroke" d="
  M 147.86 75.26
  C 149.39 78.43 147.39 83.48 145.57 86.30
  Q 143.99 88.74 137.27 93.45
  Q 136.82 93.76 136.80 94.31
  L 136.73 97.25
  Q 136.71 97.88 137.31 98.07
  C 143.64 100.04 139.91 90.45 148.17 93.39
  C 150.04 94.06 158.82 96.72 159.70 94.50
  C 162.38 87.68 161.49 76.46 160.52 69.29
  A 0.89 0.89 0.0 0 0 159.34 68.57
  L 146.67 73.13
  Q 145.79 73.44 146.54 74.00
  L 147.24 74.51
  Q 147.64 74.81 147.86 75.26"
/>
<path stroke="#98989a" vector-effect="non-scaling-stroke" d="
  M 54.40 82.40
  Q 48.06 79.39 41.23 77.71
  A 0.65 0.64 -79.6 0 0 40.44 78.26
  C 39.53 85.34 38.49 97.49 41.57 104.03
  Q 41.78 104.49 42.28 104.46
  Q 48.03 104.14 53.46 102.23
  C 55.93 101.36 57.41 101.74 58.85 103.87
  Q 59.14 104.29 59.24 104.79
  Q 59.97 108.20 63.82 107.12
  Q 64.36 106.97 64.31 106.40
  L 63.98 103.13
  Q 63.93 102.60 63.50 102.30
  Q 57.67 98.26 55.14 94.87
  C 53.85 93.13 50.56 84.32 54.35 83.08
  Q 55.22 82.80 54.40 82.40"
/>
<path stroke="#82883e" vector-effect="non-scaling-stroke" d="
  M 136.65 83.99
  L 137.86 84.92
  Q 138.27 85.23 138.71 84.95
  Q 141.80 82.92 142.55 79.21
  Q 142.68 78.55 142.01 78.64
  L 134.26 79.66
  Q 133.75 79.72 133.75 80.23
  L 133.75 83.13
  Q 133.75 83.75 134.37 83.75
  L 135.93 83.75
  Q 136.33 83.75 136.65 83.99"
/>
<path stroke="#82883e" vector-effect="non-scaling-stroke" d="
  M 67.18 88.71
  L 59.05 87.65
  Q 58.53 87.58 58.57 88.10
  C 58.92 92.04 62.37 94.05 64.78 96.37
  A 1.44 1.44 0.0 0 0 67.22 95.34
  L 67.26 88.80
  Q 67.26 88.72 67.18 88.71"
/>
<path stroke="#98989a" vector-effect="non-scaling-stroke" d="
  M 70.31 106.78
  L 73.58 106.43
  Q 74.28 106.36 73.85 105.80
  L 70.35 101.33
  Q 69.50 100.24 69.50 101.63
  L 69.50 106.06
  A 0.73 0.72 -3.2 0 0 70.31 106.78"
/>
<path stroke="#98989a" vector-effect="non-scaling-stroke" d="
  M 96.18 105.74
  A 0.43 0.43 0.0 0 0 96.48 106.43
  L 100.03 106.79
  A 0.43 0.43 0.0 0 0 100.50 106.36
  L 100.50 101.49
  A 0.43 0.43 0.0 0 0 99.73 101.23
  L 96.18 105.74"
/>
<path stroke="#533d3e" vector-effect="non-scaling-stroke" d="
  M 137.65 104.06
  L 136.30 103.75
  Q 135.63 103.59 135.63 104.28
  L 135.79 143.76
  A 0.61 0.61 0.0 0 0 136.66 144.31
  Q 137.52 143.91 137.52 143.19
  C 137.56 130.40 137.97 117.61 138.24 104.82
  A 0.77 0.76 -83.0 0 0 137.65 104.06"
/>
<path stroke="#82883e" vector-effect="non-scaling-stroke" d="
  M 108.44 112.27
  C 103.16 122.28 89.76 122.95 80.27 119.46
  Q 79.93 119.33 79.93 119.69
  L 79.73 135.64
  Q 79.72 136.50 80.57 136.51
  L 98.32 136.83
  Q 98.84 136.84 99.19 136.44
  Q 102.88 132.13 108.52 131.09
  Q 109.26 130.95 109.14 130.20
  Q 108.54 126.51 110.12 125.27
  C 111.71 124.02 113.58 125.50 114.21 127.06
  C 117.46 135.07 110.24 136.05 105.22 138.33
  A 1.35 1.35 0.0 0 0 105.27 140.81
  Q 114.78 144.66 122.43 138.07
  Q 122.81 137.75 122.76 137.25
  C 121.86 127.47 121.15 116.96 115.80 108.43
  C 112.59 103.31 109.58 110.11 108.44 112.27"
/>
<path stroke="#533d3e" vector-effect="non-scaling-stroke" d="
  M 41.90 111.24
  C 41.86 122.08 42.17 132.93 42.65 143.75
  Q 42.69 144.47 43.35 144.20
  L 43.76 144.04
  Q 44.22 143.86 44.22 143.36
  L 44.52 110.74
  Q 44.52 110.19 43.99 110.06
  Q 41.91 109.55 41.90 111.24"
/>
<path stroke="#82883e" vector-effect="non-scaling-stroke" d="
  M 72.31 112.71
  A 0.84 0.84 0.0 0 0 71.04 113.45
  L 71.28 127.00
  Q 71.28 127.46 71.75 127.49
  L 73.68 127.63
  Q 74.33 127.67 74.30 127.03
  C 74.16 123.30 73.77 119.43 74.13 115.73
  Q 74.31 113.89 72.31 112.71"
/>
<path stroke="#533d3e" vector-effect="non-scaling-stroke" d="
  M 65.1414 113.7510
  A 0.71 0.71 0.0 0 0 64.4253 113.0473
  L 63.6253 113.0543
  A 0.71 0.71 0.0 0 0 62.9215 113.7704
  L 63.2586 152.3890
  A 0.71 0.71 0.0 0 0 63.9747 153.0927
  L 64.7747 153.0857
  A 0.71 0.71 0.0 0 0 65.4785 152.3696
  L 65.1414 113.7510"
/>
<path stroke="#82883e" vector-effect="non-scaling-stroke" d="
  M 52.9795 127.2753
  A 0.76 0.76 0.0 0 0 52.2116 126.5233
  L 50.9117 126.5370
  A 0.76 0.76 0.0 0 0 50.1597 127.3049
  L 50.2005 131.2047
  A 0.76 0.76 0.0 0 0 50.9684 131.9567
  L 52.2683 131.9430
  A 0.76 0.76 0.0 0 0 53.0203 131.1751
  L 52.9795 127.2753"
/>
<path stroke="#82883e" vector-effect="non-scaling-stroke" d="
  M 128.26 126.50
  Q 128.06 126.51 127.87 126.50
  Q 127.34 126.46 127.39 127.00
  L 127.86 131.38
  Q 127.94 132.15 128.70 132.00
  L 129.15 131.91
  Q 129.75 131.79 129.75 131.18
  L 129.75 127.16
  Q 129.75 126.95 129.57 126.84
  Q 129.45 126.76 129.30 126.72
  Q 128.45 126.48 128.26 126.50"
/>
<path stroke="#82883e" vector-effect="non-scaling-stroke" d="
  M 73.9932 136.4624
  A 0.90 0.90 0.0 0 0 73.0947 135.5608
  L 72.1547 135.5592
  A 0.90 0.90 0.0 0 0 71.2532 136.4576
  L 71.2468 140.0976
  A 0.90 0.90 0.0 0 0 72.1453 140.9992
  L 73.0853 141.0008
  A 0.90 0.90 0.0 0 0 73.9868 140.1024
  L 73.9932 136.4624"
/>
<path stroke="#533d3e" vector-effect="non-scaling-stroke" d="
  M 99.42 142.66
  A 0.31 0.31 0.0 0 0 99.19 142.56
  L 79.98 142.24
  A 0.31 0.31 0.0 0 0 79.66 142.55
  L 79.66 145.13
  A 0.31 0.31 0.0 0 0 79.98 145.44
  L 100.71 144.87
  A 0.31 0.31 0.0 0 0 100.93 144.35
  L 99.42 142.66"
/>
<path stroke="#533d3e" vector-effect="non-scaling-stroke" d="
  M 71.31 147.45
  L 70.62 156.40
  Q 70.59 156.67 70.83 156.54
  C 71.18 156.36 72.83 148.61 73.25 147.38
  Q 73.46 146.75 72.80 146.75
  L 72.06 146.75
  Q 71.36 146.75 71.31 147.45"
/>
<path stroke="#533d3e" vector-effect="non-scaling-stroke" d="
  M 122.60 151.30
  C 108.40 150.89 94.33 150.52 80.10 151.38
  Q 79.50 151.42 79.50 152.02
  L 79.50 165.01
  Q 79.50 165.52 80.01 165.55
  L 90.85 166.03
  Q 92.43 166.10 92.45 164.52
  C 92.49 160.99 93.32 157.15 95.81 154.66
  C 99.89 150.61 106.62 153.31 108.85 158.19
  C 109.88 160.44 109.77 163.17 109.81 165.76
  Q 109.81 166.35 110.40 166.37
  L 121.71 166.77
  Q 123.25 166.82 123.25 165.28
  L 123.25 151.98
  Q 123.25 151.32 122.60 151.30"
/>
<path stroke="#82883e" vector-effect="non-scaling-stroke" d="
  M 87.0983 92.4320
  A 2.60 2.60 0.0 0 0 84.4712 89.8594
  L 84.2513 89.8617
  A 2.60 2.60 0.0 0 0 81.6786 92.4888
  L 81.8217 106.1480
  A 2.60 2.60 0.0 0 0 84.4488 108.7206
  L 84.6687 108.7183
  A 2.60 2.60 0.0 0 0 87.2414 106.0912
  L 87.0983 92.4320"
/>
</g>
<g fill="#38383c">
<path d="
  M 97.93 164.15
  C 97.71 167.27 97.13 171.39 93.38 171.58
  Q 87.88 171.87 82.37 171.48
  C 76.75 171.09 73.09 169.25 74.01 163.02
  Q 74.09 162.48 73.55 162.52
  Q 66.51 163.00 58.76 162.18
  C 54.26 161.71 53.09 159.05 52.91 154.74
  Q 52.57 146.56 53.15 138.40
  Q 53.19 137.78 52.58 137.77
  L 50.77 137.74
  Q 50.20 137.73 50.20 138.30
  C 50.17 144.04 50.86 151.54 41.96 149.62
  Q 36.98 148.55 36.80 143.16
  Q 36.19 125.48 36.28 107.74
  Q 36.29 104.30 33.61 99.30
  Q 33.38 98.86 32.90 99.01
  Q 25.42 101.32 18.51 100.71
  C 10.44 100.00 13.88 69.98 15.00 65.50
  C 16.57 59.16 34.66 67.69 38.50 69.66
  Q 42.37 71.63 47.01 70.50
  Q 47.48 70.39 47.67 69.95
  C 48.65 67.79 49.18 65.32 50.35 63.46
  C 57.01 52.84 68.69 49.99 79.98 55.11
  C 82.99 56.48 85.22 59.00 87.53 61.43
  Q 87.90 61.82 88.45 61.80
  L 91.81 61.62
  Q 92.37 61.60 92.73 61.17
  C 103.11 48.95 121.33 49.77 129.77 63.70
  C 130.82 65.42 131.34 67.93 132.34 70.01
  Q 132.56 70.45 133.04 70.55
  C 139.41 71.83 141.99 68.91 146.86 67.12
  C 151.16 65.55 163.57 59.37 165.24 66.92
  C 167.36 76.45 168.23 90.67 163.80 99.26
  A 2.57 2.54 -78.6 0 1 161.75 100.64
  Q 154.13 101.34 146.88 98.93
  Q 146.30 98.73 146.11 99.31
  Q 145.41 101.35 143.69 102.66
  Q 143.24 103.01 143.30 103.58
  Q 143.72 107.46 143.71 111.25
  Q 143.69 125.11 143.51 138.97
  C 143.42 145.65 142.67 150.82 134.51 149.64
  C 128.47 148.77 130.17 141.82 129.67 137.81
  Q 129.62 137.44 129.25 137.49
  L 128.91 137.54
  Q 128.35 137.61 128.39 138.18
  Q 129.47 153.43 128.61 168.70
  Q 128.58 169.23 128.21 169.62
  C 124.24 173.79 115.20 172.58 109.67 171.82
  C 104.51 171.11 104.31 167.73 104.14 163.34
  Q 104.12 162.85 103.63 162.92
  L 98.39 163.66
  Q 97.97 163.72 97.93 164.15
  Z
  M 80.84 62.71
  C 74.56 57.08 64.53 56.52 58.32 62.01
  C 54.80 65.12 52.92 69.83 51.71 74.43
  A 0.85 0.84 -76.0 0 0 52.33 75.47
  C 58.35 76.91 60.88 80.91 67.83 79.58
  Q 68.32 79.49 68.55 79.04
  C 69.61 76.93 70.11 74.39 71.19 72.62
  Q 74.77 66.72 80.68 63.88
  Q 81.63 63.42 80.84 62.71
  Z
  M 128.19 82.88
  C 130.78 66.03 117.18 51.15 100.11 61.58
  Q 98.41 62.61 100.18 63.54
  Q 106.98 67.11 110.57 73.85
  Q 110.83 74.33 111.37 74.43
  C 114.47 75.04 119.82 75.07 117.07 80.22
  Q 116.73 80.86 117.44 81.01
  Q 119.32 81.40 119.26 83.29
  Q 119.24 83.99 119.94 83.94
  L 127.70 83.33
  Q 128.12 83.30 128.19 82.88
  Z
  M 100.25 112.28
  C 98.16 112.18 95.83 112.22 93.42 111.84
  C 84.81 110.46 92.68 101.11 95.82 97.85
  C 102.22 91.22 106.14 97.89 105.84 103.96
  Q 105.82 104.48 106.31 104.31
  Q 107.85 103.79 108.85 102.49
  Q 109.18 102.07 109.67 101.84
  C 117.74 98.10 124.43 95.43 129.96 89.75
  Q 130.39 89.30 129.77 89.28
  Q 122.38 89.04 115.22 90.71
  C 111.98 91.47 109.84 93.55 106.92 89.94
  Q 106.59 89.54 106.66 89.03
  C 108.36 77.10 102.22 67.07 89.48 67.17
  C 79.18 67.25 72.73 77.08 72.44 86.48
  Q 72.37 88.94 72.98 96.04
  Q 73.02 96.55 73.38 96.91
  C 76.24 99.81 82.72 106.93 79.46 110.66
  Q 79.12 111.06 79.44 111.47
  C 84.14 117.49 94.78 116.30 100.39 112.81
  Q 101.17 112.32 100.25 112.28
  Z
  M 32.12 75.48
  Q 32.59 74.57 33.40 74.08
  Q 34.39 73.47 33.30 73.08
  L 20.43 68.55
  Q 19.66 68.28 19.54 69.09
  C 18.48 76.16 17.48 88.53 20.60 95.09
  Q 20.81 95.55 21.32 95.52
  Q 27.72 95.09 33.66 92.73
  Q 34.20 92.52 34.26 91.94
  Q 34.72 87.06 32.29 81.97
  Q 31.13 79.52 31.78 76.40
  Q 31.89 75.91 32.12 75.48
  Z
  M 147.86 75.26
  C 149.39 78.43 147.39 83.48 145.57 86.30
  Q 143.99 88.74 137.27 93.45
  Q 136.82 93.76 136.80 94.31
  L 136.73 97.25
  Q 136.71 97.88 137.31 98.07
  C 143.64 100.04 139.91 90.45 148.17 93.39
  C 150.04 94.06 158.82 96.72 159.70 94.50
  C 162.38 87.68 161.49 76.46 160.52 69.29
  A 0.89 0.89 0.0 0 0 159.34 68.57
  L 146.67 73.13
  Q 145.79 73.44 146.54 74.00
  L 147.24 74.51
  Q 147.64 74.81 147.86 75.26
  Z
  M 54.40 82.40
  Q 48.06 79.39 41.23 77.71
  A 0.65 0.64 -79.6 0 0 40.44 78.26
  C 39.53 85.34 38.49 97.49 41.57 104.03
  Q 41.78 104.49 42.28 104.46
  Q 48.03 104.14 53.46 102.23
  C 55.93 101.36 57.41 101.74 58.85 103.87
  Q 59.14 104.29 59.24 104.79
  Q 59.97 108.20 63.82 107.12
  Q 64.36 106.97 64.31 106.40
  L 63.98 103.13
  Q 63.93 102.60 63.50 102.30
  Q 57.67 98.26 55.14 94.87
  C 53.85 93.13 50.56 84.32 54.35 83.08
  Q 55.22 82.80 54.40 82.40
  Z
  M 136.65 83.99
  L 137.86 84.92
  Q 138.27 85.23 138.71 84.95
  Q 141.80 82.92 142.55 79.21
  Q 142.68 78.55 142.01 78.64
  L 134.26 79.66
  Q 133.75 79.72 133.75 80.23
  L 133.75 83.13
  Q 133.75 83.75 134.37 83.75
  L 135.93 83.75
  Q 136.33 83.75 136.65 83.99
  Z
  M 67.18 88.71
  L 59.05 87.65
  Q 58.53 87.58 58.57 88.10
  C 58.92 92.04 62.37 94.05 64.78 96.37
  A 1.44 1.44 0.0 0 0 67.22 95.34
  L 67.26 88.80
  Q 67.26 88.72 67.18 88.71
  Z
  M 70.31 106.78
  L 73.58 106.43
  Q 74.28 106.36 73.85 105.80
  L 70.35 101.33
  Q 69.50 100.24 69.50 101.63
  L 69.50 106.06
  A 0.73 0.72 -3.2 0 0 70.31 106.78
  Z
  M 96.18 105.74
  A 0.43 0.43 0.0 0 0 96.48 106.43
  L 100.03 106.79
  A 0.43 0.43 0.0 0 0 100.50 106.36
  L 100.50 101.49
  A 0.43 0.43 0.0 0 0 99.73 101.23
  L 96.18 105.74
  Z
  M 127.31 104.76
  C 126.47 105.64 126.74 115.37 126.75 120.30
  Q 126.76 120.99 127.44 120.91
  L 129.30 120.69
  Q 129.75 120.64 129.75 120.19
  L 129.97 103.91
  A 0.68 0.68 0.0 0 0 129.05 103.26
  Q 128.29 103.55 127.92 104.00
  Q 127.41 104.65 127.31 104.76
  Z
  M 137.65 104.06
  L 136.30 103.75
  Q 135.63 103.59 135.63 104.28
  L 135.79 143.76
  A 0.61 0.61 0.0 0 0 136.66 144.31
  Q 137.52 143.91 137.52 143.19
  C 137.56 130.40 137.97 117.61 138.24 104.82
  A 0.77 0.76 -83.0 0 0 137.65 104.06
  Z
  M 108.44 112.27
  C 103.16 122.28 89.76 122.95 80.27 119.46
  Q 79.93 119.33 79.93 119.69
  L 79.73 135.64
  Q 79.72 136.50 80.57 136.51
  L 98.32 136.83
  Q 98.84 136.84 99.19 136.44
  Q 102.88 132.13 108.52 131.09
  Q 109.26 130.95 109.14 130.20
  Q 108.54 126.51 110.12 125.27
  C 111.71 124.02 113.58 125.50 114.21 127.06
  C 117.46 135.07 110.24 136.05 105.22 138.33
  A 1.35 1.35 0.0 0 0 105.27 140.81
  Q 114.78 144.66 122.43 138.07
  Q 122.81 137.75 122.76 137.25
  C 121.86 127.47 121.15 116.96 115.80 108.43
  C 112.59 103.31 109.58 110.11 108.44 112.27
  Z
  M 53.2112 109.1920
  A 0.54 0.54 0.0 0 0 52.6684 108.6548
  L 50.6484 108.6654
  A 0.54 0.54 0.0 0 0 50.1112 109.2082
  L 50.1688 120.2080
  A 0.54 0.54 0.0 0 0 50.7116 120.7452
  L 52.7316 120.7346
  A 0.54 0.54 0.0 0 0 53.2688 120.1918
  L 53.2112 109.1920
  Z
  M 41.90 111.24
  C 41.86 122.08 42.17 132.93 42.65 143.75
  Q 42.69 144.47 43.35 144.20
  L 43.76 144.04
  Q 44.22 143.86 44.22 143.36
  L 44.52 110.74
  Q 44.52 110.19 43.99 110.06
  Q 41.91 109.55 41.90 111.24
  Z
  M 72.31 112.71
  A 0.84 0.84 0.0 0 0 71.04 113.45
  L 71.28 127.00
  Q 71.28 127.46 71.75 127.49
  L 73.68 127.63
  Q 74.33 127.67 74.30 127.03
  C 74.16 123.30 73.77 119.43 74.13 115.73
  Q 74.31 113.89 72.31 112.71
  Z
  M 65.1414 113.7510
  A 0.71 0.71 0.0 0 0 64.4253 113.0473
  L 63.6253 113.0543
  A 0.71 0.71 0.0 0 0 62.9215 113.7704
  L 63.2586 152.3890
  A 0.71 0.71 0.0 0 0 63.9747 153.0927
  L 64.7747 153.0857
  A 0.71 0.71 0.0 0 0 65.4785 152.3696
  L 65.1414 113.7510
  Z
  M 52.9795 127.2753
  A 0.76 0.76 0.0 0 0 52.2116 126.5233
  L 50.9117 126.5370
  A 0.76 0.76 0.0 0 0 50.1597 127.3049
  L 50.2005 131.2047
  A 0.76 0.76 0.0 0 0 50.9684 131.9567
  L 52.2683 131.9430
  A 0.76 0.76 0.0 0 0 53.0203 131.1751
  L 52.9795 127.2753
  Z
  M 128.26 126.50
  Q 128.06 126.51 127.87 126.50
  Q 127.34 126.46 127.39 127.00
  L 127.86 131.38
  Q 127.94 132.15 128.70 132.00
  L 129.15 131.91
  Q 129.75 131.79 129.75 131.18
  L 129.75 127.16
  Q 129.75 126.95 129.57 126.84
  Q 129.45 126.76 129.30 126.72
  Q 128.45 126.48 128.26 126.50
  Z
  M 73.9932 136.4624
  A 0.90 0.90 0.0 0 0 73.0947 135.5608
  L 72.1547 135.5592
  A 0.90 0.90 0.0 0 0 71.2532 136.4576
  L 71.2468 140.0976
  A 0.90 0.90 0.0 0 0 72.1453 140.9992
  L 73.0853 141.0008
  A 0.90 0.90 0.0 0 0 73.9868 140.1024
  L 73.9932 136.4624
  Z
  M 99.42 142.66
  A 0.31 0.31 0.0 0 0 99.19 142.56
  L 79.98 142.24
  A 0.31 0.31 0.0 0 0 79.66 142.55
  L 79.66 145.13
  A 0.31 0.31 0.0 0 0 79.98 145.44
  L 100.71 144.87
  A 0.31 0.31 0.0 0 0 100.93 144.35
  L 99.42 142.66
  Z
  M 71.31 147.45
  L 70.62 156.40
  Q 70.59 156.67 70.83 156.54
  C 71.18 156.36 72.83 148.61 73.25 147.38
  Q 73.46 146.75 72.80 146.75
  L 72.06 146.75
  Q 71.36 146.75 71.31 147.45
  Z
  M 122.60 151.30
  C 108.40 150.89 94.33 150.52 80.10 151.38
  Q 79.50 151.42 79.50 152.02
  L 79.50 165.01
  Q 79.50 165.52 80.01 165.55
  L 90.85 166.03
  Q 92.43 166.10 92.45 164.52
  C 92.49 160.99 93.32 157.15 95.81 154.66
  C 99.89 150.61 106.62 153.31 108.85 158.19
  C 109.88 160.44 109.77 163.17 109.81 165.76
  Q 109.81 166.35 110.40 166.37
  L 121.71 166.77
  Q 123.25 166.82 123.25 165.28
  L 123.25 151.98
  Q 123.25 151.32 122.60 151.30
  Z"
/>
<rect x="-2.71" y="-9.43" transform="translate(84.46,99.29) rotate(-0.6)" width="5.42" height="18.86" rx="2.60"/>
</g>
<g fill="#ccd73f">
<path d="
  M 80.84 62.71
  Q 81.63 63.42 80.68 63.88
  Q 74.77 66.72 71.19 72.62
  C 70.11 74.39 69.61 76.93 68.55 79.04
  Q 68.32 79.49 67.83 79.58
  C 60.88 80.91 58.35 76.91 52.33 75.47
  A 0.85 0.84 -76.0 0 1 51.71 74.43
  C 52.92 69.83 54.80 65.12 58.32 62.01
  C 64.53 56.52 74.56 57.08 80.84 62.71
  Z"
/>
<path d="
  M 100.11 61.58
  C 117.18 51.15 130.78 66.03 128.19 82.88
  Q 128.12 83.30 127.70 83.33
  L 119.94 83.94
  Q 119.24 83.99 119.26 83.29
  Q 119.32 81.40 117.44 81.01
  Q 116.73 80.86 117.07 80.22
  C 119.82 75.07 114.47 75.04 111.37 74.43
  Q 110.83 74.33 110.57 73.85
  Q 106.98 67.11 100.18 63.54
  Q 98.41 62.61 100.11 61.58
  Z"
/>
<path d="
  M 93.42 111.84
  C 95.83 112.22 98.16 112.18 100.25 112.28
  Q 101.17 112.32 100.39 112.81
  C 94.78 116.30 84.14 117.49 79.44 111.47
  Q 79.12 111.06 79.46 110.66
  C 82.72 106.93 76.24 99.81 73.38 96.91
  Q 73.02 96.55 72.98 96.04
  Q 72.37 88.94 72.44 86.48
  C 72.73 77.08 79.18 67.25 89.48 67.17
  C 102.22 67.07 108.36 77.10 106.66 89.03
  Q 106.59 89.54 106.92 89.94
  C 109.84 93.55 111.98 91.47 115.22 90.71
  Q 122.38 89.04 129.77 89.28
  Q 130.39 89.30 129.96 89.75
  C 124.43 95.43 117.74 98.10 109.67 101.84
  Q 109.18 102.07 108.85 102.49
  Q 107.85 103.79 106.31 104.31
  Q 105.82 104.48 105.84 103.96
  C 106.14 97.89 102.22 91.22 95.82 97.85
  C 92.68 101.11 84.81 110.46 93.42 111.84
  Z
  M 87.0983 92.4320
  A 2.60 2.60 0.0 0 0 84.4712 89.8594
  L 84.2513 89.8617
  A 2.60 2.60 0.0 0 0 81.6786 92.4888
  L 81.8217 106.1480
  A 2.60 2.60 0.0 0 0 84.4488 108.7206
  L 84.6687 108.7183
  A 2.60 2.60 0.0 0 0 87.2414 106.0912
  L 87.0983 92.4320
  Z"
/>
<path d="
  M 135.93 83.75
  L 134.37 83.75
  Q 133.75 83.75 133.75 83.13
  L 133.75 80.23
  Q 133.75 79.72 134.26 79.66
  L 142.01 78.64
  Q 142.68 78.55 142.55 79.21
  Q 141.80 82.92 138.71 84.95
  Q 138.27 85.23 137.86 84.92
  L 136.65 83.99
  Q 136.33 83.75 135.93 83.75
  Z"
/>
<path d="
  M 67.18 88.71
  Q 67.26 88.72 67.26 88.80
  L 67.22 95.34
  A 1.44 1.44 0.0 0 1 64.78 96.37
  C 62.37 94.05 58.92 92.04 58.57 88.10
  Q 58.53 87.58 59.05 87.65
  L 67.18 88.71
  Z"
/>
<path d="
  M 80.27 119.46
  C 89.76 122.95 103.16 122.28 108.44 112.27
  C 109.58 110.11 112.59 103.31 115.80 108.43
  C 121.15 116.96 121.86 127.47 122.76 137.25
  Q 122.81 137.75 122.43 138.07
  Q 114.78 144.66 105.27 140.81
  A 1.35 1.35 0.0 0 1 105.22 138.33
  C 110.24 136.05 117.46 135.07 114.21 127.06
  C 113.58 125.50 111.71 124.02 110.12 125.27
  Q 108.54 126.51 109.14 130.20
  Q 109.26 130.95 108.52 131.09
  Q 102.88 132.13 99.19 136.44
  Q 98.84 136.84 98.32 136.83
  L 80.57 136.51
  Q 79.72 136.50 79.73 135.64
  L 79.93 119.69
  Q 79.93 119.33 80.27 119.46
  Z"
/>
<path d="
  M 72.31 112.71
  Q 74.31 113.89 74.13 115.73
  C 73.77 119.43 74.16 123.30 74.30 127.03
  Q 74.33 127.67 73.68 127.63
  L 71.75 127.49
  Q 71.28 127.46 71.28 127.00
  L 71.04 113.45
  A 0.84 0.84 0.0 0 1 72.31 112.71
  Z"
/>
<rect x="-1.41" y="-2.71" transform="translate(51.59,129.24) rotate(-0.6)" width="2.82" height="5.42" rx="0.76"/>
<path d="
  M 129.30 126.72
  Q 129.45 126.76 129.57 126.84
  Q 129.75 126.95 129.75 127.16
  L 129.75 131.18
  Q 129.75 131.79 129.15 131.91
  L 128.70 132.00
  Q 127.94 132.15 127.86 131.38
  L 127.39 127.00
  Q 127.34 126.46 127.87 126.50
  Q 128.06 126.51 128.26 126.50
  Q 128.45 126.48 129.30 126.72
  Z"
/>
<rect x="-1.37" y="-2.72" transform="translate(72.62,138.28) rotate(0.1)" width="2.74" height="5.44" rx="0.90"/>
</g>
<g fill="#f8f8f8">
<path d="
  M 31.78 76.40
  Q 31.13 79.52 32.29 81.97
  Q 34.72 87.06 34.26 91.94
  Q 34.20 92.52 33.66 92.73
  Q 27.72 95.09 21.32 95.52
  Q 20.81 95.55 20.60 95.09
  C 17.48 88.53 18.48 76.16 19.54 69.09
  Q 19.66 68.28 20.43 68.55
  L 33.30 73.08
  Q 34.39 73.47 33.40 74.08
  Q 32.59 74.57 32.12 75.48
  Q 31.89 75.91 31.78 76.40
  Z"
/>
<path d="
  M 147.24 74.51
  L 146.54 74.00
  Q 145.79 73.44 146.67 73.13
  L 159.34 68.57
  A 0.89 0.89 0.0 0 1 160.52 69.29
  C 161.49 76.46 162.38 87.68 159.70 94.50
  C 158.82 96.72 150.04 94.06 148.17 93.39
  C 139.91 90.45 143.64 100.04 137.31 98.07
  Q 136.71 97.88 136.73 97.25
  L 136.80 94.31
  Q 136.82 93.76 137.27 93.45
  Q 143.99 88.74 145.57 86.30
  C 147.39 83.48 149.39 78.43 147.86 75.26
  Q 147.64 74.81 147.24 74.51
  Z"
/>
<path d="
  M 54.40 82.40
  Q 55.22 82.80 54.35 83.08
  C 50.56 84.32 53.85 93.13 55.14 94.87
  Q 57.67 98.26 63.50 102.30
  Q 63.93 102.60 63.98 103.13
  L 64.31 106.40
  Q 64.36 106.97 63.82 107.12
  Q 59.97 108.20 59.24 104.79
  Q 59.14 104.29 58.85 103.87
  C 57.41 101.74 55.93 101.36 53.46 102.23
  Q 48.03 104.14 42.28 104.46
  Q 41.78 104.49 41.57 104.03
  C 38.49 97.49 39.53 85.34 40.44 78.26
  A 0.65 0.64 -79.6 0 1 41.23 77.71
  Q 48.06 79.39 54.40 82.40
  Z"
/>
<path d="
  M 70.31 106.78
  A 0.73 0.72 -3.2 0 1 69.50 106.06
  L 69.50 101.63
  Q 69.50 100.24 70.35 101.33
  L 73.85 105.80
  Q 74.28 106.36 73.58 106.43
  L 70.31 106.78
  Z"
/>
<path d="
  M 96.18 105.74
  L 99.73 101.23
  A 0.43 0.43 0.0 0 1 100.50 101.49
  L 100.50 106.36
  A 0.43 0.43 0.0 0 1 100.03 106.79
  L 96.48 106.43
  A 0.43 0.43 0.0 0 1 96.18 105.74
  Z"
/>
</g>
<g fill="#6e423f">
<path d="
  M 137.65 104.06
  A 0.77 0.76 -83.0 0 1 138.24 104.82
  C 137.97 117.61 137.56 130.40 137.52 143.19
  Q 137.52 143.91 136.66 144.31
  A 0.61 0.61 0.0 0 1 135.79 143.76
  L 135.63 104.28
  Q 135.63 103.59 136.30 103.75
  L 137.65 104.06
  Z"
/>
<path d="
  M 42.65 143.75
  C 42.17 132.93 41.86 122.08 41.90 111.24
  Q 41.91 109.55 43.99 110.06
  Q 44.52 110.19 44.52 110.74
  L 44.22 143.36
  Q 44.22 143.86 43.76 144.04
  L 43.35 144.20
  Q 42.69 144.47 42.65 143.75
  Z"
/>
<rect x="-1.11" y="-20.02" transform="translate(64.20,133.07) rotate(-0.5)" width="2.22" height="40.04" rx="0.71"/>
<path d="
  M 99.42 142.66
  L 100.93 144.35
  A 0.31 0.31 0.0 0 1 100.71 144.87
  L 79.98 145.44
  A 0.31 0.31 0.0 0 1 79.66 145.13
  L 79.66 142.55
  A 0.31 0.31 0.0 0 1 79.98 142.24
  L 99.19 142.56
  A 0.31 0.31 0.0 0 1 99.42 142.66
  Z"
/>
<path d="
  M 70.62 156.40
  L 71.31 147.45
  Q 71.36 146.75 72.06 146.75
  L 72.80 146.75
  Q 73.46 146.75 73.25 147.38
  C 72.83 148.61 71.18 156.36 70.83 156.54
  Q 70.59 156.67 70.62 156.40
  Z"
/>
<path d="
  M 80.10 151.38
  C 94.33 150.52 108.40 150.89 122.60 151.30
  Q 123.25 151.32 123.25 151.98
  L 123.25 165.28
  Q 123.25 166.82 121.71 166.77
  L 110.40 166.37
  Q 109.81 166.35 109.81 165.76
  C 109.77 163.17 109.88 160.44 108.85 158.19
  C 106.62 153.31 99.89 150.61 95.81 154.66
  C 93.32 157.15 92.49 160.99 92.45 164.52
  Q 92.43 166.10 90.85 166.03
  L 80.01 165.55
  Q 79.50 165.52 79.50 165.01
  L 79.50 152.02
  Q 79.50 151.42 80.10 151.38
  Z"
/>
</g>
</svg>
