<?xml version="1.0" encoding="UTF-8" standalone="no"?>
<!DOCTYPE svg PUBLIC "-//W3C//DTD SVG 1.1//EN" "http://www.w3.org/Graphics/SVG/1.1/DTD/svg11.dtd">
<svg xmlns="http://www.w3.org/2000/svg" version="1.1" viewBox="0 0 180 180">
<g stroke-width="2.00" fill="none" stroke-linecap="butt">
<path stroke="#533d3e" vector-effect="non-scaling-stroke" d="
  M 40.60 51.43
  L 46.28 53.31
  Q 46.94 53.53 46.81 52.85
  L 45.64 46.57
  Q 45.42 45.37 44.58 46.26
  L 40.41 50.67
  Q 39.90 51.20 40.60 51.43"
/>
<path stroke="#533d3e" vector-effect="non-scaling-stroke" d="
  M 46.32 59.49
  L 36.47 55.55
  Q 35.96 55.34 35.59 55.75
  C 31.48 60.37 29.43 66.47 26.02 71.66
  A 0.85 0.85 0.0 0 0 26.66 72.97
  C 32.50 73.51 42.85 64.45 46.50 60.20
  Q 46.90 59.73 46.32 59.49"
/>
<path stroke="#927a6d" vector-effect="non-scaling-stroke" d="
  M 132.24 74.33
  Q 130.90 73.39 129.57 74.33
  C 127.19 76.02 124.39 77.05 121.52 75.51
  Q 116.84 72.99 113.98 68.48
  Q 113.72 68.07 113.25 68.16
  C 105.65 69.68 98.74 67.81 91.73 64.52
  Q 91.21 64.28 91.07 64.83
  C 89.71 70.08 90.32 83.04 92.53 87.83
  C 97.80 99.22 110.39 102.48 120.17 94.26
  C 123.08 91.82 121.19 86.86 126.37 87.05
  C 133.20 87.31 139.11 79.17 132.24 74.33"
/>
<path stroke="#533d3e" vector-effect="non-scaling-stroke" d="
  M 61.01 81.92
  C 49.05 89.68 49.60 73.47 49.42 66.47
  Q 49.40 65.62 48.81 66.23
  Q 41.28 74.06 31.22 78.14
  Q 30.74 78.34 30.87 78.84
  L 31.95 82.99
  Q 32.09 83.53 32.54 83.21
  L 41.12 77.23
  Q 41.57 76.92 42.11 76.99
  Q 45.46 77.42 46.47 80.31
  Q 49.17 88.02 50.98 98.47
  C 52.16 105.31 54.11 110.94 56.35 117.12
  A 0.85 0.85 0.0 0 0 57.63 117.54
  L 62.66 114.09
  Q 63.15 113.76 63.13 113.18
  L 62.17 82.53
  A 0.75 0.75 0.0 0 0 61.01 81.92"
/>
<path stroke="#98989a" vector-effect="non-scaling-stroke" d="
  M 69.99 71.15
  C 68.81 72.98 67.71 74.20 67.78 76.50
  Q 68.39 96.88 68.81 117.33
  Q 68.82 118.00 69.49 118.00
  L 73.25 118.00
  Q 73.95 118.00 73.84 117.31
  C 73.36 114.28 73.76 111.23 73.65 108.56
  Q 72.99 92.98 72.72 77.38
  C 72.68 74.88 72.11 73.15 70.85 71.16
  Q 70.43 70.48 69.99 71.15"
/>
<path stroke="#533d3e" vector-effect="non-scaling-stroke" d="
  M 24.65 88.15
  C 28.16 85.45 25.53 79.79 23.00 77.46
  Q 22.63 77.12 22.22 77.41
  Q 18.37 80.18 17.46 83.21
  C 16.16 87.50 20.67 91.20 24.65 88.15"
/>
<path stroke="#533d3e" vector-effect="non-scaling-stroke" d="
  M 81.19 81.36
  A 1.35 1.35 0.0 0 0 78.71 81.97
  Q 78.21 88.14 78.81 93.99
  Q 78.92 95.00 79.33 94.08
  C 81.34 89.61 84.29 86.24 81.19 81.36"
/>
<path stroke="#533d3e" vector-effect="non-scaling-stroke" d="
  M 130.39 116.31
  Q 131.88 119.93 131.25 123.74
  Q 131.17 124.23 131.47 124.62
  Q 134.96 129.22 134.06 135.13
  Q 133.97 135.75 134.57 135.60
  L 140.23 134.17
  A 2.14 2.12 82.4 0 0 141.84 132.05
  C 141.45 118.06 139.68 104.82 131.87 92.86
  Q 131.56 92.38 130.99 92.45
  L 128.56 92.79
  Q 128.04 92.86 127.80 93.33
  Q 124.51 99.76 117.97 102.80
  Q 117.49 103.02 117.28 103.51
  C 116.00 106.50 109.97 122.70 103.76 116.97
  Q 97.09 110.81 95.45 101.03
  Q 95.35 100.46 94.92 100.07
  L 91.87 97.32
  Q 91.46 96.95 91.19 97.44
  Q 90.28 99.08 90.00 101.02
  Q 87.97 115.14 88.36 129.59
  Q 88.37 130.16 88.94 130.15
  L 112.62 129.94
  Q 113.14 129.93 113.48 129.53
  C 116.64 125.79 120.66 124.63 125.00 122.94
  A 1.63 1.62 -15.4 0 0 126.01 121.17
  L 125.43 117.53
  Q 125.35 117.05 125.62 116.63
  Q 127.26 114.10 129.70 115.52
  Q 130.18 115.80 130.39 116.31"
/>
<path stroke="#533d3e" vector-effect="non-scaling-stroke" d="
  M 84.94 95.71
  C 84.80 95.79 81.47 101.92 80.29 103.17
  C 77.97 105.66 80.02 114.72 81.00 117.79
  A 0.69 0.69 0.0 0 0 82.23 117.96
  Q 82.91 116.89 82.90 115.75
  Q 82.81 105.69 85.25 95.95
  Q 85.36 95.49 84.94 95.71"
/>
<path stroke="#533d3e" vector-effect="non-scaling-stroke" d="
  M 157.96 115.86
  C 159.58 106.70 154.01 91.86 142.05 98.18
  Q 141.55 98.44 141.78 98.96
  Q 145.70 107.55 146.44 116.99
  Q 146.48 117.45 146.94 117.41
  L 157.12 116.62
  Q 157.84 116.57 157.96 115.86"
/>
<path stroke="#927a6d" vector-effect="non-scaling-stroke" d="
  M 109.97 104.56
  C 107.40 104.94 104.63 104.32 102.12 103.68
  A 0.35 0.35 0.0 0 0 101.73 104.19
  L 105.67 111.35
  A 0.87 0.87 0.0 0 0 107.21 111.32
  L 110.34 105.07
  Q 110.64 104.46 109.97 104.56"
/>
<path stroke="#533d3e" vector-effect="non-scaling-stroke" d="
  M 161.3690 123.5049
  A 0.99 0.99 0.0 0 0 160.3670 122.5270
  L 148.4079 122.6731
  A 0.99 0.99 0.0 0 0 147.4300 123.6752
  L 147.4310 123.7551
  A 0.99 0.99 0.0 0 0 148.4330 124.7330
  L 160.3921 124.5869
  A 0.99 0.99 0.0 0 0 161.3700 123.5848
  L 161.3690 123.5049"
/>
<path stroke="#3d504e" vector-effect="non-scaling-stroke" d="
  M 59.50 123.73
  A 0.54 0.54 0.0 0 0 58.97 124.37
  L 59.22 125.61
  Q 59.38 126.43 60.18 126.21
  Q 64.75 124.93 68.09 128.03
  Q 68.50 128.40 68.50 128.95
  L 68.50 133.75
  Q 68.50 134.41 69.17 134.48
  L 72.51 134.81
  Q 73.21 134.88 73.23 134.17
  L 73.33 128.69
  Q 73.34 128.14 73.81 127.86
  Q 77.29 125.74 81.50 126.37
  Q 82.20 126.47 82.31 125.77
  L 82.53 124.29
  Q 82.62 123.71 82.03 123.71
  L 59.50 123.73"
/>
<path stroke="#927a6d" vector-effect="non-scaling-stroke" d="
  M 119.14 135.81
  L 125.66 136.83
  Q 126.31 136.93 126.79 136.48
  Q 130.10 133.28 127.74 128.99
  A 0.76 0.76 0.0 0 0 126.89 128.61
  C 124.24 129.26 118.14 130.85 117.76 134.00
  A 1.64 1.64 0.0 0 0 119.14 135.81"
/>
<path stroke="#533d3e" vector-effect="non-scaling-stroke" d="
  M 157.78 130.53
  L 148.39 130.43
  Q 147.65 130.42 147.67 131.17
  L 147.98 144.89
  A 1.33 1.32 2.2 0 0 149.19 146.18
  C 158.42 147.03 163.45 138.36 158.58 130.97
  Q 158.30 130.54 157.78 130.53"
/>
<path stroke="#533d3e" vector-effect="non-scaling-stroke" d="
  M 69.42 140.25
  C 65.05 139.64 62.79 137.05 63.27 132.48
  Q 63.33 131.88 62.73 131.79
  L 60.34 131.46
  Q 59.75 131.38 59.78 131.97
  L 60.85 152.95
  Q 60.86 153.32 61.23 153.36
  L 65.41 153.89
  A 0.63 0.63 0.0 0 0 66.09 153.44
  L 69.86 140.92
  Q 70.03 140.34 69.42 140.25"
/>
<path stroke="#927a6d" vector-effect="non-scaling-stroke" d="
  M 82.3003 132.8799
  A 0.56 0.56 0.0 0 0 81.7683 132.2932
  L 79.6509 132.1897
  A 0.56 0.56 0.0 0 0 79.0642 132.7217
  L 78.9997 134.0401
  A 0.56 0.56 0.0 0 0 79.5317 134.6268
  L 81.6491 134.7303
  A 0.56 0.56 0.0 0 0 82.2358 134.1983
  L 82.3003 132.8799"
/>
<path stroke="#533d3e" vector-effect="non-scaling-stroke" d="
  M 111.48 135.75
  L 88.92 135.75
  Q 88.27 135.75 88.27 136.40
  L 88.24 139.03
  Q 88.24 139.58 88.79 139.58
  L 113.25 139.30
  Q 114.54 139.29 113.56 138.45
  Q 112.62 137.64 112.33 136.42
  Q 112.17 135.75 111.48 135.75"
/>
<path stroke="#533d3e" vector-effect="non-scaling-stroke" d="
  M 81.27 141.08
  A 0.32 0.32 0.0 0 0 81.01 140.65
  L 76.34 140.09
  A 0.32 0.32 0.0 0 0 75.99 140.32
  L 72.31 152.51
  A 0.32 0.32 0.0 0 0 72.59 152.92
  L 76.44 153.28
  A 0.32 0.32 0.0 0 0 76.77 153.07
  L 81.27 141.08"
/>
<path stroke="#533d3e" vector-effect="non-scaling-stroke" d="
  M 88.80 145.36
  A 0.46 0.46 0.0 0 0 88.32 145.79
  C 87.96 152.08 87.00 158.74 88.62 164.98
  Q 88.74 165.46 89.23 165.59
  C 93.82 166.80 99.88 165.75 104.71 165.71
  A 0.73 0.73 0.0 0 0 105.44 165.02
  C 105.69 160.76 104.30 154.64 107.61 151.36
  C 111.08 147.91 116.74 147.27 121.01 149.61
  C 126.12 152.40 127.54 158.17 126.58 163.67
  A 1.68 1.67 5.2 0 0 128.22 165.63
  L 141.44 165.72
  Q 142.35 165.73 142.35 164.81
  L 142.38 146.15
  Q 142.38 145.55 141.78 145.53
  Q 112.37 144.65 103.01 145.27
  Q 96.42 145.71 88.80 145.36"
/>
<path stroke="#927a6d" vector-effect="non-scaling-stroke" d="
  M 105.0361 75.5109
  A 2.46 2.46 0.0 0 0 102.5675 73.0595
  L 102.2675 73.0606
  A 2.46 2.46 0.0 0 0 99.8161 75.5292
  L 99.8639 89.2091
  A 2.46 2.46 0.0 0 0 102.3325 91.6605
  L 102.6325 91.6594
  A 2.46 2.46 0.0 0 0 105.0839 89.1908
  L 105.0361 75.5109"
/>
</g>
<g fill="#38383c">
<path d="
  M 81.55 155.20
  C 79.05 162.72 74.15 161.67 67.81 162.62
  C 63.82 163.22 60.12 162.05 55.88 162.91
  Q 55.41 163.00 54.97 162.81
  C 50.50 160.87 52.19 155.42 54.79 152.51
  Q 55.15 152.11 55.12 151.56
  L 53.68 125.57
  A 1.13 1.12 -2.1 0 0 52.53 124.51
  C 34.03 124.89 29.70 107.77 27.30 93.76
  Q 27.22 93.28 26.78 93.50
  C 19.21 97.26 11.82 92.76 11.99 84.25
  C 12.05 81.72 14.18 77.68 15.93 75.74
  C 21.36 69.73 24.01 63.81 27.62 57.53
  C 30.21 53.02 34.69 49.32 38.31 45.17
  C 46.00 36.38 50.29 39.90 51.66 49.76
  Q 51.73 50.27 52.22 50.44
  C 59.72 53.01 64.32 57.76 69.58 63.35
  Q 69.93 63.71 70.42 63.84
  C 73.61 64.63 75.41 67.97 76.98 71.26
  Q 77.95 73.30 82.53 75.95
  Q 83.00 76.21 83.17 75.71
  Q 85.57 68.99 86.40 61.84
  Q 86.46 61.38 86.10 61.08
  C 82.70 58.28 74.21 49.65 79.36 44.85
  Q 79.75 44.48 80.29 44.45
  C 86.78 44.08 94.03 36.88 98.05 35.28
  C 107.79 31.40 120.38 33.34 124.32 44.33
  Q 124.50 44.82 125.03 44.85
  C 137.37 45.58 140.92 59.72 134.64 68.78
  Q 134.34 69.21 134.79 69.47
  Q 143.58 74.57 139.90 84.42
  Q 139.73 84.88 140.13 85.16
  Q 143.45 87.47 145.21 91.15
  Q 145.43 91.61 145.94 91.56
  C 159.77 90.07 165.60 105.38 163.53 116.62
  Q 163.45 117.04 163.77 117.32
  Q 169.75 122.46 164.78 128.78
  Q 164.46 129.19 164.65 129.68
  C 169.20 141.35 162.07 153.44 148.72 151.74
  Q 148.15 151.66 148.17 152.24
  C 148.39 159.07 150.16 170.32 142.76 171.25
  Q 137.07 171.96 128.76 171.24
  Q 121.71 170.63 121.18 164.04
  Q 121.14 163.47 120.60 163.30
  L 111.81 160.56
  Q 110.75 160.23 110.97 161.31
  Q 113.04 171.45 103.02 171.68
  C 97.95 171.80 89.10 172.92 85.13 169.40
  C 82.12 166.74 82.15 159.00 82.07 155.28
  Q 82.03 153.78 81.55 155.20
  Z
  M 40.60 51.43
  L 46.28 53.31
  Q 46.94 53.53 46.81 52.85
  L 45.64 46.57
  Q 45.42 45.37 44.58 46.26
  L 40.41 50.67
  Q 39.90 51.20 40.60 51.43
  Z
  M 46.32 59.49
  L 36.47 55.55
  Q 35.96 55.34 35.59 55.75
  C 31.48 60.37 29.43 66.47 26.02 71.66
  A 0.85 0.85 0.0 0 0 26.66 72.97
  C 32.50 73.51 42.85 64.45 46.50 60.20
  Q 46.90 59.73 46.32 59.49
  Z
  M 132.24 74.33
  Q 130.90 73.39 129.57 74.33
  C 127.19 76.02 124.39 77.05 121.52 75.51
  Q 116.84 72.99 113.98 68.48
  Q 113.72 68.07 113.25 68.16
  C 105.65 69.68 98.74 67.81 91.73 64.52
  Q 91.21 64.28 91.07 64.83
  C 89.71 70.08 90.32 83.04 92.53 87.83
  C 97.80 99.22 110.39 102.48 120.17 94.26
  C 123.08 91.82 121.19 86.86 126.37 87.05
  C 133.20 87.31 139.11 79.17 132.24 74.33
  Z
  M 61.01 81.92
  C 49.05 89.68 49.60 73.47 49.42 66.47
  Q 49.40 65.62 48.81 66.23
  Q 41.28 74.06 31.22 78.14
  Q 30.74 78.34 30.87 78.84
  L 31.95 82.99
  Q 32.09 83.53 32.54 83.21
  L 41.12 77.23
  Q 41.57 76.92 42.11 76.99
  Q 45.46 77.42 46.47 80.31
  Q 49.17 88.02 50.98 98.47
  C 52.16 105.31 54.11 110.94 56.35 117.12
  A 0.85 0.85 0.0 0 0 57.63 117.54
  L 62.66 114.09
  Q 63.15 113.76 63.13 113.18
  L 62.17 82.53
  A 0.75 0.75 0.0 0 0 61.01 81.92
  Z
  M 69.99 71.15
  C 68.81 72.98 67.71 74.20 67.78 76.50
  Q 68.39 96.88 68.81 117.33
  Q 68.82 118.00 69.49 118.00
  L 73.25 118.00
  Q 73.95 118.00 73.84 117.31
  C 73.36 114.28 73.76 111.23 73.65 108.56
  Q 72.99 92.98 72.72 77.38
  C 72.68 74.88 72.11 73.15 70.85 71.16
  Q 70.43 70.48 69.99 71.15
  Z
  M 24.65 88.15
  C 28.16 85.45 25.53 79.79 23.00 77.46
  Q 22.63 77.12 22.22 77.41
  Q 18.37 80.18 17.46 83.21
  C 16.16 87.50 20.67 91.20 24.65 88.15
  Z
  M 81.19 81.36
  A 1.35 1.35 0.0 0 0 78.71 81.97
  Q 78.21 88.14 78.81 93.99
  Q 78.92 95.00 79.33 94.08
  C 81.34 89.61 84.29 86.24 81.19 81.36
  Z
  M 32.22 90.66
  C 32.83 100.50 37.43 118.66 50.26 118.74
  Q 50.85 118.74 50.65 118.18
  Q 46.24 106.04 45.78 102.74
  Q 44.46 93.35 41.98 84.14
  A 0.34 0.34 0.0 0 0 41.46 83.94
  L 32.63 89.84
  Q 32.19 90.13 32.22 90.66
  Z
  M 130.39 116.31
  Q 131.88 119.93 131.25 123.74
  Q 131.17 124.23 131.47 124.62
  Q 134.96 129.22 134.06 135.13
  Q 133.97 135.75 134.57 135.60
  L 140.23 134.17
  A 2.14 2.12 82.4 0 0 141.84 132.05
  C 141.45 118.06 139.68 104.82 131.87 92.86
  Q 131.56 92.38 130.99 92.45
  L 128.56 92.79
  Q 128.04 92.86 127.80 93.33
  Q 124.51 99.76 117.97 102.80
  Q 117.49 103.02 117.28 103.51
  C 116.00 106.50 109.97 122.70 103.76 116.97
  Q 97.09 110.81 95.45 101.03
  Q 95.35 100.46 94.92 100.07
  L 91.87 97.32
  Q 91.46 96.95 91.19 97.44
  Q 90.28 99.08 90.00 101.02
  Q 87.97 115.14 88.36 129.59
  Q 88.37 130.16 88.94 130.15
  L 112.62 129.94
  Q 113.14 129.93 113.48 129.53
  C 116.64 125.79 120.66 124.63 125.00 122.94
  A 1.63 1.62 -15.4 0 0 126.01 121.17
  L 125.43 117.53
  Q 125.35 117.05 125.62 116.63
  Q 127.26 114.10 129.70 115.52
  Q 130.18 115.80 130.39 116.31
  Z
  M 84.94 95.71
  C 84.80 95.79 81.47 101.92 80.29 103.17
  C 77.97 105.66 80.02 114.72 81.00 117.79
  A 0.69 0.69 0.0 0 0 82.23 117.96
  Q 82.91 116.89 82.90 115.75
  Q 82.81 105.69 85.25 95.95
  Q 85.36 95.49 84.94 95.71
  Z
  M 157.96 115.86
  C 159.58 106.70 154.01 91.86 142.05 98.18
  Q 141.55 98.44 141.78 98.96
  Q 145.70 107.55 146.44 116.99
  Q 146.48 117.45 146.94 117.41
  L 157.12 116.62
  Q 157.84 116.57 157.96 115.86
  Z
  M 109.97 104.56
  C 107.40 104.94 104.63 104.32 102.12 103.68
  A 0.35 0.35 0.0 0 0 101.73 104.19
  L 105.67 111.35
  A 0.87 0.87 0.0 0 0 107.21 111.32
  L 110.34 105.07
  Q 110.64 104.46 109.97 104.56
  Z
  M 161.3690 123.5049
  A 0.99 0.99 0.0 0 0 160.3670 122.5270
  L 148.4079 122.6731
  A 0.99 0.99 0.0 0 0 147.4300 123.6752
  L 147.4310 123.7551
  A 0.99 0.99 0.0 0 0 148.4330 124.7330
  L 160.3921 124.5869
  A 0.99 0.99 0.0 0 0 161.3700 123.5848
  L 161.3690 123.5049
  Z
  M 59.50 123.73
  A 0.54 0.54 0.0 0 0 58.97 124.37
  L 59.22 125.61
  Q 59.38 126.43 60.18 126.21
  Q 64.75 124.93 68.09 128.03
  Q 68.50 128.40 68.50 128.95
  L 68.50 133.75
  Q 68.50 134.41 69.17 134.48
  L 72.51 134.81
  Q 73.21 134.88 73.23 134.17
  L 73.33 128.69
  Q 73.34 128.14 73.81 127.86
  Q 77.29 125.74 81.50 126.37
  Q 82.20 126.47 82.31 125.77
  L 82.53 124.29
  Q 82.62 123.71 82.03 123.71
  L 59.50 123.73
  Z
  M 119.14 135.81
  L 125.66 136.83
  Q 126.31 136.93 126.79 136.48
  Q 130.10 133.28 127.74 128.99
  A 0.76 0.76 0.0 0 0 126.89 128.61
  C 124.24 129.26 118.14 130.85 117.76 134.00
  A 1.64 1.64 0.0 0 0 119.14 135.81
  Z
  M 157.78 130.53
  L 148.39 130.43
  Q 147.65 130.42 147.67 131.17
  L 147.98 144.89
  A 1.33 1.32 2.2 0 0 149.19 146.18
  C 158.42 147.03 163.45 138.36 158.58 130.97
  Q 158.30 130.54 157.78 130.53
  Z
  M 69.42 140.25
  C 65.05 139.64 62.79 137.05 63.27 132.48
  Q 63.33 131.88 62.73 131.79
  L 60.34 131.46
  Q 59.75 131.38 59.78 131.97
  L 60.85 152.95
  Q 60.86 153.32 61.23 153.36
  L 65.41 153.89
  A 0.63 0.63 0.0 0 0 66.09 153.44
  L 69.86 140.92
  Q 70.03 140.34 69.42 140.25
  Z
  M 82.3003 132.8799
  A 0.56 0.56 0.0 0 0 81.7683 132.2932
  L 79.6509 132.1897
  A 0.56 0.56 0.0 0 0 79.0642 132.7217
  L 78.9997 134.0401
  A 0.56 0.56 0.0 0 0 79.5317 134.6268
  L 81.6491 134.7303
  A 0.56 0.56 0.0 0 0 82.2358 134.1983
  L 82.3003 132.8799
  Z
  M 111.48 135.75
  L 88.92 135.75
  Q 88.27 135.75 88.27 136.40
  L 88.24 139.03
  Q 88.24 139.58 88.79 139.58
  L 113.25 139.30
  Q 114.54 139.29 113.56 138.45
  Q 112.62 137.64 112.33 136.42
  Q 112.17 135.75 111.48 135.75
  Z
  M 81.27 141.08
  A 0.32 0.32 0.0 0 0 81.01 140.65
  L 76.34 140.09
  A 0.32 0.32 0.0 0 0 75.99 140.32
  L 72.31 152.51
  A 0.32 0.32 0.0 0 0 72.59 152.92
  L 76.44 153.28
  A 0.32 0.32 0.0 0 0 76.77 153.07
  L 81.27 141.08
  Z
  M 88.80 145.36
  A 0.46 0.46 0.0 0 0 88.32 145.79
  C 87.96 152.08 87.00 158.74 88.62 164.98
  Q 88.74 165.46 89.23 165.59
  C 93.82 166.80 99.88 165.75 104.71 165.71
  A 0.73 0.73 0.0 0 0 105.44 165.02
  C 105.69 160.76 104.30 154.64 107.61 151.36
  C 111.08 147.91 116.74 147.27 121.01 149.61
  C 126.12 152.40 127.54 158.17 126.58 163.67
  A 1.68 1.67 5.2 0 0 128.22 165.63
  L 141.44 165.72
  Q 142.35 165.73 142.35 164.81
  L 142.38 146.15
  Q 142.38 145.55 141.78 145.53
  Q 112.37 144.65 103.01 145.27
  Q 96.42 145.71 88.80 145.36
  Z"
/>
<rect x="-2.61" y="-9.30" transform="translate(102.45,82.36) rotate(-0.2)" width="5.22" height="18.60" rx="2.46"/>
</g>
<g fill="#ebbc9e">
<path d="
  M 132.24 74.33
  C 139.11 79.17 133.20 87.31 126.37 87.05
  C 121.19 86.86 123.08 91.82 120.17 94.26
  C 110.39 102.48 97.80 99.22 92.53 87.83
  C 90.32 83.04 89.71 70.08 91.07 64.83
  Q 91.21 64.28 91.73 64.52
  C 98.74 67.81 105.65 69.68 113.25 68.16
  Q 113.72 68.07 113.98 68.48
  Q 116.84 72.99 121.52 75.51
  C 124.39 77.05 127.19 76.02 129.57 74.33
  Q 130.90 73.39 132.24 74.33
  Z
  M 105.0361 75.5109
  A 2.46 2.46 0.0 0 0 102.5675 73.0595
  L 102.2675 73.0606
  A 2.46 2.46 0.0 0 0 99.8161 75.5292
  L 99.8639 89.2091
  A 2.46 2.46 0.0 0 0 102.3325 91.6605
  L 102.6325 91.6594
  A 2.46 2.46 0.0 0 0 105.0839 89.1908
  L 105.0361 75.5109
  Z"
/>
<path d="
  M 102.12 103.68
  C 104.63 104.32 107.40 104.94 109.97 104.56
  Q 110.64 104.46 110.34 105.07
  L 107.21 111.32
  A 0.87 0.87 0.0 0 1 105.67 111.35
  L 101.73 104.19
  A 0.35 0.35 0.0 0 1 102.12 103.68
  Z"
/>
<path d="
  M 119.14 135.81
  A 1.64 1.64 0.0 0 1 117.76 134.00
  C 118.14 130.85 124.24 129.26 126.89 128.61
  A 0.76 0.76 0.0 0 1 127.74 128.99
  Q 130.10 133.28 126.79 136.48
  Q 126.31 136.93 125.66 136.83
  L 119.14 135.81
  Z"
/>
<rect x="-1.62" y="-1.22" transform="translate(80.65,133.46) rotate(2.8)" width="3.24" height="2.44" rx="0.56"/>
</g>
<g fill="#6e423f">
<path d="
  M 40.60 51.43
  Q 39.90 51.20 40.41 50.67
  L 44.58 46.26
  Q 45.42 45.37 45.64 46.57
  L 46.81 52.85
  Q 46.94 53.53 46.28 53.31
  L 40.60 51.43
  Z"
/>
<path d="
  M 36.47 55.55
  L 46.32 59.49
  Q 46.90 59.73 46.50 60.20
  C 42.85 64.45 32.50 73.51 26.66 72.97
  A 0.85 0.85 0.0 0 1 26.02 71.66
  C 29.43 66.47 31.48 60.37 35.59 55.75
  Q 35.96 55.34 36.47 55.55
  Z"
/>
<path d="
  M 49.42 66.47
  C 49.60 73.47 49.05 89.68 61.01 81.92
  A 0.75 0.75 0.0 0 1 62.17 82.53
  L 63.13 113.18
  Q 63.15 113.76 62.66 114.09
  L 57.63 117.54
  A 0.85 0.85 0.0 0 1 56.35 117.12
  C 54.11 110.94 52.16 105.31 50.98 98.47
  Q 49.17 88.02 46.47 80.31
  Q 45.46 77.42 42.11 76.99
  Q 41.57 76.92 41.12 77.23
  L 32.54 83.21
  Q 32.09 83.53 31.95 82.99
  L 30.87 78.84
  Q 30.74 78.34 31.22 78.14
  Q 41.28 74.06 48.81 66.23
  Q 49.40 65.62 49.42 66.47
  Z"
/>
<path d="
  M 24.65 88.15
  C 20.67 91.20 16.16 87.50 17.46 83.21
  Q 18.37 80.18 22.22 77.41
  Q 22.63 77.12 23.00 77.46
  C 25.53 79.79 28.16 85.45 24.65 88.15
  Z"
/>
<path d="
  M 81.19 81.36
  C 84.29 86.24 81.34 89.61 79.33 94.08
  Q 78.92 95.00 78.81 93.99
  Q 78.21 88.14 78.71 81.97
  A 1.35 1.35 0.0 0 1 81.19 81.36
  Z"
/>
<path d="
  M 129.70 115.52
  Q 127.26 114.10 125.62 116.63
  Q 125.35 117.05 125.43 117.53
  L 126.01 121.17
  A 1.63 1.62 -15.4 0 1 125.00 122.94
  C 120.66 124.63 116.64 125.79 113.48 129.53
  Q 113.14 129.93 112.62 129.94
  L 88.94 130.15
  Q 88.37 130.16 88.36 129.59
  Q 87.97 115.14 90.00 101.02
  Q 90.28 99.08 91.19 97.44
  Q 91.46 96.95 91.87 97.32
  L 94.92 100.07
  Q 95.35 100.46 95.45 101.03
  Q 97.09 110.81 103.76 116.97
  C 109.97 122.70 116.00 106.50 117.28 103.51
  Q 117.49 103.02 117.97 102.80
  Q 124.51 99.76 127.80 93.33
  Q 128.04 92.86 128.56 92.79
  L 130.99 92.45
  Q 131.56 92.38 131.87 92.86
  C 139.68 104.82 141.45 118.06 141.84 132.05
  A 2.14 2.12 82.4 0 1 140.23 134.17
  L 134.57 135.60
  Q 133.97 135.75 134.06 135.13
  Q 134.96 129.22 131.47 124.62
  Q 131.17 124.23 131.25 123.74
  Q 131.88 119.93 130.39 116.31
  Q 130.18 115.80 129.70 115.52
  Z"
/>
<path d="
  M 80.29 103.17
  C 81.47 101.92 84.80 95.79 84.94 95.71
  Q 85.36 95.49 85.25 95.95
  Q 82.81 105.69 82.90 115.75
  Q 82.91 116.89 82.23 117.96
  A 0.69 0.69 0.0 0 1 81.00 117.79
  C 80.02 114.72 77.97 105.66 80.29 103.17
  Z"
/>
<path d="
  M 142.05 98.18
  C 154.01 91.86 159.58 106.70 157.96 115.86
  Q 157.84 116.57 157.12 116.62
  L 146.94 117.41
  Q 146.48 117.45 146.44 116.99
  Q 145.70 107.55 141.78 98.96
  Q 141.55 98.44 142.05 98.18
  Z"
/>
<rect x="-6.97" y="-1.03" transform="translate(154.40,123.63) rotate(-0.7)" width="13.94" height="2.06" rx="0.99"/>
<path d="
  M 158.58 130.97
  C 163.45 138.36 158.42 147.03 149.19 146.18
  A 1.33 1.32 2.2 0 1 147.98 144.89
  L 147.67 131.17
  Q 147.65 130.42 148.39 130.43
  L 157.78 130.53
  Q 158.30 130.54 158.58 130.97
  Z"
/>
<path d="
  M 63.27 132.48
  C 62.79 137.05 65.05 139.64 69.42 140.25
  Q 70.03 140.34 69.86 140.92
  L 66.09 153.44
  A 0.63 0.63 0.0 0 1 65.41 153.89
  L 61.23 153.36
  Q 60.86 153.32 60.85 152.95
  L 59.78 131.97
  Q 59.75 131.38 60.34 131.46
  L 62.73 131.79
  Q 63.33 131.88 63.27 132.48
  Z"
/>
<path d="
  M 112.33 136.42
  Q 112.62 137.64 113.56 138.45
  Q 114.54 139.29 113.25 139.30
  L 88.79 139.58
  Q 88.24 139.58 88.24 139.03
  L 88.27 136.40
  Q 88.27 135.75 88.92 135.75
  L 111.48 135.75
  Q 112.17 135.75 112.33 136.42
  Z"
/>
<path d="
  M 81.27 141.08
  L 76.77 153.07
  A 0.32 0.32 0.0 0 1 76.44 153.28
  L 72.59 152.92
  A 0.32 0.32 0.0 0 1 72.31 152.51
  L 75.99 140.32
  A 0.32 0.32 0.0 0 1 76.34 140.09
  L 81.01 140.65
  A 0.32 0.32 0.0 0 1 81.27 141.08
  Z"
/>
<path d="
  M 88.80 145.36
  Q 96.42 145.71 103.01 145.27
  Q 112.37 144.65 141.78 145.53
  Q 142.38 145.55 142.38 146.15
  L 142.35 164.81
  Q 142.35 165.73 141.44 165.72
  L 128.22 165.63
  A 1.68 1.67 5.2 0 1 126.58 163.67
  C 127.54 158.17 126.12 152.40 121.01 149.61
  C 116.74 147.27 111.08 147.91 107.61 151.36
  C 104.30 154.64 105.69 160.76 105.44 165.02
  A 0.73 0.73 0.0 0 1 104.71 165.71
  C 99.88 165.75 93.82 166.80 89.23 165.59
  Q 88.74 165.46 88.62 164.98
  C 87.00 158.74 87.96 152.08 88.32 145.79
  A 0.46 0.46 0.0 0 1 88.80 145.36
  Z"
/>
</g>
<path fill="#f8f8f8" d="
  M 69.99 71.15
  Q 70.43 70.48 70.85 71.16
  C 72.11 73.15 72.68 74.88 72.72 77.38
  Q 72.99 92.98 73.65 108.56
  C 73.76 111.23 73.36 114.28 73.84 117.31
  Q 73.95 118.00 73.25 118.00
  L 69.49 118.00
  Q 68.82 118.00 68.81 117.33
  Q 68.39 96.88 67.78 76.50
  C 67.71 74.20 68.81 72.98 69.99 71.15
  Z"
/>
<path fill="#42685f" d="
  M 59.50 123.73
  L 82.03 123.71
  Q 82.62 123.71 82.53 124.29
  L 82.31 125.77
  Q 82.20 126.47 81.50 126.37
  Q 77.29 125.74 73.81 127.86
  Q 73.34 128.14 73.33 128.69
  L 73.23 134.17
  Q 73.21 134.88 72.51 134.81
  L 69.17 134.48
  Q 68.50 134.41 68.50 133.75
  L 68.50 128.95
  Q 68.50 128.40 68.09 128.03
  Q 64.75 124.93 60.18 126.21
  Q 59.38 126.43 59.22 125.61
  L 58.97 124.37
  A 0.54 0.54 0.0 0 1 59.50 123.73
  Z"
/>
</svg>
