<?xml version="1.0" encoding="UTF-8" standalone="no"?>
<!DOCTYPE svg PUBLIC "-//W3C//DTD SVG 1.1//EN" "http://www.w3.org/Graphics/SVG/1.1/DTD/svg11.dtd">
<svg xmlns="http://www.w3.org/2000/svg" version="1.1" viewBox="0 0 180 180">
<g stroke-width="2.00" fill="none" stroke-linecap="butt">
<path stroke="#3d504e" vector-effect="non-scaling-stroke" d="
  M 137.49 67.87
  C 136.88 65.59 133.37 65.45 134.75 62.16
  C 135.44 60.52 137.12 60.74 137.45 58.51
  C 137.86 55.83 135.57 49.47 131.80 50.93
  Q 131.34 51.10 130.86 50.99
  C 124.66 49.49 132.48 43.38 127.09 40.00
  C 122.74 37.27 117.52 40.69 115.44 44.76
  A 0.91 0.91 0.0 0 0 116.05 46.06
  C 129.28 49.07 132.23 63.98 132.34 75.97
  Q 132.34 76.48 132.84 76.59
  C 138.02 77.71 138.45 71.46 137.49 67.87"
/>
<path stroke="#533d3e" vector-effect="non-scaling-stroke" d="
  M 40.59 52.39
  L 46.28 54.34
  Q 46.93 54.57 46.81 53.89
  L 45.65 47.55
  A 0.63 0.63 0.0 0 0 44.57 47.23
  L 40.41 51.68
  A 0.44 0.43 31.0 0 0 40.59 52.39"
/>
<path stroke="#98989a" vector-effect="non-scaling-stroke" d="
  M 108.89 81.30
  Q 108.72 81.21 108.53 81.23
  Q 108.07 81.29 108.05 81.76
  L 107.63 95.69
  Q 107.62 96.06 107.99 96.06
  L 125.37 95.88
  Q 125.97 95.87 125.98 95.27
  C 126.11 84.78 130.40 52.74 113.43 51.33
  Q 95.73 49.85 92.77 67.09
  A 0.63 0.63 0.0 0 0 93.32 67.83
  Q 104.24 69.01 115.24 68.18
  C 121.94 67.68 121.62 77.61 118.11 80.40
  C 116.38 81.78 111.67 81.33 109.40 81.42
  Q 109.13 81.44 108.89 81.30"
/>
<path stroke="#3d504e" vector-effect="non-scaling-stroke" d="
  M 46.29 60.48
  L 36.66 56.60
  Q 36.16 56.40 35.79 56.80
  C 31.68 61.26 29.42 67.24 26.30 72.27
  A 1.31 1.31 0.0 0 0 27.87 74.19
  Q 38.88 70.18 46.48 61.24
  Q 46.91 60.73 46.29 60.48"
/>
<path stroke="#3d504e" vector-effect="non-scaling-stroke" d="
  M 42.76 77.81
  C 49.42 81.39 50.28 99.17 52.58 106.97
  Q 54.14 112.30 56.06 117.37
  A 1.37 1.36 -26.4 0 0 58.06 118.04
  L 62.64 115.18
  Q 63.17 114.85 63.15 114.24
  L 62.21 83.54
  A 0.76 0.75 -16.5 0 0 61.06 82.92
  C 48.84 90.30 49.38 74.06 49.49 67.54
  A 0.41 0.41 0.0 0 0 48.79 67.25
  Q 41.19 75.07 31.08 79.13
  Q 30.68 79.29 30.79 79.70
  L 31.98 83.98
  Q 32.13 84.52 32.58 84.20
  L 41.66 77.87
  Q 42.19 77.51 42.76 77.81"
/>
<path stroke="#98989a" vector-effect="non-scaling-stroke" d="
  M 70.17 70.89
  C 68.89 72.86 67.71 74.12 67.79 76.60
  Q 68.37 96.95 68.80 117.35
  Q 68.81 118.00 69.46 118.00
  L 73.20 118.00
  Q 73.75 118.00 73.73 117.45
  C 73.27 103.79 72.92 90.06 72.68 76.40
  C 72.64 74.30 71.63 72.79 70.86 70.95
  A 0.39 0.39 0.0 0 0 70.17 70.89"
/>
<path stroke="#533d3e" vector-effect="non-scaling-stroke" d="
  M 24.36 89.33
  C 28.41 86.78 25.38 80.63 22.85 78.32
  Q 22.50 78.00 22.14 78.30
  C 19.98 80.09 17.09 83.11 17.37 86.10
  C 17.73 89.97 21.15 91.35 24.36 89.33"
/>
<path stroke="#98989a" vector-effect="non-scaling-stroke" d="
  M 98.08 81.78
  A 0.34 0.34 0.0 0 0 97.81 81.44
  L 91.75 80.20
  A 0.34 0.34 0.0 0 0 91.34 80.53
  L 91.01 95.40
  A 0.34 0.34 0.0 0 0 91.35 95.75
  L 97.41 95.75
  A 0.34 0.34 0.0 0 0 97.75 95.42
  L 98.08 81.78"
/>
<path stroke="#3d504e" vector-effect="non-scaling-stroke" d="
  M 82.32 83.67
  L 79.37 81.90
  Q 78.77 81.54 78.71 82.24
  Q 78.22 88.49 78.84 94.73
  Q 78.91 95.46 79.23 94.80
  L 82.27 88.56
  Q 82.50 88.09 82.50 87.57
  L 82.50 83.99
  Q 82.50 83.78 82.32 83.67"
/>
<path stroke="#3d504e" vector-effect="non-scaling-stroke" d="
  M 141.23 96.34
  Q 140.33 95.68 140.74 96.72
  C 141.66 99.04 142.40 100.99 144.61 102.67
  Q 149.40 106.32 152.55 111.52
  Q 153.44 112.98 152.81 111.39
  Q 149.15 102.09 141.23 96.34"
/>
<path stroke="#3d504e" vector-effect="non-scaling-stroke" d="
  M 83.53 99.73
  C 79.83 104.90 77.49 107.34 80.44 114.08
  C 80.89 115.12 80.26 118.35 81.95 118.00
  Q 82.40 117.91 82.45 117.44
  L 84.05 99.92
  Q 84.15 98.86 83.53 99.73"
/>
<path stroke="#3d504e" vector-effect="non-scaling-stroke" d="
  M 109.06 109.74
  C 107.56 108.50 99.67 101.49 98.76 101.49
  Q 94.29 101.49 90.05 101.51
  A 0.31 0.31 0.0 0 0 89.88 102.07
  Q 96.59 106.53 103.23 110.77
  C 104.23 111.41 105.15 112.84 106.34 113.50
  Q 106.82 113.76 107.13 113.31
  L 109.15 110.34
  A 0.45 0.45 0.0 0 0 109.06 109.74"
/>
<path stroke="#98989a" vector-effect="non-scaling-stroke" d="
  M 143.62 108.86
  Q 137.58 105.33 131.45 104.87
  C 113.98 103.59 103.26 125.69 111.63 139.95
  Q 111.92 140.44 112.34 140.06
  Q 126.65 127.14 140.89 114.13
  Q 142.91 112.28 144.00 110.91
  Q 144.98 109.67 143.62 108.86"
/>
<path stroke="#98989a" vector-effect="non-scaling-stroke" d="
  M 96.68 113.75
  A 0.32 0.32 0.0 0 0 96.64 113.26
  L 89.23 108.28
  A 0.32 0.32 0.0 0 0 88.73 108.53
  L 88.12 121.19
  A 0.32 0.32 0.0 0 0 88.66 121.44
  L 96.68 113.75"
/>
<path stroke="#98989a" vector-effect="non-scaling-stroke" d="
  M 116.10 144.88
  C 121.99 148.82 126.69 148.94 133.31 149.20
  C 153.29 149.98 153.15 128.65 148.24 115.56
  Q 148.09 115.18 147.79 115.45
  L 116.04 144.13
  A 0.48 0.48 0.0 0 0 116.10 144.88"
/>
<path stroke="#3d504e" vector-effect="non-scaling-stroke" d="
  M 102.11 117.43
  Q 101.46 116.96 100.89 117.52
  L 88.74 129.28
  Q 87.99 130.00 89.03 130.00
  L 93.98 130.00
  Q 94.43 130.00 94.79 129.73
  C 96.95 128.15 103.49 123.64 104.07 121.19
  Q 104.55 119.17 102.11 117.43"
/>
<path stroke="#3d504e" vector-effect="non-scaling-stroke" d="
  M 73.86 127.94
  Q 77.27 125.69 81.49 126.40
  Q 82.12 126.51 82.24 125.88
  L 82.56 124.22
  Q 82.66 123.69 82.13 123.70
  L 60.01 123.75
  Q 59.15 123.75 59.00 124.60
  Q 58.84 125.45 59.59 125.94
  Q 60.04 126.24 60.56 126.11
  Q 64.89 125.06 68.09 128.03
  Q 68.50 128.40 68.50 128.95
  L 68.50 133.75
  Q 68.50 134.42 69.17 134.49
  L 72.36 134.83
  Q 73.15 134.92 73.19 134.13
  L 73.44 128.68
  Q 73.46 128.20 73.86 127.94"
/>
<path stroke="#533d3e" vector-effect="non-scaling-stroke" d="
  M 69.77 140.38
  Q 62.80 139.62 63.23 132.43
  Q 63.26 131.88 62.71 131.81
  L 60.39 131.50
  Q 59.69 131.41 59.73 132.11
  L 60.82 153.93
  Q 60.84 154.31 61.21 154.36
  L 65.50 154.94
  Q 65.94 155.00 66.07 154.57
  L 70.14 140.93
  Q 70.29 140.44 69.77 140.38"
/>
<path stroke="#3d504e" vector-effect="non-scaling-stroke" d="
  M 82.3306 133.2261
  A 0.77 0.77 0.0 0 0 81.6572 132.3703
  L 79.9493 132.1667
  A 0.77 0.77 0.0 0 0 79.0936 132.8401
  L 78.9894 133.7139
  A 0.77 0.77 0.0 0 0 79.6628 134.5697
  L 81.3707 134.7733
  A 0.77 0.77 0.0 0 0 82.2264 134.0999
  L 82.3306 133.2261"
/>
<path stroke="#3d504e" vector-effect="non-scaling-stroke" d="
  M 104.15 139.48
  A 0.51 0.51 0.0 0 0 104.64 138.82
  L 103.80 136.11
  A 0.51 0.51 0.0 0 0 103.31 135.75
  L 88.64 135.75
  A 0.51 0.51 0.0 0 0 88.13 136.27
  L 88.17 139.01
  A 0.51 0.51 0.0 0 0 88.68 139.51
  L 104.15 139.48"
/>
<path stroke="#3d504e" vector-effect="non-scaling-stroke" d="
  M 152.76 162.27
  C 154.19 162.31 157.10 163.50 157.22 161.02
  Q 157.60 153.57 156.94 135.91
  Q 156.93 135.78 156.81 135.76
  Q 156.71 135.74 156.56 135.78
  Q 156.49 135.80 156.48 135.87
  C 155.89 142.34 153.53 145.24 148.94 149.97
  Q 148.60 150.32 148.58 150.82
  L 148.28 161.56
  A 0.68 0.67 0.4 0 0 148.98 162.26
  Q 150.89 162.21 152.76 162.27"
/>
<path stroke="#533d3e" vector-effect="non-scaling-stroke" d="
  M 81.63 141.03
  A 0.32 0.32 0.0 0 0 81.36 140.60
  L 76.66 140.21
  A 0.32 0.32 0.0 0 0 76.32 140.44
  L 72.29 153.50
  A 0.32 0.32 0.0 0 0 72.57 153.91
  L 76.47 154.31
  A 0.32 0.32 0.0 0 0 76.81 154.11
  L 81.63 141.03"
/>
<path stroke="#98989a" vector-effect="non-scaling-stroke" d="
  M 89.66 166.07
  L 104.46 166.00
  A 1.05 1.04 90.0 0 0 105.50 164.95
  C 105.49 158.81 104.07 151.84 111.41 149.08
  Q 111.99 148.86 111.55 148.43
  L 108.75 145.63
  Q 108.38 145.25 107.84 145.25
  L 88.73 145.25
  Q 88.10 145.25 88.08 145.88
  C 87.80 152.59 87.25 158.38 88.42 165.03
  A 1.26 1.25 -4.9 0 0 89.66 166.07"
/>
<path stroke="#98989a" vector-effect="non-scaling-stroke" d="
  M 142.31 153.63
  C 136.43 155.71 131.99 154.79 126.03 154.56
  Q 125.48 154.53 125.69 155.04
  Q 127.28 158.85 126.88 163.01
  Q 126.63 165.52 129.06 165.60
  Q 135.00 165.81 141.08 165.74
  A 1.01 1.01 0.0 0 0 142.08 164.79
  L 142.82 154.02
  Q 142.86 153.44 142.31 153.63"
/>
<path stroke="#3d504e" vector-effect="non-scaling-stroke" d="
  M 120.85 162.49
  C 121.88 157.14 116.89 150.25 111.65 155.50
  Q 111.25 155.90 111.25 156.46
  L 111.25 162.61
  Q 111.25 163.21 111.86 163.20
  L 120.14 163.09
  Q 120.74 163.08 120.85 162.49"
/>
<path stroke="#98989a" vector-effect="non-scaling-stroke" d="
  M 136.46 110.98
  A 2.46 2.46 0.0 0 0 134.00 108.52
  A 2.46 2.46 0.0 0 0 131.54 110.98
  A 2.46 2.46 0.0 0 0 134.00 113.44
  A 2.46 2.46 0.0 0 0 136.46 110.98"
/>
<path stroke="#98989a" vector-effect="non-scaling-stroke" d="
  M 121.81 114.83
  A 2.46 2.46 0.0 0 0 119.35 112.37
  A 2.46 2.46 0.0 0 0 116.89 114.83
  A 2.46 2.46 0.0 0 0 119.35 117.29
  A 2.46 2.46 0.0 0 0 121.81 114.83"
/>
<path stroke="#98989a" vector-effect="non-scaling-stroke" d="
  M 116.00 129.04
  A 2.52 2.52 0.0 0 0 113.48 126.52
  A 2.52 2.52 0.0 0 0 110.96 129.04
  A 2.52 2.52 0.0 0 0 113.48 131.56
  A 2.52 2.52 0.0 0 0 116.00 129.04"
/>
<path stroke="#98989a" vector-effect="non-scaling-stroke" d="
  M 148.41 127.14
  A 2.46 2.46 0.0 0 0 145.95 124.68
  A 2.46 2.46 0.0 0 0 143.49 127.14
  A 2.46 2.46 0.0 0 0 145.95 129.60
  A 2.46 2.46 0.0 0 0 148.41 127.14"
/>
<path stroke="#98989a" vector-effect="non-scaling-stroke" d="
  M 144.50 141.38
  A 2.47 2.47 0.0 0 0 142.03 138.91
  A 2.47 2.47 0.0 0 0 139.56 141.38
  A 2.47 2.47 0.0 0 0 142.03 143.85
  A 2.47 2.47 0.0 0 0 144.50 141.38"
/>
<path stroke="#98989a" vector-effect="non-scaling-stroke" d="
  M 128.94 143.79
  A 2.46 2.46 0.0 0 0 126.48 141.33
  A 2.46 2.46 0.0 0 0 124.02 143.79
  A 2.46 2.46 0.0 0 0 126.48 146.25
  A 2.46 2.46 0.0 0 0 128.94 143.79"
/>
</g>
<g fill="#38383c">
<path d="
  M 81.50 156.43
  C 78.79 163.78 74.09 162.67 67.77 163.62
  C 63.68 164.24 59.97 163.03 55.64 163.96
  Q 55.14 164.07 54.70 163.79
  C 50.50 161.17 52.31 156.55 54.79 153.32
  Q 55.12 152.88 55.10 152.33
  L 53.74 126.84
  Q 53.67 125.42 52.25 125.46
  C 38.33 125.88 31.78 115.20 29.06 103.13
  Q 28.13 98.99 27.27 94.83
  Q 27.16 94.33 26.70 94.55
  C 21.71 96.94 16.13 96.04 13.26 91.06
  C 10.11 85.58 12.99 80.14 16.88 75.64
  C 21.81 69.94 24.22 63.97 27.91 57.79
  C 29.90 54.45 33.04 51.82 35.81 48.91
  C 38.52 46.07 45.04 37.00 49.18 42.79
  Q 50.92 45.24 51.62 50.70
  Q 51.68 51.22 52.18 51.41
  Q 61.86 55.01 68.24 63.17
  Q 68.54 63.56 69.02 63.61
  C 73.05 64.06 74.06 65.98 75.96 69.75
  Q 78.15 74.08 82.35 77.12
  A 0.58 0.58 0.0 0 0 83.26 76.75
  C 83.85 73.20 86.05 70.73 86.79 67.47
  C 89.70 54.49 95.25 46.31 109.47 45.55
  Q 109.98 45.53 110.14 45.04
  C 112.81 37.01 122.39 30.36 130.23 35.84
  Q 134.56 38.86 134.96 44.91
  Q 135.00 45.43 135.46 45.67
  Q 146.36 51.24 141.94 62.97
  Q 141.76 63.43 141.98 63.87
  C 145.70 71.36 143.61 82.46 133.22 82.28
  Q 132.39 82.26 132.14 82.85
  A 0.53 0.53 0.0 0 0 132.59 83.58
  C 140.54 84.17 141.53 88.21 146.41 92.78
  C 155.42 101.20 159.89 110.50 161.33 122.68
  C 163.01 136.79 164.02 151.24 162.58 165.40
  Q 162.53 165.91 162.17 166.27
  C 158.73 169.75 152.74 167.83 148.04 167.79
  Q 147.52 167.78 147.26 168.23
  Q 145.34 171.61 141.30 171.55
  C 137.05 171.49 127.55 172.65 122.89 169.06
  Q 122.52 168.78 122.06 168.78
  L 111.10 168.69
  Q 110.61 168.69 110.25 169.02
  C 106.13 172.84 89.47 173.08 85.29 169.56
  C 82.29 167.04 82.21 160.18 82.09 156.53
  Q 82.03 154.97 81.50 156.43
  Z
  M 137.49 67.87
  C 136.88 65.59 133.37 65.45 134.75 62.16
  C 135.44 60.52 137.12 60.74 137.45 58.51
  C 137.86 55.83 135.57 49.47 131.80 50.93
  Q 131.34 51.10 130.86 50.99
  C 124.66 49.49 132.48 43.38 127.09 40.00
  C 122.74 37.27 117.52 40.69 115.44 44.76
  A 0.91 0.91 0.0 0 0 116.05 46.06
  C 129.28 49.07 132.23 63.98 132.34 75.97
  Q 132.34 76.48 132.84 76.59
  C 138.02 77.71 138.45 71.46 137.49 67.87
  Z
  M 40.59 52.39
  L 46.28 54.34
  Q 46.93 54.57 46.81 53.89
  L 45.65 47.55
  A 0.63 0.63 0.0 0 0 44.57 47.23
  L 40.41 51.68
  A 0.44 0.43 31.0 0 0 40.59 52.39
  Z
  M 108.89 81.30
  Q 108.72 81.21 108.53 81.23
  Q 108.07 81.29 108.05 81.76
  L 107.63 95.69
  Q 107.62 96.06 107.99 96.06
  L 125.37 95.88
  Q 125.97 95.87 125.98 95.27
  C 126.11 84.78 130.40 52.74 113.43 51.33
  Q 95.73 49.85 92.77 67.09
  A 0.63 0.63 0.0 0 0 93.32 67.83
  Q 104.24 69.01 115.24 68.18
  C 121.94 67.68 121.62 77.61 118.11 80.40
  C 116.38 81.78 111.67 81.33 109.40 81.42
  Q 109.13 81.44 108.89 81.30
  Z
  M 46.29 60.48
  L 36.66 56.60
  Q 36.16 56.40 35.79 56.80
  C 31.68 61.26 29.42 67.24 26.30 72.27
  A 1.31 1.31 0.0 0 0 27.87 74.19
  Q 38.88 70.18 46.48 61.24
  Q 46.91 60.73 46.29 60.48
  Z
  M 42.76 77.81
  C 49.42 81.39 50.28 99.17 52.58 106.97
  Q 54.14 112.30 56.06 117.37
  A 1.37 1.36 -26.4 0 0 58.06 118.04
  L 62.64 115.18
  Q 63.17 114.85 63.15 114.24
  L 62.21 83.54
  A 0.76 0.75 -16.5 0 0 61.06 82.92
  C 48.84 90.30 49.38 74.06 49.49 67.54
  A 0.41 0.41 0.0 0 0 48.79 67.25
  Q 41.19 75.07 31.08 79.13
  Q 30.68 79.29 30.79 79.70
  L 31.98 83.98
  Q 32.13 84.52 32.58 84.20
  L 41.66 77.87
  Q 42.19 77.51 42.76 77.81
  Z
  M 70.17 70.89
  C 68.89 72.86 67.71 74.12 67.79 76.60
  Q 68.37 96.95 68.80 117.35
  Q 68.81 118.00 69.46 118.00
  L 73.20 118.00
  Q 73.75 118.00 73.73 117.45
  C 73.27 103.79 72.92 90.06 72.68 76.40
  C 72.64 74.30 71.63 72.79 70.86 70.95
  A 0.39 0.39 0.0 0 0 70.17 70.89
  Z
  M 24.36 89.33
  C 28.41 86.78 25.38 80.63 22.85 78.32
  Q 22.50 78.00 22.14 78.30
  C 19.98 80.09 17.09 83.11 17.37 86.10
  C 17.73 89.97 21.15 91.35 24.36 89.33
  Z
  M 98.08 81.78
  A 0.34 0.34 0.0 0 0 97.81 81.44
  L 91.75 80.20
  A 0.34 0.34 0.0 0 0 91.34 80.53
  L 91.01 95.40
  A 0.34 0.34 0.0 0 0 91.35 95.75
  L 97.41 95.75
  A 0.34 0.34 0.0 0 0 97.75 95.42
  L 98.08 81.78
  Z
  M 82.32 83.67
  L 79.37 81.90
  Q 78.77 81.54 78.71 82.24
  Q 78.22 88.49 78.84 94.73
  Q 78.91 95.46 79.23 94.80
  L 82.27 88.56
  Q 82.50 88.09 82.50 87.57
  L 82.50 83.99
  Q 82.50 83.78 82.32 83.67
  Z
  M 32.23 91.64
  C 32.84 101.58 37.40 119.53 50.24 119.71
  Q 50.79 119.72 50.60 119.20
  C 48.33 112.75 46.43 106.89 45.17 99.75
  Q 43.87 92.42 42.04 85.16
  A 0.38 0.38 0.0 0 0 41.46 84.94
  L 32.64 90.82
  Q 32.20 91.12 32.23 91.64
  Z
  M 141.23 96.34
  Q 140.33 95.68 140.74 96.72
  C 141.66 99.04 142.40 100.99 144.61 102.67
  Q 149.40 106.32 152.55 111.52
  Q 153.44 112.98 152.81 111.39
  Q 149.15 102.09 141.23 96.34
  Z
  M 83.53 99.73
  C 79.83 104.90 77.49 107.34 80.44 114.08
  C 80.89 115.12 80.26 118.35 81.95 118.00
  Q 82.40 117.91 82.45 117.44
  L 84.05 99.92
  Q 84.15 98.86 83.53 99.73
  Z
  M 109.06 109.74
  C 107.56 108.50 99.67 101.49 98.76 101.49
  Q 94.29 101.49 90.05 101.51
  A 0.31 0.31 0.0 0 0 89.88 102.07
  Q 96.59 106.53 103.23 110.77
  C 104.23 111.41 105.15 112.84 106.34 113.50
  Q 106.82 113.76 107.13 113.31
  L 109.15 110.34
  A 0.45 0.45 0.0 0 0 109.06 109.74
  Z
  M 143.62 108.86
  Q 137.58 105.33 131.45 104.87
  C 113.98 103.59 103.26 125.69 111.63 139.95
  Q 111.92 140.44 112.34 140.06
  Q 126.65 127.14 140.89 114.13
  Q 142.91 112.28 144.00 110.91
  Q 144.98 109.67 143.62 108.86
  Z
  M 96.68 113.75
  A 0.32 0.32 0.0 0 0 96.64 113.26
  L 89.23 108.28
  A 0.32 0.32 0.0 0 0 88.73 108.53
  L 88.12 121.19
  A 0.32 0.32 0.0 0 0 88.66 121.44
  L 96.68 113.75
  Z
  M 116.10 144.88
  C 121.99 148.82 126.69 148.94 133.31 149.20
  C 153.29 149.98 153.15 128.65 148.24 115.56
  Q 148.09 115.18 147.79 115.45
  L 116.04 144.13
  A 0.48 0.48 0.0 0 0 116.10 144.88
  Z
  M 102.11 117.43
  Q 101.46 116.96 100.89 117.52
  L 88.74 129.28
  Q 87.99 130.00 89.03 130.00
  L 93.98 130.00
  Q 94.43 130.00 94.79 129.73
  C 96.95 128.15 103.49 123.64 104.07 121.19
  Q 104.55 119.17 102.11 117.43
  Z
  M 73.86 127.94
  Q 77.27 125.69 81.49 126.40
  Q 82.12 126.51 82.24 125.88
  L 82.56 124.22
  Q 82.66 123.69 82.13 123.70
  L 60.01 123.75
  Q 59.15 123.75 59.00 124.60
  Q 58.84 125.45 59.59 125.94
  Q 60.04 126.24 60.56 126.11
  Q 64.89 125.06 68.09 128.03
  Q 68.50 128.40 68.50 128.95
  L 68.50 133.75
  Q 68.50 134.42 69.17 134.49
  L 72.36 134.83
  Q 73.15 134.92 73.19 134.13
  L 73.44 128.68
  Q 73.46 128.20 73.86 127.94
  Z
  M 69.77 140.38
  Q 62.80 139.62 63.23 132.43
  Q 63.26 131.88 62.71 131.81
  L 60.39 131.50
  Q 59.69 131.41 59.73 132.11
  L 60.82 153.93
  Q 60.84 154.31 61.21 154.36
  L 65.50 154.94
  Q 65.94 155.00 66.07 154.57
  L 70.14 140.93
  Q 70.29 140.44 69.77 140.38
  Z
  M 82.3306 133.2261
  A 0.77 0.77 0.0 0 0 81.6572 132.3703
  L 79.9493 132.1667
  A 0.77 0.77 0.0 0 0 79.0936 132.8401
  L 78.9894 133.7139
  A 0.77 0.77 0.0 0 0 79.6628 134.5697
  L 81.3707 134.7733
  A 0.77 0.77 0.0 0 0 82.2264 134.0999
  L 82.3306 133.2261
  Z
  M 104.15 139.48
  A 0.51 0.51 0.0 0 0 104.64 138.82
  L 103.80 136.11
  A 0.51 0.51 0.0 0 0 103.31 135.75
  L 88.64 135.75
  A 0.51 0.51 0.0 0 0 88.13 136.27
  L 88.17 139.01
  A 0.51 0.51 0.0 0 0 88.68 139.51
  L 104.15 139.48
  Z
  M 152.76 162.27
  C 154.19 162.31 157.10 163.50 157.22 161.02
  Q 157.60 153.57 156.94 135.91
  Q 156.93 135.78 156.81 135.76
  Q 156.71 135.74 156.56 135.78
  Q 156.49 135.80 156.48 135.87
  C 155.89 142.34 153.53 145.24 148.94 149.97
  Q 148.60 150.32 148.58 150.82
  L 148.28 161.56
  A 0.68 0.67 0.4 0 0 148.98 162.26
  Q 150.89 162.21 152.76 162.27
  Z
  M 81.63 141.03
  A 0.32 0.32 0.0 0 0 81.36 140.60
  L 76.66 140.21
  A 0.32 0.32 0.0 0 0 76.32 140.44
  L 72.29 153.50
  A 0.32 0.32 0.0 0 0 72.57 153.91
  L 76.47 154.31
  A 0.32 0.32 0.0 0 0 76.81 154.11
  L 81.63 141.03
  Z
  M 89.66 166.07
  L 104.46 166.00
  A 1.05 1.04 90.0 0 0 105.50 164.95
  C 105.49 158.81 104.07 151.84 111.41 149.08
  Q 111.99 148.86 111.55 148.43
  L 108.75 145.63
  Q 108.38 145.25 107.84 145.25
  L 88.73 145.25
  Q 88.10 145.25 88.08 145.88
  C 87.80 152.59 87.25 158.38 88.42 165.03
  A 1.26 1.25 -4.9 0 0 89.66 166.07
  Z
  M 142.31 153.63
  C 136.43 155.71 131.99 154.79 126.03 154.56
  Q 125.48 154.53 125.69 155.04
  Q 127.28 158.85 126.88 163.01
  Q 126.63 165.52 129.06 165.60
  Q 135.00 165.81 141.08 165.74
  A 1.01 1.01 0.0 0 0 142.08 164.79
  L 142.82 154.02
  Q 142.86 153.44 142.31 153.63
  Z
  M 120.85 162.49
  C 121.88 157.14 116.89 150.25 111.65 155.50
  Q 111.25 155.90 111.25 156.46
  L 111.25 162.61
  Q 111.25 163.21 111.86 163.20
  L 120.14 163.09
  Q 120.74 163.08 120.85 162.49
  Z"
/>
<circle cx="134.00" cy="110.98" r="2.46"/>
<circle cx="119.35" cy="114.83" r="2.46"/>
<circle cx="145.95" cy="127.14" r="2.46"/>
<circle cx="113.48" cy="129.04" r="2.52"/>
<circle cx="142.03" cy="141.38" r="2.47"/>
<circle cx="126.48" cy="143.79" r="2.46"/>
</g>
<g fill="#f8f8f8">
<path d="
  M 109.40 81.42
  C 111.67 81.33 116.38 81.78 118.11 80.40
  C 121.62 77.61 121.94 67.68 115.24 68.18
  Q 104.24 69.01 93.32 67.83
  A 0.63 0.63 0.0 0 1 92.77 67.09
  Q 95.73 49.85 113.43 51.33
  C 130.40 52.74 126.11 84.78 125.98 95.27
  Q 125.97 95.87 125.37 95.88
  L 107.99 96.06
  Q 107.62 96.06 107.63 95.69
  L 108.05 81.76
  Q 108.07 81.29 108.53 81.23
  Q 108.72 81.21 108.89 81.30
  Q 109.13 81.44 109.40 81.42
  Z"
/>
<path d="
  M 70.17 70.89
  A 0.39 0.39 0.0 0 1 70.86 70.95
  C 71.63 72.79 72.64 74.30 72.68 76.40
  C 72.92 90.06 73.27 103.79 73.73 117.45
  Q 73.75 118.00 73.20 118.00
  L 69.46 118.00
  Q 68.81 118.00 68.80 117.35
  Q 68.37 96.95 67.79 76.60
  C 67.71 74.12 68.89 72.86 70.17 70.89
  Z"
/>
<path d="
  M 98.08 81.78
  L 97.75 95.42
  A 0.34 0.34 0.0 0 1 97.41 95.75
  L 91.35 95.75
  A 0.34 0.34 0.0 0 1 91.01 95.40
  L 91.34 80.53
  A 0.34 0.34 0.0 0 1 91.75 80.20
  L 97.81 81.44
  A 0.34 0.34 0.0 0 1 98.08 81.78
  Z"
/>
<path d="
  M 143.62 108.86
  Q 144.98 109.67 144.00 110.91
  Q 142.91 112.28 140.89 114.13
  Q 126.65 127.14 112.34 140.06
  Q 111.92 140.44 111.63 139.95
  C 103.26 125.69 113.98 103.59 131.45 104.87
  Q 137.58 105.33 143.62 108.86
  Z
  M 136.46 110.98
  A 2.46 2.46 0.0 0 0 134.00 108.52
  A 2.46 2.46 0.0 0 0 131.54 110.98
  A 2.46 2.46 0.0 0 0 134.00 113.44
  A 2.46 2.46 0.0 0 0 136.46 110.98
  Z
  M 121.81 114.83
  A 2.46 2.46 0.0 0 0 119.35 112.37
  A 2.46 2.46 0.0 0 0 116.89 114.83
  A 2.46 2.46 0.0 0 0 119.35 117.29
  A 2.46 2.46 0.0 0 0 121.81 114.83
  Z
  M 116.00 129.04
  A 2.52 2.52 0.0 0 0 113.48 126.52
  A 2.52 2.52 0.0 0 0 110.96 129.04
  A 2.52 2.52 0.0 0 0 113.48 131.56
  A 2.52 2.52 0.0 0 0 116.00 129.04
  Z"
/>
<path d="
  M 96.68 113.75
  L 88.66 121.44
  A 0.32 0.32 0.0 0 1 88.12 121.19
  L 88.73 108.53
  A 0.32 0.32 0.0 0 1 89.23 108.28
  L 96.64 113.26
  A 0.32 0.32 0.0 0 1 96.68 113.75
  Z"
/>
<path d="
  M 116.10 144.88
  A 0.48 0.48 0.0 0 1 116.04 144.13
  L 147.79 115.45
  Q 148.09 115.18 148.24 115.56
  C 153.15 128.65 153.29 149.98 133.31 149.20
  C 126.69 148.94 121.99 148.82 116.10 144.88
  Z
  M 148.41 127.14
  A 2.46 2.46 0.0 0 0 145.95 124.68
  A 2.46 2.46 0.0 0 0 143.49 127.14
  A 2.46 2.46 0.0 0 0 145.95 129.60
  A 2.46 2.46 0.0 0 0 148.41 127.14
  Z
  M 144.50 141.38
  A 2.47 2.47 0.0 0 0 142.03 138.91
  A 2.47 2.47 0.0 0 0 139.56 141.38
  A 2.47 2.47 0.0 0 0 142.03 143.85
  A 2.47 2.47 0.0 0 0 144.50 141.38
  Z
  M 128.94 143.79
  A 2.46 2.46 0.0 0 0 126.48 141.33
  A 2.46 2.46 0.0 0 0 124.02 143.79
  A 2.46 2.46 0.0 0 0 126.48 146.25
  A 2.46 2.46 0.0 0 0 128.94 143.79
  Z"
/>
<path d="
  M 89.66 166.07
  A 1.26 1.25 -4.9 0 1 88.42 165.03
  C 87.25 158.38 87.80 152.59 88.08 145.88
  Q 88.10 145.25 88.73 145.25
  L 107.84 145.25
  Q 108.38 145.25 108.75 145.63
  L 111.55 148.43
  Q 111.99 148.86 111.41 149.08
  C 104.07 151.84 105.49 158.81 105.50 164.95
  A 1.05 1.04 -90.0 0 1 104.46 166.00
  L 89.66 166.07
  Z"
/>
<path d="
  M 126.03 154.56
  C 131.99 154.79 136.43 155.71 142.31 153.63
  Q 142.86 153.44 142.82 154.02
  L 142.08 164.79
  A 1.01 1.01 0.0 0 1 141.08 165.74
  Q 135.00 165.81 129.06 165.60
  Q 126.63 165.52 126.88 163.01
  Q 127.28 158.85 125.69 155.04
  Q 125.48 154.53 126.03 154.56
  Z"
/>
</g>
<g fill="#42685f">
<path d="
  M 134.75 62.16
  C 133.37 65.45 136.88 65.59 137.49 67.87
  C 138.45 71.46 138.02 77.71 132.84 76.59
  Q 132.34 76.48 132.34 75.97
  C 132.23 63.98 129.28 49.07 116.05 46.06
  A 0.91 0.91 0.0 0 1 115.44 44.76
  C 117.52 40.69 122.74 37.27 127.09 40.00
  C 132.48 43.38 124.66 49.49 130.86 50.99
  Q 131.34 51.10 131.80 50.93
  C 135.57 49.47 137.86 55.83 137.45 58.51
  C 137.12 60.74 135.44 60.52 134.75 62.16
  Z"
/>
<path d="
  M 36.66 56.60
  L 46.29 60.48
  Q 46.91 60.73 46.48 61.24
  Q 38.88 70.18 27.87 74.19
  A 1.31 1.31 0.0 0 1 26.30 72.27
  C 29.42 67.24 31.68 61.26 35.79 56.80
  Q 36.16 56.40 36.66 56.60
  Z"
/>
<path d="
  M 41.66 77.87
  L 32.58 84.20
  Q 32.13 84.52 31.98 83.98
  L 30.79 79.70
  Q 30.68 79.29 31.08 79.13
  Q 41.19 75.07 48.79 67.25
  A 0.41 0.41 0.0 0 1 49.49 67.54
  C 49.38 74.06 48.84 90.30 61.06 82.92
  A 0.76 0.75 -16.5 0 1 62.21 83.54
  L 63.15 114.24
  Q 63.17 114.85 62.64 115.18
  L 58.06 118.04
  A 1.37 1.36 -26.4 0 1 56.06 117.37
  Q 54.14 112.30 52.58 106.97
  C 50.28 99.17 49.42 81.39 42.76 77.81
  Q 42.19 77.51 41.66 77.87
  Z"
/>
<path d="
  M 79.37 81.90
  L 82.32 83.67
  Q 82.50 83.78 82.50 83.99
  L 82.50 87.57
  Q 82.50 88.09 82.27 88.56
  L 79.23 94.80
  Q 78.91 95.46 78.84 94.73
  Q 78.22 88.49 78.71 82.24
  Q 78.77 81.54 79.37 81.90
  Z"
/>
<path d="
  M 141.23 96.34
  Q 149.15 102.09 152.81 111.39
  Q 153.44 112.98 152.55 111.52
  Q 149.40 106.32 144.61 102.67
  C 142.40 100.99 141.66 99.04 140.74 96.72
  Q 140.33 95.68 141.23 96.34
  Z"
/>
<path d="
  M 83.53 99.73
  Q 84.15 98.86 84.05 99.92
  L 82.45 117.44
  Q 82.40 117.91 81.95 118.00
  C 80.26 118.35 80.89 115.12 80.44 114.08
  C 77.49 107.34 79.83 104.90 83.53 99.73
  Z"
/>
<path d="
  M 109.06 109.74
  A 0.45 0.45 0.0 0 1 109.15 110.34
  L 107.13 113.31
  Q 106.82 113.76 106.34 113.50
  C 105.15 112.84 104.23 111.41 103.23 110.77
  Q 96.59 106.53 89.88 102.07
  A 0.31 0.31 0.0 0 1 90.05 101.51
  Q 94.29 101.49 98.76 101.49
  C 99.67 101.49 107.56 108.50 109.06 109.74
  Z"
/>
<path d="
  M 102.11 117.43
  Q 104.55 119.17 104.07 121.19
  C 103.49 123.64 96.95 128.15 94.79 129.73
  Q 94.43 130.00 93.98 130.00
  L 89.03 130.00
  Q 87.99 130.00 88.74 129.28
  L 100.89 117.52
  Q 101.46 116.96 102.11 117.43
  Z"
/>
<path d="
  M 73.44 128.68
  L 73.19 134.13
  Q 73.15 134.92 72.36 134.83
  L 69.17 134.49
  Q 68.50 134.42 68.50 133.75
  L 68.50 128.95
  Q 68.50 128.40 68.09 128.03
  Q 64.89 125.06 60.56 126.11
  Q 60.04 126.24 59.59 125.94
  Q 58.84 125.45 59.00 124.60
  Q 59.15 123.75 60.01 123.75
  L 82.13 123.70
  Q 82.66 123.69 82.56 124.22
  L 82.24 125.88
  Q 82.12 126.51 81.49 126.40
  Q 77.27 125.69 73.86 127.94
  Q 73.46 128.20 73.44 128.68
  Z"
/>
<rect x="-1.63" y="-1.21" transform="translate(80.66,133.47) rotate(6.8)" width="3.26" height="2.42" rx="0.77"/>
<path d="
  M 104.15 139.48
  L 88.68 139.51
  A 0.51 0.51 0.0 0 1 88.17 139.01
  L 88.13 136.27
  A 0.51 0.51 0.0 0 1 88.64 135.75
  L 103.31 135.75
  A 0.51 0.51 0.0 0 1 103.80 136.11
  L 104.64 138.82
  A 0.51 0.51 0.0 0 1 104.15 139.48
  Z"
/>
<path d="
  M 152.76 162.27
  Q 150.89 162.21 148.98 162.26
  A 0.68 0.67 0.4 0 1 148.28 161.56
  L 148.58 150.82
  Q 148.60 150.32 148.94 149.97
  C 153.53 145.24 155.89 142.34 156.48 135.87
  Q 156.49 135.80 156.56 135.78
  Q 156.71 135.74 156.81 135.76
  Q 156.93 135.78 156.94 135.91
  Q 157.60 153.57 157.22 161.02
  C 157.10 163.50 154.19 162.31 152.76 162.27
  Z"
/>
<path d="
  M 111.65 155.50
  C 116.89 150.25 121.88 157.14 120.85 162.49
  Q 120.74 163.08 120.14 163.09
  L 111.86 163.20
  Q 111.25 163.21 111.25 162.61
  L 111.25 156.46
  Q 111.25 155.90 111.65 155.50
  Z"
/>
</g>
<g fill="#6e423f">
<path d="
  M 40.59 52.39
  A 0.44 0.43 31.0 0 1 40.41 51.68
  L 44.57 47.23
  A 0.63 0.63 0.0 0 1 45.65 47.55
  L 46.81 53.89
  Q 46.93 54.57 46.28 54.34
  L 40.59 52.39
  Z"
/>
<path d="
  M 24.36 89.33
  C 21.15 91.35 17.73 89.97 17.37 86.10
  C 17.09 83.11 19.98 80.09 22.14 78.30
  Q 22.50 78.00 22.85 78.32
  C 25.38 80.63 28.41 86.78 24.36 89.33
  Z"
/>
<path d="
  M 69.77 140.38
  Q 70.29 140.44 70.14 140.93
  L 66.07 154.57
  Q 65.94 155.00 65.50 154.94
  L 61.21 154.36
  Q 60.84 154.31 60.82 153.93
  L 59.73 132.11
  Q 59.69 131.41 60.39 131.50
  L 62.71 131.81
  Q 63.26 131.88 63.23 132.43
  Q 62.80 139.62 69.77 140.38
  Z"
/>
<path d="
  M 81.63 141.03
  L 76.81 154.11
  A 0.32 0.32 0.0 0 1 76.47 154.31
  L 72.57 153.91
  A 0.32 0.32 0.0 0 1 72.29 153.50
  L 76.32 140.44
  A 0.32 0.32 0.0 0 1 76.66 140.21
  L 81.36 140.60
  A 0.32 0.32 0.0 0 1 81.63 141.03
  Z"
/>
</g>
</svg>
