<?xml version="1.0" encoding="UTF-8" standalone="no"?>
<!DOCTYPE svg PUBLIC "-//W3C//DTD SVG 1.1//EN" "http://www.w3.org/Graphics/SVG/1.1/DTD/svg11.dtd">
<svg xmlns="http://www.w3.org/2000/svg" version="1.1" viewBox="0 0 180 180">
<g stroke-width="2.00" fill="none" stroke-linecap="butt">
<path stroke="#98989a" vector-effect="non-scaling-stroke" d="
  M 72.33 77.33
  Q 69.27 75.50 67.51 75.30
  C 54.01 73.80 48.86 82.77 50.17 95.00
  Q 50.22 95.51 50.74 95.45
  Q 70.71 93.24 90.78 94.79
  Q 91.27 94.83 91.60 94.46
  C 97.65 87.58 107.83 86.88 112.07 96.13
  Q 112.31 96.64 112.87 96.62
  Q 126.26 96.15 138.31 101.88
  Q 138.82 102.12 138.70 101.57
  Q 137.68 96.61 134.65 92.65
  C 132.30 89.57 126.37 89.80 126.66 85.00
  Q 127.61 69.52 113.08 65.72
  Q 94.79 60.93 80.48 72.42
  C 78.45 74.05 76.15 79.61 72.33 77.33"
/>
<path stroke="#9c4249" vector-effect="non-scaling-stroke" d="
  M 113.30 113.62
  L 117.08 112.83
  Q 117.52 112.74 117.81 112.40
  C 122.24 107.31 114.57 102.97 109.90 106.95
  Q 109.51 107.29 108.99 107.23
  Q 105.84 106.89 105.68 103.75
  Q 105.66 103.22 105.93 102.77
  C 111.05 94.39 97.33 90.94 94.94 100.53
  Q 94.61 101.82 94.25 103.15
  A 0.81 0.81 0.0 0 0 94.95 104.16
  C 107.45 105.44 109.68 120.13 110.49 130.05
  A 0.69 0.69 0.0 0 0 111.08 130.68
  C 116.27 131.46 122.02 128.61 120.91 122.54
  C 119.91 117.08 109.21 120.80 112.43 114.29
  Q 112.70 113.74 113.30 113.62"
/>
<path stroke="#98989a" vector-effect="non-scaling-stroke" d="
  M 43.81 114.94
  Q 36.80 113.61 34.21 107.03
  A 0.69 0.69 0.0 0 0 33.11 106.77
  C 29.41 110.10 30.03 123.47 30.36 128.19
  Q 30.40 128.66 30.84 128.80
  L 33.57 129.68
  Q 34.10 129.86 34.12 129.30
  C 34.21 126.70 34.23 121.04 37.94 120.85
  Q 45.64 120.45 59.51 120.60
  C 65.98 120.66 62.86 124.95 64.66 128.06
  Q 64.97 128.60 65.06 127.98
  Q 66.83 116.65 75.40 109.08
  Q 75.95 108.59 75.22 108.53
  C 72.11 108.28 67.95 111.48 66.27 107.82
  A 2.16 2.16 0.0 0 1 67.31 104.97
  Q 74.55 101.54 81.91 104.68
  Q 82.31 104.85 82.74 104.78
  L 88.06 103.84
  Q 88.64 103.74 88.71 103.16
  L 89.04 100.81
  Q 89.10 100.36 88.64 100.32
  Q 73.52 99.15 58.40 100.25
  Q 57.80 100.29 57.61 100.86
  C 55.53 107.06 52.86 116.65 43.81 114.94"
/>
<path stroke="#927a6d" vector-effect="non-scaling-stroke" d="
  M 151.43 140.03
  A 0.28 0.27 -70.8 0 0 151.85 139.82
  Q 152.22 135.01 151.93 129.92
  C 151.68 125.38 148.05 117.66 145.17 114.38
  Q 136.20 104.15 122.08 102.73
  Q 121.68 102.69 121.95 102.98
  Q 126.91 108.42 123.06 114.78
  Q 122.79 115.23 123.15 115.62
  C 130.85 123.72 125.45 135.15 114.90 136.25
  Q 114.25 136.31 114.25 136.96
  L 114.25 138.47
  Q 114.25 139.07 114.85 139.11
  C 119.65 139.41 122.91 136.14 125.92 132.93
  Q 126.27 132.55 126.78 132.50
  Q 129.99 132.19 130.05 135.57
  Q 130.06 136.20 129.61 136.65
  L 124.71 141.61
  Q 124.44 141.88 124.65 142.21
  Q 127.24 146.21 125.83 150.92
  A 0.61 0.60 17.8 0 0 126.22 151.67
  C 126.82 151.87 127.15 151.82 127.08 151.12
  C 126.65 146.84 127.53 142.77 131.02 139.90
  Q 140.14 132.40 151.43 140.03"
/>
<path stroke="#98989a" vector-effect="non-scaling-stroke" d="
  M 124.86 157.09
  A 1.67 1.66 -45.5 0 0 122.85 157.11
  C 120.41 159.01 115.18 160.18 116.20 154.97
  Q 116.30 154.46 116.71 154.13
  C 124.66 147.78 118.89 140.05 111.44 148.31
  C 109.51 150.45 105.32 150.68 105.30 147.43
  C 105.21 134.31 105.29 125.58 101.36 115.02
  Q 99.58 110.22 94.30 109.61
  C 78.50 107.78 70.02 120.44 69.75 134.51
  Q 69.62 141.35 71.02 161.94
  C 71.75 172.76 96.06 170.46 103.09 170.01
  C 110.28 169.55 122.49 169.44 125.87 161.12
  Q 126.90 158.60 124.86 157.09"
/>
<path stroke="#927a6d" vector-effect="non-scaling-stroke" d="
  M 40.23 139.58
  C 43.25 141.92 54.35 141.13 56.32 141.17
  Q 56.86 141.19 57.15 140.73
  C 59.10 137.67 59.34 131.06 58.79 127.63
  Q 58.57 126.25 57.17 126.25
  L 40.06 126.25
  Q 39.37 126.25 39.39 126.94
  L 39.80 138.74
  Q 39.81 139.26 40.23 139.58"
/>
<path stroke="#927a6d" vector-effect="non-scaling-stroke" d="
  M 157.09 139.57
  Q 156.84 139.93 156.93 140.12
  A 1.05 0.88 75.1 0 0 157.85 140.77
  C 164.37 140.37 159.27 135.05 157.65 133.32
  A 0.30 0.30 0.0 0 0 157.13 133.53
  L 157.30 138.86
  Q 157.31 139.25 157.09 139.57"
/>
<path stroke="#98989a" vector-effect="non-scaling-stroke" d="
  M 63.95 138.02
  Q 63.52 138.78 63.52 139.63
  C 63.52 141.86 61.70 144.29 59.99 145.49
  C 56.28 148.09 44.81 146.63 40.28 146.00
  Q 39.70 145.92 39.25 145.56
  Q 36.70 143.51 34.65 146.10
  Q 34.36 146.47 34.52 146.91
  C 36.42 152.37 45.42 155.08 50.82 155.80
  Q 51.29 155.86 51.61 155.51
  Q 52.83 154.18 54.56 155.02
  A 2.35 2.34 -78.7 0 1 55.87 156.99
  L 56.25 163.47
  Q 56.29 164.18 57.01 164.23
  L 62.89 164.57
  Q 63.38 164.60 63.45 164.11
  C 64.04 159.72 65.17 155.84 64.77 151.35
  Q 64.17 144.73 64.26 138.10
  Q 64.26 137.48 63.95 138.02"
/>
<path stroke="#927a6d" vector-effect="non-scaling-stroke" d="
  M 149.4292 148.3620
  A 8.45 6.45 -0.8 0 0 140.8899 142.0306
  A 8.45 6.45 -0.8 0 0 132.5308 148.5980
  A 8.45 6.45 -0.8 0 0 141.0701 154.9294
  A 8.45 6.45 -0.8 0 0 149.4292 148.3620"
/>
<path stroke="#98989a" vector-effect="non-scaling-stroke" d="
  M 97.06 132.43
  C 98.88 125.97 92.33 124.75 87.73 124.55
  Q 82.45 124.31 80.33 124.80
  C 69.46 127.30 80.26 143.80 87.11 143.01
  C 92.02 142.45 95.78 136.94 97.06 132.43"
/>
<path stroke="#9c8f4d" vector-effect="non-scaling-stroke" d="
  M 91.15 130.59
  L 81.62 129.89
  A 0.61 0.60 80.3 0 0 81.02 130.74
  Q 82.66 134.44 85.57 137.20
  Q 85.99 137.60 86.55 137.48
  C 89.20 136.90 90.77 133.58 91.63 131.35
  Q 91.91 130.64 91.15 130.59"
/>
<path stroke="#927a6d" vector-effect="non-scaling-stroke" d="
  M 43.8145 137.1540
  A 3.86 3.14 93.2 0 0 47.1651 133.4753
  A 3.86 3.14 93.2 0 0 44.2455 129.4460
  A 3.86 3.14 93.2 0 0 40.8949 133.1247
  A 3.86 3.14 93.2 0 0 43.8145 137.1540"
/>
<path stroke="#927a6d" vector-effect="non-scaling-stroke" d="
  M 50.3127 136.8419
  A 3.96 3.25 114.9 0 0 54.9279 134.6184
  A 3.96 3.25 114.9 0 0 53.6473 129.6581
  A 3.96 3.25 114.9 0 0 49.0321 131.8816
  A 3.96 3.25 114.9 0 0 50.3127 136.8419"
/>
<path stroke="#927a6d" vector-effect="non-scaling-stroke" d="
  M 147.86 148.25
  A 2.52 2.52 0.0 0 0 145.34 145.73
  A 2.52 2.52 0.0 0 0 142.82 148.25
  A 2.52 2.52 0.0 0 0 145.34 150.77
  A 2.52 2.52 0.0 0 0 147.86 148.25"
/>
<path stroke="#927a6d" vector-effect="non-scaling-stroke" d="
  M 140.35 148.38
  A 2.39 2.39 0.0 0 0 137.96 145.99
  A 2.39 2.39 0.0 0 0 135.57 148.38
  A 2.39 2.39 0.0 0 0 137.96 150.77
  A 2.39 2.39 0.0 0 0 140.35 148.38"
/>
</g>
<g fill="#f8f8f8">
<path d="
  M 72.33 77.33
  C 76.15 79.61 78.45 74.05 80.48 72.42
  Q 94.79 60.93 113.08 65.72
  Q 127.61 69.52 126.66 85.00
  C 126.37 89.80 132.30 89.57 134.65 92.65
  Q 137.68 96.61 138.70 101.57
  Q 138.82 102.12 138.31 101.88
  Q 126.26 96.15 112.87 96.62
  Q 112.31 96.64 112.07 96.13
  C 107.83 86.88 97.65 87.58 91.60 94.46
  Q 91.27 94.83 90.78 94.79
  Q 70.71 93.24 50.74 95.45
  Q 50.22 95.51 50.17 95.00
  C 48.86 82.77 54.01 73.80 67.51 75.30
  Q 69.27 75.50 72.33 77.33
  Z"
/>
<path d="
  M 43.81 114.94
  C 52.86 116.65 55.53 107.06 57.61 100.86
  Q 57.80 100.29 58.40 100.25
  Q 73.52 99.15 88.64 100.32
  Q 89.10 100.36 89.04 100.81
  L 88.71 103.16
  Q 88.64 103.74 88.06 103.84
  L 82.74 104.78
  Q 82.31 104.85 81.91 104.68
  Q 74.55 101.54 67.31 104.97
  A 2.16 2.16 0.0 0 0 66.27 107.82
  C 67.95 111.48 72.11 108.28 75.22 108.53
  Q 75.95 108.59 75.40 109.08
  Q 66.83 116.65 65.06 127.98
  Q 64.97 128.60 64.66 128.06
  C 62.86 124.95 65.98 120.66 59.51 120.60
  Q 45.64 120.45 37.94 120.85
  C 34.23 121.04 34.21 126.70 34.12 129.30
  Q 34.10 129.86 33.57 129.68
  L 30.84 128.80
  Q 30.40 128.66 30.36 128.19
  C 30.03 123.47 29.41 110.10 33.11 106.77
  A 0.69 0.69 0.0 0 1 34.21 107.03
  Q 36.80 113.61 43.81 114.94
  Z"
/>
<path d="
  M 124.86 157.09
  Q 126.90 158.60 125.87 161.12
  C 122.49 169.44 110.28 169.55 103.09 170.01
  C 96.06 170.46 71.75 172.76 71.02 161.94
  Q 69.62 141.35 69.75 134.51
  C 70.02 120.44 78.50 107.78 94.30 109.61
  Q 99.58 110.22 101.36 115.02
  C 105.29 125.58 105.21 134.31 105.30 147.43
  C 105.32 150.68 109.51 150.45 111.44 148.31
  C 118.89 140.05 124.66 147.78 116.71 154.13
  Q 116.30 154.46 116.20 154.97
  C 115.18 160.18 120.41 159.01 122.85 157.11
  A 1.67 1.66 -45.5 0 1 124.86 157.09
  Z
  M 97.06 132.43
  C 98.88 125.97 92.33 124.75 87.73 124.55
  Q 82.45 124.31 80.33 124.80
  C 69.46 127.30 80.26 143.80 87.11 143.01
  C 92.02 142.45 95.78 136.94 97.06 132.43
  Z"
/>
<path d="
  M 64.26 138.10
  Q 64.17 144.73 64.77 151.35
  C 65.17 155.84 64.04 159.72 63.45 164.11
  Q 63.38 164.60 62.89 164.57
  L 57.01 164.23
  Q 56.29 164.18 56.25 163.47
  L 55.87 156.99
  A 2.35 2.34 -78.7 0 0 54.56 155.02
  Q 52.83 154.18 51.61 155.51
  Q 51.29 155.86 50.82 155.80
  C 45.42 155.08 36.42 152.37 34.52 146.91
  Q 34.36 146.47 34.65 146.10
  Q 36.70 143.51 39.25 145.56
  Q 39.70 145.92 40.28 146.00
  C 44.81 146.63 56.28 148.09 59.99 145.49
  C 61.70 144.29 63.52 141.86 63.52 139.63
  Q 63.52 138.78 63.95 138.02
  Q 64.26 137.48 64.26 138.10
  Z"
/>
</g>
<g fill="#38383c">
<path d="
  M 49.87 162.28
  C 50.10 168.49 44.87 168.03 40.64 167.16
  C 34.57 165.90 34.36 161.49 34.52 156.30
  Q 34.53 155.79 34.13 155.48
  C 26.13 149.41 24.83 135.16 24.72 126.18
  Q 24.72 125.66 24.22 125.51
  C 18.68 123.82 10.57 119.59 10.96 112.64
  Q 11.14 109.37 13.55 107.56
  C 19.30 103.26 21.93 103.80 27.84 103.73
  Q 28.37 103.73 28.78 103.39
  Q 35.40 97.81 43.95 96.19
  Q 44.50 96.08 44.50 95.52
  C 44.50 91.98 44.24 88.12 44.99 84.90
  C 47.96 72.16 61.22 66.36 73.11 71.52
  Q 73.61 71.74 73.95 71.31
  C 76.80 67.70 80.41 65.57 84.58 63.17
  C 92.76 58.46 102.03 58.03 111.22 59.55
  Q 132.03 62.96 132.45 84.03
  Q 132.46 84.56 132.94 84.78
  C 141.28 88.67 144.32 97.09 145.07 105.77
  Q 145.11 106.28 145.48 106.63
  Q 152.75 113.34 155.83 122.69
  C 157.55 127.91 166.54 132.85 166.25 138.17
  C 165.90 144.71 161.12 146.02 155.59 146.31
  Q 155.12 146.33 155.12 146.80
  Q 155.08 157.99 144.19 160.01
  Q 143.72 160.10 143.85 160.56
  C 146.01 168.29 134.07 170.02 130.96 164.95
  Q 130.71 164.54 130.44 164.93
  C 123.93 174.33 114.88 175.16 104.34 175.76
  C 93.18 176.38 76.08 178.12 67.78 169.02
  Q 67.33 168.52 66.86 169.01
  Q 66.77 169.12 66.66 169.22
  Q 66.37 169.51 65.96 169.58
  C 59.98 170.60 50.39 170.84 51.00 162.61
  C 51.04 162.16 50.87 161.76 50.42 161.74
  Q 49.85 161.72 49.87 162.28
  Z
  M 72.33 77.33
  Q 69.27 75.50 67.51 75.30
  C 54.01 73.80 48.86 82.77 50.17 95.00
  Q 50.22 95.51 50.74 95.45
  Q 70.71 93.24 90.78 94.79
  Q 91.27 94.83 91.60 94.46
  C 97.65 87.58 107.83 86.88 112.07 96.13
  Q 112.31 96.64 112.87 96.62
  Q 126.26 96.15 138.31 101.88
  Q 138.82 102.12 138.70 101.57
  Q 137.68 96.61 134.65 92.65
  C 132.30 89.57 126.37 89.80 126.66 85.00
  Q 127.61 69.52 113.08 65.72
  Q 94.79 60.93 80.48 72.42
  C 78.45 74.05 76.15 79.61 72.33 77.33
  Z
  M 113.30 113.62
  L 117.08 112.83
  Q 117.52 112.74 117.81 112.40
  C 122.24 107.31 114.57 102.97 109.90 106.95
  Q 109.51 107.29 108.99 107.23
  Q 105.84 106.89 105.68 103.75
  Q 105.66 103.22 105.93 102.77
  C 111.05 94.39 97.33 90.94 94.94 100.53
  Q 94.61 101.82 94.25 103.15
  A 0.81 0.81 0.0 0 0 94.95 104.16
  C 107.45 105.44 109.68 120.13 110.49 130.05
  A 0.69 0.69 0.0 0 0 111.08 130.68
  C 116.27 131.46 122.02 128.61 120.91 122.54
  C 119.91 117.08 109.21 120.80 112.43 114.29
  Q 112.70 113.74 113.30 113.62
  Z
  M 43.81 114.94
  Q 36.80 113.61 34.21 107.03
  A 0.69 0.69 0.0 0 0 33.11 106.77
  C 29.41 110.10 30.03 123.47 30.36 128.19
  Q 30.40 128.66 30.84 128.80
  L 33.57 129.68
  Q 34.10 129.86 34.12 129.30
  C 34.21 126.70 34.23 121.04 37.94 120.85
  Q 45.64 120.45 59.51 120.60
  C 65.98 120.66 62.86 124.95 64.66 128.06
  Q 64.97 128.60 65.06 127.98
  Q 66.83 116.65 75.40 109.08
  Q 75.95 108.59 75.22 108.53
  C 72.11 108.28 67.95 111.48 66.27 107.82
  A 2.16 2.16 0.0 0 1 67.31 104.97
  Q 74.55 101.54 81.91 104.68
  Q 82.31 104.85 82.74 104.78
  L 88.06 103.84
  Q 88.64 103.74 88.71 103.16
  L 89.04 100.81
  Q 89.10 100.36 88.64 100.32
  Q 73.52 99.15 58.40 100.25
  Q 57.80 100.29 57.61 100.86
  C 55.53 107.06 52.86 116.65 43.81 114.94
  Z
  M 151.43 140.03
  A 0.28 0.27 -70.8 0 0 151.85 139.82
  Q 152.22 135.01 151.93 129.92
  C 151.68 125.38 148.05 117.66 145.17 114.38
  Q 136.20 104.15 122.08 102.73
  Q 121.68 102.69 121.95 102.98
  Q 126.91 108.42 123.06 114.78
  Q 122.79 115.23 123.15 115.62
  C 130.85 123.72 125.45 135.15 114.90 136.25
  Q 114.25 136.31 114.25 136.96
  L 114.25 138.47
  Q 114.25 139.07 114.85 139.11
  C 119.65 139.41 122.91 136.14 125.92 132.93
  Q 126.27 132.55 126.78 132.50
  Q 129.99 132.19 130.05 135.57
  Q 130.06 136.20 129.61 136.65
  L 124.71 141.61
  Q 124.44 141.88 124.65 142.21
  Q 127.24 146.21 125.83 150.92
  A 0.61 0.60 17.8 0 0 126.22 151.67
  C 126.82 151.87 127.15 151.82 127.08 151.12
  C 126.65 146.84 127.53 142.77 131.02 139.90
  Q 140.14 132.40 151.43 140.03
  Z
  M 124.86 157.09
  A 1.67 1.66 -45.5 0 0 122.85 157.11
  C 120.41 159.01 115.18 160.18 116.20 154.97
  Q 116.30 154.46 116.71 154.13
  C 124.66 147.78 118.89 140.05 111.44 148.31
  C 109.51 150.45 105.32 150.68 105.30 147.43
  C 105.21 134.31 105.29 125.58 101.36 115.02
  Q 99.58 110.22 94.30 109.61
  C 78.50 107.78 70.02 120.44 69.75 134.51
  Q 69.62 141.35 71.02 161.94
  C 71.75 172.76 96.06 170.46 103.09 170.01
  C 110.28 169.55 122.49 169.44 125.87 161.12
  Q 126.90 158.60 124.86 157.09
  Z
  M 40.23 139.58
  C 43.25 141.92 54.35 141.13 56.32 141.17
  Q 56.86 141.19 57.15 140.73
  C 59.10 137.67 59.34 131.06 58.79 127.63
  Q 58.57 126.25 57.17 126.25
  L 40.06 126.25
  Q 39.37 126.25 39.39 126.94
  L 39.80 138.74
  Q 39.81 139.26 40.23 139.58
  Z
  M 157.09 139.57
  Q 156.84 139.93 156.93 140.12
  A 1.05 0.88 75.1 0 0 157.85 140.77
  C 164.37 140.37 159.27 135.05 157.65 133.32
  A 0.30 0.30 0.0 0 0 157.13 133.53
  L 157.30 138.86
  Q 157.31 139.25 157.09 139.57
  Z
  M 63.95 138.02
  Q 63.52 138.78 63.52 139.63
  C 63.52 141.86 61.70 144.29 59.99 145.49
  C 56.28 148.09 44.81 146.63 40.28 146.00
  Q 39.70 145.92 39.25 145.56
  Q 36.70 143.51 34.65 146.10
  Q 34.36 146.47 34.52 146.91
  C 36.42 152.37 45.42 155.08 50.82 155.80
  Q 51.29 155.86 51.61 155.51
  Q 52.83 154.18 54.56 155.02
  A 2.35 2.34 -78.7 0 1 55.87 156.99
  L 56.25 163.47
  Q 56.29 164.18 57.01 164.23
  L 62.89 164.57
  Q 63.38 164.60 63.45 164.11
  C 64.04 159.72 65.17 155.84 64.77 151.35
  Q 64.17 144.73 64.26 138.10
  Q 64.26 137.48 63.95 138.02
  Z
  M 149.4292 148.3620
  A 8.45 6.45 -0.8 0 0 140.8899 142.0306
  A 8.45 6.45 -0.8 0 0 132.5308 148.5980
  A 8.45 6.45 -0.8 0 0 141.0701 154.9294
  A 8.45 6.45 -0.8 0 0 149.4292 148.3620
  Z"
/>
<path d="
  M 87.73 124.55
  C 92.33 124.75 98.88 125.97 97.06 132.43
  C 95.78 136.94 92.02 142.45 87.11 143.01
  C 80.26 143.80 69.46 127.30 80.33 124.80
  Q 82.45 124.31 87.73 124.55
  Z
  M 91.15 130.59
  L 81.62 129.89
  A 0.61 0.60 80.3 0 0 81.02 130.74
  Q 82.66 134.44 85.57 137.20
  Q 85.99 137.60 86.55 137.48
  C 89.20 136.90 90.77 133.58 91.63 131.35
  Q 91.91 130.64 91.15 130.59
  Z"
/>
<ellipse cx="0.00" cy="0.00" transform="translate(44.03,133.30) rotate(93.2)" rx="3.86" ry="3.14"/>
<ellipse cx="0.00" cy="0.00" transform="translate(51.98,133.25) rotate(114.9)" rx="3.96" ry="3.25"/>
<circle cx="145.34" cy="148.25" r="2.52"/>
<circle cx="137.96" cy="148.38" r="2.39"/>
</g>
<g fill="#ebbc9e">
<path d="
  M 151.43 140.03
  Q 140.14 132.40 131.02 139.90
  C 127.53 142.77 126.65 146.84 127.08 151.12
  C 127.15 151.82 126.82 151.87 126.22 151.67
  A 0.61 0.60 17.8 0 1 125.83 150.92
  Q 127.24 146.21 124.65 142.21
  Q 124.44 141.88 124.71 141.61
  L 129.61 136.65
  Q 130.06 136.20 130.05 135.57
  Q 129.99 132.19 126.78 132.50
  Q 126.27 132.55 125.92 132.93
  C 122.91 136.14 119.65 139.41 114.85 139.11
  Q 114.25 139.07 114.25 138.47
  L 114.25 136.96
  Q 114.25 136.31 114.90 136.25
  C 125.45 135.15 130.85 123.72 123.15 115.62
  Q 122.79 115.23 123.06 114.78
  Q 126.91 108.42 121.95 102.98
  Q 121.68 102.69 122.08 102.73
  Q 136.20 104.15 145.17 114.38
  C 148.05 117.66 151.68 125.38 151.93 129.92
  Q 152.22 135.01 151.85 139.82
  A 0.28 0.27 -70.8 0 1 151.43 140.03
  Z"
/>
<path d="
  M 56.32 141.17
  C 54.35 141.13 43.25 141.92 40.23 139.58
  Q 39.81 139.26 39.80 138.74
  L 39.39 126.94
  Q 39.37 126.25 40.06 126.25
  L 57.17 126.25
  Q 58.57 126.25 58.79 127.63
  C 59.34 131.06 59.10 137.67 57.15 140.73
  Q 56.86 141.19 56.32 141.17
  Z
  M 43.8145 137.1540
  A 3.86 3.14 93.2 0 0 47.1651 133.4753
  A 3.86 3.14 93.2 0 0 44.2455 129.4460
  A 3.86 3.14 93.2 0 0 40.8949 133.1247
  A 3.86 3.14 93.2 0 0 43.8145 137.1540
  Z
  M 50.3127 136.8419
  A 3.96 3.25 114.9 0 0 54.9279 134.6184
  A 3.96 3.25 114.9 0 0 53.6473 129.6581
  A 3.96 3.25 114.9 0 0 49.0321 131.8816
  A 3.96 3.25 114.9 0 0 50.3127 136.8419
  Z"
/>
<path d="
  M 157.30 138.86
  L 157.13 133.53
  A 0.30 0.30 0.0 0 1 157.65 133.32
  C 159.27 135.05 164.37 140.37 157.85 140.77
  A 1.05 0.88 75.1 0 1 156.93 140.12
  Q 156.84 139.93 157.09 139.57
  Q 157.31 139.25 157.30 138.86
  Z"
/>
<path d="
  M 149.4292 148.3620
  A 8.45 6.45 -0.8 0 1 141.0701 154.9294
  A 8.45 6.45 -0.8 0 1 132.5308 148.5980
  A 8.45 6.45 -0.8 0 1 140.8899 142.0306
  A 8.45 6.45 -0.8 0 1 149.4292 148.3620
  Z
  M 147.86 148.25
  A 2.52 2.52 0.0 0 0 145.34 145.73
  A 2.52 2.52 0.0 0 0 142.82 148.25
  A 2.52 2.52 0.0 0 0 145.34 150.77
  A 2.52 2.52 0.0 0 0 147.86 148.25
  Z
  M 140.35 148.38
  A 2.39 2.39 0.0 0 0 137.96 145.99
  A 2.39 2.39 0.0 0 0 135.57 148.38
  A 2.39 2.39 0.0 0 0 137.96 150.77
  A 2.39 2.39 0.0 0 0 140.35 148.38
  Z"
/>
</g>
<path fill="#ff4b55" d="
  M 112.43 114.29
  C 109.21 120.80 119.91 117.08 120.91 122.54
  C 122.02 128.61 116.27 131.46 111.08 130.68
  A 0.69 0.69 0.0 0 1 110.49 130.05
  C 109.68 120.13 107.45 105.44 94.95 104.16
  A 0.81 0.81 0.0 0 1 94.25 103.15
  Q 94.61 101.82 94.94 100.53
  C 97.33 90.94 111.05 94.39 105.93 102.77
  Q 105.66 103.22 105.68 103.75
  Q 105.84 106.89 108.99 107.23
  Q 109.51 107.29 109.90 106.95
  C 114.57 102.97 122.24 107.31 117.81 112.40
  Q 117.52 112.74 117.08 112.83
  L 113.30 113.62
  Q 112.70 113.74 112.43 114.29
  Z"
/>
<path fill="#ffe65d" d="
  M 91.15 130.59
  Q 91.91 130.64 91.63 131.35
  C 90.77 133.58 89.20 136.90 86.55 137.48
  Q 85.99 137.60 85.57 137.20
  Q 82.66 134.44 81.02 130.74
  A 0.61 0.60 80.3 0 1 81.62 129.89
  L 91.15 130.59
  Z"
/>
</svg>
