<?xml version="1.0" encoding="UTF-8" standalone="no"?>
<!DOCTYPE svg PUBLIC "-//W3C//DTD SVG 1.1//EN" "http://www.w3.org/Graphics/SVG/1.1/DTD/svg11.dtd">
<svg xmlns="http://www.w3.org/2000/svg" version="1.1" viewBox="0 0 180 180">
<g stroke-width="2.00" fill="none" stroke-linecap="butt">
<path stroke="#82883e" vector-effect="non-scaling-stroke" d="
  M 84.91 43.94
  C 77.17 39.64 67.02 40.06 61.70 47.95
  C 56.83 55.16 57.38 61.61 57.90 69.96
  Q 57.93 70.41 58.25 70.74
  Q 61.79 74.30 64.37 78.65
  A 0.58 0.58 0.0 0 0 65.45 78.29
  C 63.86 65.06 67.68 51.18 80.98 45.71
  C 81.98 45.30 83.84 45.14 84.92 44.53
  Q 85.44 44.23 84.91 43.94"
/>
<path stroke="#82883e" vector-effect="non-scaling-stroke" d="
  M 121.27 58.14
  C 119.31 44.12 106.83 36.55 93.95 44.07
  A 0.60 0.60 0.0 0 0 94.09 45.17
  C 102.91 47.63 108.83 54.04 110.47 63.21
  Q 110.56 63.71 110.95 64.05
  Q 112.89 65.72 112.17 68.46
  Q 112.01 69.06 112.63 69.14
  C 115.00 69.44 118.19 68.64 120.15 70.27
  A 0.66 0.66 0.0 0 0 121.23 69.76
  C 121.22 65.88 121.74 61.51 121.27 58.14"
/>
<path stroke="#82883e" vector-effect="non-scaling-stroke" d="
  M 98.24 95.43
  C 94.26 94.84 84.16 96.03 88.51 87.97
  C 90.76 83.79 94.58 78.25 99.65 78.04
  Q 100.18 78.02 100.58 78.37
  Q 103.67 81.04 103.83 85.45
  A 1.54 1.54 0.0 0 0 106.16 86.72
  Q 112.67 82.83 115.50 75.72
  A 0.76 0.76 0.0 0 0 114.74 74.69
  C 111.66 74.94 107.33 75.82 104.99 73.12
  Q 104.64 72.72 104.69 72.20
  C 105.67 62.60 103.31 54.18 93.23 51.02
  C 84.10 48.16 75.97 52.47 72.40 61.18
  C 69.96 67.12 70.32 71.76 70.99 79.19
  Q 71.03 79.70 71.40 80.05
  C 74.39 82.97 80.69 90.03 77.47 93.63
  Q 77.14 94.00 77.43 94.41
  C 81.71 100.59 92.97 99.14 98.33 95.82
  A 0.21 0.21 0.0 0 0 98.24 95.43"
/>
<path stroke="#98989a" vector-effect="non-scaling-stroke" d="
  M 26.01 64.99
  C 23.39 63.47 19.51 62.47 16.50 61.84
  Q 15.45 61.62 15.33 62.69
  C 14.42 70.88 13.86 80.26 16.53 88.10
  Q 16.72 88.66 17.31 88.58
  L 21.72 88.00
  Q 22.19 87.93 22.18 87.45
  C 22.09 84.50 21.81 68.43 26.03 65.37
  Q 26.32 65.16 26.01 64.99"
/>
<path stroke="#98989a" vector-effect="non-scaling-stroke" d="
  M 136.76 91.19
  L 142.95 91.28
  Q 143.58 91.29 143.85 90.71
  C 145.07 88.09 146.12 84.76 149.95 86.13
  Q 155.63 88.15 161.72 88.45
  Q 162.20 88.48 162.42 88.04
  C 165.54 81.65 164.45 69.31 163.59 62.39
  A 0.80 0.80 0.0 0 0 162.59 61.72
  Q 154.00 63.99 146.16 68.02
  C 143.18 69.55 140.80 69.36 137.60 69.22
  Q 137.02 69.20 137.00 69.78
  L 136.35 90.76
  A 0.42 0.42 0.0 0 0 136.76 91.19"
/>
<path stroke="#98989a" vector-effect="non-scaling-stroke" d="
  M 44.39 76.47
  C 39.62 73.96 34.69 72.10 29.54 70.78
  A 0.98 0.98 0.0 0 0 28.32 71.63
  C 27.54 78.89 26.55 90.61 29.58 97.05
  Q 29.80 97.51 30.30 97.48
  Q 35.78 97.18 40.94 95.37
  C 46.17 93.53 46.15 96.40 48.24 99.80
  Q 48.51 100.25 49.04 100.25
  L 54.95 100.25
  Q 55.65 100.25 55.63 99.55
  L 55.06 79.12
  A 0.94 0.93 -3.7 0 0 54.03 78.22
  Q 48.74 78.75 44.39 76.47"
/>
<path stroke="#98989a" vector-effect="non-scaling-stroke" d="
  M 123.33 80.72
  A 1.06 1.06 0.0 0 0 124.50 79.67
  L 124.50 75.63
  Q 124.50 74.20 123.63 75.33
  L 120.18 79.83
  Q 119.77 80.35 120.43 80.42
  L 123.33 80.72"
/>
<path stroke="#98989a" vector-effect="non-scaling-stroke" d="
  M 94.20 88.75
  A 0.43 0.43 0.0 0 0 94.50 89.44
  L 98.02 89.82
  A 0.43 0.43 0.0 0 0 98.50 89.39
  L 98.50 84.47
  A 0.43 0.43 0.0 0 0 97.73 84.21
  L 94.20 88.75"
/>
<path stroke="#98989a" vector-effect="non-scaling-stroke" d="
  M 68.31 89.78
  L 71.58 89.43
  Q 72.28 89.36 71.85 88.80
  L 68.35 84.33
  Q 67.50 83.24 67.50 84.63
  L 67.50 89.05
  A 0.73 0.73 0.0 0 0 68.31 89.78"
/>
<path stroke="#82883e" vector-effect="non-scaling-stroke" d="
  M 120.01 88.23
  L 117.90 90.28
  Q 117.60 90.58 117.78 90.96
  L 122.79 101.04
  Q 123.37 102.21 123.24 100.91
  C 123.04 98.89 122.67 90.65 120.63 88.26
  Q 120.34 87.91 120.01 88.23"
/>
<path stroke="#82883e" vector-effect="non-scaling-stroke" d="
  M 65.46 94.77
  Q 63.02 93.56 62.02 91.02
  Q 61.33 89.26 61.25 91.15
  C 61.08 95.48 62.54 100.29 59.25 104.50
  Q 58.97 104.85 58.98 105.29
  L 59.26 120.48
  Q 59.27 121.00 59.79 121.00
  L 62.00 121.00
  Q 62.64 121.00 62.65 120.36
  C 62.71 113.15 62.74 102.18 65.75 95.58
  Q 66.00 95.03 65.46 94.77"
/>
<path stroke="#82883e" vector-effect="non-scaling-stroke" d="
  M 102.46 100.23
  C 107.26 98.88 110.33 99.33 115.08 99.38
  Q 115.52 99.38 115.36 98.97
  Q 113.66 94.65 110.47 91.28
  Q 110.10 90.89 109.60 91.11
  Q 108.05 91.78 107.47 93.20
  Q 105.71 97.44 102.35 100.01
  Q 101.84 100.40 102.46 100.23"
/>
<path stroke="#82883e" vector-effect="non-scaling-stroke" d="
  M 95.47 103.58
  C 86.37 105.76 78.17 104.36 71.91 97.08
  Q 71.56 96.67 71.30 97.14
  Q 70.18 99.14 69.99 100.50
  Q 67.91 115.08 68.23 129.79
  A 0.32 0.32 0.0 0 0 68.55 130.10
  L 82.26 129.91
  Q 82.93 129.90 82.94 129.24
  Q 83.38 113.47 95.62 103.90
  Q 96.28 103.39 95.47 103.58"
/>
<path stroke="#533d3e" vector-effect="non-scaling-stroke" d="
  M 138.62 97.72
  L 138.74 136.75
  A 0.65 0.64 74.0 0 0 139.72 137.30
  C 140.34 136.91 140.70 136.47 140.70 135.68
  Q 140.80 118.71 141.35 101.75
  Q 141.39 100.43 140.90 97.52
  Q 140.80 96.97 140.25 96.99
  L 139.28 97.02
  Q 138.61 97.05 138.62 97.72"
/>
<path stroke="#533d3e" vector-effect="non-scaling-stroke" d="
  M 37.71 102.89
  L 38.53 136.84
  A 0.61 0.61 0.0 0 0 39.53 137.30
  C 41.16 135.97 40.53 106.26 40.48 102.19
  Q 40.47 101.49 39.79 101.66
  L 38.36 102.03
  Q 37.69 102.20 37.71 102.89"
/>
<path stroke="#533d3e" vector-effect="non-scaling-stroke" d="
  M 130.34 131.67
  C 127.84 135.77 122.62 132.71 125.67 129.03
  Q 127.84 126.42 130.13 123.91
  Q 130.44 123.57 130.33 123.12
  L 128.69 116.39
  A 0.41 0.41 0.0 0 0 128.01 116.19
  L 114.24 128.86
  Q 113.84 129.23 113.30 129.26
  Q 110.20 129.44 109.75 126.62
  Q 109.67 126.12 109.97 125.72
  C 113.96 120.37 120.16 116.03 124.80 110.97
  A 0.42 0.41 40.5 0 0 124.75 110.36
  L 120.41 106.95
  Q 119.93 106.57 119.49 106.99
  Q 115.49 110.83 111.00 114.09
  C 108.21 116.11 105.23 113.01 107.56 110.56
  Q 110.26 107.73 113.47 105.48
  A 0.39 0.38 -61.2 0 0 113.27 104.78
  C 100.12 104.26 90.85 113.07 88.97 125.91
  Q 88.86 126.68 89.61 126.49
  L 90.49 126.26
  Q 90.99 126.13 91.42 126.42
  C 95.44 129.11 91.36 131.63 89.36 133.18
  Q 88.91 133.52 89.14 134.04
  L 91.91 140.43
  Q 92.22 141.14 92.78 140.61
  C 94.38 139.09 105.12 126.17 106.56 133.01
  C 107.25 136.27 99.02 142.28 96.67 144.69
  Q 96.27 145.10 96.79 145.35
  L 102.12 148.01
  A 1.14 1.13 37.1 0 0 103.38 147.84
  Q 110.34 141.75 117.06 136.35
  C 120.91 133.25 124.37 137.43 120.12 140.85
  Q 115.39 144.65 110.75 148.69
  Q 110.10 149.26 110.96 149.29
  Q 129.49 150.04 131.21 131.95
  A 0.47 0.47 0.0 0 0 130.34 131.67"
/>
<path stroke="#533d3e" vector-effect="non-scaling-stroke" d="
  M 53.22 145.39
  L 53.44 106.70
  A 0.68 0.68 0.0 0 0 52.93 106.04
  C 51.07 105.61 50.63 106.41 50.67 108.12
  Q 51.13 126.81 51.34 145.62
  A 0.67 0.66 -7.4 0 0 52.18 146.26
  L 52.63 146.14
  Q 53.22 145.99 53.22 145.39"
/>
<path stroke="#82883e" vector-effect="non-scaling-stroke" d="
  M 62.3018 128.1105
  A 0.27 0.27 0.0 0 0 62.0337 127.8387
  L 59.5738 127.8215
  A 0.27 0.27 0.0 0 0 59.3019 128.0896
  L 59.2582 134.3495
  A 0.27 0.27 0.0 0 0 59.5263 134.6213
  L 61.9862 134.6385
  A 0.27 0.27 0.0 0 0 62.2581 134.3704
  L 62.3018 128.1105"
/>
<path stroke="#533d3e" vector-effect="non-scaling-stroke" d="
  M 83.89 136.15
  A 0.59 0.59 0.0 0 0 83.31 135.71
  L 68.84 135.84
  A 0.59 0.59 0.0 0 0 68.25 136.43
  L 68.25 138.95
  A 0.59 0.59 0.0 0 0 68.85 139.54
  L 83.99 139.39
  A 0.59 0.59 0.0 0 0 84.55 138.65
  L 83.89 136.15"
/>
<path stroke="#533d3e" vector-effect="non-scaling-stroke" d="
  M 59.85 140.53
  A 0.60 0.60 0.0 0 0 59.19 141.18
  C 59.50 144.79 59.96 150.31 55.37 151.53
  Q 54.74 151.69 54.87 152.34
  L 55.65 156.09
  Q 55.76 156.65 56.33 156.71
  L 61.21 157.22
  A 0.88 0.88 0.0 0 0 62.18 156.35
  L 62.32 141.43
  Q 62.33 140.77 61.68 140.71
  L 59.85 140.53"
/>
<path stroke="#533d3e" vector-effect="non-scaling-stroke" d="
  M 90.55 147.65
  Q 89.57 146.61 88.45 145.56
  Q 88.12 145.26 87.68 145.26
  L 68.96 145.53
  Q 68.52 145.54 68.46 145.97
  Q 67.13 155.03 68.32 164.13
  A 2.22 2.21 85.5 0 0 70.57 166.06
  L 84.49 165.73
  A 1.00 1.00 0.0 0 0 85.47 164.77
  C 85.74 158.38 83.64 151.89 91.29 149.04
  A 0.44 0.44 0.0 0 0 91.48 148.36
  Q 91.34 148.19 91.18 148.08
  Q 90.60 147.70 90.55 147.65"
/>
<path stroke="#533d3e" vector-effect="non-scaling-stroke" d="
  M 122.04 153.88
  C 116.21 155.56 112.03 154.70 106.35 154.68
  Q 105.76 154.67 105.93 155.24
  Q 107.20 159.53 106.80 164.10
  A 1.41 1.41 0.0 0 0 108.20 165.63
  L 121.44 165.72
  Q 122.16 165.73 122.19 165.00
  L 122.56 154.29
  Q 122.58 153.72 122.04 153.88"
/>
<path stroke="#533d3e" vector-effect="non-scaling-stroke" d="
  M 99.51 155.59
  Q 97.43 153.88 94.71 153.99
  Q 94.19 154.01 94.04 154.51
  C 93.34 156.83 97.85 156.61 99.08 156.69
  A 0.62 0.62 0.0 0 0 99.51 155.59"
/>
<path stroke="#82883e" vector-effect="non-scaling-stroke" d="
  M 85.0353 75.4079
  A 2.57 2.57 0.0 0 0 82.4341 72.8695
  L 82.2341 72.8719
  A 2.57 2.57 0.0 0 0 79.6957 75.4731
  L 79.8647 89.3121
  A 2.57 2.57 0.0 0 0 82.4659 91.8505
  L 82.6659 91.8481
  A 2.57 2.57 0.0 0 0 85.2043 89.2469
  L 85.0353 75.4079"
/>
<path stroke="#533d3e" vector-effect="non-scaling-stroke" d="
  M 103.3795 117.2899
  A 2.48 2.48 0.0 0 0 99.8884 116.9537
  L 95.2895 120.7447
  A 2.48 2.48 0.0 0 0 94.9533 124.2358
  L 95.0805 124.3901
  A 2.48 2.48 0.0 0 0 98.5716 124.7263
  L 103.1705 120.9353
  A 2.48 2.48 0.0 0 0 103.5067 117.4442
  L 103.3795 117.2899"
/>
</g>
<g fill="#38383c">
<path d="
  M 45.33 140.17
  C 41.75 145.55 33.07 143.18 32.81 136.17
  Q 32.19 119.92 32.22 103.63
  Q 32.22 103.29 31.88 103.23
  L 25.95 102.31
  Q 25.31 102.22 25.10 101.60
  L 22.65 94.14
  Q 22.51 93.71 22.06 93.72
  L 13.97 93.77
  A 1.96 1.96 0.0 0 1 12.14 92.51
  C 8.21 82.11 8.51 71.02 10.63 60.26
  C 11.32 56.73 13.31 55.54 16.76 56.29
  Q 23.68 57.79 30.26 60.46
  C 34.34 62.12 36.12 64.46 41.47 63.67
  C 49.06 62.55 45.71 71.91 49.30 72.51
  Q 49.79 72.59 50.07 72.18
  L 51.88 69.61
  Q 52.18 69.18 52.20 68.66
  C 52.42 61.77 52.11 55.12 55.20 48.72
  C 61.73 35.22 76.75 31.88 89.09 39.88
  Q 89.55 40.18 90.00 39.88
  C 99.38 33.55 111.26 34.40 118.72 41.70
  C 125.61 48.43 127.56 58.73 126.61 68.24
  Q 126.56 68.74 126.88 69.13
  C 129.65 72.65 132.30 83.24 126.45 85.90
  Q 125.99 86.11 126.20 86.57
  C 128.31 91.31 128.51 96.90 129.26 104.55
  C 129.53 107.34 130.79 108.92 132.43 110.95
  Q 132.83 111.45 132.84 110.80
  L 133.00 96.43
  Q 133.01 96.01 132.77 95.66
  Q 130.52 92.45 130.58 90.18
  Q 131.05 74.12 131.73 68.01
  Q 132.03 65.37 134.86 63.85
  Q 135.30 63.62 135.79 63.67
  C 139.70 64.10 142.07 63.92 145.76 62.00
  C 149.51 60.05 163.25 54.06 166.78 57.04
  Q 167.85 57.95 168.37 60.40
  C 170.35 69.84 171.17 83.75 166.80 92.25
  Q 166.15 93.52 164.73 93.65
  Q 157.23 94.29 150.06 92.03
  Q 149.64 91.90 149.39 92.25
  L 146.59 96.17
  Q 146.32 96.56 146.36 97.03
  C 147.30 106.63 146.69 117.12 146.53 132.18
  C 146.45 139.38 144.45 145.21 135.79 142.23
  Q 135.35 142.08 135.08 142.45
  L 130.51 148.64
  Q 130.22 149.04 130.12 149.51
  Q 128.50 157.44 127.99 165.49
  Q 127.66 170.69 122.51 171.28
  Q 112.18 172.47 106.73 171.00
  Q 101.64 169.63 101.18 163.59
  Q 101.10 162.43 99.94 162.49
  Q 95.92 162.68 92.08 161.46
  Q 90.88 161.08 91.08 162.31
  Q 92.46 171.01 83.95 171.50
  C 77.78 171.85 67.41 173.56 63.48 167.50
  Q 63.19 167.05 63.23 166.52
  Q 63.39 164.62 62.39 163.05
  Q 62.03 162.49 61.38 162.60
  Q 55.23 163.65 51.05 159.43
  Q 50.66 159.03 50.54 158.48
  L 49.28 152.25
  Q 49.17 151.76 48.82 151.40
  Q 44.30 146.92 45.69 140.32
  Q 45.90 139.30 45.33 140.17
  Z
  M 84.91 43.94
  C 77.17 39.64 67.02 40.06 61.70 47.95
  C 56.83 55.16 57.38 61.61 57.90 69.96
  Q 57.93 70.41 58.25 70.74
  Q 61.79 74.30 64.37 78.65
  A 0.58 0.58 0.0 0 0 65.45 78.29
  C 63.86 65.06 67.68 51.18 80.98 45.71
  C 81.98 45.30 83.84 45.14 84.92 44.53
  Q 85.44 44.23 84.91 43.94
  Z
  M 121.27 58.14
  C 119.31 44.12 106.83 36.55 93.95 44.07
  A 0.60 0.60 0.0 0 0 94.09 45.17
  C 102.91 47.63 108.83 54.04 110.47 63.21
  Q 110.56 63.71 110.95 64.05
  Q 112.89 65.72 112.17 68.46
  Q 112.01 69.06 112.63 69.14
  C 115.00 69.44 118.19 68.64 120.15 70.27
  A 0.66 0.66 0.0 0 0 121.23 69.76
  C 121.22 65.88 121.74 61.51 121.27 58.14
  Z
  M 98.24 95.43
  C 94.26 94.84 84.16 96.03 88.51 87.97
  C 90.76 83.79 94.58 78.25 99.65 78.04
  Q 100.18 78.02 100.58 78.37
  Q 103.67 81.04 103.83 85.45
  A 1.54 1.54 0.0 0 0 106.16 86.72
  Q 112.67 82.83 115.50 75.72
  A 0.76 0.76 0.0 0 0 114.74 74.69
  C 111.66 74.94 107.33 75.82 104.99 73.12
  Q 104.64 72.72 104.69 72.20
  C 105.67 62.60 103.31 54.18 93.23 51.02
  C 84.10 48.16 75.97 52.47 72.40 61.18
  C 69.96 67.12 70.32 71.76 70.99 79.19
  Q 71.03 79.70 71.40 80.05
  C 74.39 82.97 80.69 90.03 77.47 93.63
  Q 77.14 94.00 77.43 94.41
  C 81.71 100.59 92.97 99.14 98.33 95.82
  A 0.21 0.21 0.0 0 0 98.24 95.43
  Z
  M 26.01 64.99
  C 23.39 63.47 19.51 62.47 16.50 61.84
  Q 15.45 61.62 15.33 62.69
  C 14.42 70.88 13.86 80.26 16.53 88.10
  Q 16.72 88.66 17.31 88.58
  L 21.72 88.00
  Q 22.19 87.93 22.18 87.45
  C 22.09 84.50 21.81 68.43 26.03 65.37
  Q 26.32 65.16 26.01 64.99
  Z
  M 136.76 91.19
  L 142.95 91.28
  Q 143.58 91.29 143.85 90.71
  C 145.07 88.09 146.12 84.76 149.95 86.13
  Q 155.63 88.15 161.72 88.45
  Q 162.20 88.48 162.42 88.04
  C 165.54 81.65 164.45 69.31 163.59 62.39
  A 0.80 0.80 0.0 0 0 162.59 61.72
  Q 154.00 63.99 146.16 68.02
  C 143.18 69.55 140.80 69.36 137.60 69.22
  Q 137.02 69.20 137.00 69.78
  L 136.35 90.76
  A 0.42 0.42 0.0 0 0 136.76 91.19
  Z
  M 44.39 76.47
  C 39.62 73.96 34.69 72.10 29.54 70.78
  A 0.98 0.98 0.0 0 0 28.32 71.63
  C 27.54 78.89 26.55 90.61 29.58 97.05
  Q 29.80 97.51 30.30 97.48
  Q 35.78 97.18 40.94 95.37
  C 46.17 93.53 46.15 96.40 48.24 99.80
  Q 48.51 100.25 49.04 100.25
  L 54.95 100.25
  Q 55.65 100.25 55.63 99.55
  L 55.06 79.12
  A 0.94 0.93 -3.7 0 0 54.03 78.22
  Q 48.74 78.75 44.39 76.47
  Z
  M 123.33 80.72
  A 1.06 1.06 0.0 0 0 124.50 79.67
  L 124.50 75.63
  Q 124.50 74.20 123.63 75.33
  L 120.18 79.83
  Q 119.77 80.35 120.43 80.42
  L 123.33 80.72
  Z
  M 94.20 88.75
  A 0.43 0.43 0.0 0 0 94.50 89.44
  L 98.02 89.82
  A 0.43 0.43 0.0 0 0 98.50 89.39
  L 98.50 84.47
  A 0.43 0.43 0.0 0 0 97.73 84.21
  L 94.20 88.75
  Z
  M 68.31 89.78
  L 71.58 89.43
  Q 72.28 89.36 71.85 88.80
  L 68.35 84.33
  Q 67.50 83.24 67.50 84.63
  L 67.50 89.05
  A 0.73 0.73 0.0 0 0 68.31 89.78
  Z
  M 120.01 88.23
  L 117.90 90.28
  Q 117.60 90.58 117.78 90.96
  L 122.79 101.04
  Q 123.37 102.21 123.24 100.91
  C 123.04 98.89 122.67 90.65 120.63 88.26
  Q 120.34 87.91 120.01 88.23
  Z
  M 65.46 94.77
  Q 63.02 93.56 62.02 91.02
  Q 61.33 89.26 61.25 91.15
  C 61.08 95.48 62.54 100.29 59.25 104.50
  Q 58.97 104.85 58.98 105.29
  L 59.26 120.48
  Q 59.27 121.00 59.79 121.00
  L 62.00 121.00
  Q 62.64 121.00 62.65 120.36
  C 62.71 113.15 62.74 102.18 65.75 95.58
  Q 66.00 95.03 65.46 94.77
  Z
  M 102.46 100.23
  C 107.26 98.88 110.33 99.33 115.08 99.38
  Q 115.52 99.38 115.36 98.97
  Q 113.66 94.65 110.47 91.28
  Q 110.10 90.89 109.60 91.11
  Q 108.05 91.78 107.47 93.20
  Q 105.71 97.44 102.35 100.01
  Q 101.84 100.40 102.46 100.23
  Z
  M 95.47 103.58
  C 86.37 105.76 78.17 104.36 71.91 97.08
  Q 71.56 96.67 71.30 97.14
  Q 70.18 99.14 69.99 100.50
  Q 67.91 115.08 68.23 129.79
  A 0.32 0.32 0.0 0 0 68.55 130.10
  L 82.26 129.91
  Q 82.93 129.90 82.94 129.24
  Q 83.38 113.47 95.62 103.90
  Q 96.28 103.39 95.47 103.58
  Z
  M 138.62 97.72
  L 138.74 136.75
  A 0.65 0.64 74.0 0 0 139.72 137.30
  C 140.34 136.91 140.70 136.47 140.70 135.68
  Q 140.80 118.71 141.35 101.75
  Q 141.39 100.43 140.90 97.52
  Q 140.80 96.97 140.25 96.99
  L 139.28 97.02
  Q 138.61 97.05 138.62 97.72
  Z
  M 37.71 102.89
  L 38.53 136.84
  A 0.61 0.61 0.0 0 0 39.53 137.30
  C 41.16 135.97 40.53 106.26 40.48 102.19
  Q 40.47 101.49 39.79 101.66
  L 38.36 102.03
  Q 37.69 102.20 37.71 102.89
  Z
  M 130.34 131.67
  C 127.84 135.77 122.62 132.71 125.67 129.03
  Q 127.84 126.42 130.13 123.91
  Q 130.44 123.57 130.33 123.12
  L 128.69 116.39
  A 0.41 0.41 0.0 0 0 128.01 116.19
  L 114.24 128.86
  Q 113.84 129.23 113.30 129.26
  Q 110.20 129.44 109.75 126.62
  Q 109.67 126.12 109.97 125.72
  C 113.96 120.37 120.16 116.03 124.80 110.97
  A 0.42 0.41 40.5 0 0 124.75 110.36
  L 120.41 106.95
  Q 119.93 106.57 119.49 106.99
  Q 115.49 110.83 111.00 114.09
  C 108.21 116.11 105.23 113.01 107.56 110.56
  Q 110.26 107.73 113.47 105.48
  A 0.39 0.38 -61.2 0 0 113.27 104.78
  C 100.12 104.26 90.85 113.07 88.97 125.91
  Q 88.86 126.68 89.61 126.49
  L 90.49 126.26
  Q 90.99 126.13 91.42 126.42
  C 95.44 129.11 91.36 131.63 89.36 133.18
  Q 88.91 133.52 89.14 134.04
  L 91.91 140.43
  Q 92.22 141.14 92.78 140.61
  C 94.38 139.09 105.12 126.17 106.56 133.01
  C 107.25 136.27 99.02 142.28 96.67 144.69
  Q 96.27 145.10 96.79 145.35
  L 102.12 148.01
  A 1.14 1.13 37.1 0 0 103.38 147.84
  Q 110.34 141.75 117.06 136.35
  C 120.91 133.25 124.37 137.43 120.12 140.85
  Q 115.39 144.65 110.75 148.69
  Q 110.10 149.26 110.96 149.29
  Q 129.49 150.04 131.21 131.95
  A 0.47 0.47 0.0 0 0 130.34 131.67
  Z
  M 53.22 145.39
  L 53.44 106.70
  A 0.68 0.68 0.0 0 0 52.93 106.04
  C 51.07 105.61 50.63 106.41 50.67 108.12
  Q 51.13 126.81 51.34 145.62
  A 0.67 0.66 -7.4 0 0 52.18 146.26
  L 52.63 146.14
  Q 53.22 145.99 53.22 145.39
  Z
  M 62.3018 128.1105
  A 0.27 0.27 0.0 0 0 62.0337 127.8387
  L 59.5738 127.8215
  A 0.27 0.27 0.0 0 0 59.3019 128.0896
  L 59.2582 134.3495
  A 0.27 0.27 0.0 0 0 59.5263 134.6213
  L 61.9862 134.6385
  A 0.27 0.27 0.0 0 0 62.2581 134.3704
  L 62.3018 128.1105
  Z
  M 83.89 136.15
  A 0.59 0.59 0.0 0 0 83.31 135.71
  L 68.84 135.84
  A 0.59 0.59 0.0 0 0 68.25 136.43
  L 68.25 138.95
  A 0.59 0.59 0.0 0 0 68.85 139.54
  L 83.99 139.39
  A 0.59 0.59 0.0 0 0 84.55 138.65
  L 83.89 136.15
  Z
  M 59.85 140.53
  A 0.60 0.60 0.0 0 0 59.19 141.18
  C 59.50 144.79 59.96 150.31 55.37 151.53
  Q 54.74 151.69 54.87 152.34
  L 55.65 156.09
  Q 55.76 156.65 56.33 156.71
  L 61.21 157.22
  A 0.88 0.88 0.0 0 0 62.18 156.35
  L 62.32 141.43
  Q 62.33 140.77 61.68 140.71
  L 59.85 140.53
  Z
  M 90.55 147.65
  Q 89.57 146.61 88.45 145.56
  Q 88.12 145.26 87.68 145.26
  L 68.96 145.53
  Q 68.52 145.54 68.46 145.97
  Q 67.13 155.03 68.32 164.13
  A 2.22 2.21 85.5 0 0 70.57 166.06
  L 84.49 165.73
  A 1.00 1.00 0.0 0 0 85.47 164.77
  C 85.74 158.38 83.64 151.89 91.29 149.04
  A 0.44 0.44 0.0 0 0 91.48 148.36
  Q 91.34 148.19 91.18 148.08
  Q 90.60 147.70 90.55 147.65
  Z
  M 122.04 153.88
  C 116.21 155.56 112.03 154.70 106.35 154.68
  Q 105.76 154.67 105.93 155.24
  Q 107.20 159.53 106.80 164.10
  A 1.41 1.41 0.0 0 0 108.20 165.63
  L 121.44 165.72
  Q 122.16 165.73 122.19 165.00
  L 122.56 154.29
  Q 122.58 153.72 122.04 153.88
  Z
  M 99.51 155.59
  Q 97.43 153.88 94.71 153.99
  Q 94.19 154.01 94.04 154.51
  C 93.34 156.83 97.85 156.61 99.08 156.69
  A 0.62 0.62 0.0 0 0 99.51 155.59
  Z"
/>
<rect x="-2.67" y="-9.49" transform="translate(82.45,82.36) rotate(-0.7)" width="5.34" height="18.98" rx="2.57"/>
<rect x="-5.46" y="-2.58" transform="translate(99.23,120.84) rotate(-39.5)" width="10.92" height="5.16" rx="2.48"/>
</g>
<g fill="#ccd73f">
<path d="
  M 84.92 44.53
  C 83.84 45.14 81.98 45.30 80.98 45.71
  C 67.68 51.18 63.86 65.06 65.45 78.29
  A 0.58 0.58 0.0 0 1 64.37 78.65
  Q 61.79 74.30 58.25 70.74
  Q 57.93 70.41 57.90 69.96
  C 57.38 61.61 56.83 55.16 61.70 47.95
  C 67.02 40.06 77.17 39.64 84.91 43.94
  Q 85.44 44.23 84.92 44.53
  Z"
/>
<path d="
  M 93.95 44.07
  C 106.83 36.55 119.31 44.12 121.27 58.14
  C 121.74 61.51 121.22 65.88 121.23 69.76
  A 0.66 0.66 0.0 0 1 120.15 70.27
  C 118.19 68.64 115.00 69.44 112.63 69.14
  Q 112.01 69.06 112.17 68.46
  Q 112.89 65.72 110.95 64.05
  Q 110.56 63.71 110.47 63.21
  C 108.83 54.04 102.91 47.63 94.09 45.17
  A 0.60 0.60 0.0 0 1 93.95 44.07
  Z"
/>
<path d="
  M 98.24 95.43
  A 0.21 0.21 0.0 0 1 98.33 95.82
  C 92.97 99.14 81.71 100.59 77.43 94.41
  Q 77.14 94.00 77.47 93.63
  C 80.69 90.03 74.39 82.97 71.40 80.05
  Q 71.03 79.70 70.99 79.19
  C 70.32 71.76 69.96 67.12 72.40 61.18
  C 75.97 52.47 84.10 48.16 93.23 51.02
  C 103.31 54.18 105.67 62.60 104.69 72.20
  Q 104.64 72.72 104.99 73.12
  C 107.33 75.82 111.66 74.94 114.74 74.69
  A 0.76 0.76 0.0 0 1 115.50 75.72
  Q 112.67 82.83 106.16 86.72
  A 1.54 1.54 0.0 0 1 103.83 85.45
  Q 103.67 81.04 100.58 78.37
  Q 100.18 78.02 99.65 78.04
  C 94.58 78.25 90.76 83.79 88.51 87.97
  C 84.16 96.03 94.26 94.84 98.24 95.43
  Z
  M 85.0353 75.4079
  A 2.57 2.57 0.0 0 0 82.4341 72.8695
  L 82.2341 72.8719
  A 2.57 2.57 0.0 0 0 79.6957 75.4731
  L 79.8647 89.3121
  A 2.57 2.57 0.0 0 0 82.4659 91.8505
  L 82.6659 91.8481
  A 2.57 2.57 0.0 0 0 85.2043 89.2469
  L 85.0353 75.4079
  Z"
/>
<path d="
  M 120.63 88.26
  C 122.67 90.65 123.04 98.89 123.24 100.91
  Q 123.37 102.21 122.79 101.04
  L 117.78 90.96
  Q 117.60 90.58 117.90 90.28
  L 120.01 88.23
  Q 120.34 87.91 120.63 88.26
  Z"
/>
<path d="
  M 65.46 94.77
  Q 66.00 95.03 65.75 95.58
  C 62.74 102.18 62.71 113.15 62.65 120.36
  Q 62.64 121.00 62.00 121.00
  L 59.79 121.00
  Q 59.27 121.00 59.26 120.48
  L 58.98 105.29
  Q 58.97 104.85 59.25 104.50
  C 62.54 100.29 61.08 95.48 61.25 91.15
  Q 61.33 89.26 62.02 91.02
  Q 63.02 93.56 65.46 94.77
  Z"
/>
<path d="
  M 115.08 99.38
  C 110.33 99.33 107.26 98.88 102.46 100.23
  Q 101.84 100.40 102.35 100.01
  Q 105.71 97.44 107.47 93.20
  Q 108.05 91.78 109.60 91.11
  Q 110.10 90.89 110.47 91.28
  Q 113.66 94.65 115.36 98.97
  Q 115.52 99.38 115.08 99.38
  Z"
/>
<path d="
  M 71.91 97.08
  C 78.17 104.36 86.37 105.76 95.47 103.58
  Q 96.28 103.39 95.62 103.90
  Q 83.38 113.47 82.94 129.24
  Q 82.93 129.90 82.26 129.91
  L 68.55 130.10
  A 0.32 0.32 0.0 0 1 68.23 129.79
  Q 67.91 115.08 69.99 100.50
  Q 70.18 99.14 71.30 97.14
  Q 71.56 96.67 71.91 97.08
  Z"
/>
<rect x="-1.50" y="-3.40" transform="translate(60.78,131.23) rotate(0.4)" width="3.00" height="6.80" rx="0.27"/>
</g>
<g fill="#f8f8f8">
<path d="
  M 16.50 61.84
  C 19.51 62.47 23.39 63.47 26.01 64.99
  Q 26.32 65.16 26.03 65.37
  C 21.81 68.43 22.09 84.50 22.18 87.45
  Q 22.19 87.93 21.72 88.00
  L 17.31 88.58
  Q 16.72 88.66 16.53 88.10
  C 13.86 80.26 14.42 70.88 15.33 62.69
  Q 15.45 61.62 16.50 61.84
  Z"
/>
<path d="
  M 136.76 91.19
  A 0.42 0.42 0.0 0 1 136.35 90.76
  L 137.00 69.78
  Q 137.02 69.20 137.60 69.22
  C 140.80 69.36 143.18 69.55 146.16 68.02
  Q 154.00 63.99 162.59 61.72
  A 0.80 0.80 0.0 0 1 163.59 62.39
  C 164.45 69.31 165.54 81.65 162.42 88.04
  Q 162.20 88.48 161.72 88.45
  Q 155.63 88.15 149.95 86.13
  C 146.12 84.76 145.07 88.09 143.85 90.71
  Q 143.58 91.29 142.95 91.28
  L 136.76 91.19
  Z"
/>
<path d="
  M 44.39 76.47
  Q 48.74 78.75 54.03 78.22
  A 0.94 0.93 -3.7 0 1 55.06 79.12
  L 55.63 99.55
  Q 55.65 100.25 54.95 100.25
  L 49.04 100.25
  Q 48.51 100.25 48.24 99.80
  C 46.15 96.40 46.17 93.53 40.94 95.37
  Q 35.78 97.18 30.30 97.48
  Q 29.80 97.51 29.58 97.05
  C 26.55 90.61 27.54 78.89 28.32 71.63
  A 0.98 0.98 0.0 0 1 29.54 70.78
  C 34.69 72.10 39.62 73.96 44.39 76.47
  Z"
/>
<path d="
  M 123.33 80.72
  L 120.43 80.42
  Q 119.77 80.35 120.18 79.83
  L 123.63 75.33
  Q 124.50 74.20 124.50 75.63
  L 124.50 79.67
  A 1.06 1.06 0.0 0 1 123.33 80.72
  Z"
/>
<path d="
  M 94.20 88.75
  L 97.73 84.21
  A 0.43 0.43 0.0 0 1 98.50 84.47
  L 98.50 89.39
  A 0.43 0.43 0.0 0 1 98.02 89.82
  L 94.50 89.44
  A 0.43 0.43 0.0 0 1 94.20 88.75
  Z"
/>
<path d="
  M 68.31 89.78
  A 0.73 0.73 0.0 0 1 67.50 89.05
  L 67.50 84.63
  Q 67.50 83.24 68.35 84.33
  L 71.85 88.80
  Q 72.28 89.36 71.58 89.43
  L 68.31 89.78
  Z"
/>
</g>
<g fill="#6e423f">
<path d="
  M 138.74 136.75
  L 138.62 97.72
  Q 138.61 97.05 139.28 97.02
  L 140.25 96.99
  Q 140.80 96.97 140.90 97.52
  Q 141.39 100.43 141.35 101.75
  Q 140.80 118.71 140.70 135.68
  C 140.70 136.47 140.34 136.91 139.72 137.30
  A 0.65 0.64 74.0 0 1 138.74 136.75
  Z"
/>
<path d="
  M 38.53 136.84
  L 37.71 102.89
  Q 37.69 102.20 38.36 102.03
  L 39.79 101.66
  Q 40.47 101.49 40.48 102.19
  C 40.53 106.26 41.16 135.97 39.53 137.30
  A 0.61 0.61 0.0 0 1 38.53 136.84
  Z"
/>
<path d="
  M 125.67 129.03
  C 122.62 132.71 127.84 135.77 130.34 131.67
  A 0.47 0.47 0.0 0 1 131.21 131.95
  Q 129.49 150.04 110.96 149.29
  Q 110.10 149.26 110.75 148.69
  Q 115.39 144.65 120.12 140.85
  C 124.37 137.43 120.91 133.25 117.06 136.35
  Q 110.34 141.75 103.38 147.84
  A 1.14 1.13 37.1 0 1 102.12 148.01
  L 96.79 145.35
  Q 96.27 145.10 96.67 144.69
  C 99.02 142.28 107.25 136.27 106.56 133.01
  C 105.12 126.17 94.38 139.09 92.78 140.61
  Q 92.22 141.14 91.91 140.43
  L 89.14 134.04
  Q 88.91 133.52 89.36 133.18
  C 91.36 131.63 95.44 129.11 91.42 126.42
  Q 90.99 126.13 90.49 126.26
  L 89.61 126.49
  Q 88.86 126.68 88.97 125.91
  C 90.85 113.07 100.12 104.26 113.27 104.78
  A 0.39 0.38 -61.2 0 1 113.47 105.48
  Q 110.26 107.73 107.56 110.56
  C 105.23 113.01 108.21 116.11 111.00 114.09
  Q 115.49 110.83 119.49 106.99
  Q 119.93 106.57 120.41 106.95
  L 124.75 110.36
  A 0.42 0.41 40.5 0 1 124.80 110.97
  C 120.16 116.03 113.96 120.37 109.97 125.72
  Q 109.67 126.12 109.75 126.62
  Q 110.20 129.44 113.30 129.26
  Q 113.84 129.23 114.24 128.86
  L 128.01 116.19
  A 0.41 0.41 0.0 0 1 128.69 116.39
  L 130.33 123.12
  Q 130.44 123.57 130.13 123.91
  Q 127.84 126.42 125.67 129.03
  Z
  M 103.3795 117.2899
  A 2.48 2.48 0.0 0 0 99.8884 116.9537
  L 95.2895 120.7447
  A 2.48 2.48 0.0 0 0 94.9533 124.2358
  L 95.0805 124.3901
  A 2.48 2.48 0.0 0 0 98.5716 124.7263
  L 103.1705 120.9353
  A 2.48 2.48 0.0 0 0 103.5067 117.4442
  L 103.3795 117.2899
  Z"
/>
<path d="
  M 53.44 106.70
  L 53.22 145.39
  Q 53.22 145.99 52.63 146.14
  L 52.18 146.26
  A 0.67 0.66 -7.4 0 1 51.34 145.62
  Q 51.13 126.81 50.67 108.12
  C 50.63 106.41 51.07 105.61 52.93 106.04
  A 0.68 0.68 0.0 0 1 53.44 106.70
  Z"
/>
<path d="
  M 83.89 136.15
  L 84.55 138.65
  A 0.59 0.59 0.0 0 1 83.99 139.39
  L 68.85 139.54
  A 0.59 0.59 0.0 0 1 68.25 138.95
  L 68.25 136.43
  A 0.59 0.59 0.0 0 1 68.84 135.84
  L 83.31 135.71
  A 0.59 0.59 0.0 0 1 83.89 136.15
  Z"
/>
<path d="
  M 59.85 140.53
  L 61.68 140.71
  Q 62.33 140.77 62.32 141.43
  L 62.18 156.35
  A 0.88 0.88 0.0 0 1 61.21 157.22
  L 56.33 156.71
  Q 55.76 156.65 55.65 156.09
  L 54.87 152.34
  Q 54.74 151.69 55.37 151.53
  C 59.96 150.31 59.50 144.79 59.19 141.18
  A 0.60 0.60 0.0 0 1 59.85 140.53
  Z"
/>
<path d="
  M 91.18 148.08
  Q 91.34 148.19 91.48 148.36
  A 0.44 0.44 0.0 0 1 91.29 149.04
  C 83.64 151.89 85.74 158.38 85.47 164.77
  A 1.00 1.00 0.0 0 1 84.49 165.73
  L 70.57 166.06
  A 2.22 2.21 85.5 0 1 68.32 164.13
  Q 67.13 155.03 68.46 145.97
  Q 68.52 145.54 68.96 145.53
  L 87.68 145.26
  Q 88.12 145.26 88.45 145.56
  Q 89.57 146.61 90.55 147.65
  Q 90.60 147.70 91.18 148.08
  Z"
/>
<path d="
  M 106.35 154.68
  C 112.03 154.70 116.21 155.56 122.04 153.88
  Q 122.58 153.72 122.56 154.29
  L 122.19 165.00
  Q 122.16 165.73 121.44 165.72
  L 108.20 165.63
  A 1.41 1.41 0.0 0 1 106.80 164.10
  Q 107.20 159.53 105.93 155.24
  Q 105.76 154.67 106.35 154.68
  Z"
/>
<path d="
  M 99.51 155.59
  A 0.62 0.62 0.0 0 1 99.08 156.69
  C 97.85 156.61 93.34 156.83 94.04 154.51
  Q 94.19 154.01 94.71 153.99
  Q 97.43 153.88 99.51 155.59
  Z"
/>
</g>
</svg>
