<?xml version="1.0" encoding="UTF-8" standalone="no"?>
<!DOCTYPE svg PUBLIC "-//W3C//DTD SVG 1.1//EN" "http://www.w3.org/Graphics/SVG/1.1/DTD/svg11.dtd">
<svg xmlns="http://www.w3.org/2000/svg" version="1.1" viewBox="0 0 180 180">
<g stroke-width="2.00" fill="none" stroke-linecap="butt">
<path stroke="#9c904d" vector-effect="non-scaling-stroke" d="
  M 137.92 68.31
  C 137.19 65.02 132.11 65.27 136.29 60.76
  Q 139.30 57.51 136.56 53.20
  C 133.97 49.13 129.57 52.54 128.26 48.26
  Q 128.10 47.74 128.34 47.25
  C 130.92 41.88 127.44 37.82 122.01 39.16
  Q 117.73 40.21 115.36 44.56
  Q 114.61 45.93 116.13 46.26
  C 129.31 49.18 132.11 64.66 132.23 76.06
  A 0.95 0.94 89.4 0 0 133.18 77.00
  C 138.00 76.96 138.72 71.93 137.92 68.31"
/>
<path stroke="#533d3e" vector-effect="non-scaling-stroke" d="
  M 40.59 52.39
  L 46.28 54.34
  Q 46.93 54.57 46.81 53.89
  L 45.65 47.55
  A 0.63 0.63 0.0 0 0 44.57 47.23
  L 40.41 51.68
  A 0.44 0.43 31.0 0 0 40.59 52.39"
/>
<path stroke="#98989a" vector-effect="non-scaling-stroke" d="
  M 108.89 81.31
  Q 108.73 81.22 108.55 81.23
  Q 108.06 81.27 108.05 81.76
  L 107.65 95.56
  Q 107.63 96.06 108.12 96.05
  L 125.22 95.89
  Q 126.04 95.88 126.05 95.07
  C 126.19 83.74 130.48 52.46 112.74 51.25
  Q 95.52 50.08 92.87 67.08
  Q 92.80 67.56 93.27 67.65
  C 100.84 69.07 108.43 68.36 115.92 68.50
  Q 120.55 68.59 120.37 73.19
  C 120.01 82.52 117.09 81.10 109.39 81.42
  Q 109.13 81.44 108.89 81.31"
/>
<path stroke="#3d504e" vector-effect="non-scaling-stroke" d="
  M 46.29 60.44
  L 36.65 56.60
  Q 36.24 56.44 35.93 56.74
  C 31.40 61.14 29.68 67.29 26.19 72.30
  A 1.30 1.29 -82.5 0 0 27.69 74.26
  Q 38.81 70.26 46.49 61.22
  Q 46.94 60.70 46.29 60.44"
/>
<path stroke="#3d504e" vector-effect="non-scaling-stroke" d="
  M 52.67 103.79
  A 1.62 1.56 -67.8 0 1 52.32 102.91
  C 51.80 95.35 52.21 87.41 50.57 80.02
  Q 49.21 73.90 49.56 67.58
  A 0.44 0.44 0.0 0 0 48.81 67.25
  Q 41.22 74.98 31.23 79.11
  Q 30.75 79.31 30.88 79.82
  L 31.97 83.99
  Q 32.09 84.45 32.48 84.20
  Q 36.32 81.75 39.98 78.94
  C 48.09 72.69 51.16 101.98 52.29 105.95
  Q 53.95 111.76 56.19 117.60
  Q 56.86 119.34 58.34 118.22
  L 64.86 113.28
  Q 65.44 112.84 65.46 112.12
  L 65.59 107.32
  A 0.54 0.54 0.0 0 0 65.05 106.76
  C 60.42 106.74 55.96 107.91 52.67 103.79"
/>
<path stroke="#533d3e" vector-effect="non-scaling-stroke" d="
  M 24.36 89.33
  C 28.41 86.78 25.38 80.63 22.85 78.32
  Q 22.50 78.00 22.14 78.30
  C 19.98 80.09 17.09 83.11 17.37 86.10
  C 17.73 89.97 21.15 91.35 24.36 89.33"
/>
<path stroke="#98989a" vector-effect="non-scaling-stroke" d="
  M 84.55 80.23
  L 57.84 80.58
  Q 57.14 80.59 57.16 81.29
  L 57.55 100.47
  Q 57.56 101.13 58.22 101.12
  L 83.31 100.93
  Q 83.83 100.92 84.03 100.44
  C 86.06 95.48 84.94 86.75 85.30 81.03
  A 0.74 0.74 0.0 0 0 84.55 80.23"
/>
<path stroke="#98989a" vector-effect="non-scaling-stroke" d="
  M 98.08 81.79
  A 0.35 0.35 0.0 0 0 97.80 81.44
  L 91.76 80.20
  A 0.35 0.35 0.0 0 0 91.34 80.54
  L 91.01 95.39
  A 0.35 0.35 0.0 0 0 91.36 95.75
  L 97.41 95.75
  A 0.35 0.35 0.0 0 0 97.76 95.41
  L 98.08 81.79"
/>
<path stroke="#533d3e" vector-effect="non-scaling-stroke" d="
  M 152.54 111.50
  Q 152.76 112.68 153.42 113.65
  Q 153.96 114.44 153.87 113.49
  Q 153.74 112.22 152.79 111.25"
/>
<path stroke="#9c904d" vector-effect="non-scaling-stroke" d="
  M 152.79 111.25
  Q 149.17 101.85 140.96 95.95
  A 0.31 0.30 -82.8 0 0 140.50 96.31
  C 141.65 99.30 142.38 101.25 145.20 103.27
  Q 149.76 106.53 152.54 111.50"
/>
<path stroke="#b7954f" vector-effect="non-scaling-stroke" d="
  M 152.79 111.25
  L 152.54 111.50"
/>
<path stroke="#9c904d" vector-effect="non-scaling-stroke" d="
  M 109.09 109.62
  L 99.59 101.61
  Q 99.20 101.28 98.68 101.27
  L 90.42 101.24
  A 0.56 0.56 0.0 0 0 90.10 102.27
  L 106.59 113.43
  Q 107.07 113.76 107.39 113.27
  L 109.21 110.40
  A 0.60 0.60 0.0 0 0 109.09 109.62"
/>
<path stroke="#98989a" vector-effect="non-scaling-stroke" d="
  M 143.36 108.57
  Q 128.08 100.55 117.48 109.69
  C 109.31 116.74 105.49 130.26 111.67 139.96
  Q 111.95 140.40 112.35 140.05
  Q 126.57 127.17 140.75 114.25
  Q 142.85 112.34 143.88 111.07
  A 1.65 1.65 0.0 0 0 143.36 108.57"
/>
<path stroke="#3d504e" vector-effect="non-scaling-stroke" d="
  M 81.15 121.91
  A 0.59 0.58 -48.3 0 0 82.31 121.84
  L 83.20 107.11
  Q 83.23 106.50 82.62 106.50
  L 80.33 106.50
  Q 79.63 106.50 79.55 107.19
  Q 79.14 110.96 80.62 114.39
  Q 80.81 114.84 80.78 115.32
  Q 80.58 118.63 81.15 121.91"
/>
<path stroke="#9c904d" vector-effect="non-scaling-stroke" d="
  M 70.65 148.19
  Q 72.54 149.09 73.70 147.36
  Q 73.94 147.00 73.94 146.57
  L 74.03 107.26
  Q 74.03 106.75 73.51 106.75
  L 71.62 106.75
  Q 70.98 106.75 70.96 107.38
  L 69.84 146.85
  Q 69.81 147.79 70.65 148.19"
/>
<path stroke="#98989a" vector-effect="non-scaling-stroke" d="
  M 96.73 113.77
  A 0.30 0.30 0.0 0 0 96.69 113.30
  L 89.20 108.27
  A 0.30 0.30 0.0 0 0 88.73 108.50
  L 88.12 121.20
  A 0.30 0.30 0.0 0 0 88.62 121.44
  L 96.73 113.77"
/>
<path stroke="#98989a" vector-effect="non-scaling-stroke" d="
  M 116.10 144.88
  C 121.56 148.55 125.51 148.63 131.60 149.23
  C 152.62 151.28 153.69 129.29 148.19 115.55
  Q 148.05 115.21 147.78 115.45
  L 116.04 144.14
  A 0.48 0.47 40.9 0 0 116.10 144.88"
/>
<path stroke="#9c904d" vector-effect="non-scaling-stroke" d="
  M 104.06 118.88
  L 102.00 117.12
  Q 101.50 116.69 101.03 117.15
  L 88.40 129.36
  Q 87.71 130.02 88.65 130.15
  C 91.83 130.60 94.18 130.70 96.82 128.46
  C 99.65 126.06 104.19 123.86 104.38 119.63
  Q 104.40 119.18 104.06 118.88"
/>
<path stroke="#533d3e" vector-effect="non-scaling-stroke" d="
  M 61.37 154.39
  L 65.26 154.91
  Q 66.00 155.01 66.16 154.44
  L 66.51 153.22
  Q 66.69 152.60 66.31 152.08
  Q 63.91 148.77 64.25 144.73
  C 64.91 137.02 64.76 129.09 65.02 121.31
  Q 65.03 120.78 64.57 121.05
  L 59.39 124.13
  Q 59.12 124.29 59.14 124.61
  L 60.91 153.90
  Q 60.93 154.34 61.37 154.39"
/>
<path stroke="#9c904d" vector-effect="non-scaling-stroke" d="
  M 82.4750 128.4468
  A 0.69 0.69 0.0 0 0 81.7790 127.7629
  L 80.1191 127.7774
  A 0.69 0.69 0.0 0 0 79.4351 128.4734
  L 79.4850 134.1932
  A 0.69 0.69 0.0 0 0 80.1810 134.8771
  L 81.8409 134.8626
  A 0.69 0.69 0.0 0 0 82.5249 134.1666
  L 82.4750 128.4468"
/>
<path stroke="#9c904d" vector-effect="non-scaling-stroke" d="
  M 156.50 135.46
  C 155.44 142.28 153.46 145.13 148.71 149.94
  Q 148.34 150.32 148.32 150.86
  L 148.07 161.45
  Q 148.05 162.11 148.71 162.16
  L 156.31 162.73
  Q 156.91 162.77 157.02 162.19
  Q 157.61 159.16 157.54 157.00
  Q 157.21 146.38 157.21 135.75"
/>
<path stroke="#3d504e" vector-effect="non-scaling-stroke" d="
  M 157.21 135.75
  Q 157.44 134.32 156.98 133.01
  Q 156.62 131.99 156.59 133.07
  L 156.50 135.46"
/>
<path stroke="#a1a85f" vector-effect="non-scaling-stroke" d="
  M 157.21 135.75
  L 156.50 135.46"
/>
<path stroke="#9c904d" vector-effect="non-scaling-stroke" d="
  M 103.72 135.94
  A 0.48 0.48 0.0 0 0 103.28 135.64
  L 88.48 135.78
  A 0.48 0.48 0.0 0 0 88.00 136.26
  L 88.00 139.34
  A 0.48 0.48 0.0 0 0 88.49 139.82
  L 104.53 139.58
  A 0.48 0.48 0.0 0 0 104.97 138.92
  L 103.72 135.94"
/>
<path stroke="#98989a" vector-effect="non-scaling-stroke" d="
  M 107.75 145.25
  L 88.76 145.25
  Q 88.27 145.25 88.21 145.74
  Q 87.14 155.25 88.20 164.74
  A 1.48 1.47 86.5 0 0 89.67 166.05
  L 104.38 165.99
  A 1.12 1.12 0.0 0 0 105.50 164.87
  C 105.49 158.68 104.11 151.79 111.42 148.98
  Q 111.91 148.79 111.54 148.42
  L 108.81 145.69
  Q 108.38 145.25 107.75 145.25"
/>
<path stroke="#98989a" vector-effect="non-scaling-stroke" d="
  M 142.31 153.63
  C 136.49 155.71 131.96 154.83 126.02 154.58
  Q 125.49 154.55 125.70 155.05
  Q 127.29 158.85 126.88 163.01
  Q 126.63 165.52 129.06 165.60
  Q 135.00 165.81 141.08 165.74
  A 1.02 1.02 0.0 0 0 142.09 164.78
  L 142.83 154.03
  Q 142.87 153.43 142.31 153.63"
/>
<path stroke="#9c904d" vector-effect="non-scaling-stroke" d="
  M 116.52 153.96
  Q 113.74 153.31 111.38 155.42
  Q 111.00 155.75 111.00 156.26
  L 111.00 162.52
  Q 111.00 163.22 111.70 163.23
  L 120.47 163.26
  Q 121.04 163.26 121.12 162.70
  C 121.63 159.00 120.57 154.92 116.52 153.96"
/>
<path stroke="#98989a" vector-effect="non-scaling-stroke" d="
  M 136.46 110.98
  A 2.46 2.46 0.0 0 0 134.00 108.52
  A 2.46 2.46 0.0 0 0 131.54 110.98
  A 2.46 2.46 0.0 0 0 134.00 113.44
  A 2.46 2.46 0.0 0 0 136.46 110.98"
/>
<path stroke="#98989a" vector-effect="non-scaling-stroke" d="
  M 121.80 114.82
  A 2.46 2.46 0.0 0 0 119.34 112.36
  A 2.46 2.46 0.0 0 0 116.88 114.82
  A 2.46 2.46 0.0 0 0 119.34 117.28
  A 2.46 2.46 0.0 0 0 121.80 114.82"
/>
<path stroke="#98989a" vector-effect="non-scaling-stroke" d="
  M 116.02 129.04
  A 2.53 2.53 0.0 0 0 113.49 126.51
  A 2.53 2.53 0.0 0 0 110.96 129.04
  A 2.53 2.53 0.0 0 0 113.49 131.57
  A 2.53 2.53 0.0 0 0 116.02 129.04"
/>
<path stroke="#98989a" vector-effect="non-scaling-stroke" d="
  M 148.42 127.14
  A 2.47 2.47 0.0 0 0 145.95 124.67
  A 2.47 2.47 0.0 0 0 143.48 127.14
  A 2.47 2.47 0.0 0 0 145.95 129.61
  A 2.47 2.47 0.0 0 0 148.42 127.14"
/>
<path stroke="#98989a" vector-effect="non-scaling-stroke" d="
  M 144.50 141.38
  A 2.47 2.47 0.0 0 0 142.03 138.91
  A 2.47 2.47 0.0 0 0 139.56 141.38
  A 2.47 2.47 0.0 0 0 142.03 143.85
  A 2.47 2.47 0.0 0 0 144.50 141.38"
/>
<path stroke="#98989a" vector-effect="non-scaling-stroke" d="
  M 128.93 143.78
  A 2.46 2.46 0.0 0 0 126.47 141.32
  A 2.46 2.46 0.0 0 0 124.01 143.78
  A 2.46 2.46 0.0 0 0 126.47 146.24
  A 2.46 2.46 0.0 0 0 128.93 143.78"
/>
</g>
<g fill="#38383c">
<path d="
  M 81.58 156.21
  C 79.02 163.75 73.95 162.74 67.56 163.64
  C 63.60 164.20 59.92 163.01 55.70 163.93
  Q 55.20 164.04 54.75 163.80
  C 50.46 161.44 52.37 156.26 54.76 153.38
  Q 55.10 152.97 55.07 152.43
  L 53.83 127.03
  A 1.65 1.64 -2.1 0 0 52.14 125.47
  C 38.27 125.79 31.78 115.18 29.06 103.13
  Q 28.13 98.99 27.26 94.83
  Q 27.16 94.33 26.70 94.55
  C 21.71 96.94 16.13 96.04 13.26 91.06
  C 10.11 85.58 12.98 80.14 16.88 75.64
  C 21.73 70.04 24.13 64.21 27.72 58.11
  C 30.20 53.88 34.90 50.31 37.43 47.19
  C 39.52 44.61 43.05 40.48 46.53 41.09
  C 50.18 41.73 51.28 48.29 51.81 50.84
  Q 51.91 51.32 52.37 51.49
  C 62.52 55.16 69.52 64.22 76.47 72.01
  C 78.56 74.35 80.22 74.99 83.23 74.62
  Q 83.72 74.56 83.92 74.11
  C 84.99 71.64 86.39 69.84 86.86 67.09
  C 88.92 55.00 96.21 45.76 109.39 45.75
  Q 109.92 45.75 110.08 45.25
  C 112.75 36.93 122.59 30.20 130.48 36.02
  Q 134.57 39.03 134.96 44.90
  Q 134.99 45.44 135.47 45.68
  Q 146.30 51.13 141.97 62.94
  Q 141.79 63.42 142.01 63.88
  C 145.86 71.79 143.25 82.88 132.53 82.49
  Q 132.01 82.47 132.00 82.99
  Q 132.00 83.13 132.00 83.27
  Q 132.00 83.53 132.26 83.55
  Q 139.46 83.98 143.50 89.41
  C 147.76 95.12 152.87 98.69 156.31 105.28
  C 160.17 112.67 162.24 124.78 162.58 132.94
  C 163.10 145.25 163.69 154.67 162.62 165.09
  Q 162.57 165.56 162.28 165.94
  C 159.40 169.76 152.23 168.03 148.08 167.71
  Q 147.55 167.67 147.30 168.14
  Q 145.48 171.57 141.31 171.54
  C 137.07 171.50 127.54 172.65 122.89 169.06
  Q 122.52 168.78 122.06 168.78
  L 111.10 168.69
  Q 110.61 168.69 110.24 169.02
  Q 107.64 171.44 103.93 171.60
  C 99.79 171.79 89.49 173.03 85.23 169.48
  C 82.27 167.01 82.20 159.85 82.06 156.28
  Q 82.01 154.93 81.58 156.21
  Z
  M 137.92 68.31
  C 137.19 65.02 132.11 65.27 136.29 60.76
  Q 139.30 57.51 136.56 53.20
  C 133.97 49.13 129.57 52.54 128.26 48.26
  Q 128.10 47.74 128.34 47.25
  C 130.92 41.88 127.44 37.82 122.01 39.16
  Q 117.73 40.21 115.36 44.56
  Q 114.61 45.93 116.13 46.26
  C 129.31 49.18 132.11 64.66 132.23 76.06
  A 0.95 0.94 89.4 0 0 133.18 77.00
  C 138.00 76.96 138.72 71.93 137.92 68.31
  Z
  M 40.59 52.39
  L 46.28 54.34
  Q 46.93 54.57 46.81 53.89
  L 45.65 47.55
  A 0.63 0.63 0.0 0 0 44.57 47.23
  L 40.41 51.68
  A 0.44 0.43 31.0 0 0 40.59 52.39
  Z
  M 108.89 81.31
  Q 108.73 81.22 108.55 81.23
  Q 108.06 81.27 108.05 81.76
  L 107.65 95.56
  Q 107.63 96.06 108.12 96.05
  L 125.22 95.89
  Q 126.04 95.88 126.05 95.07
  C 126.19 83.74 130.48 52.46 112.74 51.25
  Q 95.52 50.08 92.87 67.08
  Q 92.80 67.56 93.27 67.65
  C 100.84 69.07 108.43 68.36 115.92 68.50
  Q 120.55 68.59 120.37 73.19
  C 120.01 82.52 117.09 81.10 109.39 81.42
  Q 109.13 81.44 108.89 81.31
  Z
  M 46.29 60.44
  L 36.65 56.60
  Q 36.24 56.44 35.93 56.74
  C 31.40 61.14 29.68 67.29 26.19 72.30
  A 1.30 1.29 -82.5 0 0 27.69 74.26
  Q 38.81 70.26 46.49 61.22
  Q 46.94 60.70 46.29 60.44
  Z
  M 52.67 103.79
  A 1.62 1.56 -67.8 0 1 52.32 102.91
  C 51.80 95.35 52.21 87.41 50.57 80.02
  Q 49.21 73.90 49.56 67.58
  A 0.44 0.44 0.0 0 0 48.81 67.25
  Q 41.22 74.98 31.23 79.11
  Q 30.75 79.31 30.88 79.82
  L 31.97 83.99
  Q 32.09 84.45 32.48 84.20
  Q 36.32 81.75 39.98 78.94
  C 48.09 72.69 51.16 101.98 52.29 105.95
  Q 53.95 111.76 56.19 117.60
  Q 56.86 119.34 58.34 118.22
  L 64.86 113.28
  Q 65.44 112.84 65.46 112.12
  L 65.59 107.32
  A 0.54 0.54 0.0 0 0 65.05 106.76
  C 60.42 106.74 55.96 107.91 52.67 103.79
  Z
  M 24.36 89.33
  C 28.41 86.78 25.38 80.63 22.85 78.32
  Q 22.50 78.00 22.14 78.30
  C 19.98 80.09 17.09 83.11 17.37 86.10
  C 17.73 89.97 21.15 91.35 24.36 89.33
  Z
  M 84.55 80.23
  L 57.84 80.58
  Q 57.14 80.59 57.16 81.29
  L 57.55 100.47
  Q 57.56 101.13 58.22 101.12
  L 83.31 100.93
  Q 83.83 100.92 84.03 100.44
  C 86.06 95.48 84.94 86.75 85.30 81.03
  A 0.74 0.74 0.0 0 0 84.55 80.23
  Z
  M 98.08 81.79
  A 0.35 0.35 0.0 0 0 97.80 81.44
  L 91.76 80.20
  A 0.35 0.35 0.0 0 0 91.34 80.54
  L 91.01 95.39
  A 0.35 0.35 0.0 0 0 91.36 95.75
  L 97.41 95.75
  A 0.35 0.35 0.0 0 0 97.76 95.41
  L 98.08 81.79
  Z
  M 32.21 91.71
  C 32.88 101.62 37.44 119.54 50.24 119.71
  Q 50.79 119.72 50.61 119.20
  C 48.31 112.75 46.44 106.92 45.18 99.75
  Q 43.89 92.41 42.03 85.16
  A 0.37 0.37 0.0 0 0 41.46 84.94
  L 32.65 90.81
  Q 32.17 91.13 32.21 91.71
  Z
  M 152.54 111.50
  Q 152.76 112.68 153.42 113.65
  Q 153.96 114.44 153.87 113.49
  Q 153.74 112.22 152.79 111.25
  Q 149.17 101.85 140.96 95.95
  A 0.31 0.30 -82.8 0 0 140.50 96.31
  C 141.65 99.30 142.38 101.25 145.20 103.27
  Q 149.76 106.53 152.54 111.50
  Z
  M 109.09 109.62
  L 99.59 101.61
  Q 99.20 101.28 98.68 101.27
  L 90.42 101.24
  A 0.56 0.56 0.0 0 0 90.10 102.27
  L 106.59 113.43
  Q 107.07 113.76 107.39 113.27
  L 109.21 110.40
  A 0.60 0.60 0.0 0 0 109.09 109.62
  Z
  M 143.36 108.57
  Q 128.08 100.55 117.48 109.69
  C 109.31 116.74 105.49 130.26 111.67 139.96
  Q 111.95 140.40 112.35 140.05
  Q 126.57 127.17 140.75 114.25
  Q 142.85 112.34 143.88 111.07
  A 1.65 1.65 0.0 0 0 143.36 108.57
  Z
  M 81.15 121.91
  A 0.59 0.58 -48.3 0 0 82.31 121.84
  L 83.20 107.11
  Q 83.23 106.50 82.62 106.50
  L 80.33 106.50
  Q 79.63 106.50 79.55 107.19
  Q 79.14 110.96 80.62 114.39
  Q 80.81 114.84 80.78 115.32
  Q 80.58 118.63 81.15 121.91
  Z
  M 70.65 148.19
  Q 72.54 149.09 73.70 147.36
  Q 73.94 147.00 73.94 146.57
  L 74.03 107.26
  Q 74.03 106.75 73.51 106.75
  L 71.62 106.75
  Q 70.98 106.75 70.96 107.38
  L 69.84 146.85
  Q 69.81 147.79 70.65 148.19
  Z
  M 96.73 113.77
  A 0.30 0.30 0.0 0 0 96.69 113.30
  L 89.20 108.27
  A 0.30 0.30 0.0 0 0 88.73 108.50
  L 88.12 121.20
  A 0.30 0.30 0.0 0 0 88.62 121.44
  L 96.73 113.77
  Z
  M 116.10 144.88
  C 121.56 148.55 125.51 148.63 131.60 149.23
  C 152.62 151.28 153.69 129.29 148.19 115.55
  Q 148.05 115.21 147.78 115.45
  L 116.04 144.14
  A 0.48 0.47 40.9 0 0 116.10 144.88
  Z
  M 104.06 118.88
  L 102.00 117.12
  Q 101.50 116.69 101.03 117.15
  L 88.40 129.36
  Q 87.71 130.02 88.65 130.15
  C 91.83 130.60 94.18 130.70 96.82 128.46
  C 99.65 126.06 104.19 123.86 104.38 119.63
  Q 104.40 119.18 104.06 118.88
  Z
  M 61.37 154.39
  L 65.26 154.91
  Q 66.00 155.01 66.16 154.44
  L 66.51 153.22
  Q 66.69 152.60 66.31 152.08
  Q 63.91 148.77 64.25 144.73
  C 64.91 137.02 64.76 129.09 65.02 121.31
  Q 65.03 120.78 64.57 121.05
  L 59.39 124.13
  Q 59.12 124.29 59.14 124.61
  L 60.91 153.90
  Q 60.93 154.34 61.37 154.39
  Z
  M 82.4750 128.4468
  A 0.69 0.69 0.0 0 0 81.7790 127.7629
  L 80.1191 127.7774
  A 0.69 0.69 0.0 0 0 79.4351 128.4734
  L 79.4850 134.1932
  A 0.69 0.69 0.0 0 0 80.1810 134.8771
  L 81.8409 134.8626
  A 0.69 0.69 0.0 0 0 82.5249 134.1666
  L 82.4750 128.4468
  Z
  M 156.50 135.46
  C 155.44 142.28 153.46 145.13 148.71 149.94
  Q 148.34 150.32 148.32 150.86
  L 148.07 161.45
  Q 148.05 162.11 148.71 162.16
  L 156.31 162.73
  Q 156.91 162.77 157.02 162.19
  Q 157.61 159.16 157.54 157.00
  Q 157.21 146.38 157.21 135.75
  Q 157.44 134.32 156.98 133.01
  Q 156.62 131.99 156.59 133.07
  L 156.50 135.46
  Z
  M 103.72 135.94
  A 0.48 0.48 0.0 0 0 103.28 135.64
  L 88.48 135.78
  A 0.48 0.48 0.0 0 0 88.00 136.26
  L 88.00 139.34
  A 0.48 0.48 0.0 0 0 88.49 139.82
  L 104.53 139.58
  A 0.48 0.48 0.0 0 0 104.97 138.92
  L 103.72 135.94
  Z
  M 107.75 145.25
  L 88.76 145.25
  Q 88.27 145.25 88.21 145.74
  Q 87.14 155.25 88.20 164.74
  A 1.48 1.47 86.5 0 0 89.67 166.05
  L 104.38 165.99
  A 1.12 1.12 0.0 0 0 105.50 164.87
  C 105.49 158.68 104.11 151.79 111.42 148.98
  Q 111.91 148.79 111.54 148.42
  L 108.81 145.69
  Q 108.38 145.25 107.75 145.25
  Z
  M 142.31 153.63
  C 136.49 155.71 131.96 154.83 126.02 154.58
  Q 125.49 154.55 125.70 155.05
  Q 127.29 158.85 126.88 163.01
  Q 126.63 165.52 129.06 165.60
  Q 135.00 165.81 141.08 165.74
  A 1.02 1.02 0.0 0 0 142.09 164.78
  L 142.83 154.03
  Q 142.87 153.43 142.31 153.63
  Z
  M 116.52 153.96
  Q 113.74 153.31 111.38 155.42
  Q 111.00 155.75 111.00 156.26
  L 111.00 162.52
  Q 111.00 163.22 111.70 163.23
  L 120.47 163.26
  Q 121.04 163.26 121.12 162.70
  C 121.63 159.00 120.57 154.92 116.52 153.96
  Z"
/>
<circle cx="134.00" cy="110.98" r="2.46"/>
<circle cx="119.34" cy="114.82" r="2.46"/>
<circle cx="145.95" cy="127.14" r="2.47"/>
<circle cx="113.49" cy="129.04" r="2.53"/>
<circle cx="142.03" cy="141.38" r="2.47"/>
<circle cx="126.47" cy="143.78" r="2.46"/>
</g>
<g fill="#f8f8f8">
<path d="
  M 109.39 81.42
  C 117.09 81.10 120.01 82.52 120.37 73.19
  Q 120.55 68.59 115.92 68.50
  C 108.43 68.36 100.84 69.07 93.27 67.65
  Q 92.80 67.56 92.87 67.08
  Q 95.52 50.08 112.74 51.25
  C 130.48 52.46 126.19 83.74 126.05 95.07
  Q 126.04 95.88 125.22 95.89
  L 108.12 96.05
  Q 107.63 96.06 107.65 95.56
  L 108.05 81.76
  Q 108.06 81.27 108.55 81.23
  Q 108.73 81.22 108.89 81.31
  Q 109.13 81.44 109.39 81.42
  Z"
/>
<path d="
  M 84.55 80.23
  A 0.74 0.74 0.0 0 1 85.30 81.03
  C 84.94 86.75 86.06 95.48 84.03 100.44
  Q 83.83 100.92 83.31 100.93
  L 58.22 101.12
  Q 57.56 101.13 57.55 100.47
  L 57.16 81.29
  Q 57.14 80.59 57.84 80.58
  L 84.55 80.23
  Z"
/>
<path d="
  M 98.08 81.79
  L 97.76 95.41
  A 0.35 0.35 0.0 0 1 97.41 95.75
  L 91.36 95.75
  A 0.35 0.35 0.0 0 1 91.01 95.39
  L 91.34 80.54
  A 0.35 0.35 0.0 0 1 91.76 80.20
  L 97.80 81.44
  A 0.35 0.35 0.0 0 1 98.08 81.79
  Z"
/>
<path d="
  M 143.36 108.57
  A 1.65 1.65 0.0 0 1 143.88 111.07
  Q 142.85 112.34 140.75 114.25
  Q 126.57 127.17 112.35 140.05
  Q 111.95 140.40 111.67 139.96
  C 105.49 130.26 109.31 116.74 117.48 109.69
  Q 128.08 100.55 143.36 108.57
  Z
  M 136.46 110.98
  A 2.46 2.46 0.0 0 0 134.00 108.52
  A 2.46 2.46 0.0 0 0 131.54 110.98
  A 2.46 2.46 0.0 0 0 134.00 113.44
  A 2.46 2.46 0.0 0 0 136.46 110.98
  Z
  M 121.80 114.82
  A 2.46 2.46 0.0 0 0 119.34 112.36
  A 2.46 2.46 0.0 0 0 116.88 114.82
  A 2.46 2.46 0.0 0 0 119.34 117.28
  A 2.46 2.46 0.0 0 0 121.80 114.82
  Z
  M 116.02 129.04
  A 2.53 2.53 0.0 0 0 113.49 126.51
  A 2.53 2.53 0.0 0 0 110.96 129.04
  A 2.53 2.53 0.0 0 0 113.49 131.57
  A 2.53 2.53 0.0 0 0 116.02 129.04
  Z"
/>
<path d="
  M 96.73 113.77
  L 88.62 121.44
  A 0.30 0.30 0.0 0 1 88.12 121.20
  L 88.73 108.50
  A 0.30 0.30 0.0 0 1 89.20 108.27
  L 96.69 113.30
  A 0.30 0.30 0.0 0 1 96.73 113.77
  Z"
/>
<path d="
  M 116.10 144.88
  A 0.48 0.47 40.9 0 1 116.04 144.14
  L 147.78 115.45
  Q 148.05 115.21 148.19 115.55
  C 153.69 129.29 152.62 151.28 131.60 149.23
  C 125.51 148.63 121.56 148.55 116.10 144.88
  Z
  M 148.42 127.14
  A 2.47 2.47 0.0 0 0 145.95 124.67
  A 2.47 2.47 0.0 0 0 143.48 127.14
  A 2.47 2.47 0.0 0 0 145.95 129.61
  A 2.47 2.47 0.0 0 0 148.42 127.14
  Z
  M 144.50 141.38
  A 2.47 2.47 0.0 0 0 142.03 138.91
  A 2.47 2.47 0.0 0 0 139.56 141.38
  A 2.47 2.47 0.0 0 0 142.03 143.85
  A 2.47 2.47 0.0 0 0 144.50 141.38
  Z
  M 128.93 143.78
  A 2.46 2.46 0.0 0 0 126.47 141.32
  A 2.46 2.46 0.0 0 0 124.01 143.78
  A 2.46 2.46 0.0 0 0 126.47 146.24
  A 2.46 2.46 0.0 0 0 128.93 143.78
  Z"
/>
<path d="
  M 108.81 145.69
  L 111.54 148.42
  Q 111.91 148.79 111.42 148.98
  C 104.11 151.79 105.49 158.68 105.50 164.87
  A 1.12 1.12 0.0 0 1 104.38 165.99
  L 89.67 166.05
  A 1.48 1.47 86.5 0 1 88.20 164.74
  Q 87.14 155.25 88.21 145.74
  Q 88.27 145.25 88.76 145.25
  L 107.75 145.25
  Q 108.38 145.25 108.81 145.69
  Z"
/>
<path d="
  M 126.02 154.58
  C 131.96 154.83 136.49 155.71 142.31 153.63
  Q 142.87 153.43 142.83 154.03
  L 142.09 164.78
  A 1.02 1.02 0.0 0 1 141.08 165.74
  Q 135.00 165.81 129.06 165.60
  Q 126.63 165.52 126.88 163.01
  Q 127.29 158.85 125.70 155.05
  Q 125.49 154.55 126.02 154.58
  Z"
/>
</g>
<g fill="#ffe75e">
<path d="
  M 136.29 60.76
  C 132.11 65.27 137.19 65.02 137.92 68.31
  C 138.72 71.93 138.00 76.96 133.18 77.00
  A 0.95 0.94 89.4 0 1 132.23 76.06
  C 132.11 64.66 129.31 49.18 116.13 46.26
  Q 114.61 45.93 115.36 44.56
  Q 117.73 40.21 122.01 39.16
  C 127.44 37.82 130.92 41.88 128.34 47.25
  Q 128.10 47.74 128.26 48.26
  C 129.57 52.54 133.97 49.13 136.56 53.20
  Q 139.30 57.51 136.29 60.76
  Z"
/>
<path d="
  M 152.79 111.25
  L 152.54 111.50
  Q 149.76 106.53 145.20 103.27
  C 142.38 101.25 141.65 99.30 140.50 96.31
  A 0.31 0.30 -82.8 0 1 140.96 95.95
  Q 149.17 101.85 152.79 111.25
  Z"
/>
<path d="
  M 109.09 109.62
  A 0.60 0.60 0.0 0 1 109.21 110.40
  L 107.39 113.27
  Q 107.07 113.76 106.59 113.43
  L 90.10 102.27
  A 0.56 0.56 0.0 0 1 90.42 101.24
  L 98.68 101.27
  Q 99.20 101.28 99.59 101.61
  L 109.09 109.62
  Z"
/>
<path d="
  M 70.65 148.19
  Q 69.81 147.79 69.84 146.85
  L 70.96 107.38
  Q 70.98 106.75 71.62 106.75
  L 73.51 106.75
  Q 74.03 106.75 74.03 107.26
  L 73.94 146.57
  Q 73.94 147.00 73.70 147.36
  Q 72.54 149.09 70.65 148.19
  Z"
/>
<path d="
  M 102.00 117.12
  L 104.06 118.88
  Q 104.40 119.18 104.38 119.63
  C 104.19 123.86 99.65 126.06 96.82 128.46
  C 94.18 130.70 91.83 130.60 88.65 130.15
  Q 87.71 130.02 88.40 129.36
  L 101.03 117.15
  Q 101.50 116.69 102.00 117.12
  Z"
/>
<rect x="-1.52" y="-3.55" transform="translate(80.98,131.32) rotate(-0.5)" width="3.04" height="7.10" rx="0.69"/>
<path d="
  M 103.72 135.94
  L 104.97 138.92
  A 0.48 0.48 0.0 0 1 104.53 139.58
  L 88.49 139.82
  A 0.48 0.48 0.0 0 1 88.00 139.34
  L 88.00 136.26
  A 0.48 0.48 0.0 0 1 88.48 135.78
  L 103.28 135.64
  A 0.48 0.48 0.0 0 1 103.72 135.94
  Z"
/>
<path d="
  M 156.50 135.46
  L 157.21 135.75
  Q 157.21 146.38 157.54 157.00
  Q 157.61 159.16 157.02 162.19
  Q 156.91 162.77 156.31 162.73
  L 148.71 162.16
  Q 148.05 162.11 148.07 161.45
  L 148.32 150.86
  Q 148.34 150.32 148.71 149.94
  C 153.46 145.13 155.44 142.28 156.50 135.46
  Z"
/>
<path d="
  M 116.52 153.96
  C 120.57 154.92 121.63 159.00 121.12 162.70
  Q 121.04 163.26 120.47 163.26
  L 111.70 163.23
  Q 111.00 163.22 111.00 162.52
  L 111.00 156.26
  Q 111.00 155.75 111.38 155.42
  Q 113.74 153.31 116.52 153.96
  Z"
/>
</g>
<g fill="#42685f">
<path d="
  M 36.65 56.60
  L 46.29 60.44
  Q 46.94 60.70 46.49 61.22
  Q 38.81 70.26 27.69 74.26
  A 1.30 1.29 -82.5 0 1 26.19 72.30
  C 29.68 67.29 31.40 61.14 35.93 56.74
  Q 36.24 56.44 36.65 56.60
  Z"
/>
<path d="
  M 52.67 103.79
  C 55.96 107.91 60.42 106.74 65.05 106.76
  A 0.54 0.54 0.0 0 1 65.59 107.32
  L 65.46 112.12
  Q 65.44 112.84 64.86 113.28
  L 58.34 118.22
  Q 56.86 119.34 56.19 117.60
  Q 53.95 111.76 52.29 105.95
  C 51.16 101.98 48.09 72.69 39.98 78.94
  Q 36.32 81.75 32.48 84.20
  Q 32.09 84.45 31.97 83.99
  L 30.88 79.82
  Q 30.75 79.31 31.23 79.11
  Q 41.22 74.98 48.81 67.25
  A 0.44 0.44 0.0 0 1 49.56 67.58
  Q 49.21 73.90 50.57 80.02
  C 52.21 87.41 51.80 95.35 52.32 102.91
  A 1.62 1.56 -67.8 0 0 52.67 103.79
  Z"
/>
<path d="
  M 81.15 121.91
  Q 80.58 118.63 80.78 115.32
  Q 80.81 114.84 80.62 114.39
  Q 79.14 110.96 79.55 107.19
  Q 79.63 106.50 80.33 106.50
  L 82.62 106.50
  Q 83.23 106.50 83.20 107.11
  L 82.31 121.84
  A 0.59 0.58 -48.3 0 1 81.15 121.91
  Z"
/>
<path d="
  M 157.21 135.75
  L 156.50 135.46
  L 156.59 133.07
  Q 156.62 131.99 156.98 133.01
  Q 157.44 134.32 157.21 135.75
  Z"
/>
</g>
<g fill="#6e423f">
<path d="
  M 40.59 52.39
  A 0.44 0.43 31.0 0 1 40.41 51.68
  L 44.57 47.23
  A 0.63 0.63 0.0 0 1 45.65 47.55
  L 46.81 53.89
  Q 46.93 54.57 46.28 54.34
  L 40.59 52.39
  Z"
/>
<path d="
  M 24.36 89.33
  C 21.15 91.35 17.73 89.97 17.37 86.10
  C 17.09 83.11 19.98 80.09 22.14 78.30
  Q 22.50 78.00 22.85 78.32
  C 25.38 80.63 28.41 86.78 24.36 89.33
  Z"
/>
<path d="
  M 152.79 111.25
  Q 153.74 112.22 153.87 113.49
  Q 153.96 114.44 153.42 113.65
  Q 152.76 112.68 152.54 111.50
  L 152.79 111.25
  Z"
/>
<path d="
  M 65.26 154.91
  L 61.37 154.39
  Q 60.93 154.34 60.91 153.90
  L 59.14 124.61
  Q 59.12 124.29 59.39 124.13
  L 64.57 121.05
  Q 65.03 120.78 65.02 121.31
  C 64.76 129.09 64.91 137.02 64.25 144.73
  Q 63.91 148.77 66.31 152.08
  Q 66.69 152.60 66.51 153.22
  L 66.16 154.44
  Q 66.00 155.01 65.26 154.91
  Z"
/>
</g>
</svg>
