<?xml version="1.0" encoding="UTF-8" standalone="no"?>
<!DOCTYPE svg PUBLIC "-//W3C//DTD SVG 1.1//EN" "http://www.w3.org/Graphics/SVG/1.1/DTD/svg11.dtd">
<svg xmlns="http://www.w3.org/2000/svg" version="1.1" viewBox="0 0 180 180">
<g stroke-width="2.00" fill="none" stroke-linecap="butt">
<path stroke="#533d3e" vector-effect="non-scaling-stroke" d="
  M 132.45 57.89
  C 129.98 47.53 120.34 41.43 109.95 45.37
  Q 109.46 45.56 109.92 45.81
  Q 117.14 49.82 117.83 58.18
  Q 117.89 58.82 118.53 58.81
  L 131.89 58.61
  A 0.58 0.58 0.0 0 0 132.45 57.89"
/>
<path stroke="#927a6d" vector-effect="non-scaling-stroke" d="
  M 65.43 85.68
  C 60.14 87.66 61.73 74.40 61.75 69.76
  Q 61.76 66.38 65.05 66.94
  Q 65.49 67.01 65.58 66.57
  L 66.47 62.05
  Q 66.58 61.51 66.17 61.16
  L 62.17 57.67
  Q 61.82 57.37 61.38 57.50
  Q 55.72 59.20 53.59 64.72
  Q 53.41 65.20 53.68 65.63
  Q 55.47 68.43 56.91 71.44
  C 60.16 78.28 53.83 91.84 66.75 92.12
  A 1.07 1.07 0.0 0 0 67.78 90.70
  L 66.12 86.00
  Q 65.94 85.49 65.43 85.68"
/>
<path stroke="#927a6d" vector-effect="non-scaling-stroke" d="
  M 119.93 67.43
  C 122.56 65.95 124.17 67.53 124.24 70.21
  C 124.30 72.55 125.96 88.29 120.20 85.54
  Q 119.78 85.34 119.49 85.69
  L 116.82 88.96
  Q 116.46 89.39 116.79 89.85
  L 118.20 91.80
  Q 118.52 92.24 119.06 92.22
  C 124.46 91.95 128.64 87.20 130.99 82.82
  C 133.71 77.76 133.40 70.52 133.51 64.62
  Q 133.51 64.22 133.11 64.23
  L 117.68 64.62
  A 1.14 1.13 -77.1 0 0 116.68 65.25
  L 114.88 68.88
  Q 114.65 69.35 115.11 69.59
  Q 117.09 70.63 118.38 72.44
  Q 118.80 73.02 118.87 72.31
  L 119.31 68.36
  Q 119.38 67.73 119.93 67.43"
/>
<path stroke="#927a6d" vector-effect="non-scaling-stroke" d="
  M 112.61 74.63
  Q 111.38 73.73 109.98 74.31
  L 104.77 76.46
  Q 104.26 76.67 103.75 76.47
  Q 97.51 74.07 94.00 68.50
  Q 93.73 68.08 93.24 68.18
  C 85.40 69.69 78.95 67.76 71.69 64.57
  Q 71.15 64.33 71.02 64.90
  C 69.86 69.94 70.65 76.49 71.02 81.65
  C 72.10 96.95 88.79 104.21 100.53 93.95
  C 103.18 91.63 101.15 86.81 106.51 87.00
  C 112.93 87.22 119.03 79.36 112.61 74.63"
/>
<path stroke="#98989a" vector-effect="non-scaling-stroke" d="
  M 153.19 65.39
  Q 151.31 68.21 151.29 69.75
  Q 151.13 85.34 150.37 100.93
  C 150.21 104.14 150.52 107.83 150.21 111.36
  Q 150.15 112.00 150.79 112.00
  L 154.54 112.00
  Q 155.19 112.00 155.20 111.35
  Q 155.68 90.29 156.21 69.33
  Q 156.27 66.96 153.82 65.27
  Q 153.44 65.01 153.19 65.39"
/>
<path stroke="#98989a" vector-effect="non-scaling-stroke" d="
  M 50.20 70.95
  C 48.77 72.95 47.72 74.28 47.80 76.91
  Q 48.42 96.61 48.79 117.31
  A 0.71 0.70 89.2 0 0 49.49 118.00
  L 53.24 118.00
  Q 53.89 118.00 53.81 117.36
  C 53.40 113.90 53.77 110.36 53.63 107.22
  Q 52.94 92.50 52.73 77.77
  C 52.69 75.04 52.05 73.23 50.78 70.98
  A 0.35 0.35 0.0 0 0 50.20 70.95"
/>
<path stroke="#533d3e" vector-effect="non-scaling-stroke" d="
  M 31.88 90.92
  C 33.52 113.76 32.04 136.57 33.30 158.01
  C 33.34 158.68 33.67 159.23 34.37 159.23
  A 0.48 0.47 -0.6 0 0 34.85 158.75
  C 34.63 148.38 34.59 137.88 33.70 127.58
  Q 33.39 124.10 33.95 119.00
  C 34.72 112.00 33.52 101.41 33.58 92.29
  C 33.64 84.23 33.80 76.46 22.77 78.17
  C 16.80 79.10 13.95 84.23 15.43 90.08
  Q 15.56 90.60 16.06 90.79
  L 16.66 91.02
  Q 17.38 91.29 17.21 90.54
  C 15.83 84.15 19.72 78.73 26.31 79.85
  C 32.03 80.82 31.49 85.39 31.88 90.92"
/>
<path stroke="#533d3e" vector-effect="non-scaling-stroke" d="
  M 132.15 91.05
  Q 128.10 95.95 122.10 97.98
  Q 121.57 98.16 121.78 98.68
  L 123.35 102.51
  Q 123.56 103.00 124.00 102.71
  L 133.90 96.19
  Q 134.57 95.74 134.28 94.99
  L 132.80 91.15
  A 0.38 0.38 0.0 0 0 132.15 91.05"
/>
<path stroke="#533d3e" vector-effect="non-scaling-stroke" d="
  M 85.53 117.92
  C 79.68 114.61 76.51 107.17 75.33 100.84
  Q 75.23 100.35 74.86 100.01
  L 71.92 97.29
  Q 71.49 96.90 71.23 97.42
  Q 70.25 99.42 69.93 101.71
  Q 68.00 115.48 68.35 129.58
  Q 68.36 130.16 68.94 130.15
  L 92.61 129.94
  Q 93.13 129.93 93.45 129.53
  C 96.66 125.62 101.56 124.45 105.46 122.70
  Q 105.98 122.47 106.00 121.90
  C 106.09 119.23 103.95 116.05 107.89 115.00
  A 2.00 2.00 0.0 0 1 110.20 116.06
  Q 111.97 119.70 111.19 123.60
  Q 111.07 124.18 111.44 124.65
  Q 114.98 129.22 114.02 135.10
  Q 113.91 135.77 114.58 135.60
  L 120.27 134.14
  A 1.98 1.97 -7.2 0 0 121.76 132.23
  C 121.78 118.44 119.59 104.56 111.78 92.83
  Q 111.48 92.39 110.96 92.46
  L 108.57 92.79
  Q 107.97 92.87 107.70 93.41
  Q 104.44 99.89 97.85 102.83
  Q 97.45 103.01 97.29 103.41
  C 95.72 107.35 92.11 117.37 86.52 118.11
  Q 85.99 118.18 85.53 117.92"
/>
<path stroke="#3d504e" vector-effect="non-scaling-stroke" d="
  M 127.59 107.91
  L 135.20 115.13
  Q 135.62 115.53 135.60 114.94
  L 135.21 102.83
  A 0.40 0.40 0.0 0 0 134.59 102.51
  L 127.65 107.20
  Q 127.18 107.52 127.59 107.91"
/>
<path stroke="#927a6d" vector-effect="non-scaling-stroke" d="
  M 89.97 104.56
  C 87.40 104.94 84.63 104.32 82.12 103.68
  A 0.35 0.35 0.0 0 0 81.73 104.19
  L 85.67 111.35
  A 0.87 0.87 0.0 0 0 87.21 111.32
  L 90.34 105.07
  Q 90.64 104.46 89.97 104.56"
/>
<path stroke="#533d3e" vector-effect="non-scaling-stroke" d="
  M 128.41 123.23
  Q 131.48 124.71 134.93 124.14
  A 0.49 0.49 0.0 0 0 135.19 123.31
  L 126.89 115.02
  A 0.33 0.32 -71.0 0 0 126.34 115.29
  L 127.08 121.36
  Q 127.23 122.66 128.41 123.23"
/>
<path stroke="#3d504e" vector-effect="non-scaling-stroke" d="
  M 143.19 117.62
  C 141.62 116.80 141.12 118.96 141.88 119.96
  Q 142.19 120.37 142.70 120.30
  Q 146.88 119.79 150.33 122.01
  Q 150.75 122.28 150.75 122.77
  L 150.75 128.17
  Q 150.75 128.86 151.43 128.81
  L 154.84 128.57
  Q 155.50 128.53 155.50 127.86
  L 155.50 122.81
  Q 155.50 122.41 155.79 122.13
  Q 159.21 118.82 163.82 120.23
  Q 164.52 120.44 164.70 119.73
  L 165.06 118.33
  Q 165.22 117.69 164.56 117.69
  L 143.84 117.78
  Q 143.50 117.78 143.19 117.62"
/>
<path stroke="#3d504e" vector-effect="non-scaling-stroke" d="
  M 39.71 123.74
  A 0.74 0.74 0.0 0 0 39.00 124.71
  L 39.31 125.71
  Q 39.53 126.40 40.22 126.21
  Q 44.83 124.91 48.19 128.10
  Q 48.50 128.40 48.50 128.83
  L 48.50 133.82
  Q 48.50 134.45 49.13 134.50
  L 52.54 134.81
  Q 53.21 134.87 53.23 134.20
  L 53.33 128.72
  Q 53.34 128.12 53.86 127.81
  Q 57.34 125.76 61.50 126.37
  Q 62.20 126.47 62.31 125.77
  L 62.53 124.29
  Q 62.62 123.71 62.03 123.71
  L 39.71 123.74"
/>
<path stroke="#927a6d" vector-effect="non-scaling-stroke" d="
  M 145.01 128.00
  A 1.05 1.05 0.0 0 0 144.22 126.25
  L 142.25 126.25
  Q 141.75 126.25 141.75 126.75
  L 141.75 127.99
  Q 141.75 128.53 142.27 128.68
  Q 143.99 129.17 145.01 128.00"
/>
<path stroke="#927a6d" vector-effect="non-scaling-stroke" d="
  M 98.86 135.72
  L 105.57 136.86
  Q 106.20 136.97 106.68 136.54
  Q 110.02 133.54 107.87 129.26
  A 1.21 1.19 -21.1 0 0 106.47 128.65
  C 103.70 129.44 98.42 130.81 97.71 133.99
  A 1.44 1.42 -78.9 0 0 98.86 135.72"
/>
<path stroke="#533d3e" vector-effect="non-scaling-stroke" d="
  M 135.7777 130.3071
  A 0.32 0.32 0.0 0 0 135.4639 129.9810
  L 128.1052 129.8397
  A 0.32 0.32 0.0 0 0 127.7791 130.1535
  L 127.7223 133.1129
  A 0.32 0.32 0.0 0 0 128.0361 133.4390
  L 135.3948 133.5803
  A 0.32 0.32 0.0 0 0 135.7209 133.2665
  L 135.7777 130.3071"
/>
<path stroke="#927a6d" vector-effect="non-scaling-stroke" d="
  M 62.3003 132.8799
  A 0.56 0.56 0.0 0 0 61.7683 132.2932
  L 59.6509 132.1897
  A 0.56 0.56 0.0 0 0 59.0642 132.7217
  L 58.9997 134.0401
  A 0.56 0.56 0.0 0 0 59.5317 134.6268
  L 61.6491 134.7303
  A 0.56 0.56 0.0 0 0 62.2358 134.1983
  L 62.3003 132.8799"
/>
<path stroke="#533d3e" vector-effect="non-scaling-stroke" d="
  M 91.48 135.75
  L 68.92 135.75
  Q 68.27 135.75 68.27 136.40
  L 68.24 139.03
  Q 68.24 139.58 68.79 139.58
  L 93.25 139.30
  Q 94.54 139.29 93.56 138.45
  Q 92.62 137.64 92.33 136.42
  Q 92.17 135.75 91.48 135.75"
/>
<path stroke="#533d3e" vector-effect="non-scaling-stroke" d="
  M 128.62 139.41
  A 0.69 0.69 0.0 0 0 127.91 140.12
  L 128.59 159.71
  Q 128.61 160.33 129.23 160.27
  L 134.63 159.72
  Q 135.16 159.66 135.30 159.15
  C 137.01 153.05 136.10 146.35 135.78 140.05
  Q 135.76 139.55 135.26 139.54
  L 128.62 139.41"
/>
<path stroke="#3d504e" vector-effect="non-scaling-stroke" d="
  M 51.14 140.30
  Q 50.71 140.04 50.30 140.41
  A 0.76 0.73 71.2 0 0 50.05 140.95
  C 49.85 146.60 49.01 153.21 50.58 158.66
  A 1.85 1.84 81.8 0 0 52.35 159.99
  L 60.97 160.00
  Q 61.96 160.00 61.99 159.02
  L 62.32 148.80
  Q 62.34 148.35 62.08 147.98
  Q 59.75 144.70 59.09 140.71
  Q 58.98 140.02 58.28 140.06
  L 51.80 140.47
  Q 51.44 140.49 51.14 140.30"
/>
<path stroke="#533d3e" vector-effect="non-scaling-stroke" d="
  M 68.64 145.40
  A 0.32 0.32 0.0 0 0 68.32 145.71
  C 67.96 152.17 67.06 158.62 68.66 165.09
  Q 68.79 165.60 69.32 165.69
  Q 73.50 166.35 77.72 165.90
  C 79.87 165.67 82.48 166.39 84.88 165.53
  Q 85.39 165.34 85.43 164.80
  C 85.72 161.13 84.49 156.33 86.41 153.03
  C 90.52 145.95 101.25 147.10 105.25 153.64
  C 107.38 157.12 106.44 160.86 107.00 164.37
  A 1.52 1.51 85.5 0 0 108.48 165.64
  L 121.19 165.72
  A 1.16 1.16 0.0 0 0 122.35 164.56
  L 122.38 145.88
  A 0.75 0.74 89.6 0 0 121.63 145.13
  L 68.64 145.40"
/>
<path stroke="#3d504e" vector-effect="non-scaling-stroke" d="
  M 100.60 159.31
  C 100.99 154.17 94.78 152.20 91.61 155.56
  Q 91.25 155.94 91.25 156.46
  L 91.25 159.24
  Q 91.25 159.72 91.74 159.73
  L 100.07 159.80
  Q 100.57 159.81 100.60 159.31"
/>
<path stroke="#3d504e" vector-effect="non-scaling-stroke" d="
  M 21.50 59.54
  L 25.81 63.62
  Q 26.30 64.08 26.74 63.58
  L 34.30 55.22
  Q 34.73 54.73 34.28 54.26
  L 29.75 49.54"
/>
<path stroke="#576461" vector-effect="non-scaling-stroke" d="
  M 29.75 49.54
  L 25.76 45.75
  Q 25.36 45.37 24.99 45.79
  L 17.38 54.31
  Q 17.00 54.73 17.39 55.14
  L 21.50 59.54"
/>
<path stroke="#5c7c73" vector-effect="non-scaling-stroke" d="
  M 29.75 49.54
  L 21.50 59.54"
/>
<path stroke="#927a6d" vector-effect="non-scaling-stroke" d="
  M 85.0140 75.3964
  A 2.51 2.51 0.0 0 0 82.4909 72.8996
  L 82.2909 72.9007
  A 2.51 2.51 0.0 0 0 79.7941 75.4238
  L 79.8660 89.1636
  A 2.51 2.51 0.0 0 0 82.3891 91.6604
  L 82.5891 91.6593
  A 2.51 2.51 0.0 0 0 85.0859 89.1362
  L 85.0140 75.3964"
/>
</g>
<g fill="#38383c">
<path d="
  M 25.87 85.94
  A 0.87 0.87 0.0 0 0 24.95 85.24
  C 20.11 85.62 24.08 89.96 23.29 92.24
  C 21.13 98.52 16.19 97.20 11.68 94.66
  Q 11.24 94.41 11.00 93.96
  C 1.64 75.90 30.42 63.24 37.64 79.82
  C 39.86 84.91 38.48 92.98 39.10 98.87
  Q 39.98 107.33 39.70 115.84
  Q 39.68 116.56 40.40 116.47
  L 42.53 116.18
  Q 43.07 116.11 43.06 115.57
  Q 43.01 97.78 42.47 80.02
  C 42.31 74.92 43.29 71.55 45.85 67.52
  C 47.17 65.47 47.06 63.76 47.28 61.49
  Q 48.92 44.82 64.00 39.39
  C 66.52 38.48 69.19 38.84 71.93 38.52
  Q 72.42 38.46 72.83 38.18
  C 82.03 31.77 96.26 31.04 103.12 41.36
  Q 103.39 41.75 103.82 41.56
  C 124.28 32.33 138.05 46.17 138.69 65.73
  Q 139.04 76.33 136.31 84.88
  Q 136.15 85.37 136.38 85.82
  C 137.87 88.89 139.31 91.63 139.82 95.04
  Q 141.04 103.22 141.36 111.50
  Q 141.38 112.03 141.92 112.03
  L 144.08 111.99
  Q 144.76 111.98 144.75 111.30
  C 144.71 96.82 145.70 85.15 145.96 72.06
  Q 146.04 67.84 147.14 65.12
  C 148.28 62.33 152.48 55.44 155.77 58.35
  C 160.02 62.11 161.67 69.08 161.53 74.66
  Q 161.06 93.19 160.90 111.78
  A 0.46 0.46 0.0 0 0 161.45 112.23
  C 163.71 111.78 168.52 111.61 169.83 114.16
  C 170.67 115.81 170.48 121.60 169.58 123.15
  C 168.09 125.71 163.87 125.42 161.35 125.59
  Q 160.81 125.63 160.82 126.17
  Q 161.00 134.95 152.21 134.27
  Q 146.50 133.83 142.09 134.56
  Q 141.53 134.65 141.53 135.21
  Q 141.50 143.50 141.77 151.72
  C 142.06 160.55 139.88 166.87 129.24 165.69
  A 1.50 1.50 0.0 0 0 127.59 167.03
  C 126.97 173.52 111.82 171.65 107.43 171.07
  C 103.94 170.60 102.99 169.23 101.55 166.14
  Q 101.33 165.67 100.81 165.68
  L 91.90 165.78
  Q 91.29 165.79 91.13 166.38
  C 89.73 171.62 85.95 171.56 80.84 171.69
  C 75.83 171.83 68.25 172.91 64.21 168.63
  Q 63.91 168.31 63.77 167.89
  L 63.12 166.01
  Q 62.92 165.40 62.28 165.47
  C 56.66 166.03 46.50 167.42 45.05 159.20
  Q 43.67 151.39 44.55 142.76
  C 44.75 140.83 44.51 133.54 40.83 134.29
  Q 39.93 134.47 39.96 135.39
  Q 40.32 146.21 40.51 156.38
  C 40.53 157.41 40.19 158.44 39.85 159.38
  Q 39.68 159.83 39.87 160.27
  C 41.91 165.21 28.08 168.17 27.57 157.53
  C 26.46 134.49 26.79 111.50 26.61 88.43
  C 26.60 87.67 26.01 86.69 25.87 85.94
  Z
  M 132.45 57.89
  C 129.98 47.53 120.34 41.43 109.95 45.37
  Q 109.46 45.56 109.92 45.81
  Q 117.14 49.82 117.83 58.18
  Q 117.89 58.82 118.53 58.81
  L 131.89 58.61
  A 0.58 0.58 0.0 0 0 132.45 57.89
  Z
  M 65.43 85.68
  C 60.14 87.66 61.73 74.40 61.75 69.76
  Q 61.76 66.38 65.05 66.94
  Q 65.49 67.01 65.58 66.57
  L 66.47 62.05
  Q 66.58 61.51 66.17 61.16
  L 62.17 57.67
  Q 61.82 57.37 61.38 57.50
  Q 55.72 59.20 53.59 64.72
  Q 53.41 65.20 53.68 65.63
  Q 55.47 68.43 56.91 71.44
  C 60.16 78.28 53.83 91.84 66.75 92.12
  A 1.07 1.07 0.0 0 0 67.78 90.70
  L 66.12 86.00
  Q 65.94 85.49 65.43 85.68
  Z
  M 119.93 67.43
  C 122.56 65.95 124.17 67.53 124.24 70.21
  C 124.30 72.55 125.96 88.29 120.20 85.54
  Q 119.78 85.34 119.49 85.69
  L 116.82 88.96
  Q 116.46 89.39 116.79 89.85
  L 118.20 91.80
  Q 118.52 92.24 119.06 92.22
  C 124.46 91.95 128.64 87.20 130.99 82.82
  C 133.71 77.76 133.40 70.52 133.51 64.62
  Q 133.51 64.22 133.11 64.23
  L 117.68 64.62
  A 1.14 1.13 -77.1 0 0 116.68 65.25
  L 114.88 68.88
  Q 114.65 69.35 115.11 69.59
  Q 117.09 70.63 118.38 72.44
  Q 118.80 73.02 118.87 72.31
  L 119.31 68.36
  Q 119.38 67.73 119.93 67.43
  Z
  M 112.61 74.63
  Q 111.38 73.73 109.98 74.31
  L 104.77 76.46
  Q 104.26 76.67 103.75 76.47
  Q 97.51 74.07 94.00 68.50
  Q 93.73 68.08 93.24 68.18
  C 85.40 69.69 78.95 67.76 71.69 64.57
  Q 71.15 64.33 71.02 64.90
  C 69.86 69.94 70.65 76.49 71.02 81.65
  C 72.10 96.95 88.79 104.21 100.53 93.95
  C 103.18 91.63 101.15 86.81 106.51 87.00
  C 112.93 87.22 119.03 79.36 112.61 74.63
  Z
  M 153.19 65.39
  Q 151.31 68.21 151.29 69.75
  Q 151.13 85.34 150.37 100.93
  C 150.21 104.14 150.52 107.83 150.21 111.36
  Q 150.15 112.00 150.79 112.00
  L 154.54 112.00
  Q 155.19 112.00 155.20 111.35
  Q 155.68 90.29 156.21 69.33
  Q 156.27 66.96 153.82 65.27
  Q 153.44 65.01 153.19 65.39
  Z
  M 50.20 70.95
  C 48.77 72.95 47.72 74.28 47.80 76.91
  Q 48.42 96.61 48.79 117.31
  A 0.71 0.70 89.2 0 0 49.49 118.00
  L 53.24 118.00
  Q 53.89 118.00 53.81 117.36
  C 53.40 113.90 53.77 110.36 53.63 107.22
  Q 52.94 92.50 52.73 77.77
  C 52.69 75.04 52.05 73.23 50.78 70.98
  A 0.35 0.35 0.0 0 0 50.20 70.95
  Z
  M 31.88 90.92
  C 33.52 113.76 32.04 136.57 33.30 158.01
  C 33.34 158.68 33.67 159.23 34.37 159.23
  A 0.48 0.47 -0.6 0 0 34.85 158.75
  C 34.63 148.38 34.59 137.88 33.70 127.58
  Q 33.39 124.10 33.95 119.00
  C 34.72 112.00 33.52 101.41 33.58 92.29
  C 33.64 84.23 33.80 76.46 22.77 78.17
  C 16.80 79.10 13.95 84.23 15.43 90.08
  Q 15.56 90.60 16.06 90.79
  L 16.66 91.02
  Q 17.38 91.29 17.21 90.54
  C 15.83 84.15 19.72 78.73 26.31 79.85
  C 32.03 80.82 31.49 85.39 31.88 90.92
  Z
  M 132.15 91.05
  Q 128.10 95.95 122.10 97.98
  Q 121.57 98.16 121.78 98.68
  L 123.35 102.51
  Q 123.56 103.00 124.00 102.71
  L 133.90 96.19
  Q 134.57 95.74 134.28 94.99
  L 132.80 91.15
  A 0.38 0.38 0.0 0 0 132.15 91.05
  Z
  M 85.53 117.92
  C 79.68 114.61 76.51 107.17 75.33 100.84
  Q 75.23 100.35 74.86 100.01
  L 71.92 97.29
  Q 71.49 96.90 71.23 97.42
  Q 70.25 99.42 69.93 101.71
  Q 68.00 115.48 68.35 129.58
  Q 68.36 130.16 68.94 130.15
  L 92.61 129.94
  Q 93.13 129.93 93.45 129.53
  C 96.66 125.62 101.56 124.45 105.46 122.70
  Q 105.98 122.47 106.00 121.90
  C 106.09 119.23 103.95 116.05 107.89 115.00
  A 2.00 2.00 0.0 0 1 110.20 116.06
  Q 111.97 119.70 111.19 123.60
  Q 111.07 124.18 111.44 124.65
  Q 114.98 129.22 114.02 135.10
  Q 113.91 135.77 114.58 135.60
  L 120.27 134.14
  A 1.98 1.97 -7.2 0 0 121.76 132.23
  C 121.78 118.44 119.59 104.56 111.78 92.83
  Q 111.48 92.39 110.96 92.46
  L 108.57 92.79
  Q 107.97 92.87 107.70 93.41
  Q 104.44 99.89 97.85 102.83
  Q 97.45 103.01 97.29 103.41
  C 95.72 107.35 92.11 117.37 86.52 118.11
  Q 85.99 118.18 85.53 117.92
  Z
  M 127.59 107.91
  L 135.20 115.13
  Q 135.62 115.53 135.60 114.94
  L 135.21 102.83
  A 0.40 0.40 0.0 0 0 134.59 102.51
  L 127.65 107.20
  Q 127.18 107.52 127.59 107.91
  Z
  M 89.97 104.56
  C 87.40 104.94 84.63 104.32 82.12 103.68
  A 0.35 0.35 0.0 0 0 81.73 104.19
  L 85.67 111.35
  A 0.87 0.87 0.0 0 0 87.21 111.32
  L 90.34 105.07
  Q 90.64 104.46 89.97 104.56
  Z
  M 128.41 123.23
  Q 131.48 124.71 134.93 124.14
  A 0.49 0.49 0.0 0 0 135.19 123.31
  L 126.89 115.02
  A 0.33 0.32 -71.0 0 0 126.34 115.29
  L 127.08 121.36
  Q 127.23 122.66 128.41 123.23
  Z
  M 143.19 117.62
  C 141.62 116.80 141.12 118.96 141.88 119.96
  Q 142.19 120.37 142.70 120.30
  Q 146.88 119.79 150.33 122.01
  Q 150.75 122.28 150.75 122.77
  L 150.75 128.17
  Q 150.75 128.86 151.43 128.81
  L 154.84 128.57
  Q 155.50 128.53 155.50 127.86
  L 155.50 122.81
  Q 155.50 122.41 155.79 122.13
  Q 159.21 118.82 163.82 120.23
  Q 164.52 120.44 164.70 119.73
  L 165.06 118.33
  Q 165.22 117.69 164.56 117.69
  L 143.84 117.78
  Q 143.50 117.78 143.19 117.62
  Z
  M 39.71 123.74
  A 0.74 0.74 0.0 0 0 39.00 124.71
  L 39.31 125.71
  Q 39.53 126.40 40.22 126.21
  Q 44.83 124.91 48.19 128.10
  Q 48.50 128.40 48.50 128.83
  L 48.50 133.82
  Q 48.50 134.45 49.13 134.50
  L 52.54 134.81
  Q 53.21 134.87 53.23 134.20
  L 53.33 128.72
  Q 53.34 128.12 53.86 127.81
  Q 57.34 125.76 61.50 126.37
  Q 62.20 126.47 62.31 125.77
  L 62.53 124.29
  Q 62.62 123.71 62.03 123.71
  L 39.71 123.74
  Z
  M 145.01 128.00
  A 1.05 1.05 0.0 0 0 144.22 126.25
  L 142.25 126.25
  Q 141.75 126.25 141.75 126.75
  L 141.75 127.99
  Q 141.75 128.53 142.27 128.68
  Q 143.99 129.17 145.01 128.00
  Z
  M 98.86 135.72
  L 105.57 136.86
  Q 106.20 136.97 106.68 136.54
  Q 110.02 133.54 107.87 129.26
  A 1.21 1.19 -21.1 0 0 106.47 128.65
  C 103.70 129.44 98.42 130.81 97.71 133.99
  A 1.44 1.42 -78.9 0 0 98.86 135.72
  Z
  M 135.7777 130.3071
  A 0.32 0.32 0.0 0 0 135.4639 129.9810
  L 128.1052 129.8397
  A 0.32 0.32 0.0 0 0 127.7791 130.1535
  L 127.7223 133.1129
  A 0.32 0.32 0.0 0 0 128.0361 133.4390
  L 135.3948 133.5803
  A 0.32 0.32 0.0 0 0 135.7209 133.2665
  L 135.7777 130.3071
  Z
  M 62.3003 132.8799
  A 0.56 0.56 0.0 0 0 61.7683 132.2932
  L 59.6509 132.1897
  A 0.56 0.56 0.0 0 0 59.0642 132.7217
  L 58.9997 134.0401
  A 0.56 0.56 0.0 0 0 59.5317 134.6268
  L 61.6491 134.7303
  A 0.56 0.56 0.0 0 0 62.2358 134.1983
  L 62.3003 132.8799
  Z
  M 91.48 135.75
  L 68.92 135.75
  Q 68.27 135.75 68.27 136.40
  L 68.24 139.03
  Q 68.24 139.58 68.79 139.58
  L 93.25 139.30
  Q 94.54 139.29 93.56 138.45
  Q 92.62 137.64 92.33 136.42
  Q 92.17 135.75 91.48 135.75
  Z
  M 128.62 139.41
  A 0.69 0.69 0.0 0 0 127.91 140.12
  L 128.59 159.71
  Q 128.61 160.33 129.23 160.27
  L 134.63 159.72
  Q 135.16 159.66 135.30 159.15
  C 137.01 153.05 136.10 146.35 135.78 140.05
  Q 135.76 139.55 135.26 139.54
  L 128.62 139.41
  Z
  M 51.14 140.30
  Q 50.71 140.04 50.30 140.41
  A 0.76 0.73 71.2 0 0 50.05 140.95
  C 49.85 146.60 49.01 153.21 50.58 158.66
  A 1.85 1.84 81.8 0 0 52.35 159.99
  L 60.97 160.00
  Q 61.96 160.00 61.99 159.02
  L 62.32 148.80
  Q 62.34 148.35 62.08 147.98
  Q 59.75 144.70 59.09 140.71
  Q 58.98 140.02 58.28 140.06
  L 51.80 140.47
  Q 51.44 140.49 51.14 140.30
  Z
  M 68.64 145.40
  A 0.32 0.32 0.0 0 0 68.32 145.71
  C 67.96 152.17 67.06 158.62 68.66 165.09
  Q 68.79 165.60 69.32 165.69
  Q 73.50 166.35 77.72 165.90
  C 79.87 165.67 82.48 166.39 84.88 165.53
  Q 85.39 165.34 85.43 164.80
  C 85.72 161.13 84.49 156.33 86.41 153.03
  C 90.52 145.95 101.25 147.10 105.25 153.64
  C 107.38 157.12 106.44 160.86 107.00 164.37
  A 1.52 1.51 85.5 0 0 108.48 165.64
  L 121.19 165.72
  A 1.16 1.16 0.0 0 0 122.35 164.56
  L 122.38 145.88
  A 0.75 0.74 89.6 0 0 121.63 145.13
  L 68.64 145.40
  Z
  M 100.60 159.31
  C 100.99 154.17 94.78 152.20 91.61 155.56
  Q 91.25 155.94 91.25 156.46
  L 91.25 159.24
  Q 91.25 159.72 91.74 159.73
  L 100.07 159.80
  Q 100.57 159.81 100.60 159.31
  Z"
/>
<path d="
  M 12.27 57.48
  C 9.13 53.12 19.56 43.38 22.54 40.45
  C 27.01 36.06 38.50 50.38 40.02 52.77
  C 41.31 54.82 39.62 56.99 38.02 59.19
  C 35.06 63.24 29.07 70.54 24.26 69.04
  C 20.56 67.88 14.13 60.04 12.27 57.48
  Z
  M 21.50 59.54
  L 25.81 63.62
  Q 26.30 64.08 26.74 63.58
  L 34.30 55.22
  Q 34.73 54.73 34.28 54.26
  L 29.75 49.54
  L 25.76 45.75
  Q 25.36 45.37 24.99 45.79
  L 17.38 54.31
  Q 17.00 54.73 17.39 55.14
  L 21.50 59.54
  Z"
/>
<rect x="-2.61" y="-9.38" transform="translate(82.44,82.28) rotate(-0.3)" width="5.22" height="18.76" rx="2.51"/>
</g>
<g fill="#ebbc9e">
<path d="
  M 61.75 69.76
  C 61.73 74.40 60.14 87.66 65.43 85.68
  Q 65.94 85.49 66.12 86.00
  L 67.78 90.70
  A 1.07 1.07 0.0 0 1 66.75 92.12
  C 53.83 91.84 60.16 78.28 56.91 71.44
  Q 55.47 68.43 53.68 65.63
  Q 53.41 65.20 53.59 64.72
  Q 55.72 59.20 61.38 57.50
  Q 61.82 57.37 62.17 57.67
  L 66.17 61.16
  Q 66.58 61.51 66.47 62.05
  L 65.58 66.57
  Q 65.49 67.01 65.05 66.94
  Q 61.76 66.38 61.75 69.76
  Z"
/>
<path d="
  M 119.31 68.36
  L 118.87 72.31
  Q 118.80 73.02 118.38 72.44
  Q 117.09 70.63 115.11 69.59
  Q 114.65 69.35 114.88 68.88
  L 116.68 65.25
  A 1.14 1.13 -77.1 0 1 117.68 64.62
  L 133.11 64.23
  Q 133.51 64.22 133.51 64.62
  C 133.40 70.52 133.71 77.76 130.99 82.82
  C 128.64 87.20 124.46 91.95 119.06 92.22
  Q 118.52 92.24 118.20 91.80
  L 116.79 89.85
  Q 116.46 89.39 116.82 88.96
  L 119.49 85.69
  Q 119.78 85.34 120.20 85.54
  C 125.96 88.29 124.30 72.55 124.24 70.21
  C 124.17 67.53 122.56 65.95 119.93 67.43
  Q 119.38 67.73 119.31 68.36
  Z"
/>
<path d="
  M 112.61 74.63
  C 119.03 79.36 112.93 87.22 106.51 87.00
  C 101.15 86.81 103.18 91.63 100.53 93.95
  C 88.79 104.21 72.10 96.95 71.02 81.65
  C 70.65 76.49 69.86 69.94 71.02 64.90
  Q 71.15 64.33 71.69 64.57
  C 78.95 67.76 85.40 69.69 93.24 68.18
  Q 93.73 68.08 94.00 68.50
  Q 97.51 74.07 103.75 76.47
  Q 104.26 76.67 104.77 76.46
  L 109.98 74.31
  Q 111.38 73.73 112.61 74.63
  Z
  M 85.0140 75.3964
  A 2.51 2.51 0.0 0 0 82.4909 72.8996
  L 82.2909 72.9007
  A 2.51 2.51 0.0 0 0 79.7941 75.4238
  L 79.8660 89.1636
  A 2.51 2.51 0.0 0 0 82.3891 91.6604
  L 82.5891 91.6593
  A 2.51 2.51 0.0 0 0 85.0859 89.1362
  L 85.0140 75.3964
  Z"
/>
<path d="
  M 82.12 103.68
  C 84.63 104.32 87.40 104.94 89.97 104.56
  Q 90.64 104.46 90.34 105.07
  L 87.21 111.32
  A 0.87 0.87 0.0 0 1 85.67 111.35
  L 81.73 104.19
  A 0.35 0.35 0.0 0 1 82.12 103.68
  Z"
/>
<path d="
  M 145.01 128.00
  Q 143.99 129.17 142.27 128.68
  Q 141.75 128.53 141.75 127.99
  L 141.75 126.75
  Q 141.75 126.25 142.25 126.25
  L 144.22 126.25
  A 1.05 1.05 0.0 0 1 145.01 128.00
  Z"
/>
<path d="
  M 98.86 135.72
  A 1.44 1.42 -78.9 0 1 97.71 133.99
  C 98.42 130.81 103.70 129.44 106.47 128.65
  A 1.21 1.19 -21.1 0 1 107.87 129.26
  Q 110.02 133.54 106.68 136.54
  Q 106.20 136.97 105.57 136.86
  L 98.86 135.72
  Z"
/>
<rect x="-1.62" y="-1.22" transform="translate(60.65,133.46) rotate(2.8)" width="3.24" height="2.44" rx="0.56"/>
</g>
<g fill="#6e423f">
<path d="
  M 109.95 45.37
  C 120.34 41.43 129.98 47.53 132.45 57.89
  A 0.58 0.58 0.0 0 1 131.89 58.61
  L 118.53 58.81
  Q 117.89 58.82 117.83 58.18
  Q 117.14 49.82 109.92 45.81
  Q 109.46 45.56 109.95 45.37
  Z"
/>
<path d="
  M 33.30 158.01
  C 32.04 136.57 33.52 113.76 31.88 90.92
  C 31.49 85.39 32.03 80.82 26.31 79.85
  C 19.72 78.73 15.83 84.15 17.21 90.54
  Q 17.38 91.29 16.66 91.02
  L 16.06 90.79
  Q 15.56 90.60 15.43 90.08
  C 13.95 84.23 16.80 79.10 22.77 78.17
  C 33.80 76.46 33.64 84.23 33.58 92.29
  C 33.52 101.41 34.72 112.00 33.95 119.00
  Q 33.39 124.10 33.70 127.58
  C 34.59 137.88 34.63 148.38 34.85 158.75
  A 0.48 0.47 -0.6 0 1 34.37 159.23
  C 33.67 159.23 33.34 158.68 33.30 158.01
  Z"
/>
<path d="
  M 132.15 91.05
  A 0.38 0.38 0.0 0 1 132.80 91.15
  L 134.28 94.99
  Q 134.57 95.74 133.90 96.19
  L 124.00 102.71
  Q 123.56 103.00 123.35 102.51
  L 121.78 98.68
  Q 121.57 98.16 122.10 97.98
  Q 128.10 95.95 132.15 91.05
  Z"
/>
<path d="
  M 75.33 100.84
  C 76.51 107.17 79.68 114.61 85.53 117.92
  Q 85.99 118.18 86.52 118.11
  C 92.11 117.37 95.72 107.35 97.29 103.41
  Q 97.45 103.01 97.85 102.83
  Q 104.44 99.89 107.70 93.41
  Q 107.97 92.87 108.57 92.79
  L 110.96 92.46
  Q 111.48 92.39 111.78 92.83
  C 119.59 104.56 121.78 118.44 121.76 132.23
  A 1.98 1.97 -7.2 0 1 120.27 134.14
  L 114.58 135.60
  Q 113.91 135.77 114.02 135.10
  Q 114.98 129.22 111.44 124.65
  Q 111.07 124.18 111.19 123.60
  Q 111.97 119.70 110.20 116.06
  A 2.00 2.00 0.0 0 0 107.89 115.00
  C 103.95 116.05 106.09 119.23 106.00 121.90
  Q 105.98 122.47 105.46 122.70
  C 101.56 124.45 96.66 125.62 93.45 129.53
  Q 93.13 129.93 92.61 129.94
  L 68.94 130.15
  Q 68.36 130.16 68.35 129.58
  Q 68.00 115.48 69.93 101.71
  Q 70.25 99.42 71.23 97.42
  Q 71.49 96.90 71.92 97.29
  L 74.86 100.01
  Q 75.23 100.35 75.33 100.84
  Z"
/>
<path d="
  M 128.41 123.23
  Q 127.23 122.66 127.08 121.36
  L 126.34 115.29
  A 0.33 0.32 -71.0 0 1 126.89 115.02
  L 135.19 123.31
  A 0.49 0.49 0.0 0 1 134.93 124.14
  Q 131.48 124.71 128.41 123.23
  Z"
/>
<rect x="-4.00" y="-1.80" transform="translate(131.75,131.71) rotate(1.1)" width="8.00" height="3.60" rx="0.32"/>
<path d="
  M 92.33 136.42
  Q 92.62 137.64 93.56 138.45
  Q 94.54 139.29 93.25 139.30
  L 68.79 139.58
  Q 68.24 139.58 68.24 139.03
  L 68.27 136.40
  Q 68.27 135.75 68.92 135.75
  L 91.48 135.75
  Q 92.17 135.75 92.33 136.42
  Z"
/>
<path d="
  M 128.62 139.41
  L 135.26 139.54
  Q 135.76 139.55 135.78 140.05
  C 136.10 146.35 137.01 153.05 135.30 159.15
  Q 135.16 159.66 134.63 159.72
  L 129.23 160.27
  Q 128.61 160.33 128.59 159.71
  L 127.91 140.12
  A 0.69 0.69 0.0 0 1 128.62 139.41
  Z"
/>
<path d="
  M 68.64 145.40
  L 121.63 145.13
  A 0.75 0.74 89.6 0 1 122.38 145.88
  L 122.35 164.56
  A 1.16 1.16 0.0 0 1 121.19 165.72
  L 108.48 165.64
  A 1.52 1.51 85.5 0 1 107.00 164.37
  C 106.44 160.86 107.38 157.12 105.25 153.64
  C 101.25 147.10 90.52 145.95 86.41 153.03
  C 84.49 156.33 85.72 161.13 85.43 164.80
  Q 85.39 165.34 84.88 165.53
  C 82.48 166.39 79.87 165.67 77.72 165.90
  Q 73.50 166.35 69.32 165.69
  Q 68.79 165.60 68.66 165.09
  C 67.06 158.62 67.96 152.17 68.32 145.71
  A 0.32 0.32 0.0 0 1 68.64 145.40
  Z"
/>
</g>
<g fill="#42685f">
<path d="
  M 29.75 49.54
  L 34.28 54.26
  Q 34.73 54.73 34.30 55.22
  L 26.74 63.58
  Q 26.30 64.08 25.81 63.62
  L 21.50 59.54
  L 29.75 49.54
  Z"
/>
<path d="
  M 135.20 115.13
  L 127.59 107.91
  Q 127.18 107.52 127.65 107.20
  L 134.59 102.51
  A 0.40 0.40 0.0 0 1 135.21 102.83
  L 135.60 114.94
  Q 135.62 115.53 135.20 115.13
  Z"
/>
<path d="
  M 143.84 117.78
  L 164.56 117.69
  Q 165.22 117.69 165.06 118.33
  L 164.70 119.73
  Q 164.52 120.44 163.82 120.23
  Q 159.21 118.82 155.79 122.13
  Q 155.50 122.41 155.50 122.81
  L 155.50 127.86
  Q 155.50 128.53 154.84 128.57
  L 151.43 128.81
  Q 150.75 128.86 150.75 128.17
  L 150.75 122.77
  Q 150.75 122.28 150.33 122.01
  Q 146.88 119.79 142.70 120.30
  Q 142.19 120.37 141.88 119.96
  C 141.12 118.96 141.62 116.80 143.19 117.62
  Q 143.50 117.78 143.84 117.78
  Z"
/>
<path d="
  M 39.71 123.74
  L 62.03 123.71
  Q 62.62 123.71 62.53 124.29
  L 62.31 125.77
  Q 62.20 126.47 61.50 126.37
  Q 57.34 125.76 53.86 127.81
  Q 53.34 128.12 53.33 128.72
  L 53.23 134.20
  Q 53.21 134.87 52.54 134.81
  L 49.13 134.50
  Q 48.50 134.45 48.50 133.82
  L 48.50 128.83
  Q 48.50 128.40 48.19 128.10
  Q 44.83 124.91 40.22 126.21
  Q 39.53 126.40 39.31 125.71
  L 39.00 124.71
  A 0.74 0.74 0.0 0 1 39.71 123.74
  Z"
/>
<path d="
  M 51.80 140.47
  L 58.28 140.06
  Q 58.98 140.02 59.09 140.71
  Q 59.75 144.70 62.08 147.98
  Q 62.34 148.35 62.32 148.80
  L 61.99 159.02
  Q 61.96 160.00 60.97 160.00
  L 52.35 159.99
  A 1.85 1.84 81.8 0 1 50.58 158.66
  C 49.01 153.21 49.85 146.60 50.05 140.95
  A 0.76 0.73 71.2 0 1 50.30 140.41
  Q 50.71 140.04 51.14 140.30
  Q 51.44 140.49 51.80 140.47
  Z"
/>
<path d="
  M 91.61 155.56
  C 94.78 152.20 100.99 154.17 100.60 159.31
  Q 100.57 159.81 100.07 159.80
  L 91.74 159.73
  Q 91.25 159.72 91.25 159.24
  L 91.25 156.46
  Q 91.25 155.94 91.61 155.56
  Z"
/>
</g>
<g fill="#f8f8f8">
<path d="
  M 153.82 65.27
  Q 156.27 66.96 156.21 69.33
  Q 155.68 90.29 155.20 111.35
  Q 155.19 112.00 154.54 112.00
  L 150.79 112.00
  Q 150.15 112.00 150.21 111.36
  C 150.52 107.83 150.21 104.14 150.37 100.93
  Q 151.13 85.34 151.29 69.75
  Q 151.31 68.21 153.19 65.39
  Q 153.44 65.01 153.82 65.27
  Z"
/>
<path d="
  M 50.20 70.95
  A 0.35 0.35 0.0 0 1 50.78 70.98
  C 52.05 73.23 52.69 75.04 52.73 77.77
  Q 52.94 92.50 53.63 107.22
  C 53.77 110.36 53.40 113.90 53.81 117.36
  Q 53.89 118.00 53.24 118.00
  L 49.49 118.00
  A 0.71 0.70 89.2 0 1 48.79 117.31
  Q 48.42 96.61 47.80 76.91
  C 47.72 74.28 48.77 72.95 50.20 70.95
  Z"
/>
</g>
<path fill="#759086" d="
  M 29.75 49.54
  L 21.50 59.54
  L 17.39 55.14
  Q 17.00 54.73 17.38 54.31
  L 24.99 45.79
  Q 25.36 45.37 25.76 45.75
  L 29.75 49.54
  Z"
/>
</svg>
