<?xml version="1.0" encoding="UTF-8" standalone="no"?>
<!DOCTYPE svg PUBLIC "-//W3C//DTD SVG 1.1//EN" "http://www.w3.org/Graphics/SVG/1.1/DTD/svg11.dtd">
<svg xmlns="http://www.w3.org/2000/svg" version="1.1" viewBox="0 0 180 180">
<g stroke-width="2.00" fill="none" stroke-linecap="butt">
<path stroke="#927a6d" vector-effect="non-scaling-stroke" d="
  M 78.91 58.79
  C 79.00 54.55 83.80 55.13 83.92 58.56
  Q 84.10 63.30 84.31 68.03
  Q 84.33 68.50 84.80 68.50
  L 85.42 68.50
  Q 86.13 68.50 86.15 67.79
  Q 86.60 50.42 102.72 45.19
  Q 103.17 45.05 103.03 44.59
  C 98.96 32.02 82.66 29.25 74.48 38.86
  C 72.26 41.47 70.95 45.34 69.79 48.70
  Q 69.62 49.20 69.98 49.59
  C 75.56 55.58 77.62 59.48 77.82 67.68
  Q 77.83 68.19 78.22 68.23
  Q 78.73 68.30 78.74 67.78
  Q 78.81 63.29 78.91 58.79"
/>
<path stroke="#927a6d" vector-effect="non-scaling-stroke" d="
  M 79.56 74.69
  C 77.10 73.11 71.37 75.96 71.94 70.34
  C 74.28 47.34 44.13 42.06 38.22 64.57
  C 36.95 69.38 37.65 75.40 37.98 80.65
  C 38.76 93.23 49.08 101.92 61.68 97.69
  Q 65.79 96.31 68.21 92.89
  C 69.63 90.88 68.76 88.49 71.76 87.06
  Q 72.21 86.84 72.71 86.89
  C 79.76 87.62 86.42 79.09 79.56 74.69"
/>
<path stroke="#927a6d" vector-effect="non-scaling-stroke" d="
  M 91.99 69.29
  C 92.21 72.56 91.08 74.96 87.40 74.07
  Q 86.83 73.93 87.04 74.48
  Q 89.32 80.25 86.17 85.68
  Q 85.74 86.41 86.58 86.51
  L 92.59 87.22
  Q 93.14 87.28 93.52 87.69
  C 100.09 94.99 115.78 100.71 122.65 90.16
  C 124.23 87.74 125.72 85.70 125.92 82.68
  Q 126.27 77.37 126.44 72.04
  C 126.84 59.41 119.18 47.65 104.96 50.81
  C 95.88 52.83 91.39 60.39 91.99 69.29"
/>
<path stroke="#533d3e" vector-effect="non-scaling-stroke" d="
  M 157.03 84.35
  C 148.04 81.98 145.31 87.45 145.40 95.25
  C 145.50 103.89 144.74 112.90 144.84 121.00
  Q 145.08 142.82 144.15 164.63
  Q 144.13 165.09 144.58 165.19
  Q 145.75 165.43 145.81 164.25
  C 146.93 142.73 145.84 115.82 147.44 91.67
  C 148.07 82.18 164.06 83.77 161.71 96.71
  Q 161.59 97.38 162.23 97.14
  C 166.10 95.70 163.49 88.82 161.61 86.88
  Q 159.89 85.10 157.03 84.35"
/>
<path stroke="#533d3e" vector-effect="non-scaling-stroke" d="
  M 86.96 92.53
  Q 86.44 92.20 86.10 92.52
  Q 85.76 92.83 85.98 93.24
  C 91.13 103.06 92.92 111.85 94.30 123.54
  Q 94.36 124.04 94.84 124.16
  Q 98.29 125.02 100.92 127.34
  A 0.40 0.40 0.0 0 0 101.51 126.80
  C 94.65 117.64 91.11 104.35 88.75 93.31
  Q 88.62 92.75 88.05 92.75
  Q 87.89 92.75 87.72 92.75
  Q 87.31 92.75 86.96 92.53"
/>
<path stroke="#533d3e" vector-effect="non-scaling-stroke" d="
  M 56.09 117.35
  C 48.68 121.32 43.42 105.46 42.23 100.80
  Q 42.11 100.34 41.77 100.01
  L 38.90 97.24
  Q 38.56 96.91 38.31 97.31
  Q 37.31 98.92 37.00 101.25
  C 35.42 113.31 35.33 123.89 35.19 135.52
  Q 35.18 136.10 35.77 136.13
  L 59.15 137.17
  A 0.27 0.27 0.0 0 0 59.43 136.85
  C 57.72 127.31 65.87 125.43 72.52 122.68
  Q 73.15 122.41 73.05 121.74
  L 72.47 117.58
  A 2.01 2.00 81.9 0 1 74.17 115.30
  C 78.76 114.64 78.79 120.85 78.16 123.64
  Q 78.05 124.15 78.37 124.56
  Q 81.89 129.12 81.06 135.00
  A 0.53 0.52 -3.0 0 0 81.71 135.58
  C 84.41 134.88 89.02 134.91 88.77 131.25
  C 87.74 116.14 87.03 105.33 78.76 92.81
  Q 78.45 92.35 77.92 92.44
  L 75.56 92.84
  Q 74.98 92.93 74.71 93.46
  Q 71.49 99.83 64.98 102.76
  Q 64.48 102.98 64.25 103.48
  C 62.56 107.20 59.19 115.69 56.09 117.35"
/>
<path stroke="#98989a" vector-effect="non-scaling-stroke" d="
  M 123.54 97.80
  C 114.95 103.45 104.21 102.36 95.79 97.01
  Q 95.33 96.72 95.46 97.24
  C 98.27 108.96 102.74 121.88 112.04 130.08
  Q 112.51 130.49 112.88 129.99
  C 119.09 121.60 122.95 107.96 124.03 98.10
  Q 124.11 97.42 123.54 97.80"
/>
<path stroke="#927a6d" vector-effect="non-scaling-stroke" d="
  M 56.98 104.54
  C 54.29 104.79 51.95 104.32 49.32 103.84
  Q 48.77 103.74 48.96 104.27
  Q 50.42 108.33 53.19 111.66
  A 0.55 0.54 -51.5 0 0 54.10 111.55
  L 57.34 105.07
  Q 57.63 104.48 56.98 104.54"
/>
<path stroke="#533d3e" vector-effect="non-scaling-stroke" d="
  M 104.92 134.05
  C 104.15 139.23 100.98 141.66 95.76 141.85
  A 0.71 0.71 0.0 0 0 95.07 142.57
  L 95.30 165.37
  Q 95.31 165.68 95.62 165.68
  L 126.47 165.99
  A 2.09 2.09 0.0 0 0 128.53 164.36
  C 130.31 156.48 128.75 146.98 128.78 139.16
  Q 128.84 124.61 128.22 110.09
  A 0.32 0.32 0.0 0 0 127.59 110.01
  C 126.28 114.32 118.67 140.80 110.82 136.42
  Q 108.52 135.13 105.34 131.66
  Q 104.81 131.08 104.66 131.85
  Q 104.55 132.43 104.80 133.07
  Q 104.99 133.55 104.92 134.05"
/>
<path stroke="#927a6d" vector-effect="non-scaling-stroke" d="
  M 21.43 131.43
  A 1.18 1.18 0.0 0 0 21.90 133.17
  Q 25.13 134.70 28.73 134.75
  Q 29.25 134.75 29.25 134.23
  L 29.25 128.27
  Q 29.25 127.85 28.83 127.83
  Q 24.04 127.62 21.43 131.43"
/>
<path stroke="#927a6d" vector-effect="non-scaling-stroke" d="
  M 139.26 128.78
  A 0.52 0.52 0.0 0 0 138.82 128.27
  L 135.36 127.69
  A 0.52 0.52 0.0 0 0 134.75 128.20
  L 134.75 134.35
  A 0.52 0.52 0.0 0 0 135.34 134.87
  L 138.77 134.39
  A 0.52 0.52 0.0 0 0 139.21 133.88
  L 139.26 128.78"
/>
<path stroke="#927a6d" vector-effect="non-scaling-stroke" d="
  M 66.00 135.77
  L 72.54 136.82
  Q 73.11 136.92 73.58 136.56
  Q 77.15 133.78 74.89 129.44
  Q 74.33 128.36 73.17 128.71
  C 70.51 129.50 65.20 130.98 64.73 134.03
  A 1.54 1.53 -81.3 0 0 66.00 135.77"
/>
<path stroke="#927a6d" vector-effect="non-scaling-stroke" d="
  M 95.66 130.38
  Q 94.73 130.06 94.74 131.04
  L 94.76 135.75
  Q 94.76 136.23 95.23 136.23
  Q 97.36 136.27 98.97 134.98
  Q 99.45 134.60 99.26 134.03
  Q 98.38 131.34 95.66 130.38"
/>
<path stroke="#533d3e" vector-effect="non-scaling-stroke" d="
  M 88.22 141.90
  C 71.01 143.72 53.13 143.03 35.86 141.89
  Q 35.34 141.86 35.31 142.38
  C 34.78 151.12 34.11 158.33 35.60 164.93
  Q 35.71 165.42 36.18 165.58
  C 39.98 166.84 47.38 165.84 51.57 165.68
  A 0.99 0.99 0.0 0 0 52.52 164.66
  C 52.35 157.65 51.40 149.41 60.99 148.39
  Q 69.87 147.44 73.11 155.82
  C 74.08 158.32 73.69 161.37 73.92 164.23
  A 1.53 1.52 -2.0 0 0 75.43 165.63
  L 87.96 165.72
  Q 89.39 165.73 89.39 164.29
  L 89.31 142.89
  A 0.99 0.99 0.0 0 0 88.22 141.90"
/>
<path stroke="#927a6d" vector-effect="non-scaling-stroke" d="
  M 52.0300 75.4072
  A 2.54 2.54 0.0 0 0 49.4680 72.8895
  L 49.2680 72.8912
  A 2.54 2.54 0.0 0 0 46.7502 75.4533
  L 46.8700 89.1728
  A 2.54 2.54 0.0 0 0 49.4320 91.6905
  L 49.6320 91.6888
  A 2.54 2.54 0.0 0 0 52.1498 89.1267
  L 52.0300 75.4072"
/>
<path stroke="#927a6d" vector-effect="non-scaling-stroke" d="
  M 117.1635 75.5420
  A 2.45 2.45 0.0 0 0 114.7436 73.0623
  L 114.4836 73.0591
  A 2.45 2.45 0.0 0 0 112.0039 75.4790
  L 111.8365 89.1780
  A 2.45 2.45 0.0 0 0 114.2564 91.6577
  L 114.5164 91.6609
  A 2.45 2.45 0.0 0 0 116.9961 89.2410
  L 117.1635 75.5420"
/>
</g>
<g fill="#38383c">
<path d="
  M 134.57 141.22
  Q 134.36 149.80 134.77 158.39
  C 135.04 163.92 133.77 171.28 126.69 171.67
  C 118.55 172.12 108.02 171.27 101.10 171.29
  Q 91.73 171.32 80.26 171.86
  Q 76.72 172.02 72.94 170.97
  C 63.97 168.47 72.69 149.97 59.58 154.43
  A 2.09 2.09 0.0 0 0 58.16 156.50
  C 58.43 163.13 60.24 171.21 50.49 171.63
  C 44.77 171.88 35.84 172.91 31.95 169.31
  C 27.67 165.34 29.41 146.91 29.58 141.17
  A 0.69 0.69 0.0 0 0 28.87 140.46
  C 22.41 140.60 10.50 135.98 17.36 127.33
  Q 21.59 122.00 29.14 122.24
  Q 29.77 122.26 29.77 121.63
  C 29.69 111.89 29.89 99.80 33.69 93.68
  C 35.97 89.99 32.81 86.10 32.60 82.43
  C 32.00 71.89 31.52 61.40 37.85 53.38
  Q 47.84 40.72 64.68 46.39
  Q 65.16 46.55 65.33 46.08
  C 66.42 43.16 67.30 39.96 68.96 37.53
  C 79.05 22.83 99.41 24.86 107.78 40.20
  C 108.50 41.51 108.67 42.38 108.80 43.89
  Q 108.85 44.47 109.43 44.52
  C 125.93 45.89 132.82 60.54 131.77 75.44
  C 131.58 78.01 131.57 82.93 130.61 86.64
  C 128.95 93.15 132.30 96.08 133.04 102.01
  Q 134.25 111.78 134.34 121.60
  Q 134.34 122.13 134.88 122.17
  L 138.62 122.44
  Q 139.22 122.49 139.22 121.88
  C 139.30 112.41 140.38 102.10 140.17 91.77
  C 139.76 70.68 174.17 75.60 169.09 96.98
  C 166.79 106.64 151.81 103.09 156.54 94.08
  A 1.59 1.58 41.0 0 0 156.42 92.41
  Q 155.99 91.82 155.21 91.50
  A 2.03 2.03 0.0 0 0 152.43 93.36
  C 152.15 116.81 152.59 140.11 151.42 163.50
  C 151.10 170.00 146.00 172.59 140.04 169.50
  A 2.05 2.04 -78.2 0 1 138.95 167.83
  Q 138.05 154.33 139.15 140.84
  Q 139.21 140.16 138.54 140.23
  L 135.16 140.58
  Q 134.58 140.64 134.57 141.22
  Z
  M 78.91 58.79
  C 79.00 54.55 83.80 55.13 83.92 58.56
  Q 84.10 63.30 84.31 68.03
  Q 84.33 68.50 84.80 68.50
  L 85.42 68.50
  Q 86.13 68.50 86.15 67.79
  Q 86.60 50.42 102.72 45.19
  Q 103.17 45.05 103.03 44.59
  C 98.96 32.02 82.66 29.25 74.48 38.86
  C 72.26 41.47 70.95 45.34 69.79 48.70
  Q 69.62 49.20 69.98 49.59
  C 75.56 55.58 77.62 59.48 77.82 67.68
  Q 77.83 68.19 78.22 68.23
  Q 78.73 68.30 78.74 67.78
  Q 78.81 63.29 78.91 58.79
  Z
  M 79.56 74.69
  C 77.10 73.11 71.37 75.96 71.94 70.34
  C 74.28 47.34 44.13 42.06 38.22 64.57
  C 36.95 69.38 37.65 75.40 37.98 80.65
  C 38.76 93.23 49.08 101.92 61.68 97.69
  Q 65.79 96.31 68.21 92.89
  C 69.63 90.88 68.76 88.49 71.76 87.06
  Q 72.21 86.84 72.71 86.89
  C 79.76 87.62 86.42 79.09 79.56 74.69
  Z
  M 91.99 69.29
  C 92.21 72.56 91.08 74.96 87.40 74.07
  Q 86.83 73.93 87.04 74.48
  Q 89.32 80.25 86.17 85.68
  Q 85.74 86.41 86.58 86.51
  L 92.59 87.22
  Q 93.14 87.28 93.52 87.69
  C 100.09 94.99 115.78 100.71 122.65 90.16
  C 124.23 87.74 125.72 85.70 125.92 82.68
  Q 126.27 77.37 126.44 72.04
  C 126.84 59.41 119.18 47.65 104.96 50.81
  C 95.88 52.83 91.39 60.39 91.99 69.29
  Z
  M 157.03 84.35
  C 148.04 81.98 145.31 87.45 145.40 95.25
  C 145.50 103.89 144.74 112.90 144.84 121.00
  Q 145.08 142.82 144.15 164.63
  Q 144.13 165.09 144.58 165.19
  Q 145.75 165.43 145.81 164.25
  C 146.93 142.73 145.84 115.82 147.44 91.67
  C 148.07 82.18 164.06 83.77 161.71 96.71
  Q 161.59 97.38 162.23 97.14
  C 166.10 95.70 163.49 88.82 161.61 86.88
  Q 159.89 85.10 157.03 84.35
  Z
  M 86.96 92.53
  Q 86.44 92.20 86.10 92.52
  Q 85.76 92.83 85.98 93.24
  C 91.13 103.06 92.92 111.85 94.30 123.54
  Q 94.36 124.04 94.84 124.16
  Q 98.29 125.02 100.92 127.34
  A 0.40 0.40 0.0 0 0 101.51 126.80
  C 94.65 117.64 91.11 104.35 88.75 93.31
  Q 88.62 92.75 88.05 92.75
  Q 87.89 92.75 87.72 92.75
  Q 87.31 92.75 86.96 92.53
  Z
  M 56.09 117.35
  C 48.68 121.32 43.42 105.46 42.23 100.80
  Q 42.11 100.34 41.77 100.01
  L 38.90 97.24
  Q 38.56 96.91 38.31 97.31
  Q 37.31 98.92 37.00 101.25
  C 35.42 113.31 35.33 123.89 35.19 135.52
  Q 35.18 136.10 35.77 136.13
  L 59.15 137.17
  A 0.27 0.27 0.0 0 0 59.43 136.85
  C 57.72 127.31 65.87 125.43 72.52 122.68
  Q 73.15 122.41 73.05 121.74
  L 72.47 117.58
  A 2.01 2.00 81.9 0 1 74.17 115.30
  C 78.76 114.64 78.79 120.85 78.16 123.64
  Q 78.05 124.15 78.37 124.56
  Q 81.89 129.12 81.06 135.00
  A 0.53 0.52 -3.0 0 0 81.71 135.58
  C 84.41 134.88 89.02 134.91 88.77 131.25
  C 87.74 116.14 87.03 105.33 78.76 92.81
  Q 78.45 92.35 77.92 92.44
  L 75.56 92.84
  Q 74.98 92.93 74.71 93.46
  Q 71.49 99.83 64.98 102.76
  Q 64.48 102.98 64.25 103.48
  C 62.56 107.20 59.19 115.69 56.09 117.35
  Z
  M 123.54 97.80
  C 114.95 103.45 104.21 102.36 95.79 97.01
  Q 95.33 96.72 95.46 97.24
  C 98.27 108.96 102.74 121.88 112.04 130.08
  Q 112.51 130.49 112.88 129.99
  C 119.09 121.60 122.95 107.96 124.03 98.10
  Q 124.11 97.42 123.54 97.80
  Z
  M 56.98 104.54
  C 54.29 104.79 51.95 104.32 49.32 103.84
  Q 48.77 103.74 48.96 104.27
  Q 50.42 108.33 53.19 111.66
  A 0.55 0.54 -51.5 0 0 54.10 111.55
  L 57.34 105.07
  Q 57.63 104.48 56.98 104.54
  Z
  M 104.92 134.05
  C 104.15 139.23 100.98 141.66 95.76 141.85
  A 0.71 0.71 0.0 0 0 95.07 142.57
  L 95.30 165.37
  Q 95.31 165.68 95.62 165.68
  L 126.47 165.99
  A 2.09 2.09 0.0 0 0 128.53 164.36
  C 130.31 156.48 128.75 146.98 128.78 139.16
  Q 128.84 124.61 128.22 110.09
  A 0.32 0.32 0.0 0 0 127.59 110.01
  C 126.28 114.32 118.67 140.80 110.82 136.42
  Q 108.52 135.13 105.34 131.66
  Q 104.81 131.08 104.66 131.85
  Q 104.55 132.43 104.80 133.07
  Q 104.99 133.55 104.92 134.05
  Z
  M 21.43 131.43
  A 1.18 1.18 0.0 0 0 21.90 133.17
  Q 25.13 134.70 28.73 134.75
  Q 29.25 134.75 29.25 134.23
  L 29.25 128.27
  Q 29.25 127.85 28.83 127.83
  Q 24.04 127.62 21.43 131.43
  Z
  M 139.26 128.78
  A 0.52 0.52 0.0 0 0 138.82 128.27
  L 135.36 127.69
  A 0.52 0.52 0.0 0 0 134.75 128.20
  L 134.75 134.35
  A 0.52 0.52 0.0 0 0 135.34 134.87
  L 138.77 134.39
  A 0.52 0.52 0.0 0 0 139.21 133.88
  L 139.26 128.78
  Z
  M 66.00 135.77
  L 72.54 136.82
  Q 73.11 136.92 73.58 136.56
  Q 77.15 133.78 74.89 129.44
  Q 74.33 128.36 73.17 128.71
  C 70.51 129.50 65.20 130.98 64.73 134.03
  A 1.54 1.53 -81.3 0 0 66.00 135.77
  Z
  M 95.66 130.38
  Q 94.73 130.06 94.74 131.04
  L 94.76 135.75
  Q 94.76 136.23 95.23 136.23
  Q 97.36 136.27 98.97 134.98
  Q 99.45 134.60 99.26 134.03
  Q 98.38 131.34 95.66 130.38
  Z
  M 88.22 141.90
  C 71.01 143.72 53.13 143.03 35.86 141.89
  Q 35.34 141.86 35.31 142.38
  C 34.78 151.12 34.11 158.33 35.60 164.93
  Q 35.71 165.42 36.18 165.58
  C 39.98 166.84 47.38 165.84 51.57 165.68
  A 0.99 0.99 0.0 0 0 52.52 164.66
  C 52.35 157.65 51.40 149.41 60.99 148.39
  Q 69.87 147.44 73.11 155.82
  C 74.08 158.32 73.69 161.37 73.92 164.23
  A 1.53 1.52 -2.0 0 0 75.43 165.63
  L 87.96 165.72
  Q 89.39 165.73 89.39 164.29
  L 89.31 142.89
  A 0.99 0.99 0.0 0 0 88.22 141.90
  Z"
/>
<rect x="-2.64" y="-9.40" transform="translate(49.45,82.29) rotate(-0.5)" width="5.28" height="18.80" rx="2.54"/>
<rect x="-2.58" y="-9.30" transform="translate(114.50,82.36) rotate(0.7)" width="5.16" height="18.60" rx="2.45"/>
</g>
<g fill="#ebbc9e">
<path d="
  M 83.92 58.56
  C 83.80 55.13 79.00 54.55 78.91 58.79
  Q 78.81 63.29 78.74 67.78
  Q 78.73 68.30 78.22 68.23
  Q 77.83 68.19 77.82 67.68
  C 77.62 59.48 75.56 55.58 69.98 49.59
  Q 69.62 49.20 69.79 48.70
  C 70.95 45.34 72.26 41.47 74.48 38.86
  C 82.66 29.25 98.96 32.02 103.03 44.59
  Q 103.17 45.05 102.72 45.19
  Q 86.60 50.42 86.15 67.79
  Q 86.13 68.50 85.42 68.50
  L 84.80 68.50
  Q 84.33 68.50 84.31 68.03
  Q 84.10 63.30 83.92 58.56
  Z"
/>
<path d="
  M 79.56 74.69
  C 86.42 79.09 79.76 87.62 72.71 86.89
  Q 72.21 86.84 71.76 87.06
  C 68.76 88.49 69.63 90.88 68.21 92.89
  Q 65.79 96.31 61.68 97.69
  C 49.08 101.92 38.76 93.23 37.98 80.65
  C 37.65 75.40 36.95 69.38 38.22 64.57
  C 44.13 42.06 74.28 47.34 71.94 70.34
  C 71.37 75.96 77.10 73.11 79.56 74.69
  Z
  M 52.0300 75.4072
  A 2.54 2.54 0.0 0 0 49.4680 72.8895
  L 49.2680 72.8912
  A 2.54 2.54 0.0 0 0 46.7502 75.4533
  L 46.8700 89.1728
  A 2.54 2.54 0.0 0 0 49.4320 91.6905
  L 49.6320 91.6888
  A 2.54 2.54 0.0 0 0 52.1498 89.1267
  L 52.0300 75.4072
  Z"
/>
<path d="
  M 91.99 69.29
  C 91.39 60.39 95.88 52.83 104.96 50.81
  C 119.18 47.65 126.84 59.41 126.44 72.04
  Q 126.27 77.37 125.92 82.68
  C 125.72 85.70 124.23 87.74 122.65 90.16
  C 115.78 100.71 100.09 94.99 93.52 87.69
  Q 93.14 87.28 92.59 87.22
  L 86.58 86.51
  Q 85.74 86.41 86.17 85.68
  Q 89.32 80.25 87.04 74.48
  Q 86.83 73.93 87.40 74.07
  C 91.08 74.96 92.21 72.56 91.99 69.29
  Z
  M 117.1635 75.5420
  A 2.45 2.45 0.0 0 0 114.7436 73.0623
  L 114.4836 73.0591
  A 2.45 2.45 0.0 0 0 112.0039 75.4790
  L 111.8365 89.1780
  A 2.45 2.45 0.0 0 0 114.2564 91.6577
  L 114.5164 91.6609
  A 2.45 2.45 0.0 0 0 116.9961 89.2410
  L 117.1635 75.5420
  Z"
/>
<path d="
  M 49.32 103.84
  C 51.95 104.32 54.29 104.79 56.98 104.54
  Q 57.63 104.48 57.34 105.07
  L 54.10 111.55
  A 0.55 0.54 -51.5 0 1 53.19 111.66
  Q 50.42 108.33 48.96 104.27
  Q 48.77 103.74 49.32 103.84
  Z"
/>
<path d="
  M 21.43 131.43
  Q 24.04 127.62 28.83 127.83
  Q 29.25 127.85 29.25 128.27
  L 29.25 134.23
  Q 29.25 134.75 28.73 134.75
  Q 25.13 134.70 21.90 133.17
  A 1.18 1.18 0.0 0 1 21.43 131.43
  Z"
/>
<path d="
  M 139.26 128.78
  L 139.21 133.88
  A 0.52 0.52 0.0 0 1 138.77 134.39
  L 135.34 134.87
  A 0.52 0.52 0.0 0 1 134.75 134.35
  L 134.75 128.20
  A 0.52 0.52 0.0 0 1 135.36 127.69
  L 138.82 128.27
  A 0.52 0.52 0.0 0 1 139.26 128.78
  Z"
/>
<path d="
  M 66.00 135.77
  A 1.54 1.53 -81.3 0 1 64.73 134.03
  C 65.20 130.98 70.51 129.50 73.17 128.71
  Q 74.33 128.36 74.89 129.44
  Q 77.15 133.78 73.58 136.56
  Q 73.11 136.92 72.54 136.82
  L 66.00 135.77
  Z"
/>
<path d="
  M 95.66 130.38
  Q 98.38 131.34 99.26 134.03
  Q 99.45 134.60 98.97 134.98
  Q 97.36 136.27 95.23 136.23
  Q 94.76 136.23 94.76 135.75
  L 94.74 131.04
  Q 94.73 130.06 95.66 130.38
  Z"
/>
</g>
<g fill="#6e423f">
<path d="
  M 161.61 86.88
  C 163.49 88.82 166.10 95.70 162.23 97.14
  Q 161.59 97.38 161.71 96.71
  C 164.06 83.77 148.07 82.18 147.44 91.67
  C 145.84 115.82 146.93 142.73 145.81 164.25
  Q 145.75 165.43 144.58 165.19
  Q 144.13 165.09 144.15 164.63
  Q 145.08 142.82 144.84 121.00
  C 144.74 112.90 145.50 103.89 145.40 95.25
  C 145.31 87.45 148.04 81.98 157.03 84.35
  Q 159.89 85.10 161.61 86.88
  Z"
/>
<path d="
  M 87.72 92.75
  Q 87.89 92.75 88.05 92.75
  Q 88.62 92.75 88.75 93.31
  C 91.11 104.35 94.65 117.64 101.51 126.80
  A 0.40 0.40 0.0 0 1 100.92 127.34
  Q 98.29 125.02 94.84 124.16
  Q 94.36 124.04 94.30 123.54
  C 92.92 111.85 91.13 103.06 85.98 93.24
  Q 85.76 92.83 86.10 92.52
  Q 86.44 92.20 86.96 92.53
  Q 87.31 92.75 87.72 92.75
  Z"
/>
<path d="
  M 42.23 100.80
  C 43.42 105.46 48.68 121.32 56.09 117.35
  C 59.19 115.69 62.56 107.20 64.25 103.48
  Q 64.48 102.98 64.98 102.76
  Q 71.49 99.83 74.71 93.46
  Q 74.98 92.93 75.56 92.84
  L 77.92 92.44
  Q 78.45 92.35 78.76 92.81
  C 87.03 105.33 87.74 116.14 88.77 131.25
  C 89.02 134.91 84.41 134.88 81.71 135.58
  A 0.53 0.52 -3.0 0 1 81.06 135.00
  Q 81.89 129.12 78.37 124.56
  Q 78.05 124.15 78.16 123.64
  C 78.79 120.85 78.76 114.64 74.17 115.30
  A 2.01 2.00 81.9 0 0 72.47 117.58
  L 73.05 121.74
  Q 73.15 122.41 72.52 122.68
  C 65.87 125.43 57.72 127.31 59.43 136.85
  A 0.27 0.27 0.0 0 1 59.15 137.17
  L 35.77 136.13
  Q 35.18 136.10 35.19 135.52
  C 35.33 123.89 35.42 113.31 37.00 101.25
  Q 37.31 98.92 38.31 97.31
  Q 38.56 96.91 38.90 97.24
  L 41.77 100.01
  Q 42.11 100.34 42.23 100.80
  Z"
/>
<path d="
  M 104.80 133.07
  Q 104.55 132.43 104.66 131.85
  Q 104.81 131.08 105.34 131.66
  Q 108.52 135.13 110.82 136.42
  C 118.67 140.80 126.28 114.32 127.59 110.01
  A 0.32 0.32 0.0 0 1 128.22 110.09
  Q 128.84 124.61 128.78 139.16
  C 128.75 146.98 130.31 156.48 128.53 164.36
  A 2.09 2.09 0.0 0 1 126.47 165.99
  L 95.62 165.68
  Q 95.31 165.68 95.30 165.37
  L 95.07 142.57
  A 0.71 0.71 0.0 0 1 95.76 141.85
  C 100.98 141.66 104.15 139.23 104.92 134.05
  Q 104.99 133.55 104.80 133.07
  Z"
/>
<path d="
  M 35.86 141.89
  C 53.13 143.03 71.01 143.72 88.22 141.90
  A 0.99 0.99 0.0 0 1 89.31 142.89
  L 89.39 164.29
  Q 89.39 165.73 87.96 165.72
  L 75.43 165.63
  A 1.53 1.52 -2.0 0 1 73.92 164.23
  C 73.69 161.37 74.08 158.32 73.11 155.82
  Q 69.87 147.44 60.99 148.39
  C 51.40 149.41 52.35 157.65 52.52 164.66
  A 0.99 0.99 0.0 0 1 51.57 165.68
  C 47.38 165.84 39.98 166.84 36.18 165.58
  Q 35.71 165.42 35.60 164.93
  C 34.11 158.33 34.78 151.12 35.31 142.38
  Q 35.34 141.86 35.86 141.89
  Z"
/>
</g>
<path fill="#f8f8f8" d="
  M 95.79 97.01
  C 104.21 102.36 114.95 103.45 123.54 97.80
  Q 124.11 97.42 124.03 98.10
  C 122.95 107.96 119.09 121.60 112.88 129.99
  Q 112.51 130.49 112.04 130.08
  C 102.74 121.88 98.27 108.96 95.46 97.24
  Q 95.33 96.72 95.79 97.01
  Z"
/>
</svg>
