<?xml version="1.0" encoding="UTF-8" standalone="no"?>
<!DOCTYPE svg PUBLIC "-//W3C//DTD SVG 1.1//EN" "http://www.w3.org/Graphics/SVG/1.1/DTD/svg11.dtd">
<svg xmlns="http://www.w3.org/2000/svg" version="1.1" viewBox="0 0 180 180">
<g stroke-width="2.00" fill="none" stroke-linecap="butt">
<path stroke="#98989a" vector-effect="non-scaling-stroke" d="
  M 74.82 58.91
  C 72.89 57.92 71.59 57.23 69.36 57.04
  C 62.60 56.46 51.22 55.95 46.03 57.76
  C 36.77 60.98 38.88 76.89 40.29 84.51
  Q 40.77 87.13 43.05 87.60
  C 47.58 88.54 46.26 92.52 46.88 95.82
  Q 47.00 96.45 47.65 96.48
  L 57.66 96.85
  Q 58.46 96.88 58.52 96.08
  L 58.85 91.38
  Q 58.89 90.79 59.29 90.35
  Q 61.01 88.42 63.70 88.25
  Q 64.23 88.22 64.17 87.69
  C 63.15 77.97 62.43 62.44 74.74 59.53
  A 0.33 0.33 0.0 0 0 74.82 58.91"
/>
<path stroke="#98989a" vector-effect="non-scaling-stroke" d="
  M 143.58 68.20
  C 143.00 60.73 139.97 57.55 132.49 57.02
  C 126.21 56.58 111.44 55.18 107.64 59.85
  Q 107.30 60.27 107.66 60.68
  C 113.82 67.53 114.67 78.60 113.75 87.32
  Q 113.69 87.85 114.22 87.92
  C 117.93 88.44 120.60 87.33 123.71 90.27
  Q 124.10 90.64 124.14 91.17
  L 124.54 96.19
  Q 124.59 96.87 125.27 96.84
  L 135.38 96.48
  Q 136.03 96.46 136.15 95.82
  C 136.85 92.18 135.49 87.79 140.87 87.26
  Q 141.37 87.21 141.67 86.81
  C 144.26 83.33 143.90 72.43 143.58 68.20"
/>
<path stroke="#98989a" vector-effect="non-scaling-stroke" d="
  M 33.77 108.39
  C 33.54 105.25 33.85 102.62 33.66 99.31
  Q 32.96 86.98 32.66 66.31
  Q 32.65 65.15 30.73 62.11
  Q 30.46 61.68 30.15 62.08
  C 28.83 63.78 27.72 65.23 27.78 67.55
  Q 28.37 87.93 28.81 108.35
  Q 28.82 109.00 29.47 109.00
  L 33.20 109.00
  Q 33.82 109.00 33.77 108.39"
/>
<path stroke="#98989a" vector-effect="non-scaling-stroke" d="
  M 105.76 67.35
  C 103.83 62.24 87.81 63.78 81.44 63.99
  Q 69.94 64.39 69.29 75.16
  Q 68.77 83.75 70.48 92.67
  A 2.22 2.22 0.0 0 0 72.71 94.48
  C 77.34 94.37 76.20 100.05 76.92 102.81
  Q 77.08 103.42 77.71 103.45
  L 87.64 103.86
  Q 88.44 103.90 88.50 103.10
  L 88.84 98.35
  Q 88.87 97.93 89.12 97.59
  C 91.67 94.23 97.53 94.86 101.75 95.05
  Q 102.22 95.07 102.62 94.83
  C 111.06 89.89 108.83 75.51 105.76 67.35"
/>
<path stroke="#533d3e" vector-effect="non-scaling-stroke" d="
  M 151.95 86.18
  Q 151.41 89.03 153.28 91.32
  C 155.13 93.57 156.17 96.51 156.51 98.73
  C 158.19 109.63 154.63 123.40 143.48 128.07
  Q 142.97 128.28 143.23 128.77
  L 144.18 130.57
  Q 144.46 131.11 145.01 130.85
  C 150.89 128.08 156.97 120.02 158.29 113.67
  C 160.03 105.40 159.84 92.04 152.46 86.00
  Q 152.05 85.67 151.95 86.18"
/>
<path stroke="#98989a" vector-effect="non-scaling-stroke" d="
  M 122.06 101.94
  C 118.54 99.71 119.29 97.54 118.66 94.11
  Q 118.54 93.50 117.92 93.50
  L 117.41 93.50
  Q 116.82 93.50 116.78 94.09
  L 116.07 104.52
  Q 116.04 105.00 116.52 105.00
  L 121.74 105.00
  Q 122.27 105.00 122.53 104.54
  Q 123.49 102.84 122.06 101.94"
/>
<path stroke="#533d3e" vector-effect="non-scaling-stroke" d="
  M 64.04 109.93
  L 68.90 105.85
  Q 69.32 105.50 69.86 105.50
  L 70.89 105.50
  Q 71.53 105.50 71.47 104.86
  L 71.10 100.85
  Q 71.05 100.26 70.53 99.98
  L 67.88 98.55
  Q 67.09 98.12 66.44 98.73
  Q 59.27 105.39 57.86 115.12
  Q 57.79 115.62 58.28 115.50
  L 59.28 115.25
  Q 59.84 115.11 60.33 115.39
  C 64.69 117.82 60.41 120.46 58.52 122.09
  Q 58.05 122.49 58.27 123.07
  L 59.90 127.49
  Q 60.23 128.38 60.65 127.53
  Q 63.36 122.08 69.50 121.46
  A 1.48 1.48 0.0 0 0 70.79 119.63
  C 70.30 117.64 70.20 112.76 72.75 111.98
  C 75.52 111.14 79.25 112.53 82.37 110.92
  A 0.42 0.42 0.0 0 0 82.28 110.14
  L 73.44 107.93
  Q 73.01 107.82 73.00 108.27
  C 72.97 110.00 68.54 112.83 67.14 114.00
  Q 66.74 114.34 66.21 114.29
  Q 64.50 114.14 63.59 112.65
  A 2.12 2.12 0.0 0 1 64.04 109.93"
/>
<path stroke="#98989a" vector-effect="non-scaling-stroke" d="
  M 95.30 100.51
  Q 94.66 100.44 94.30 101.15
  Q 94.10 101.56 94.16 102.01
  Q 94.80 106.82 90.65 109.17
  Q 90.08 109.48 90.15 110.13
  L 90.28 111.47
  Q 90.35 112.10 90.98 112.07
  L 96.47 111.81
  Q 96.96 111.79 96.93 111.29
  L 96.19 101.43
  Q 96.13 100.59 95.30 100.51"
/>
<path stroke="#98989a" vector-effect="non-scaling-stroke" d="
  M 106.11 103.21
  C 107.12 101.00 103.58 100.51 102.12 100.85
  Q 101.75 100.93 101.75 101.31
  L 101.75 103.48
  Q 101.75 103.94 102.22 103.91
  L 105.43 103.68
  Q 105.91 103.64 106.11 103.21"
/>
<path stroke="#98989a" vector-effect="non-scaling-stroke" d="
  M 52.49 110.54
  C 50.81 110.40 48.82 109.99 47.18 110.38
  Q 46.49 110.54 47.07 110.96
  Q 48.39 111.93 48.24 113.66
  Q 48.18 114.33 48.83 114.44
  L 51.35 114.91
  Q 51.99 115.02 52.13 114.39
  L 52.86 111.05
  Q 52.97 110.58 52.49 110.54"
/>
<path stroke="#98989a" vector-effect="non-scaling-stroke" d="
  M 136.43 110.43
  L 105.27 110.43
  A 0.38 0.38 0.0 0 0 105.00 111.08
  L 105.33 111.41
  Q 105.76 111.83 106.35 111.70
  Q 111.83 110.47 115.70 113.96
  Q 116.11 114.32 116.65 114.39
  Q 126.38 115.65 136.06 114.30
  Q 136.65 114.22 136.69 113.62
  L 136.88 110.92
  Q 136.91 110.43 136.43 110.43"
/>
<path stroke="#3d504e" vector-effect="non-scaling-stroke" d="
  M 33.25 125.07
  L 33.25 119.73
  Q 33.25 119.17 33.74 118.88
  Q 37.33 116.79 41.56 117.31
  Q 42.04 117.37 42.37 117.03
  Q 43.04 116.35 42.65 115.29
  A 0.85 0.84 -9.7 0 0 41.85 114.73
  L 19.57 114.72
  A 0.42 0.40 12.5 0 0 19.20 114.94
  C 18.37 116.64 19.61 117.20 21.05 116.95
  Q 25.16 116.24 28.13 119.11
  Q 28.50 119.47 28.50 119.98
  L 28.50 124.71
  Q 28.50 125.47 29.26 125.54
  L 32.42 125.82
  Q 33.25 125.90 33.25 125.07"
/>
<path stroke="#98989a" vector-effect="non-scaling-stroke" d="
  M 110.18 117.36
  L 76.76 117.48
  Q 76.25 117.48 76.25 117.99
  L 76.25 120.51
  Q 76.25 121.11 76.84 121.20
  C 83.92 122.26 90.37 121.73 97.52 121.53
  C 101.29 121.43 105.81 120.26 110.22 120.71
  Q 110.75 120.76 110.75 120.24
  L 110.75 117.93
  Q 110.75 117.36 110.18 117.36"
/>
<path stroke="#98989a" vector-effect="non-scaling-stroke" d="
  M 144.46 120.36
  L 138.93 119.90
  Q 138.17 119.83 138.06 120.59
  L 137.70 122.96
  Q 137.61 123.55 138.20 123.47
  Q 141.69 122.99 144.63 121.08
  Q 145.59 120.46 144.46 120.36"
/>
<path stroke="#98989a" vector-effect="non-scaling-stroke" d="
  M 121.03 120.50
  L 117.79 120.17
  A 1.38 1.38 0.0 0 0 116.47 122.26
  Q 117.85 124.54 120.49 124.84
  Q 121.11 124.91 121.17 124.29
  L 121.51 121.09
  Q 121.57 120.55 121.03 120.50"
/>
<path stroke="#98989a" vector-effect="non-scaling-stroke" d="
  M 39.73 123.11
  Q 39.60 123.00 39.43 122.98
  Q 39.00 122.94 39.00 123.38
  L 39.00 126.09
  Q 39.00 126.70 39.61 126.64
  L 44.69 126.06
  Q 45.47 125.97 45.48 125.20
  L 45.51 123.30
  Q 45.52 122.60 44.84 122.77
  Q 42.50 123.34 40.10 123.25
  Q 39.89 123.24 39.73 123.11"
/>
<path stroke="#98989a" vector-effect="non-scaling-stroke" d="
  M 113.71 127.57
  C 110.20 126.15 105.19 124.75 102.98 129.00
  A 1.70 1.70 0.0 0 0 104.10 131.44
  Q 108.77 132.53 113.42 131.33
  Q 114.03 131.17 114.07 130.55
  L 114.23 128.41
  Q 114.27 127.80 113.71 127.57"
/>
<path stroke="#98989a" vector-effect="non-scaling-stroke" d="
  M 74.24 127.11
  C 62.82 125.44 63.46 136.71 75.10 132.74
  Q 75.66 132.55 75.58 131.95
  L 74.98 127.85
  Q 74.88 127.20 74.24 127.11"
/>
<path stroke="#98989a" vector-effect="non-scaling-stroke" d="
  M 96.6917 127.7890
  A 0.57 0.57 0.0 0 0 96.0993 127.2423
  L 92.1425 127.4012
  A 0.57 0.57 0.0 0 0 91.5958 127.9937
  L 91.7283 131.2910
  A 0.57 0.57 0.0 0 0 92.3207 131.8377
  L 96.2775 131.6788
  A 0.57 0.57 0.0 0 0 96.8242 131.0863
  L 96.6917 127.7890"
/>
<path stroke="#98989a" vector-effect="non-scaling-stroke" d="
  M 129.74 141.06
  Q 129.34 141.46 129.65 141.85
  C 132.38 145.30 131.31 154.81 131.07 158.83
  Q 131.04 159.33 131.54 159.30
  L 138.47 158.95
  Q 138.95 158.92 138.98 158.44
  Q 139.78 147.48 138.85 134.44
  C 138.71 132.51 138.34 131.51 136.21 131.31
  Q 128.30 130.57 120.34 130.45
  Q 119.83 130.45 119.76 130.95
  Q 119.32 133.84 117.04 135.72
  Q 116.66 136.04 116.74 136.54
  L 117.43 140.51
  Q 117.51 140.99 118.00 140.98
  L 129.56 140.63
  A 0.25 0.25 0.0 0 1 129.74 141.06"
/>
<path stroke="#98989a" vector-effect="non-scaling-stroke" d="
  M 54.25 140.68
  L 65.26 141.04
  Q 66.35 141.07 65.38 140.58
  Q 59.03 137.32 55.41 131.17
  Q 55.12 130.69 54.57 130.73
  L 45.97 131.36
  A 1.81 1.81 0.0 0 0 44.30 132.99
  Q 43.10 145.73 44.04 158.50
  Q 44.07 158.94 44.52 158.97
  L 51.35 159.31
  Q 51.78 159.33 51.78 158.90
  L 51.82 144.21
  Q 51.82 143.67 52.21 143.30
  Q 53.19 142.36 53.62 141.12
  Q 53.77 140.66 54.25 140.68"
/>
<path stroke="#98989a" vector-effect="non-scaling-stroke" d="
  M 84.24 147.65
  L 101.98 148.32
  Q 102.43 148.34 102.31 148.77
  Q 102.04 149.79 102.98 150.30
  Q 103.47 150.58 103.54 151.13
  L 105.37 165.03
  A 2.05 2.05 0.0 0 0 107.53 166.81
  L 112.86 166.46
  A 0.54 0.54 0.0 0 0 113.37 165.89
  L 111.62 138.89
  Q 111.58 138.30 110.99 138.25
  Q 93.98 136.83 76.97 138.26
  C 74.67 138.45 74.28 139.29 74.15 141.44
  Q 73.32 155.52 73.93 165.43
  Q 73.97 166.00 74.54 166.03
  L 81.34 166.32
  Q 81.78 166.34 81.78 165.90
  L 81.82 151.31
  Q 81.82 150.79 82.19 150.42
  Q 83.20 149.43 83.59 148.12
  Q 83.73 147.63 84.24 147.65"
/>
<path stroke="#98989a" vector-effect="non-scaling-stroke" d="
  M 46.5070 85.0662
  A 3.92 3.09 80.5 0 0 48.9076 80.6900
  A 3.92 3.09 80.5 0 0 45.2130 77.3338
  A 3.92 3.09 80.5 0 0 42.8124 81.7100
  A 3.92 3.09 80.5 0 0 46.5070 85.0662"
/>
<path stroke="#98989a" vector-effect="non-scaling-stroke" d="
  M 59.3085 85.2688
  A 3.80 3.24 94.4 0 0 62.8305 81.7286
  A 3.80 3.24 94.4 0 0 59.8915 77.6912
  A 3.80 3.24 94.4 0 0 56.3695 81.2314
  A 3.80 3.24 94.4 0 0 59.3085 85.2688"
/>
<path stroke="#98989a" vector-effect="non-scaling-stroke" d="
  M 136.5269 85.0904
  A 3.94 3.05 99.1 0 0 140.1616 81.6824
  A 3.94 3.05 99.1 0 0 137.7731 77.3096
  A 3.94 3.05 99.1 0 0 134.1384 80.7176
  A 3.94 3.05 99.1 0 0 136.5269 85.0904"
/>
<path stroke="#98989a" vector-effect="non-scaling-stroke" d="
  M 123.7299 85.2046
  A 3.75 3.25 84.8 0 0 126.6266 81.1754
  A 3.75 3.25 84.8 0 0 123.0501 77.7354
  A 3.75 3.25 84.8 0 0 120.1534 81.7646
  A 3.75 3.25 84.8 0 0 123.7299 85.2046"
/>
<path stroke="#98989a" vector-effect="non-scaling-stroke" d="
  M 76.5159 92.1000
  A 3.95 3.09 80.0 0 0 78.8731 87.6734
  A 3.95 3.09 80.0 0 0 75.1441 84.3200
  A 3.95 3.09 80.0 0 0 72.7869 88.7466
  A 3.95 3.09 80.0 0 0 76.5159 92.1000"
/>
<path stroke="#98989a" vector-effect="non-scaling-stroke" d="
  M 89.2246 92.2413
  A 3.78 3.25 95.7 0 0 92.8339 88.8028
  A 3.78 3.25 95.7 0 0 89.9754 84.7187
  A 3.78 3.25 95.7 0 0 86.3661 88.1572
  A 3.78 3.25 95.7 0 0 89.2246 92.2413"
/>
</g>
<g fill="#38383c">
<path d="
  M 149.37 80.44
  Q 152.99 79.25 155.67 81.34
  C 167.01 90.23 167.53 113.51 159.42 124.93
  C 155.40 130.59 151.75 134.86 145.33 136.66
  Q 144.85 136.80 144.84 137.30
  L 144.70 161.71
  A 2.81 2.80 -0.8 0 1 141.98 164.50
  L 127.56 164.98
  A 2.29 2.28 -89.2 0 1 125.20 162.55
  L 126.16 147.18
  Q 126.21 146.39 125.42 146.43
  L 118.05 146.77
  Q 117.52 146.80 117.55 147.34
  Q 118.07 154.85 118.67 162.36
  C 118.95 165.83 120.28 169.69 116.32 171.34
  C 111.30 173.43 104.73 172.77 100.32 169.35
  Q 99.93 169.04 99.89 168.55
  L 99.68 165.66
  Q 99.64 165.01 98.99 164.98
  C 92.56 164.67 93.91 158.65 94.31 154.47
  Q 94.37 153.80 93.70 153.76
  L 89.07 153.43
  Q 88.51 153.39 88.58 153.94
  C 88.96 156.88 89.83 161.13 87.81 163.59
  Q 87.54 163.93 87.56 164.36
  L 87.80 169.70
  A 2.23 2.23 0.0 0 1 85.48 172.03
  L 70.78 171.47
  A 2.48 2.47 0.6 0 1 68.40 169.04
  L 67.96 147.86
  Q 67.94 146.97 67.05 146.91
  L 58.06 146.40
  A 1.06 1.06 0.0 0 0 56.94 147.48
  Q 57.13 154.66 57.75 160.50
  C 58.05 163.35 57.34 165.03 54.15 164.93
  Q 47.56 164.72 40.95 164.50
  A 2.43 2.42 -1.3 0 1 38.62 162.28
  Q 37.35 147.53 38.84 132.84
  Q 38.91 132.22 38.30 132.10
  C 32.25 130.86 22.40 133.13 23.24 123.17
  A 0.68 0.67 88.6 0 0 22.48 122.44
  C 19.58 122.81 14.68 122.27 13.94 118.84
  C 13.41 116.43 13.23 112.33 15.12 110.07
  Q 15.45 109.67 15.95 109.53
  Q 19.22 108.63 22.49 109.21
  Q 23.14 109.33 23.13 108.66
  Q 22.82 89.92 22.51 71.27
  C 22.40 64.54 24.19 59.89 28.39 55.15
  Q 28.72 54.78 29.21 54.79
  C 33.01 54.87 33.78 57.03 35.35 59.58
  Q 35.67 60.09 35.93 59.56
  C 38.84 53.60 44.33 51.91 50.58 51.56
  C 62.18 50.91 75.66 47.99 80.61 57.72
  Q 80.83 58.17 81.34 58.16
  L 101.63 57.91
  Q 102.15 57.91 102.41 57.45
  C 105.34 52.27 109.14 51.02 115.25 50.99
  Q 126.33 50.94 132.68 51.35
  C 149.29 52.43 150.93 66.92 148.86 80.01
  Q 148.76 80.65 149.37 80.44
  Z
  M 74.82 58.91
  C 72.89 57.92 71.59 57.23 69.36 57.04
  C 62.60 56.46 51.22 55.95 46.03 57.76
  C 36.77 60.98 38.88 76.89 40.29 84.51
  Q 40.77 87.13 43.05 87.60
  C 47.58 88.54 46.26 92.52 46.88 95.82
  Q 47.00 96.45 47.65 96.48
  L 57.66 96.85
  Q 58.46 96.88 58.52 96.08
  L 58.85 91.38
  Q 58.89 90.79 59.29 90.35
  Q 61.01 88.42 63.70 88.25
  Q 64.23 88.22 64.17 87.69
  C 63.15 77.97 62.43 62.44 74.74 59.53
  A 0.33 0.33 0.0 0 0 74.82 58.91
  Z
  M 143.58 68.20
  C 143.00 60.73 139.97 57.55 132.49 57.02
  C 126.21 56.58 111.44 55.18 107.64 59.85
  Q 107.30 60.27 107.66 60.68
  C 113.82 67.53 114.67 78.60 113.75 87.32
  Q 113.69 87.85 114.22 87.92
  C 117.93 88.44 120.60 87.33 123.71 90.27
  Q 124.10 90.64 124.14 91.17
  L 124.54 96.19
  Q 124.59 96.87 125.27 96.84
  L 135.38 96.48
  Q 136.03 96.46 136.15 95.82
  C 136.85 92.18 135.49 87.79 140.87 87.26
  Q 141.37 87.21 141.67 86.81
  C 144.26 83.33 143.90 72.43 143.58 68.20
  Z
  M 33.77 108.39
  C 33.54 105.25 33.85 102.62 33.66 99.31
  Q 32.96 86.98 32.66 66.31
  Q 32.65 65.15 30.73 62.11
  Q 30.46 61.68 30.15 62.08
  C 28.83 63.78 27.72 65.23 27.78 67.55
  Q 28.37 87.93 28.81 108.35
  Q 28.82 109.00 29.47 109.00
  L 33.20 109.00
  Q 33.82 109.00 33.77 108.39
  Z
  M 105.76 67.35
  C 103.83 62.24 87.81 63.78 81.44 63.99
  Q 69.94 64.39 69.29 75.16
  Q 68.77 83.75 70.48 92.67
  A 2.22 2.22 0.0 0 0 72.71 94.48
  C 77.34 94.37 76.20 100.05 76.92 102.81
  Q 77.08 103.42 77.71 103.45
  L 87.64 103.86
  Q 88.44 103.90 88.50 103.10
  L 88.84 98.35
  Q 88.87 97.93 89.12 97.59
  C 91.67 94.23 97.53 94.86 101.75 95.05
  Q 102.22 95.07 102.62 94.83
  C 111.06 89.89 108.83 75.51 105.76 67.35
  Z
  M 151.95 86.18
  Q 151.41 89.03 153.28 91.32
  C 155.13 93.57 156.17 96.51 156.51 98.73
  C 158.19 109.63 154.63 123.40 143.48 128.07
  Q 142.97 128.28 143.23 128.77
  L 144.18 130.57
  Q 144.46 131.11 145.01 130.85
  C 150.89 128.08 156.97 120.02 158.29 113.67
  C 160.03 105.40 159.84 92.04 152.46 86.00
  Q 152.05 85.67 151.95 86.18
  Z
  M 39.28 107.91
  C 39.11 108.63 39.54 109.30 40.33 108.96
  Q 40.80 108.76 40.80 108.24
  C 40.84 102.99 50.67 104.73 54.01 104.92
  A 0.92 0.91 -83.8 0 0 54.97 104.14
  C 55.40 101.40 40.57 104.67 41.14 94.47
  C 41.19 93.50 40.51 92.52 39.64 92.27
  Q 38.96 92.08 38.98 92.78
  L 39.34 107.39
  Q 39.34 107.65 39.28 107.91
  Z
  M 142.97 114.37
  L 148.27 115.73
  Q 148.67 115.83 148.84 115.46
  C 151.99 108.78 153.03 99.01 147.96 92.84
  Q 147.53 92.33 147.21 92.91
  L 140.81 104.32
  Q 140.55 104.77 140.87 105.19
  L 141.93 106.58
  Q 142.25 106.99 142.25 107.51
  L 142.25 113.44
  A 0.96 0.95 -83.1 0 0 142.97 114.37
  Z
  M 122.06 101.94
  C 118.54 99.71 119.29 97.54 118.66 94.11
  Q 118.54 93.50 117.92 93.50
  L 117.41 93.50
  Q 116.82 93.50 116.78 94.09
  L 116.07 104.52
  Q 116.04 105.00 116.52 105.00
  L 121.74 105.00
  Q 122.27 105.00 122.53 104.54
  Q 123.49 102.84 122.06 101.94
  Z
  M 64.04 109.93
  L 68.90 105.85
  Q 69.32 105.50 69.86 105.50
  L 70.89 105.50
  Q 71.53 105.50 71.47 104.86
  L 71.10 100.85
  Q 71.05 100.26 70.53 99.98
  L 67.88 98.55
  Q 67.09 98.12 66.44 98.73
  Q 59.27 105.39 57.86 115.12
  Q 57.79 115.62 58.28 115.50
  L 59.28 115.25
  Q 59.84 115.11 60.33 115.39
  C 64.69 117.82 60.41 120.46 58.52 122.09
  Q 58.05 122.49 58.27 123.07
  L 59.90 127.49
  Q 60.23 128.38 60.65 127.53
  Q 63.36 122.08 69.50 121.46
  A 1.48 1.48 0.0 0 0 70.79 119.63
  C 70.30 117.64 70.20 112.76 72.75 111.98
  C 75.52 111.14 79.25 112.53 82.37 110.92
  A 0.42 0.42 0.0 0 0 82.28 110.14
  L 73.44 107.93
  Q 73.01 107.82 73.00 108.27
  C 72.97 110.00 68.54 112.83 67.14 114.00
  Q 66.74 114.34 66.21 114.29
  Q 64.50 114.14 63.59 112.65
  A 2.12 2.12 0.0 0 1 64.04 109.93
  Z
  M 95.30 100.51
  Q 94.66 100.44 94.30 101.15
  Q 94.10 101.56 94.16 102.01
  Q 94.80 106.82 90.65 109.17
  Q 90.08 109.48 90.15 110.13
  L 90.28 111.47
  Q 90.35 112.10 90.98 112.07
  L 96.47 111.81
  Q 96.96 111.79 96.93 111.29
  L 96.19 101.43
  Q 96.13 100.59 95.30 100.51
  Z
  M 106.11 103.21
  C 107.12 101.00 103.58 100.51 102.12 100.85
  Q 101.75 100.93 101.75 101.31
  L 101.75 103.48
  Q 101.75 103.94 102.22 103.91
  L 105.43 103.68
  Q 105.91 103.64 106.11 103.21
  Z
  M 128.58 104.82
  C 131.13 104.80 133.98 105.49 135.20 102.70
  Q 135.51 102.01 134.77 102.14
  L 128.69 103.23
  Q 128.26 103.31 128.13 103.72
  L 128.02 104.07
  A 0.58 0.57 8.7 0 0 128.58 104.82
  Z
  M 52.49 110.54
  C 50.81 110.40 48.82 109.99 47.18 110.38
  Q 46.49 110.54 47.07 110.96
  Q 48.39 111.93 48.24 113.66
  Q 48.18 114.33 48.83 114.44
  L 51.35 114.91
  Q 51.99 115.02 52.13 114.39
  L 52.86 111.05
  Q 52.97 110.58 52.49 110.54
  Z
  M 136.43 110.43
  L 105.27 110.43
  A 0.38 0.38 0.0 0 0 105.00 111.08
  L 105.33 111.41
  Q 105.76 111.83 106.35 111.70
  Q 111.83 110.47 115.70 113.96
  Q 116.11 114.32 116.65 114.39
  Q 126.38 115.65 136.06 114.30
  Q 136.65 114.22 136.69 113.62
  L 136.88 110.92
  Q 136.91 110.43 136.43 110.43
  Z
  M 33.25 125.07
  L 33.25 119.73
  Q 33.25 119.17 33.74 118.88
  Q 37.33 116.79 41.56 117.31
  Q 42.04 117.37 42.37 117.03
  Q 43.04 116.35 42.65 115.29
  A 0.85 0.84 -9.7 0 0 41.85 114.73
  L 19.57 114.72
  A 0.42 0.40 12.5 0 0 19.20 114.94
  C 18.37 116.64 19.61 117.20 21.05 116.95
  Q 25.16 116.24 28.13 119.11
  Q 28.50 119.47 28.50 119.98
  L 28.50 124.71
  Q 28.50 125.47 29.26 125.54
  L 32.42 125.82
  Q 33.25 125.90 33.25 125.07
  Z
  M 110.18 117.36
  L 76.76 117.48
  Q 76.25 117.48 76.25 117.99
  L 76.25 120.51
  Q 76.25 121.11 76.84 121.20
  C 83.92 122.26 90.37 121.73 97.52 121.53
  C 101.29 121.43 105.81 120.26 110.22 120.71
  Q 110.75 120.76 110.75 120.24
  L 110.75 117.93
  Q 110.75 117.36 110.18 117.36
  Z
  M 144.46 120.36
  L 138.93 119.90
  Q 138.17 119.83 138.06 120.59
  L 137.70 122.96
  Q 137.61 123.55 138.20 123.47
  Q 141.69 122.99 144.63 121.08
  Q 145.59 120.46 144.46 120.36
  Z
  M 121.03 120.50
  L 117.79 120.17
  A 1.38 1.38 0.0 0 0 116.47 122.26
  Q 117.85 124.54 120.49 124.84
  Q 121.11 124.91 121.17 124.29
  L 121.51 121.09
  Q 121.57 120.55 121.03 120.50
  Z
  M 39.73 123.11
  Q 39.60 123.00 39.43 122.98
  Q 39.00 122.94 39.00 123.38
  L 39.00 126.09
  Q 39.00 126.70 39.61 126.64
  L 44.69 126.06
  Q 45.47 125.97 45.48 125.20
  L 45.51 123.30
  Q 45.52 122.60 44.84 122.77
  Q 42.50 123.34 40.10 123.25
  Q 39.89 123.24 39.73 123.11
  Z
  M 113.71 127.57
  C 110.20 126.15 105.19 124.75 102.98 129.00
  A 1.70 1.70 0.0 0 0 104.10 131.44
  Q 108.77 132.53 113.42 131.33
  Q 114.03 131.17 114.07 130.55
  L 114.23 128.41
  Q 114.27 127.80 113.71 127.57
  Z
  M 74.24 127.11
  C 62.82 125.44 63.46 136.71 75.10 132.74
  Q 75.66 132.55 75.58 131.95
  L 74.98 127.85
  Q 74.88 127.20 74.24 127.11
  Z
  M 96.6917 127.7890
  A 0.57 0.57 0.0 0 0 96.0993 127.2423
  L 92.1425 127.4012
  A 0.57 0.57 0.0 0 0 91.5958 127.9937
  L 91.7283 131.2910
  A 0.57 0.57 0.0 0 0 92.3207 131.8377
  L 96.2775 131.6788
  A 0.57 0.57 0.0 0 0 96.8242 131.0863
  L 96.6917 127.7890
  Z
  M 129.74 141.06
  Q 129.34 141.46 129.65 141.85
  C 132.38 145.30 131.31 154.81 131.07 158.83
  Q 131.04 159.33 131.54 159.30
  L 138.47 158.95
  Q 138.95 158.92 138.98 158.44
  Q 139.78 147.48 138.85 134.44
  C 138.71 132.51 138.34 131.51 136.21 131.31
  Q 128.30 130.57 120.34 130.45
  Q 119.83 130.45 119.76 130.95
  Q 119.32 133.84 117.04 135.72
  Q 116.66 136.04 116.74 136.54
  L 117.43 140.51
  Q 117.51 140.99 118.00 140.98
  L 129.56 140.63
  A 0.25 0.25 0.0 0 1 129.74 141.06
  Z
  M 54.25 140.68
  L 65.26 141.04
  Q 66.35 141.07 65.38 140.58
  Q 59.03 137.32 55.41 131.17
  Q 55.12 130.69 54.57 130.73
  L 45.97 131.36
  A 1.81 1.81 0.0 0 0 44.30 132.99
  Q 43.10 145.73 44.04 158.50
  Q 44.07 158.94 44.52 158.97
  L 51.35 159.31
  Q 51.78 159.33 51.78 158.90
  L 51.82 144.21
  Q 51.82 143.67 52.21 143.30
  Q 53.19 142.36 53.62 141.12
  Q 53.77 140.66 54.25 140.68
  Z
  M 84.24 147.65
  L 101.98 148.32
  Q 102.43 148.34 102.31 148.77
  Q 102.04 149.79 102.98 150.30
  Q 103.47 150.58 103.54 151.13
  L 105.37 165.03
  A 2.05 2.05 0.0 0 0 107.53 166.81
  L 112.86 166.46
  A 0.54 0.54 0.0 0 0 113.37 165.89
  L 111.62 138.89
  Q 111.58 138.30 110.99 138.25
  Q 93.98 136.83 76.97 138.26
  C 74.67 138.45 74.28 139.29 74.15 141.44
  Q 73.32 155.52 73.93 165.43
  Q 73.97 166.00 74.54 166.03
  L 81.34 166.32
  Q 81.78 166.34 81.78 165.90
  L 81.82 151.31
  Q 81.82 150.79 82.19 150.42
  Q 83.20 149.43 83.59 148.12
  Q 83.73 147.63 84.24 147.65
  Z"
/>
<ellipse cx="0.00" cy="0.00" transform="translate(45.86,81.20) rotate(80.5)" rx="3.92" ry="3.09"/>
<ellipse cx="0.00" cy="0.00" transform="translate(137.15,81.20) rotate(99.1)" rx="3.94" ry="3.05"/>
<ellipse cx="0.00" cy="0.00" transform="translate(59.60,81.48) rotate(94.4)" rx="3.80" ry="3.24"/>
<ellipse cx="0.00" cy="0.00" transform="translate(123.39,81.47) rotate(84.8)" rx="3.75" ry="3.25"/>
<ellipse cx="0.00" cy="0.00" transform="translate(75.83,88.21) rotate(80.0)" rx="3.95" ry="3.09"/>
<ellipse cx="0.00" cy="0.00" transform="translate(89.60,88.48) rotate(95.7)" rx="3.78" ry="3.25"/>
</g>
<g fill="#f8f8f8">
<path d="
  M 74.82 58.91
  A 0.33 0.33 0.0 0 1 74.74 59.53
  C 62.43 62.44 63.15 77.97 64.17 87.69
  Q 64.23 88.22 63.70 88.25
  Q 61.01 88.42 59.29 90.35
  Q 58.89 90.79 58.85 91.38
  L 58.52 96.08
  Q 58.46 96.88 57.66 96.85
  L 47.65 96.48
  Q 47.00 96.45 46.88 95.82
  C 46.26 92.52 47.58 88.54 43.05 87.60
  Q 40.77 87.13 40.29 84.51
  C 38.88 76.89 36.77 60.98 46.03 57.76
  C 51.22 55.95 62.60 56.46 69.36 57.04
  C 71.59 57.23 72.89 57.92 74.82 58.91
  Z
  M 46.5070 85.0662
  A 3.92 3.09 80.5 0 0 48.9076 80.6900
  A 3.92 3.09 80.5 0 0 45.2130 77.3338
  A 3.92 3.09 80.5 0 0 42.8124 81.7100
  A 3.92 3.09 80.5 0 0 46.5070 85.0662
  Z
  M 59.3085 85.2688
  A 3.80 3.24 94.4 0 0 62.8305 81.7286
  A 3.80 3.24 94.4 0 0 59.8915 77.6912
  A 3.80 3.24 94.4 0 0 56.3695 81.2314
  A 3.80 3.24 94.4 0 0 59.3085 85.2688
  Z"
/>
<path d="
  M 132.49 57.02
  C 139.97 57.55 143.00 60.73 143.58 68.20
  C 143.90 72.43 144.26 83.33 141.67 86.81
  Q 141.37 87.21 140.87 87.26
  C 135.49 87.79 136.85 92.18 136.15 95.82
  Q 136.03 96.46 135.38 96.48
  L 125.27 96.84
  Q 124.59 96.87 124.54 96.19
  L 124.14 91.17
  Q 124.10 90.64 123.71 90.27
  C 120.60 87.33 117.93 88.44 114.22 87.92
  Q 113.69 87.85 113.75 87.32
  C 114.67 78.60 113.82 67.53 107.66 60.68
  Q 107.30 60.27 107.64 59.85
  C 111.44 55.18 126.21 56.58 132.49 57.02
  Z
  M 136.5269 85.0904
  A 3.94 3.05 99.1 0 0 140.1616 81.6824
  A 3.94 3.05 99.1 0 0 137.7731 77.3096
  A 3.94 3.05 99.1 0 0 134.1384 80.7176
  A 3.94 3.05 99.1 0 0 136.5269 85.0904
  Z
  M 123.7299 85.2046
  A 3.75 3.25 84.8 0 0 126.6266 81.1754
  A 3.75 3.25 84.8 0 0 123.0501 77.7354
  A 3.75 3.25 84.8 0 0 120.1534 81.7646
  A 3.75 3.25 84.8 0 0 123.7299 85.2046
  Z"
/>
<path d="
  M 33.66 99.31
  C 33.85 102.62 33.54 105.25 33.77 108.39
  Q 33.82 109.00 33.20 109.00
  L 29.47 109.00
  Q 28.82 109.00 28.81 108.35
  Q 28.37 87.93 27.78 67.55
  C 27.72 65.23 28.83 63.78 30.15 62.08
  Q 30.46 61.68 30.73 62.11
  Q 32.65 65.15 32.66 66.31
  Q 32.96 86.98 33.66 99.31
  Z"
/>
<path d="
  M 81.44 63.99
  C 87.81 63.78 103.83 62.24 105.76 67.35
  C 108.83 75.51 111.06 89.89 102.62 94.83
  Q 102.22 95.07 101.75 95.05
  C 97.53 94.86 91.67 94.23 89.12 97.59
  Q 88.87 97.93 88.84 98.35
  L 88.50 103.10
  Q 88.44 103.90 87.64 103.86
  L 77.71 103.45
  Q 77.08 103.42 76.92 102.81
  C 76.20 100.05 77.34 94.37 72.71 94.48
  A 2.22 2.22 0.0 0 1 70.48 92.67
  Q 68.77 83.75 69.29 75.16
  Q 69.94 64.39 81.44 63.99
  Z
  M 76.5159 92.1000
  A 3.95 3.09 80.0 0 0 78.8731 87.6734
  A 3.95 3.09 80.0 0 0 75.1441 84.3200
  A 3.95 3.09 80.0 0 0 72.7869 88.7466
  A 3.95 3.09 80.0 0 0 76.5159 92.1000
  Z
  M 89.2246 92.2413
  A 3.78 3.25 95.7 0 0 92.8339 88.8028
  A 3.78 3.25 95.7 0 0 89.9754 84.7187
  A 3.78 3.25 95.7 0 0 86.3661 88.1572
  A 3.78 3.25 95.7 0 0 89.2246 92.2413
  Z"
/>
<path d="
  M 122.06 101.94
  Q 123.49 102.84 122.53 104.54
  Q 122.27 105.00 121.74 105.00
  L 116.52 105.00
  Q 116.04 105.00 116.07 104.52
  L 116.78 94.09
  Q 116.82 93.50 117.41 93.50
  L 117.92 93.50
  Q 118.54 93.50 118.66 94.11
  C 119.29 97.54 118.54 99.71 122.06 101.94
  Z"
/>
<path d="
  M 96.19 101.43
  L 96.93 111.29
  Q 96.96 111.79 96.47 111.81
  L 90.98 112.07
  Q 90.35 112.10 90.28 111.47
  L 90.15 110.13
  Q 90.08 109.48 90.65 109.17
  Q 94.80 106.82 94.16 102.01
  Q 94.10 101.56 94.30 101.15
  Q 94.66 100.44 95.30 100.51
  Q 96.13 100.59 96.19 101.43
  Z"
/>
<path d="
  M 102.12 100.85
  C 103.58 100.51 107.12 101.00 106.11 103.21
  Q 105.91 103.64 105.43 103.68
  L 102.22 103.91
  Q 101.75 103.94 101.75 103.48
  L 101.75 101.31
  Q 101.75 100.93 102.12 100.85
  Z"
/>
<path d="
  M 47.18 110.38
  C 48.82 109.99 50.81 110.40 52.49 110.54
  Q 52.97 110.58 52.86 111.05
  L 52.13 114.39
  Q 51.99 115.02 51.35 114.91
  L 48.83 114.44
  Q 48.18 114.33 48.24 113.66
  Q 48.39 111.93 47.07 110.96
  Q 46.49 110.54 47.18 110.38
  Z"
/>
<path d="
  M 105.27 110.43
  L 136.43 110.43
  Q 136.91 110.43 136.88 110.92
  L 136.69 113.62
  Q 136.65 114.22 136.06 114.30
  Q 126.38 115.65 116.65 114.39
  Q 116.11 114.32 115.70 113.96
  Q 111.83 110.47 106.35 111.70
  Q 105.76 111.83 105.33 111.41
  L 105.00 111.08
  A 0.38 0.38 0.0 0 1 105.27 110.43
  Z"
/>
<path d="
  M 76.76 117.48
  L 110.18 117.36
  Q 110.75 117.36 110.75 117.93
  L 110.75 120.24
  Q 110.75 120.76 110.22 120.71
  C 105.81 120.26 101.29 121.43 97.52 121.53
  C 90.37 121.73 83.92 122.26 76.84 121.20
  Q 76.25 121.11 76.25 120.51
  L 76.25 117.99
  Q 76.25 117.48 76.76 117.48
  Z"
/>
<path d="
  M 144.46 120.36
  Q 145.59 120.46 144.63 121.08
  Q 141.69 122.99 138.20 123.47
  Q 137.61 123.55 137.70 122.96
  L 138.06 120.59
  Q 138.17 119.83 138.93 119.90
  L 144.46 120.36
  Z"
/>
<path d="
  M 121.03 120.50
  Q 121.57 120.55 121.51 121.09
  L 121.17 124.29
  Q 121.11 124.91 120.49 124.84
  Q 117.85 124.54 116.47 122.26
  A 1.38 1.38 0.0 0 1 117.79 120.17
  L 121.03 120.50
  Z"
/>
<path d="
  M 40.10 123.25
  Q 42.50 123.34 44.84 122.77
  Q 45.52 122.60 45.51 123.30
  L 45.48 125.20
  Q 45.47 125.97 44.69 126.06
  L 39.61 126.64
  Q 39.00 126.70 39.00 126.09
  L 39.00 123.38
  Q 39.00 122.94 39.43 122.98
  Q 39.60 123.00 39.73 123.11
  Q 39.89 123.24 40.10 123.25
  Z"
/>
<path d="
  M 114.23 128.41
  L 114.07 130.55
  Q 114.03 131.17 113.42 131.33
  Q 108.77 132.53 104.10 131.44
  A 1.70 1.70 0.0 0 1 102.98 129.00
  C 105.19 124.75 110.20 126.15 113.71 127.57
  Q 114.27 127.80 114.23 128.41
  Z"
/>
<path d="
  M 74.98 127.85
  L 75.58 131.95
  Q 75.66 132.55 75.10 132.74
  C 63.46 136.71 62.82 125.44 74.24 127.11
  Q 74.88 127.20 74.98 127.85
  Z"
/>
<rect x="-2.55" y="-2.22" transform="translate(94.21,129.54) rotate(-2.3)" width="5.10" height="4.44" rx="0.57"/>
<path d="
  M 129.74 141.06
  A 0.25 0.25 0.0 0 0 129.56 140.63
  L 118.00 140.98
  Q 117.51 140.99 117.43 140.51
  L 116.74 136.54
  Q 116.66 136.04 117.04 135.72
  Q 119.32 133.84 119.76 130.95
  Q 119.83 130.45 120.34 130.45
  Q 128.30 130.57 136.21 131.31
  C 138.34 131.51 138.71 132.51 138.85 134.44
  Q 139.78 147.48 138.98 158.44
  Q 138.95 158.92 138.47 158.95
  L 131.54 159.30
  Q 131.04 159.33 131.07 158.83
  C 131.31 154.81 132.38 145.30 129.65 141.85
  Q 129.34 141.46 129.74 141.06
  Z"
/>
<path d="
  M 53.62 141.12
  Q 53.19 142.36 52.21 143.30
  Q 51.82 143.67 51.82 144.21
  L 51.78 158.90
  Q 51.78 159.33 51.35 159.31
  L 44.52 158.97
  Q 44.07 158.94 44.04 158.50
  Q 43.10 145.73 44.30 132.99
  A 1.81 1.81 0.0 0 1 45.97 131.36
  L 54.57 130.73
  Q 55.12 130.69 55.41 131.17
  Q 59.03 137.32 65.38 140.58
  Q 66.35 141.07 65.26 141.04
  L 54.25 140.68
  Q 53.77 140.66 53.62 141.12
  Z"
/>
<path d="
  M 83.59 148.12
  Q 83.20 149.43 82.19 150.42
  Q 81.82 150.79 81.82 151.31
  L 81.78 165.90
  Q 81.78 166.34 81.34 166.32
  L 74.54 166.03
  Q 73.97 166.00 73.93 165.43
  Q 73.32 155.52 74.15 141.44
  C 74.28 139.29 74.67 138.45 76.97 138.26
  Q 93.98 136.83 110.99 138.25
  Q 111.58 138.30 111.62 138.89
  L 113.37 165.89
  A 0.54 0.54 0.0 0 1 112.86 166.46
  L 107.53 166.81
  A 2.05 2.05 0.0 0 1 105.37 165.03
  L 103.54 151.13
  Q 103.47 150.58 102.98 150.30
  Q 102.04 149.79 102.31 148.77
  Q 102.43 148.34 101.98 148.32
  L 84.24 147.65
  Q 83.73 147.63 83.59 148.12
  Z"
/>
</g>
<g fill="#6e423f">
<path d="
  M 152.46 86.00
  C 159.84 92.04 160.03 105.40 158.29 113.67
  C 156.97 120.02 150.89 128.08 145.01 130.85
  Q 144.46 131.11 144.18 130.57
  L 143.23 128.77
  Q 142.97 128.28 143.48 128.07
  C 154.63 123.40 158.19 109.63 156.51 98.73
  C 156.17 96.51 155.13 93.57 153.28 91.32
  Q 151.41 89.03 151.95 86.18
  Q 152.05 85.67 152.46 86.00
  Z"
/>
<path d="
  M 64.04 109.93
  A 2.12 2.12 0.0 0 0 63.59 112.65
  Q 64.50 114.14 66.21 114.29
  Q 66.74 114.34 67.14 114.00
  C 68.54 112.83 72.97 110.00 73.00 108.27
  Q 73.01 107.82 73.44 107.93
  L 82.28 110.14
  A 0.42 0.42 0.0 0 1 82.37 110.92
  C 79.25 112.53 75.52 111.14 72.75 111.98
  C 70.20 112.76 70.30 117.64 70.79 119.63
  A 1.48 1.48 0.0 0 1 69.50 121.46
  Q 63.36 122.08 60.65 127.53
  Q 60.23 128.38 59.90 127.49
  L 58.27 123.07
  Q 58.05 122.49 58.52 122.09
  C 60.41 120.46 64.69 117.82 60.33 115.39
  Q 59.84 115.11 59.28 115.25
  L 58.28 115.50
  Q 57.79 115.62 57.86 115.12
  Q 59.27 105.39 66.44 98.73
  Q 67.09 98.12 67.88 98.55
  L 70.53 99.98
  Q 71.05 100.26 71.10 100.85
  L 71.47 104.86
  Q 71.53 105.50 70.89 105.50
  L 69.86 105.50
  Q 69.32 105.50 68.90 105.85
  L 64.04 109.93
  Z"
/>
</g>
<path fill="#42685f" d="
  M 32.42 125.82
  L 29.26 125.54
  Q 28.50 125.47 28.50 124.71
  L 28.50 119.98
  Q 28.50 119.47 28.13 119.11
  Q 25.16 116.24 21.05 116.95
  C 19.61 117.20 18.37 116.64 19.20 114.94
  A 0.42 0.40 12.5 0 1 19.57 114.72
  L 41.85 114.73
  A 0.85 0.84 -9.7 0 1 42.65 115.29
  Q 43.04 116.35 42.37 117.03
  Q 42.04 117.37 41.56 117.31
  Q 37.33 116.79 33.74 118.88
  Q 33.25 119.17 33.25 119.73
  L 33.25 125.07
  Q 33.25 125.90 32.42 125.82
  Z"
/>
</svg>
