<?xml version="1.0" encoding="UTF-8" standalone="no"?>
<!DOCTYPE svg PUBLIC "-//W3C//DTD SVG 1.1//EN" "http://www.w3.org/Graphics/SVG/1.1/DTD/svg11.dtd">
<svg xmlns="http://www.w3.org/2000/svg" version="1.1" viewBox="0 0 180 180">
<g stroke-width="2.00" fill="none" stroke-linecap="butt">
<path stroke="#98989a" vector-effect="non-scaling-stroke" d="
  M 25.78 70.80
  L 26.35 72.70
  Q 26.52 73.26 27.11 73.22
  L 32.53 72.83
  Q 33.05 72.80 33.14 72.28
  Q 33.64 69.67 36.08 68.71
  Q 36.64 68.49 36.51 67.90
  L 30.24 40.01
  Q 30.07 39.24 29.87 40.00
  Q 26.63 52.40 23.33 64.84
  C 22.67 67.34 21.89 69.14 25.03 70.07
  Q 25.60 70.23 25.78 70.80"
/>
<path stroke="#533d3e" vector-effect="non-scaling-stroke" d="
  M 78.00 47.09
  C 71.33 42.54 62.04 43.53 56.60 48.70
  C 54.19 50.99 52.81 54.34 51.50 57.49
  A 0.83 0.82 11.8 0 0 52.25 58.63
  L 68.03 58.85
  Q 68.65 58.86 68.89 58.28
  Q 71.68 51.56 77.97 47.88
  Q 78.61 47.51 78.00 47.09"
/>
<path stroke="#533d3e" vector-effect="non-scaling-stroke" d="
  M 119.42 44.45
  C 113.92 43.95 108.30 45.11 104.60 49.48
  Q 104.27 49.87 104.62 50.23
  Q 108.19 53.89 110.59 58.39
  Q 110.85 58.87 111.39 58.87
  L 132.75 58.64
  A 0.68 0.68 0.0 0 0 133.40 57.80
  C 131.67 50.96 126.68 45.10 119.42 44.45"
/>
<path stroke="#533d3e" vector-effect="non-scaling-stroke" d="
  M 73.00 64.51
  Q 88.93 65.22 104.83 64.14
  A 0.76 0.75 81.0 0 0 105.51 63.20
  Q 102.85 52.58 91.96 50.69
  C 81.03 48.80 76.26 54.57 72.41 63.59
  A 0.67 0.66 12.5 0 0 73.00 64.51"
/>
<path stroke="#927a6d" vector-effect="non-scaling-stroke" d="
  M 112.37 64.71
  L 112.06 64.52
  Q 111.75 64.33 111.75 64.69
  L 111.75 67.76
  Q 111.75 68.34 112.33 68.42
  Q 116.54 69.03 119.25 72.27
  Q 119.81 72.94 119.90 72.07
  C 120.13 69.75 120.16 65.51 123.96 67.23
  A 2.13 2.13 0.0 0 1 125.22 69.16
  Q 125.32 75.86 125.20 83.19
  Q 125.17 85.22 122.73 85.90
  Q 122.34 86.01 121.96 85.84
  L 121.24 85.51
  Q 120.79 85.30 120.48 85.69
  L 117.91 88.88
  Q 117.56 89.32 117.80 89.81
  C 121.31 97.07 130.26 86.16 132.05 82.76
  C 134.72 77.68 134.33 70.29 134.50 64.34
  Q 134.51 63.87 134.05 63.95
  C 127.30 65.07 119.50 64.63 112.62 64.77
  Q 112.49 64.77 112.37 64.71"
/>
<path stroke="#927a6d" vector-effect="non-scaling-stroke" d="
  M 66.24 64.54
  L 53.42 64.42
  Q 53.12 64.41 53.33 64.62
  C 56.89 68.27 58.96 72.10 59.00 77.49
  Q 59.04 83.67 59.49 89.93
  Q 59.53 90.50 60.05 90.75
  Q 63.60 92.49 67.61 92.76
  A 1.34 1.33 -10.1 0 0 68.92 90.89
  C 65.56 83.29 65.98 73.13 66.67 65.01
  Q 66.71 64.54 66.24 64.54"
/>
<path stroke="#927a6d" vector-effect="non-scaling-stroke" d="
  M 112.81 73.99
  A 1.09 1.08 -75.8 0 0 111.11 75.01
  C 111.52 78.55 109.55 83.43 105.66 84.30
  C 98.58 85.90 97.23 75.94 97.34 71.22
  Q 97.35 70.74 96.86 70.73
  L 71.89 70.30
  Q 71.46 70.29 71.47 70.72
  C 71.66 76.54 71.29 83.31 73.72 88.25
  C 75.88 92.65 79.24 96.39 84.04 97.89
  C 90.97 100.05 101.80 98.05 103.51 89.26
  Q 103.97 86.88 107.23 87.02
  C 114.38 87.31 120.24 79.22 112.81 73.99"
/>
<path stroke="#533d3e" vector-effect="non-scaling-stroke" d="
  M 105.18 78.03
  L 105.62 70.57
  Q 105.66 69.98 105.06 69.99
  L 103.45 70.02
  Q 102.74 70.04 102.78 70.74
  C 102.82 71.71 103.21 79.07 104.90 78.41
  A 0.44 0.44 0.0 0 0 105.18 78.03"
/>
<path stroke="#98989a" vector-effect="non-scaling-stroke" d="
  M 48.96 76.27
  Q 49.19 96.84 49.85 117.42
  Q 49.87 118.00 50.45 118.00
  L 54.22 118.00
  Q 54.79 118.00 54.75 117.43
  C 54.48 113.57 54.71 109.64 54.56 105.99
  Q 53.91 90.65 53.67 75.31
  Q 53.65 74.16 51.73 71.10
  Q 51.45 70.66 51.13 71.08
  C 49.82 72.84 48.93 73.90 48.96 76.27"
/>
<path stroke="#533d3e" vector-effect="non-scaling-stroke" d="
  M 32.02 154.81
  C 32.31 137.23 31.43 119.66 31.34 102.19
  Q 31.27 90.63 30.88 79.03
  A 0.53 0.52 76.8 0 0 30.14 78.57
  L 29.56 78.82
  Q 28.96 79.09 28.97 79.75
  L 30.77 158.67
  Q 30.77 158.99 31.08 159.08
  Q 31.30 159.14 31.43 159.33
  Q 32.02 160.12 32.01 158.95
  Q 31.98 156.87 32.02 154.81"
/>
<path stroke="#533d3e" vector-effect="non-scaling-stroke" d="
  M 155.25 89.74
  A 0.62 0.61 -70.3 0 0 154.25 90.22
  L 154.25 91.08
  Q 154.25 91.62 154.56 92.06
  Q 163.83 105.28 157.28 120.82
  Q 153.14 130.62 143.29 133.03
  Q 142.75 133.16 142.75 133.72
  L 142.75 135.32
  Q 142.75 135.81 143.23 135.76
  C 150.52 134.96 155.01 130.43 158.49 124.43
  C 164.00 114.92 163.90 96.88 155.25 89.74"
/>
<path stroke="#533d3e" vector-effect="non-scaling-stroke" d="
  M 125.50 102.40
  L 134.96 96.10
  Q 135.55 95.72 135.30 95.06
  L 133.88 91.30
  Q 133.60 90.56 133.08 91.17
  Q 129.02 95.96 123.08 97.97
  Q 122.37 98.21 122.74 98.86
  L 124.63 102.20
  A 0.61 0.60 -31.7 0 0 125.50 102.40"
/>
<path stroke="#533d3e" vector-effect="non-scaling-stroke" d="
  M 103.87 100.04
  L 110.22 98.92
  Q 110.72 98.83 111.09 98.48
  L 114.15 95.60
  Q 114.57 95.20 114.23 94.73
  L 112.84 92.80
  Q 112.48 92.30 112.00 92.68
  Q 107.70 96.05 103.78 99.87
  Q 103.55 100.09 103.87 100.04"
/>
<path stroke="#533d3e" vector-effect="non-scaling-stroke" d="
  M 89.97 109.60
  C 87.99 107.20 83.27 104.39 80.08 102.78
  Q 76.05 100.75 73.01 97.20
  Q 72.51 96.62 72.22 97.33
  L 70.75 100.99
  Q 70.51 101.59 71.03 101.98
  C 76.44 105.94 82.26 109.14 87.35 113.38
  Q 87.88 113.83 88.25 113.24
  L 90.02 110.44
  Q 90.30 110.00 89.97 109.60"
/>
<path stroke="#533d3e" vector-effect="non-scaling-stroke" d="
  M 61.53 97.96
  Q 59.88 97.31 59.96 99.08
  L 60.09 101.88
  Q 60.11 102.48 60.59 102.84
  L 63.80 105.24
  Q 64.27 105.59 64.47 105.04
  Q 66.38 99.86 61.53 97.96"
/>
<path stroke="#3d504e" vector-effect="non-scaling-stroke" d="
  M 136.44 114.95
  C 136.80 110.97 136.49 106.78 136.11 102.78
  A 0.40 0.40 0.0 0 0 135.48 102.49
  L 130.60 105.91
  Q 130.19 106.20 130.46 106.62
  L 136.05 115.05
  Q 136.39 115.57 136.44 114.95"
/>
<path stroke="#533d3e" vector-effect="non-scaling-stroke" d="
  M 90.41 126.50
  C 93.51 125.49 95.32 129.09 93.03 131.04
  Q 91.76 132.12 90.38 133.16
  Q 89.90 133.51 90.14 134.05
  L 92.97 140.49
  Q 93.23 141.11 93.72 140.64
  Q 98.44 136.15 103.12 131.64
  C 104.96 129.87 107.63 131.07 107.73 133.39
  C 107.86 136.56 100.05 142.21 97.72 144.56
  Q 97.14 145.14 97.88 145.48
  L 103.38 148.00
  Q 103.94 148.26 104.41 147.85
  Q 111.29 141.71 118.54 136.00
  C 121.57 133.62 125.18 137.39 121.99 140.03
  Q 116.92 144.23 111.77 148.71
  Q 111.13 149.27 111.97 149.30
  Q 130.69 149.99 132.22 131.71
  A 0.38 0.38 0.0 0 0 131.54 131.46
  C 128.28 135.91 123.90 132.24 126.18 129.44
  Q 128.45 126.65 131.08 124.07
  Q 131.48 123.68 131.34 123.13
  L 129.63 116.28
  Q 129.44 115.50 128.86 116.07
  Q 119.47 125.37 115.67 128.41
  Q 112.70 130.78 110.83 127.41
  Q 110.59 126.97 110.73 126.50
  Q 111.32 124.36 113.01 122.97
  Q 120.24 117.03 125.76 111.04
  Q 126.21 110.56 125.68 110.17
  L 121.39 107.01
  Q 120.94 106.67 120.53 107.05
  C 118.71 108.73 110.28 117.54 108.05 113.66
  C 106.39 110.79 112.53 106.90 114.51 105.47
  A 0.41 0.41 0.0 0 0 114.27 104.73
  C 110.87 104.77 107.21 104.81 104.13 106.28
  Q 91.98 112.06 89.90 126.07
  Q 89.81 126.70 90.41 126.50"
/>
<path stroke="#3d504e" vector-effect="non-scaling-stroke" d="
  M 77.42 113.22
  L 70.51 108.68
  Q 69.83 108.23 69.80 109.04
  L 69.39 121.06
  Q 69.38 121.52 69.71 121.20
  L 77.48 113.86
  A 0.42 0.41 40.2 0 0 77.42 113.22"
/>
<path stroke="#533d3e" vector-effect="non-scaling-stroke" d="
  M 62.23 111.44
  A 1.17 1.17 0.0 0 0 60.35 112.41
  L 60.50 117.20
  Q 60.52 117.67 60.99 117.74
  C 64.32 118.26 64.27 113.00 62.23 111.44"
/>
<path stroke="#533d3e" vector-effect="non-scaling-stroke" d="
  M 84.21 118.28
  L 83.08 117.35
  Q 82.56 116.92 82.08 117.38
  L 69.65 129.35
  Q 69.02 129.96 69.89 130.13
  C 73.05 130.75 75.15 130.35 77.81 128.24
  C 80.70 125.94 84.85 123.54 85.40 119.59
  Q 85.44 119.35 85.28 119.16
  Q 85.14 118.99 85.01 118.91
  Q 84.78 118.76 84.21 118.28"
/>
<path stroke="#927a6d" vector-effect="non-scaling-stroke" d="
  M 148.49 122.90
  L 143.40 121.62
  Q 142.75 121.46 142.75 122.13
  L 142.75 126.79
  Q 142.75 127.57 143.43 127.20
  L 148.67 124.30
  A 0.76 0.76 0.0 0 0 148.49 122.90"
/>
<path stroke="#3d504e" vector-effect="non-scaling-stroke" d="
  M 49.50 128.83
  L 49.50 133.74
  Q 49.50 134.41 50.16 134.48
  L 53.55 134.83
  Q 54.25 134.90 54.25 134.19
  L 54.25 128.77
  Q 54.25 128.30 54.64 128.04
  Q 57.59 126.04 61.14 126.24
  C 62.70 126.33 64.15 126.07 63.34 124.04
  A 0.51 0.50 78.8 0 0 62.87 123.72
  L 41.05 123.73
  A 0.88 0.88 0.0 0 0 40.32 124.12
  C 39.24 125.67 40.76 126.17 41.99 125.98
  Q 45.93 125.36 49.10 127.98
  Q 49.50 128.31 49.50 128.83"
/>
<path stroke="#927a6d" vector-effect="non-scaling-stroke" d="
  M 63.2972 132.8813
  A 0.57 0.57 0.0 0 0 62.7527 132.2870
  L 60.6547 132.1954
  A 0.57 0.57 0.0 0 0 60.0603 132.7400
  L 60.0028 134.0587
  A 0.57 0.57 0.0 0 0 60.5473 134.6530
  L 62.6453 134.7446
  A 0.57 0.57 0.0 0 0 63.2397 134.2000
  L 63.2972 132.8813"
/>
<path stroke="#533d3e" vector-effect="non-scaling-stroke" d="
  M 69.10 138.68
  Q 69.05 138.85 68.99 139.02
  Q 68.83 139.50 69.33 139.50
  L 85.06 139.50
  Q 85.83 139.50 85.62 138.77
  L 84.91 136.32
  Q 84.74 135.75 84.15 135.75
  L 69.99 135.75
  Q 69.43 135.75 69.23 136.27
  Q 68.87 137.24 69.11 138.36
  Q 69.14 138.52 69.10 138.68"
/>
<path stroke="#533d3e" vector-effect="non-scaling-stroke" d="
  M 62.82 140.68
  Q 60.59 140.39 58.52 140.23
  C 55.67 140.01 52.39 140.83 49.00 140.05
  Q 48.46 139.93 48.12 140.36
  Q 47.86 140.70 48.12 141.06
  Q 48.43 141.51 48.35 142.05
  Q 47.04 150.43 48.50 158.77
  Q 48.59 159.27 49.05 159.49
  C 51.83 160.80 59.40 159.86 62.80 159.86
  A 0.45 0.44 -0.7 0 0 63.24 159.42
  L 63.29 141.21
  Q 63.29 140.74 62.82 140.68"
/>
<path stroke="#533d3e" vector-effect="non-scaling-stroke" d="
  M 136.35 141.37
  Q 134.15 146.38 129.93 149.85
  Q 129.55 150.17 129.54 150.66
  L 129.42 159.73
  Q 129.41 160.37 130.05 160.30
  L 135.71 159.68
  Q 136.40 159.61 136.52 158.93
  Q 138.03 150.38 136.71 141.42
  Q 136.61 140.77 136.35 141.37"
/>
<path stroke="#533d3e" vector-effect="non-scaling-stroke" d="
  M 91.17 147.35
  L 89.73 145.69
  Q 89.36 145.27 88.80 145.27
  L 69.62 145.51
  Q 69.12 145.52 69.01 146.01
  Q 68.95 146.28 69.13 146.55
  Q 69.42 147.00 69.34 147.54
  Q 68.01 156.19 69.46 164.79
  Q 69.55 165.34 70.07 165.53
  C 73.70 166.86 81.28 165.84 85.24 165.69
  A 1.36 1.35 86.0 0 0 86.53 164.20
  C 85.91 158.05 85.45 151.76 92.23 148.92
  A 0.42 0.42 0.0 0 0 92.41 148.29
  Q 92.18 147.97 91.84 147.83
  Q 91.44 147.67 91.17 147.35"
/>
<path stroke="#533d3e" vector-effect="non-scaling-stroke" d="
  M 122.86 153.76
  C 117.45 156.01 112.89 154.86 107.50 154.74
  Q 106.82 154.72 107.00 155.38
  Q 108.17 159.54 107.76 163.93
  A 1.30 1.29 -83.9 0 0 108.89 165.34
  Q 115.71 166.18 122.52 165.46
  Q 123.17 165.39 123.19 164.74
  L 123.56 154.25
  Q 123.59 153.46 122.86 153.76"
/>
<path stroke="#533d3e" vector-effect="non-scaling-stroke" d="
  M 101.69 159.12
  C 101.88 154.20 95.83 152.48 92.67 155.45
  Q 92.25 155.85 92.25 156.42
  L 92.25 159.28
  Q 92.25 159.81 92.78 159.80
  L 101.16 159.64
  Q 101.67 159.63 101.69 159.12"
/>
<path stroke="#927a6d" vector-effect="non-scaling-stroke" d="
  M 64.9821 69.4189
  A 2.56 2.56 0.0 0 0 62.3822 66.8994
  L 62.1622 66.9029
  A 2.56 2.56 0.0 0 0 59.6427 69.5028
  L 59.8579 83.2011
  A 2.56 2.56 0.0 0 0 62.4578 85.7206
  L 62.6778 85.7171
  A 2.56 2.56 0.0 0 0 65.1973 83.1172
  L 64.9821 69.4189"
/>
<path stroke="#927a6d" vector-effect="non-scaling-stroke" d="
  M 86.0254 75.5832
  A 2.57 2.57 0.0 0 0 83.4197 73.0494
  L 83.1997 73.0524
  A 2.57 2.57 0.0 0 0 80.6659 75.6581
  L 80.8546 89.1768
  A 2.57 2.57 0.0 0 0 83.4603 91.7106
  L 83.6803 91.7076
  A 2.57 2.57 0.0 0 0 86.2141 89.1019
  L 86.0254 75.5832"
/>
<path stroke="#533d3e" vector-effect="non-scaling-stroke" d="
  M 104.3619 117.2765
  A 2.45 2.45 0.0 0 0 100.9142 116.9324
  L 96.3176 120.6946
  A 2.45 2.45 0.0 0 0 95.9734 124.1423
  L 96.1381 124.3435
  A 2.45 2.45 0.0 0 0 99.5858 124.6876
  L 104.1824 120.9254
  A 2.45 2.45 0.0 0 0 104.5266 117.4777
  L 104.3619 117.2765"
/>
</g>
<g fill="#38383c">
<path d="
  M 141.25 100.36
  A 0.33 0.33 0.0 0 0 141.87 100.51
  C 143.93 96.27 146.87 92.77 148.54 88.42
  C 150.50 83.32 155.96 82.72 159.78 86.35
  C 169.57 95.62 170.32 116.57 163.38 127.26
  C 160.49 131.71 157.02 136.36 152.34 139.09
  C 149.74 140.59 146.10 141.15 142.93 142.01
  Q 142.39 142.16 142.45 142.71
  Q 143.41 151.24 141.93 159.54
  C 140.97 164.98 135.17 166.49 130.35 165.54
  A 1.43 1.42 8.0 0 0 128.66 166.81
  C 128.05 173.56 112.81 171.71 108.56 171.12
  Q 103.77 170.46 102.50 165.86
  Q 102.37 165.40 101.89 165.42
  L 92.92 165.87
  Q 92.42 165.89 92.29 166.36
  Q 90.86 171.21 84.81 171.57
  C 78.40 171.96 66.85 173.82 63.98 166.09
  Q 63.81 165.62 63.31 165.64
  C 57.26 165.87 48.33 167.01 44.50 162.82
  C 40.79 158.75 42.42 140.92 42.57 135.26
  Q 42.59 134.66 41.99 134.60
  L 38.32 134.22
  Q 37.68 134.15 37.69 134.80
  C 37.85 143.63 38.67 153.07 37.52 161.78
  Q 37.46 162.27 37.10 162.62
  C 32.48 167.23 25.68 165.42 25.35 158.32
  C 24.38 137.73 24.25 116.97 23.65 96.24
  C 23.50 90.95 23.90 84.91 23.71 79.21
  Q 23.69 78.69 23.24 78.42
  Q 21.75 77.52 21.61 75.76
  Q 21.58 75.26 21.16 74.98
  Q 16.02 71.46 17.73 64.74
  Q 22.23 47.01 26.99 32.00
  C 27.44 30.59 28.58 29.20 30.17 29.15
  C 32.52 29.07 33.21 31.86 33.86 34.04
  C 37.72 47.02 39.24 56.54 41.91 66.42
  C 42.90 70.08 42.36 72.56 39.07 74.39
  Q 38.63 74.63 38.50 75.11
  Q 38.11 76.57 36.82 77.36
  Q 36.35 77.64 36.37 78.19
  L 37.33 115.75
  Q 37.35 116.45 38.06 116.41
  L 42.18 116.18
  Q 42.80 116.14 42.78 115.52
  C 42.52 107.72 43.77 99.49 43.70 92.46
  Q 43.62 84.70 43.49 76.94
  C 43.44 73.84 45.40 71.41 45.25 68.49
  C 44.71 58.52 47.98 47.33 56.76 41.88
  C 65.45 36.47 76.37 37.99 84.14 44.57
  Q 84.54 44.90 85.07 44.85
  Q 92.15 44.05 98.83 46.42
  Q 99.37 46.61 99.73 46.18
  C 109.77 34.42 126.49 37.08 134.65 48.09
  C 141.84 57.79 140.46 74.31 137.31 85.04
  Q 137.15 85.58 137.44 86.06
  Q 141.40 92.64 141.25 100.36
  Z
  M 25.78 70.80
  L 26.35 72.70
  Q 26.52 73.26 27.11 73.22
  L 32.53 72.83
  Q 33.05 72.80 33.14 72.28
  Q 33.64 69.67 36.08 68.71
  Q 36.64 68.49 36.51 67.90
  L 30.24 40.01
  Q 30.07 39.24 29.87 40.00
  Q 26.63 52.40 23.33 64.84
  C 22.67 67.34 21.89 69.14 25.03 70.07
  Q 25.60 70.23 25.78 70.80
  Z
  M 78.00 47.09
  C 71.33 42.54 62.04 43.53 56.60 48.70
  C 54.19 50.99 52.81 54.34 51.50 57.49
  A 0.83 0.82 11.8 0 0 52.25 58.63
  L 68.03 58.85
  Q 68.65 58.86 68.89 58.28
  Q 71.68 51.56 77.97 47.88
  Q 78.61 47.51 78.00 47.09
  Z
  M 119.42 44.45
  C 113.92 43.95 108.30 45.11 104.60 49.48
  Q 104.27 49.87 104.62 50.23
  Q 108.19 53.89 110.59 58.39
  Q 110.85 58.87 111.39 58.87
  L 132.75 58.64
  A 0.68 0.68 0.0 0 0 133.40 57.80
  C 131.67 50.96 126.68 45.10 119.42 44.45
  Z
  M 73.00 64.51
  Q 88.93 65.22 104.83 64.14
  A 0.76 0.75 81.0 0 0 105.51 63.20
  Q 102.85 52.58 91.96 50.69
  C 81.03 48.80 76.26 54.57 72.41 63.59
  A 0.67 0.66 12.5 0 0 73.00 64.51
  Z
  M 112.37 64.71
  L 112.06 64.52
  Q 111.75 64.33 111.75 64.69
  L 111.75 67.76
  Q 111.75 68.34 112.33 68.42
  Q 116.54 69.03 119.25 72.27
  Q 119.81 72.94 119.90 72.07
  C 120.13 69.75 120.16 65.51 123.96 67.23
  A 2.13 2.13 0.0 0 1 125.22 69.16
  Q 125.32 75.86 125.20 83.19
  Q 125.17 85.22 122.73 85.90
  Q 122.34 86.01 121.96 85.84
  L 121.24 85.51
  Q 120.79 85.30 120.48 85.69
  L 117.91 88.88
  Q 117.56 89.32 117.80 89.81
  C 121.31 97.07 130.26 86.16 132.05 82.76
  C 134.72 77.68 134.33 70.29 134.50 64.34
  Q 134.51 63.87 134.05 63.95
  C 127.30 65.07 119.50 64.63 112.62 64.77
  Q 112.49 64.77 112.37 64.71
  Z
  M 66.24 64.54
  L 53.42 64.42
  Q 53.12 64.41 53.33 64.62
  C 56.89 68.27 58.96 72.10 59.00 77.49
  Q 59.04 83.67 59.49 89.93
  Q 59.53 90.50 60.05 90.75
  Q 63.60 92.49 67.61 92.76
  A 1.34 1.33 -10.1 0 0 68.92 90.89
  C 65.56 83.29 65.98 73.13 66.67 65.01
  Q 66.71 64.54 66.24 64.54
  Z
  M 112.81 73.99
  A 1.09 1.08 -75.8 0 0 111.11 75.01
  C 111.52 78.55 109.55 83.43 105.66 84.30
  C 98.58 85.90 97.23 75.94 97.34 71.22
  Q 97.35 70.74 96.86 70.73
  L 71.89 70.30
  Q 71.46 70.29 71.47 70.72
  C 71.66 76.54 71.29 83.31 73.72 88.25
  C 75.88 92.65 79.24 96.39 84.04 97.89
  C 90.97 100.05 101.80 98.05 103.51 89.26
  Q 103.97 86.88 107.23 87.02
  C 114.38 87.31 120.24 79.22 112.81 73.99
  Z
  M 105.18 78.03
  L 105.62 70.57
  Q 105.66 69.98 105.06 69.99
  L 103.45 70.02
  Q 102.74 70.04 102.78 70.74
  C 102.82 71.71 103.21 79.07 104.90 78.41
  A 0.44 0.44 0.0 0 0 105.18 78.03
  Z
  M 48.96 76.27
  Q 49.19 96.84 49.85 117.42
  Q 49.87 118.00 50.45 118.00
  L 54.22 118.00
  Q 54.79 118.00 54.75 117.43
  C 54.48 113.57 54.71 109.64 54.56 105.99
  Q 53.91 90.65 53.67 75.31
  Q 53.65 74.16 51.73 71.10
  Q 51.45 70.66 51.13 71.08
  C 49.82 72.84 48.93 73.90 48.96 76.27
  Z
  M 32.02 154.81
  C 32.31 137.23 31.43 119.66 31.34 102.19
  Q 31.27 90.63 30.88 79.03
  A 0.53 0.52 76.8 0 0 30.14 78.57
  L 29.56 78.82
  Q 28.96 79.09 28.97 79.75
  L 30.77 158.67
  Q 30.77 158.99 31.08 159.08
  Q 31.30 159.14 31.43 159.33
  Q 32.02 160.12 32.01 158.95
  Q 31.98 156.87 32.02 154.81
  Z
  M 155.25 89.74
  A 0.62 0.61 -70.3 0 0 154.25 90.22
  L 154.25 91.08
  Q 154.25 91.62 154.56 92.06
  Q 163.83 105.28 157.28 120.82
  Q 153.14 130.62 143.29 133.03
  Q 142.75 133.16 142.75 133.72
  L 142.75 135.32
  Q 142.75 135.81 143.23 135.76
  C 150.52 134.96 155.01 130.43 158.49 124.43
  C 164.00 114.92 163.90 96.88 155.25 89.74
  Z
  M 125.50 102.40
  L 134.96 96.10
  Q 135.55 95.72 135.30 95.06
  L 133.88 91.30
  Q 133.60 90.56 133.08 91.17
  Q 129.02 95.96 123.08 97.97
  Q 122.37 98.21 122.74 98.86
  L 124.63 102.20
  A 0.61 0.60 -31.7 0 0 125.50 102.40
  Z
  M 103.87 100.04
  L 110.22 98.92
  Q 110.72 98.83 111.09 98.48
  L 114.15 95.60
  Q 114.57 95.20 114.23 94.73
  L 112.84 92.80
  Q 112.48 92.30 112.00 92.68
  Q 107.70 96.05 103.78 99.87
  Q 103.55 100.09 103.87 100.04
  Z
  M 142.92 116.21
  C 146.39 116.50 148.79 116.50 151.70 118.68
  A 0.48 0.48 0.0 0 0 152.44 118.46
  C 154.82 111.99 155.80 102.49 150.94 96.81
  Q 150.54 96.35 150.24 96.87
  C 147.29 102.01 141.59 109.75 142.39 115.71
  Q 142.46 116.17 142.92 116.21
  Z
  M 89.97 109.60
  C 87.99 107.20 83.27 104.39 80.08 102.78
  Q 76.05 100.75 73.01 97.20
  Q 72.51 96.62 72.22 97.33
  L 70.75 100.99
  Q 70.51 101.59 71.03 101.98
  C 76.44 105.94 82.26 109.14 87.35 113.38
  Q 87.88 113.83 88.25 113.24
  L 90.02 110.44
  Q 90.30 110.00 89.97 109.60
  Z
  M 61.53 97.96
  Q 59.88 97.31 59.96 99.08
  L 60.09 101.88
  Q 60.11 102.48 60.59 102.84
  L 63.80 105.24
  Q 64.27 105.59 64.47 105.04
  Q 66.38 99.86 61.53 97.96
  Z
  M 136.44 114.95
  C 136.80 110.97 136.49 106.78 136.11 102.78
  A 0.40 0.40 0.0 0 0 135.48 102.49
  L 130.60 105.91
  Q 130.19 106.20 130.46 106.62
  L 136.05 115.05
  Q 136.39 115.57 136.44 114.95
  Z
  M 90.41 126.50
  C 93.51 125.49 95.32 129.09 93.03 131.04
  Q 91.76 132.12 90.38 133.16
  Q 89.90 133.51 90.14 134.05
  L 92.97 140.49
  Q 93.23 141.11 93.72 140.64
  Q 98.44 136.15 103.12 131.64
  C 104.96 129.87 107.63 131.07 107.73 133.39
  C 107.86 136.56 100.05 142.21 97.72 144.56
  Q 97.14 145.14 97.88 145.48
  L 103.38 148.00
  Q 103.94 148.26 104.41 147.85
  Q 111.29 141.71 118.54 136.00
  C 121.57 133.62 125.18 137.39 121.99 140.03
  Q 116.92 144.23 111.77 148.71
  Q 111.13 149.27 111.97 149.30
  Q 130.69 149.99 132.22 131.71
  A 0.38 0.38 0.0 0 0 131.54 131.46
  C 128.28 135.91 123.90 132.24 126.18 129.44
  Q 128.45 126.65 131.08 124.07
  Q 131.48 123.68 131.34 123.13
  L 129.63 116.28
  Q 129.44 115.50 128.86 116.07
  Q 119.47 125.37 115.67 128.41
  Q 112.70 130.78 110.83 127.41
  Q 110.59 126.97 110.73 126.50
  Q 111.32 124.36 113.01 122.97
  Q 120.24 117.03 125.76 111.04
  Q 126.21 110.56 125.68 110.17
  L 121.39 107.01
  Q 120.94 106.67 120.53 107.05
  C 118.71 108.73 110.28 117.54 108.05 113.66
  C 106.39 110.79 112.53 106.90 114.51 105.47
  A 0.41 0.41 0.0 0 0 114.27 104.73
  C 110.87 104.77 107.21 104.81 104.13 106.28
  Q 91.98 112.06 89.90 126.07
  Q 89.81 126.70 90.41 126.50
  Z
  M 77.42 113.22
  L 70.51 108.68
  Q 69.83 108.23 69.80 109.04
  L 69.39 121.06
  Q 69.38 121.52 69.71 121.20
  L 77.48 113.86
  A 0.42 0.41 40.2 0 0 77.42 113.22
  Z
  M 62.23 111.44
  A 1.17 1.17 0.0 0 0 60.35 112.41
  L 60.50 117.20
  Q 60.52 117.67 60.99 117.74
  C 64.32 118.26 64.27 113.00 62.23 111.44
  Z
  M 84.21 118.28
  L 83.08 117.35
  Q 82.56 116.92 82.08 117.38
  L 69.65 129.35
  Q 69.02 129.96 69.89 130.13
  C 73.05 130.75 75.15 130.35 77.81 128.24
  C 80.70 125.94 84.85 123.54 85.40 119.59
  Q 85.44 119.35 85.28 119.16
  Q 85.14 118.99 85.01 118.91
  Q 84.78 118.76 84.21 118.28
  Z
  M 148.49 122.90
  L 143.40 121.62
  Q 142.75 121.46 142.75 122.13
  L 142.75 126.79
  Q 142.75 127.57 143.43 127.20
  L 148.67 124.30
  A 0.76 0.76 0.0 0 0 148.49 122.90
  Z
  M 49.50 128.83
  L 49.50 133.74
  Q 49.50 134.41 50.16 134.48
  L 53.55 134.83
  Q 54.25 134.90 54.25 134.19
  L 54.25 128.77
  Q 54.25 128.30 54.64 128.04
  Q 57.59 126.04 61.14 126.24
  C 62.70 126.33 64.15 126.07 63.34 124.04
  A 0.51 0.50 78.8 0 0 62.87 123.72
  L 41.05 123.73
  A 0.88 0.88 0.0 0 0 40.32 124.12
  C 39.24 125.67 40.76 126.17 41.99 125.98
  Q 45.93 125.36 49.10 127.98
  Q 49.50 128.31 49.50 128.83
  Z
  M 63.2972 132.8813
  A 0.57 0.57 0.0 0 0 62.7527 132.2870
  L 60.6547 132.1954
  A 0.57 0.57 0.0 0 0 60.0603 132.7400
  L 60.0028 134.0587
  A 0.57 0.57 0.0 0 0 60.5473 134.6530
  L 62.6453 134.7446
  A 0.57 0.57 0.0 0 0 63.2397 134.2000
  L 63.2972 132.8813
  Z
  M 69.10 138.68
  Q 69.05 138.85 68.99 139.02
  Q 68.83 139.50 69.33 139.50
  L 85.06 139.50
  Q 85.83 139.50 85.62 138.77
  L 84.91 136.32
  Q 84.74 135.75 84.15 135.75
  L 69.99 135.75
  Q 69.43 135.75 69.23 136.27
  Q 68.87 137.24 69.11 138.36
  Q 69.14 138.52 69.10 138.68
  Z
  M 62.82 140.68
  Q 60.59 140.39 58.52 140.23
  C 55.67 140.01 52.39 140.83 49.00 140.05
  Q 48.46 139.93 48.12 140.36
  Q 47.86 140.70 48.12 141.06
  Q 48.43 141.51 48.35 142.05
  Q 47.04 150.43 48.50 158.77
  Q 48.59 159.27 49.05 159.49
  C 51.83 160.80 59.40 159.86 62.80 159.86
  A 0.45 0.44 -0.7 0 0 63.24 159.42
  L 63.29 141.21
  Q 63.29 140.74 62.82 140.68
  Z
  M 136.35 141.37
  Q 134.15 146.38 129.93 149.85
  Q 129.55 150.17 129.54 150.66
  L 129.42 159.73
  Q 129.41 160.37 130.05 160.30
  L 135.71 159.68
  Q 136.40 159.61 136.52 158.93
  Q 138.03 150.38 136.71 141.42
  Q 136.61 140.77 136.35 141.37
  Z
  M 91.17 147.35
  L 89.73 145.69
  Q 89.36 145.27 88.80 145.27
  L 69.62 145.51
  Q 69.12 145.52 69.01 146.01
  Q 68.95 146.28 69.13 146.55
  Q 69.42 147.00 69.34 147.54
  Q 68.01 156.19 69.46 164.79
  Q 69.55 165.34 70.07 165.53
  C 73.70 166.86 81.28 165.84 85.24 165.69
  A 1.36 1.35 86.0 0 0 86.53 164.20
  C 85.91 158.05 85.45 151.76 92.23 148.92
  A 0.42 0.42 0.0 0 0 92.41 148.29
  Q 92.18 147.97 91.84 147.83
  Q 91.44 147.67 91.17 147.35
  Z
  M 122.86 153.76
  C 117.45 156.01 112.89 154.86 107.50 154.74
  Q 106.82 154.72 107.00 155.38
  Q 108.17 159.54 107.76 163.93
  A 1.30 1.29 -83.9 0 0 108.89 165.34
  Q 115.71 166.18 122.52 165.46
  Q 123.17 165.39 123.19 164.74
  L 123.56 154.25
  Q 123.59 153.46 122.86 153.76
  Z
  M 101.69 159.12
  C 101.88 154.20 95.83 152.48 92.67 155.45
  Q 92.25 155.85 92.25 156.42
  L 92.25 159.28
  Q 92.25 159.81 92.78 159.80
  L 101.16 159.64
  Q 101.67 159.63 101.69 159.12
  Z"
/>
<rect x="-2.67" y="-9.41" transform="translate(62.42,76.31) rotate(-0.9)" width="5.34" height="18.82" rx="2.56"/>
<rect x="-2.68" y="-9.33" transform="translate(83.44,82.38) rotate(-0.8)" width="5.36" height="18.66" rx="2.57"/>
<rect x="-5.42" y="-2.58" transform="translate(100.25,120.81) rotate(-39.3)" width="10.84" height="5.16" rx="2.45"/>
</g>
<g fill="#ebbc9e">
<path d="
  M 112.62 64.77
  C 119.50 64.63 127.30 65.07 134.05 63.95
  Q 134.51 63.87 134.50 64.34
  C 134.33 70.29 134.72 77.68 132.05 82.76
  C 130.26 86.16 121.31 97.07 117.80 89.81
  Q 117.56 89.32 117.91 88.88
  L 120.48 85.69
  Q 120.79 85.30 121.24 85.51
  L 121.96 85.84
  Q 122.34 86.01 122.73 85.90
  Q 125.17 85.22 125.20 83.19
  Q 125.32 75.86 125.22 69.16
  A 2.13 2.13 0.0 0 0 123.96 67.23
  C 120.16 65.51 120.13 69.75 119.90 72.07
  Q 119.81 72.94 119.25 72.27
  Q 116.54 69.03 112.33 68.42
  Q 111.75 68.34 111.75 67.76
  L 111.75 64.69
  Q 111.75 64.33 112.06 64.52
  L 112.37 64.71
  Q 112.49 64.77 112.62 64.77
  Z"
/>
<path d="
  M 53.42 64.42
  L 66.24 64.54
  Q 66.71 64.54 66.67 65.01
  C 65.98 73.13 65.56 83.29 68.92 90.89
  A 1.34 1.33 -10.1 0 1 67.61 92.76
  Q 63.60 92.49 60.05 90.75
  Q 59.53 90.50 59.49 89.93
  Q 59.04 83.67 59.00 77.49
  C 58.96 72.10 56.89 68.27 53.33 64.62
  Q 53.12 64.41 53.42 64.42
  Z
  M 64.9821 69.4189
  A 2.56 2.56 0.0 0 0 62.3822 66.8994
  L 62.1622 66.9029
  A 2.56 2.56 0.0 0 0 59.6427 69.5028
  L 59.8579 83.2011
  A 2.56 2.56 0.0 0 0 62.4578 85.7206
  L 62.6778 85.7171
  A 2.56 2.56 0.0 0 0 65.1973 83.1172
  L 64.9821 69.4189
  Z"
/>
<path d="
  M 112.81 73.99
  C 120.24 79.22 114.38 87.31 107.23 87.02
  Q 103.97 86.88 103.51 89.26
  C 101.80 98.05 90.97 100.05 84.04 97.89
  C 79.24 96.39 75.88 92.65 73.72 88.25
  C 71.29 83.31 71.66 76.54 71.47 70.72
  Q 71.46 70.29 71.89 70.30
  L 96.86 70.73
  Q 97.35 70.74 97.34 71.22
  C 97.23 75.94 98.58 85.90 105.66 84.30
  C 109.55 83.43 111.52 78.55 111.11 75.01
  A 1.09 1.08 -75.8 0 1 112.81 73.99
  Z
  M 86.0254 75.5832
  A 2.57 2.57 0.0 0 0 83.4197 73.0494
  L 83.1997 73.0524
  A 2.57 2.57 0.0 0 0 80.6659 75.6581
  L 80.8546 89.1768
  A 2.57 2.57 0.0 0 0 83.4603 91.7106
  L 83.6803 91.7076
  A 2.57 2.57 0.0 0 0 86.2141 89.1019
  L 86.0254 75.5832
  Z"
/>
<path d="
  M 148.49 122.90
  A 0.76 0.76 0.0 0 1 148.67 124.30
  L 143.43 127.20
  Q 142.75 127.57 142.75 126.79
  L 142.75 122.13
  Q 142.75 121.46 143.40 121.62
  L 148.49 122.90
  Z"
/>
<rect x="-1.62" y="-1.23" transform="translate(61.65,133.47) rotate(2.5)" width="3.24" height="2.46" rx="0.57"/>
</g>
<g fill="#6e423f">
<path d="
  M 56.60 48.70
  C 62.04 43.53 71.33 42.54 78.00 47.09
  Q 78.61 47.51 77.97 47.88
  Q 71.68 51.56 68.89 58.28
  Q 68.65 58.86 68.03 58.85
  L 52.25 58.63
  A 0.83 0.82 11.8 0 1 51.50 57.49
  C 52.81 54.34 54.19 50.99 56.60 48.70
  Z"
/>
<path d="
  M 119.42 44.45
  C 126.68 45.10 131.67 50.96 133.40 57.80
  A 0.68 0.68 0.0 0 1 132.75 58.64
  L 111.39 58.87
  Q 110.85 58.87 110.59 58.39
  Q 108.19 53.89 104.62 50.23
  Q 104.27 49.87 104.60 49.48
  C 108.30 45.11 113.92 43.95 119.42 44.45
  Z"
/>
<path d="
  M 73.00 64.51
  A 0.67 0.66 12.5 0 1 72.41 63.59
  C 76.26 54.57 81.03 48.80 91.96 50.69
  Q 102.85 52.58 105.51 63.20
  A 0.76 0.75 81.0 0 1 104.83 64.14
  Q 88.93 65.22 73.00 64.51
  Z"
/>
<path d="
  M 105.18 78.03
  A 0.44 0.44 0.0 0 1 104.90 78.41
  C 103.21 79.07 102.82 71.71 102.78 70.74
  Q 102.74 70.04 103.45 70.02
  L 105.06 69.99
  Q 105.66 69.98 105.62 70.57
  L 105.18 78.03
  Z"
/>
<path d="
  M 32.02 154.81
  Q 31.98 156.87 32.01 158.95
  Q 32.02 160.12 31.43 159.33
  Q 31.30 159.14 31.08 159.08
  Q 30.77 158.99 30.77 158.67
  L 28.97 79.75
  Q 28.96 79.09 29.56 78.82
  L 30.14 78.57
  A 0.53 0.52 76.8 0 1 30.88 79.03
  Q 31.27 90.63 31.34 102.19
  C 31.43 119.66 32.31 137.23 32.02 154.81
  Z"
/>
<path d="
  M 155.25 89.74
  C 163.90 96.88 164.00 114.92 158.49 124.43
  C 155.01 130.43 150.52 134.96 143.23 135.76
  Q 142.75 135.81 142.75 135.32
  L 142.75 133.72
  Q 142.75 133.16 143.29 133.03
  Q 153.14 130.62 157.28 120.82
  Q 163.83 105.28 154.56 92.06
  Q 154.25 91.62 154.25 91.08
  L 154.25 90.22
  A 0.62 0.61 -70.3 0 1 155.25 89.74
  Z"
/>
<path d="
  M 125.50 102.40
  A 0.61 0.60 -31.7 0 1 124.63 102.20
  L 122.74 98.86
  Q 122.37 98.21 123.08 97.97
  Q 129.02 95.96 133.08 91.17
  Q 133.60 90.56 133.88 91.30
  L 135.30 95.06
  Q 135.55 95.72 134.96 96.10
  L 125.50 102.40
  Z"
/>
<path d="
  M 103.87 100.04
  Q 103.55 100.09 103.78 99.87
  Q 107.70 96.05 112.00 92.68
  Q 112.48 92.30 112.84 92.80
  L 114.23 94.73
  Q 114.57 95.20 114.15 95.60
  L 111.09 98.48
  Q 110.72 98.83 110.22 98.92
  L 103.87 100.04
  Z"
/>
<path d="
  M 80.08 102.78
  C 83.27 104.39 87.99 107.20 89.97 109.60
  Q 90.30 110.00 90.02 110.44
  L 88.25 113.24
  Q 87.88 113.83 87.35 113.38
  C 82.26 109.14 76.44 105.94 71.03 101.98
  Q 70.51 101.59 70.75 100.99
  L 72.22 97.33
  Q 72.51 96.62 73.01 97.20
  Q 76.05 100.75 80.08 102.78
  Z"
/>
<path d="
  M 61.53 97.96
  Q 66.38 99.86 64.47 105.04
  Q 64.27 105.59 63.80 105.24
  L 60.59 102.84
  Q 60.11 102.48 60.09 101.88
  L 59.96 99.08
  Q 59.88 97.31 61.53 97.96
  Z"
/>
<path d="
  M 93.03 131.04
  C 95.32 129.09 93.51 125.49 90.41 126.50
  Q 89.81 126.70 89.90 126.07
  Q 91.98 112.06 104.13 106.28
  C 107.21 104.81 110.87 104.77 114.27 104.73
  A 0.41 0.41 0.0 0 1 114.51 105.47
  C 112.53 106.90 106.39 110.79 108.05 113.66
  C 110.28 117.54 118.71 108.73 120.53 107.05
  Q 120.94 106.67 121.39 107.01
  L 125.68 110.17
  Q 126.21 110.56 125.76 111.04
  Q 120.24 117.03 113.01 122.97
  Q 111.32 124.36 110.73 126.50
  Q 110.59 126.97 110.83 127.41
  Q 112.70 130.78 115.67 128.41
  Q 119.47 125.37 128.86 116.07
  Q 129.44 115.50 129.63 116.28
  L 131.34 123.13
  Q 131.48 123.68 131.08 124.07
  Q 128.45 126.65 126.18 129.44
  C 123.90 132.24 128.28 135.91 131.54 131.46
  A 0.38 0.38 0.0 0 1 132.22 131.71
  Q 130.69 149.99 111.97 149.30
  Q 111.13 149.27 111.77 148.71
  Q 116.92 144.23 121.99 140.03
  C 125.18 137.39 121.57 133.62 118.54 136.00
  Q 111.29 141.71 104.41 147.85
  Q 103.94 148.26 103.38 148.00
  L 97.88 145.48
  Q 97.14 145.14 97.72 144.56
  C 100.05 142.21 107.86 136.56 107.73 133.39
  C 107.63 131.07 104.96 129.87 103.12 131.64
  Q 98.44 136.15 93.72 140.64
  Q 93.23 141.11 92.97 140.49
  L 90.14 134.05
  Q 89.90 133.51 90.38 133.16
  Q 91.76 132.12 93.03 131.04
  Z
  M 104.3619 117.2765
  A 2.45 2.45 0.0 0 0 100.9142 116.9324
  L 96.3176 120.6946
  A 2.45 2.45 0.0 0 0 95.9734 124.1423
  L 96.1381 124.3435
  A 2.45 2.45 0.0 0 0 99.5858 124.6876
  L 104.1824 120.9254
  A 2.45 2.45 0.0 0 0 104.5266 117.4777
  L 104.3619 117.2765
  Z"
/>
<path d="
  M 62.23 111.44
  C 64.27 113.00 64.32 118.26 60.99 117.74
  Q 60.52 117.67 60.50 117.20
  L 60.35 112.41
  A 1.17 1.17 0.0 0 1 62.23 111.44
  Z"
/>
<path d="
  M 85.01 118.91
  Q 85.14 118.99 85.28 119.16
  Q 85.44 119.35 85.40 119.59
  C 84.85 123.54 80.70 125.94 77.81 128.24
  C 75.15 130.35 73.05 130.75 69.89 130.13
  Q 69.02 129.96 69.65 129.35
  L 82.08 117.38
  Q 82.56 116.92 83.08 117.35
  L 84.21 118.28
  Q 84.78 118.76 85.01 118.91
  Z"
/>
<path d="
  M 69.11 138.36
  Q 68.87 137.24 69.23 136.27
  Q 69.43 135.75 69.99 135.75
  L 84.15 135.75
  Q 84.74 135.75 84.91 136.32
  L 85.62 138.77
  Q 85.83 139.50 85.06 139.50
  L 69.33 139.50
  Q 68.83 139.50 68.99 139.02
  Q 69.05 138.85 69.10 138.68
  Q 69.14 138.52 69.11 138.36
  Z"
/>
<path d="
  M 62.82 140.68
  Q 63.29 140.74 63.29 141.21
  L 63.24 159.42
  A 0.45 0.44 -0.7 0 1 62.80 159.86
  C 59.40 159.86 51.83 160.80 49.05 159.49
  Q 48.59 159.27 48.50 158.77
  Q 47.04 150.43 48.35 142.05
  Q 48.43 141.51 48.12 141.06
  Q 47.86 140.70 48.12 140.36
  Q 48.46 139.93 49.00 140.05
  C 52.39 140.83 55.67 140.01 58.52 140.23
  Q 60.59 140.39 62.82 140.68
  Z"
/>
<path d="
  M 136.71 141.42
  Q 138.03 150.38 136.52 158.93
  Q 136.40 159.61 135.71 159.68
  L 130.05 160.30
  Q 129.41 160.37 129.42 159.73
  L 129.54 150.66
  Q 129.55 150.17 129.93 149.85
  Q 134.15 146.38 136.35 141.37
  Q 136.61 140.77 136.71 141.42
  Z"
/>
<path d="
  M 91.84 147.83
  Q 92.18 147.97 92.41 148.29
  A 0.42 0.42 0.0 0 1 92.23 148.92
  C 85.45 151.76 85.91 158.05 86.53 164.20
  A 1.36 1.35 86.0 0 1 85.24 165.69
  C 81.28 165.84 73.70 166.86 70.07 165.53
  Q 69.55 165.34 69.46 164.79
  Q 68.01 156.19 69.34 147.54
  Q 69.42 147.00 69.13 146.55
  Q 68.95 146.28 69.01 146.01
  Q 69.12 145.52 69.62 145.51
  L 88.80 145.27
  Q 89.36 145.27 89.73 145.69
  L 91.17 147.35
  Q 91.44 147.67 91.84 147.83
  Z"
/>
<path d="
  M 107.50 154.74
  C 112.89 154.86 117.45 156.01 122.86 153.76
  Q 123.59 153.46 123.56 154.25
  L 123.19 164.74
  Q 123.17 165.39 122.52 165.46
  Q 115.71 166.18 108.89 165.34
  A 1.30 1.29 -83.9 0 1 107.76 163.93
  Q 108.17 159.54 107.00 155.38
  Q 106.82 154.72 107.50 154.74
  Z"
/>
<path d="
  M 92.67 155.45
  C 95.83 152.48 101.88 154.20 101.69 159.12
  Q 101.67 159.63 101.16 159.64
  L 92.78 159.80
  Q 92.25 159.81 92.25 159.28
  L 92.25 156.42
  Q 92.25 155.85 92.67 155.45
  Z"
/>
</g>
<g fill="#f8f8f8">
<path d="
  M 25.03 70.07
  C 21.89 69.14 22.67 67.34 23.33 64.84
  Q 26.63 52.40 29.87 40.00
  Q 30.07 39.24 30.24 40.01
  L 36.51 67.90
  Q 36.64 68.49 36.08 68.71
  Q 33.64 69.67 33.14 72.28
  Q 33.05 72.80 32.53 72.83
  L 27.11 73.22
  Q 26.52 73.26 26.35 72.70
  L 25.78 70.80
  Q 25.60 70.23 25.03 70.07
  Z"
/>
<path d="
  M 48.96 76.27
  C 48.93 73.90 49.82 72.84 51.13 71.08
  Q 51.45 70.66 51.73 71.10
  Q 53.65 74.16 53.67 75.31
  Q 53.91 90.65 54.56 105.99
  C 54.71 109.64 54.48 113.57 54.75 117.43
  Q 54.79 118.00 54.22 118.00
  L 50.45 118.00
  Q 49.87 118.00 49.85 117.42
  Q 49.19 96.84 48.96 76.27
  Z"
/>
</g>
<g fill="#42685f">
<path d="
  M 136.11 102.78
  C 136.49 106.78 136.80 110.97 136.44 114.95
  Q 136.39 115.57 136.05 115.05
  L 130.46 106.62
  Q 130.19 106.20 130.60 105.91
  L 135.48 102.49
  A 0.40 0.40 0.0 0 1 136.11 102.78
  Z"
/>
<path d="
  M 77.42 113.22
  A 0.42 0.41 40.2 0 1 77.48 113.86
  L 69.71 121.20
  Q 69.38 121.52 69.39 121.06
  L 69.80 109.04
  Q 69.83 108.23 70.51 108.68
  L 77.42 113.22
  Z"
/>
<path d="
  M 49.10 127.98
  Q 45.93 125.36 41.99 125.98
  C 40.76 126.17 39.24 125.67 40.32 124.12
  A 0.88 0.88 0.0 0 1 41.05 123.73
  L 62.87 123.72
  A 0.51 0.50 78.8 0 1 63.34 124.04
  C 64.15 126.07 62.70 126.33 61.14 126.24
  Q 57.59 126.04 54.64 128.04
  Q 54.25 128.30 54.25 128.77
  L 54.25 134.19
  Q 54.25 134.90 53.55 134.83
  L 50.16 134.48
  Q 49.50 134.41 49.50 133.74
  L 49.50 128.83
  Q 49.50 128.31 49.10 127.98
  Z"
/>
</g>
</svg>
