<?xml version="1.0" encoding="UTF-8" standalone="no"?>
<!DOCTYPE svg PUBLIC "-//W3C//DTD SVG 1.1//EN" "http://www.w3.org/Graphics/SVG/1.1/DTD/svg11.dtd">
<svg xmlns="http://www.w3.org/2000/svg" version="1.1" viewBox="0 0 180 180">
<g stroke-width="2.00" fill="none" stroke-linecap="butt">
<path stroke="#927a6d" vector-effect="non-scaling-stroke" d="
  M 127.47 74.49
  Q 126.42 73.71 125.20 74.22
  L 119.85 76.48
  Q 119.39 76.68 118.91 76.51
  Q 112.55 74.22 109.00 68.51
  Q 108.74 68.08 108.24 68.18
  C 100.45 69.67 93.98 67.78 86.73 64.57
  Q 86.23 64.35 86.11 64.88
  C 84.79 70.35 85.29 82.77 87.48 87.70
  C 89.66 92.62 93.58 96.83 98.91 98.18
  C 104.78 99.67 112.48 98.18 116.21 92.90
  C 117.61 90.91 116.77 88.50 119.75 87.06
  Q 120.20 86.85 120.69 86.90
  C 127.79 87.63 134.26 79.56 127.47 74.49"
/>
<path stroke="#927a6d" vector-effect="non-scaling-stroke" d="
  M 139.79 69.69
  Q 136.14 67.22 131.78 66.48
  Q 131.20 66.38 130.90 66.90
  L 129.82 68.77
  Q 129.48 69.36 130.09 69.66
  Q 132.79 71.00 134.23 73.62
  Q 134.49 74.08 134.92 73.79
  L 139.78 70.54
  Q 140.42 70.12 139.79 69.69"
/>
<path stroke="#927a6d" vector-effect="non-scaling-stroke" d="
  M 63.26 70.14
  C 50.07 65.52 39.83 66.42 26.34 69.47
  C 20.02 70.90 18.01 83.85 18.40 89.07
  C 18.93 96.38 24.41 115.23 34.94 115.25
  Q 48.82 115.28 62.67 115.24
  Q 63.17 115.24 63.12 114.74
  Q 61.09 97.13 62.42 79.43
  Q 62.76 74.93 63.72 70.99
  Q 63.87 70.35 63.26 70.14"
/>
<path stroke="#927a6d" vector-effect="non-scaling-stroke" d="
  M 69.16 113.04
  C 72.60 112.06 74.34 112.59 77.35 112.55
  Q 77.82 112.54 77.87 112.07
  Q 78.39 107.11 78.97 102.16
  C 79.46 98.06 81.00 94.93 82.81 91.39
  Q 83.04 90.94 82.84 90.47
  C 79.93 83.84 80.38 77.42 80.18 70.64
  Q 80.16 69.92 79.45 70.00
  L 69.80 71.01
  Q 69.26 71.07 69.14 71.60
  Q 68.31 75.28 68.00 80.50
  Q 66.99 97.40 68.55 112.62
  Q 68.61 113.20 69.16 113.04"
/>
<path stroke="#9c904e" vector-effect="non-scaling-stroke" d="
  M 147.61 75.40
  A 1.41 1.35 68.0 0 0 147.01 75.13
  C 137.52 73.57 136.02 83.32 131.78 89.00
  Q 131.55 89.30 131.74 89.64
  L 136.62 98.49
  Q 136.89 98.97 137.43 98.97
  L 143.72 99.01
  Q 144.33 99.02 144.44 98.42
  C 145.46 92.94 146.50 88.46 152.53 87.14
  Q 152.95 87.05 152.96 86.62
  Q 153.02 79.59 147.61 75.40"
/>
<path stroke="#533d3e" vector-effect="non-scaling-stroke" d="
  M 83.91 130.16
  L 107.50 129.93
  Q 108.00 129.92 108.34 129.56
  C 112.41 125.26 115.84 124.91 120.45 122.66
  Q 120.93 122.42 120.95 121.88
  C 121.02 119.39 118.88 114.56 123.93 115.27
  A 1.86 1.84 81.7 0 1 125.36 116.35
  Q 126.96 119.91 126.15 123.68
  Q 126.05 124.18 126.36 124.58
  Q 129.86 129.13 129.07 134.96
  A 0.55 0.55 0.0 0 0 129.75 135.56
  L 135.60 134.06
  A 1.68 1.67 -7.8 0 0 136.86 132.40
  C 136.56 118.50 134.72 104.89 126.98 92.98
  Q 126.71 92.57 126.22 92.52
  C 124.11 92.31 123.14 92.72 122.02 94.64
  Q 118.84 100.12 112.94 102.76
  Q 112.47 102.97 112.26 103.44
  C 110.41 107.54 106.67 117.90 101.67 118.04
  C 95.72 118.19 91.22 104.87 90.16 100.63
  Q 90.03 100.12 89.63 99.78
  L 87.48 97.93
  A 1.23 1.23 0.0 0 0 85.47 98.66
  Q 82.82 114.02 83.39 129.67
  Q 83.41 130.17 83.91 130.16"
/>
<path stroke="#9c904e" vector-effect="non-scaling-stroke" d="
  M 155.41 93.15
  A 2.24 2.23 -43.5 0 0 151.80 93.06
  Q 149.84 95.62 149.87 98.88
  Q 149.88 99.46 150.44 99.57
  L 156.09 100.58
  Q 156.68 100.69 156.81 100.10
  Q 157.59 96.31 155.41 93.15"
/>
<path stroke="#927a6d" vector-effect="non-scaling-stroke" d="
  M 104.96 104.55
  C 102.59 104.93 100.13 104.36 97.33 103.82
  Q 96.76 103.71 96.96 104.26
  Q 98.42 108.32 101.19 111.66
  A 0.55 0.54 -51.5 0 0 102.10 111.55
  L 105.34 105.07
  Q 105.66 104.44 104.96 104.55"
/>
<path stroke="#533d3e" vector-effect="non-scaling-stroke" d="
  M 155.41 106.34
  Q 147.71 104.23 139.73 104.50
  Q 139.06 104.53 139.24 105.17
  L 140.43 109.54
  Q 140.56 110.01 141.05 110.05
  L 156.11 111.13
  Q 156.63 111.16 156.56 110.64
  L 156.06 107.07
  A 0.88 0.88 0.0 0 0 155.41 106.34"
/>
<path stroke="#533d3e" vector-effect="non-scaling-stroke" d="
  M 157.23 117.63
  A 0.58 0.58 0.0 0 0 156.70 117.06
  L 142.19 115.83
  A 0.58 0.58 0.0 0 0 141.56 116.44
  L 141.82 121.07
  A 0.58 0.58 0.0 0 0 142.37 121.61
  L 156.65 122.24
  A 0.58 0.58 0.0 0 0 157.26 121.66
  L 157.23 117.63"
/>
<path stroke="#9c904e" vector-effect="non-scaling-stroke" d="
  M 76.97 117.99
  L 71.90 117.88
  Q 71.11 117.86 71.02 118.64
  Q 70.79 120.50 71.81 122.07
  Q 72.11 122.54 72.66 122.50
  L 77.18 122.18
  Q 77.75 122.14 77.75 121.57
  L 77.75 118.78
  Q 77.75 118.00 76.97 117.99"
/>
<path stroke="#533d3e" vector-effect="non-scaling-stroke" d="
  M 33.21 121.65
  L 33.05 141.75
  Q 33.04 142.20 33.50 142.21
  L 37.74 142.33
  Q 38.26 142.35 38.43 141.85
  C 38.66 141.18 38.50 140.18 38.69 139.53
  C 40.81 132.27 47.08 128.25 54.39 127.42
  C 57.36 127.08 60.64 127.93 63.78 128.32
  Q 64.32 128.38 64.68 127.97
  L 66.66 125.66
  Q 67.00 125.27 66.82 124.78
  L 65.60 121.42
  Q 65.46 121.05 65.07 121.05
  L 33.85 121.02
  Q 33.21 121.02 33.21 121.65"
/>
<path stroke="#533d3e" vector-effect="non-scaling-stroke" d="
  M 157.25 128.72
  A 0.63 0.63 0.0 0 0 156.66 128.09
  L 143.09 127.36
  A 0.63 0.63 0.0 0 0 142.43 128.03
  L 142.77 132.95
  A 0.63 0.63 0.0 0 0 143.41 133.53
  L 156.60 133.16
  A 0.63 0.63 0.0 0 0 157.21 132.54
  L 157.25 128.72"
/>
<path stroke="#927a6d" vector-effect="non-scaling-stroke" d="
  M 69.81 133.08
  Q 73.10 134.69 76.79 134.75
  Q 77.25 134.76 77.25 134.30
  L 77.25 128.28
  Q 77.25 127.88 76.85 127.86
  Q 72.00 127.60 69.39 131.49
  A 1.10 1.09 30.4 0 0 69.81 133.08"
/>
<path stroke="#927a6d" vector-effect="non-scaling-stroke" d="
  M 114.00 135.77
  L 120.54 136.82
  Q 121.11 136.92 121.58 136.56
  Q 125.15 133.78 122.89 129.44
  Q 122.33 128.36 121.17 128.71
  C 118.51 129.50 113.20 130.98 112.73 134.03
  A 1.54 1.53 -81.3 0 0 114.00 135.77"
/>
<path stroke="#533d3e" vector-effect="non-scaling-stroke" d="
  M 59.73 146.79
  C 57.42 148.98 55.54 151.72 52.88 153.49
  Q 52.36 153.84 51.88 153.44
  L 50.05 151.95
  A 1.31 1.31 0.0 0 1 49.84 150.15
  Q 54.29 144.35 59.32 139.57
  C 60.79 138.17 62.43 137.49 63.90 139.27
  Q 64.22 139.66 64.58 139.30
  L 65.54 138.34
  Q 65.94 137.94 65.71 137.41
  Q 64.47 134.56 61.02 133.71
  C 53.08 131.74 43.84 134.63 43.82 144.28
  C 43.79 155.30 54.28 161.83 64.38 157.90
  A 0.82 0.82 0.0 0 0 64.71 156.60
  Q 62.99 154.60 60.43 155.58
  Q 59.91 155.78 59.45 155.47
  C 55.70 152.97 60.79 150.35 60.22 146.95
  Q 60.13 146.41 59.73 146.79"
/>
<path stroke="#533d3e" vector-effect="non-scaling-stroke" d="
  M 106.46 135.73
  L 84.61 135.78
  Q 83.25 135.78 83.25 137.14
  L 83.25 139.04
  Q 83.25 139.58 83.79 139.58
  L 108.25 139.30
  Q 109.54 139.29 108.56 138.45
  Q 107.62 137.64 107.33 136.42
  Q 107.16 135.73 106.46 135.73"
/>
<path stroke="#533d3e" vector-effect="non-scaling-stroke" d="
  M 143.24 139.46
  A 0.59 0.58 87.6 0 0 142.68 140.08
  L 142.95 144.62
  Q 142.98 145.16 143.53 145.19
  C 147.94 145.36 157.55 147.10 156.34 139.65
  Q 156.22 138.92 155.48 138.95
  L 143.24 139.46"
/>
<path stroke="#9c904e" vector-effect="non-scaling-stroke" d="
  M 76.96 140.56
  L 72.09 139.95
  Q 71.59 139.89 71.22 140.23
  C 69.36 141.96 63.85 148.13 66.54 150.74
  Q 70.71 154.79 76.70 153.90
  Q 77.31 153.80 77.32 153.18
  L 77.57 141.27
  Q 77.58 140.64 76.96 140.56"
/>
<path stroke="#533d3e" vector-effect="non-scaling-stroke" d="
  M 97.06 145.40
  Q 90.62 145.59 84.02 145.45
  Q 83.53 145.44 83.46 145.93
  Q 82.08 155.28 83.39 164.63
  Q 83.48 165.22 84.02 165.48
  C 86.89 166.88 96.04 165.83 99.59 165.67
  A 0.93 0.92 -0.3 0 0 100.48 164.78
  C 100.63 160.13 99.16 153.03 104.05 150.04
  C 114.37 143.72 123.31 152.89 121.59 163.62
  A 1.73 1.72 -85.3 0 0 123.28 165.62
  L 136.44 165.71
  Q 137.36 165.72 137.36 164.80
  L 137.37 146.13
  Q 137.37 145.47 136.71 145.45
  Q 116.87 144.81 97.06 145.40"
/>
<path stroke="#533d3e" vector-effect="non-scaling-stroke" d="
  M 115.70 158.86
  C 115.87 154.70 111.84 155.04 108.98 153.72
  A 0.63 0.63 0.0 0 0 108.27 154.73
  Q 111.19 157.71 114.99 159.32
  Q 115.67 159.61 115.70 158.86"
/>
<path stroke="#927a6d" vector-effect="non-scaling-stroke" d="
  M 100.0062 75.4183
  A 2.55 2.55 0.0 0 0 97.4253 72.8996
  L 97.2453 72.9018
  A 2.55 2.55 0.0 0 0 94.7266 75.4828
  L 94.8938 89.1617
  A 2.55 2.55 0.0 0 0 97.4747 91.6804
  L 97.6547 91.6782
  A 2.55 2.55 0.0 0 0 100.1734 89.0972
  L 100.0062 75.4183"
/>
<path stroke="#927a6d" vector-effect="non-scaling-stroke" d="
  M 27.9053 82.3612
  A 2.32 2.32 0.0 0 0 26.3297 79.4833
  L 26.0609 79.4047
  A 2.32 2.32 0.0 0 0 23.1830 80.9804
  L 22.0547 84.8388
  A 2.32 2.32 0.0 0 0 23.6303 87.7167
  L 23.8991 87.7953
  A 2.32 2.32 0.0 0 0 26.7770 86.2196
  L 27.9053 82.3612"
/>
<path stroke="#927a6d" vector-effect="non-scaling-stroke" d="
  M 32.19 112.06
  Q 35.29 112.22 35.28 109.27
  Q 35.28 108.77 34.96 108.38
  Q 30.52 102.89 28.82 96.04
  C 28.25 93.72 27.09 91.98 24.55 93.68
  Q 24.12 93.96 24.04 94.47
  C 23.47 97.93 27.98 111.85 32.19 112.06"
/>
<path stroke="#533d3e" vector-effect="non-scaling-stroke" d="
  M 54.2470 137.9458
  A 2.35 2.35 0.0 0 0 50.9302 137.7371
  L 47.9297 140.3823
  A 2.35 2.35 0.0 0 0 47.7210 143.6992
  L 47.8930 143.8942
  A 2.35 2.35 0.0 0 0 51.2098 144.1029
  L 54.2103 141.4577
  A 2.35 2.35 0.0 0 0 54.4190 138.1408
  L 54.2470 137.9458"
/>
</g>
<g fill="#38383c">
<path d="
  M 106.26 161.50
  C 106.21 167.60 105.91 171.34 98.50 171.63
  C 93.43 171.84 84.13 172.94 80.12 169.43
  C 77.83 167.41 77.71 163.30 77.11 160.34
  Q 77.01 159.86 76.52 159.83
  L 70.99 159.49
  Q 70.47 159.46 70.19 159.90
  Q 68.18 163.07 64.28 164.03
  Q 53.72 166.66 46.03 160.60
  C 41.98 157.41 38.98 153.67 38.15 148.58
  A 0.76 0.75 83.4 0 0 37.35 147.94
  C 33.65 148.25 27.83 148.68 27.65 143.18
  Q 27.25 131.45 27.92 119.72
  Q 27.95 119.21 27.52 118.94
  C 19.20 113.81 14.79 101.95 13.18 92.78
  Q 11.08 80.79 17.40 70.05
  C 21.77 62.62 31.41 62.44 38.96 61.62
  Q 53.82 59.99 67.55 65.60
  Q 68.01 65.79 68.50 65.68
  Q 74.22 64.36 80.08 64.49
  Q 80.56 64.50 80.87 64.13
  C 81.98 62.76 81.74 61.56 80.39 60.41
  C 76.76 57.30 69.06 48.87 74.69 44.76
  Q 75.07 44.48 75.54 44.44
  Q 78.85 44.18 80.21 43.23
  C 88.64 37.39 95.37 32.54 105.06 33.55
  Q 115.37 34.62 119.22 43.90
  Q 119.42 44.39 119.94 44.49
  Q 132.75 46.96 132.82 60.19
  A 0.76 0.76 0.0 0 0 133.42 60.93
  C 138.51 62.07 143.81 64.21 146.78 68.78
  Q 147.07 69.23 147.55 69.45
  Q 159.16 74.77 158.58 87.91
  Q 158.56 88.39 158.86 88.75
  Q 164.05 94.92 161.97 102.64
  Q 161.40 104.79 161.65 106.58
  Q 164.36 125.94 161.76 143.76
  C 160.58 151.79 149.30 151.51 143.72 151.02
  Q 143.16 150.97 143.18 151.53
  C 143.37 158.60 145.09 169.71 138.34 171.10
  Q 131.57 172.49 122.02 170.96
  C 118.95 170.46 117.26 168.71 116.50 165.89
  Q 116.36 165.36 115.82 165.27
  Q 110.79 164.43 106.86 161.21
  Q 106.26 160.72 106.26 161.50
  Z
  M 127.47 74.49
  Q 126.42 73.71 125.20 74.22
  L 119.85 76.48
  Q 119.39 76.68 118.91 76.51
  Q 112.55 74.22 109.00 68.51
  Q 108.74 68.08 108.24 68.18
  C 100.45 69.67 93.98 67.78 86.73 64.57
  Q 86.23 64.35 86.11 64.88
  C 84.79 70.35 85.29 82.77 87.48 87.70
  C 89.66 92.62 93.58 96.83 98.91 98.18
  C 104.78 99.67 112.48 98.18 116.21 92.90
  C 117.61 90.91 116.77 88.50 119.75 87.06
  Q 120.20 86.85 120.69 86.90
  C 127.79 87.63 134.26 79.56 127.47 74.49
  Z
  M 139.79 69.69
  Q 136.14 67.22 131.78 66.48
  Q 131.20 66.38 130.90 66.90
  L 129.82 68.77
  Q 129.48 69.36 130.09 69.66
  Q 132.79 71.00 134.23 73.62
  Q 134.49 74.08 134.92 73.79
  L 139.78 70.54
  Q 140.42 70.12 139.79 69.69
  Z
  M 63.26 70.14
  C 50.07 65.52 39.83 66.42 26.34 69.47
  C 20.02 70.90 18.01 83.85 18.40 89.07
  C 18.93 96.38 24.41 115.23 34.94 115.25
  Q 48.82 115.28 62.67 115.24
  Q 63.17 115.24 63.12 114.74
  Q 61.09 97.13 62.42 79.43
  Q 62.76 74.93 63.72 70.99
  Q 63.87 70.35 63.26 70.14
  Z
  M 69.16 113.04
  C 72.60 112.06 74.34 112.59 77.35 112.55
  Q 77.82 112.54 77.87 112.07
  Q 78.39 107.11 78.97 102.16
  C 79.46 98.06 81.00 94.93 82.81 91.39
  Q 83.04 90.94 82.84 90.47
  C 79.93 83.84 80.38 77.42 80.18 70.64
  Q 80.16 69.92 79.45 70.00
  L 69.80 71.01
  Q 69.26 71.07 69.14 71.60
  Q 68.31 75.28 68.00 80.50
  Q 66.99 97.40 68.55 112.62
  Q 68.61 113.20 69.16 113.04
  Z
  M 147.61 75.40
  A 1.41 1.35 68.0 0 0 147.01 75.13
  C 137.52 73.57 136.02 83.32 131.78 89.00
  Q 131.55 89.30 131.74 89.64
  L 136.62 98.49
  Q 136.89 98.97 137.43 98.97
  L 143.72 99.01
  Q 144.33 99.02 144.44 98.42
  C 145.46 92.94 146.50 88.46 152.53 87.14
  Q 152.95 87.05 152.96 86.62
  Q 153.02 79.59 147.61 75.40
  Z
  M 83.91 130.16
  L 107.50 129.93
  Q 108.00 129.92 108.34 129.56
  C 112.41 125.26 115.84 124.91 120.45 122.66
  Q 120.93 122.42 120.95 121.88
  C 121.02 119.39 118.88 114.56 123.93 115.27
  A 1.86 1.84 81.7 0 1 125.36 116.35
  Q 126.96 119.91 126.15 123.68
  Q 126.05 124.18 126.36 124.58
  Q 129.86 129.13 129.07 134.96
  A 0.55 0.55 0.0 0 0 129.75 135.56
  L 135.60 134.06
  A 1.68 1.67 -7.8 0 0 136.86 132.40
  C 136.56 118.50 134.72 104.89 126.98 92.98
  Q 126.71 92.57 126.22 92.52
  C 124.11 92.31 123.14 92.72 122.02 94.64
  Q 118.84 100.12 112.94 102.76
  Q 112.47 102.97 112.26 103.44
  C 110.41 107.54 106.67 117.90 101.67 118.04
  C 95.72 118.19 91.22 104.87 90.16 100.63
  Q 90.03 100.12 89.63 99.78
  L 87.48 97.93
  A 1.23 1.23 0.0 0 0 85.47 98.66
  Q 82.82 114.02 83.39 129.67
  Q 83.41 130.17 83.91 130.16
  Z
  M 155.41 93.15
  A 2.24 2.23 -43.5 0 0 151.80 93.06
  Q 149.84 95.62 149.87 98.88
  Q 149.88 99.46 150.44 99.57
  L 156.09 100.58
  Q 156.68 100.69 156.81 100.10
  Q 157.59 96.31 155.41 93.15
  Z
  M 104.96 104.55
  C 102.59 104.93 100.13 104.36 97.33 103.82
  Q 96.76 103.71 96.96 104.26
  Q 98.42 108.32 101.19 111.66
  A 0.55 0.54 -51.5 0 0 102.10 111.55
  L 105.34 105.07
  Q 105.66 104.44 104.96 104.55
  Z
  M 155.41 106.34
  Q 147.71 104.23 139.73 104.50
  Q 139.06 104.53 139.24 105.17
  L 140.43 109.54
  Q 140.56 110.01 141.05 110.05
  L 156.11 111.13
  Q 156.63 111.16 156.56 110.64
  L 156.06 107.07
  A 0.88 0.88 0.0 0 0 155.41 106.34
  Z
  M 157.23 117.63
  A 0.58 0.58 0.0 0 0 156.70 117.06
  L 142.19 115.83
  A 0.58 0.58 0.0 0 0 141.56 116.44
  L 141.82 121.07
  A 0.58 0.58 0.0 0 0 142.37 121.61
  L 156.65 122.24
  A 0.58 0.58 0.0 0 0 157.26 121.66
  L 157.23 117.63
  Z
  M 76.97 117.99
  L 71.90 117.88
  Q 71.11 117.86 71.02 118.64
  Q 70.79 120.50 71.81 122.07
  Q 72.11 122.54 72.66 122.50
  L 77.18 122.18
  Q 77.75 122.14 77.75 121.57
  L 77.75 118.78
  Q 77.75 118.00 76.97 117.99
  Z
  M 33.21 121.65
  L 33.05 141.75
  Q 33.04 142.20 33.50 142.21
  L 37.74 142.33
  Q 38.26 142.35 38.43 141.85
  C 38.66 141.18 38.50 140.18 38.69 139.53
  C 40.81 132.27 47.08 128.25 54.39 127.42
  C 57.36 127.08 60.64 127.93 63.78 128.32
  Q 64.32 128.38 64.68 127.97
  L 66.66 125.66
  Q 67.00 125.27 66.82 124.78
  L 65.60 121.42
  Q 65.46 121.05 65.07 121.05
  L 33.85 121.02
  Q 33.21 121.02 33.21 121.65
  Z
  M 157.25 128.72
  A 0.63 0.63 0.0 0 0 156.66 128.09
  L 143.09 127.36
  A 0.63 0.63 0.0 0 0 142.43 128.03
  L 142.77 132.95
  A 0.63 0.63 0.0 0 0 143.41 133.53
  L 156.60 133.16
  A 0.63 0.63 0.0 0 0 157.21 132.54
  L 157.25 128.72
  Z
  M 69.81 133.08
  Q 73.10 134.69 76.79 134.75
  Q 77.25 134.76 77.25 134.30
  L 77.25 128.28
  Q 77.25 127.88 76.85 127.86
  Q 72.00 127.60 69.39 131.49
  A 1.10 1.09 30.4 0 0 69.81 133.08
  Z
  M 114.00 135.77
  L 120.54 136.82
  Q 121.11 136.92 121.58 136.56
  Q 125.15 133.78 122.89 129.44
  Q 122.33 128.36 121.17 128.71
  C 118.51 129.50 113.20 130.98 112.73 134.03
  A 1.54 1.53 -81.3 0 0 114.00 135.77
  Z
  M 59.73 146.79
  C 57.42 148.98 55.54 151.72 52.88 153.49
  Q 52.36 153.84 51.88 153.44
  L 50.05 151.95
  A 1.31 1.31 0.0 0 1 49.84 150.15
  Q 54.29 144.35 59.32 139.57
  C 60.79 138.17 62.43 137.49 63.90 139.27
  Q 64.22 139.66 64.58 139.30
  L 65.54 138.34
  Q 65.94 137.94 65.71 137.41
  Q 64.47 134.56 61.02 133.71
  C 53.08 131.74 43.84 134.63 43.82 144.28
  C 43.79 155.30 54.28 161.83 64.38 157.90
  A 0.82 0.82 0.0 0 0 64.71 156.60
  Q 62.99 154.60 60.43 155.58
  Q 59.91 155.78 59.45 155.47
  C 55.70 152.97 60.79 150.35 60.22 146.95
  Q 60.13 146.41 59.73 146.79
  Z
  M 106.46 135.73
  L 84.61 135.78
  Q 83.25 135.78 83.25 137.14
  L 83.25 139.04
  Q 83.25 139.58 83.79 139.58
  L 108.25 139.30
  Q 109.54 139.29 108.56 138.45
  Q 107.62 137.64 107.33 136.42
  Q 107.16 135.73 106.46 135.73
  Z
  M 143.24 139.46
  A 0.59 0.58 87.6 0 0 142.68 140.08
  L 142.95 144.62
  Q 142.98 145.16 143.53 145.19
  C 147.94 145.36 157.55 147.10 156.34 139.65
  Q 156.22 138.92 155.48 138.95
  L 143.24 139.46
  Z
  M 76.96 140.56
  L 72.09 139.95
  Q 71.59 139.89 71.22 140.23
  C 69.36 141.96 63.85 148.13 66.54 150.74
  Q 70.71 154.79 76.70 153.90
  Q 77.31 153.80 77.32 153.18
  L 77.57 141.27
  Q 77.58 140.64 76.96 140.56
  Z
  M 97.06 145.40
  Q 90.62 145.59 84.02 145.45
  Q 83.53 145.44 83.46 145.93
  Q 82.08 155.28 83.39 164.63
  Q 83.48 165.22 84.02 165.48
  C 86.89 166.88 96.04 165.83 99.59 165.67
  A 0.93 0.92 -0.3 0 0 100.48 164.78
  C 100.63 160.13 99.16 153.03 104.05 150.04
  C 114.37 143.72 123.31 152.89 121.59 163.62
  A 1.73 1.72 -85.3 0 0 123.28 165.62
  L 136.44 165.71
  Q 137.36 165.72 137.36 164.80
  L 137.37 146.13
  Q 137.37 145.47 136.71 145.45
  Q 116.87 144.81 97.06 145.40
  Z
  M 115.70 158.86
  C 115.87 154.70 111.84 155.04 108.98 153.72
  A 0.63 0.63 0.0 0 0 108.27 154.73
  Q 111.19 157.71 114.99 159.32
  Q 115.67 159.61 115.70 158.86
  Z"
/>
<rect x="-2.64" y="-9.39" transform="translate(97.45,82.29) rotate(-0.7)" width="5.28" height="18.78" rx="2.55"/>
<rect x="-2.46" y="-4.33" transform="translate(24.98,83.60) rotate(16.3)" width="4.92" height="8.66" rx="2.32"/>
<path d="
  M 32.19 112.06
  C 27.98 111.85 23.47 97.93 24.04 94.47
  Q 24.12 93.96 24.55 93.68
  C 27.09 91.98 28.25 93.72 28.82 96.04
  Q 30.52 102.89 34.96 108.38
  Q 35.28 108.77 35.28 109.27
  Q 35.29 112.22 32.19 112.06
  Z"
/>
<rect x="-4.35" y="-2.48" transform="translate(51.07,140.92) rotate(-41.4)" width="8.70" height="4.96" rx="2.35"/>
</g>
<g fill="#ebbc9e">
<path d="
  M 127.47 74.49
  C 134.26 79.56 127.79 87.63 120.69 86.90
  Q 120.20 86.85 119.75 87.06
  C 116.77 88.50 117.61 90.91 116.21 92.90
  C 112.48 98.18 104.78 99.67 98.91 98.18
  C 93.58 96.83 89.66 92.62 87.48 87.70
  C 85.29 82.77 84.79 70.35 86.11 64.88
  Q 86.23 64.35 86.73 64.57
  C 93.98 67.78 100.45 69.67 108.24 68.18
  Q 108.74 68.08 109.00 68.51
  Q 112.55 74.22 118.91 76.51
  Q 119.39 76.68 119.85 76.48
  L 125.20 74.22
  Q 126.42 73.71 127.47 74.49
  Z
  M 100.0062 75.4183
  A 2.55 2.55 0.0 0 0 97.4253 72.8996
  L 97.2453 72.9018
  A 2.55 2.55 0.0 0 0 94.7266 75.4828
  L 94.8938 89.1617
  A 2.55 2.55 0.0 0 0 97.4747 91.6804
  L 97.6547 91.6782
  A 2.55 2.55 0.0 0 0 100.1734 89.0972
  L 100.0062 75.4183
  Z"
/>
<path d="
  M 139.79 69.69
  Q 140.42 70.12 139.78 70.54
  L 134.92 73.79
  Q 134.49 74.08 134.23 73.62
  Q 132.79 71.00 130.09 69.66
  Q 129.48 69.36 129.82 68.77
  L 130.90 66.90
  Q 131.20 66.38 131.78 66.48
  Q 136.14 67.22 139.79 69.69
  Z"
/>
<path d="
  M 63.26 70.14
  Q 63.87 70.35 63.72 70.99
  Q 62.76 74.93 62.42 79.43
  Q 61.09 97.13 63.12 114.74
  Q 63.17 115.24 62.67 115.24
  Q 48.82 115.28 34.94 115.25
  C 24.41 115.23 18.93 96.38 18.40 89.07
  C 18.01 83.85 20.02 70.90 26.34 69.47
  C 39.83 66.42 50.07 65.52 63.26 70.14
  Z
  M 27.9053 82.3612
  A 2.32 2.32 0.0 0 0 26.3297 79.4833
  L 26.0609 79.4047
  A 2.32 2.32 0.0 0 0 23.1830 80.9804
  L 22.0547 84.8388
  A 2.32 2.32 0.0 0 0 23.6303 87.7167
  L 23.8991 87.7953
  A 2.32 2.32 0.0 0 0 26.7770 86.2196
  L 27.9053 82.3612
  Z
  M 32.19 112.06
  Q 35.29 112.22 35.28 109.27
  Q 35.28 108.77 34.96 108.38
  Q 30.52 102.89 28.82 96.04
  C 28.25 93.72 27.09 91.98 24.55 93.68
  Q 24.12 93.96 24.04 94.47
  C 23.47 97.93 27.98 111.85 32.19 112.06
  Z"
/>
<path d="
  M 77.35 112.55
  C 74.34 112.59 72.60 112.06 69.16 113.04
  Q 68.61 113.20 68.55 112.62
  Q 66.99 97.40 68.00 80.50
  Q 68.31 75.28 69.14 71.60
  Q 69.26 71.07 69.80 71.01
  L 79.45 70.00
  Q 80.16 69.92 80.18 70.64
  C 80.38 77.42 79.93 83.84 82.84 90.47
  Q 83.04 90.94 82.81 91.39
  C 81.00 94.93 79.46 98.06 78.97 102.16
  Q 78.39 107.11 77.87 112.07
  Q 77.82 112.54 77.35 112.55
  Z"
/>
<path d="
  M 97.33 103.82
  C 100.13 104.36 102.59 104.93 104.96 104.55
  Q 105.66 104.44 105.34 105.07
  L 102.10 111.55
  A 0.55 0.54 -51.5 0 1 101.19 111.66
  Q 98.42 108.32 96.96 104.26
  Q 96.76 103.71 97.33 103.82
  Z"
/>
<path d="
  M 69.81 133.08
  A 1.10 1.09 30.4 0 1 69.39 131.49
  Q 72.00 127.60 76.85 127.86
  Q 77.25 127.88 77.25 128.28
  L 77.25 134.30
  Q 77.25 134.76 76.79 134.75
  Q 73.10 134.69 69.81 133.08
  Z"
/>
<path d="
  M 114.00 135.77
  A 1.54 1.53 -81.3 0 1 112.73 134.03
  C 113.20 130.98 118.51 129.50 121.17 128.71
  Q 122.33 128.36 122.89 129.44
  Q 125.15 133.78 121.58 136.56
  Q 121.11 136.92 120.54 136.82
  L 114.00 135.77
  Z"
/>
</g>
<g fill="#6e423f">
<path d="
  M 107.50 129.93
  L 83.91 130.16
  Q 83.41 130.17 83.39 129.67
  Q 82.82 114.02 85.47 98.66
  A 1.23 1.23 0.0 0 1 87.48 97.93
  L 89.63 99.78
  Q 90.03 100.12 90.16 100.63
  C 91.22 104.87 95.72 118.19 101.67 118.04
  C 106.67 117.90 110.41 107.54 112.26 103.44
  Q 112.47 102.97 112.94 102.76
  Q 118.84 100.12 122.02 94.64
  C 123.14 92.72 124.11 92.31 126.22 92.52
  Q 126.71 92.57 126.98 92.98
  C 134.72 104.89 136.56 118.50 136.86 132.40
  A 1.68 1.67 -7.8 0 1 135.60 134.06
  L 129.75 135.56
  A 0.55 0.55 0.0 0 1 129.07 134.96
  Q 129.86 129.13 126.36 124.58
  Q 126.05 124.18 126.15 123.68
  Q 126.96 119.91 125.36 116.35
  A 1.86 1.84 81.7 0 0 123.93 115.27
  C 118.88 114.56 121.02 119.39 120.95 121.88
  Q 120.93 122.42 120.45 122.66
  C 115.84 124.91 112.41 125.26 108.34 129.56
  Q 108.00 129.92 107.50 129.93
  Z"
/>
<path d="
  M 155.41 106.34
  A 0.88 0.88 0.0 0 1 156.06 107.07
  L 156.56 110.64
  Q 156.63 111.16 156.11 111.13
  L 141.05 110.05
  Q 140.56 110.01 140.43 109.54
  L 139.24 105.17
  Q 139.06 104.53 139.73 104.50
  Q 147.71 104.23 155.41 106.34
  Z"
/>
<path d="
  M 157.23 117.63
  L 157.26 121.66
  A 0.58 0.58 0.0 0 1 156.65 122.24
  L 142.37 121.61
  A 0.58 0.58 0.0 0 1 141.82 121.07
  L 141.56 116.44
  A 0.58 0.58 0.0 0 1 142.19 115.83
  L 156.70 117.06
  A 0.58 0.58 0.0 0 1 157.23 117.63
  Z"
/>
<path d="
  M 33.05 141.75
  L 33.21 121.65
  Q 33.21 121.02 33.85 121.02
  L 65.07 121.05
  Q 65.46 121.05 65.60 121.42
  L 66.82 124.78
  Q 67.00 125.27 66.66 125.66
  L 64.68 127.97
  Q 64.32 128.38 63.78 128.32
  C 60.64 127.93 57.36 127.08 54.39 127.42
  C 47.08 128.25 40.81 132.27 38.69 139.53
  C 38.50 140.18 38.66 141.18 38.43 141.85
  Q 38.26 142.35 37.74 142.33
  L 33.50 142.21
  Q 33.04 142.20 33.05 141.75
  Z"
/>
<path d="
  M 157.25 128.72
  L 157.21 132.54
  A 0.63 0.63 0.0 0 1 156.60 133.16
  L 143.41 133.53
  A 0.63 0.63 0.0 0 1 142.77 132.95
  L 142.43 128.03
  A 0.63 0.63 0.0 0 1 143.09 127.36
  L 156.66 128.09
  A 0.63 0.63 0.0 0 1 157.25 128.72
  Z"
/>
<path d="
  M 52.88 153.49
  C 55.54 151.72 57.42 148.98 59.73 146.79
  Q 60.13 146.41 60.22 146.95
  C 60.79 150.35 55.70 152.97 59.45 155.47
  Q 59.91 155.78 60.43 155.58
  Q 62.99 154.60 64.71 156.60
  A 0.82 0.82 0.0 0 1 64.38 157.90
  C 54.28 161.83 43.79 155.30 43.82 144.28
  C 43.84 134.63 53.08 131.74 61.02 133.71
  Q 64.47 134.56 65.71 137.41
  Q 65.94 137.94 65.54 138.34
  L 64.58 139.30
  Q 64.22 139.66 63.90 139.27
  C 62.43 137.49 60.79 138.17 59.32 139.57
  Q 54.29 144.35 49.84 150.15
  A 1.31 1.31 0.0 0 0 50.05 151.95
  L 51.88 153.44
  Q 52.36 153.84 52.88 153.49
  Z
  M 54.2470 137.9458
  A 2.35 2.35 0.0 0 0 50.9302 137.7371
  L 47.9297 140.3823
  A 2.35 2.35 0.0 0 0 47.7210 143.6992
  L 47.8930 143.8942
  A 2.35 2.35 0.0 0 0 51.2098 144.1029
  L 54.2103 141.4577
  A 2.35 2.35 0.0 0 0 54.4190 138.1408
  L 54.2470 137.9458
  Z"
/>
<path d="
  M 107.33 136.42
  Q 107.62 137.64 108.56 138.45
  Q 109.54 139.29 108.25 139.30
  L 83.79 139.58
  Q 83.25 139.58 83.25 139.04
  L 83.25 137.14
  Q 83.25 135.78 84.61 135.78
  L 106.46 135.73
  Q 107.16 135.73 107.33 136.42
  Z"
/>
<path d="
  M 143.24 139.46
  L 155.48 138.95
  Q 156.22 138.92 156.34 139.65
  C 157.55 147.10 147.94 145.36 143.53 145.19
  Q 142.98 145.16 142.95 144.62
  L 142.68 140.08
  A 0.59 0.58 87.6 0 1 143.24 139.46
  Z"
/>
<path d="
  M 97.06 145.40
  Q 116.87 144.81 136.71 145.45
  Q 137.37 145.47 137.37 146.13
  L 137.36 164.80
  Q 137.36 165.72 136.44 165.71
  L 123.28 165.62
  A 1.73 1.72 -85.3 0 1 121.59 163.62
  C 123.31 152.89 114.37 143.72 104.05 150.04
  C 99.16 153.03 100.63 160.13 100.48 164.78
  A 0.93 0.92 -0.3 0 1 99.59 165.67
  C 96.04 165.83 86.89 166.88 84.02 165.48
  Q 83.48 165.22 83.39 164.63
  Q 82.08 155.28 83.46 145.93
  Q 83.53 145.44 84.02 145.45
  Q 90.62 145.59 97.06 145.40
  Z"
/>
<path d="
  M 108.98 153.72
  C 111.84 155.04 115.87 154.70 115.70 158.86
  Q 115.67 159.61 114.99 159.32
  Q 111.19 157.71 108.27 154.73
  A 0.63 0.63 0.0 0 1 108.98 153.72
  Z"
/>
</g>
<g fill="#ffe75f">
<path d="
  M 147.61 75.40
  Q 153.02 79.59 152.96 86.62
  Q 152.95 87.05 152.53 87.14
  C 146.50 88.46 145.46 92.94 144.44 98.42
  Q 144.33 99.02 143.72 99.01
  L 137.43 98.97
  Q 136.89 98.97 136.62 98.49
  L 131.74 89.64
  Q 131.55 89.30 131.78 89.00
  C 136.02 83.32 137.52 73.57 147.01 75.13
  A 1.41 1.35 68.0 0 1 147.61 75.40
  Z"
/>
<path d="
  M 155.41 93.15
  Q 157.59 96.31 156.81 100.10
  Q 156.68 100.69 156.09 100.58
  L 150.44 99.57
  Q 149.88 99.46 149.87 98.88
  Q 149.84 95.62 151.80 93.06
  A 2.24 2.23 -43.5 0 1 155.41 93.15
  Z"
/>
<path d="
  M 77.75 118.78
  L 77.75 121.57
  Q 77.75 122.14 77.18 122.18
  L 72.66 122.50
  Q 72.11 122.54 71.81 122.07
  Q 70.79 120.50 71.02 118.64
  Q 71.11 117.86 71.90 117.88
  L 76.97 117.99
  Q 77.75 118.00 77.75 118.78
  Z"
/>
<path d="
  M 76.96 140.56
  Q 77.58 140.64 77.57 141.27
  L 77.32 153.18
  Q 77.31 153.80 76.70 153.90
  Q 70.71 154.79 66.54 150.74
  C 63.85 148.13 69.36 141.96 71.22 140.23
  Q 71.59 139.89 72.09 139.95
  L 76.96 140.56
  Z"
/>
</g>
</svg>
