<?xml version="1.0" encoding="UTF-8" standalone="no"?>
<!DOCTYPE svg PUBLIC "-//W3C//DTD SVG 1.1//EN" "http://www.w3.org/Graphics/SVG/1.1/DTD/svg11.dtd">
<svg xmlns="http://www.w3.org/2000/svg" version="1.1" viewBox="0 0 180 180">
<g stroke-width="2.00" fill="none" stroke-linecap="butt">
<path stroke="#576461" vector-effect="non-scaling-stroke" d="
  M 49.75 52.47
  C 45.69 57.80 43.63 63.53 40.00 68.88
  A 0.66 0.65 21.7 0 0 40.44 69.89
  L 45.93 70.83
  Q 46.41 70.91 46.54 70.44
  C 48.17 64.36 49.92 59.10 50.55 52.79
  A 0.45 0.45 0.0 0 0 49.75 52.47"
/>
<path stroke="#927a6d" vector-effect="non-scaling-stroke" d="
  M 120.63 74.64
  Q 119.40 73.72 117.97 74.31
  L 112.77 76.46
  Q 112.27 76.67 111.76 76.47
  Q 105.51 74.09 102.04 68.47
  Q 101.78 68.05 101.30 68.15
  C 93.53 69.69 86.95 67.80 79.73 64.54
  Q 79.21 64.31 79.07 64.85
  C 77.86 69.58 78.18 82.78 80.59 87.95
  C 85.97 99.46 98.77 102.44 108.49 93.98
  C 110.69 92.07 109.80 86.84 113.73 86.96
  C 120.56 87.19 127.48 79.74 120.63 74.64"
/>
<path stroke="#576461" vector-effect="non-scaling-stroke" d="
  M 37.13 74.49
  L 28.64 85.97
  Q 28.28 86.45 28.72 86.87
  C 32.75 90.74 43.06 79.43 45.46 76.93
  Q 45.96 76.41 45.26 76.24
  L 37.41 74.39
  A 0.28 0.27 -64.0 0 0 37.13 74.49"
/>
<path stroke="#9c904e" vector-effect="non-scaling-stroke" d="
  M 137.99 75.06
  C 130.47 74.87 128.50 83.74 124.87 88.93
  Q 124.58 89.35 124.82 89.79
  L 129.57 98.47
  Q 129.83 98.94 130.36 98.95
  L 136.67 99.03
  Q 137.27 99.03 137.39 98.45
  C 138.48 93.17 139.35 88.57 145.47 87.18
  Q 145.93 87.08 145.94 86.61
  C 146.10 81.92 143.61 75.21 137.99 75.06"
/>
<path stroke="#576461" vector-effect="non-scaling-stroke" d="
  M 53.56 76.02
  C 48.66 82.08 41.95 89.31 34.87 92.37
  Q 34.36 92.59 34.62 93.08
  L 36.17 96.04
  Q 36.45 96.58 36.91 96.19
  L 39.92 93.66
  Q 40.35 93.30 40.90 93.33
  C 43.75 93.50 45.47 95.03 46.34 97.84
  C 48.62 105.25 48.82 112.91 51.23 120.07
  A 0.61 0.61 0.0 0 0 52.03 120.45
  C 59.13 117.62 63.28 111.20 67.04 104.88
  C 69.18 101.29 68.81 96.03 69.17 91.90
  Q 69.22 91.29 68.80 90.85
  L 54.44 75.98
  A 0.59 0.59 0.0 0 0 53.56 76.02"
/>
<path stroke="#927a6d" vector-effect="non-scaling-stroke" d="
  M 23.76 91.56
  C 17.64 98.61 24.68 105.46 30.79 99.78
  Q 31.14 99.46 31.00 99.00
  Q 29.57 94.05 25.23 91.34
  Q 24.40 90.83 23.76 91.56"
/>
<path stroke="#533d3e" vector-effect="non-scaling-stroke" d="
  M 101.56 129.31
  C 104.87 125.61 109.68 124.37 113.45 122.72
  Q 113.98 122.48 114.00 121.90
  C 114.09 119.20 111.93 115.81 116.08 114.98
  A 1.94 1.92 71.1 0 1 118.20 116.03
  Q 119.97 119.68 119.19 123.59
  Q 119.08 124.18 119.44 124.65
  Q 122.96 129.22 122.05 135.12
  Q 121.96 135.75 122.57 135.60
  L 128.23 134.17
  A 2.16 2.15 -7.7 0 0 129.86 132.03
  C 129.47 118.30 127.88 105.05 119.94 92.97
  Q 119.68 92.58 119.21 92.53
  C 114.90 92.10 115.26 95.17 113.27 97.31
  Q 110.07 100.76 105.84 102.91
  Q 105.40 103.13 105.21 103.59
  C 104.02 106.58 97.97 122.68 91.75 116.98
  Q 85.09 110.89 83.48 101.05
  Q 83.39 100.49 82.98 100.11
  L 79.93 97.30
  Q 79.52 96.93 79.25 97.41
  Q 78.16 99.38 77.85 101.70
  Q 76.01 115.49 76.38 129.61
  Q 76.40 130.15 76.95 130.15
  L 100.94 129.94
  Q 101.33 129.93 101.49 129.57
  Q 101.55 129.44 101.56 129.31"
/>
<path stroke="#9c904e" vector-effect="non-scaling-stroke" d="
  M 148.44 93.11
  A 2.24 2.24 0.0 0 0 144.78 93.06
  Q 142.87 95.70 142.82 99.01
  Q 142.81 99.45 143.24 99.53
  L 149.08 100.59
  Q 149.67 100.69 149.80 100.11
  Q 150.63 96.30 148.44 93.11"
/>
<path stroke="#927a6d" vector-effect="non-scaling-stroke" d="
  M 97.97 104.56
  C 95.40 104.94 92.63 104.32 90.12 103.68
  A 0.35 0.35 0.0 0 0 89.73 104.19
  L 93.67 111.35
  A 0.87 0.87 0.0 0 0 95.21 111.32
  L 98.34 105.07
  Q 98.64 104.46 97.97 104.56"
/>
<path stroke="#533d3e" vector-effect="non-scaling-stroke" d="
  M 146.11 105.76
  Q 139.57 104.24 132.80 104.54
  Q 132.17 104.56 132.32 105.18
  L 133.36 109.43
  Q 133.49 109.98 134.05 110.02
  L 148.88 111.11
  Q 149.31 111.15 149.40 110.73
  C 150.02 107.81 149.02 106.44 146.11 105.76"
/>
<path stroke="#533d3e" vector-effect="non-scaling-stroke" d="
  M 150.23 117.43
  A 0.34 0.34 0.0 0 0 149.92 117.09
  L 134.90 115.80
  A 0.34 0.34 0.0 0 0 134.53 116.16
  L 134.83 121.21
  A 0.34 0.34 0.0 0 0 135.15 121.53
  L 149.90 122.26
  A 0.34 0.34 0.0 0 0 150.26 121.92
  L 150.23 117.43"
/>
<path stroke="#9c904e" vector-effect="non-scaling-stroke" d="
  M 70.09 117.99
  L 64.67 117.90
  Q 64.08 117.89 64.01 118.48
  Q 63.79 120.47 64.82 122.12
  Q 65.14 122.63 65.73 122.57
  L 70.14 122.11
  Q 70.75 122.05 70.75 121.43
  L 70.75 118.66
  Q 70.75 118.00 70.09 117.99"
/>
<path stroke="#576461" vector-effect="non-scaling-stroke" d="
  M 56.76 129.86
  L 59.80 125.44
  Q 60.09 125.01 59.87 124.54
  L 59.58 123.95
  Q 59.26 123.30 58.61 123.61
  L 54.51 125.55
  Q 54.00 125.79 54.28 126.27
  L 56.37 129.85
  A 0.23 0.23 0.0 0 0 56.76 129.86"
/>
<path stroke="#533d3e" vector-effect="non-scaling-stroke" d="
  M 150.29 128.62
  A 0.53 0.53 0.0 0 0 149.79 128.06
  L 136.13 127.41
  A 0.53 0.53 0.0 0 0 135.58 127.96
  L 135.82 133.04
  A 0.53 0.53 0.0 0 0 136.36 133.54
  L 149.56 133.14
  A 0.53 0.53 0.0 0 0 150.08 132.63
  L 150.29 128.62"
/>
<path stroke="#927a6d" vector-effect="non-scaling-stroke" d="
  M 62.88 133.10
  Q 66.11 134.74 69.78 134.71
  Q 70.25 134.71 70.25 134.24
  L 70.25 128.28
  Q 70.25 127.87 69.84 127.85
  Q 65.09 127.63 62.46 131.39
  A 1.17 1.17 0.0 0 0 62.88 133.10"
/>
<path stroke="#927a6d" vector-effect="non-scaling-stroke" d="
  M 106.99 135.78
  L 113.77 136.85
  Q 114.30 136.93 114.70 136.56
  Q 118.12 133.34 115.75 129.01
  Q 115.53 128.61 115.07 128.68
  C 112.31 129.12 106.40 130.73 105.75 134.01
  A 1.51 1.50 10.2 0 0 106.99 135.78"
/>
<path stroke="#533d3e" vector-effect="non-scaling-stroke" d="
  M 99.48 135.75
  L 76.92 135.75
  Q 76.27 135.75 76.27 136.40
  L 76.24 139.04
  Q 76.24 139.58 76.79 139.58
  L 101.25 139.29
  Q 102.53 139.27 101.56 138.44
  Q 100.62 137.64 100.33 136.42
  Q 100.17 135.75 99.48 135.75"
/>
<path stroke="#533d3e" vector-effect="non-scaling-stroke" d="
  M 136.26 139.44
  A 0.46 0.46 0.0 0 0 135.81 139.93
  L 136.07 144.59
  Q 136.10 145.09 136.60 145.14
  Q 142.56 145.79 148.33 144.38
  Q 148.94 144.23 149.03 143.61
  L 149.59 139.56
  Q 149.68 138.94 149.05 138.96
  L 136.26 139.44"
/>
<path stroke="#9c904e" vector-effect="non-scaling-stroke" d="
  M 69.86 140.55
  L 65.09 139.95
  Q 64.64 139.89 64.29 140.20
  C 61.83 142.39 56.44 148.40 60.26 151.51
  Q 64.20 154.72 69.72 153.88
  Q 70.33 153.79 70.34 153.18
  L 70.56 141.36
  Q 70.58 140.64 69.86 140.55"
/>
<path stroke="#533d3e" vector-effect="non-scaling-stroke" d="
  M 76.92 145.37
  A 0.64 0.64 0.0 0 0 76.28 146.01
  C 76.27 152.52 74.96 158.19 76.73 165.12
  Q 76.85 165.62 77.37 165.70
  Q 81.52 166.35 85.72 165.90
  C 87.88 165.67 90.49 166.40 92.90 165.52
  Q 93.41 165.33 93.45 164.79
  C 93.66 161.52 92.95 157.54 93.73 154.79
  C 96.39 145.39 110.15 146.64 113.74 154.81
  C 114.98 157.64 114.83 160.94 114.86 164.06
  A 1.60 1.60 0.0 0 0 116.46 165.64
  L 129.53 165.70
  Q 130.33 165.71 130.33 164.91
  L 130.41 146.04
  Q 130.42 145.17 129.54 145.17
  L 76.92 145.37"
/>
<path stroke="#927a6d" vector-effect="non-scaling-stroke" d="
  M 92.9902 75.4173
  A 2.54 2.54 0.0 0 0 90.4281 72.8996
  L 90.2481 72.9011
  A 2.54 2.54 0.0 0 0 87.7304 75.4632
  L 87.8498 89.1427
  A 2.54 2.54 0.0 0 0 90.4119 91.6604
  L 90.5919 91.6589
  A 2.54 2.54 0.0 0 0 93.1096 89.0968
  L 92.9902 75.4173"
/>
</g>
<g fill="#38383c">
<path d="
  M 54.43 65.05
  C 59.41 64.75 70.71 67.35 72.74 73.06
  Q 72.81 73.25 73.02 73.25
  Q 73.16 73.25 73.31 73.25
  Q 73.63 73.25 73.60 72.94
  Q 72.97 67.34 74.54 62.00
  Q 74.70 61.44 74.25 61.08
  C 70.39 57.97 61.88 49.15 67.58 44.83
  Q 67.96 44.55 68.42 44.51
  Q 71.66 44.23 74.39 42.37
  C 79.42 38.94 85.43 34.83 91.10 33.78
  C 99.75 32.18 108.98 35.29 112.28 44.20
  Q 112.46 44.68 112.96 44.72
  C 125.23 45.63 129.03 59.63 122.64 68.79
  Q 122.32 69.26 122.83 69.51
  Q 125.80 70.93 127.32 73.85
  Q 127.59 74.36 128.00 73.96
  C 139.99 62.42 152.36 75.07 151.61 87.92
  Q 151.58 88.42 151.89 88.79
  Q 157.61 95.59 154.47 104.14
  C 154.00 105.43 154.68 106.03 154.83 107.20
  Q 157.33 126.98 154.72 144.00
  C 153.54 151.68 142.58 151.42 136.74 150.96
  Q 136.15 150.91 136.17 151.50
  Q 136.51 162.75 135.99 166.48
  C 135.03 173.42 122.58 171.57 116.99 171.25
  Q 110.89 170.89 109.35 165.70
  Q 109.20 165.22 108.72 165.14
  Q 106.01 164.70 104.07 162.69
  Q 103.65 162.25 103.04 162.25
  L 99.70 162.25
  Q 99.00 162.25 99.09 162.94
  Q 100.22 171.08 91.94 171.53
  C 84.66 171.93 71.70 174.23 70.89 164.10
  Q 70.84 163.50 70.23 163.50
  L 63.71 163.50
  Q 63.20 163.50 62.82 163.84
  C 61.34 165.14 56.13 164.85 54.49 164.72
  C 47.82 164.18 48.11 156.60 52.44 153.35
  Q 52.86 153.03 52.77 152.50
  Q 51.22 143.05 51.52 133.47
  Q 51.54 132.94 51.28 132.48
  L 48.41 127.37
  Q 48.15 126.92 47.64 126.84
  C 37.56 125.27 32.97 116.37 32.74 106.56
  A 0.71 0.71 0.0 0 0 31.68 105.96
  C 22.27 111.27 11.71 101.78 16.83 91.81
  C 18.74 88.08 22.63 85.68 24.90 81.85
  C 27.46 77.55 31.17 74.03 33.41 69.88
  Q 38.21 60.96 43.00 52.03
  C 44.37 49.48 50.15 43.44 54.05 46.24
  C 57.86 48.98 55.58 59.72 54.03 64.53
  Q 53.85 65.09 54.43 65.05
  Z
  M 49.75 52.47
  C 45.69 57.80 43.63 63.53 40.00 68.88
  A 0.66 0.65 21.7 0 0 40.44 69.89
  L 45.93 70.83
  Q 46.41 70.91 46.54 70.44
  C 48.17 64.36 49.92 59.10 50.55 52.79
  A 0.45 0.45 0.0 0 0 49.75 52.47
  Z
  M 120.63 74.64
  Q 119.40 73.72 117.97 74.31
  L 112.77 76.46
  Q 112.27 76.67 111.76 76.47
  Q 105.51 74.09 102.04 68.47
  Q 101.78 68.05 101.30 68.15
  C 93.53 69.69 86.95 67.80 79.73 64.54
  Q 79.21 64.31 79.07 64.85
  C 77.86 69.58 78.18 82.78 80.59 87.95
  C 85.97 99.46 98.77 102.44 108.49 93.98
  C 110.69 92.07 109.80 86.84 113.73 86.96
  C 120.56 87.19 127.48 79.74 120.63 74.64
  Z
  M 37.13 74.49
  L 28.64 85.97
  Q 28.28 86.45 28.72 86.87
  C 32.75 90.74 43.06 79.43 45.46 76.93
  Q 45.96 76.41 45.26 76.24
  L 37.41 74.39
  A 0.28 0.27 -64.0 0 0 37.13 74.49
  Z
  M 137.99 75.06
  C 130.47 74.87 128.50 83.74 124.87 88.93
  Q 124.58 89.35 124.82 89.79
  L 129.57 98.47
  Q 129.83 98.94 130.36 98.95
  L 136.67 99.03
  Q 137.27 99.03 137.39 98.45
  C 138.48 93.17 139.35 88.57 145.47 87.18
  Q 145.93 87.08 145.94 86.61
  C 146.10 81.92 143.61 75.21 137.99 75.06
  Z
  M 53.56 76.02
  C 48.66 82.08 41.95 89.31 34.87 92.37
  Q 34.36 92.59 34.62 93.08
  L 36.17 96.04
  Q 36.45 96.58 36.91 96.19
  L 39.92 93.66
  Q 40.35 93.30 40.90 93.33
  C 43.75 93.50 45.47 95.03 46.34 97.84
  C 48.62 105.25 48.82 112.91 51.23 120.07
  A 0.61 0.61 0.0 0 0 52.03 120.45
  C 59.13 117.62 63.28 111.20 67.04 104.88
  C 69.18 101.29 68.81 96.03 69.17 91.90
  Q 69.22 91.29 68.80 90.85
  L 54.44 75.98
  A 0.59 0.59 0.0 0 0 53.56 76.02
  Z
  M 23.76 91.56
  C 17.64 98.61 24.68 105.46 30.79 99.78
  Q 31.14 99.46 31.00 99.00
  Q 29.57 94.05 25.23 91.34
  Q 24.40 90.83 23.76 91.56
  Z
  M 101.56 129.31
  C 104.87 125.61 109.68 124.37 113.45 122.72
  Q 113.98 122.48 114.00 121.90
  C 114.09 119.20 111.93 115.81 116.08 114.98
  A 1.94 1.92 71.1 0 1 118.20 116.03
  Q 119.97 119.68 119.19 123.59
  Q 119.08 124.18 119.44 124.65
  Q 122.96 129.22 122.05 135.12
  Q 121.96 135.75 122.57 135.60
  L 128.23 134.17
  A 2.16 2.15 -7.7 0 0 129.86 132.03
  C 129.47 118.30 127.88 105.05 119.94 92.97
  Q 119.68 92.58 119.21 92.53
  C 114.90 92.10 115.26 95.17 113.27 97.31
  Q 110.07 100.76 105.84 102.91
  Q 105.40 103.13 105.21 103.59
  C 104.02 106.58 97.97 122.68 91.75 116.98
  Q 85.09 110.89 83.48 101.05
  Q 83.39 100.49 82.98 100.11
  L 79.93 97.30
  Q 79.52 96.93 79.25 97.41
  Q 78.16 99.38 77.85 101.70
  Q 76.01 115.49 76.38 129.61
  Q 76.40 130.15 76.95 130.15
  L 100.94 129.94
  Q 101.33 129.93 101.49 129.57
  Q 101.55 129.44 101.56 129.31
  Z
  M 148.44 93.11
  A 2.24 2.24 0.0 0 0 144.78 93.06
  Q 142.87 95.70 142.82 99.01
  Q 142.81 99.45 143.24 99.53
  L 149.08 100.59
  Q 149.67 100.69 149.80 100.11
  Q 150.63 96.30 148.44 93.11
  Z
  M 44.95 120.83
  A 0.26 0.26 0.0 0 0 45.36 120.55
  Q 42.63 111.56 42.03 102.15
  A 1.40 1.40 0.0 0 0 39.80 101.11
  L 37.85 102.53
  Q 37.41 102.85 37.43 103.40
  C 37.73 110.94 39.00 115.95 44.95 120.83
  Z
  M 97.97 104.56
  C 95.40 104.94 92.63 104.32 90.12 103.68
  A 0.35 0.35 0.0 0 0 89.73 104.19
  L 93.67 111.35
  A 0.87 0.87 0.0 0 0 95.21 111.32
  L 98.34 105.07
  Q 98.64 104.46 97.97 104.56
  Z
  M 146.11 105.76
  Q 139.57 104.24 132.80 104.54
  Q 132.17 104.56 132.32 105.18
  L 133.36 109.43
  Q 133.49 109.98 134.05 110.02
  L 148.88 111.11
  Q 149.31 111.15 149.40 110.73
  C 150.02 107.81 149.02 106.44 146.11 105.76
  Z
  M 150.23 117.43
  A 0.34 0.34 0.0 0 0 149.92 117.09
  L 134.90 115.80
  A 0.34 0.34 0.0 0 0 134.53 116.16
  L 134.83 121.21
  A 0.34 0.34 0.0 0 0 135.15 121.53
  L 149.90 122.26
  A 0.34 0.34 0.0 0 0 150.26 121.92
  L 150.23 117.43
  Z
  M 70.09 117.99
  L 64.67 117.90
  Q 64.08 117.89 64.01 118.48
  Q 63.79 120.47 64.82 122.12
  Q 65.14 122.63 65.73 122.57
  L 70.14 122.11
  Q 70.75 122.05 70.75 121.43
  L 70.75 118.66
  Q 70.75 118.00 70.09 117.99
  Z
  M 56.76 129.86
  L 59.80 125.44
  Q 60.09 125.01 59.87 124.54
  L 59.58 123.95
  Q 59.26 123.30 58.61 123.61
  L 54.51 125.55
  Q 54.00 125.79 54.28 126.27
  L 56.37 129.85
  A 0.23 0.23 0.0 0 0 56.76 129.86
  Z
  M 150.29 128.62
  A 0.53 0.53 0.0 0 0 149.79 128.06
  L 136.13 127.41
  A 0.53 0.53 0.0 0 0 135.58 127.96
  L 135.82 133.04
  A 0.53 0.53 0.0 0 0 136.36 133.54
  L 149.56 133.14
  A 0.53 0.53 0.0 0 0 150.08 132.63
  L 150.29 128.62
  Z
  M 62.88 133.10
  Q 66.11 134.74 69.78 134.71
  Q 70.25 134.71 70.25 134.24
  L 70.25 128.28
  Q 70.25 127.87 69.84 127.85
  Q 65.09 127.63 62.46 131.39
  A 1.17 1.17 0.0 0 0 62.88 133.10
  Z
  M 106.99 135.78
  L 113.77 136.85
  Q 114.30 136.93 114.70 136.56
  Q 118.12 133.34 115.75 129.01
  Q 115.53 128.61 115.07 128.68
  C 112.31 129.12 106.40 130.73 105.75 134.01
  A 1.51 1.50 10.2 0 0 106.99 135.78
  Z
  M 99.48 135.75
  L 76.92 135.75
  Q 76.27 135.75 76.27 136.40
  L 76.24 139.04
  Q 76.24 139.58 76.79 139.58
  L 101.25 139.29
  Q 102.53 139.27 101.56 138.44
  Q 100.62 137.64 100.33 136.42
  Q 100.17 135.75 99.48 135.75
  Z
  M 136.26 139.44
  A 0.46 0.46 0.0 0 0 135.81 139.93
  L 136.07 144.59
  Q 136.10 145.09 136.60 145.14
  Q 142.56 145.79 148.33 144.38
  Q 148.94 144.23 149.03 143.61
  L 149.59 139.56
  Q 149.68 138.94 149.05 138.96
  L 136.26 139.44
  Z
  M 69.86 140.55
  L 65.09 139.95
  Q 64.64 139.89 64.29 140.20
  C 61.83 142.39 56.44 148.40 60.26 151.51
  Q 64.20 154.72 69.72 153.88
  Q 70.33 153.79 70.34 153.18
  L 70.56 141.36
  Q 70.58 140.64 69.86 140.55
  Z
  M 76.92 145.37
  A 0.64 0.64 0.0 0 0 76.28 146.01
  C 76.27 152.52 74.96 158.19 76.73 165.12
  Q 76.85 165.62 77.37 165.70
  Q 81.52 166.35 85.72 165.90
  C 87.88 165.67 90.49 166.40 92.90 165.52
  Q 93.41 165.33 93.45 164.79
  C 93.66 161.52 92.95 157.54 93.73 154.79
  C 96.39 145.39 110.15 146.64 113.74 154.81
  C 114.98 157.64 114.83 160.94 114.86 164.06
  A 1.60 1.60 0.0 0 0 116.46 165.64
  L 129.53 165.70
  Q 130.33 165.71 130.33 164.91
  L 130.41 146.04
  Q 130.42 145.17 129.54 145.17
  L 76.92 145.37
  Z"
/>
<rect x="-2.63" y="-9.38" transform="translate(90.42,82.28) rotate(-0.5)" width="5.26" height="18.76" rx="2.54"/>
</g>
<g fill="#ebbc9e">
<path d="
  M 120.63 74.64
  C 127.48 79.74 120.56 87.19 113.73 86.96
  C 109.80 86.84 110.69 92.07 108.49 93.98
  C 98.77 102.44 85.97 99.46 80.59 87.95
  C 78.18 82.78 77.86 69.58 79.07 64.85
  Q 79.21 64.31 79.73 64.54
  C 86.95 67.80 93.53 69.69 101.30 68.15
  Q 101.78 68.05 102.04 68.47
  Q 105.51 74.09 111.76 76.47
  Q 112.27 76.67 112.77 76.46
  L 117.97 74.31
  Q 119.40 73.72 120.63 74.64
  Z
  M 92.9902 75.4173
  A 2.54 2.54 0.0 0 0 90.4281 72.8996
  L 90.2481 72.9011
  A 2.54 2.54 0.0 0 0 87.7304 75.4632
  L 87.8498 89.1427
  A 2.54 2.54 0.0 0 0 90.4119 91.6604
  L 90.5919 91.6589
  A 2.54 2.54 0.0 0 0 93.1096 89.0968
  L 92.9902 75.4173
  Z"
/>
<path d="
  M 23.76 91.56
  Q 24.40 90.83 25.23 91.34
  Q 29.57 94.05 31.00 99.00
  Q 31.14 99.46 30.79 99.78
  C 24.68 105.46 17.64 98.61 23.76 91.56
  Z"
/>
<path d="
  M 90.12 103.68
  C 92.63 104.32 95.40 104.94 97.97 104.56
  Q 98.64 104.46 98.34 105.07
  L 95.21 111.32
  A 0.87 0.87 0.0 0 1 93.67 111.35
  L 89.73 104.19
  A 0.35 0.35 0.0 0 1 90.12 103.68
  Z"
/>
<path d="
  M 62.88 133.10
  A 1.17 1.17 0.0 0 1 62.46 131.39
  Q 65.09 127.63 69.84 127.85
  Q 70.25 127.87 70.25 128.28
  L 70.25 134.24
  Q 70.25 134.71 69.78 134.71
  Q 66.11 134.74 62.88 133.10
  Z"
/>
<path d="
  M 106.99 135.78
  A 1.51 1.50 10.2 0 1 105.75 134.01
  C 106.40 130.73 112.31 129.12 115.07 128.68
  Q 115.53 128.61 115.75 129.01
  Q 118.12 133.34 114.70 136.56
  Q 114.30 136.93 113.77 136.85
  L 106.99 135.78
  Z"
/>
</g>
<g fill="#759086">
<path d="
  M 40.00 68.88
  C 43.63 63.53 45.69 57.80 49.75 52.47
  A 0.45 0.45 0.0 0 1 50.55 52.79
  C 49.92 59.10 48.17 64.36 46.54 70.44
  Q 46.41 70.91 45.93 70.83
  L 40.44 69.89
  A 0.66 0.65 21.7 0 1 40.00 68.88
  Z"
/>
<path d="
  M 37.13 74.49
  A 0.28 0.27 -64.0 0 1 37.41 74.39
  L 45.26 76.24
  Q 45.96 76.41 45.46 76.93
  C 43.06 79.43 32.75 90.74 28.72 86.87
  Q 28.28 86.45 28.64 85.97
  L 37.13 74.49
  Z"
/>
<path d="
  M 53.56 76.02
  A 0.59 0.59 0.0 0 1 54.44 75.98
  L 68.80 90.85
  Q 69.22 91.29 69.17 91.90
  C 68.81 96.03 69.18 101.29 67.04 104.88
  C 63.28 111.20 59.13 117.62 52.03 120.45
  A 0.61 0.61 0.0 0 1 51.23 120.07
  C 48.82 112.91 48.62 105.25 46.34 97.84
  C 45.47 95.03 43.75 93.50 40.90 93.33
  Q 40.35 93.30 39.92 93.66
  L 36.91 96.19
  Q 36.45 96.58 36.17 96.04
  L 34.62 93.08
  Q 34.36 92.59 34.87 92.37
  C 41.95 89.31 48.66 82.08 53.56 76.02
  Z"
/>
<path d="
  M 56.76 129.86
  A 0.23 0.23 0.0 0 1 56.37 129.85
  L 54.28 126.27
  Q 54.00 125.79 54.51 125.55
  L 58.61 123.61
  Q 59.26 123.30 59.58 123.95
  L 59.87 124.54
  Q 60.09 125.01 59.80 125.44
  L 56.76 129.86
  Z"
/>
</g>
<g fill="#6e423f">
<path d="
  M 101.56 129.31
  Q 101.55 129.44 101.49 129.57
  Q 101.33 129.93 100.94 129.94
  L 76.95 130.15
  Q 76.40 130.15 76.38 129.61
  Q 76.01 115.49 77.85 101.70
  Q 78.16 99.38 79.25 97.41
  Q 79.52 96.93 79.93 97.30
  L 82.98 100.11
  Q 83.39 100.49 83.48 101.05
  Q 85.09 110.89 91.75 116.98
  C 97.97 122.68 104.02 106.58 105.21 103.59
  Q 105.40 103.13 105.84 102.91
  Q 110.07 100.76 113.27 97.31
  C 115.26 95.17 114.90 92.10 119.21 92.53
  Q 119.68 92.58 119.94 92.97
  C 127.88 105.05 129.47 118.30 129.86 132.03
  A 2.16 2.15 -7.7 0 1 128.23 134.17
  L 122.57 135.60
  Q 121.96 135.75 122.05 135.12
  Q 122.96 129.22 119.44 124.65
  Q 119.08 124.18 119.19 123.59
  Q 119.97 119.68 118.20 116.03
  A 1.94 1.92 71.1 0 0 116.08 114.98
  C 111.93 115.81 114.09 119.20 114.00 121.90
  Q 113.98 122.48 113.45 122.72
  C 109.68 124.37 104.87 125.61 101.56 129.31
  Z"
/>
<path d="
  M 146.11 105.76
  C 149.02 106.44 150.02 107.81 149.40 110.73
  Q 149.31 111.15 148.88 111.11
  L 134.05 110.02
  Q 133.49 109.98 133.36 109.43
  L 132.32 105.18
  Q 132.17 104.56 132.80 104.54
  Q 139.57 104.24 146.11 105.76
  Z"
/>
<path d="
  M 150.23 117.43
  L 150.26 121.92
  A 0.34 0.34 0.0 0 1 149.90 122.26
  L 135.15 121.53
  A 0.34 0.34 0.0 0 1 134.83 121.21
  L 134.53 116.16
  A 0.34 0.34 0.0 0 1 134.90 115.80
  L 149.92 117.09
  A 0.34 0.34 0.0 0 1 150.23 117.43
  Z"
/>
<path d="
  M 150.29 128.62
  L 150.08 132.63
  A 0.53 0.53 0.0 0 1 149.56 133.14
  L 136.36 133.54
  A 0.53 0.53 0.0 0 1 135.82 133.04
  L 135.58 127.96
  A 0.53 0.53 0.0 0 1 136.13 127.41
  L 149.79 128.06
  A 0.53 0.53 0.0 0 1 150.29 128.62
  Z"
/>
<path d="
  M 100.33 136.42
  Q 100.62 137.64 101.56 138.44
  Q 102.53 139.27 101.25 139.29
  L 76.79 139.58
  Q 76.24 139.58 76.24 139.04
  L 76.27 136.40
  Q 76.27 135.75 76.92 135.75
  L 99.48 135.75
  Q 100.17 135.75 100.33 136.42
  Z"
/>
<path d="
  M 136.26 139.44
  L 149.05 138.96
  Q 149.68 138.94 149.59 139.56
  L 149.03 143.61
  Q 148.94 144.23 148.33 144.38
  Q 142.56 145.79 136.60 145.14
  Q 136.10 145.09 136.07 144.59
  L 135.81 139.93
  A 0.46 0.46 0.0 0 1 136.26 139.44
  Z"
/>
<path d="
  M 76.92 145.37
  L 129.54 145.17
  Q 130.42 145.17 130.41 146.04
  L 130.33 164.91
  Q 130.33 165.71 129.53 165.70
  L 116.46 165.64
  A 1.60 1.60 0.0 0 1 114.86 164.06
  C 114.83 160.94 114.98 157.64 113.74 154.81
  C 110.15 146.64 96.39 145.39 93.73 154.79
  C 92.95 157.54 93.66 161.52 93.45 164.79
  Q 93.41 165.33 92.90 165.52
  C 90.49 166.40 87.88 165.67 85.72 165.90
  Q 81.52 166.35 77.37 165.70
  Q 76.85 165.62 76.73 165.12
  C 74.96 158.19 76.27 152.52 76.28 146.01
  A 0.64 0.64 0.0 0 1 76.92 145.37
  Z"
/>
</g>
<g fill="#ffe75f">
<path d="
  M 137.99 75.06
  C 143.61 75.21 146.10 81.92 145.94 86.61
  Q 145.93 87.08 145.47 87.18
  C 139.35 88.57 138.48 93.17 137.39 98.45
  Q 137.27 99.03 136.67 99.03
  L 130.36 98.95
  Q 129.83 98.94 129.57 98.47
  L 124.82 89.79
  Q 124.58 89.35 124.87 88.93
  C 128.50 83.74 130.47 74.87 137.99 75.06
  Z"
/>
<path d="
  M 148.44 93.11
  Q 150.63 96.30 149.80 100.11
  Q 149.67 100.69 149.08 100.59
  L 143.24 99.53
  Q 142.81 99.45 142.82 99.01
  Q 142.87 95.70 144.78 93.06
  A 2.24 2.24 0.0 0 1 148.44 93.11
  Z"
/>
<path d="
  M 70.75 118.66
  L 70.75 121.43
  Q 70.75 122.05 70.14 122.11
  L 65.73 122.57
  Q 65.14 122.63 64.82 122.12
  Q 63.79 120.47 64.01 118.48
  Q 64.08 117.89 64.67 117.90
  L 70.09 117.99
  Q 70.75 118.00 70.75 118.66
  Z"
/>
<path d="
  M 69.86 140.55
  Q 70.58 140.64 70.56 141.36
  L 70.34 153.18
  Q 70.33 153.79 69.72 153.88
  Q 64.20 154.72 60.26 151.51
  C 56.44 148.40 61.83 142.39 64.29 140.20
  Q 64.64 139.89 65.09 139.95
  L 69.86 140.55
  Z"
/>
</g>
</svg>
