<?xml version="1.0" encoding="UTF-8" standalone="no"?>
<!DOCTYPE svg PUBLIC "-//W3C//DTD SVG 1.1//EN" "http://www.w3.org/Graphics/SVG/1.1/DTD/svg11.dtd">
<svg xmlns="http://www.w3.org/2000/svg" version="1.1" viewBox="0 0 180 180">
<g stroke-width="2.00" fill="none" stroke-linecap="butt">
<path stroke="#533d3e" vector-effect="non-scaling-stroke" d="
  M 85.06 39.12
  Q 88.00 41.68 89.82 45.13
  A 0.94 0.94 0.0 0 0 90.70 45.63
  L 113.53 44.61
  Q 114.20 44.58 113.90 43.98
  C 110.61 37.56 108.00 27.10 100.10 24.68
  C 90.91 21.87 86.94 30.98 84.68 37.74
  A 1.29 1.28 -60.6 0 0 85.06 39.12"
/>
<path stroke="#98989a" vector-effect="non-scaling-stroke" d="
  M 134.80 36.92
  L 137.23 37.49
  Q 137.70 37.59 137.72 37.12
  Q 138.05 30.72 136.42 24.53
  A 0.30 0.29 -40.5 0 0 135.86 24.49
  Q 133.42 30.05 134.08 36.12
  Q 134.16 36.78 134.80 36.92"
/>
<path stroke="#98989a" vector-effect="non-scaling-stroke" d="
  M 118.81 34.44
  Q 118.39 30.16 116.62 26.03
  A 0.65 0.65 0.0 0 0 115.38 26.32
  L 115.88 34.72
  Q 115.93 35.50 116.71 35.50
  L 118.50 35.50
  Q 119.01 35.50 119.01 34.99
  Q 119.01 34.67 118.81 34.44"
/>
<path stroke="#98989a" vector-effect="non-scaling-stroke" d="
  M 132.05 58.19
  L 133.21 59.81
  Q 133.52 60.25 133.98 59.97
  Q 139.49 56.52 145.94 56.49
  C 150.04 56.48 153.34 55.37 154.54 51.49
  Q 158.03 40.24 156.37 26.45
  Q 156.30 25.87 155.88 26.28
  C 153.16 28.95 153.06 38.97 152.77 42.80
  C 152.17 50.62 145.23 55.51 138.77 48.62
  Q 138.42 48.24 137.97 48.49
  Q 135.22 50.00 132.04 49.89
  Q 131.55 49.88 131.15 50.16
  Q 129.26 51.51 126.98 51.96
  Q 126.31 52.09 126.71 52.64
  C 127.67 54.00 129.50 57.80 131.18 57.76
  Q 131.73 57.75 132.05 58.19"
/>
<path stroke="#533d3e" vector-effect="non-scaling-stroke" d="
  M 135.90 42.72
  Q 127.56 41.03 119.03 41.50
  Q 118.54 41.53 118.71 41.99
  L 119.47 44.16
  Q 119.68 44.74 120.30 44.72
  C 124.06 44.60 132.88 45.00 135.98 43.22
  A 0.27 0.27 0.0 0 0 135.90 42.72"
/>
<path stroke="#533d3e" vector-effect="non-scaling-stroke" d="
  M 59.01 63.26
  L 86.75 63.50
  Q 87.18 63.51 87.34 63.12
  Q 89.67 57.67 86.71 51.78
  C 84.75 47.88 83.47 44.19 79.23 42.70
  C 67.54 38.59 62.31 55.28 58.76 62.86
  Q 58.57 63.25 59.01 63.26"
/>
<path stroke="#98989a" vector-effect="non-scaling-stroke" d="
  M 36.52 42.78
  Q 34.96 48.85 35.28 55.12
  Q 35.30 55.59 35.77 55.49
  L 38.30 54.90
  Q 38.84 54.78 38.91 54.22
  Q 39.58 48.24 37.27 42.72
  A 0.40 0.39 -49.2 0 0 36.52 42.78"
/>
<path stroke="#98989a" vector-effect="non-scaling-stroke" d="
  M 56.81 43.84
  C 55.24 44.88 54.28 51.12 54.11 52.99
  Q 54.07 53.50 54.57 53.50
  L 56.37 53.50
  Q 57.04 53.50 57.08 52.83
  L 57.63 44.31
  A 0.53 0.53 0.0 0 0 56.81 43.84"
/>
<path stroke="#98989a" vector-effect="non-scaling-stroke" d="
  M 32.15 76.36
  L 34.78 79.64
  Q 35.07 80.00 35.52 80.00
  L 38.74 80.00
  Q 39.44 80.00 39.51 79.30
  Q 39.69 77.35 41.16 76.21
  Q 41.56 75.89 42.08 75.85
  L 51.44 75.06
  Q 52.24 74.99 52.24 74.19
  L 52.25 68.74
  Q 52.26 67.85 51.53 68.36
  Q 46.72 71.75 42.08 68.26
  Q 41.65 67.93 41.11 67.92
  Q 37.86 67.82 34.99 66.49
  Q 34.52 66.27 34.16 66.64
  C 30.74 70.19 24.42 71.08 21.66 66.61
  Q 20.60 64.90 20.26 60.62
  C 19.87 55.65 19.88 49.14 17.58 44.68
  Q 16.61 42.79 16.42 44.90
  Q 15.31 57.34 18.41 68.69
  C 20.04 74.71 26.10 75.38 31.28 75.89
  Q 31.81 75.94 32.15 76.36"
/>
<path stroke="#927a6d" vector-effect="non-scaling-stroke" d="
  M 93.06 70.08
  C 93.60 76.09 88.08 73.08 85.43 74.64
  C 78.97 78.45 84.73 86.91 90.93 87.00
  C 97.44 87.10 94.48 91.62 98.31 94.67
  C 111.17 104.92 126.51 95.27 127.05 80.04
  C 127.22 75.15 127.90 69.62 126.95 65.27
  C 121.93 42.18 90.99 46.90 93.06 70.08"
/>
<path stroke="#533d3e" vector-effect="non-scaling-stroke" d="
  M 37.72 61.44
  C 41.97 62.93 48.20 62.58 52.79 62.70
  Q 53.34 62.72 53.53 62.21
  L 54.34 60.10
  Q 54.53 59.63 54.02 59.59
  Q 45.82 59.02 37.79 60.58
  A 0.45 0.45 0.0 0 0 37.72 61.44"
/>
<path stroke="#98989a" vector-effect="non-scaling-stroke" d="
  M 149.36 62.82
  C 139.06 59.05 133.38 67.79 132.82 76.73
  Q 132.41 83.19 130.97 89.48
  Q 130.30 92.41 131.95 94.59
  Q 132.26 95.00 132.78 95.00
  L 139.02 95.00
  Q 139.56 95.00 139.99 95.30
  Q 141.93 96.65 142.42 99.01
  Q 142.57 99.74 143.31 99.79
  L 147.64 100.07
  Q 148.35 100.11 148.61 99.44
  Q 149.42 97.36 151.18 96.13
  Q 151.57 95.86 152.05 95.84
  L 161.09 95.52
  Q 161.71 95.49 161.73 94.87
  C 162.07 83.87 162.43 67.62 149.36 62.82"
/>
<path stroke="#927a6d" vector-effect="non-scaling-stroke" d="
  M 81.99 69.31
  L 58.02 69.22
  Q 57.43 69.22 57.45 69.81
  C 57.68 75.73 57.32 82.88 59.53 87.92
  C 62.39 94.46 68.17 98.87 75.68 98.68
  Q 76.14 98.67 76.36 98.27
  L 81.17 89.56
  Q 81.41 89.15 81.08 88.80
  C 75.88 83.25 75.12 74.56 82.20 70.02
  Q 83.31 69.31 81.99 69.31"
/>
<path stroke="#9c8f4d" vector-effect="non-scaling-stroke" d="
  M 54.79 90.58
  C 52.56 86.97 48.83 85.08 44.40 84.77
  Q 42.71 84.65 43.52 86.13
  Q 46.72 91.96 51.92 96.12
  Q 52.43 96.52 52.71 95.94
  L 54.84 91.53
  Q 55.07 91.04 54.79 90.58"
/>
<path stroke="#533d3e" vector-effect="non-scaling-stroke" d="
  M 36.58 85.95
  C 37.52 112.37 37.70 138.70 37.83 165.12
  Q 37.83 165.73 38.44 165.81
  L 39.36 165.93
  Q 40.03 166.02 40.03 165.34
  Q 39.91 148.04 39.26 130.75
  C 39.24 130.12 39.58 87.14 37.20 85.59
  A 0.41 0.40 -74.8 0 0 36.58 85.95"
/>
<path stroke="#533d3e" vector-effect="non-scaling-stroke" d="
  M 87.38 116.92
  C 88.60 113.37 93.23 115.44 92.55 118.27
  Q 92.04 120.41 92.04 121.95
  Q 92.04 122.54 92.58 122.76
  C 99.28 125.44 107.37 127.60 105.64 136.79
  Q 105.55 137.23 106.00 137.21
  L 129.05 136.12
  A 0.67 0.67 0.0 0 0 129.69 135.46
  Q 130.16 118.06 128.18 101.57
  Q 127.94 99.58 126.78 97.42
  Q 126.51 96.91 126.09 97.31
  L 123.35 99.95
  Q 122.94 100.35 122.80 100.91
  C 121.67 105.42 116.81 119.53 110.12 117.77
  C 105.95 116.66 102.72 107.83 100.74 103.37
  Q 100.55 102.94 100.12 102.75
  Q 93.56 99.91 90.38 93.54
  Q 90.12 93.01 89.58 92.81
  Q 86.46 91.62 84.71 95.17
  C 81.09 102.54 78.81 107.45 77.66 115.61
  Q 76.43 124.25 76.25 132.91
  A 0.95 0.94 -81.9 0 0 76.95 133.85
  L 83.23 135.54
  Q 83.94 135.73 83.84 135.00
  Q 83.10 129.26 86.46 124.71
  Q 86.78 124.28 86.71 123.74
  Q 86.25 120.21 87.38 116.92"
/>
<path stroke="#533d3e" vector-effect="non-scaling-stroke" d="
  M 69.62 115.94
  Q 63.99 109.47 62.37 100.90
  Q 62.28 100.44 61.94 100.12
  L 58.92 97.29
  Q 58.56 96.96 58.32 97.38
  Q 57.15 99.42 56.85 101.83
  Q 54.79 118.63 55.34 135.65
  Q 55.35 136.11 55.81 136.13
  L 69.72 136.66
  Q 70.21 136.68 70.22 136.19
  Q 70.30 126.67 71.28 118.76
  C 71.52 116.81 70.50 116.95 69.62 115.94"
/>
<path stroke="#9c8f4d" vector-effect="non-scaling-stroke" d="
  M 50.84 102.66
  C 49.80 100.82 46.76 98.71 44.58 99.03
  Q 43.88 99.13 43.93 99.84
  L 44.22 103.88
  Q 44.26 104.50 44.78 104.83
  L 49.69 107.93
  Q 50.35 108.35 50.46 107.58
  L 51.03 103.67
  Q 51.11 103.13 50.84 102.66"
/>
<path stroke="#927a6d" vector-effect="non-scaling-stroke" d="
  M 73.85 105.01
  A 0.32 0.32 0.0 0 0 73.60 104.62
  L 69.16 103.76
  A 0.32 0.32 0.0 0 0 68.81 104.22
  L 71.94 110.45
  A 0.32 0.32 0.0 0 0 72.54 110.38
  L 73.85 105.01"
/>
<path stroke="#927a6d" vector-effect="non-scaling-stroke" d="
  M 109.15 104.67
  C 108.68 104.70 108.39 104.44 107.81 104.50
  Q 107.39 104.55 107.58 104.92
  L 110.52 110.81
  Q 111.61 113.01 112.74 110.84
  L 116.12 104.35
  Q 116.53 103.55 115.65 103.75
  Q 112.40 104.52 109.15 104.67"
/>
<path stroke="#533d3e" vector-effect="non-scaling-stroke" d="
  M 152.28 158.77
  C 148.92 158.34 146.60 156.98 146.51 153.25
  Q 145.93 129.84 146.43 106.43
  Q 146.44 105.82 145.85 105.66
  L 145.18 105.49
  Q 144.41 105.29 144.39 106.08
  Q 144.00 118.78 143.73 154.18
  Q 143.69 159.84 137.78 159.50
  Q 136.99 159.46 137.33 160.17
  L 137.57 160.66
  Q 137.77 161.08 138.23 161.06
  L 152.08 160.37
  Q 152.75 160.34 152.75 159.67
  L 152.75 159.31
  A 0.55 0.54 -86.4 0 0 152.28 158.77"
/>
<path stroke="#927a6d" vector-effect="non-scaling-stroke" d="
  M 44.75 134.06
  A 0.32 0.32 0.0 0 0 45.03 134.37
  L 48.89 134.85
  A 0.32 0.32 0.0 0 0 49.25 134.53
  L 49.25 127.96
  A 0.32 0.32 0.0 0 0 48.88 127.64
  L 45.02 128.31
  A 0.32 0.32 0.0 0 0 44.75 128.63
  L 44.75 134.06"
/>
<path stroke="#927a6d" vector-effect="non-scaling-stroke" d="
  M 137.9947 128.4299
  A 0.66 0.66 0.0 0 0 137.3404 127.7641
  L 136.4205 127.7561
  A 0.66 0.66 0.0 0 0 135.7547 128.4103
  L 135.7053 134.0701
  A 0.66 0.66 0.0 0 0 136.3596 134.7359
  L 137.2795 134.7439
  A 0.66 0.66 0.0 0 0 137.9453 134.0897
  L 137.9947 128.4299"
/>
<path stroke="#927a6d" vector-effect="non-scaling-stroke" d="
  M 90.52 135.94
  C 91.94 137.68 98.05 136.00 99.67 135.34
  Q 100.17 135.13 100.18 134.59
  C 100.26 130.93 94.54 129.52 91.66 128.72
  Q 90.74 128.47 90.25 129.29
  Q 88.06 132.93 90.52 135.94"
/>
<path stroke="#533d3e" vector-effect="non-scaling-stroke" d="
  M 69.52 142.70
  L 55.89 141.89
  A 0.59 0.59 0.0 0 0 55.26 142.46
  C 55.03 150.16 53.87 157.91 55.61 164.95
  Q 55.73 165.44 56.20 165.58
  C 59.89 166.71 65.51 165.81 69.50 165.85
  A 0.41 0.41 0.0 0 0 69.92 165.41
  Q 69.12 154.42 70.16 143.46
  A 0.69 0.69 0.0 0 0 69.52 142.70"
/>
<path stroke="#533d3e" vector-effect="non-scaling-stroke" d="
  M 104.81 142.94
  C 99.00 142.72 93.00 143.08 88.39 142.81
  Q 82.44 142.46 76.53 142.01
  A 0.76 0.76 0.0 0 0 75.71 142.77
  L 75.64 164.80
  Q 75.63 165.71 76.55 165.71
  L 89.48 165.63
  A 1.84 1.83 88.2 0 0 91.30 163.69
  C 91.12 160.77 91.00 157.90 92.11 155.21
  C 95.41 147.20 108.40 145.04 111.93 153.82
  C 113.13 156.80 112.48 161.47 112.79 165.14
  Q 112.84 165.67 113.37 165.68
  C 118.17 165.80 124.34 166.84 128.90 165.54
  Q 129.39 165.40 129.48 164.90
  C 130.51 159.72 130.56 154.30 129.77 146.27
  C 129.66 145.23 130.10 143.36 129.73 142.26
  Q 129.55 141.69 128.95 141.74
  Q 112.50 143.23 104.81 142.94"
/>
<path stroke="#533d3e" vector-effect="non-scaling-stroke" d="
  M 105.11 154.41
  C 97.11 151.59 96.63 160.24 96.77 165.24
  Q 96.78 165.75 97.29 165.75
  L 106.25 165.75
  Q 106.75 165.75 106.75 165.25
  L 106.75 156.72
  A 2.45 2.44 -80.4 0 0 105.11 154.41"
/>
<path stroke="#927a6d" vector-effect="non-scaling-stroke" d="
  M 118.3743 75.5326
  A 2.57 2.57 0.0 0 0 115.8632 72.9049
  L 115.6433 72.8999
  A 2.57 2.57 0.0 0 0 113.0156 75.4110
  L 112.7057 89.0674
  A 2.57 2.57 0.0 0 0 115.2168 91.6951
  L 115.4367 91.7001
  A 2.57 2.57 0.0 0 0 118.0644 89.1890
  L 118.3743 75.5326"
/>
<path stroke="#98989a" vector-effect="non-scaling-stroke" d="
  M 150.5743 88.8215
  A 4.74 2.82 2.8 0 0 145.9778 85.7734
  A 4.74 2.82 2.8 0 0 141.1057 88.3585
  A 4.74 2.82 2.8 0 0 145.7022 91.4066
  A 4.74 2.82 2.8 0 0 150.5743 88.8215"
/>
<path stroke="#927a6d" vector-effect="non-scaling-stroke" d="
  M 72.0362 75.4279
  A 2.56 2.56 0.0 0 0 69.4452 72.8994
  L 69.2252 72.9020
  A 2.56 2.56 0.0 0 0 66.6966 75.4931
  L 66.8638 89.1721
  A 2.56 2.56 0.0 0 0 69.4548 91.7006
  L 69.6748 91.6980
  A 2.56 2.56 0.0 0 0 72.2034 89.1069
  L 72.0362 75.4279"
/>
</g>
<g fill="#38383c">
<path d="
  M 26.79 64.20
  C 29.89 64.66 30.75 61.95 30.41 59.35
  C 29.87 55.12 29.37 35.72 37.04 36.86
  C 43.10 37.77 44.13 48.65 44.04 53.39
  Q 44.03 54.02 44.65 53.96
  L 47.91 53.67
  Q 48.56 53.61 48.64 52.96
  C 49.68 45.22 51.05 37.82 60.01 36.51
  Q 66.77 35.52 78.67 35.81
  Q 79.20 35.82 79.39 35.33
  C 82.54 27.11 86.64 18.40 97.00 18.48
  Q 105.20 18.54 109.90 25.04
  Q 110.15 25.39 110.33 25.00
  C 111.77 21.85 113.59 18.72 117.59 20.34
  C 122.76 22.44 123.76 30.13 124.40 34.98
  Q 124.48 35.61 125.11 35.66
  L 128.52 35.98
  Q 129.16 36.04 129.09 35.41
  C 128.63 30.75 129.84 21.10 135.06 19.15
  C 143.75 15.92 143.10 37.50 142.57 41.24
  C 142.27 43.36 142.86 46.26 145.34 46.20
  A 2.15 2.14 -88.7 0 0 147.43 44.19
  Q 147.94 35.95 149.01 28.51
  C 149.91 22.27 160.17 15.82 161.59 25.97
  C 162.95 35.71 162.93 50.56 156.06 59.24
  Q 155.76 59.62 156.14 59.93
  C 167.85 69.42 168.41 82.89 167.11 96.81
  C 166.28 105.72 152.32 96.33 152.07 105.51
  Q 151.42 129.03 152.42 152.56
  Q 152.44 153.08 152.96 153.10
  Q 157.39 153.26 158.03 157.03
  C 158.73 161.14 158.32 166.10 152.92 166.24
  Q 144.10 166.47 135.33 166.88
  Q 134.82 166.91 134.55 167.34
  C 129.50 175.49 114.55 170.09 104.75 171.74
  C 100.75 172.42 94.42 170.59 89.18 171.25
  Q 82.15 172.14 80.00 171.74
  C 71.27 170.11 57.66 174.61 51.95 169.31
  C 47.66 165.33 49.42 147.03 49.58 141.27
  Q 49.59 140.68 49.00 140.61
  L 45.80 140.26
  Q 45.18 140.19 45.19 140.82
  Q 45.37 152.40 45.53 163.93
  C 45.56 165.96 45.02 167.58 44.47 169.44
  Q 44.32 169.95 43.86 170.21
  Q 39.63 172.61 36.04 170.68
  C 30.90 167.92 32.16 162.06 32.12 157.28
  Q 31.81 121.13 31.16 84.98
  Q 31.15 84.55 30.89 84.19
  L 29.10 81.77
  Q 28.81 81.38 28.33 81.29
  C 20.20 79.75 14.42 77.48 12.54 68.48
  Q 9.88 55.82 11.15 43.92
  C 11.60 39.72 16.17 37.12 19.71 39.83
  C 25.98 44.64 24.65 56.23 26.05 63.50
  Q 26.17 64.11 26.79 64.20
  Z
  M 85.06 39.12
  Q 88.00 41.68 89.82 45.13
  A 0.94 0.94 0.0 0 0 90.70 45.63
  L 113.53 44.61
  Q 114.20 44.58 113.90 43.98
  C 110.61 37.56 108.00 27.10 100.10 24.68
  C 90.91 21.87 86.94 30.98 84.68 37.74
  A 1.29 1.28 -60.6 0 0 85.06 39.12
  Z
  M 134.80 36.92
  L 137.23 37.49
  Q 137.70 37.59 137.72 37.12
  Q 138.05 30.72 136.42 24.53
  A 0.30 0.29 -40.5 0 0 135.86 24.49
  Q 133.42 30.05 134.08 36.12
  Q 134.16 36.78 134.80 36.92
  Z
  M 118.81 34.44
  Q 118.39 30.16 116.62 26.03
  A 0.65 0.65 0.0 0 0 115.38 26.32
  L 115.88 34.72
  Q 115.93 35.50 116.71 35.50
  L 118.50 35.50
  Q 119.01 35.50 119.01 34.99
  Q 119.01 34.67 118.81 34.44
  Z
  M 132.05 58.19
  L 133.21 59.81
  Q 133.52 60.25 133.98 59.97
  Q 139.49 56.52 145.94 56.49
  C 150.04 56.48 153.34 55.37 154.54 51.49
  Q 158.03 40.24 156.37 26.45
  Q 156.30 25.87 155.88 26.28
  C 153.16 28.95 153.06 38.97 152.77 42.80
  C 152.17 50.62 145.23 55.51 138.77 48.62
  Q 138.42 48.24 137.97 48.49
  Q 135.22 50.00 132.04 49.89
  Q 131.55 49.88 131.15 50.16
  Q 129.26 51.51 126.98 51.96
  Q 126.31 52.09 126.71 52.64
  C 127.67 54.00 129.50 57.80 131.18 57.76
  Q 131.73 57.75 132.05 58.19
  Z
  M 135.90 42.72
  Q 127.56 41.03 119.03 41.50
  Q 118.54 41.53 118.71 41.99
  L 119.47 44.16
  Q 119.68 44.74 120.30 44.72
  C 124.06 44.60 132.88 45.00 135.98 43.22
  A 0.27 0.27 0.0 0 0 135.90 42.72
  Z
  M 59.01 63.26
  L 86.75 63.50
  Q 87.18 63.51 87.34 63.12
  Q 89.67 57.67 86.71 51.78
  C 84.75 47.88 83.47 44.19 79.23 42.70
  C 67.54 38.59 62.31 55.28 58.76 62.86
  Q 58.57 63.25 59.01 63.26
  Z
  M 36.52 42.78
  Q 34.96 48.85 35.28 55.12
  Q 35.30 55.59 35.77 55.49
  L 38.30 54.90
  Q 38.84 54.78 38.91 54.22
  Q 39.58 48.24 37.27 42.72
  A 0.40 0.39 -49.2 0 0 36.52 42.78
  Z
  M 56.81 43.84
  C 55.24 44.88 54.28 51.12 54.11 52.99
  Q 54.07 53.50 54.57 53.50
  L 56.37 53.50
  Q 57.04 53.50 57.08 52.83
  L 57.63 44.31
  A 0.53 0.53 0.0 0 0 56.81 43.84
  Z
  M 32.15 76.36
  L 34.78 79.64
  Q 35.07 80.00 35.52 80.00
  L 38.74 80.00
  Q 39.44 80.00 39.51 79.30
  Q 39.69 77.35 41.16 76.21
  Q 41.56 75.89 42.08 75.85
  L 51.44 75.06
  Q 52.24 74.99 52.24 74.19
  L 52.25 68.74
  Q 52.26 67.85 51.53 68.36
  Q 46.72 71.75 42.08 68.26
  Q 41.65 67.93 41.11 67.92
  Q 37.86 67.82 34.99 66.49
  Q 34.52 66.27 34.16 66.64
  C 30.74 70.19 24.42 71.08 21.66 66.61
  Q 20.60 64.90 20.26 60.62
  C 19.87 55.65 19.88 49.14 17.58 44.68
  Q 16.61 42.79 16.42 44.90
  Q 15.31 57.34 18.41 68.69
  C 20.04 74.71 26.10 75.38 31.28 75.89
  Q 31.81 75.94 32.15 76.36
  Z
  M 93.06 70.08
  C 93.60 76.09 88.08 73.08 85.43 74.64
  C 78.97 78.45 84.73 86.91 90.93 87.00
  C 97.44 87.10 94.48 91.62 98.31 94.67
  C 111.17 104.92 126.51 95.27 127.05 80.04
  C 127.22 75.15 127.90 69.62 126.95 65.27
  C 121.93 42.18 90.99 46.90 93.06 70.08
  Z
  M 37.72 61.44
  C 41.97 62.93 48.20 62.58 52.79 62.70
  Q 53.34 62.72 53.53 62.21
  L 54.34 60.10
  Q 54.53 59.63 54.02 59.59
  Q 45.82 59.02 37.79 60.58
  A 0.45 0.45 0.0 0 0 37.72 61.44
  Z
  M 149.36 62.82
  C 139.06 59.05 133.38 67.79 132.82 76.73
  Q 132.41 83.19 130.97 89.48
  Q 130.30 92.41 131.95 94.59
  Q 132.26 95.00 132.78 95.00
  L 139.02 95.00
  Q 139.56 95.00 139.99 95.30
  Q 141.93 96.65 142.42 99.01
  Q 142.57 99.74 143.31 99.79
  L 147.64 100.07
  Q 148.35 100.11 148.61 99.44
  Q 149.42 97.36 151.18 96.13
  Q 151.57 95.86 152.05 95.84
  L 161.09 95.52
  Q 161.71 95.49 161.73 94.87
  C 162.07 83.87 162.43 67.62 149.36 62.82
  Z
  M 81.99 69.31
  L 58.02 69.22
  Q 57.43 69.22 57.45 69.81
  C 57.68 75.73 57.32 82.88 59.53 87.92
  C 62.39 94.46 68.17 98.87 75.68 98.68
  Q 76.14 98.67 76.36 98.27
  L 81.17 89.56
  Q 81.41 89.15 81.08 88.80
  C 75.88 83.25 75.12 74.56 82.20 70.02
  Q 83.31 69.31 81.99 69.31
  Z
  M 54.79 90.58
  C 52.56 86.97 48.83 85.08 44.40 84.77
  Q 42.71 84.65 43.52 86.13
  Q 46.72 91.96 51.92 96.12
  Q 52.43 96.52 52.71 95.94
  L 54.84 91.53
  Q 55.07 91.04 54.79 90.58
  Z
  M 36.58 85.95
  C 37.52 112.37 37.70 138.70 37.83 165.12
  Q 37.83 165.73 38.44 165.81
  L 39.36 165.93
  Q 40.03 166.02 40.03 165.34
  Q 39.91 148.04 39.26 130.75
  C 39.24 130.12 39.58 87.14 37.20 85.59
  A 0.41 0.40 -74.8 0 0 36.58 85.95
  Z
  M 87.38 116.92
  C 88.60 113.37 93.23 115.44 92.55 118.27
  Q 92.04 120.41 92.04 121.95
  Q 92.04 122.54 92.58 122.76
  C 99.28 125.44 107.37 127.60 105.64 136.79
  Q 105.55 137.23 106.00 137.21
  L 129.05 136.12
  A 0.67 0.67 0.0 0 0 129.69 135.46
  Q 130.16 118.06 128.18 101.57
  Q 127.94 99.58 126.78 97.42
  Q 126.51 96.91 126.09 97.31
  L 123.35 99.95
  Q 122.94 100.35 122.80 100.91
  C 121.67 105.42 116.81 119.53 110.12 117.77
  C 105.95 116.66 102.72 107.83 100.74 103.37
  Q 100.55 102.94 100.12 102.75
  Q 93.56 99.91 90.38 93.54
  Q 90.12 93.01 89.58 92.81
  Q 86.46 91.62 84.71 95.17
  C 81.09 102.54 78.81 107.45 77.66 115.61
  Q 76.43 124.25 76.25 132.91
  A 0.95 0.94 -81.9 0 0 76.95 133.85
  L 83.23 135.54
  Q 83.94 135.73 83.84 135.00
  Q 83.10 129.26 86.46 124.71
  Q 86.78 124.28 86.71 123.74
  Q 86.25 120.21 87.38 116.92
  Z
  M 69.62 115.94
  Q 63.99 109.47 62.37 100.90
  Q 62.28 100.44 61.94 100.12
  L 58.92 97.29
  Q 58.56 96.96 58.32 97.38
  Q 57.15 99.42 56.85 101.83
  Q 54.79 118.63 55.34 135.65
  Q 55.35 136.11 55.81 136.13
  L 69.72 136.66
  Q 70.21 136.68 70.22 136.19
  Q 70.30 126.67 71.28 118.76
  C 71.52 116.81 70.50 116.95 69.62 115.94
  Z
  M 50.84 102.66
  C 49.80 100.82 46.76 98.71 44.58 99.03
  Q 43.88 99.13 43.93 99.84
  L 44.22 103.88
  Q 44.26 104.50 44.78 104.83
  L 49.69 107.93
  Q 50.35 108.35 50.46 107.58
  L 51.03 103.67
  Q 51.11 103.13 50.84 102.66
  Z
  M 73.85 105.01
  A 0.32 0.32 0.0 0 0 73.60 104.62
  L 69.16 103.76
  A 0.32 0.32 0.0 0 0 68.81 104.22
  L 71.94 110.45
  A 0.32 0.32 0.0 0 0 72.54 110.38
  L 73.85 105.01
  Z
  M 109.15 104.67
  C 108.68 104.70 108.39 104.44 107.81 104.50
  Q 107.39 104.55 107.58 104.92
  L 110.52 110.81
  Q 111.61 113.01 112.74 110.84
  L 116.12 104.35
  Q 116.53 103.55 115.65 103.75
  Q 112.40 104.52 109.15 104.67
  Z
  M 152.28 158.77
  C 148.92 158.34 146.60 156.98 146.51 153.25
  Q 145.93 129.84 146.43 106.43
  Q 146.44 105.82 145.85 105.66
  L 145.18 105.49
  Q 144.41 105.29 144.39 106.08
  Q 144.00 118.78 143.73 154.18
  Q 143.69 159.84 137.78 159.50
  Q 136.99 159.46 137.33 160.17
  L 137.57 160.66
  Q 137.77 161.08 138.23 161.06
  L 152.08 160.37
  Q 152.75 160.34 152.75 159.67
  L 152.75 159.31
  A 0.55 0.54 -86.4 0 0 152.28 158.77
  Z
  M 49.75 114.33
  A 0.40 0.40 0.0 0 0 49.54 113.98
  L 44.73 111.35
  A 0.40 0.40 0.0 0 0 44.14 111.72
  L 44.60 122.04
  A 0.40 0.40 0.0 0 0 45.02 122.42
  L 49.37 122.17
  A 0.40 0.40 0.0 0 0 49.75 121.77
  L 49.75 114.33
  Z
  M 44.75 134.06
  A 0.32 0.32 0.0 0 0 45.03 134.37
  L 48.89 134.85
  A 0.32 0.32 0.0 0 0 49.25 134.53
  L 49.25 127.96
  A 0.32 0.32 0.0 0 0 48.88 127.64
  L 45.02 128.31
  A 0.32 0.32 0.0 0 0 44.75 128.63
  L 44.75 134.06
  Z
  M 137.9947 128.4299
  A 0.66 0.66 0.0 0 0 137.3404 127.7641
  L 136.4205 127.7561
  A 0.66 0.66 0.0 0 0 135.7547 128.4103
  L 135.7053 134.0701
  A 0.66 0.66 0.0 0 0 136.3596 134.7359
  L 137.2795 134.7439
  A 0.66 0.66 0.0 0 0 137.9453 134.0897
  L 137.9947 128.4299
  Z
  M 90.52 135.94
  C 91.94 137.68 98.05 136.00 99.67 135.34
  Q 100.17 135.13 100.18 134.59
  C 100.26 130.93 94.54 129.52 91.66 128.72
  Q 90.74 128.47 90.25 129.29
  Q 88.06 132.93 90.52 135.94
  Z
  M 69.52 142.70
  L 55.89 141.89
  A 0.59 0.59 0.0 0 0 55.26 142.46
  C 55.03 150.16 53.87 157.91 55.61 164.95
  Q 55.73 165.44 56.20 165.58
  C 59.89 166.71 65.51 165.81 69.50 165.85
  A 0.41 0.41 0.0 0 0 69.92 165.41
  Q 69.12 154.42 70.16 143.46
  A 0.69 0.69 0.0 0 0 69.52 142.70
  Z
  M 104.81 142.94
  C 99.00 142.72 93.00 143.08 88.39 142.81
  Q 82.44 142.46 76.53 142.01
  A 0.76 0.76 0.0 0 0 75.71 142.77
  L 75.64 164.80
  Q 75.63 165.71 76.55 165.71
  L 89.48 165.63
  A 1.84 1.83 88.2 0 0 91.30 163.69
  C 91.12 160.77 91.00 157.90 92.11 155.21
  C 95.41 147.20 108.40 145.04 111.93 153.82
  C 113.13 156.80 112.48 161.47 112.79 165.14
  Q 112.84 165.67 113.37 165.68
  C 118.17 165.80 124.34 166.84 128.90 165.54
  Q 129.39 165.40 129.48 164.90
  C 130.51 159.72 130.56 154.30 129.77 146.27
  C 129.66 145.23 130.10 143.36 129.73 142.26
  Q 129.55 141.69 128.95 141.74
  Q 112.50 143.23 104.81 142.94
  Z
  M 105.11 154.41
  C 97.11 151.59 96.63 160.24 96.77 165.24
  Q 96.78 165.75 97.29 165.75
  L 106.25 165.75
  Q 106.75 165.75 106.75 165.25
  L 106.75 156.72
  A 2.45 2.44 -80.4 0 0 105.11 154.41
  Z"
/>
<rect x="-2.67" y="-9.40" transform="translate(69.45,82.30) rotate(-0.7)" width="5.34" height="18.80" rx="2.56"/>
<rect x="-2.68" y="-9.40" transform="translate(115.54,82.30) rotate(1.3)" width="5.36" height="18.80" rx="2.57"/>
<ellipse cx="0.00" cy="0.00" transform="translate(145.84,88.59) rotate(2.8)" rx="4.74" ry="2.82"/>
</g>
<g fill="#ebbc9e">
<path d="
  M 93.06 70.08
  C 90.99 46.90 121.93 42.18 126.95 65.27
  C 127.90 69.62 127.22 75.15 127.05 80.04
  C 126.51 95.27 111.17 104.92 98.31 94.67
  C 94.48 91.62 97.44 87.10 90.93 87.00
  C 84.73 86.91 78.97 78.45 85.43 74.64
  C 88.08 73.08 93.60 76.09 93.06 70.08
  Z
  M 118.3743 75.5326
  A 2.57 2.57 0.0 0 0 115.8632 72.9049
  L 115.6433 72.8999
  A 2.57 2.57 0.0 0 0 113.0156 75.4110
  L 112.7057 89.0674
  A 2.57 2.57 0.0 0 0 115.2168 91.6951
  L 115.4367 91.7001
  A 2.57 2.57 0.0 0 0 118.0644 89.1890
  L 118.3743 75.5326
  Z"
/>
<path d="
  M 81.99 69.31
  Q 83.31 69.31 82.20 70.02
  C 75.12 74.56 75.88 83.25 81.08 88.80
  Q 81.41 89.15 81.17 89.56
  L 76.36 98.27
  Q 76.14 98.67 75.68 98.68
  C 68.17 98.87 62.39 94.46 59.53 87.92
  C 57.32 82.88 57.68 75.73 57.45 69.81
  Q 57.43 69.22 58.02 69.22
  L 81.99 69.31
  Z
  M 72.0362 75.4279
  A 2.56 2.56 0.0 0 0 69.4452 72.8994
  L 69.2252 72.9020
  A 2.56 2.56 0.0 0 0 66.6966 75.4931
  L 66.8638 89.1721
  A 2.56 2.56 0.0 0 0 69.4548 91.7006
  L 69.6748 91.6980
  A 2.56 2.56 0.0 0 0 72.2034 89.1069
  L 72.0362 75.4279
  Z"
/>
<path d="
  M 73.85 105.01
  L 72.54 110.38
  A 0.32 0.32 0.0 0 1 71.94 110.45
  L 68.81 104.22
  A 0.32 0.32 0.0 0 1 69.16 103.76
  L 73.60 104.62
  A 0.32 0.32 0.0 0 1 73.85 105.01
  Z"
/>
<path d="
  M 109.15 104.67
  Q 112.40 104.52 115.65 103.75
  Q 116.53 103.55 116.12 104.35
  L 112.74 110.84
  Q 111.61 113.01 110.52 110.81
  L 107.58 104.92
  Q 107.39 104.55 107.81 104.50
  C 108.39 104.44 108.68 104.70 109.15 104.67
  Z"
/>
<path d="
  M 44.75 134.06
  L 44.75 128.63
  A 0.32 0.32 0.0 0 1 45.02 128.31
  L 48.88 127.64
  A 0.32 0.32 0.0 0 1 49.25 127.96
  L 49.25 134.53
  A 0.32 0.32 0.0 0 1 48.89 134.85
  L 45.03 134.37
  A 0.32 0.32 0.0 0 1 44.75 134.06
  Z"
/>
<rect x="-1.12" y="-3.49" transform="translate(136.85,131.25) rotate(0.5)" width="2.24" height="6.98" rx="0.66"/>
<path d="
  M 90.52 135.94
  Q 88.06 132.93 90.25 129.29
  Q 90.74 128.47 91.66 128.72
  C 94.54 129.52 100.26 130.93 100.18 134.59
  Q 100.17 135.13 99.67 135.34
  C 98.05 136.00 91.94 137.68 90.52 135.94
  Z"
/>
</g>
<g fill="#6e423f">
<path d="
  M 85.06 39.12
  A 1.29 1.28 -60.6 0 1 84.68 37.74
  C 86.94 30.98 90.91 21.87 100.10 24.68
  C 108.00 27.10 110.61 37.56 113.90 43.98
  Q 114.20 44.58 113.53 44.61
  L 90.70 45.63
  A 0.94 0.94 0.0 0 1 89.82 45.13
  Q 88.00 41.68 85.06 39.12
  Z"
/>
<path d="
  M 135.90 42.72
  A 0.27 0.27 0.0 0 1 135.98 43.22
  C 132.88 45.00 124.06 44.60 120.30 44.72
  Q 119.68 44.74 119.47 44.16
  L 118.71 41.99
  Q 118.54 41.53 119.03 41.50
  Q 127.56 41.03 135.90 42.72
  Z"
/>
<path d="
  M 86.75 63.50
  L 59.01 63.26
  Q 58.57 63.25 58.76 62.86
  C 62.31 55.28 67.54 38.59 79.23 42.70
  C 83.47 44.19 84.75 47.88 86.71 51.78
  Q 89.67 57.67 87.34 63.12
  Q 87.18 63.51 86.75 63.50
  Z"
/>
<path d="
  M 52.79 62.70
  C 48.20 62.58 41.97 62.93 37.72 61.44
  A 0.45 0.45 0.0 0 1 37.79 60.58
  Q 45.82 59.02 54.02 59.59
  Q 54.53 59.63 54.34 60.10
  L 53.53 62.21
  Q 53.34 62.72 52.79 62.70
  Z"
/>
<path d="
  M 37.83 165.12
  C 37.70 138.70 37.52 112.37 36.58 85.95
  A 0.41 0.40 -74.8 0 1 37.20 85.59
  C 39.58 87.14 39.24 130.12 39.26 130.75
  Q 39.91 148.04 40.03 165.34
  Q 40.03 166.02 39.36 165.93
  L 38.44 165.81
  Q 37.83 165.73 37.83 165.12
  Z"
/>
<path d="
  M 87.38 116.92
  Q 86.25 120.21 86.71 123.74
  Q 86.78 124.28 86.46 124.71
  Q 83.10 129.26 83.84 135.00
  Q 83.94 135.73 83.23 135.54
  L 76.95 133.85
  A 0.95 0.94 -81.9 0 1 76.25 132.91
  Q 76.43 124.25 77.66 115.61
  C 78.81 107.45 81.09 102.54 84.71 95.17
  Q 86.46 91.62 89.58 92.81
  Q 90.12 93.01 90.38 93.54
  Q 93.56 99.91 100.12 102.75
  Q 100.55 102.94 100.74 103.37
  C 102.72 107.83 105.95 116.66 110.12 117.77
  C 116.81 119.53 121.67 105.42 122.80 100.91
  Q 122.94 100.35 123.35 99.95
  L 126.09 97.31
  Q 126.51 96.91 126.78 97.42
  Q 127.94 99.58 128.18 101.57
  Q 130.16 118.06 129.69 135.46
  A 0.67 0.67 0.0 0 1 129.05 136.12
  L 106.00 137.21
  Q 105.55 137.23 105.64 136.79
  C 107.37 127.60 99.28 125.44 92.58 122.76
  Q 92.04 122.54 92.04 121.95
  Q 92.04 120.41 92.55 118.27
  C 93.23 115.44 88.60 113.37 87.38 116.92
  Z"
/>
<path d="
  M 69.62 115.94
  C 70.50 116.95 71.52 116.81 71.28 118.76
  Q 70.30 126.67 70.22 136.19
  Q 70.21 136.68 69.72 136.66
  L 55.81 136.13
  Q 55.35 136.11 55.34 135.65
  Q 54.79 118.63 56.85 101.83
  Q 57.15 99.42 58.32 97.38
  Q 58.56 96.96 58.92 97.29
  L 61.94 100.12
  Q 62.28 100.44 62.37 100.90
  Q 63.99 109.47 69.62 115.94
  Z"
/>
<path d="
  M 152.28 158.77
  A 0.55 0.54 -86.4 0 1 152.75 159.31
  L 152.75 159.67
  Q 152.75 160.34 152.08 160.37
  L 138.23 161.06
  Q 137.77 161.08 137.57 160.66
  L 137.33 160.17
  Q 136.99 159.46 137.78 159.50
  Q 143.69 159.84 143.73 154.18
  Q 144.00 118.78 144.39 106.08
  Q 144.41 105.29 145.18 105.49
  L 145.85 105.66
  Q 146.44 105.82 146.43 106.43
  Q 145.93 129.84 146.51 153.25
  C 146.60 156.98 148.92 158.34 152.28 158.77
  Z"
/>
<path d="
  M 69.52 142.70
  A 0.69 0.69 0.0 0 1 70.16 143.46
  Q 69.12 154.42 69.92 165.41
  A 0.41 0.41 0.0 0 1 69.50 165.85
  C 65.51 165.81 59.89 166.71 56.20 165.58
  Q 55.73 165.44 55.61 164.95
  C 53.87 157.91 55.03 150.16 55.26 142.46
  A 0.59 0.59 0.0 0 1 55.89 141.89
  L 69.52 142.70
  Z"
/>
<path d="
  M 104.81 142.94
  Q 112.50 143.23 128.95 141.74
  Q 129.55 141.69 129.73 142.26
  C 130.10 143.36 129.66 145.23 129.77 146.27
  C 130.56 154.30 130.51 159.72 129.48 164.90
  Q 129.39 165.40 128.90 165.54
  C 124.34 166.84 118.17 165.80 113.37 165.68
  Q 112.84 165.67 112.79 165.14
  C 112.48 161.47 113.13 156.80 111.93 153.82
  C 108.40 145.04 95.41 147.20 92.11 155.21
  C 91.00 157.90 91.12 160.77 91.30 163.69
  A 1.84 1.83 88.2 0 1 89.48 165.63
  L 76.55 165.71
  Q 75.63 165.71 75.64 164.80
  L 75.71 142.77
  A 0.76 0.76 0.0 0 1 76.53 142.01
  Q 82.44 142.46 88.39 142.81
  C 93.00 143.08 99.00 142.72 104.81 142.94
  Z"
/>
<path d="
  M 105.11 154.41
  A 2.45 2.44 -80.4 0 1 106.75 156.72
  L 106.75 165.25
  Q 106.75 165.75 106.25 165.75
  L 97.29 165.75
  Q 96.78 165.75 96.77 165.24
  C 96.63 160.24 97.11 151.59 105.11 154.41
  Z"
/>
</g>
<g fill="#f8f8f8">
<path d="
  M 134.08 36.12
  Q 133.42 30.05 135.86 24.49
  A 0.30 0.29 -40.5 0 1 136.42 24.53
  Q 138.05 30.72 137.72 37.12
  Q 137.70 37.59 137.23 37.49
  L 134.80 36.92
  Q 134.16 36.78 134.08 36.12
  Z"
/>
<path d="
  M 118.81 34.44
  Q 119.01 34.67 119.01 34.99
  Q 119.01 35.50 118.50 35.50
  L 116.71 35.50
  Q 115.93 35.50 115.88 34.72
  L 115.38 26.32
  A 0.65 0.65 0.0 0 1 116.62 26.03
  Q 118.39 30.16 118.81 34.44
  Z"
/>
<path d="
  M 131.18 57.76
  C 129.50 57.80 127.67 54.00 126.71 52.64
  Q 126.31 52.09 126.98 51.96
  Q 129.26 51.51 131.15 50.16
  Q 131.55 49.88 132.04 49.89
  Q 135.22 50.00 137.97 48.49
  Q 138.42 48.24 138.77 48.62
  C 145.23 55.51 152.17 50.62 152.77 42.80
  C 153.06 38.97 153.16 28.95 155.88 26.28
  Q 156.30 25.87 156.37 26.45
  Q 158.03 40.24 154.54 51.49
  C 153.34 55.37 150.04 56.48 145.94 56.49
  Q 139.49 56.52 133.98 59.97
  Q 133.52 60.25 133.21 59.81
  L 132.05 58.19
  Q 131.73 57.75 131.18 57.76
  Z"
/>
<path d="
  M 36.52 42.78
  A 0.40 0.39 -49.2 0 1 37.27 42.72
  Q 39.58 48.24 38.91 54.22
  Q 38.84 54.78 38.30 54.90
  L 35.77 55.49
  Q 35.30 55.59 35.28 55.12
  Q 34.96 48.85 36.52 42.78
  Z"
/>
<path d="
  M 54.11 52.99
  C 54.28 51.12 55.24 44.88 56.81 43.84
  A 0.53 0.53 0.0 0 1 57.63 44.31
  L 57.08 52.83
  Q 57.04 53.50 56.37 53.50
  L 54.57 53.50
  Q 54.07 53.50 54.11 52.99
  Z"
/>
<path d="
  M 31.28 75.89
  C 26.10 75.38 20.04 74.71 18.41 68.69
  Q 15.31 57.34 16.42 44.90
  Q 16.61 42.79 17.58 44.68
  C 19.88 49.14 19.87 55.65 20.26 60.62
  Q 20.60 64.90 21.66 66.61
  C 24.42 71.08 30.74 70.19 34.16 66.64
  Q 34.52 66.27 34.99 66.49
  Q 37.86 67.82 41.11 67.92
  Q 41.65 67.93 42.08 68.26
  Q 46.72 71.75 51.53 68.36
  Q 52.26 67.85 52.25 68.74
  L 52.24 74.19
  Q 52.24 74.99 51.44 75.06
  L 42.08 75.85
  Q 41.56 75.89 41.16 76.21
  Q 39.69 77.35 39.51 79.30
  Q 39.44 80.00 38.74 80.00
  L 35.52 80.00
  Q 35.07 80.00 34.78 79.64
  L 32.15 76.36
  Q 31.81 75.94 31.28 75.89
  Z"
/>
<path d="
  M 149.36 62.82
  C 162.43 67.62 162.07 83.87 161.73 94.87
  Q 161.71 95.49 161.09 95.52
  L 152.05 95.84
  Q 151.57 95.86 151.18 96.13
  Q 149.42 97.36 148.61 99.44
  Q 148.35 100.11 147.64 100.07
  L 143.31 99.79
  Q 142.57 99.74 142.42 99.01
  Q 141.93 96.65 139.99 95.30
  Q 139.56 95.00 139.02 95.00
  L 132.78 95.00
  Q 132.26 95.00 131.95 94.59
  Q 130.30 92.41 130.97 89.48
  Q 132.41 83.19 132.82 76.73
  C 133.38 67.79 139.06 59.05 149.36 62.82
  Z
  M 150.5743 88.8215
  A 4.74 2.82 2.8 0 0 145.9778 85.7734
  A 4.74 2.82 2.8 0 0 141.1057 88.3585
  A 4.74 2.82 2.8 0 0 145.7022 91.4066
  A 4.74 2.82 2.8 0 0 150.5743 88.8215
  Z"
/>
</g>
<g fill="#ffe65d">
<path d="
  M 44.40 84.77
  C 48.83 85.08 52.56 86.97 54.79 90.58
  Q 55.07 91.04 54.84 91.53
  L 52.71 95.94
  Q 52.43 96.52 51.92 96.12
  Q 46.72 91.96 43.52 86.13
  Q 42.71 84.65 44.40 84.77
  Z"
/>
<path d="
  M 44.58 99.03
  C 46.76 98.71 49.80 100.82 50.84 102.66
  Q 51.11 103.13 51.03 103.67
  L 50.46 107.58
  Q 50.35 108.35 49.69 107.93
  L 44.78 104.83
  Q 44.26 104.50 44.22 103.88
  L 43.93 99.84
  Q 43.88 99.13 44.58 99.03
  Z"
/>
</g>
</svg>
