<?xml version="1.0" encoding="UTF-8" standalone="no"?>
<!DOCTYPE svg PUBLIC "-//W3C//DTD SVG 1.1//EN" "http://www.w3.org/Graphics/SVG/1.1/DTD/svg11.dtd">
<svg xmlns="http://www.w3.org/2000/svg" version="1.1" viewBox="0 0 180 180">
<g stroke-width="2.00" fill="none" stroke-linecap="butt">
<path stroke="#927a6d" vector-effect="non-scaling-stroke" d="
  M 63.32 40.46
  C 59.09 34.83 58.41 48.24 52.73 41.85
  Q 52.41 41.49 51.93 41.52
  C 48.74 41.75 57.61 52.01 58.87 53.13
  Q 59.17 53.39 59.29 53.02
  L 63.40 41.00
  A 0.59 0.59 0.0 0 0 63.32 40.46"
/>
<path stroke="#927a6d" vector-effect="non-scaling-stroke" d="
  M 118.51 52.79
  Q 123.11 48.43 125.61 42.68
  A 0.80 0.80 0.0 0 0 124.29 41.82
  L 123.30 42.89
  Q 122.98 43.24 122.51 43.37
  C 118.56 44.44 116.52 35.88 113.81 40.39
  Q 113.56 40.80 113.72 41.26
  L 117.75 53.13
  Q 117.86 53.46 118.14 53.25
  Q 118.25 53.17 118.32 53.05
  Q 118.39 52.90 118.51 52.79"
/>
<path stroke="#927a6d" vector-effect="non-scaling-stroke" d="
  M 73.61 46.46
  C 73.69 43.85 70.11 44.02 68.63 45.04
  C 66.19 46.72 65.04 53.45 64.84 56.22
  Q 64.75 57.49 65.31 56.35
  Q 68.03 50.80 73.15 47.31
  Q 73.60 47.00 73.61 46.46"
/>
<path stroke="#927a6d" vector-effect="non-scaling-stroke" d="
  M 109.24 45.60
  C 107.17 44.38 103.61 43.05 103.32 46.77
  Q 103.28 47.29 103.68 47.63
  Q 108.26 51.48 107.13 57.54
  A 0.68 0.68 0.0 0 0 108.04 58.30
  L 111.79 56.94
  Q 112.23 56.77 112.19 56.31
  Q 111.66 50.84 109.43 45.82
  Q 109.37 45.68 109.24 45.60"
/>
<path stroke="#576461" vector-effect="non-scaling-stroke" d="
  M 62.57 62.13
  C 54.96 58.10 50.03 53.47 46.31 45.59
  Q 46.08 45.12 45.73 45.50
  C 38.84 53.15 39.26 60.64 39.92 70.55
  Q 40.31 76.34 41.90 79.67
  C 45.93 88.11 54.53 91.70 63.66 88.55
  Q 64.06 88.41 63.96 87.99
  Q 60.91 75.60 62.96 62.93
  Q 63.05 62.39 62.57 62.13"
/>
<path stroke="#576461" vector-effect="non-scaling-stroke" d="
  M 111.25 67.90
  Q 123.41 75.90 114.12 87.66
  A 0.89 0.89 0.0 0 0 114.63 89.08
  C 127.43 91.88 136.22 83.68 137.07 71.25
  C 137.75 61.23 138.19 52.88 131.12 45.48
  Q 130.73 45.07 130.50 45.59
  Q 124.84 58.48 111.65 63.23
  Q 111.27 63.36 111.25 63.77
  L 111.13 67.67
  A 0.25 0.25 0.0 0 0 111.25 67.90"
/>
<path stroke="#927a6d" vector-effect="non-scaling-stroke" d="
  M 89.06 47.15
  Q 87.04 47.91 86.31 49.91
  Q 86.14 50.36 85.76 50.64
  Q 82.82 52.83 80.73 49.76
  Q 80.40 49.27 79.85 49.51
  L 79.62 49.61
  Q 79.01 49.89 79.28 50.50
  Q 82.00 56.63 86.84 61.20
  Q 87.29 61.63 87.46 61.03
  C 88.01 59.01 91.72 49.11 91.21 48.03
  A 1.71 1.71 0.0 0 0 89.06 47.15"
/>
<path stroke="#927a6d" vector-effect="non-scaling-stroke" d="
  M 93.12 64.94
  C 95.40 66.13 102.50 68.53 104.92 66.33
  Q 105.33 65.95 105.29 65.40
  C 104.96 60.72 97.92 61.39 101.55 55.40
  Q 101.82 54.96 101.70 54.46
  C 100.98 51.20 97.92 52.29 96.07 53.52
  Q 95.63 53.80 95.42 54.28
  Q 93.30 59.11 92.81 64.36
  Q 92.77 64.75 93.12 64.94"
/>
<path stroke="#576461" vector-effect="non-scaling-stroke" d="
  M 102.98 86.03
  C 115.65 86.11 113.26 70.30 106.13 73.31
  Q 105.67 73.50 105.17 73.48
  Q 83.68 72.61 74.33 53.63
  Q 74.06 53.09 73.66 53.54
  C 66.95 61.08 67.18 68.78 67.92 79.05
  C 68.50 87.01 72.49 94.90 80.61 97.07
  C 87.07 98.80 97.38 96.86 99.31 89.12
  C 99.85 86.99 100.84 86.02 102.98 86.03"
/>
<path stroke="#533d3e" vector-effect="non-scaling-stroke" d="
  M 118.47 95.57
  A 0.47 0.47 0.0 0 0 118.02 96.23
  L 119.31 99.06
  Q 119.56 99.61 120.14 99.41
  C 123.25 98.33 123.86 101.11 123.73 103.70
  Q 123.70 104.25 124.25 104.25
  L 127.98 104.25
  Q 128.50 104.25 128.71 103.79
  Q 131.45 97.88 137.95 96.88
  Q 138.48 96.80 138.49 96.26
  Q 138.51 92.05 136.81 88.21
  Q 136.53 87.58 136.09 88.11
  Q 129.28 96.16 118.47 95.57"
/>
<path stroke="#533d3e" vector-effect="non-scaling-stroke" d="
  M 58.56 101.50
  C 58.70 107.94 58.44 114.59 58.81 120.98
  Q 58.81 121.08 58.88 121.01
  Q 58.95 120.91 59.06 120.83
  Q 59.39 120.58 59.41 120.16
  C 59.72 112.50 59.83 103.04 62.26 95.77
  Q 62.48 95.12 61.81 95.23
  Q 49.20 97.35 40.85 88.20
  Q 40.38 87.68 40.11 88.33
  Q 38.55 92.24 38.51 96.45
  Q 38.50 96.98 39.02 97.03
  Q 45.78 97.74 48.33 104.03
  Q 48.50 104.45 48.95 104.42
  L 53.01 104.18
  Q 53.50 104.16 53.39 103.68
  C 52.23 98.48 58.49 98.03 58.56 101.50"
/>
<path stroke="#533d3e" vector-effect="non-scaling-stroke" d="
  M 107.40 115.32
  Q 108.86 118.89 108.24 122.65
  Q 108.15 123.18 108.47 123.62
  Q 111.81 128.21 111.16 134.04
  Q 111.08 134.76 111.79 134.57
  L 118.15 132.87
  A 1.14 1.14 0.0 0 0 118.99 131.67
  L 117.51 114.28
  Q 117.45 113.68 116.86 113.56
  C 106.61 111.52 95.42 103.49 109.57 94.54
  Q 110.07 94.22 109.92 93.65
  Q 109.55 92.19 108.25 91.38
  A 2.31 2.31 0.0 0 0 105.02 92.18
  C 97.48 105.31 79.18 108.01 68.94 96.26
  Q 68.51 95.77 68.24 96.36
  Q 66.46 100.22 66.52 104.48
  Q 66.53 104.97 67.02 105.03
  Q 73.66 105.76 76.30 111.91
  Q 76.51 112.40 77.04 112.37
  L 80.84 112.20
  Q 81.52 112.17 81.39 111.50
  C 80.46 106.74 86.25 105.30 86.46 110.49
  Q 86.97 122.71 86.86 127.63
  C 86.77 132.07 80.52 131.03 81.33 125.93
  Q 81.44 125.25 80.75 125.25
  L 76.28 125.25
  Q 75.73 125.25 75.40 125.68
  Q 71.71 130.37 65.73 128.92
  Q 65.11 128.77 65.13 129.41
  L 65.30 134.43
  Q 65.33 135.03 65.93 135.06
  L 88.77 136.17
  Q 89.39 136.20 89.32 135.59
  C 88.15 125.42 95.93 125.05 102.61 121.55
  Q 103.12 121.28 103.04 120.72
  L 102.41 116.32
  Q 102.35 115.90 102.61 115.56
  Q 104.28 113.28 106.71 114.56
  Q 107.19 114.81 107.40 115.32"
/>
<path stroke="#576461" vector-effect="non-scaling-stroke" d="
  M 109.11 104.27
  L 115.44 107.32
  Q 116.33 107.75 115.98 106.82
  L 113.18 99.54
  Q 112.90 98.80 112.27 99.29
  L 108.87 101.89
  A 1.41 1.40 -50.8 0 0 109.11 104.27"
/>
<path stroke="#98989a" vector-effect="non-scaling-stroke" d="
  M 42.30 114.76
  C 45.47 111.24 48.47 111.52 52.87 111.89
  Q 53.50 111.95 53.50 111.31
  L 53.50 110.03
  Q 53.50 109.36 52.87 109.55
  Q 48.23 110.92 44.77 108.19
  C 42.78 106.62 42.84 104.17 39.86 102.86
  Q 39.37 102.64 38.90 102.90
  C 35.25 104.92 41.91 107.13 40.42 110.20
  Q 40.20 110.66 39.80 110.98
  L 37.09 113.19
  Q 36.51 113.67 37.03 114.21
  Q 38.88 116.15 41.52 115.27
  Q 41.98 115.12 42.30 114.76"
/>
<path stroke="#98989a" vector-effect="non-scaling-stroke" d="
  M 132.55 107.90
  C 129.54 110.56 127.60 109.71 124.02 109.73
  Q 123.50 109.74 123.50 110.25
  L 123.50 111.73
  Q 123.50 112.34 124.08 112.15
  Q 129.72 110.35 133.82 113.99
  C 135.53 115.52 141.03 116.57 139.79 112.95
  Q 139.64 112.54 139.23 112.39
  Q 136.56 111.45 136.23 108.74
  Q 136.17 108.21 136.55 107.83
  L 138.55 105.83
  Q 138.90 105.48 138.97 104.98
  C 139.24 103.15 138.01 102.22 136.38 103.21
  C 134.20 104.54 134.03 106.59 132.55 107.90"
/>
<path stroke="#98989a" vector-effect="non-scaling-stroke" d="
  M 80.87 117.52
  C 75.78 118.77 72.80 117.41 70.44 112.83
  Q 69.73 111.46 67.51 110.84
  Q 67.02 110.70 66.63 111.04
  C 63.56 113.68 70.03 114.87 68.42 118.20
  Q 68.20 118.66 67.80 118.98
  L 65.09 121.19
  Q 64.51 121.67 65.03 122.21
  Q 66.87 124.14 69.50 123.28
  Q 69.96 123.12 70.30 122.77
  Q 74.57 118.25 80.85 120.05
  Q 81.50 120.24 81.50 119.56
  L 81.50 118.02
  Q 81.50 117.37 80.87 117.52"
/>
<path stroke="#533d3e" vector-effect="non-scaling-stroke" d="
  M 37.16 126.41
  A 0.59 0.59 0.0 0 0 37.72 127.01
  L 45.76 127.50
  Q 46.30 127.53 46.62 127.09
  Q 49.30 123.41 53.61 121.87
  Q 54.21 121.66 53.89 121.11
  Q 53.03 119.60 53.27 117.82
  Q 53.34 117.25 52.77 117.25
  L 48.26 117.25
  Q 47.75 117.25 47.43 117.66
  Q 43.99 122.15 38.29 121.00
  Q 37.27 120.79 37.25 121.83
  L 37.16 126.41"
/>
<path stroke="#533d3e" vector-effect="non-scaling-stroke" d="
  M 139.22 121.05
  C 135.43 121.69 131.91 120.85 129.64 117.68
  Q 129.34 117.25 128.81 117.25
  L 124.56 117.25
  Q 123.86 117.25 123.92 117.95
  L 124.74 127.27
  Q 124.78 127.75 125.27 127.72
  L 138.71 127.08
  A 1.10 1.09 -1.6 0 0 139.76 125.98
  L 139.74 121.49
  Q 139.74 120.97 139.22 121.05"
/>
<path stroke="#576461" vector-effect="non-scaling-stroke" d="
  M 23.41 122.38
  A 1.33 1.33 0.0 0 0 24.19 124.46
  L 30.60 125.89
  Q 31.25 126.03 31.25 125.37
  L 31.25 119.27
  Q 31.25 118.84 30.82 118.83
  Q 26.13 118.70 23.41 122.38"
/>
<path stroke="#576461" vector-effect="non-scaling-stroke" d="
  M 153.71 122.99
  C 152.66 120.05 148.95 118.85 146.24 118.79
  Q 145.75 118.78 145.75 119.27
  L 145.75 125.04
  Q 145.75 125.65 146.37 125.66
  Q 150.12 125.69 153.36 123.90
  Q 153.92 123.59 153.71 122.99"
/>
<path stroke="#576461" vector-effect="non-scaling-stroke" d="
  M 52.16 132.42
  L 58.61 133.87
  Q 59.25 134.01 59.25 133.36
  L 59.25 127.27
  Q 59.25 126.85 58.83 126.84
  Q 54.08 126.71 51.41 130.47
  A 1.26 1.25 -66.1 0 0 52.16 132.42"
/>
<path stroke="#576461" vector-effect="non-scaling-stroke" d="
  M 95.75 134.60
  L 102.52 135.83
  Q 103.20 135.95 103.70 135.49
  Q 106.98 132.45 104.80 128.06
  Q 104.59 127.64 104.14 127.71
  C 101.41 128.13 94.98 129.84 94.74 133.31
  A 1.24 1.23 7.1 0 0 95.75 134.60"
/>
<path stroke="#533d3e" vector-effect="non-scaling-stroke" d="
  M 37.01 133.62
  C 37.96 140.99 36.26 148.23 37.39 155.66
  Q 37.47 156.19 37.94 156.44
  C 40.51 157.86 49.81 156.83 53.13 156.67
  A 1.49 1.49 0.0 0 0 54.54 155.12
  C 54.32 149.08 53.24 144.27 58.95 140.41
  Q 59.56 140.00 58.86 139.75
  Q 55.13 138.41 52.60 141.07
  C 50.58 143.18 49.27 142.41 46.79 142.13
  Q 39.55 141.28 40.56 133.67
  Q 40.65 133.00 39.98 133.00
  L 37.55 133.00
  Q 36.93 133.00 37.01 133.62"
/>
<path stroke="#533d3e" vector-effect="non-scaling-stroke" d="
  M 125.89 142.20
  L 125.58 142.03
  Q 124.93 141.68 124.96 142.42
  L 125.60 156.40
  Q 125.62 156.87 126.09 156.87
  L 138.29 156.96
  Q 138.96 156.97 139.17 156.33
  C 141.39 149.73 139.99 140.54 139.76 133.54
  Q 139.74 132.96 139.15 132.98
  L 136.78 133.06
  Q 136.03 133.09 136.22 133.81
  C 138.02 140.48 132.17 142.61 126.79 142.44
  Q 126.31 142.43 125.89 142.20"
/>
<path stroke="#576461" vector-effect="non-scaling-stroke" d="
  M 125.25 134.01
  C 126.45 136.23 128.64 137.91 130.92 135.86
  Q 131.33 135.50 131.19 134.97
  L 130.92 133.91
  Q 130.81 133.50 130.39 133.50
  L 125.55 133.50
  Q 124.97 133.50 125.25 134.01"
/>
<path stroke="#576461" vector-effect="non-scaling-stroke" d="
  M 47.52 136.77
  A 0.37 0.37 0.0 0 0 47.86 136.16
  L 46.41 134.50
  Q 45.63 133.62 45.73 134.79
  Q 45.87 136.49 47.52 136.77"
/>
<path stroke="#533d3e" vector-effect="non-scaling-stroke" d="
  M 118.39 161.48
  C 115.67 162.19 113.01 161.64 110.85 159.90
  C 102.42 153.11 109.36 143.87 118.63 144.60
  Q 119.38 144.66 119.31 143.91
  L 119.08 141.60
  Q 119.01 140.89 118.31 140.95
  Q 113.16 141.41 108.01 141.73
  C 101.78 142.11 94.22 141.48 87.25 142.00
  Q 86.75 142.04 86.48 142.47
  Q 83.61 147.08 79.66 149.90
  C 77.99 151.09 76.21 150.29 74.70 150.11
  Q 67.52 149.23 68.57 141.61
  Q 68.66 141.00 68.04 141.00
  L 65.85 141.00
  Q 65.32 141.00 65.31 141.53
  C 65.16 148.45 63.75 156.88 65.51 163.43
  Q 65.96 165.11 67.70 165.07
  L 81.67 164.71
  A 0.83 0.82 -0.7 0 0 82.48 163.89
  C 82.51 160.54 81.87 155.57 83.22 152.56
  C 86.48 145.25 96.27 146.25 100.96 150.90
  C 104.31 154.22 103.48 159.48 104.04 163.61
  A 1.17 1.17 0.0 0 0 105.20 164.63
  L 118.39 164.73
  Q 119.20 164.74 119.20 163.92
  L 119.20 162.11
  Q 119.20 161.27 118.39 161.48"
/>
<path stroke="#576461" vector-effect="non-scaling-stroke" d="
  M 79.39 142.65
  Q 79.73 142.48 79.95 142.16
  Q 80.26 141.68 79.69 141.66
  L 74.62 141.44
  Q 74.16 141.42 73.98 141.84
  C 72.68 144.74 77.16 145.83 78.71 143.28
  Q 78.96 142.87 79.39 142.65"
/>
<path stroke="#576461" vector-effect="non-scaling-stroke" d="
  M 113.75 155.09
  Q 116.19 156.71 119.04 155.64
  Q 119.50 155.47 119.50 154.98
  L 119.50 150.96
  Q 119.50 150.51 119.07 150.39
  Q 115.62 149.42 113.37 151.77
  A 2.18 2.17 38.6 0 0 113.75 155.09"
/>
<path stroke="#576461" vector-effect="non-scaling-stroke" d="
  M 54.0210 66.3988
  A 2.59 2.59 0.0 0 0 51.3906 63.8498
  L 51.2106 63.8526
  A 2.59 2.59 0.0 0 0 48.6616 66.4829
  L 48.8790 80.3212
  A 2.59 2.59 0.0 0 0 51.5094 82.8702
  L 51.6894 82.8674
  A 2.59 2.59 0.0 0 0 54.2384 80.2371
  L 54.0210 66.3988"
/>
<path stroke="#576461" vector-effect="non-scaling-stroke" d="
  M 128.3304 66.4880
  A 2.58 2.58 0.0 0 0 125.7958 63.8634
  L 125.5758 63.8595
  A 2.58 2.58 0.0 0 0 122.9512 66.3941
  L 122.7096 80.2320
  A 2.58 2.58 0.0 0 0 125.2442 82.8566
  L 125.4642 82.8605
  A 2.58 2.58 0.0 0 0 128.0888 80.3259
  L 128.3304 66.4880"
/>
<path stroke="#576461" vector-effect="non-scaling-stroke" d="
  M 82.0553 74.4077
  A 2.59 2.59 0.0 0 0 79.4338 71.8495
  L 79.2338 71.8519
  A 2.59 2.59 0.0 0 0 76.6757 74.4734
  L 76.8447 88.3123
  A 2.59 2.59 0.0 0 0 79.4662 90.8705
  L 79.6662 90.8681
  A 2.59 2.59 0.0 0 0 82.2243 88.2466
  L 82.0553 74.4077"
/>
</g>
<g fill="#38383c">
<path d="
  M 58.98 160.10
  C 55.09 164.10 37.97 163.94 33.86 160.18
  C 29.75 156.41 31.43 138.03 31.50 132.58
  A 1.14 1.14 0.0 0 0 30.34 131.42
  C 24.10 131.52 12.87 126.84 19.16 118.66
  Q 23.50 113.01 30.86 113.23
  A 0.69 0.69 0.0 0 0 31.57 112.55
  Q 31.68 102.41 33.11 92.41
  C 33.66 88.57 37.48 83.13 36.29 80.10
  C 34.17 74.70 34.19 68.69 34.35 62.82
  C 34.57 54.72 36.28 48.56 41.23 42.66
  C 42.85 40.72 45.51 39.22 47.58 37.52
  C 50.02 35.52 51.92 35.39 54.85 35.84
  Q 55.37 35.92 55.82 35.64
  C 62.18 31.68 64.45 33.65 68.91 38.48
  Q 69.25 38.84 69.74 38.79
  Q 75.65 38.08 78.50 43.16
  Q 78.76 43.62 79.30 43.64
  L 83.03 43.75
  Q 83.58 43.76 84.06 43.48
  C 89.96 40.00 93.04 41.51 96.87 46.51
  Q 97.45 47.28 97.61 46.33
  Q 98.91 38.32 107.18 38.70
  Q 107.69 38.73 108.04 38.35
  C 111.69 34.43 115.27 31.25 120.48 35.34
  Q 120.91 35.68 121.45 35.68
  L 126.45 35.72
  Q 126.92 35.72 127.30 35.99
  C 132.87 39.88 137.37 42.85 140.02 49.76
  C 141.46 53.54 142.42 55.81 142.61 59.88
  C 142.95 67.58 143.01 74.59 140.37 81.00
  A 2.61 2.59 40.5 0 0 140.57 83.37
  C 145.30 90.94 145.29 103.46 145.44 112.00
  Q 145.46 113.11 146.58 113.16
  Q 156.55 113.58 159.59 122.46
  C 161.68 128.56 149.99 131.59 146.07 131.45
  Q 145.47 131.43 145.48 132.04
  C 145.54 140.56 146.34 148.64 144.78 157.05
  C 143.39 164.55 131.07 162.80 125.98 162.73
  A 0.82 0.82 0.0 0 0 125.15 163.51
  Q 124.83 169.64 119.51 170.28
  Q 114.34 170.90 105.99 170.26
  Q 98.70 169.70 98.20 162.90
  Q 98.17 162.45 97.72 162.47
  L 88.74 162.82
  Q 88.19 162.85 88.20 163.40
  Q 88.22 170.39 80.92 170.64
  C 77.06 170.78 66.31 172.11 62.05 168.36
  C 59.88 166.45 59.86 163.00 59.33 160.21
  A 0.21 0.21 0.0 0 0 58.98 160.10
  Z
  M 63.32 40.46
  C 59.09 34.83 58.41 48.24 52.73 41.85
  Q 52.41 41.49 51.93 41.52
  C 48.74 41.75 57.61 52.01 58.87 53.13
  Q 59.17 53.39 59.29 53.02
  L 63.40 41.00
  A 0.59 0.59 0.0 0 0 63.32 40.46
  Z
  M 118.51 52.79
  Q 123.11 48.43 125.61 42.68
  A 0.80 0.80 0.0 0 0 124.29 41.82
  L 123.30 42.89
  Q 122.98 43.24 122.51 43.37
  C 118.56 44.44 116.52 35.88 113.81 40.39
  Q 113.56 40.80 113.72 41.26
  L 117.75 53.13
  Q 117.86 53.46 118.14 53.25
  Q 118.25 53.17 118.32 53.05
  Q 118.39 52.90 118.51 52.79
  Z
  M 73.61 46.46
  C 73.69 43.85 70.11 44.02 68.63 45.04
  C 66.19 46.72 65.04 53.45 64.84 56.22
  Q 64.75 57.49 65.31 56.35
  Q 68.03 50.80 73.15 47.31
  Q 73.60 47.00 73.61 46.46
  Z
  M 109.24 45.60
  C 107.17 44.38 103.61 43.05 103.32 46.77
  Q 103.28 47.29 103.68 47.63
  Q 108.26 51.48 107.13 57.54
  A 0.68 0.68 0.0 0 0 108.04 58.30
  L 111.79 56.94
  Q 112.23 56.77 112.19 56.31
  Q 111.66 50.84 109.43 45.82
  Q 109.37 45.68 109.24 45.60
  Z
  M 62.57 62.13
  C 54.96 58.10 50.03 53.47 46.31 45.59
  Q 46.08 45.12 45.73 45.50
  C 38.84 53.15 39.26 60.64 39.92 70.55
  Q 40.31 76.34 41.90 79.67
  C 45.93 88.11 54.53 91.70 63.66 88.55
  Q 64.06 88.41 63.96 87.99
  Q 60.91 75.60 62.96 62.93
  Q 63.05 62.39 62.57 62.13
  Z
  M 111.25 67.90
  Q 123.41 75.90 114.12 87.66
  A 0.89 0.89 0.0 0 0 114.63 89.08
  C 127.43 91.88 136.22 83.68 137.07 71.25
  C 137.75 61.23 138.19 52.88 131.12 45.48
  Q 130.73 45.07 130.50 45.59
  Q 124.84 58.48 111.65 63.23
  Q 111.27 63.36 111.25 63.77
  L 111.13 67.67
  A 0.25 0.25 0.0 0 0 111.25 67.90
  Z
  M 89.06 47.15
  Q 87.04 47.91 86.31 49.91
  Q 86.14 50.36 85.76 50.64
  Q 82.82 52.83 80.73 49.76
  Q 80.40 49.27 79.85 49.51
  L 79.62 49.61
  Q 79.01 49.89 79.28 50.50
  Q 82.00 56.63 86.84 61.20
  Q 87.29 61.63 87.46 61.03
  C 88.01 59.01 91.72 49.11 91.21 48.03
  A 1.71 1.71 0.0 0 0 89.06 47.15
  Z
  M 93.12 64.94
  C 95.40 66.13 102.50 68.53 104.92 66.33
  Q 105.33 65.95 105.29 65.40
  C 104.96 60.72 97.92 61.39 101.55 55.40
  Q 101.82 54.96 101.70 54.46
  C 100.98 51.20 97.92 52.29 96.07 53.52
  Q 95.63 53.80 95.42 54.28
  Q 93.30 59.11 92.81 64.36
  Q 92.77 64.75 93.12 64.94
  Z
  M 102.98 86.03
  C 115.65 86.11 113.26 70.30 106.13 73.31
  Q 105.67 73.50 105.17 73.48
  Q 83.68 72.61 74.33 53.63
  Q 74.06 53.09 73.66 53.54
  C 66.95 61.08 67.18 68.78 67.92 79.05
  C 68.50 87.01 72.49 94.90 80.61 97.07
  C 87.07 98.80 97.38 96.86 99.31 89.12
  C 99.85 86.99 100.84 86.02 102.98 86.03
  Z
  M 118.47 95.57
  A 0.47 0.47 0.0 0 0 118.02 96.23
  L 119.31 99.06
  Q 119.56 99.61 120.14 99.41
  C 123.25 98.33 123.86 101.11 123.73 103.70
  Q 123.70 104.25 124.25 104.25
  L 127.98 104.25
  Q 128.50 104.25 128.71 103.79
  Q 131.45 97.88 137.95 96.88
  Q 138.48 96.80 138.49 96.26
  Q 138.51 92.05 136.81 88.21
  Q 136.53 87.58 136.09 88.11
  Q 129.28 96.16 118.47 95.57
  Z
  M 58.56 101.50
  C 58.70 107.94 58.44 114.59 58.81 120.98
  Q 58.81 121.08 58.88 121.01
  Q 58.95 120.91 59.06 120.83
  Q 59.39 120.58 59.41 120.16
  C 59.72 112.50 59.83 103.04 62.26 95.77
  Q 62.48 95.12 61.81 95.23
  Q 49.20 97.35 40.85 88.20
  Q 40.38 87.68 40.11 88.33
  Q 38.55 92.24 38.51 96.45
  Q 38.50 96.98 39.02 97.03
  Q 45.78 97.74 48.33 104.03
  Q 48.50 104.45 48.95 104.42
  L 53.01 104.18
  Q 53.50 104.16 53.39 103.68
  C 52.23 98.48 58.49 98.03 58.56 101.50
  Z
  M 107.40 115.32
  Q 108.86 118.89 108.24 122.65
  Q 108.15 123.18 108.47 123.62
  Q 111.81 128.21 111.16 134.04
  Q 111.08 134.76 111.79 134.57
  L 118.15 132.87
  A 1.14 1.14 0.0 0 0 118.99 131.67
  L 117.51 114.28
  Q 117.45 113.68 116.86 113.56
  C 106.61 111.52 95.42 103.49 109.57 94.54
  Q 110.07 94.22 109.92 93.65
  Q 109.55 92.19 108.25 91.38
  A 2.31 2.31 0.0 0 0 105.02 92.18
  C 97.48 105.31 79.18 108.01 68.94 96.26
  Q 68.51 95.77 68.24 96.36
  Q 66.46 100.22 66.52 104.48
  Q 66.53 104.97 67.02 105.03
  Q 73.66 105.76 76.30 111.91
  Q 76.51 112.40 77.04 112.37
  L 80.84 112.20
  Q 81.52 112.17 81.39 111.50
  C 80.46 106.74 86.25 105.30 86.46 110.49
  Q 86.97 122.71 86.86 127.63
  C 86.77 132.07 80.52 131.03 81.33 125.93
  Q 81.44 125.25 80.75 125.25
  L 76.28 125.25
  Q 75.73 125.25 75.40 125.68
  Q 71.71 130.37 65.73 128.92
  Q 65.11 128.77 65.13 129.41
  L 65.30 134.43
  Q 65.33 135.03 65.93 135.06
  L 88.77 136.17
  Q 89.39 136.20 89.32 135.59
  C 88.15 125.42 95.93 125.05 102.61 121.55
  Q 103.12 121.28 103.04 120.72
  L 102.41 116.32
  Q 102.35 115.90 102.61 115.56
  Q 104.28 113.28 106.71 114.56
  Q 107.19 114.81 107.40 115.32
  Z
  M 109.11 104.27
  L 115.44 107.32
  Q 116.33 107.75 115.98 106.82
  L 113.18 99.54
  Q 112.90 98.80 112.27 99.29
  L 108.87 101.89
  A 1.41 1.40 -50.8 0 0 109.11 104.27
  Z
  M 42.30 114.76
  C 45.47 111.24 48.47 111.52 52.87 111.89
  Q 53.50 111.95 53.50 111.31
  L 53.50 110.03
  Q 53.50 109.36 52.87 109.55
  Q 48.23 110.92 44.77 108.19
  C 42.78 106.62 42.84 104.17 39.86 102.86
  Q 39.37 102.64 38.90 102.90
  C 35.25 104.92 41.91 107.13 40.42 110.20
  Q 40.20 110.66 39.80 110.98
  L 37.09 113.19
  Q 36.51 113.67 37.03 114.21
  Q 38.88 116.15 41.52 115.27
  Q 41.98 115.12 42.30 114.76
  Z
  M 132.55 107.90
  C 129.54 110.56 127.60 109.71 124.02 109.73
  Q 123.50 109.74 123.50 110.25
  L 123.50 111.73
  Q 123.50 112.34 124.08 112.15
  Q 129.72 110.35 133.82 113.99
  C 135.53 115.52 141.03 116.57 139.79 112.95
  Q 139.64 112.54 139.23 112.39
  Q 136.56 111.45 136.23 108.74
  Q 136.17 108.21 136.55 107.83
  L 138.55 105.83
  Q 138.90 105.48 138.97 104.98
  C 139.24 103.15 138.01 102.22 136.38 103.21
  C 134.20 104.54 134.03 106.59 132.55 107.90
  Z
  M 80.87 117.52
  C 75.78 118.77 72.80 117.41 70.44 112.83
  Q 69.73 111.46 67.51 110.84
  Q 67.02 110.70 66.63 111.04
  C 63.56 113.68 70.03 114.87 68.42 118.20
  Q 68.20 118.66 67.80 118.98
  L 65.09 121.19
  Q 64.51 121.67 65.03 122.21
  Q 66.87 124.14 69.50 123.28
  Q 69.96 123.12 70.30 122.77
  Q 74.57 118.25 80.85 120.05
  Q 81.50 120.24 81.50 119.56
  L 81.50 118.02
  Q 81.50 117.37 80.87 117.52
  Z
  M 37.16 126.41
  A 0.59 0.59 0.0 0 0 37.72 127.01
  L 45.76 127.50
  Q 46.30 127.53 46.62 127.09
  Q 49.30 123.41 53.61 121.87
  Q 54.21 121.66 53.89 121.11
  Q 53.03 119.60 53.27 117.82
  Q 53.34 117.25 52.77 117.25
  L 48.26 117.25
  Q 47.75 117.25 47.43 117.66
  Q 43.99 122.15 38.29 121.00
  Q 37.27 120.79 37.25 121.83
  L 37.16 126.41
  Z
  M 139.22 121.05
  C 135.43 121.69 131.91 120.85 129.64 117.68
  Q 129.34 117.25 128.81 117.25
  L 124.56 117.25
  Q 123.86 117.25 123.92 117.95
  L 124.74 127.27
  Q 124.78 127.75 125.27 127.72
  L 138.71 127.08
  A 1.10 1.09 -1.6 0 0 139.76 125.98
  L 139.74 121.49
  Q 139.74 120.97 139.22 121.05
  Z
  M 23.41 122.38
  A 1.33 1.33 0.0 0 0 24.19 124.46
  L 30.60 125.89
  Q 31.25 126.03 31.25 125.37
  L 31.25 119.27
  Q 31.25 118.84 30.82 118.83
  Q 26.13 118.70 23.41 122.38
  Z
  M 153.71 122.99
  C 152.66 120.05 148.95 118.85 146.24 118.79
  Q 145.75 118.78 145.75 119.27
  L 145.75 125.04
  Q 145.75 125.65 146.37 125.66
  Q 150.12 125.69 153.36 123.90
  Q 153.92 123.59 153.71 122.99
  Z
  M 52.16 132.42
  L 58.61 133.87
  Q 59.25 134.01 59.25 133.36
  L 59.25 127.27
  Q 59.25 126.85 58.83 126.84
  Q 54.08 126.71 51.41 130.47
  A 1.26 1.25 -66.1 0 0 52.16 132.42
  Z
  M 95.75 134.60
  L 102.52 135.83
  Q 103.20 135.95 103.70 135.49
  Q 106.98 132.45 104.80 128.06
  Q 104.59 127.64 104.14 127.71
  C 101.41 128.13 94.98 129.84 94.74 133.31
  A 1.24 1.23 7.1 0 0 95.75 134.60
  Z
  M 37.01 133.62
  C 37.96 140.99 36.26 148.23 37.39 155.66
  Q 37.47 156.19 37.94 156.44
  C 40.51 157.86 49.81 156.83 53.13 156.67
  A 1.49 1.49 0.0 0 0 54.54 155.12
  C 54.32 149.08 53.24 144.27 58.95 140.41
  Q 59.56 140.00 58.86 139.75
  Q 55.13 138.41 52.60 141.07
  C 50.58 143.18 49.27 142.41 46.79 142.13
  Q 39.55 141.28 40.56 133.67
  Q 40.65 133.00 39.98 133.00
  L 37.55 133.00
  Q 36.93 133.00 37.01 133.62
  Z
  M 125.89 142.20
  L 125.58 142.03
  Q 124.93 141.68 124.96 142.42
  L 125.60 156.40
  Q 125.62 156.87 126.09 156.87
  L 138.29 156.96
  Q 138.96 156.97 139.17 156.33
  C 141.39 149.73 139.99 140.54 139.76 133.54
  Q 139.74 132.96 139.15 132.98
  L 136.78 133.06
  Q 136.03 133.09 136.22 133.81
  C 138.02 140.48 132.17 142.61 126.79 142.44
  Q 126.31 142.43 125.89 142.20
  Z
  M 125.25 134.01
  C 126.45 136.23 128.64 137.91 130.92 135.86
  Q 131.33 135.50 131.19 134.97
  L 130.92 133.91
  Q 130.81 133.50 130.39 133.50
  L 125.55 133.50
  Q 124.97 133.50 125.25 134.01
  Z
  M 47.52 136.77
  A 0.37 0.37 0.0 0 0 47.86 136.16
  L 46.41 134.50
  Q 45.63 133.62 45.73 134.79
  Q 45.87 136.49 47.52 136.77
  Z
  M 118.39 161.48
  C 115.67 162.19 113.01 161.64 110.85 159.90
  C 102.42 153.11 109.36 143.87 118.63 144.60
  Q 119.38 144.66 119.31 143.91
  L 119.08 141.60
  Q 119.01 140.89 118.31 140.95
  Q 113.16 141.41 108.01 141.73
  C 101.78 142.11 94.22 141.48 87.25 142.00
  Q 86.75 142.04 86.48 142.47
  Q 83.61 147.08 79.66 149.90
  C 77.99 151.09 76.21 150.29 74.70 150.11
  Q 67.52 149.23 68.57 141.61
  Q 68.66 141.00 68.04 141.00
  L 65.85 141.00
  Q 65.32 141.00 65.31 141.53
  C 65.16 148.45 63.75 156.88 65.51 163.43
  Q 65.96 165.11 67.70 165.07
  L 81.67 164.71
  A 0.83 0.82 -0.7 0 0 82.48 163.89
  C 82.51 160.54 81.87 155.57 83.22 152.56
  C 86.48 145.25 96.27 146.25 100.96 150.90
  C 104.31 154.22 103.48 159.48 104.04 163.61
  A 1.17 1.17 0.0 0 0 105.20 164.63
  L 118.39 164.73
  Q 119.20 164.74 119.20 163.92
  L 119.20 162.11
  Q 119.20 161.27 118.39 161.48
  Z
  M 79.39 142.65
  Q 79.73 142.48 79.95 142.16
  Q 80.26 141.68 79.69 141.66
  L 74.62 141.44
  Q 74.16 141.42 73.98 141.84
  C 72.68 144.74 77.16 145.83 78.71 143.28
  Q 78.96 142.87 79.39 142.65
  Z
  M 113.75 155.09
  Q 116.19 156.71 119.04 155.64
  Q 119.50 155.47 119.50 154.98
  L 119.50 150.96
  Q 119.50 150.51 119.07 150.39
  Q 115.62 149.42 113.37 151.77
  A 2.18 2.17 38.6 0 0 113.75 155.09
  Z"
/>
<rect x="-2.68" y="-9.51" transform="translate(51.45,73.36) rotate(-0.9)" width="5.36" height="19.02" rx="2.59"/>
<rect x="-2.69" y="-9.50" transform="translate(125.52,73.36) rotate(1.0)" width="5.38" height="19.00" rx="2.58"/>
<rect x="-2.69" y="-9.51" transform="translate(79.45,81.36) rotate(-0.7)" width="5.38" height="19.02" rx="2.59"/>
</g>
<g fill="#759086">
<path d="
  M 46.31 45.59
  C 50.03 53.47 54.96 58.10 62.57 62.13
  Q 63.05 62.39 62.96 62.93
  Q 60.91 75.60 63.96 87.99
  Q 64.06 88.41 63.66 88.55
  C 54.53 91.70 45.93 88.11 41.90 79.67
  Q 40.31 76.34 39.92 70.55
  C 39.26 60.64 38.84 53.15 45.73 45.50
  Q 46.08 45.12 46.31 45.59
  Z
  M 54.0210 66.3988
  A 2.59 2.59 0.0 0 0 51.3906 63.8498
  L 51.2106 63.8526
  A 2.59 2.59 0.0 0 0 48.6616 66.4829
  L 48.8790 80.3212
  A 2.59 2.59 0.0 0 0 51.5094 82.8702
  L 51.6894 82.8674
  A 2.59 2.59 0.0 0 0 54.2384 80.2371
  L 54.0210 66.3988
  Z"
/>
<path d="
  M 111.25 67.90
  A 0.25 0.25 0.0 0 1 111.13 67.67
  L 111.25 63.77
  Q 111.27 63.36 111.65 63.23
  Q 124.84 58.48 130.50 45.59
  Q 130.73 45.07 131.12 45.48
  C 138.19 52.88 137.75 61.23 137.07 71.25
  C 136.22 83.68 127.43 91.88 114.63 89.08
  A 0.89 0.89 0.0 0 1 114.12 87.66
  Q 123.41 75.90 111.25 67.90
  Z
  M 128.3304 66.4880
  A 2.58 2.58 0.0 0 0 125.7958 63.8634
  L 125.5758 63.8595
  A 2.58 2.58 0.0 0 0 122.9512 66.3941
  L 122.7096 80.2320
  A 2.58 2.58 0.0 0 0 125.2442 82.8566
  L 125.4642 82.8605
  A 2.58 2.58 0.0 0 0 128.0888 80.3259
  L 128.3304 66.4880
  Z"
/>
<path d="
  M 106.13 73.31
  C 113.26 70.30 115.65 86.11 102.98 86.03
  C 100.84 86.02 99.85 86.99 99.31 89.12
  C 97.38 96.86 87.07 98.80 80.61 97.07
  C 72.49 94.90 68.50 87.01 67.92 79.05
  C 67.18 68.78 66.95 61.08 73.66 53.54
  Q 74.06 53.09 74.33 53.63
  Q 83.68 72.61 105.17 73.48
  Q 105.67 73.50 106.13 73.31
  Z
  M 82.0553 74.4077
  A 2.59 2.59 0.0 0 0 79.4338 71.8495
  L 79.2338 71.8519
  A 2.59 2.59 0.0 0 0 76.6757 74.4734
  L 76.8447 88.3123
  A 2.59 2.59 0.0 0 0 79.4662 90.8705
  L 79.6662 90.8681
  A 2.59 2.59 0.0 0 0 82.2243 88.2466
  L 82.0553 74.4077
  Z"
/>
<path d="
  M 109.11 104.27
  A 1.41 1.40 -50.8 0 1 108.87 101.89
  L 112.27 99.29
  Q 112.90 98.80 113.18 99.54
  L 115.98 106.82
  Q 116.33 107.75 115.44 107.32
  L 109.11 104.27
  Z"
/>
<path d="
  M 23.41 122.38
  Q 26.13 118.70 30.82 118.83
  Q 31.25 118.84 31.25 119.27
  L 31.25 125.37
  Q 31.25 126.03 30.60 125.89
  L 24.19 124.46
  A 1.33 1.33 0.0 0 1 23.41 122.38
  Z"
/>
<path d="
  M 146.24 118.79
  C 148.95 118.85 152.66 120.05 153.71 122.99
  Q 153.92 123.59 153.36 123.90
  Q 150.12 125.69 146.37 125.66
  Q 145.75 125.65 145.75 125.04
  L 145.75 119.27
  Q 145.75 118.78 146.24 118.79
  Z"
/>
<path d="
  M 52.16 132.42
  A 1.26 1.25 -66.1 0 1 51.41 130.47
  Q 54.08 126.71 58.83 126.84
  Q 59.25 126.85 59.25 127.27
  L 59.25 133.36
  Q 59.25 134.01 58.61 133.87
  L 52.16 132.42
  Z"
/>
<path d="
  M 95.75 134.60
  A 1.24 1.23 7.1 0 1 94.74 133.31
  C 94.98 129.84 101.41 128.13 104.14 127.71
  Q 104.59 127.64 104.80 128.06
  Q 106.98 132.45 103.70 135.49
  Q 103.20 135.95 102.52 135.83
  L 95.75 134.60
  Z"
/>
<path d="
  M 130.92 135.86
  C 128.64 137.91 126.45 136.23 125.25 134.01
  Q 124.97 133.50 125.55 133.50
  L 130.39 133.50
  Q 130.81 133.50 130.92 133.91
  L 131.19 134.97
  Q 131.33 135.50 130.92 135.86
  Z"
/>
<path d="
  M 47.52 136.77
  Q 45.87 136.49 45.73 134.79
  Q 45.63 133.62 46.41 134.50
  L 47.86 136.16
  A 0.37 0.37 0.0 0 1 47.52 136.77
  Z"
/>
<path d="
  M 78.71 143.28
  C 77.16 145.83 72.68 144.74 73.98 141.84
  Q 74.16 141.42 74.62 141.44
  L 79.69 141.66
  Q 80.26 141.68 79.95 142.16
  Q 79.73 142.48 79.39 142.65
  Q 78.96 142.87 78.71 143.28
  Z"
/>
<path d="
  M 113.75 155.09
  A 2.18 2.17 38.6 0 1 113.37 151.77
  Q 115.62 149.42 119.07 150.39
  Q 119.50 150.51 119.50 150.96
  L 119.50 154.98
  Q 119.50 155.47 119.04 155.64
  Q 116.19 156.71 113.75 155.09
  Z"
/>
</g>
<g fill="#6e423f">
<path d="
  M 118.47 95.57
  Q 129.28 96.16 136.09 88.11
  Q 136.53 87.58 136.81 88.21
  Q 138.51 92.05 138.49 96.26
  Q 138.48 96.80 137.95 96.88
  Q 131.45 97.88 128.71 103.79
  Q 128.50 104.25 127.98 104.25
  L 124.25 104.25
  Q 123.70 104.25 123.73 103.70
  C 123.86 101.11 123.25 98.33 120.14 99.41
  Q 119.56 99.61 119.31 99.06
  L 118.02 96.23
  A 0.47 0.47 0.0 0 1 118.47 95.57
  Z"
/>
<path d="
  M 58.81 120.98
  C 58.44 114.59 58.70 107.94 58.56 101.50
  C 58.49 98.03 52.23 98.48 53.39 103.68
  Q 53.50 104.16 53.01 104.18
  L 48.95 104.42
  Q 48.50 104.45 48.33 104.03
  Q 45.78 97.74 39.02 97.03
  Q 38.50 96.98 38.51 96.45
  Q 38.55 92.24 40.11 88.33
  Q 40.38 87.68 40.85 88.20
  Q 49.20 97.35 61.81 95.23
  Q 62.48 95.12 62.26 95.77
  C 59.83 103.04 59.72 112.50 59.41 120.16
  Q 59.39 120.58 59.06 120.83
  Q 58.95 120.91 58.88 121.01
  Q 58.81 121.08 58.81 120.98
  Z"
/>
<path d="
  M 106.71 114.56
  Q 104.28 113.28 102.61 115.56
  Q 102.35 115.90 102.41 116.32
  L 103.04 120.72
  Q 103.12 121.28 102.61 121.55
  C 95.93 125.05 88.15 125.42 89.32 135.59
  Q 89.39 136.20 88.77 136.17
  L 65.93 135.06
  Q 65.33 135.03 65.30 134.43
  L 65.13 129.41
  Q 65.11 128.77 65.73 128.92
  Q 71.71 130.37 75.40 125.68
  Q 75.73 125.25 76.28 125.25
  L 80.75 125.25
  Q 81.44 125.25 81.33 125.93
  C 80.52 131.03 86.77 132.07 86.86 127.63
  Q 86.97 122.71 86.46 110.49
  C 86.25 105.30 80.46 106.74 81.39 111.50
  Q 81.52 112.17 80.84 112.20
  L 77.04 112.37
  Q 76.51 112.40 76.30 111.91
  Q 73.66 105.76 67.02 105.03
  Q 66.53 104.97 66.52 104.48
  Q 66.46 100.22 68.24 96.36
  Q 68.51 95.77 68.94 96.26
  C 79.18 108.01 97.48 105.31 105.02 92.18
  A 2.31 2.31 0.0 0 1 108.25 91.38
  Q 109.55 92.19 109.92 93.65
  Q 110.07 94.22 109.57 94.54
  C 95.42 103.49 106.61 111.52 116.86 113.56
  Q 117.45 113.68 117.51 114.28
  L 118.99 131.67
  A 1.14 1.14 0.0 0 1 118.15 132.87
  L 111.79 134.57
  Q 111.08 134.76 111.16 134.04
  Q 111.81 128.21 108.47 123.62
  Q 108.15 123.18 108.24 122.65
  Q 108.86 118.89 107.40 115.32
  Q 107.19 114.81 106.71 114.56
  Z"
/>
<path d="
  M 37.16 126.41
  L 37.25 121.83
  Q 37.27 120.79 38.29 121.00
  Q 43.99 122.15 47.43 117.66
  Q 47.75 117.25 48.26 117.25
  L 52.77 117.25
  Q 53.34 117.25 53.27 117.82
  Q 53.03 119.60 53.89 121.11
  Q 54.21 121.66 53.61 121.87
  Q 49.30 123.41 46.62 127.09
  Q 46.30 127.53 45.76 127.50
  L 37.72 127.01
  A 0.59 0.59 0.0 0 1 37.16 126.41
  Z"
/>
<path d="
  M 129.64 117.68
  C 131.91 120.85 135.43 121.69 139.22 121.05
  Q 139.74 120.97 139.74 121.49
  L 139.76 125.98
  A 1.10 1.09 -1.6 0 1 138.71 127.08
  L 125.27 127.72
  Q 124.78 127.75 124.74 127.27
  L 123.92 117.95
  Q 123.86 117.25 124.56 117.25
  L 128.81 117.25
  Q 129.34 117.25 129.64 117.68
  Z"
/>
<path d="
  M 37.39 155.66
  C 36.26 148.23 37.96 140.99 37.01 133.62
  Q 36.93 133.00 37.55 133.00
  L 39.98 133.00
  Q 40.65 133.00 40.56 133.67
  Q 39.55 141.28 46.79 142.13
  C 49.27 142.41 50.58 143.18 52.60 141.07
  Q 55.13 138.41 58.86 139.75
  Q 59.56 140.00 58.95 140.41
  C 53.24 144.27 54.32 149.08 54.54 155.12
  A 1.49 1.49 0.0 0 1 53.13 156.67
  C 49.81 156.83 40.51 157.86 37.94 156.44
  Q 37.47 156.19 37.39 155.66
  Z"
/>
<path d="
  M 126.79 142.44
  C 132.17 142.61 138.02 140.48 136.22 133.81
  Q 136.03 133.09 136.78 133.06
  L 139.15 132.98
  Q 139.74 132.96 139.76 133.54
  C 139.99 140.54 141.39 149.73 139.17 156.33
  Q 138.96 156.97 138.29 156.96
  L 126.09 156.87
  Q 125.62 156.87 125.60 156.40
  L 124.96 142.42
  Q 124.93 141.68 125.58 142.03
  L 125.89 142.20
  Q 126.31 142.43 126.79 142.44
  Z"
/>
<path d="
  M 110.85 159.90
  C 113.01 161.64 115.67 162.19 118.39 161.48
  Q 119.20 161.27 119.20 162.11
  L 119.20 163.92
  Q 119.20 164.74 118.39 164.73
  L 105.20 164.63
  A 1.17 1.17 0.0 0 1 104.04 163.61
  C 103.48 159.48 104.31 154.22 100.96 150.90
  C 96.27 146.25 86.48 145.25 83.22 152.56
  C 81.87 155.57 82.51 160.54 82.48 163.89
  A 0.83 0.82 -0.7 0 1 81.67 164.71
  L 67.70 165.07
  Q 65.96 165.11 65.51 163.43
  C 63.75 156.88 65.16 148.45 65.31 141.53
  Q 65.32 141.00 65.85 141.00
  L 68.04 141.00
  Q 68.66 141.00 68.57 141.61
  Q 67.52 149.23 74.70 150.11
  C 76.21 150.29 77.99 151.09 79.66 149.90
  Q 83.61 147.08 86.48 142.47
  Q 86.75 142.04 87.25 142.00
  C 94.22 141.48 101.78 142.11 108.01 141.73
  Q 113.16 141.41 118.31 140.95
  Q 119.01 140.89 119.08 141.60
  L 119.31 143.91
  Q 119.38 144.66 118.63 144.60
  C 109.36 143.87 102.42 153.11 110.85 159.90
  Z"
/>
</g>
<g fill="#ebbc9e">
<path d="
  M 52.73 41.85
  C 58.41 48.24 59.09 34.83 63.32 40.46
  A 0.59 0.59 0.0 0 1 63.40 41.00
  L 59.29 53.02
  Q 59.17 53.39 58.87 53.13
  C 57.61 52.01 48.74 41.75 51.93 41.52
  Q 52.41 41.49 52.73 41.85
  Z"
/>
<path d="
  M 118.32 53.05
  Q 118.25 53.17 118.14 53.25
  Q 117.86 53.46 117.75 53.13
  L 113.72 41.26
  Q 113.56 40.80 113.81 40.39
  C 116.52 35.88 118.56 44.44 122.51 43.37
  Q 122.98 43.24 123.30 42.89
  L 124.29 41.82
  A 0.80 0.80 0.0 0 1 125.61 42.68
  Q 123.11 48.43 118.51 52.79
  Q 118.39 52.90 118.32 53.05
  Z"
/>
<path d="
  M 68.63 45.04
  C 70.11 44.02 73.69 43.85 73.61 46.46
  Q 73.60 47.00 73.15 47.31
  Q 68.03 50.80 65.31 56.35
  Q 64.75 57.49 64.84 56.22
  C 65.04 53.45 66.19 46.72 68.63 45.04
  Z"
/>
<path d="
  M 103.32 46.77
  C 103.61 43.05 107.17 44.38 109.24 45.60
  Q 109.37 45.68 109.43 45.82
  Q 111.66 50.84 112.19 56.31
  Q 112.23 56.77 111.79 56.94
  L 108.04 58.30
  A 0.68 0.68 0.0 0 1 107.13 57.54
  Q 108.26 51.48 103.68 47.63
  Q 103.28 47.29 103.32 46.77
  Z"
/>
<path d="
  M 89.06 47.15
  A 1.71 1.71 0.0 0 1 91.21 48.03
  C 91.72 49.11 88.01 59.01 87.46 61.03
  Q 87.29 61.63 86.84 61.20
  Q 82.00 56.63 79.28 50.50
  Q 79.01 49.89 79.62 49.61
  L 79.85 49.51
  Q 80.40 49.27 80.73 49.76
  Q 82.82 52.83 85.76 50.64
  Q 86.14 50.36 86.31 49.91
  Q 87.04 47.91 89.06 47.15
  Z"
/>
<path d="
  M 104.92 66.33
  C 102.50 68.53 95.40 66.13 93.12 64.94
  Q 92.77 64.75 92.81 64.36
  Q 93.30 59.11 95.42 54.28
  Q 95.63 53.80 96.07 53.52
  C 97.92 52.29 100.98 51.20 101.70 54.46
  Q 101.82 54.96 101.55 55.40
  C 97.92 61.39 104.96 60.72 105.29 65.40
  Q 105.33 65.95 104.92 66.33
  Z"
/>
</g>
<g fill="#f8f8f8">
<path d="
  M 52.87 111.89
  C 48.47 111.52 45.47 111.24 42.30 114.76
  Q 41.98 115.12 41.52 115.27
  Q 38.88 116.15 37.03 114.21
  Q 36.51 113.67 37.09 113.19
  L 39.80 110.98
  Q 40.20 110.66 40.42 110.20
  C 41.91 107.13 35.25 104.92 38.90 102.90
  Q 39.37 102.64 39.86 102.86
  C 42.84 104.17 42.78 106.62 44.77 108.19
  Q 48.23 110.92 52.87 109.55
  Q 53.50 109.36 53.50 110.03
  L 53.50 111.31
  Q 53.50 111.95 52.87 111.89
  Z"
/>
<path d="
  M 124.02 109.73
  C 127.60 109.71 129.54 110.56 132.55 107.90
  C 134.03 106.59 134.20 104.54 136.38 103.21
  C 138.01 102.22 139.24 103.15 138.97 104.98
  Q 138.90 105.48 138.55 105.83
  L 136.55 107.83
  Q 136.17 108.21 136.23 108.74
  Q 136.56 111.45 139.23 112.39
  Q 139.64 112.54 139.79 112.95
  C 141.03 116.57 135.53 115.52 133.82 113.99
  Q 129.72 110.35 124.08 112.15
  Q 123.50 112.34 123.50 111.73
  L 123.50 110.25
  Q 123.50 109.74 124.02 109.73
  Z"
/>
<path d="
  M 70.44 112.83
  C 72.80 117.41 75.78 118.77 80.87 117.52
  Q 81.50 117.37 81.50 118.02
  L 81.50 119.56
  Q 81.50 120.24 80.85 120.05
  Q 74.57 118.25 70.30 122.77
  Q 69.96 123.12 69.50 123.28
  Q 66.87 124.14 65.03 122.21
  Q 64.51 121.67 65.09 121.19
  L 67.80 118.98
  Q 68.20 118.66 68.42 118.20
  C 70.03 114.87 63.56 113.68 66.63 111.04
  Q 67.02 110.70 67.51 110.84
  Q 69.73 111.46 70.44 112.83
  Z"
/>
</g>
</svg>
