<?xml version="1.0" encoding="UTF-8" standalone="no"?>
<!DOCTYPE svg PUBLIC "-//W3C//DTD SVG 1.1//EN" "http://www.w3.org/Graphics/SVG/1.1/DTD/svg11.dtd">
<svg xmlns="http://www.w3.org/2000/svg" version="1.1" viewBox="0 0 180 180">
<g stroke-width="2.00" fill="none" stroke-linecap="butt">
<path stroke="#927a6d" vector-effect="non-scaling-stroke" d="
  M 62.11 36.21
  C 71.58 35.09 86.33 35.53 92.91 43.77
  Q 93.29 44.25 93.69 43.78
  C 100.24 35.89 111.15 33.91 121.37 34.83
  Q 121.82 34.87 121.56 34.49
  C 112.13 20.92 95.19 19.87 80.25 23.34
  Q 68.65 26.03 61.92 35.89
  Q 61.66 36.26 62.11 36.21"
/>
<path stroke="#927a6d" vector-effect="non-scaling-stroke" d="
  M 128.65 49.44
  C 126.72 42.78 120.60 39.43 113.83 40.42
  C 106.65 41.48 94.84 44.74 94.66 54.09
  Q 94.23 77.73 94.66 101.38
  Q 94.67 101.82 95.11 101.81
  C 107.29 101.61 115.74 97.23 123.49 88.29
  C 131.90 78.60 132.03 61.17 128.65 49.44"
/>
<path stroke="#927a6d" vector-effect="non-scaling-stroke" d="
  M 55.64 83.08
  C 61.96 95.30 74.71 102.27 88.45 102.29
  Q 88.96 102.29 88.97 101.78
  C 89.12 84.84 88.58 67.89 89.35 50.97
  C 89.79 41.25 69.90 40.88 63.43 41.72
  C 58.08 42.42 55.39 46.02 54.23 51.24
  C 52.03 61.23 50.86 73.85 55.64 83.08"
/>
<path stroke="#533d3e" vector-effect="non-scaling-stroke" d="
  M 70.09 140.55
  L 69.75 147.17
  Q 69.73 147.65 70.13 147.41
  Q 89.33 135.99 107.83 123.46
  Q 108.27 123.16 107.74 123.17
  L 97.06 123.29
  Q 96.52 123.29 96.07 123.58
  L 70.58 139.71
  Q 70.12 140.00 70.09 140.55"
/>
<path stroke="#533d3e" vector-effect="non-scaling-stroke" d="
  M 70.11 132.47
  Q 69.97 132.69 69.99 132.95
  Q 70.05 133.59 70.55 133.20
  Q 77.29 127.98 84.90 124.18
  Q 86.25 123.50 84.74 123.50
  L 71.00 123.50
  Q 70.25 123.50 70.25 124.25
  L 70.25 131.96
  Q 70.25 132.23 70.11 132.47"
/>
<path stroke="#533d3e" vector-effect="non-scaling-stroke" d="
  M 74.62 151.97
  Q 82.24 152.73 88.91 152.79
  Q 89.34 152.79 89.70 152.54
  L 113.15 135.82
  Q 113.60 135.50 113.56 134.96
  L 112.96 127.56
  A 0.39 0.39 0.0 0 0 112.35 127.28
  Q 94.07 139.97 74.95 151.21
  Q 74.48 151.49 74.54 151.90
  Q 74.55 151.97 74.62 151.97"
/>
<path stroke="#533d3e" vector-effect="non-scaling-stroke" d="
  M 113.43 152.66
  A 0.33 0.33 0.0 0 0 113.76 152.32
  L 113.65 143.16
  A 0.33 0.33 0.0 0 0 113.13 142.89
  L 99.61 152.38
  A 0.33 0.33 0.0 0 0 99.81 152.98
  L 113.43 152.66"
/>
</g>
<g fill="#ebbc9e">
<path d="
  M 92.91 43.77
  C 86.33 35.53 71.58 35.09 62.11 36.21
  Q 61.66 36.26 61.92 35.89
  Q 68.65 26.03 80.25 23.34
  C 95.19 19.87 112.13 20.92 121.56 34.49
  Q 121.82 34.87 121.37 34.83
  C 111.15 33.91 100.24 35.89 93.69 43.78
  Q 93.29 44.25 92.91 43.77
  Z"
/>
<path d="
  M 113.83 40.42
  C 120.60 39.43 126.72 42.78 128.65 49.44
  C 132.03 61.17 131.90 78.60 123.49 88.29
  C 115.74 97.23 107.29 101.61 95.11 101.81
  Q 94.67 101.82 94.66 101.38
  Q 94.23 77.73 94.66 54.09
  C 94.84 44.74 106.65 41.48 113.83 40.42
  Z"
/>
<path d="
  M 88.45 102.29
  C 74.71 102.27 61.96 95.30 55.64 83.08
  C 50.86 73.85 52.03 61.23 54.23 51.24
  C 55.39 46.02 58.08 42.42 63.43 41.72
  C 69.90 40.88 89.79 41.25 89.35 50.97
  C 88.58 67.89 89.12 84.84 88.97 101.78
  Q 88.96 102.29 88.45 102.29
  Z"
/>
</g>
<path fill="#38383c" d="
  M 69.68 156.97
  C 66.18 156.37 64.08 153.91 64.20 150.50
  Q 65.22 121.87 65.00 113.25
  Q 64.87 108.36 62.33 102.36
  C 59.95 96.76 54.88 93.63 52.04 88.23
  C 49.93 84.19 47.73 80.23 47.29 75.63
  C 45.45 56.44 49.27 36.87 65.16 24.35
  C 79.01 13.45 107.30 12.93 120.66 24.71
  Q 126.78 30.10 131.10 39.86
  C 137.86 55.10 138.48 71.40 131.74 87.05
  C 130.18 90.67 124.54 95.09 122.49 98.35
  C 119.63 102.92 118.97 108.30 118.07 113.52
  C 117.52 116.74 118.33 120.27 118.39 122.75
  C 118.65 133.59 120.01 144.49 118.76 155.30
  C 118.47 157.86 116.92 158.64 114.57 158.67
  C 99.75 158.88 84.32 159.50 69.68 156.97
  Z
  M 62.11 36.21
  C 71.58 35.09 86.33 35.53 92.91 43.77
  Q 93.29 44.25 93.69 43.78
  C 100.24 35.89 111.15 33.91 121.37 34.83
  Q 121.82 34.87 121.56 34.49
  C 112.13 20.92 95.19 19.87 80.25 23.34
  Q 68.65 26.03 61.92 35.89
  Q 61.66 36.26 62.11 36.21
  Z
  M 128.65 49.44
  C 126.72 42.78 120.60 39.43 113.83 40.42
  C 106.65 41.48 94.84 44.74 94.66 54.09
  Q 94.23 77.73 94.66 101.38
  Q 94.67 101.82 95.11 101.81
  C 107.29 101.61 115.74 97.23 123.49 88.29
  C 131.90 78.60 132.03 61.17 128.65 49.44
  Z
  M 55.64 83.08
  C 61.96 95.30 74.71 102.27 88.45 102.29
  Q 88.96 102.29 88.97 101.78
  C 89.12 84.84 88.58 67.89 89.35 50.97
  C 89.79 41.25 69.90 40.88 63.43 41.72
  C 58.08 42.42 55.39 46.02 54.23 51.24
  C 52.03 61.23 50.86 73.85 55.64 83.08
  Z
  M 110.91 117.22
  Q 111.13 117.29 111.35 117.27
  Q 111.81 117.21 111.89 116.76
  L 114.28 103.66
  Q 114.36 103.23 113.97 103.43
  C 107.82 106.55 103.00 107.07 95.42 107.84
  Q 94.93 107.89 94.93 108.38
  L 95.01 116.23
  Q 95.02 117.19 95.98 117.27
  Q 103.08 117.81 110.19 117.13
  Q 110.56 117.10 110.91 117.22
  Z
  M 88.80 108.32
  Q 78.36 108.17 68.95 103.55
  Q 68.18 103.18 68.49 103.97
  Q 70.95 110.43 70.74 117.33
  Q 70.73 117.78 71.17 117.78
  L 88.01 117.74
  Q 89.25 117.73 89.25 116.49
  L 89.25 108.77
  A 0.45 0.45 0.0 0 0 88.80 108.32
  Z
  M 70.09 140.55
  L 69.75 147.17
  Q 69.73 147.65 70.13 147.41
  Q 89.33 135.99 107.83 123.46
  Q 108.27 123.16 107.74 123.17
  L 97.06 123.29
  Q 96.52 123.29 96.07 123.58
  L 70.58 139.71
  Q 70.12 140.00 70.09 140.55
  Z
  M 70.11 132.47
  Q 69.97 132.69 69.99 132.95
  Q 70.05 133.59 70.55 133.20
  Q 77.29 127.98 84.90 124.18
  Q 86.25 123.50 84.74 123.50
  L 71.00 123.50
  Q 70.25 123.50 70.25 124.25
  L 70.25 131.96
  Q 70.25 132.23 70.11 132.47
  Z
  M 74.62 151.97
  Q 82.24 152.73 88.91 152.79
  Q 89.34 152.79 89.70 152.54
  L 113.15 135.82
  Q 113.60 135.50 113.56 134.96
  L 112.96 127.56
  A 0.39 0.39 0.0 0 0 112.35 127.28
  Q 94.07 139.97 74.95 151.21
  Q 74.48 151.49 74.54 151.90
  Q 74.55 151.97 74.62 151.97
  Z
  M 113.43 152.66
  A 0.33 0.33 0.0 0 0 113.76 152.32
  L 113.65 143.16
  A 0.33 0.33 0.0 0 0 113.13 142.89
  L 99.61 152.38
  A 0.33 0.33 0.0 0 0 99.81 152.98
  L 113.43 152.66
  Z"
/>
<g fill="#6e423f">
<path d="
  M 69.75 147.17
  L 70.09 140.55
  Q 70.12 140.00 70.58 139.71
  L 96.07 123.58
  Q 96.52 123.29 97.06 123.29
  L 107.74 123.17
  Q 108.27 123.16 107.83 123.46
  Q 89.33 135.99 70.13 147.41
  Q 69.73 147.65 69.75 147.17
  Z"
/>
<path d="
  M 70.25 131.96
  L 70.25 124.25
  Q 70.25 123.50 71.00 123.50
  L 84.74 123.50
  Q 86.25 123.50 84.90 124.18
  Q 77.29 127.98 70.55 133.20
  Q 70.05 133.59 69.99 132.95
  Q 69.97 132.69 70.11 132.47
  Q 70.25 132.23 70.25 131.96
  Z"
/>
<path d="
  M 74.62 151.97
  Q 74.55 151.97 74.54 151.90
  Q 74.48 151.49 74.95 151.21
  Q 94.07 139.97 112.35 127.28
  A 0.39 0.39 0.0 0 1 112.96 127.56
  L 113.56 134.96
  Q 113.60 135.50 113.15 135.82
  L 89.70 152.54
  Q 89.34 152.79 88.91 152.79
  Q 82.24 152.73 74.62 151.97
  Z"
/>
<path d="
  M 113.43 152.66
  L 99.81 152.98
  A 0.33 0.33 0.0 0 1 99.61 152.38
  L 113.13 142.89
  A 0.33 0.33 0.0 0 1 113.65 143.16
  L 113.76 152.32
  A 0.33 0.33 0.0 0 1 113.43 152.66
  Z"
/>
</g>
</svg>
