<?xml version="1.0" encoding="UTF-8" standalone="no"?>
<!DOCTYPE svg PUBLIC "-//W3C//DTD SVG 1.1//EN" "http://www.w3.org/Graphics/SVG/1.1/DTD/svg11.dtd">
<svg xmlns="http://www.w3.org/2000/svg" version="1.1" viewBox="0 0 180 180">
<g stroke-width="2.00" fill="none" stroke-linecap="butt">
<path stroke="#533d3e" vector-effect="non-scaling-stroke" d="
  M 75.65 137.47
  L 78.12 137.57
  A 0.46 0.46 0.0 0 0 78.52 136.85
  Q 73.60 129.48 69.33 121.82
  Q 68.86 120.97 67.91 121.29
  A 1.36 1.34 70.6 0 0 67.08 123.04
  Q 69.86 130.60 74.74 136.99
  Q 75.08 137.44 75.65 137.47"
/>
<path stroke="#533d3e" vector-effect="non-scaling-stroke" d="
  M 132.24 162.32
  C 131.61 157.70 129.16 153.60 124.03 153.58
  Q 123.41 153.58 123.09 153.05
  L 105.65 124.55
  A 1.32 1.32 0.0 0 0 103.63 124.27
  C 101.25 126.45 103.11 128.41 104.64 130.67
  Q 112.23 141.85 119.65 153.23
  Q 119.90 153.63 119.73 154.06
  L 117.62 159.35
  Q 117.43 159.81 117.66 160.27
  Q 119.60 164.23 123.15 166.78
  Q 123.65 167.13 124.25 167.05
  Q 128.79 166.38 131.96 163.18
  Q 132.31 162.82 132.24 162.32"
/>
<path stroke="#533d3e" vector-effect="non-scaling-stroke" d="
  M 75.00 155.25
  Q 64.66 154.73 54.17 154.46
  A 0.48 0.48 0.0 0 0 53.90 155.35
  Q 63.45 161.44 74.87 163.93
  C 81.75 165.43 88.63 167.13 95.49 167.14
  C 97.96 167.14 112.42 166.63 113.56 165.04
  A 0.37 0.37 0.0 0 0 113.28 164.46
  Q 102.19 163.59 91.32 163.86
  C 87.73 163.95 88.03 158.40 92.57 158.27
  Q 101.91 157.99 111.28 158.70
  Q 111.85 158.75 112.08 158.22
  L 113.38 155.11
  Q 113.60 154.58 113.29 154.10
  L 107.30 144.81
  Q 107.01 144.37 106.50 144.35
  L 43.24 142.45
  Q 42.27 142.42 42.78 143.25
  L 45.74 148.05
  Q 46.05 148.54 46.62 148.55
  Q 60.54 148.73 74.45 149.41
  C 79.28 149.65 77.94 155.40 75.00 155.25"
/>
<path stroke="#533d3e" vector-effect="non-scaling-stroke" d="
  M 127.35 148.13
  C 130.74 148.44 131.38 149.73 133.52 151.86
  Q 134.01 152.34 134.43 151.80
  L 138.96 146.09
  A 0.47 0.47 0.0 0 0 138.58 145.33
  L 125.98 145.57
  Q 125.38 145.58 125.68 146.09
  L 126.60 147.66
  Q 126.86 148.09 127.35 148.13"
/>
<path stroke="#533d3e" vector-effect="non-scaling-stroke" d="
  M 88.0473 152.5713
  A 3.68 2.73 2.2 0 0 84.4748 149.7020
  A 3.68 2.73 2.2 0 0 80.6927 152.2887
  A 3.68 2.73 2.2 0 0 84.2652 155.1580
  A 3.68 2.73 2.2 0 0 88.0473 152.5713"
/>
</g>
<g fill="#38383c">
<path d="
  M 67.48 137.48
  A 0.33 0.32 -14.3 0 0 67.78 136.98
  C 65.30 133.13 60.12 124.64 61.93 120.15
  C 63.48 116.29 67.85 113.75 71.67 116.34
  Q 73.42 117.53 75.62 121.26
  Q 80.46 129.44 85.47 137.54
  Q 85.75 138.00 86.29 138.02
  L 102.24 138.46
  Q 102.90 138.48 102.53 137.93
  C 100.36 134.66 97.20 130.58 96.95 126.85
  C 96.52 120.15 105.74 114.49 110.19 121.40
  Q 115.72 129.98 120.88 138.78
  Q 121.14 139.23 121.64 139.32
  C 126.88 140.32 134.13 139.70 143.11 139.50
  C 154.02 139.25 139.43 154.88 137.33 157.14
  Q 136.96 157.55 137.15 158.06
  C 138.47 161.57 138.54 164.67 135.70 167.49
  C 131.25 171.92 124.01 174.87 118.41 170.53
  Q 118.01 170.23 117.52 170.35
  C 91.93 176.67 48.11 170.97 36.36 142.70
  C 35.04 139.52 36.31 137.37 39.68 137.16
  Q 53.66 136.33 67.48 137.48
  Z
  M 75.65 137.47
  L 78.12 137.57
  A 0.46 0.46 0.0 0 0 78.52 136.85
  Q 73.60 129.48 69.33 121.82
  Q 68.86 120.97 67.91 121.29
  A 1.36 1.34 70.6 0 0 67.08 123.04
  Q 69.86 130.60 74.74 136.99
  Q 75.08 137.44 75.65 137.47
  Z
  M 132.24 162.32
  C 131.61 157.70 129.16 153.60 124.03 153.58
  Q 123.41 153.58 123.09 153.05
  L 105.65 124.55
  A 1.32 1.32 0.0 0 0 103.63 124.27
  C 101.25 126.45 103.11 128.41 104.64 130.67
  Q 112.23 141.85 119.65 153.23
  Q 119.90 153.63 119.73 154.06
  L 117.62 159.35
  Q 117.43 159.81 117.66 160.27
  Q 119.60 164.23 123.15 166.78
  Q 123.65 167.13 124.25 167.05
  Q 128.79 166.38 131.96 163.18
  Q 132.31 162.82 132.24 162.32
  Z
  M 75.00 155.25
  Q 64.66 154.73 54.17 154.46
  A 0.48 0.48 0.0 0 0 53.90 155.35
  Q 63.45 161.44 74.87 163.93
  C 81.75 165.43 88.63 167.13 95.49 167.14
  C 97.96 167.14 112.42 166.63 113.56 165.04
  A 0.37 0.37 0.0 0 0 113.28 164.46
  Q 102.19 163.59 91.32 163.86
  C 87.73 163.95 88.03 158.40 92.57 158.27
  Q 101.91 157.99 111.28 158.70
  Q 111.85 158.75 112.08 158.22
  L 113.38 155.11
  Q 113.60 154.58 113.29 154.10
  L 107.30 144.81
  Q 107.01 144.37 106.50 144.35
  L 43.24 142.45
  Q 42.27 142.42 42.78 143.25
  L 45.74 148.05
  Q 46.05 148.54 46.62 148.55
  Q 60.54 148.73 74.45 149.41
  C 79.28 149.65 77.94 155.40 75.00 155.25
  Z
  M 127.35 148.13
  C 130.74 148.44 131.38 149.73 133.52 151.86
  Q 134.01 152.34 134.43 151.80
  L 138.96 146.09
  A 0.47 0.47 0.0 0 0 138.58 145.33
  L 125.98 145.57
  Q 125.38 145.58 125.68 146.09
  L 126.60 147.66
  Q 126.86 148.09 127.35 148.13
  Z"
/>
<ellipse cx="0.00" cy="0.00" transform="translate(84.37,152.43) rotate(2.2)" rx="3.68" ry="2.73"/>
</g>
<g fill="#6e423f">
<path d="
  M 74.74 136.99
  Q 69.86 130.60 67.08 123.04
  A 1.36 1.34 70.6 0 1 67.91 121.29
  Q 68.86 120.97 69.33 121.82
  Q 73.60 129.48 78.52 136.85
  A 0.46 0.46 0.0 0 1 78.12 137.57
  L 75.65 137.47
  Q 75.08 137.44 74.74 136.99
  Z"
/>
<path d="
  M 124.03 153.58
  C 129.16 153.60 131.61 157.70 132.24 162.32
  Q 132.31 162.82 131.96 163.18
  Q 128.79 166.38 124.25 167.05
  Q 123.65 167.13 123.15 166.78
  Q 119.60 164.23 117.66 160.27
  Q 117.43 159.81 117.62 159.35
  L 119.73 154.06
  Q 119.90 153.63 119.65 153.23
  Q 112.23 141.85 104.64 130.67
  C 103.11 128.41 101.25 126.45 103.63 124.27
  A 1.32 1.32 0.0 0 1 105.65 124.55
  L 123.09 153.05
  Q 123.41 153.58 124.03 153.58
  Z"
/>
<path d="
  M 75.00 155.25
  C 77.94 155.40 79.28 149.65 74.45 149.41
  Q 60.54 148.73 46.62 148.55
  Q 46.05 148.54 45.74 148.05
  L 42.78 143.25
  Q 42.27 142.42 43.24 142.45
  L 106.50 144.35
  Q 107.01 144.37 107.30 144.81
  L 113.29 154.10
  Q 113.60 154.58 113.38 155.11
  L 112.08 158.22
  Q 111.85 158.75 111.28 158.70
  Q 101.91 157.99 92.57 158.27
  C 88.03 158.40 87.73 163.95 91.32 163.86
  Q 102.19 163.59 113.28 164.46
  A 0.37 0.37 0.0 0 1 113.56 165.04
  C 112.42 166.63 97.96 167.14 95.49 167.14
  C 88.63 167.13 81.75 165.43 74.87 163.93
  Q 63.45 161.44 53.90 155.35
  A 0.48 0.48 0.0 0 1 54.17 154.46
  Q 64.66 154.73 75.00 155.25
  Z
  M 88.0473 152.5713
  A 3.68 2.73 2.2 0 0 84.4748 149.7020
  A 3.68 2.73 2.2 0 0 80.6927 152.2887
  A 3.68 2.73 2.2 0 0 84.2652 155.1580
  A 3.68 2.73 2.2 0 0 88.0473 152.5713
  Z"
/>
<path d="
  M 133.52 151.86
  C 131.38 149.73 130.74 148.44 127.35 148.13
  Q 126.86 148.09 126.60 147.66
  L 125.68 146.09
  Q 125.38 145.58 125.98 145.57
  L 138.58 145.33
  A 0.47 0.47 0.0 0 1 138.96 146.09
  L 134.43 151.80
  Q 134.01 152.34 133.52 151.86
  Z"
/>
</g>
</svg>
