<?xml version="1.0" encoding="UTF-8" standalone="no"?>
<!DOCTYPE svg PUBLIC "-//W3C//DTD SVG 1.1//EN" "http://www.w3.org/Graphics/SVG/1.1/DTD/svg11.dtd">
<svg xmlns="http://www.w3.org/2000/svg" version="1.1" viewBox="0 0 180 180">
<g stroke-width="2.00" fill="none" stroke-linecap="butt">
<path stroke="#533d3e" vector-effect="non-scaling-stroke" d="
  M 63.36 132.36
  C 61.24 132.70 48.08 134.23 53.45 127.51
  Q 53.81 127.06 54.39 127.03
  L 71.22 126.30
  Q 71.71 126.28 72.11 125.99
  C 75.18 123.71 78.44 120.61 80.94 118.74
  Q 93.49 109.35 105.74 99.58
  C 109.04 96.94 113.69 94.15 117.47 91.11
  Q 118.12 90.58 117.28 90.57
  Q 81.37 89.81 45.52 92.16
  A 0.99 0.99 0.0 0 0 44.59 93.17
  L 44.81 103.26
  Q 44.82 103.65 45.21 103.63
  Q 53.13 103.09 61.08 103.04
  C 66.16 103.00 65.18 108.65 62.24 108.73
  Q 53.86 108.97 46.09 109.46
  Q 44.62 109.56 44.65 111.03
  L 45.44 146.67
  A 0.45 0.44 -19.6 0 0 46.16 147.01
  L 63.75 133.24
  A 0.50 0.50 0.0 0 0 63.36 132.36"
/>
<path stroke="#927a6d" vector-effect="non-scaling-stroke" d="
  M 46.34 166.04
  L 58.34 166.36
  Q 58.76 166.38 59.07 166.09
  Q 68.19 157.88 77.26 149.64
  C 81.21 146.05 85.82 142.65 90.06 139.08
  C 105.14 126.36 121.24 114.60 136.83 102.44
  A 1.53 1.53 0.0 0 0 137.42 101.10
  L 136.54 91.61
  Q 136.48 91.00 135.87 91.00
  L 128.17 91.00
  Q 127.61 91.00 127.15 91.32
  C 112.27 101.73 102.18 110.00 89.69 119.44
  C 74.88 130.63 61.12 143.22 45.85 154.14
  Q 45.40 154.46 45.43 155.01
  L 46.01 165.72
  A 0.34 0.34 0.0 0 0 46.34 166.04"
/>
<path stroke="#533d3e" vector-effect="non-scaling-stroke" d="
  M 103.07 157.22
  C 94.77 157.33 86.46 156.87 78.17 157.37
  Q 77.63 157.40 77.21 157.75
  L 67.80 165.75
  Q 67.32 166.16 67.95 166.15
  C 90.60 165.78 113.45 167.95 136.02 166.45
  A 0.80 0.79 -1.2 0 0 136.76 165.68
  L 137.01 157.98
  A 0.38 0.38 0.0 0 0 136.65 157.59
  C 131.95 157.38 127.00 157.01 122.36 157.39
  C 118.03 157.74 117.69 151.49 122.77 151.49
  Q 129.58 151.49 136.60 151.58
  Q 137.18 151.58 137.19 151.00
  L 137.52 110.22
  Q 137.53 109.31 136.81 109.86
  L 113.13 128.16
  Q 112.47 128.67 113.31 128.70
  Q 118.78 128.88 124.25 128.71
  C 127.47 128.61 128.35 134.51 123.66 134.50
  Q 114.37 134.48 104.89 134.78
  Q 104.31 134.79 103.87 135.16
  L 84.65 150.89
  Q 84.28 151.20 84.76 151.20
  Q 93.96 151.33 103.14 151.56
  C 107.00 151.65 106.66 157.17 103.07 157.22"
/>
<path stroke="#533d3e" vector-effect="non-scaling-stroke" d="
  M 85.8851 105.0960
  A 2.68 2.68 0.0 0 0 83.1450 102.4775
  L 74.9271 102.6640
  A 2.68 2.68 0.0 0 0 72.3086 105.4041
  L 72.3149 105.6840
  A 2.68 2.68 0.0 0 0 75.0550 108.3025
  L 83.2729 108.1160
  A 2.68 2.68 0.0 0 0 85.8914 105.3759
  L 85.8851 105.0960"
/>
</g>
<g fill="#6e423f">
<path d="
  M 53.45 127.51
  C 48.08 134.23 61.24 132.70 63.36 132.36
  A 0.50 0.50 0.0 0 1 63.75 133.24
  L 46.16 147.01
  A 0.45 0.44 -19.6 0 1 45.44 146.67
  L 44.65 111.03
  Q 44.62 109.56 46.09 109.46
  Q 53.86 108.97 62.24 108.73
  C 65.18 108.65 66.16 103.00 61.08 103.04
  Q 53.13 103.09 45.21 103.63
  Q 44.82 103.65 44.81 103.26
  L 44.59 93.17
  A 0.99 0.99 0.0 0 1 45.52 92.16
  Q 81.37 89.81 117.28 90.57
  Q 118.12 90.58 117.47 91.11
  C 113.69 94.15 109.04 96.94 105.74 99.58
  Q 93.49 109.35 80.94 118.74
  C 78.44 120.61 75.18 123.71 72.11 125.99
  Q 71.71 126.28 71.22 126.30
  L 54.39 127.03
  Q 53.81 127.06 53.45 127.51
  Z
  M 85.8851 105.0960
  A 2.68 2.68 0.0 0 0 83.1450 102.4775
  L 74.9271 102.6640
  A 2.68 2.68 0.0 0 0 72.3086 105.4041
  L 72.3149 105.6840
  A 2.68 2.68 0.0 0 0 75.0550 108.3025
  L 83.2729 108.1160
  A 2.68 2.68 0.0 0 0 85.8914 105.3759
  L 85.8851 105.0960
  Z"
/>
<path d="
  M 78.17 157.37
  C 86.46 156.87 94.77 157.33 103.07 157.22
  C 106.66 157.17 107.00 151.65 103.14 151.56
  Q 93.96 151.33 84.76 151.20
  Q 84.28 151.20 84.65 150.89
  L 103.87 135.16
  Q 104.31 134.79 104.89 134.78
  Q 114.37 134.48 123.66 134.50
  C 128.35 134.51 127.47 128.61 124.25 128.71
  Q 118.78 128.88 113.31 128.70
  Q 112.47 128.67 113.13 128.16
  L 136.81 109.86
  Q 137.53 109.31 137.52 110.22
  L 137.19 151.00
  Q 137.18 151.58 136.60 151.58
  Q 129.58 151.49 122.77 151.49
  C 117.69 151.49 118.03 157.74 122.36 157.39
  C 127.00 157.01 131.95 157.38 136.65 157.59
  A 0.38 0.38 0.0 0 1 137.01 157.98
  L 136.76 165.68
  A 0.80 0.79 -1.2 0 1 136.02 166.45
  C 113.45 167.95 90.60 165.78 67.95 166.15
  Q 67.32 166.16 67.80 165.75
  L 77.21 157.75
  Q 77.63 157.40 78.17 157.37
  Z"
/>
</g>
<path fill="#ebbc9e" d="
  M 46.34 166.04
  A 0.34 0.34 0.0 0 1 46.01 165.72
  L 45.43 155.01
  Q 45.40 154.46 45.85 154.14
  C 61.12 143.22 74.88 130.63 89.69 119.44
  C 102.18 110.00 112.27 101.73 127.15 91.32
  Q 127.61 91.00 128.17 91.00
  L 135.87 91.00
  Q 136.48 91.00 136.54 91.61
  L 137.42 101.10
  A 1.53 1.53 0.0 0 1 136.83 102.44
  C 121.24 114.60 105.14 126.36 90.06 139.08
  C 85.82 142.65 81.21 146.05 77.26 149.64
  Q 68.19 157.88 59.07 166.09
  Q 58.76 166.38 58.34 166.36
  L 46.34 166.04
  Z"
/>
<g fill="#38383c">
<path d="
  M 140.36 85.43
  A 2.09 2.09 0.0 0 1 142.16 87.34
  C 144.24 114.04 142.91 141.26 142.86 168.16
  C 142.85 171.67 141.70 172.73 138.24 172.74
  Q 122.16 172.79 106.06 172.75
  C 100.86 172.74 94.61 171.97 88.84 172.04
  C 81.93 172.13 74.27 171.67 66.44 172.18
  Q 58.08 172.73 44.89 171.66
  C 42.86 171.49 41.80 170.68 40.66 169.15
  Q 40.37 168.77 40.36 168.30
  Q 38.41 120.36 39.09 89.50
  C 39.15 86.41 48.94 86.15 51.08 86.03
  Q 90.76 83.77 130.50 84.63
  Q 135.41 84.73 140.36 85.43
  Z
  M 63.36 132.36
  C 61.24 132.70 48.08 134.23 53.45 127.51
  Q 53.81 127.06 54.39 127.03
  L 71.22 126.30
  Q 71.71 126.28 72.11 125.99
  C 75.18 123.71 78.44 120.61 80.94 118.74
  Q 93.49 109.35 105.74 99.58
  C 109.04 96.94 113.69 94.15 117.47 91.11
  Q 118.12 90.58 117.28 90.57
  Q 81.37 89.81 45.52 92.16
  A 0.99 0.99 0.0 0 0 44.59 93.17
  L 44.81 103.26
  Q 44.82 103.65 45.21 103.63
  Q 53.13 103.09 61.08 103.04
  C 66.16 103.00 65.18 108.65 62.24 108.73
  Q 53.86 108.97 46.09 109.46
  Q 44.62 109.56 44.65 111.03
  L 45.44 146.67
  A 0.45 0.44 -19.6 0 0 46.16 147.01
  L 63.75 133.24
  A 0.50 0.50 0.0 0 0 63.36 132.36
  Z
  M 46.34 166.04
  L 58.34 166.36
  Q 58.76 166.38 59.07 166.09
  Q 68.19 157.88 77.26 149.64
  C 81.21 146.05 85.82 142.65 90.06 139.08
  C 105.14 126.36 121.24 114.60 136.83 102.44
  A 1.53 1.53 0.0 0 0 137.42 101.10
  L 136.54 91.61
  Q 136.48 91.00 135.87 91.00
  L 128.17 91.00
  Q 127.61 91.00 127.15 91.32
  C 112.27 101.73 102.18 110.00 89.69 119.44
  C 74.88 130.63 61.12 143.22 45.85 154.14
  Q 45.40 154.46 45.43 155.01
  L 46.01 165.72
  A 0.34 0.34 0.0 0 0 46.34 166.04
  Z
  M 103.07 157.22
  C 94.77 157.33 86.46 156.87 78.17 157.37
  Q 77.63 157.40 77.21 157.75
  L 67.80 165.75
  Q 67.32 166.16 67.95 166.15
  C 90.60 165.78 113.45 167.95 136.02 166.45
  A 0.80 0.79 -1.2 0 0 136.76 165.68
  L 137.01 157.98
  A 0.38 0.38 0.0 0 0 136.65 157.59
  C 131.95 157.38 127.00 157.01 122.36 157.39
  C 118.03 157.74 117.69 151.49 122.77 151.49
  Q 129.58 151.49 136.60 151.58
  Q 137.18 151.58 137.19 151.00
  L 137.52 110.22
  Q 137.53 109.31 136.81 109.86
  L 113.13 128.16
  Q 112.47 128.67 113.31 128.70
  Q 118.78 128.88 124.25 128.71
  C 127.47 128.61 128.35 134.51 123.66 134.50
  Q 114.37 134.48 104.89 134.78
  Q 104.31 134.79 103.87 135.16
  L 84.65 150.89
  Q 84.28 151.20 84.76 151.20
  Q 93.96 151.33 103.14 151.56
  C 107.00 151.65 106.66 157.17 103.07 157.22
  Z"
/>
<rect x="-6.79" y="-2.82" transform="translate(79.10,105.39) rotate(-1.3)" width="13.58" height="5.64" rx="2.68"/>
</g>
</svg>
