<?xml version="1.0" encoding="UTF-8" standalone="no"?>
<!DOCTYPE svg PUBLIC "-//W3C//DTD SVG 1.1//EN" "http://www.w3.org/Graphics/SVG/1.1/DTD/svg11.dtd">
<svg xmlns="http://www.w3.org/2000/svg" version="1.1" viewBox="0 0 180 180">
<g stroke-width="2.00" fill="none" stroke-linecap="butt">
<path stroke="#533d3e" vector-effect="non-scaling-stroke" d="
  M 99.39 75.18
  C 83.23 75.34 67.26 75.23 51.19 76.07
  C 42.26 76.54 33.09 77.87 24.00 79.04
  Q 23.42 79.11 23.33 79.69
  Q 23.12 81.09 24.08 82.21
  Q 24.39 82.57 24.85 82.48
  C 26.58 82.13 28.08 81.27 29.76 81.12
  C 67.69 77.64 108.78 80.10 149.80 79.45
  C 152.42 79.40 154.99 79.90 157.59 80.29
  Q 158.25 80.39 158.25 79.73
  L 158.25 79.29
  Q 158.25 78.84 157.82 78.69
  Q 152.21 76.68 146.24 76.31
  Q 133.61 75.52 120.96 75.63
  C 114.03 75.70 106.61 75.11 99.39 75.18"
/>
<path stroke="#533d3e" vector-effect="non-scaling-stroke" d="
  M 114.22 85.49
  Q 77.71 84.59 40.01 85.93
  Q 38.72 85.97 38.72 87.26
  Q 38.69 115.71 39.50 144.75
  Q 39.56 146.94 39.85 149.10
  Q 39.92 149.65 40.47 149.70
  L 44.21 150.06
  Q 44.76 150.11 44.83 149.56
  C 46.28 137.79 55.56 131.41 67.01 133.70
  C 70.29 134.35 73.07 136.28 75.86 138.22
  Q 76.48 138.65 76.48 137.90
  C 76.45 132.28 77.29 126.86 77.04 121.37
  Q 76.52 109.86 76.79 98.32
  C 76.86 95.66 78.28 94.53 80.81 94.56
  Q 93.37 94.73 105.93 94.89
  Q 109.11 94.93 109.25 97.25
  Q 110.47 117.37 111.03 137.70
  A 0.49 0.49 0.0 0 0 111.82 138.08
  C 123.43 129.32 138.97 134.32 141.36 149.17
  Q 141.46 149.75 142.04 149.75
  L 144.41 149.75
  Q 145.02 149.75 144.95 149.15
  C 144.55 145.78 145.31 142.29 145.28 139.42
  C 145.09 123.14 143.96 107.05 143.70 85.92
  Q 143.69 85.39 143.16 85.40
  C 133.48 85.60 124.38 85.73 114.22 85.49"
/>
<path stroke="#533d3e" vector-effect="non-scaling-stroke" d="
  M 104.21 100.82
  A 0.30 0.30 0.0 0 0 103.91 100.53
  L 82.25 100.45
  A 0.30 0.30 0.0 0 0 81.95 100.76
  L 82.63 129.39
  A 0.30 0.30 0.0 0 0 82.93 129.69
  L 104.88 130.13
  A 0.30 0.30 0.0 0 0 105.19 129.82
  L 104.21 100.82"
/>
<path stroke="#533d3e" vector-effect="non-scaling-stroke" d="
  M 105.3528 136.5409
  A 0.72 0.72 0.0 0 0 104.6404 135.8134
  L 83.0015 135.5868
  A 0.72 0.72 0.0 0 0 82.2740 136.2992
  L 82.2472 138.8591
  A 0.72 0.72 0.0 0 0 82.9596 139.5866
  L 104.5985 139.8132
  A 0.72 0.72 0.0 0 0 105.3260 139.1008
  L 105.3528 136.5409"
/>
<path stroke="#533d3e" vector-effect="non-scaling-stroke" d="
  M 76.65 151.51
  C 76.52 144.93 71.01 140.85 65.21 139.31
  C 55.37 136.70 49.38 145.64 50.72 154.87
  C 51.93 163.23 64.10 167.75 70.96 164.26
  C 75.52 161.94 76.75 156.84 76.65 151.51"
/>
<path stroke="#533d3e" vector-effect="non-scaling-stroke" d="
  M 130.81 141.44
  Q 125.79 138.26 120.32 139.95
  C 103.26 145.22 113.61 173.29 129.51 166.09
  C 137.52 162.46 137.82 145.88 130.81 141.44"
/>
<path stroke="#533d3e" vector-effect="non-scaling-stroke" d="
  M 105.3902 145.9695
  A 0.27 0.27 0.0 0 0 105.1244 145.6953
  L 82.8472 145.3453
  A 0.27 0.27 0.0 0 0 82.5730 145.6110
  L 82.5098 149.6305
  A 0.27 0.27 0.0 0 0 82.7756 149.9047
  L 105.0528 150.2547
  A 0.27 0.27 0.0 0 0 105.3270 149.9890
  L 105.3902 145.9695"
/>
<path stroke="#533d3e" vector-effect="non-scaling-stroke" d="
  M 70.61 96.43
  C 64.88 94.76 55.35 95.61 49.14 95.49
  C 46.11 95.44 43.53 96.45 43.36 99.69
  Q 43.03 105.77 43.42 122.43
  Q 43.49 125.55 46.25 125.98
  Q 56.92 127.66 69.75 126.93
  C 73.29 126.72 73.39 123.19 73.26 120.25
  C 72.94 113.50 73.70 103.57 71.57 97.34
  Q 71.33 96.64 70.61 96.43"
/>
<path stroke="#533d3e" vector-effect="non-scaling-stroke" d="
  M 137.06 96.71
  C 129.57 97.46 121.86 96.53 114.29 96.82
  A 1.64 1.64 0.0 0 0 112.71 98.49
  Q 112.87 108.65 113.07 118.73
  C 113.15 122.65 112.99 126.11 117.24 126.72
  Q 123.21 127.59 134.89 127.13
  C 140.84 126.90 142.43 125.97 142.41 119.57
  Q 142.37 110.03 141.93 100.50
  C 141.77 96.90 140.51 96.36 137.06 96.71"
/>
<path stroke="#533d3e" vector-effect="non-scaling-stroke" d="
  M 48.64 120.31
  A 0.69 0.69 0.0 0 0 49.31 120.99
  L 67.03 121.46
  A 0.69 0.69 0.0 0 0 67.74 120.75
  L 67.22 102.28
  A 0.69 0.69 0.0 0 0 66.54 101.61
  L 49.09 101.30
  A 0.69 0.69 0.0 0 0 48.39 102.00
  L 48.64 120.31"
/>
<path stroke="#533d3e" vector-effect="non-scaling-stroke" d="
  M 136.30 103.59
  A 0.79 0.79 0.0 0 0 135.52 102.83
  L 119.10 102.50
  A 0.79 0.79 0.0 0 0 118.30 103.29
  L 118.48 120.51
  A 0.79 0.79 0.0 0 0 119.26 121.29
  L 136.13 121.56
  A 0.79 0.79 0.0 0 0 136.93 120.74
  L 136.30 103.59"
/>
<path stroke="#533d3e" vector-effect="non-scaling-stroke" d="
  M 100.4268 106.5187
  A 2.33 2.33 0.0 0 0 97.9935 104.2967
  L 97.6139 104.3140
  A 2.33 2.33 0.0 0 0 95.3919 106.7473
  L 95.6532 112.5013
  A 2.33 2.33 0.0 0 0 98.0865 114.7233
  L 98.4661 114.7060
  A 2.33 2.33 0.0 0 0 100.6881 112.2727
  L 100.4268 106.5187"
/>
<path stroke="#533d3e" vector-effect="non-scaling-stroke" d="
  M 89.30 104.62
  C 86.27 103.90 85.61 105.90 85.81 108.44
  Q 86.47 116.67 86.21 124.99
  A 1.79 1.76 -76.2 0 0 87.19 126.63
  C 89.76 127.92 91.36 126.73 91.48 123.98
  Q 91.87 114.91 90.51 105.92
  A 1.58 1.57 2.2 0 0 89.30 104.62"
/>
<path stroke="#533d3e" vector-effect="non-scaling-stroke" d="
  M 100.7771 120.3687
  A 2.34 2.34 0.0 0 0 98.4453 118.0206
  L 98.1453 118.0195
  A 2.34 2.34 0.0 0 0 95.7971 120.3513
  L 95.7829 124.4113
  A 2.34 2.34 0.0 0 0 98.1147 126.7594
  L 98.4147 126.7605
  A 2.34 2.34 0.0 0 0 100.7629 124.4287
  L 100.7771 120.3687"
/>
<path stroke="#533d3e" vector-effect="non-scaling-stroke" d="
  M 60.1530 104.6367
  A 2.57 2.57 0.0 0 0 56.5390 104.2505
  L 56.2588 104.4766
  A 2.57 2.57 0.0 0 0 55.8726 108.0905
  L 61.0470 114.5033
  A 2.57 2.57 0.0 0 0 64.6610 114.8895
  L 64.9412 114.6634
  A 2.57 2.57 0.0 0 0 65.3274 111.0495
  L 60.1530 104.6367"
/>
<path stroke="#533d3e" vector-effect="non-scaling-stroke" d="
  M 54.9349 110.5679
  A 2.39 2.39 0.0 0 0 51.5616 110.3556
  L 51.2466 110.6334
  A 2.39 2.39 0.0 0 0 51.0343 114.0067
  L 53.8251 117.1721
  A 2.39 2.39 0.0 0 0 57.1984 117.3844
  L 57.5134 117.1066
  A 2.39 2.39 0.0 0 0 57.7257 113.7333
  L 54.9349 110.5679"
/>
<path stroke="#533d3e" vector-effect="non-scaling-stroke" d="
  M 128.9736 108.8757
  A 2.45 2.45 0.0 0 0 128.5333 105.4389
  L 128.2643 105.2310
  A 2.45 2.45 0.0 0 0 124.8276 105.6713
  L 119.8864 112.0643
  A 2.45 2.45 0.0 0 0 120.3267 115.5011
  L 120.5957 115.7090
  A 2.45 2.45 0.0 0 0 124.0324 115.2687
  L 128.9736 108.8757"
/>
<path stroke="#533d3e" vector-effect="non-scaling-stroke" d="
  M 130.63 118.45
  C 138.24 113.22 131.41 106.11 127.24 115.85
  Q 127.05 116.30 127.21 116.76
  Q 127.84 118.54 129.79 118.68
  Q 130.25 118.71 130.63 118.45"
/>
<path stroke="#533d3e" vector-effect="non-scaling-stroke" d="
  M 54.7344 151.7334
  A 4.68 2.69 130.6 0 0 59.8224 149.9306
  A 4.68 2.69 130.6 0 0 60.8256 144.6266
  A 4.68 2.69 130.6 0 0 55.7376 146.4294
  A 4.68 2.69 130.6 0 0 54.7344 151.7334"
/>
<path stroke="#533d3e" vector-effect="non-scaling-stroke" d="
  M 71.1503 148.7524
  A 2.41 2.41 0.0 0 0 70.9957 145.3477
  L 70.7003 145.0780
  A 2.41 2.41 0.0 0 0 67.2955 145.2326
  L 57.9497 155.4676
  A 2.41 2.41 0.0 0 0 58.1043 158.8723
  L 58.3997 159.1420
  A 2.41 2.41 0.0 0 0 61.8045 158.9874
  L 71.1503 148.7524"
/>
<path stroke="#533d3e" vector-effect="non-scaling-stroke" d="
  M 72.4321 158.5788
  A 2.37 2.37 0.0 0 0 72.1108 155.2425
  L 71.8794 155.0517
  A 2.37 2.37 0.0 0 0 68.5431 155.3730
  L 65.9479 158.5212
  A 2.37 2.37 0.0 0 0 66.2692 161.8575
  L 66.5006 162.0483
  A 2.37 2.37 0.0 0 0 69.8369 161.7270
  L 72.4321 158.5788"
/>
<path stroke="#533d3e" vector-effect="non-scaling-stroke" d="
  M 130.93 152.85
  C 136.42 151.31 127.64 141.77 125.73 146.83
  C 124.80 149.28 128.15 151.94 130.06 152.79
  Q 130.48 152.98 130.93 152.85"
/>
<path stroke="#533d3e" vector-effect="non-scaling-stroke" d="
  M 122.2185 147.4275
  A 2.52 2.52 0.0 0 0 118.6683 147.1169
  L 118.3772 147.3612
  A 2.52 2.52 0.0 0 0 118.0666 150.9114
  L 125.9215 160.2725
  A 2.52 2.52 0.0 0 0 129.4717 160.5831
  L 129.7628 160.3388
  A 2.52 2.52 0.0 0 0 130.0734 156.7886
  L 122.2185 147.4275"
/>
<path stroke="#533d3e" vector-effect="non-scaling-stroke" d="
  M 119.2395 155.6822
  A 2.30 2.30 0.0 0 0 115.9868 155.6765
  L 115.8168 155.8459
  A 2.30 2.30 0.0 0 0 115.8111 159.0986
  L 118.6205 161.9178
  A 2.30 2.30 0.0 0 0 121.8732 161.9235
  L 122.0432 161.7541
  A 2.30 2.30 0.0 0 0 122.0489 158.5014
  L 119.2395 155.6822"
/>
</g>
<g fill="#38383c">
<path d="
  M 32.90 86.55
  C 30.68 87.00 22.63 88.90 20.95 87.71
  C 18.39 85.90 14.95 76.17 19.64 74.70
  C 25.64 72.83 31.38 72.47 37.54 71.53
  Q 43.09 70.69 48.91 70.48
  C 55.06 70.27 61.48 69.62 67.28 69.55
  C 87.29 69.30 107.47 70.27 127.42 69.65
  C 130.94 69.54 134.50 70.33 137.85 70.20
  C 144.88 69.93 161.44 70.62 165.09 77.47
  Q 165.32 77.90 165.16 78.37
  C 163.96 81.90 162.27 87.59 157.62 86.22
  Q 153.60 85.03 149.72 85.47
  Q 148.93 85.55 148.96 86.34
  C 149.75 108.36 151.10 128.71 150.17 151.75
  C 149.97 156.57 145.55 155.43 142.17 155.77
  Q 141.64 155.82 141.49 156.32
  C 140.58 159.34 139.87 163.22 138.27 165.67
  C 133.37 173.11 124.23 174.95 116.48 170.83
  Q 108.54 166.60 106.18 156.83
  Q 106.05 156.29 105.50 156.28
  L 82.74 155.62
  Q 82.23 155.60 82.17 156.11
  C 80.87 166.91 72.53 172.77 62.02 171.09
  C 54.89 169.95 46.48 164.29 45.19 156.38
  Q 45.11 155.89 44.61 155.83
  C 42.45 155.57 40.68 155.47 38.42 155.61
  C 34.21 155.87 34.14 148.20 34.25 144.69
  C 34.31 143.03 33.60 141.91 33.57 140.37
  Q 33.16 113.71 33.50 87.04
  Q 33.51 86.43 32.90 86.55
  Z
  M 99.39 75.18
  C 83.23 75.34 67.26 75.23 51.19 76.07
  C 42.26 76.54 33.09 77.87 24.00 79.04
  Q 23.42 79.11 23.33 79.69
  Q 23.12 81.09 24.08 82.21
  Q 24.39 82.57 24.85 82.48
  C 26.58 82.13 28.08 81.27 29.76 81.12
  C 67.69 77.64 108.78 80.10 149.80 79.45
  C 152.42 79.40 154.99 79.90 157.59 80.29
  Q 158.25 80.39 158.25 79.73
  L 158.25 79.29
  Q 158.25 78.84 157.82 78.69
  Q 152.21 76.68 146.24 76.31
  Q 133.61 75.52 120.96 75.63
  C 114.03 75.70 106.61 75.11 99.39 75.18
  Z
  M 114.22 85.49
  Q 77.71 84.59 40.01 85.93
  Q 38.72 85.97 38.72 87.26
  Q 38.69 115.71 39.50 144.75
  Q 39.56 146.94 39.85 149.10
  Q 39.92 149.65 40.47 149.70
  L 44.21 150.06
  Q 44.76 150.11 44.83 149.56
  C 46.28 137.79 55.56 131.41 67.01 133.70
  C 70.29 134.35 73.07 136.28 75.86 138.22
  Q 76.48 138.65 76.48 137.90
  C 76.45 132.28 77.29 126.86 77.04 121.37
  Q 76.52 109.86 76.79 98.32
  C 76.86 95.66 78.28 94.53 80.81 94.56
  Q 93.37 94.73 105.93 94.89
  Q 109.11 94.93 109.25 97.25
  Q 110.47 117.37 111.03 137.70
  A 0.49 0.49 0.0 0 0 111.82 138.08
  C 123.43 129.32 138.97 134.32 141.36 149.17
  Q 141.46 149.75 142.04 149.75
  L 144.41 149.75
  Q 145.02 149.75 144.95 149.15
  C 144.55 145.78 145.31 142.29 145.28 139.42
  C 145.09 123.14 143.96 107.05 143.70 85.92
  Q 143.69 85.39 143.16 85.40
  C 133.48 85.60 124.38 85.73 114.22 85.49
  Z
  M 104.21 100.82
  A 0.30 0.30 0.0 0 0 103.91 100.53
  L 82.25 100.45
  A 0.30 0.30 0.0 0 0 81.95 100.76
  L 82.63 129.39
  A 0.30 0.30 0.0 0 0 82.93 129.69
  L 104.88 130.13
  A 0.30 0.30 0.0 0 0 105.19 129.82
  L 104.21 100.82
  Z
  M 105.3528 136.5409
  A 0.72 0.72 0.0 0 0 104.6404 135.8134
  L 83.0015 135.5868
  A 0.72 0.72 0.0 0 0 82.2740 136.2992
  L 82.2472 138.8591
  A 0.72 0.72 0.0 0 0 82.9596 139.5866
  L 104.5985 139.8132
  A 0.72 0.72 0.0 0 0 105.3260 139.1008
  L 105.3528 136.5409
  Z
  M 76.65 151.51
  C 76.52 144.93 71.01 140.85 65.21 139.31
  C 55.37 136.70 49.38 145.64 50.72 154.87
  C 51.93 163.23 64.10 167.75 70.96 164.26
  C 75.52 161.94 76.75 156.84 76.65 151.51
  Z
  M 130.81 141.44
  Q 125.79 138.26 120.32 139.95
  C 103.26 145.22 113.61 173.29 129.51 166.09
  C 137.52 162.46 137.82 145.88 130.81 141.44
  Z
  M 105.3902 145.9695
  A 0.27 0.27 0.0 0 0 105.1244 145.6953
  L 82.8472 145.3453
  A 0.27 0.27 0.0 0 0 82.5730 145.6110
  L 82.5098 149.6305
  A 0.27 0.27 0.0 0 0 82.7756 149.9047
  L 105.0528 150.2547
  A 0.27 0.27 0.0 0 0 105.3270 149.9890
  L 105.3902 145.9695
  Z"
/>
<path d="
  M 70.61 96.43
  Q 71.33 96.64 71.57 97.34
  C 73.70 103.57 72.94 113.50 73.26 120.25
  C 73.39 123.19 73.29 126.72 69.75 126.93
  Q 56.92 127.66 46.25 125.98
  Q 43.49 125.55 43.42 122.43
  Q 43.03 105.77 43.36 99.69
  C 43.53 96.45 46.11 95.44 49.14 95.49
  C 55.35 95.61 64.88 94.76 70.61 96.43
  Z
  M 48.64 120.31
  A 0.69 0.69 0.0 0 0 49.31 120.99
  L 67.03 121.46
  A 0.69 0.69 0.0 0 0 67.74 120.75
  L 67.22 102.28
  A 0.69 0.69 0.0 0 0 66.54 101.61
  L 49.09 101.30
  A 0.69 0.69 0.0 0 0 48.39 102.00
  L 48.64 120.31
  Z"
/>
<path d="
  M 114.29 96.82
  C 121.86 96.53 129.57 97.46 137.06 96.71
  C 140.51 96.36 141.77 96.90 141.93 100.50
  Q 142.37 110.03 142.41 119.57
  C 142.43 125.97 140.84 126.90 134.89 127.13
  Q 123.21 127.59 117.24 126.72
  C 112.99 126.11 113.15 122.65 113.07 118.73
  Q 112.87 108.65 112.71 98.49
  A 1.64 1.64 0.0 0 1 114.29 96.82
  Z
  M 136.30 103.59
  A 0.79 0.79 0.0 0 0 135.52 102.83
  L 119.10 102.50
  A 0.79 0.79 0.0 0 0 118.30 103.29
  L 118.48 120.51
  A 0.79 0.79 0.0 0 0 119.26 121.29
  L 136.13 121.56
  A 0.79 0.79 0.0 0 0 136.93 120.74
  L 136.30 103.59
  Z"
/>
<rect x="-2.75" y="-6.69" transform="translate(60.60,109.57) rotate(-38.9)" width="5.50" height="13.38" rx="2.57"/>
<rect x="-2.52" y="-5.21" transform="translate(98.04,109.51) rotate(-2.6)" width="5.04" height="10.42" rx="2.33"/>
<path d="
  M 89.30 104.62
  A 1.58 1.57 2.2 0 1 90.51 105.92
  Q 91.87 114.91 91.48 123.98
  C 91.36 126.73 89.76 127.92 87.19 126.63
  A 1.79 1.76 -76.2 0 1 86.21 124.99
  Q 86.47 116.67 85.81 108.44
  C 85.61 105.90 86.27 103.90 89.30 104.62
  Z"
/>
<rect x="-2.62" y="-6.49" transform="translate(124.43,110.47) rotate(37.7)" width="5.24" height="12.98" rx="2.45"/>
<rect x="-2.60" y="-4.50" transform="translate(54.38,113.87) rotate(-41.4)" width="5.20" height="9.00" rx="2.39"/>
<path d="
  M 127.24 115.85
  C 131.41 106.11 138.24 113.22 130.63 118.45
  Q 130.25 118.71 129.79 118.68
  Q 127.84 118.54 127.21 116.76
  Q 127.05 116.30 127.24 115.85
  Z"
/>
<rect x="-2.49" y="-4.37" transform="translate(98.28,122.39) rotate(0.2)" width="4.98" height="8.74" rx="2.34"/>
<ellipse cx="0.00" cy="0.00" transform="translate(57.78,148.18) rotate(130.6)" rx="4.68" ry="2.69"/>
<rect x="-2.61" y="-9.34" transform="translate(64.55,152.11) rotate(42.4)" width="5.22" height="18.68" rx="2.41"/>
<path d="
  M 125.73 146.83
  C 127.64 141.77 136.42 151.31 130.93 152.85
  Q 130.48 152.98 130.06 152.79
  C 128.15 151.94 124.80 149.28 125.73 146.83
  Z"
/>
<rect x="-2.71" y="-8.63" transform="translate(124.07,153.85) rotate(-40.0)" width="5.42" height="17.26" rx="2.52"/>
<rect x="-2.52" y="-4.41" transform="translate(69.19,158.55) rotate(39.5)" width="5.04" height="8.82" rx="2.37"/>
<rect x="-2.42" y="-4.29" transform="translate(118.93,158.80) rotate(-44.9)" width="4.84" height="8.58" rx="2.30"/>
</g>
<g fill="#6e423f">
<path d="
  M 99.39 75.18
  C 106.61 75.11 114.03 75.70 120.96 75.63
  Q 133.61 75.52 146.24 76.31
  Q 152.21 76.68 157.82 78.69
  Q 158.25 78.84 158.25 79.29
  L 158.25 79.73
  Q 158.25 80.39 157.59 80.29
  C 154.99 79.90 152.42 79.40 149.80 79.45
  C 108.78 80.10 67.69 77.64 29.76 81.12
  C 28.08 81.27 26.58 82.13 24.85 82.48
  Q 24.39 82.57 24.08 82.21
  Q 23.12 81.09 23.33 79.69
  Q 23.42 79.11 24.00 79.04
  C 33.09 77.87 42.26 76.54 51.19 76.07
  C 67.26 75.23 83.23 75.34 99.39 75.18
  Z"
/>
<path d="
  M 114.22 85.49
  C 124.38 85.73 133.48 85.60 143.16 85.40
  Q 143.69 85.39 143.70 85.92
  C 143.96 107.05 145.09 123.14 145.28 139.42
  C 145.31 142.29 144.55 145.78 144.95 149.15
  Q 145.02 149.75 144.41 149.75
  L 142.04 149.75
  Q 141.46 149.75 141.36 149.17
  C 138.97 134.32 123.43 129.32 111.82 138.08
  A 0.49 0.49 0.0 0 1 111.03 137.70
  Q 110.47 117.37 109.25 97.25
  Q 109.11 94.93 105.93 94.89
  Q 93.37 94.73 80.81 94.56
  C 78.28 94.53 76.86 95.66 76.79 98.32
  Q 76.52 109.86 77.04 121.37
  C 77.29 126.86 76.45 132.28 76.48 137.90
  Q 76.48 138.65 75.86 138.22
  C 73.07 136.28 70.29 134.35 67.01 133.70
  C 55.56 131.41 46.28 137.79 44.83 149.56
  Q 44.76 150.11 44.21 150.06
  L 40.47 149.70
  Q 39.92 149.65 39.85 149.10
  Q 39.56 146.94 39.50 144.75
  Q 38.69 115.71 38.72 87.26
  Q 38.72 85.97 40.01 85.93
  Q 77.71 84.59 114.22 85.49
  Z
  M 70.61 96.43
  C 64.88 94.76 55.35 95.61 49.14 95.49
  C 46.11 95.44 43.53 96.45 43.36 99.69
  Q 43.03 105.77 43.42 122.43
  Q 43.49 125.55 46.25 125.98
  Q 56.92 127.66 69.75 126.93
  C 73.29 126.72 73.39 123.19 73.26 120.25
  C 72.94 113.50 73.70 103.57 71.57 97.34
  Q 71.33 96.64 70.61 96.43
  Z
  M 137.06 96.71
  C 129.57 97.46 121.86 96.53 114.29 96.82
  A 1.64 1.64 0.0 0 0 112.71 98.49
  Q 112.87 108.65 113.07 118.73
  C 113.15 122.65 112.99 126.11 117.24 126.72
  Q 123.21 127.59 134.89 127.13
  C 140.84 126.90 142.43 125.97 142.41 119.57
  Q 142.37 110.03 141.93 100.50
  C 141.77 96.90 140.51 96.36 137.06 96.71
  Z"
/>
<path d="
  M 104.21 100.82
  L 105.19 129.82
  A 0.30 0.30 0.0 0 1 104.88 130.13
  L 82.93 129.69
  A 0.30 0.30 0.0 0 1 82.63 129.39
  L 81.95 100.76
  A 0.30 0.30 0.0 0 1 82.25 100.45
  L 103.91 100.53
  A 0.30 0.30 0.0 0 1 104.21 100.82
  Z
  M 100.4268 106.5187
  A 2.33 2.33 0.0 0 0 97.9935 104.2967
  L 97.6139 104.3140
  A 2.33 2.33 0.0 0 0 95.3919 106.7473
  L 95.6532 112.5013
  A 2.33 2.33 0.0 0 0 98.0865 114.7233
  L 98.4661 114.7060
  A 2.33 2.33 0.0 0 0 100.6881 112.2727
  L 100.4268 106.5187
  Z
  M 89.30 104.62
  C 86.27 103.90 85.61 105.90 85.81 108.44
  Q 86.47 116.67 86.21 124.99
  A 1.79 1.76 -76.2 0 0 87.19 126.63
  C 89.76 127.92 91.36 126.73 91.48 123.98
  Q 91.87 114.91 90.51 105.92
  A 1.58 1.57 2.2 0 0 89.30 104.62
  Z
  M 100.7771 120.3687
  A 2.34 2.34 0.0 0 0 98.4453 118.0206
  L 98.1453 118.0195
  A 2.34 2.34 0.0 0 0 95.7971 120.3513
  L 95.7829 124.4113
  A 2.34 2.34 0.0 0 0 98.1147 126.7594
  L 98.4147 126.7605
  A 2.34 2.34 0.0 0 0 100.7629 124.4287
  L 100.7771 120.3687
  Z"
/>
<path d="
  M 48.64 120.31
  L 48.39 102.00
  A 0.69 0.69 0.0 0 1 49.09 101.30
  L 66.54 101.61
  A 0.69 0.69 0.0 0 1 67.22 102.28
  L 67.74 120.75
  A 0.69 0.69 0.0 0 1 67.03 121.46
  L 49.31 120.99
  A 0.69 0.69 0.0 0 1 48.64 120.31
  Z
  M 60.1530 104.6367
  A 2.57 2.57 0.0 0 0 56.5390 104.2505
  L 56.2588 104.4766
  A 2.57 2.57 0.0 0 0 55.8726 108.0905
  L 61.0470 114.5033
  A 2.57 2.57 0.0 0 0 64.6610 114.8895
  L 64.9412 114.6634
  A 2.57 2.57 0.0 0 0 65.3274 111.0495
  L 60.1530 104.6367
  Z
  M 54.9349 110.5679
  A 2.39 2.39 0.0 0 0 51.5616 110.3556
  L 51.2466 110.6334
  A 2.39 2.39 0.0 0 0 51.0343 114.0067
  L 53.8251 117.1721
  A 2.39 2.39 0.0 0 0 57.1984 117.3844
  L 57.5134 117.1066
  A 2.39 2.39 0.0 0 0 57.7257 113.7333
  L 54.9349 110.5679
  Z"
/>
<path d="
  M 136.30 103.59
  L 136.93 120.74
  A 0.79 0.79 0.0 0 1 136.13 121.56
  L 119.26 121.29
  A 0.79 0.79 0.0 0 1 118.48 120.51
  L 118.30 103.29
  A 0.79 0.79 0.0 0 1 119.10 102.50
  L 135.52 102.83
  A 0.79 0.79 0.0 0 1 136.30 103.59
  Z
  M 128.9736 108.8757
  A 2.45 2.45 0.0 0 0 128.5333 105.4389
  L 128.2643 105.2310
  A 2.45 2.45 0.0 0 0 124.8276 105.6713
  L 119.8864 112.0643
  A 2.45 2.45 0.0 0 0 120.3267 115.5011
  L 120.5957 115.7090
  A 2.45 2.45 0.0 0 0 124.0324 115.2687
  L 128.9736 108.8757
  Z
  M 130.63 118.45
  C 138.24 113.22 131.41 106.11 127.24 115.85
  Q 127.05 116.30 127.21 116.76
  Q 127.84 118.54 129.79 118.68
  Q 130.25 118.71 130.63 118.45
  Z"
/>
<rect x="-11.54" y="-2.00" transform="translate(93.80,137.70) rotate(0.6)" width="23.08" height="4.00" rx="0.72"/>
<path d="
  M 65.21 139.31
  C 71.01 140.85 76.52 144.93 76.65 151.51
  C 76.75 156.84 75.52 161.94 70.96 164.26
  C 64.10 167.75 51.93 163.23 50.72 154.87
  C 49.38 145.64 55.37 136.70 65.21 139.31
  Z
  M 54.7344 151.7334
  A 4.68 2.69 130.6 0 0 59.8224 149.9306
  A 4.68 2.69 130.6 0 0 60.8256 144.6266
  A 4.68 2.69 130.6 0 0 55.7376 146.4294
  A 4.68 2.69 130.6 0 0 54.7344 151.7334
  Z
  M 71.1503 148.7524
  A 2.41 2.41 0.0 0 0 70.9957 145.3477
  L 70.7003 145.0780
  A 2.41 2.41 0.0 0 0 67.2955 145.2326
  L 57.9497 155.4676
  A 2.41 2.41 0.0 0 0 58.1043 158.8723
  L 58.3997 159.1420
  A 2.41 2.41 0.0 0 0 61.8045 158.9874
  L 71.1503 148.7524
  Z
  M 72.4321 158.5788
  A 2.37 2.37 0.0 0 0 72.1108 155.2425
  L 71.8794 155.0517
  A 2.37 2.37 0.0 0 0 68.5431 155.3730
  L 65.9479 158.5212
  A 2.37 2.37 0.0 0 0 66.2692 161.8575
  L 66.5006 162.0483
  A 2.37 2.37 0.0 0 0 69.8369 161.7270
  L 72.4321 158.5788
  Z"
/>
<path d="
  M 130.81 141.44
  C 137.82 145.88 137.52 162.46 129.51 166.09
  C 113.61 173.29 103.26 145.22 120.32 139.95
  Q 125.79 138.26 130.81 141.44
  Z
  M 130.93 152.85
  C 136.42 151.31 127.64 141.77 125.73 146.83
  C 124.80 149.28 128.15 151.94 130.06 152.79
  Q 130.48 152.98 130.93 152.85
  Z
  M 122.2185 147.4275
  A 2.52 2.52 0.0 0 0 118.6683 147.1169
  L 118.3772 147.3612
  A 2.52 2.52 0.0 0 0 118.0666 150.9114
  L 125.9215 160.2725
  A 2.52 2.52 0.0 0 0 129.4717 160.5831
  L 129.7628 160.3388
  A 2.52 2.52 0.0 0 0 130.0734 156.7886
  L 122.2185 147.4275
  Z
  M 119.2395 155.6822
  A 2.30 2.30 0.0 0 0 115.9868 155.6765
  L 115.8168 155.8459
  A 2.30 2.30 0.0 0 0 115.8111 159.0986
  L 118.6205 161.9178
  A 2.30 2.30 0.0 0 0 121.8732 161.9235
  L 122.0432 161.7541
  A 2.30 2.30 0.0 0 0 122.0489 158.5014
  L 119.2395 155.6822
  Z"
/>
<rect x="-11.41" y="-2.28" transform="translate(93.95,147.80) rotate(0.9)" width="22.82" height="4.56" rx="0.27"/>
</g>
</svg>
