<?xml version="1.0" encoding="UTF-8" standalone="no"?>
<!DOCTYPE svg PUBLIC "-//W3C//DTD SVG 1.1//EN" "http://www.w3.org/Graphics/SVG/1.1/DTD/svg11.dtd">
<svg xmlns="http://www.w3.org/2000/svg" version="1.1" viewBox="0 0 180 180">
<g stroke-width="2.00" fill="none" stroke-linecap="butt">
<path stroke="#3d504e" vector-effect="non-scaling-stroke" d="
  M 83.21 99.00
  Q 80.52 102.83 78.94 107.46
  Q 78.76 107.99 79.31 108.08
  Q 86.29 109.21 92.53 112.43
  Q 93.02 112.69 93.56 112.60
  L 101.27 111.39
  Q 101.72 111.32 101.97 110.93
  Q 105.33 105.63 110.11 101.56
  Q 110.50 101.23 110.38 100.73
  C 110.10 99.54 108.19 92.47 107.00 92.20"
/>
<path stroke="#576461" vector-effect="non-scaling-stroke" d="
  M 107.00 92.20
  C 98.09 81.49 88.27 91.10 83.21 99.00"
/>
<path stroke="#5c7c73" vector-effect="non-scaling-stroke" d="
  M 107.00 92.20
  Q 102.31 97.11 94.89 101.17
  Q 87.86 105.03 83.21 99.00"
/>
<path stroke="#3d504e" vector-effect="non-scaling-stroke" d="
  M 117.29 104.11
  Q 117.02 105.63 117.66 107.58
  Q 117.83 108.10 118.30 107.81
  C 121.47 105.82 123.67 103.04 127.12 101.54
  Q 127.68 101.29 127.54 100.69
  Q 127.13 99.01 125.99 97.49"
/>
<path stroke="#576461" vector-effect="non-scaling-stroke" d="
  M 125.99 97.49
  Q 120.93 95.39 115.73 97.05
  Q 115.33 97.18 115.44 97.58
  L 117.29 104.11"
/>
<path stroke="#5c7c73" vector-effect="non-scaling-stroke" d="
  M 125.99 97.49
  Q 122.57 102.08 117.29 104.11"
/>
<path stroke="#3d504e" vector-effect="non-scaling-stroke" d="
  M 63.00 104.79
  Q 60.68 106.62 59.37 109.34
  A 1.87 1.86 23.5 0 0 60.38 111.89
  Q 66.27 114.19 72.42 115.16
  Q 73.01 115.25 72.98 114.65
  L 72.71 110.00"
/>
<path stroke="#576461" vector-effect="non-scaling-stroke" d="
  M 72.71 110.00
  Q 74.08 104.82 76.71 99.89
  Q 77.02 99.30 76.39 99.09
  C 71.07 97.29 66.09 101.67 63.00 104.79"
/>
<path stroke="#5c7c73" vector-effect="non-scaling-stroke" d="
  M 72.71 110.00
  Q 66.98 108.99 63.00 104.79"
/>
<path stroke="#533d3e" vector-effect="non-scaling-stroke" d="
  M 67.59 163.10
  Q 73.56 164.21 79.01 163.05
  Q 96.65 159.31 103.21 158.00
  Q 103.80 157.88 103.75 157.29
  C 102.93 146.21 106.44 137.62 117.06 134.47
  C 128.90 130.97 135.77 138.76 139.55 148.70
  Q 139.73 149.15 140.21 149.08
  Q 142.00 148.82 141.74 147.00
  C 140.40 137.97 138.50 122.28 134.39 111.59
  A 0.56 0.55 -15.0 0 0 133.77 111.24
  C 109.01 115.77 84.20 120.05 60.01 125.90
  Q 58.40 126.29 58.69 127.92
  Q 61.15 141.58 64.00 154.60
  C 64.61 157.39 65.04 160.18 66.73 162.55
  Q 67.05 163.00 67.59 163.10"
/>
<path stroke="#533d3e" vector-effect="non-scaling-stroke" d="
  M 128.68 142.08
  C 123.50 137.07 114.44 140.06 111.38 145.04
  C 100.73 162.35 127.76 175.56 133.29 160.35
  Q 137.02 150.13 128.68 142.08"
/>
<path stroke="#533d3e" vector-effect="non-scaling-stroke" d="
  M 43.13 168.29
  L 60.43 164.97
  Q 61.14 164.83 60.89 164.15
  L 60.14 162.07
  Q 59.93 161.50 59.34 161.62
  Q 51.02 163.36 42.85 165.68
  Q 41.13 166.17 42.15 167.86
  Q 42.49 168.42 43.13 168.29"
/>
<path stroke="#3d504e" vector-effect="non-scaling-stroke" d="
  M 104.3194 100.5077
  A 2.48 2.48 0.0 0 0 100.8665 99.8926
  L 95.9784 103.3026
  A 2.48 2.48 0.0 0 0 95.3633 106.7555
  L 95.5006 106.9523
  A 2.48 2.48 0.0 0 0 98.9535 107.5674
  L 103.8416 104.1574
  A 2.48 2.48 0.0 0 0 104.4567 100.7045
  L 104.3194 100.5077"
/>
<path stroke="#533d3e" vector-effect="non-scaling-stroke" d="
  M 131.1079 121.4736
  A 2.54 2.54 0.0 0 0 128.2093 119.3521
  L 116.9830 121.0900
  A 2.54 2.54 0.0 0 0 114.8615 123.9887
  L 114.8921 124.1864
  A 2.54 2.54 0.0 0 0 117.7907 126.3079
  L 129.0170 124.5700
  A 2.54 2.54 0.0 0 0 131.1385 121.6713
  L 131.1079 121.4736"
/>
<path stroke="#533d3e" vector-effect="non-scaling-stroke" d="
  M 64.83 132.49
  C 64.14 134.45 65.91 136.10 68.00 135.72
  Q 88.03 132.00 108.16 128.32
  A 2.30 2.29 71.9 0 0 109.81 125.06
  C 108.46 122.27 105.45 123.17 102.86 123.63
  Q 86.74 126.49 70.68 129.67
  C 68.60 130.09 65.60 130.35 64.83 132.49"
/>
<path stroke="#533d3e" vector-effect="non-scaling-stroke" d="
  M 101.5629 140.7108
  A 2.58 2.58 0.0 0 0 98.6036 138.5765
  L 86.8962 140.4727
  A 2.58 2.58 0.0 0 0 84.7619 143.4320
  L 84.7971 143.6492
  A 2.58 2.58 0.0 0 0 87.7564 145.7835
  L 99.4638 143.8873
  A 2.58 2.58 0.0 0 0 101.5981 140.9280
  L 101.5629 140.7108"
/>
<path stroke="#533d3e" vector-effect="non-scaling-stroke" d="
  M 79.8607 144.5597
  A 2.55 2.55 0.0 0 0 76.8745 142.5379
  L 69.3920 143.9788
  A 2.55 2.55 0.0 0 0 67.3702 146.9650
  L 67.4193 147.2203
  A 2.55 2.55 0.0 0 0 70.4055 149.2421
  L 77.8880 147.8012
  A 2.55 2.55 0.0 0 0 79.9098 144.8150
  L 79.8607 144.5597"
/>
<path stroke="#533d3e" vector-effect="non-scaling-stroke" d="
  M 98.4701 152.8565
  A 2.65 2.65 0.0 0 0 95.4002 150.7070
  L 73.9117 154.4960
  A 2.65 2.65 0.0 0 0 71.7621 157.5659
  L 71.7899 157.7235
  A 2.65 2.65 0.0 0 0 74.8598 159.8730
  L 96.3483 156.0840
  A 2.65 2.65 0.0 0 0 98.4979 153.0141
  L 98.4701 152.8565"
/>
<path stroke="#533d3e" vector-effect="non-scaling-stroke" d="
  M 112.8446 153.2861
  A 4.63 2.68 121.3 0 0 117.5399 150.7223
  A 4.63 2.68 121.3 0 0 117.6554 145.3739
  A 4.63 2.68 121.3 0 0 112.9601 147.9377
  A 4.63 2.68 121.3 0 0 112.8446 153.2861"
/>
<path stroke="#533d3e" vector-effect="non-scaling-stroke" d="
  M 127.5056 149.1490
  A 2.42 2.42 0.0 0 0 126.8525 145.7895
  L 126.6702 145.6665
  A 2.42 2.42 0.0 0 0 123.3106 146.3195
  L 115.6944 157.6110
  A 2.42 2.42 0.0 0 0 116.3475 160.9705
  L 116.5298 161.0935
  A 2.42 2.42 0.0 0 0 119.8894 160.4405
  L 127.5056 149.1490"
/>
<path stroke="#533d3e" vector-effect="non-scaling-stroke" d="
  M 130.4290 158.6051
  A 2.40 2.40 0.0 0 0 130.0624 155.2308
  L 129.8442 155.0554
  A 2.40 2.40 0.0 0 0 126.4700 155.4220
  L 123.9510 158.5549
  A 2.40 2.40 0.0 0 0 124.3176 161.9292
  L 124.5358 162.1046
  A 2.40 2.40 0.0 0 0 127.9100 161.7380
  L 130.4290 158.6051"
/>
</g>
<g fill="#38383c">
<path d="
  M 134.41 105.22
  Q 139.36 107.15 140.75 112.52
  Q 143.80 124.28 147.50 147.51
  C 148.45 153.51 145.38 153.58 140.82 155.03
  Q 140.35 155.18 140.28 155.67
  C 139.41 161.78 138.18 166.83 132.36 170.04
  C 122.54 175.47 112.98 172.04 106.42 163.74
  Q 106.09 163.32 105.57 163.42
  Q 91.57 166.19 77.76 169.23
  C 74.39 169.98 69.48 169.00 65.17 169.90
  Q 53.26 172.39 44.44 173.68
  C 36.01 174.91 33.68 162.44 38.48 161.07
  Q 48.04 158.34 57.85 156.16
  A 0.71 0.70 77.9 0 0 58.38 155.33
  Q 55.59 142.03 53.38 128.42
  C 52.83 125.05 53.46 122.75 56.53 121.32
  Q 57.01 121.09 56.83 120.59
  C 55.37 116.44 52.38 108.90 55.86 104.66
  C 61.47 97.85 70.38 90.19 79.45 94.67
  Q 79.92 94.90 80.23 94.48
  C 83.74 89.67 89.97 82.96 96.24 82.45
  Q 107.38 81.55 113.20 91.57
  Q 113.46 92.00 113.95 91.89
  C 118.33 90.89 123.71 89.80 127.62 92.21
  C 132.63 95.31 132.94 99.08 133.88 104.57
  Q 133.96 105.05 134.41 105.22
  Z
  M 83.21 99.00
  Q 80.52 102.83 78.94 107.46
  Q 78.76 107.99 79.31 108.08
  Q 86.29 109.21 92.53 112.43
  Q 93.02 112.69 93.56 112.60
  L 101.27 111.39
  Q 101.72 111.32 101.97 110.93
  Q 105.33 105.63 110.11 101.56
  Q 110.50 101.23 110.38 100.73
  C 110.10 99.54 108.19 92.47 107.00 92.20
  C 98.09 81.49 88.27 91.10 83.21 99.00
  Z
  M 117.29 104.11
  Q 117.02 105.63 117.66 107.58
  Q 117.83 108.10 118.30 107.81
  C 121.47 105.82 123.67 103.04 127.12 101.54
  Q 127.68 101.29 127.54 100.69
  Q 127.13 99.01 125.99 97.49
  Q 120.93 95.39 115.73 97.05
  Q 115.33 97.18 115.44 97.58
  L 117.29 104.11
  Z
  M 63.00 104.79
  Q 60.68 106.62 59.37 109.34
  A 1.87 1.86 23.5 0 0 60.38 111.89
  Q 66.27 114.19 72.42 115.16
  Q 73.01 115.25 72.98 114.65
  L 72.71 110.00
  Q 74.08 104.82 76.71 99.89
  Q 77.02 99.30 76.39 99.09
  C 71.07 97.29 66.09 101.67 63.00 104.79
  Z
  M 67.59 163.10
  Q 73.56 164.21 79.01 163.05
  Q 96.65 159.31 103.21 158.00
  Q 103.80 157.88 103.75 157.29
  C 102.93 146.21 106.44 137.62 117.06 134.47
  C 128.90 130.97 135.77 138.76 139.55 148.70
  Q 139.73 149.15 140.21 149.08
  Q 142.00 148.82 141.74 147.00
  C 140.40 137.97 138.50 122.28 134.39 111.59
  A 0.56 0.55 -15.0 0 0 133.77 111.24
  C 109.01 115.77 84.20 120.05 60.01 125.90
  Q 58.40 126.29 58.69 127.92
  Q 61.15 141.58 64.00 154.60
  C 64.61 157.39 65.04 160.18 66.73 162.55
  Q 67.05 163.00 67.59 163.10
  Z
  M 128.68 142.08
  C 123.50 137.07 114.44 140.06 111.38 145.04
  C 100.73 162.35 127.76 175.56 133.29 160.35
  Q 137.02 150.13 128.68 142.08
  Z
  M 43.13 168.29
  L 60.43 164.97
  Q 61.14 164.83 60.89 164.15
  L 60.14 162.07
  Q 59.93 161.50 59.34 161.62
  Q 51.02 163.36 42.85 165.68
  Q 41.13 166.17 42.15 167.86
  Q 42.49 168.42 43.13 168.29
  Z"
/>
<rect x="-5.46" y="-2.60" transform="translate(99.91,103.73) rotate(-34.9)" width="10.92" height="5.20" rx="2.48"/>
<rect x="-8.22" y="-2.64" transform="translate(123.00,122.83) rotate(-8.8)" width="16.44" height="5.28" rx="2.54"/>
<path d="
  M 68.00 135.72
  C 65.91 136.10 64.14 134.45 64.83 132.49
  C 65.60 130.35 68.60 130.09 70.68 129.67
  Q 86.74 126.49 102.86 123.63
  C 105.45 123.17 108.46 122.27 109.81 125.06
  A 2.30 2.29 71.9 0 1 108.16 128.32
  Q 88.03 132.00 68.00 135.72
  Z"
/>
<rect x="-8.51" y="-2.69" transform="translate(93.18,142.18) rotate(-9.2)" width="17.02" height="5.38" rx="2.58"/>
<rect x="-6.36" y="-2.68" transform="translate(73.64,145.89) rotate(-10.9)" width="12.72" height="5.36" rx="2.55"/>
<ellipse cx="0.00" cy="0.00" transform="translate(115.25,149.33) rotate(121.3)" rx="4.63" ry="2.68"/>
<rect x="-2.53" y="-9.23" transform="translate(121.60,153.38) rotate(34.0)" width="5.06" height="18.46" rx="2.42"/>
<rect x="-13.56" y="-2.73" transform="translate(85.13,155.29) rotate(-10.0)" width="27.12" height="5.46" rx="2.65"/>
<rect x="-2.54" y="-4.41" transform="translate(127.19,158.58) rotate(38.8)" width="5.08" height="8.82" rx="2.40"/>
</g>
<g fill="#6e423f">
<path d="
  M 66.73 162.55
  C 65.04 160.18 64.61 157.39 64.00 154.60
  Q 61.15 141.58 58.69 127.92
  Q 58.40 126.29 60.01 125.90
  C 84.20 120.05 109.01 115.77 133.77 111.24
  A 0.56 0.55 -15.0 0 1 134.39 111.59
  C 138.50 122.28 140.40 137.97 141.74 147.00
  Q 142.00 148.82 140.21 149.08
  Q 139.73 149.15 139.55 148.70
  C 135.77 138.76 128.90 130.97 117.06 134.47
  C 106.44 137.62 102.93 146.21 103.75 157.29
  Q 103.80 157.88 103.21 158.00
  Q 96.65 159.31 79.01 163.05
  Q 73.56 164.21 67.59 163.10
  Q 67.05 163.00 66.73 162.55
  Z
  M 131.1079 121.4736
  A 2.54 2.54 0.0 0 0 128.2093 119.3521
  L 116.9830 121.0900
  A 2.54 2.54 0.0 0 0 114.8615 123.9887
  L 114.8921 124.1864
  A 2.54 2.54 0.0 0 0 117.7907 126.3079
  L 129.0170 124.5700
  A 2.54 2.54 0.0 0 0 131.1385 121.6713
  L 131.1079 121.4736
  Z
  M 64.83 132.49
  C 64.14 134.45 65.91 136.10 68.00 135.72
  Q 88.03 132.00 108.16 128.32
  A 2.30 2.29 71.9 0 0 109.81 125.06
  C 108.46 122.27 105.45 123.17 102.86 123.63
  Q 86.74 126.49 70.68 129.67
  C 68.60 130.09 65.60 130.35 64.83 132.49
  Z
  M 101.5629 140.7108
  A 2.58 2.58 0.0 0 0 98.6036 138.5765
  L 86.8962 140.4727
  A 2.58 2.58 0.0 0 0 84.7619 143.4320
  L 84.7971 143.6492
  A 2.58 2.58 0.0 0 0 87.7564 145.7835
  L 99.4638 143.8873
  A 2.58 2.58 0.0 0 0 101.5981 140.9280
  L 101.5629 140.7108
  Z
  M 79.8607 144.5597
  A 2.55 2.55 0.0 0 0 76.8745 142.5379
  L 69.3920 143.9788
  A 2.55 2.55 0.0 0 0 67.3702 146.9650
  L 67.4193 147.2203
  A 2.55 2.55 0.0 0 0 70.4055 149.2421
  L 77.8880 147.8012
  A 2.55 2.55 0.0 0 0 79.9098 144.8150
  L 79.8607 144.5597
  Z
  M 98.4701 152.8565
  A 2.65 2.65 0.0 0 0 95.4002 150.7070
  L 73.9117 154.4960
  A 2.65 2.65 0.0 0 0 71.7621 157.5659
  L 71.7899 157.7235
  A 2.65 2.65 0.0 0 0 74.8598 159.8730
  L 96.3483 156.0840
  A 2.65 2.65 0.0 0 0 98.4979 153.0141
  L 98.4701 152.8565
  Z"
/>
<path d="
  M 128.68 142.08
  Q 137.02 150.13 133.29 160.35
  C 127.76 175.56 100.73 162.35 111.38 145.04
  C 114.44 140.06 123.50 137.07 128.68 142.08
  Z
  M 112.8446 153.2861
  A 4.63 2.68 121.3 0 0 117.5399 150.7223
  A 4.63 2.68 121.3 0 0 117.6554 145.3739
  A 4.63 2.68 121.3 0 0 112.9601 147.9377
  A 4.63 2.68 121.3 0 0 112.8446 153.2861
  Z
  M 127.5056 149.1490
  A 2.42 2.42 0.0 0 0 126.8525 145.7895
  L 126.6702 145.6665
  A 2.42 2.42 0.0 0 0 123.3106 146.3195
  L 115.6944 157.6110
  A 2.42 2.42 0.0 0 0 116.3475 160.9705
  L 116.5298 161.0935
  A 2.42 2.42 0.0 0 0 119.8894 160.4405
  L 127.5056 149.1490
  Z
  M 130.4290 158.6051
  A 2.40 2.40 0.0 0 0 130.0624 155.2308
  L 129.8442 155.0554
  A 2.40 2.40 0.0 0 0 126.4700 155.4220
  L 123.9510 158.5549
  A 2.40 2.40 0.0 0 0 124.3176 161.9292
  L 124.5358 162.1046
  A 2.40 2.40 0.0 0 0 127.9100 161.7380
  L 130.4290 158.6051
  Z"
/>
<path d="
  M 43.13 168.29
  Q 42.49 168.42 42.15 167.86
  Q 41.13 166.17 42.85 165.68
  Q 51.02 163.36 59.34 161.62
  Q 59.93 161.50 60.14 162.07
  L 60.89 164.15
  Q 61.14 164.83 60.43 164.97
  L 43.13 168.29
  Z"
/>
</g>
<g fill="#759086">
<path d="
  M 107.00 92.20
  Q 102.31 97.11 94.89 101.17
  Q 87.86 105.03 83.21 99.00
  C 88.27 91.10 98.09 81.49 107.00 92.20
  Z"
/>
<path d="
  M 125.99 97.49
  Q 122.57 102.08 117.29 104.11
  L 115.44 97.58
  Q 115.33 97.18 115.73 97.05
  Q 120.93 95.39 125.99 97.49
  Z"
/>
<path d="
  M 72.71 110.00
  Q 66.98 108.99 63.00 104.79
  C 66.09 101.67 71.07 97.29 76.39 99.09
  Q 77.02 99.30 76.71 99.89
  Q 74.08 104.82 72.71 110.00
  Z"
/>
</g>
<g fill="#42685f">
<path d="
  M 107.00 92.20
  C 108.19 92.47 110.10 99.54 110.38 100.73
  Q 110.50 101.23 110.11 101.56
  Q 105.33 105.63 101.97 110.93
  Q 101.72 111.32 101.27 111.39
  L 93.56 112.60
  Q 93.02 112.69 92.53 112.43
  Q 86.29 109.21 79.31 108.08
  Q 78.76 107.99 78.94 107.46
  Q 80.52 102.83 83.21 99.00
  Q 87.86 105.03 94.89 101.17
  Q 102.31 97.11 107.00 92.20
  Z
  M 104.3194 100.5077
  A 2.48 2.48 0.0 0 0 100.8665 99.8926
  L 95.9784 103.3026
  A 2.48 2.48 0.0 0 0 95.3633 106.7555
  L 95.5006 106.9523
  A 2.48 2.48 0.0 0 0 98.9535 107.5674
  L 103.8416 104.1574
  A 2.48 2.48 0.0 0 0 104.4567 100.7045
  L 104.3194 100.5077
  Z"
/>
<path d="
  M 125.99 97.49
  Q 127.13 99.01 127.54 100.69
  Q 127.68 101.29 127.12 101.54
  C 123.67 103.04 121.47 105.82 118.30 107.81
  Q 117.83 108.10 117.66 107.58
  Q 117.02 105.63 117.29 104.11
  Q 122.57 102.08 125.99 97.49
  Z"
/>
<path d="
  M 63.00 104.79
  Q 66.98 108.99 72.71 110.00
  L 72.98 114.65
  Q 73.01 115.25 72.42 115.16
  Q 66.27 114.19 60.38 111.89
  A 1.87 1.86 23.5 0 1 59.37 109.34
  Q 60.68 106.62 63.00 104.79
  Z"
/>
</g>
</svg>
