<?xml version="1.0" encoding="UTF-8" standalone="no"?>
<!DOCTYPE svg PUBLIC "-//W3C//DTD SVG 1.1//EN" "http://www.w3.org/Graphics/SVG/1.1/DTD/svg11.dtd">
<svg xmlns="http://www.w3.org/2000/svg" version="1.1" viewBox="0 0 180 180">
<g stroke-width="2.00" fill="none" stroke-linecap="butt">
<path stroke="#9c4249" vector-effect="non-scaling-stroke" d="
  M 137.90 70.65
  C 136.77 75.86 134.50 81.95 127.81 80.86
  A 0.36 0.36 0.0 0 0 127.39 81.21
  Q 127.19 87.23 132.27 90.20
  Q 132.77 90.49 133.34 90.39
  C 142.15 88.95 140.80 76.37 138.69 70.59
  Q 138.20 69.24 137.90 70.65"
/>
<path stroke="#9c4249" vector-effect="non-scaling-stroke" d="
  M 66.92 119.36
  C 67.41 136.60 79.88 142.92 95.78 142.92
  C 115.39 142.91 119.52 120.23 116.20 105.47
  Q 116.00 104.56 115.71 105.45
  C 114.02 110.67 111.40 114.44 105.82 114.27
  C 95.92 113.98 90.58 103.09 91.36 94.17
  A 0.43 0.43 0.0 0 0 90.67 93.79
  C 80.29 101.74 73.95 86.12 75.23 78.16
  A 0.48 0.47 60.7 0 0 74.32 77.90
  Q 66.30 97.93 66.92 119.36"
/>
<path stroke="#9c4249" vector-effect="non-scaling-stroke" d="
  M 87.1765 138.6771
  A 12.85 11.55 108.2 0 0 102.1622 130.0775
  A 12.85 11.55 108.2 0 0 95.2035 114.2629
  A 12.85 11.55 108.2 0 0 80.2178 122.8625
  A 12.85 11.55 108.2 0 0 87.1765 138.6771"
/>
<path stroke="#9c8f4d" vector-effect="non-scaling-stroke" d="
  M 45.09 116.86
  C 41.92 119.55 38.36 117.32 36.61 114.36
  A 0.37 0.37 0.0 0 0 35.92 114.53
  C 35.75 118.66 38.34 128.23 44.50 125.92
  C 48.55 124.40 47.91 119.88 45.90 116.97
  Q 45.55 116.47 45.09 116.86"
/>
<path stroke="#98989a" vector-effect="non-scaling-stroke" d="
  M 89.0209 133.4334
  A 7.27 6.01 106.7 0 0 96.8665 128.1970
  A 7.27 6.01 106.7 0 0 93.1991 119.5066
  A 7.27 6.01 106.7 0 0 85.3535 124.7430
  A 7.27 6.01 106.7 0 0 89.0209 133.4334"
/>
<path stroke="#9c8f4d" vector-effect="non-scaling-stroke" d="
  M 134.41 140.79
  Q 133.23 139.78 131.67 140.03
  Q 131.14 140.12 130.74 140.48
  Q 127.26 143.59 124.95 147.66
  Q 124.59 148.30 125.30 148.11
  Q 130.60 146.72 134.49 142.87
  A 1.42 1.41 42.9 0 0 134.41 140.79"
/>
<path stroke="#9c4249" vector-effect="non-scaling-stroke" d="
  M 58.06 146.94
  Q 54.82 142.06 49.42 141.12
  A 1.09 1.09 0.0 0 0 48.26 142.68
  Q 51.37 148.88 58.43 148.20
  A 0.45 0.45 0.0 0 0 58.81 147.59
  Q 58.58 147.00 58.06 146.94"
/>
</g>
<g fill="#38383c">
<path d="
  M 125.34 73.93
  C 127.23 74.61 130.01 77.08 131.26 73.78
  Q 132.55 70.37 133.34 64.31
  C 133.75 61.20 137.54 61.70 139.30 63.19
  C 148.30 70.80 149.18 92.74 134.96 95.73
  C 123.77 98.09 116.87 76.04 124.42 73.90
  Q 124.88 73.77 125.34 73.93
  Z
  M 137.90 70.65
  C 136.77 75.86 134.50 81.95 127.81 80.86
  A 0.36 0.36 0.0 0 0 127.39 81.21
  Q 127.19 87.23 132.27 90.20
  Q 132.77 90.49 133.34 90.39
  C 142.15 88.95 140.80 76.37 138.69 70.59
  Q 138.20 69.24 137.90 70.65
  Z"
/>
<path d="
  M 104.31 108.44
  C 111.83 111.54 111.02 95.64 110.42 92.54
  C 109.79 89.18 110.21 86.32 114.22 86.44
  Q 114.73 86.45 115.07 86.84
  Q 118.35 90.60 119.61 94.68
  C 128.13 122.34 120.54 156.83 82.56 146.93
  Q 74.02 144.71 68.16 138.64
  C 61.86 132.11 61.12 123.43 61.29 114.49
  C 61.57 99.93 65.56 73.69 78.21 64.64
  C 83.11 61.13 83.66 67.14 82.31 70.45
  C 80.28 75.39 78.57 88.42 85.38 90.19
  Q 85.86 90.32 86.29 90.05
  Q 89.21 88.19 91.84 84.85
  C 93.88 82.25 98.02 83.50 97.50 87.25
  C 96.41 95.15 95.36 104.74 104.31 108.44
  Z
  M 66.92 119.36
  C 67.41 136.60 79.88 142.92 95.78 142.92
  C 115.39 142.91 119.52 120.23 116.20 105.47
  Q 116.00 104.56 115.71 105.45
  C 114.02 110.67 111.40 114.44 105.82 114.27
  C 95.92 113.98 90.58 103.09 91.36 94.17
  A 0.43 0.43 0.0 0 0 90.67 93.79
  C 80.29 101.74 73.95 86.12 75.23 78.16
  A 0.48 0.47 60.7 0 0 74.32 77.90
  Q 66.30 97.93 66.92 119.36
  Z"
/>
<path d="
  M 41.39 111.63
  Q 42.26 112.56 42.53 111.31
  Q 43.20 108.12 46.52 108.52
  Q 47.09 108.59 47.41 109.06
  C 50.74 113.86 54.08 118.51 52.62 124.65
  C 51.17 130.77 43.72 133.30 38.56 130.81
  C 30.54 126.95 29.16 115.64 31.37 107.87
  C 32.02 105.57 33.08 100.21 36.73 101.42
  C 39.57 102.36 38.33 105.43 39.05 107.51
  Q 39.93 110.07 41.39 111.63
  Z
  M 45.09 116.86
  C 41.92 119.55 38.36 117.32 36.61 114.36
  A 0.37 0.37 0.0 0 0 35.92 114.53
  C 35.75 118.66 38.34 128.23 44.50 125.92
  C 48.55 124.40 47.91 119.88 45.90 116.97
  Q 45.55 116.47 45.09 116.86
  Z"
/>
<path d="
  M 87.1765 138.6771
  A 12.85 11.55 108.2 0 1 80.2178 122.8625
  A 12.85 11.55 108.2 0 1 95.2035 114.2629
  A 12.85 11.55 108.2 0 1 102.1622 130.0775
  A 12.85 11.55 108.2 0 1 87.1765 138.6771
  Z
  M 89.0209 133.4334
  A 7.27 6.01 106.7 0 0 96.8665 128.1970
  A 7.27 6.01 106.7 0 0 93.1991 119.5066
  A 7.27 6.01 106.7 0 0 85.3535 124.7430
  A 7.27 6.01 106.7 0 0 89.0209 133.4334
  Z"
/>
<path d="
  M 133.98 134.58
  C 143.23 136.91 141.19 145.35 134.92 149.65
  Q 130.01 153.03 123.44 154.15
  C 119.41 154.84 118.94 152.43 118.33 149.28
  Q 118.23 148.80 118.44 148.36
  C 121.02 142.86 127.17 132.86 133.98 134.58
  Z
  M 134.41 140.79
  Q 133.23 139.78 131.67 140.03
  Q 131.14 140.12 130.74 140.48
  Q 127.26 143.59 124.95 147.66
  Q 124.59 148.30 125.30 148.11
  Q 130.60 146.72 134.49 142.87
  A 1.42 1.41 42.9 0 0 134.41 140.79
  Z"
/>
<path d="
  M 54.95 137.11
  C 56.71 137.89 65.36 145.16 65.61 146.71
  Q 66.03 149.31 64.94 151.55
  Q 64.71 152.01 64.24 152.21
  Q 52.97 156.93 45.76 148.70
  C 38.75 140.69 44.87 132.69 54.95 137.11
  Z
  M 58.06 146.94
  Q 54.82 142.06 49.42 141.12
  A 1.09 1.09 0.0 0 0 48.26 142.68
  Q 51.37 148.88 58.43 148.20
  A 0.45 0.45 0.0 0 0 58.81 147.59
  Q 58.58 147.00 58.06 146.94
  Z"
/>
</g>
<g fill="#ff4c55">
<path d="
  M 127.81 80.86
  C 134.50 81.95 136.77 75.86 137.90 70.65
  Q 138.20 69.24 138.69 70.59
  C 140.80 76.37 142.15 88.95 133.34 90.39
  Q 132.77 90.49 132.27 90.20
  Q 127.19 87.23 127.39 81.21
  A 0.36 0.36 0.0 0 1 127.81 80.86
  Z"
/>
<path d="
  M 95.78 142.92
  C 79.88 142.92 67.41 136.60 66.92 119.36
  Q 66.30 97.93 74.32 77.90
  A 0.48 0.47 60.7 0 1 75.23 78.16
  C 73.95 86.12 80.29 101.74 90.67 93.79
  A 0.43 0.43 0.0 0 1 91.36 94.17
  C 90.58 103.09 95.92 113.98 105.82 114.27
  C 111.40 114.44 114.02 110.67 115.71 105.45
  Q 116.00 104.56 116.20 105.47
  C 119.52 120.23 115.39 142.91 95.78 142.92
  Z
  M 87.1765 138.6771
  A 12.85 11.55 108.2 0 0 102.1622 130.0775
  A 12.85 11.55 108.2 0 0 95.2035 114.2629
  A 12.85 11.55 108.2 0 0 80.2178 122.8625
  A 12.85 11.55 108.2 0 0 87.1765 138.6771
  Z"
/>
<path d="
  M 58.06 146.94
  Q 58.58 147.00 58.81 147.59
  A 0.45 0.45 0.0 0 1 58.43 148.20
  Q 51.37 148.88 48.26 142.68
  A 1.09 1.09 0.0 0 1 49.42 141.12
  Q 54.82 142.06 58.06 146.94
  Z"
/>
</g>
<ellipse fill="#f8f8f8" cx="0.00" cy="0.00" transform="translate(91.11,126.47) rotate(106.7)" rx="7.27" ry="6.01"/>
<g fill="#ffe65e">
<path d="
  M 36.61 114.36
  C 38.36 117.32 41.92 119.55 45.09 116.86
  Q 45.55 116.47 45.90 116.97
  C 47.91 119.88 48.55 124.40 44.50 125.92
  C 38.34 128.23 35.75 118.66 35.92 114.53
  A 0.37 0.37 0.0 0 1 36.61 114.36
  Z"
/>
<path d="
  M 134.41 140.79
  A 1.42 1.41 42.9 0 1 134.49 142.87
  Q 130.60 146.72 125.30 148.11
  Q 124.59 148.30 124.95 147.66
  Q 127.26 143.59 130.74 140.48
  Q 131.14 140.12 131.67 140.03
  Q 133.23 139.78 134.41 140.79
  Z"
/>
</g>
</svg>
