<?xml version="1.0" encoding="UTF-8" standalone="no"?>
<!DOCTYPE svg PUBLIC "-//W3C//DTD SVG 1.1//EN" "http://www.w3.org/Graphics/SVG/1.1/DTD/svg11.dtd">
<svg xmlns="http://www.w3.org/2000/svg" version="1.1" viewBox="0 0 180 180">
<g stroke-width="2.00" fill="none" stroke-linecap="butt">
<path stroke="#533d3e" vector-effect="non-scaling-stroke" d="
  M 108.21 36.58
  A 0.61 0.60 -90.0 0 0 108.79 35.99
  L 109.05 28.39
  A 0.95 0.95 0.0 0 0 108.21 27.41
  L 104.49 26.96
  Q 103.64 26.86 103.67 27.72
  L 103.99 36.10
  Q 104.01 36.69 104.60 36.67
  L 108.21 36.58"
/>
<path stroke="#98989a" vector-effect="non-scaling-stroke" d="
  M 107.05 99.28
  Q 108.72 101.80 111.66 102.31
  Q 112.15 102.40 112.58 102.15
  C 116.03 100.20 116.04 95.88 115.22 92.48
  Q 115.11 92.04 115.53 91.88
  Q 124.27 88.67 124.61 78.49
  C 124.94 68.70 128.67 48.61 115.01 48.27
  C 104.32 48.01 91.93 46.91 82.73 53.40
  Q 82.27 53.73 82.06 54.24
  Q 79.38 60.86 79.79 68.03
  Q 79.82 68.54 80.33 68.57
  C 83.40 68.76 93.56 68.15 94.89 71.31
  C 97.95 78.56 97.52 91.68 96.85 100.09
  C 96.28 107.37 106.09 106.38 106.46 99.44
  Q 106.51 98.47 107.05 99.28"
/>
<path stroke="#533d3e" vector-effect="non-scaling-stroke" d="
  M 71.1035 58.5170
  A 0.58 0.58 0.0 0 0 70.5686 57.8951
  L 67.3577 57.6537
  A 0.58 0.58 0.0 0 0 66.7358 58.1885
  L 66.0565 67.2230
  A 0.58 0.58 0.0 0 0 66.5914 67.8449
  L 69.8023 68.0863
  A 0.58 0.58 0.0 0 0 70.4242 67.5515
  L 71.1035 58.5170"
/>
<path stroke="#98989a" vector-effect="non-scaling-stroke" d="
  M 65.30 103.76
  C 65.73 107.92 71.41 108.70 71.91 104.48
  Q 71.98 103.87 72.50 104.20
  C 77.26 107.27 78.75 102.83 76.85 98.93
  Q 76.58 98.37 77.18 98.19
  C 84.57 96.00 83.06 78.10 76.33 76.20
  C 68.65 74.03 56.62 73.70 56.93 85.21
  C 57.08 90.57 56.89 94.00 60.58 97.43
  Q 60.99 97.81 60.77 98.33
  C 60.17 99.77 59.27 101.04 59.83 102.57
  C 60.58 104.63 63.07 104.99 64.77 103.55
  Q 65.24 103.15 65.30 103.76"
/>
<path stroke="#533d3e" vector-effect="non-scaling-stroke" d="
  M 110.06 118.09
  A 0.79 0.79 0.0 0 0 109.27 117.30
  L 104.55 117.30
  A 0.79 0.79 0.0 0 0 103.76 118.09
  L 103.76 124.31
  A 0.79 0.79 0.0 0 0 104.55 125.10
  L 109.27 125.10
  A 0.79 0.79 0.0 0 0 110.06 124.31
  L 110.06 118.09"
/>
<path stroke="#533d3e" vector-effect="non-scaling-stroke" d="
  M 70.5527 118.5859
  A 0.62 0.62 0.0 0 0 69.9503 117.9488
  L 67.2713 117.8740
  A 0.62 0.62 0.0 0 0 66.6342 118.4764
  L 66.4673 124.4541
  A 0.62 0.62 0.0 0 0 67.0697 125.0912
  L 69.7487 125.1660
  A 0.62 0.62 0.0 0 0 70.3858 124.5636
  L 70.5527 118.5859"
/>
<path stroke="#533d3e" vector-effect="non-scaling-stroke" d="
  M 149.18 129.73
  C 119.22 130.95 89.33 131.03 59.33 130.98
  C 54.21 130.97 45.25 130.28 38.10 130.88
  A 0.65 0.65 0.0 0 0 37.54 131.73
  L 40.07 139.36
  Q 40.27 139.96 40.90 139.98
  C 44.03 140.09 53.12 137.74 52.14 143.40
  Q 52.04 143.98 51.55 144.28
  Q 48.34 146.24 44.47 145.44
  A 0.67 0.67 0.0 0 0 43.79 146.48
  Q 48.13 152.73 54.35 157.15
  Q 54.77 157.45 55.29 157.42
  C 58.48 157.26 66.41 155.68 67.68 159.58
  Q 67.85 160.12 67.52 160.58
  L 66.48 162.04
  Q 66.01 162.68 66.77 162.91
  Q 91.80 170.53 116.80 162.75
  A 0.54 0.54 0.0 0 0 116.84 161.73
  C 114.25 160.66 115.75 157.40 117.92 156.89
  Q 122.30 155.86 126.59 156.98
  Q 127.09 157.11 127.54 156.86
  Q 134.21 153.04 139.29 147.23
  A 0.26 0.26 0.0 0 0 139.07 146.80
  C 136.48 147.01 131.07 147.68 131.50 143.41
  A 2.30 2.30 0.0 0 1 133.70 141.34
  L 143.25 140.95
  A 2.11 2.09 14.1 0 0 144.96 139.94
  L 150.14 131.35
  Q 151.17 129.65 149.18 129.73"
/>
<path stroke="#98989a" vector-effect="non-scaling-stroke" d="
  M 115.05 85.10
  C 122.92 80.67 115.87 68.13 106.61 75.00
  Q 106.22 75.29 106.06 75.76
  C 103.68 82.82 106.70 89.80 115.05 85.10"
/>
<path stroke="#98989a" vector-effect="non-scaling-stroke" d="
  M 65.0840 94.8693
  A 3.25 2.76 53.7 0 0 65.3844 90.6160
  A 3.25 2.76 53.7 0 0 61.2360 89.6307
  A 3.25 2.76 53.7 0 0 60.9356 93.8840
  A 3.25 2.76 53.7 0 0 65.0840 94.8693"
/>
<path stroke="#98989a" vector-effect="non-scaling-stroke" d="
  M 77.6172 90.5935
  A 3.37 2.96 -40.9 0 0 73.1320 90.5627
  A 3.37 2.96 -40.9 0 0 72.5228 95.0065
  A 3.37 2.96 -40.9 0 0 77.0080 95.0373
  A 3.37 2.96 -40.9 0 0 77.6172 90.5935"
/>
<path stroke="#533d3e" vector-effect="non-scaling-stroke" d="
  M 71.6237 144.4549
  A 7.14 6.80 7.2 0 0 65.3923 136.8136
  A 7.14 6.80 7.2 0 0 57.4563 142.6651
  A 7.14 6.80 7.2 0 0 63.6877 150.3064
  A 7.14 6.80 7.2 0 0 71.6237 144.4549"
/>
<path stroke="#533d3e" vector-effect="non-scaling-stroke" d="
  M 98.3059 140.1609
  A 7.59 7.12 -31.0 0 0 88.1329 137.9670
  A 7.59 7.12 -31.0 0 0 85.2941 147.9791
  A 7.59 7.12 -31.0 0 0 95.4671 150.1730
  A 7.59 7.12 -31.0 0 0 98.3059 140.1609"
/>
<path stroke="#533d3e" vector-effect="non-scaling-stroke" d="
  M 117.0203 150.4368
  A 7.14 6.63 118.8 0 0 126.2699 147.3740
  A 7.14 6.63 118.8 0 0 123.8997 137.9232
  A 7.14 6.63 118.8 0 0 114.6501 140.9860
  A 7.14 6.63 118.8 0 0 117.0203 150.4368"
/>
<path stroke="#533d3e" vector-effect="non-scaling-stroke" d="
  M 108.8869 160.3556
  A 2.74 2.74 0.0 0 0 106.2146 157.5495
  L 77.6832 156.8522
  A 2.74 2.74 0.0 0 0 74.8770 159.5244
  L 74.8731 159.6844
  A 2.74 2.74 0.0 0 0 77.5454 162.4905
  L 106.0768 163.1878
  A 2.74 2.74 0.0 0 0 108.8830 160.5156
  L 108.8869 160.3556"
/>
</g>
<g fill="#38383c">
<path d="
  M 115.25 36.73
  Q 126.51 36.53 139.07 38.59
  C 143.66 39.34 144.97 41.52 145.82 46.07
  Q 148.82 62.05 148.98 75.25
  C 149.04 80.15 147.59 109.06 142.02 111.56
  C 133.21 115.52 126.23 116.09 116.43 116.82
  Q 115.85 116.86 115.84 117.45
  L 115.76 124.32
  Q 115.75 124.87 116.30 124.87
  Q 137.06 124.80 150.00 123.76
  C 156.50 123.24 157.75 128.26 155.43 133.20
  C 146.36 152.51 129.56 166.61 108.60 170.80
  C 89.68 174.58 64.11 172.31 48.40 159.84
  Q 34.62 148.90 31.78 130.21
  C 30.58 122.31 55.50 125.20 59.63 125.33
  Q 61.00 125.37 61.00 124.00
  L 61.00 118.50
  Q 61.00 117.88 60.39 117.79
  C 54.78 117.03 45.53 117.79 44.24 110.45
  Q 40.71 90.45 43.97 70.51
  A 2.06 2.06 0.0 0 1 45.89 68.79
  L 59.56 68.08
  Q 59.94 68.06 59.97 67.68
  Q 61.04 53.17 65.33 40.83
  C 66.91 36.29 92.95 36.74 97.61 36.68
  Q 98.14 36.67 98.14 36.15
  C 98.16 31.53 97.37 27.48 99.52 23.15
  Q 99.73 22.73 100.16 22.55
  Q 106.64 19.92 111.74 22.75
  C 115.72 24.97 114.23 32.15 114.62 36.17
  Q 114.67 36.74 115.25 36.73
  Z
  M 108.21 36.58
  A 0.61 0.60 -90.0 0 0 108.79 35.99
  L 109.05 28.39
  A 0.95 0.95 0.0 0 0 108.21 27.41
  L 104.49 26.96
  Q 103.64 26.86 103.67 27.72
  L 103.99 36.10
  Q 104.01 36.69 104.60 36.67
  L 108.21 36.58
  Z
  M 107.05 99.28
  Q 108.72 101.80 111.66 102.31
  Q 112.15 102.40 112.58 102.15
  C 116.03 100.20 116.04 95.88 115.22 92.48
  Q 115.11 92.04 115.53 91.88
  Q 124.27 88.67 124.61 78.49
  C 124.94 68.70 128.67 48.61 115.01 48.27
  C 104.32 48.01 91.93 46.91 82.73 53.40
  Q 82.27 53.73 82.06 54.24
  Q 79.38 60.86 79.79 68.03
  Q 79.82 68.54 80.33 68.57
  C 83.40 68.76 93.56 68.15 94.89 71.31
  C 97.95 78.56 97.52 91.68 96.85 100.09
  C 96.28 107.37 106.09 106.38 106.46 99.44
  Q 106.51 98.47 107.05 99.28
  Z
  M 71.1035 58.5170
  A 0.58 0.58 0.0 0 0 70.5686 57.8951
  L 67.3577 57.6537
  A 0.58 0.58 0.0 0 0 66.7358 58.1885
  L 66.0565 67.2230
  A 0.58 0.58 0.0 0 0 66.5914 67.8449
  L 69.8023 68.0863
  A 0.58 0.58 0.0 0 0 70.4242 67.5515
  L 71.1035 58.5170
  Z
  M 65.30 103.76
  C 65.73 107.92 71.41 108.70 71.91 104.48
  Q 71.98 103.87 72.50 104.20
  C 77.26 107.27 78.75 102.83 76.85 98.93
  Q 76.58 98.37 77.18 98.19
  C 84.57 96.00 83.06 78.10 76.33 76.20
  C 68.65 74.03 56.62 73.70 56.93 85.21
  C 57.08 90.57 56.89 94.00 60.58 97.43
  Q 60.99 97.81 60.77 98.33
  C 60.17 99.77 59.27 101.04 59.83 102.57
  C 60.58 104.63 63.07 104.99 64.77 103.55
  Q 65.24 103.15 65.30 103.76
  Z
  M 97.73 116.43
  Q 94.55 115.90 91.68 116.48
  C 86.47 117.52 82.18 117.71 77.07 117.81
  Q 76.62 117.81 76.58 118.26
  L 76.06 124.77
  Q 76.03 125.25 76.51 125.25
  L 97.56 125.25
  Q 98.11 125.25 98.10 124.70
  L 97.95 116.70
  Q 97.95 116.47 97.73 116.43
  Z
  M 110.06 118.09
  A 0.79 0.79 0.0 0 0 109.27 117.30
  L 104.55 117.30
  A 0.79 0.79 0.0 0 0 103.76 118.09
  L 103.76 124.31
  A 0.79 0.79 0.0 0 0 104.55 125.10
  L 109.27 125.10
  A 0.79 0.79 0.0 0 0 110.06 124.31
  L 110.06 118.09
  Z
  M 70.5527 118.5859
  A 0.62 0.62 0.0 0 0 69.9503 117.9488
  L 67.2713 117.8740
  A 0.62 0.62 0.0 0 0 66.6342 118.4764
  L 66.4673 124.4541
  A 0.62 0.62 0.0 0 0 67.0697 125.0912
  L 69.7487 125.1660
  A 0.62 0.62 0.0 0 0 70.3858 124.5636
  L 70.5527 118.5859
  Z
  M 149.18 129.73
  C 119.22 130.95 89.33 131.03 59.33 130.98
  C 54.21 130.97 45.25 130.28 38.10 130.88
  A 0.65 0.65 0.0 0 0 37.54 131.73
  L 40.07 139.36
  Q 40.27 139.96 40.90 139.98
  C 44.03 140.09 53.12 137.74 52.14 143.40
  Q 52.04 143.98 51.55 144.28
  Q 48.34 146.24 44.47 145.44
  A 0.67 0.67 0.0 0 0 43.79 146.48
  Q 48.13 152.73 54.35 157.15
  Q 54.77 157.45 55.29 157.42
  C 58.48 157.26 66.41 155.68 67.68 159.58
  Q 67.85 160.12 67.52 160.58
  L 66.48 162.04
  Q 66.01 162.68 66.77 162.91
  Q 91.80 170.53 116.80 162.75
  A 0.54 0.54 0.0 0 0 116.84 161.73
  C 114.25 160.66 115.75 157.40 117.92 156.89
  Q 122.30 155.86 126.59 156.98
  Q 127.09 157.11 127.54 156.86
  Q 134.21 153.04 139.29 147.23
  A 0.26 0.26 0.0 0 0 139.07 146.80
  C 136.48 147.01 131.07 147.68 131.50 143.41
  A 2.30 2.30 0.0 0 1 133.70 141.34
  L 143.25 140.95
  A 2.11 2.09 14.1 0 0 144.96 139.94
  L 150.14 131.35
  Q 151.17 129.65 149.18 129.73
  Z"
/>
<path d="
  M 106.61 75.00
  C 115.87 68.13 122.92 80.67 115.05 85.10
  C 106.70 89.80 103.68 82.82 106.06 75.76
  Q 106.22 75.29 106.61 75.00
  Z"
/>
<ellipse cx="0.00" cy="0.00" transform="translate(63.16,92.25) rotate(53.7)" rx="3.25" ry="2.76"/>
<ellipse cx="0.00" cy="0.00" transform="translate(75.07,92.80) rotate(-40.9)" rx="3.37" ry="2.96"/>
<ellipse cx="0.00" cy="0.00" transform="translate(64.54,143.56) rotate(7.2)" rx="7.14" ry="6.80"/>
<ellipse cx="0.00" cy="0.00" transform="translate(91.80,144.07) rotate(-31.0)" rx="7.59" ry="7.12"/>
<ellipse cx="0.00" cy="0.00" transform="translate(120.46,144.18) rotate(118.8)" rx="7.14" ry="6.63"/>
<rect x="-17.01" y="-2.82" transform="translate(91.88,160.02) rotate(1.4)" width="34.02" height="5.64" rx="2.74"/>
</g>
<g fill="#f8f8f8">
<path d="
  M 106.46 99.44
  C 106.09 106.38 96.28 107.37 96.85 100.09
  C 97.52 91.68 97.95 78.56 94.89 71.31
  C 93.56 68.15 83.40 68.76 80.33 68.57
  Q 79.82 68.54 79.79 68.03
  Q 79.38 60.86 82.06 54.24
  Q 82.27 53.73 82.73 53.40
  C 91.93 46.91 104.32 48.01 115.01 48.27
  C 128.67 48.61 124.94 68.70 124.61 78.49
  Q 124.27 88.67 115.53 91.88
  Q 115.11 92.04 115.22 92.48
  C 116.04 95.88 116.03 100.20 112.58 102.15
  Q 112.15 102.40 111.66 102.31
  Q 108.72 101.80 107.05 99.28
  Q 106.51 98.47 106.46 99.44
  Z
  M 115.05 85.10
  C 122.92 80.67 115.87 68.13 106.61 75.00
  Q 106.22 75.29 106.06 75.76
  C 103.68 82.82 106.70 89.80 115.05 85.10
  Z"
/>
<path d="
  M 64.77 103.55
  C 63.07 104.99 60.58 104.63 59.83 102.57
  C 59.27 101.04 60.17 99.77 60.77 98.33
  Q 60.99 97.81 60.58 97.43
  C 56.89 94.00 57.08 90.57 56.93 85.21
  C 56.62 73.70 68.65 74.03 76.33 76.20
  C 83.06 78.10 84.57 96.00 77.18 98.19
  Q 76.58 98.37 76.85 98.93
  C 78.75 102.83 77.26 107.27 72.50 104.20
  Q 71.98 103.87 71.91 104.48
  C 71.41 108.70 65.73 107.92 65.30 103.76
  Q 65.24 103.15 64.77 103.55
  Z
  M 65.0840 94.8693
  A 3.25 2.76 53.7 0 0 65.3844 90.6160
  A 3.25 2.76 53.7 0 0 61.2360 89.6307
  A 3.25 2.76 53.7 0 0 60.9356 93.8840
  A 3.25 2.76 53.7 0 0 65.0840 94.8693
  Z
  M 77.6172 90.5935
  A 3.37 2.96 -40.9 0 0 73.1320 90.5627
  A 3.37 2.96 -40.9 0 0 72.5228 95.0065
  A 3.37 2.96 -40.9 0 0 77.0080 95.0373
  A 3.37 2.96 -40.9 0 0 77.6172 90.5935
  Z"
/>
</g>
<g fill="#6e423f">
<path d="
  M 108.21 36.58
  L 104.60 36.67
  Q 104.01 36.69 103.99 36.10
  L 103.67 27.72
  Q 103.64 26.86 104.49 26.96
  L 108.21 27.41
  A 0.95 0.95 0.0 0 1 109.05 28.39
  L 108.79 35.99
  A 0.61 0.60 -90.0 0 1 108.21 36.58
  Z"
/>
<rect x="-2.19" y="-5.11" transform="translate(68.58,62.87) rotate(4.3)" width="4.38" height="10.22" rx="0.58"/>
<rect x="103.76" y="117.30" width="6.30" height="7.80" rx="0.79"/>
<rect x="-1.96" y="-3.61" transform="translate(68.51,121.52) rotate(1.6)" width="3.92" height="7.22" rx="0.62"/>
<path d="
  M 59.33 130.98
  C 89.33 131.03 119.22 130.95 149.18 129.73
  Q 151.17 129.65 150.14 131.35
  L 144.96 139.94
  A 2.11 2.09 14.1 0 1 143.25 140.95
  L 133.70 141.34
  A 2.30 2.30 0.0 0 0 131.50 143.41
  C 131.07 147.68 136.48 147.01 139.07 146.80
  A 0.26 0.26 0.0 0 1 139.29 147.23
  Q 134.21 153.04 127.54 156.86
  Q 127.09 157.11 126.59 156.98
  Q 122.30 155.86 117.92 156.89
  C 115.75 157.40 114.25 160.66 116.84 161.73
  A 0.54 0.54 0.0 0 1 116.80 162.75
  Q 91.80 170.53 66.77 162.91
  Q 66.01 162.68 66.48 162.04
  L 67.52 160.58
  Q 67.85 160.12 67.68 159.58
  C 66.41 155.68 58.48 157.26 55.29 157.42
  Q 54.77 157.45 54.35 157.15
  Q 48.13 152.73 43.79 146.48
  A 0.67 0.67 0.0 0 1 44.47 145.44
  Q 48.34 146.24 51.55 144.28
  Q 52.04 143.98 52.14 143.40
  C 53.12 137.74 44.03 140.09 40.90 139.98
  Q 40.27 139.96 40.07 139.36
  L 37.54 131.73
  A 0.65 0.65 0.0 0 1 38.10 130.88
  C 45.25 130.28 54.21 130.97 59.33 130.98
  Z
  M 71.6237 144.4549
  A 7.14 6.80 7.2 0 0 65.3923 136.8136
  A 7.14 6.80 7.2 0 0 57.4563 142.6651
  A 7.14 6.80 7.2 0 0 63.6877 150.3064
  A 7.14 6.80 7.2 0 0 71.6237 144.4549
  Z
  M 98.3059 140.1609
  A 7.59 7.12 -31.0 0 0 88.1329 137.9670
  A 7.59 7.12 -31.0 0 0 85.2941 147.9791
  A 7.59 7.12 -31.0 0 0 95.4671 150.1730
  A 7.59 7.12 -31.0 0 0 98.3059 140.1609
  Z
  M 117.0203 150.4368
  A 7.14 6.63 118.8 0 0 126.2699 147.3740
  A 7.14 6.63 118.8 0 0 123.8997 137.9232
  A 7.14 6.63 118.8 0 0 114.6501 140.9860
  A 7.14 6.63 118.8 0 0 117.0203 150.4368
  Z
  M 108.8869 160.3556
  A 2.74 2.74 0.0 0 0 106.2146 157.5495
  L 77.6832 156.8522
  A 2.74 2.74 0.0 0 0 74.8770 159.5244
  L 74.8731 159.6844
  A 2.74 2.74 0.0 0 0 77.5454 162.4905
  L 106.0768 163.1878
  A 2.74 2.74 0.0 0 0 108.8830 160.5156
  L 108.8869 160.3556
  Z"
/>
</g>
</svg>
