<?xml version="1.0" encoding="UTF-8" standalone="no"?>
<!DOCTYPE svg PUBLIC "-//W3C//DTD SVG 1.1//EN" "http://www.w3.org/Graphics/SVG/1.1/DTD/svg11.dtd">
<svg xmlns="http://www.w3.org/2000/svg" version="1.1" viewBox="0 0 180 180">
<g stroke-width="2.00" fill="none" stroke-linecap="butt">
<path stroke="#533d3e" vector-effect="non-scaling-stroke" d="
  M 85.75 35.54
  A 0.92 0.92 0.0 0 0 86.62 36.45
  L 90.05 36.63
  A 0.92 0.92 0.0 0 0 91.02 35.69
  L 90.91 30.28
  A 0.92 0.92 0.0 0 0 90.08 29.38
  L 86.76 29.05
  A 0.92 0.92 0.0 0 0 85.75 29.97
  L 85.75 35.54"
/>
<path stroke="#9c904e" vector-effect="non-scaling-stroke" d="
  M 87.75 49.85
  Q 89.01 52.26 88.41 55.08
  A 1.41 1.41 0.0 0 0 89.80 56.78
  C 91.65 56.76 98.78 57.06 97.46 60.79
  C 96.78 62.73 95.37 62.84 93.39 62.50
  C 86.74 61.38 78.14 63.26 74.34 69.48
  Q 74.01 70.02 74.56 70.33
  C 79.09 72.85 79.19 85.97 78.97 91.11
  A 0.69 0.68 7.4 0 0 79.52 91.81
  Q 89.25 93.84 97.84 90.44
  C 101.15 89.13 103.26 93.33 100.19 95.19
  Q 95.43 98.06 89.30 98.03
  Q 88.89 98.03 88.86 98.44
  L 88.44 104.09
  A 2.00 2.00 0.0 0 1 86.93 105.89
  C 81.93 107.14 83.74 101.12 83.42 98.63
  Q 83.36 98.13 82.86 98.08
  L 79.57 97.77
  Q 79.11 97.73 79.05 98.19
  L 77.44 111.11
  Q 77.28 112.34 78.52 112.40
  Q 100.02 113.44 121.27 109.97
  Q 121.99 109.85 122.13 109.13
  C 125.44 91.64 127.09 65.09 121.23 45.57
  A 1.60 1.60 0.0 0 0 119.85 44.44
  C 114.80 43.98 109.70 43.21 104.79 43.00
  C 94.41 42.56 83.27 41.84 73.65 42.34
  Q 62.46 42.92 51.54 44.88
  A 1.32 1.30 -88.9 0 0 50.48 45.92
  L 49.17 52.64
  Q 49.06 53.20 49.63 53.22
  C 53.52 53.35 58.16 52.44 58.39 58.09
  Q 58.58 62.68 57.87 67.82
  A 1.49 1.49 0.0 0 0 59.25 69.51
  L 67.74 69.99
  A 0.58 0.58 0.0 0 0 68.32 69.63
  Q 71.71 61.22 80.34 58.46
  Q 81.58 58.07 82.84 57.51
  Q 83.34 57.29 83.31 56.74
  C 83.10 53.75 82.74 49.33 86.26 49.03
  A 1.53 1.53 0.0 0 1 87.75 49.85"
/>
<path stroke="#533d3e" vector-effect="non-scaling-stroke" d="
  M 53.0631 59.4681
  A 0.56 0.56 0.0 0 0 52.5425 58.8713
  L 49.3299 58.6523
  A 0.56 0.56 0.0 0 0 48.7331 59.1729
  L 48.1169 68.2119
  A 0.56 0.56 0.0 0 0 48.6375 68.8087
  L 51.8501 69.0277
  A 0.56 0.56 0.0 0 0 52.4469 68.5071
  L 53.0631 59.4681"
/>
<path stroke="#9c904e" vector-effect="non-scaling-stroke" d="
  M 71.74 75.89
  Q 51.60 74.14 31.41 75.12
  A 0.61 0.61 0.0 0 0 30.83 75.66
  C 29.50 86.66 29.26 100.49 32.18 111.29
  Q 32.32 111.82 32.87 111.88
  C 37.20 112.36 41.34 113.01 45.70 113.02
  C 53.20 113.04 63.86 114.07 70.96 112.21
  Q 71.54 112.05 71.66 111.45
  Q 74.94 94.13 72.54 76.66
  A 0.88 0.88 0.0 0 0 71.74 75.89"
/>
<path stroke="#533d3e" vector-effect="non-scaling-stroke" d="
  M 42.18 145.76
  C 43.38 148.02 48.60 156.16 51.43 155.86
  Q 57.86 155.16 64.38 155.62
  A 2.06 2.05 2.6 0 1 66.29 157.71
  C 66.21 162.33 60.58 161.51 57.54 161.45
  Q 56.67 161.43 57.37 161.94
  Q 61.77 165.14 68.00 165.99
  C 86.61 168.53 106.02 168.35 123.39 161.94
  Q 124.18 161.65 123.48 161.18
  L 122.07 160.22
  Q 121.58 159.89 121.55 159.29
  C 121.23 152.84 131.20 157.00 135.17 154.38
  Q 139.28 151.68 141.68 147.09
  Q 141.96 146.56 141.36 146.56
  Q 124.48 146.59 107.61 146.06
  Q 107.51 146.05 104.57 146.35
  C 100.11 146.80 98.70 141.04 103.50 140.58
  Q 104.75 140.46 106.01 140.47
  Q 125.71 140.59 145.50 140.75
  Q 146.08 140.75 146.35 140.23
  L 150.04 132.94
  Q 150.64 131.77 149.32 131.79
  L 128.83 132.08
  A 2.30 2.30 0.0 0 1 126.53 130.11
  Q 125.97 126.28 130.01 126.31
  Q 141.20 126.39 152.01 126.05
  A 0.98 0.96 3.5 0 0 152.95 125.23
  L 154.01 118.53
  Q 154.08 118.09 153.63 118.06
  C 151.67 117.95 147.62 118.59 147.37 115.67
  C 147.03 111.87 151.29 112.31 153.81 112.22
  Q 154.55 112.20 154.57 111.45
  L 154.81 103.39
  A 1.70 1.70 0.0 0 0 153.07 101.64
  L 130.63 102.11
  A 1.90 1.89 0.6 0 0 128.76 103.93
  C 128.52 109.26 128.00 115.74 120.87 115.89
  A 1.37 1.36 -87.6 0 0 119.55 117.11
  C 119.01 122.26 119.92 131.95 112.42 132.15
  Q 80.13 133.03 51.43 132.35
  Q 43.88 132.18 37.82 132.63
  Q 37.13 132.69 37.33 133.36
  L 38.96 138.77
  Q 39.13 139.33 39.72 139.33
  Q 54.93 139.26 70.13 140.14
  C 74.63 140.40 72.15 145.81 68.99 145.76
  Q 55.87 145.52 42.66 145.00
  A 0.52 0.52 0.0 0 0 42.18 145.76"
/>
<path stroke="#533d3e" vector-effect="non-scaling-stroke" d="
  M 91.9335 119.1176
  A 0.65 0.65 0.0 0 0 91.2767 118.4745
  L 86.3570 118.5260
  A 0.65 0.65 0.0 0 0 85.7138 119.1828
  L 85.7865 126.1224
  A 0.65 0.65 0.0 0 0 86.4433 126.7655
  L 91.3630 126.7140
  A 0.65 0.65 0.0 0 0 92.0062 126.0572
  L 91.9335 119.1176"
/>
<path stroke="#533d3e" vector-effect="non-scaling-stroke" d="
  M 52.5396 119.3525
  A 0.29 0.29 0.0 0 0 52.2573 119.0550
  L 48.9185 118.9676
  A 0.29 0.29 0.0 0 0 48.6210 119.2499
  L 48.4404 126.1475
  A 0.29 0.29 0.0 0 0 48.7227 126.4450
  L 52.0615 126.5324
  A 0.29 0.29 0.0 0 0 52.3590 126.2501
  L 52.5396 119.3525"
/>
<path stroke="#9c904e" vector-effect="non-scaling-stroke" d="
  M 52.34 98.07
  C 42.69 98.50 46.07 87.14 53.13 88.64
  C 58.13 89.71 58.42 83.98 54.42 83.64
  Q 53.84 83.59 53.76 83.01
  C 53.65 82.18 54.07 81.61 53.90 80.82
  C 53.07 76.90 48.13 78.20 48.81 82.46
  Q 48.89 82.99 48.42 83.23
  C 39.79 87.61 37.14 100.50 48.91 103.17
  A 0.50 0.50 0.0 0 1 49.26 103.84
  C 47.88 107.22 51.57 110.30 53.72 107.06
  Q 53.98 106.65 53.99 106.16
  L 54.02 103.63
  Q 54.03 102.92 54.74 102.86
  Q 58.21 102.61 58.86 99.38
  Q 59.00 98.72 58.51 98.26
  Q 56.11 96.01 53.15 97.83
  Q 52.77 98.05 52.34 98.07"
/>
<path stroke="#533d3e" vector-effect="non-scaling-stroke" d="
  M 142.4818 114.8594
  A 2.62 2.62 0.0 0 0 139.9033 112.1986
  L 133.7640 112.1021
  A 2.62 2.62 0.0 0 0 131.1032 114.6806
  L 131.0982 115.0006
  A 2.62 2.62 0.0 0 0 133.6767 117.6614
  L 139.8160 117.7579
  A 2.62 2.62 0.0 0 0 142.4768 115.1794
  L 142.4818 114.8594"
/>
<path stroke="#533d3e" vector-effect="non-scaling-stroke" d="
  M 89.1193 142.6486
  A 2.60 2.60 0.0 0 0 86.4171 140.1550
  L 80.0822 140.4094
  A 2.60 2.60 0.0 0 0 77.5886 143.1117
  L 77.6007 143.4114
  A 2.60 2.60 0.0 0 0 80.3029 145.9050
  L 86.6378 145.6506
  A 2.60 2.60 0.0 0 0 89.1314 142.9483
  L 89.1193 142.6486"
/>
<path stroke="#533d3e" vector-effect="non-scaling-stroke" d="
  M 90.08 155.94
  C 86.30 156.18 74.49 154.57 72.32 157.44
  C 71.26 158.83 72.14 160.26 73.33 161.16
  Q 73.72 161.46 74.20 161.48
  Q 92.01 162.04 109.81 160.92
  C 113.30 160.70 113.32 155.58 108.83 155.50
  Q 99.45 155.33 90.08 155.94"
/>
</g>
<g fill="#38383c">
<path d="
  M 79.42 36.47
  A 0.93 0.93 0.0 0 0 80.32 35.36
  Q 79.47 30.83 80.76 26.74
  C 82.19 22.18 90.42 23.14 93.43 24.59
  C 97.50 26.57 96.39 32.84 96.54 36.48
  Q 96.56 37.05 97.14 37.06
  Q 107.56 37.16 121.92 39.12
  C 126.15 39.70 125.84 41.40 126.79 44.68
  C 131.56 61.03 130.85 78.77 130.10 95.61
  Q 130.07 96.14 130.60 96.17
  Q 139.41 96.54 147.99 95.82
  C 156.16 95.14 161.39 97.43 160.71 106.61
  C 159.98 116.58 159.74 125.43 155.56 134.75
  C 151.30 144.28 145.41 154.41 136.95 160.54
  C 118.70 173.78 96.56 174.36 73.56 172.42
  C 66.16 171.79 61.57 171.40 55.26 167.44
  Q 35.17 154.82 31.17 131.31
  C 30.43 126.92 39.79 126.47 42.32 126.65
  Q 43.00 126.70 43.00 126.02
  L 43.00 119.52
  Q 43.00 118.91 42.39 118.81
  Q 38.96 118.27 35.55 117.85
  C 27.80 116.91 26.97 115.51 25.85 108.35
  Q 23.05 90.44 25.83 72.51
  C 26.48 68.31 38.15 69.22 41.31 69.20
  Q 41.85 69.19 41.87 68.66
  Q 42.43 55.38 45.88 42.68
  C 47.33 37.31 74.57 36.56 79.42 36.47
  Z
  M 85.75 35.54
  A 0.92 0.92 0.0 0 0 86.62 36.45
  L 90.05 36.63
  A 0.92 0.92 0.0 0 0 91.02 35.69
  L 90.91 30.28
  A 0.92 0.92 0.0 0 0 90.08 29.38
  L 86.76 29.05
  A 0.92 0.92 0.0 0 0 85.75 29.97
  L 85.75 35.54
  Z
  M 87.75 49.85
  Q 89.01 52.26 88.41 55.08
  A 1.41 1.41 0.0 0 0 89.80 56.78
  C 91.65 56.76 98.78 57.06 97.46 60.79
  C 96.78 62.73 95.37 62.84 93.39 62.50
  C 86.74 61.38 78.14 63.26 74.34 69.48
  Q 74.01 70.02 74.56 70.33
  C 79.09 72.85 79.19 85.97 78.97 91.11
  A 0.69 0.68 7.4 0 0 79.52 91.81
  Q 89.25 93.84 97.84 90.44
  C 101.15 89.13 103.26 93.33 100.19 95.19
  Q 95.43 98.06 89.30 98.03
  Q 88.89 98.03 88.86 98.44
  L 88.44 104.09
  A 2.00 2.00 0.0 0 1 86.93 105.89
  C 81.93 107.14 83.74 101.12 83.42 98.63
  Q 83.36 98.13 82.86 98.08
  L 79.57 97.77
  Q 79.11 97.73 79.05 98.19
  L 77.44 111.11
  Q 77.28 112.34 78.52 112.40
  Q 100.02 113.44 121.27 109.97
  Q 121.99 109.85 122.13 109.13
  C 125.44 91.64 127.09 65.09 121.23 45.57
  A 1.60 1.60 0.0 0 0 119.85 44.44
  C 114.80 43.98 109.70 43.21 104.79 43.00
  C 94.41 42.56 83.27 41.84 73.65 42.34
  Q 62.46 42.92 51.54 44.88
  A 1.32 1.30 -88.9 0 0 50.48 45.92
  L 49.17 52.64
  Q 49.06 53.20 49.63 53.22
  C 53.52 53.35 58.16 52.44 58.39 58.09
  Q 58.58 62.68 57.87 67.82
  A 1.49 1.49 0.0 0 0 59.25 69.51
  L 67.74 69.99
  A 0.58 0.58 0.0 0 0 68.32 69.63
  Q 71.71 61.22 80.34 58.46
  Q 81.58 58.07 82.84 57.51
  Q 83.34 57.29 83.31 56.74
  C 83.10 53.75 82.74 49.33 86.26 49.03
  A 1.53 1.53 0.0 0 1 87.75 49.85
  Z
  M 53.0631 59.4681
  A 0.56 0.56 0.0 0 0 52.5425 58.8713
  L 49.3299 58.6523
  A 0.56 0.56 0.0 0 0 48.7331 59.1729
  L 48.1169 68.2119
  A 0.56 0.56 0.0 0 0 48.6375 68.8087
  L 51.8501 69.0277
  A 0.56 0.56 0.0 0 0 52.4469 68.5071
  L 53.0631 59.4681
  Z
  M 71.74 75.89
  Q 51.60 74.14 31.41 75.12
  A 0.61 0.61 0.0 0 0 30.83 75.66
  C 29.50 86.66 29.26 100.49 32.18 111.29
  Q 32.32 111.82 32.87 111.88
  C 37.20 112.36 41.34 113.01 45.70 113.02
  C 53.20 113.04 63.86 114.07 70.96 112.21
  Q 71.54 112.05 71.66 111.45
  Q 74.94 94.13 72.54 76.66
  A 0.88 0.88 0.0 0 0 71.74 75.89
  Z
  M 42.18 145.76
  C 43.38 148.02 48.60 156.16 51.43 155.86
  Q 57.86 155.16 64.38 155.62
  A 2.06 2.05 2.6 0 1 66.29 157.71
  C 66.21 162.33 60.58 161.51 57.54 161.45
  Q 56.67 161.43 57.37 161.94
  Q 61.77 165.14 68.00 165.99
  C 86.61 168.53 106.02 168.35 123.39 161.94
  Q 124.18 161.65 123.48 161.18
  L 122.07 160.22
  Q 121.58 159.89 121.55 159.29
  C 121.23 152.84 131.20 157.00 135.17 154.38
  Q 139.28 151.68 141.68 147.09
  Q 141.96 146.56 141.36 146.56
  Q 124.48 146.59 107.61 146.06
  Q 107.51 146.05 104.57 146.35
  C 100.11 146.80 98.70 141.04 103.50 140.58
  Q 104.75 140.46 106.01 140.47
  Q 125.71 140.59 145.50 140.75
  Q 146.08 140.75 146.35 140.23
  L 150.04 132.94
  Q 150.64 131.77 149.32 131.79
  L 128.83 132.08
  A 2.30 2.30 0.0 0 1 126.53 130.11
  Q 125.97 126.28 130.01 126.31
  Q 141.20 126.39 152.01 126.05
  A 0.98 0.96 3.5 0 0 152.95 125.23
  L 154.01 118.53
  Q 154.08 118.09 153.63 118.06
  C 151.67 117.95 147.62 118.59 147.37 115.67
  C 147.03 111.87 151.29 112.31 153.81 112.22
  Q 154.55 112.20 154.57 111.45
  L 154.81 103.39
  A 1.70 1.70 0.0 0 0 153.07 101.64
  L 130.63 102.11
  A 1.90 1.89 0.6 0 0 128.76 103.93
  C 128.52 109.26 128.00 115.74 120.87 115.89
  A 1.37 1.36 -87.6 0 0 119.55 117.11
  C 119.01 122.26 119.92 131.95 112.42 132.15
  Q 80.13 133.03 51.43 132.35
  Q 43.88 132.18 37.82 132.63
  Q 37.13 132.69 37.33 133.36
  L 38.96 138.77
  Q 39.13 139.33 39.72 139.33
  Q 54.93 139.26 70.13 140.14
  C 74.63 140.40 72.15 145.81 68.99 145.76
  Q 55.87 145.52 42.66 145.00
  A 0.52 0.52 0.0 0 0 42.18 145.76
  Z
  M 97.96 126.24
  A 0.31 0.31 0.0 0 0 98.27 126.54
  L 112.56 126.41
  A 0.31 0.31 0.0 0 0 112.86 126.13
  L 113.63 117.28
  A 0.31 0.31 0.0 0 0 113.29 116.95
  L 98.03 118.17
  A 0.31 0.31 0.0 0 0 97.75 118.48
  L 97.96 126.24
  Z
  M 79.32 118.27
  C 72.58 118.06 65.92 118.45 59.18 118.90
  Q 58.64 118.93 58.59 119.47
  L 57.99 126.22
  Q 57.94 126.74 58.47 126.74
  L 79.57 126.77
  A 0.51 0.51 0.0 0 0 80.08 126.25
  L 79.96 118.92
  Q 79.95 118.29 79.32 118.27
  Z
  M 91.9335 119.1176
  A 0.65 0.65 0.0 0 0 91.2767 118.4745
  L 86.3570 118.5260
  A 0.65 0.65 0.0 0 0 85.7138 119.1828
  L 85.7865 126.1224
  A 0.65 0.65 0.0 0 0 86.4433 126.7655
  L 91.3630 126.7140
  A 0.65 0.65 0.0 0 0 92.0062 126.0572
  L 91.9335 119.1176
  Z
  M 52.5396 119.3525
  A 0.29 0.29 0.0 0 0 52.2573 119.0550
  L 48.9185 118.9676
  A 0.29 0.29 0.0 0 0 48.6210 119.2499
  L 48.4404 126.1475
  A 0.29 0.29 0.0 0 0 48.7227 126.4450
  L 52.0615 126.5324
  A 0.29 0.29 0.0 0 0 52.3590 126.2501
  L 52.5396 119.3525
  Z"
/>
<path d="
  M 53.13 88.64
  C 46.07 87.14 42.69 98.50 52.34 98.07
  Q 52.77 98.05 53.15 97.83
  Q 56.11 96.01 58.51 98.26
  Q 59.00 98.72 58.86 99.38
  Q 58.21 102.61 54.74 102.86
  Q 54.03 102.92 54.02 103.63
  L 53.99 106.16
  Q 53.98 106.65 53.72 107.06
  C 51.57 110.30 47.88 107.22 49.26 103.84
  A 0.50 0.50 0.0 0 0 48.91 103.17
  C 37.14 100.50 39.79 87.61 48.42 83.23
  Q 48.89 82.99 48.81 82.46
  C 48.13 78.20 53.07 76.90 53.90 80.82
  C 54.07 81.61 53.65 82.18 53.76 83.01
  Q 53.84 83.59 54.42 83.64
  C 58.42 83.98 58.13 89.71 53.13 88.64
  Z"
/>
<rect x="-5.69" y="-2.78" transform="translate(136.79,114.93) rotate(0.9)" width="11.38" height="5.56" rx="2.62"/>
<rect x="-5.77" y="-2.75" transform="translate(83.36,143.03) rotate(-2.3)" width="11.54" height="5.50" rx="2.60"/>
<path d="
  M 90.08 155.94
  Q 99.45 155.33 108.83 155.50
  C 113.32 155.58 113.30 160.70 109.81 160.92
  Q 92.01 162.04 74.20 161.48
  Q 73.72 161.46 73.33 161.16
  C 72.14 160.26 71.26 158.83 72.32 157.44
  C 74.49 154.57 86.30 156.18 90.08 155.94
  Z"
/>
</g>
<g fill="#ffe75f">
<path d="
  M 87.75 49.85
  A 1.53 1.53 0.0 0 0 86.26 49.03
  C 82.74 49.33 83.10 53.75 83.31 56.74
  Q 83.34 57.29 82.84 57.51
  Q 81.58 58.07 80.34 58.46
  Q 71.71 61.22 68.32 69.63
  A 0.58 0.58 0.0 0 1 67.74 69.99
  L 59.25 69.51
  A 1.49 1.49 0.0 0 1 57.87 67.82
  Q 58.58 62.68 58.39 58.09
  C 58.16 52.44 53.52 53.35 49.63 53.22
  Q 49.06 53.20 49.17 52.64
  L 50.48 45.92
  A 1.32 1.30 -88.9 0 1 51.54 44.88
  Q 62.46 42.92 73.65 42.34
  C 83.27 41.84 94.41 42.56 104.79 43.00
  C 109.70 43.21 114.80 43.98 119.85 44.44
  A 1.60 1.60 0.0 0 1 121.23 45.57
  C 127.09 65.09 125.44 91.64 122.13 109.13
  Q 121.99 109.85 121.27 109.97
  Q 100.02 113.44 78.52 112.40
  Q 77.28 112.34 77.44 111.11
  L 79.05 98.19
  Q 79.11 97.73 79.57 97.77
  L 82.86 98.08
  Q 83.36 98.13 83.42 98.63
  C 83.74 101.12 81.93 107.14 86.93 105.89
  A 2.00 2.00 0.0 0 0 88.44 104.09
  L 88.86 98.44
  Q 88.89 98.03 89.30 98.03
  Q 95.43 98.06 100.19 95.19
  C 103.26 93.33 101.15 89.13 97.84 90.44
  Q 89.25 93.84 79.52 91.81
  A 0.69 0.68 7.4 0 1 78.97 91.11
  C 79.19 85.97 79.09 72.85 74.56 70.33
  Q 74.01 70.02 74.34 69.48
  C 78.14 63.26 86.74 61.38 93.39 62.50
  C 95.37 62.84 96.78 62.73 97.46 60.79
  C 98.78 57.06 91.65 56.76 89.80 56.78
  A 1.41 1.41 0.0 0 1 88.41 55.08
  Q 89.01 52.26 87.75 49.85
  Z"
/>
<path d="
  M 71.74 75.89
  A 0.88 0.88 0.0 0 1 72.54 76.66
  Q 74.94 94.13 71.66 111.45
  Q 71.54 112.05 70.96 112.21
  C 63.86 114.07 53.20 113.04 45.70 113.02
  C 41.34 113.01 37.20 112.36 32.87 111.88
  Q 32.32 111.82 32.18 111.29
  C 29.26 100.49 29.50 86.66 30.83 75.66
  A 0.61 0.61 0.0 0 1 31.41 75.12
  Q 51.60 74.14 71.74 75.89
  Z
  M 52.34 98.07
  C 42.69 98.50 46.07 87.14 53.13 88.64
  C 58.13 89.71 58.42 83.98 54.42 83.64
  Q 53.84 83.59 53.76 83.01
  C 53.65 82.18 54.07 81.61 53.90 80.82
  C 53.07 76.90 48.13 78.20 48.81 82.46
  Q 48.89 82.99 48.42 83.23
  C 39.79 87.61 37.14 100.50 48.91 103.17
  A 0.50 0.50 0.0 0 1 49.26 103.84
  C 47.88 107.22 51.57 110.30 53.72 107.06
  Q 53.98 106.65 53.99 106.16
  L 54.02 103.63
  Q 54.03 102.92 54.74 102.86
  Q 58.21 102.61 58.86 99.38
  Q 59.00 98.72 58.51 98.26
  Q 56.11 96.01 53.15 97.83
  Q 52.77 98.05 52.34 98.07
  Z"
/>
</g>
<g fill="#6e423f">
<path d="
  M 85.75 35.54
  L 85.75 29.97
  A 0.92 0.92 0.0 0 1 86.76 29.05
  L 90.08 29.38
  A 0.92 0.92 0.0 0 1 90.91 30.28
  L 91.02 35.69
  A 0.92 0.92 0.0 0 1 90.05 36.63
  L 86.62 36.45
  A 0.92 0.92 0.0 0 1 85.75 35.54
  Z"
/>
<rect x="-2.17" y="-5.09" transform="translate(50.59,63.84) rotate(3.9)" width="4.34" height="10.18" rx="0.56"/>
<path d="
  M 51.43 155.86
  C 48.60 156.16 43.38 148.02 42.18 145.76
  A 0.52 0.52 0.0 0 1 42.66 145.00
  Q 55.87 145.52 68.99 145.76
  C 72.15 145.81 74.63 140.40 70.13 140.14
  Q 54.93 139.26 39.72 139.33
  Q 39.13 139.33 38.96 138.77
  L 37.33 133.36
  Q 37.13 132.69 37.82 132.63
  Q 43.88 132.18 51.43 132.35
  Q 80.13 133.03 112.42 132.15
  C 119.92 131.95 119.01 122.26 119.55 117.11
  A 1.37 1.36 -87.6 0 1 120.87 115.89
  C 128.00 115.74 128.52 109.26 128.76 103.93
  A 1.90 1.89 0.6 0 1 130.63 102.11
  L 153.07 101.64
  A 1.70 1.70 0.0 0 1 154.81 103.39
  L 154.57 111.45
  Q 154.55 112.20 153.81 112.22
  C 151.29 112.31 147.03 111.87 147.37 115.67
  C 147.62 118.59 151.67 117.95 153.63 118.06
  Q 154.08 118.09 154.01 118.53
  L 152.95 125.23
  A 0.98 0.96 3.5 0 1 152.01 126.05
  Q 141.20 126.39 130.01 126.31
  Q 125.97 126.28 126.53 130.11
  A 2.30 2.30 0.0 0 0 128.83 132.08
  L 149.32 131.79
  Q 150.64 131.77 150.04 132.94
  L 146.35 140.23
  Q 146.08 140.75 145.50 140.75
  Q 125.71 140.59 106.01 140.47
  Q 104.75 140.46 103.50 140.58
  C 98.70 141.04 100.11 146.80 104.57 146.35
  Q 107.51 146.05 107.61 146.06
  Q 124.48 146.59 141.36 146.56
  Q 141.96 146.56 141.68 147.09
  Q 139.28 151.68 135.17 154.38
  C 131.20 157.00 121.23 152.84 121.55 159.29
  Q 121.58 159.89 122.07 160.22
  L 123.48 161.18
  Q 124.18 161.65 123.39 161.94
  C 106.02 168.35 86.61 168.53 68.00 165.99
  Q 61.77 165.14 57.37 161.94
  Q 56.67 161.43 57.54 161.45
  C 60.58 161.51 66.21 162.33 66.29 157.71
  A 2.06 2.05 2.6 0 0 64.38 155.62
  Q 57.86 155.16 51.43 155.86
  Z
  M 142.4818 114.8594
  A 2.62 2.62 0.0 0 0 139.9033 112.1986
  L 133.7640 112.1021
  A 2.62 2.62 0.0 0 0 131.1032 114.6806
  L 131.0982 115.0006
  A 2.62 2.62 0.0 0 0 133.6767 117.6614
  L 139.8160 117.7579
  A 2.62 2.62 0.0 0 0 142.4768 115.1794
  L 142.4818 114.8594
  Z
  M 89.1193 142.6486
  A 2.60 2.60 0.0 0 0 86.4171 140.1550
  L 80.0822 140.4094
  A 2.60 2.60 0.0 0 0 77.5886 143.1117
  L 77.6007 143.4114
  A 2.60 2.60 0.0 0 0 80.3029 145.9050
  L 86.6378 145.6506
  A 2.60 2.60 0.0 0 0 89.1314 142.9483
  L 89.1193 142.6486
  Z
  M 90.08 155.94
  C 86.30 156.18 74.49 154.57 72.32 157.44
  C 71.26 158.83 72.14 160.26 73.33 161.16
  Q 73.72 161.46 74.20 161.48
  Q 92.01 162.04 109.81 160.92
  C 113.30 160.70 113.32 155.58 108.83 155.50
  Q 99.45 155.33 90.08 155.94
  Z"
/>
<rect x="-3.11" y="-4.12" transform="translate(88.86,122.62) rotate(-0.6)" width="6.22" height="8.24" rx="0.65"/>
<rect x="-1.96" y="-3.74" transform="translate(50.49,122.75) rotate(1.5)" width="3.92" height="7.48" rx="0.29"/>
</g>
</svg>
