<?xml version="1.0" encoding="UTF-8" standalone="no"?>
<!DOCTYPE svg PUBLIC "-//W3C//DTD SVG 1.1//EN" "http://www.w3.org/Graphics/SVG/1.1/DTD/svg11.dtd">
<svg xmlns="http://www.w3.org/2000/svg" version="1.1" viewBox="0 0 180 180">
<g stroke-width="2.00" fill="none" stroke-linecap="butt">
<path stroke="#927a6d" vector-effect="non-scaling-stroke" d="
  M 150.39 80.64
  C 143.11 68.52 122.35 73.73 111.95 77.25
  A 0.69 0.68 -13.1 0 0 111.49 77.98
  Q 114.22 99.63 112.77 121.40
  Q 112.74 121.87 113.21 121.87
  L 146.22 122.32
  Q 146.62 122.32 146.85 122.00
  C 148.67 119.56 150.87 117.06 152.14 114.64
  C 157.73 104.01 156.50 90.81 150.39 80.64"
/>
<path stroke="#927a6d" vector-effect="non-scaling-stroke" d="
  M 70.34 77.12
  C 61.44 74.10 53.39 73.12 43.87 74.43
  C 38.99 75.09 31.98 75.84 30.08 78.56
  Q 24.71 86.25 25.37 95.94
  C 25.87 103.17 31.37 122.12 41.78 122.23
  Q 55.65 122.37 69.62 122.12
  Q 70.15 122.11 70.09 121.58
  C 68.49 107.82 67.88 90.23 70.77 77.90
  A 0.66 0.66 0.0 0 0 70.34 77.12"
/>
<path stroke="#927a6d" vector-effect="non-scaling-stroke" d="
  M 105.36 78.00
  C 95.38 77.25 86.78 76.46 76.75 78.17
  Q 76.25 78.26 76.13 78.76
  Q 75.36 82.19 75.04 87.27
  Q 73.93 105.12 75.75 121.20
  Q 75.79 121.63 76.22 121.63
  L 105.89 121.69
  A 1.08 1.07 3.0 0 0 106.96 120.73
  C 108.42 107.03 107.71 92.19 106.00 78.61
  Q 105.93 78.05 105.36 78.00"
/>
<path stroke="#533d3e" vector-effect="non-scaling-stroke" d="
  M 145.12 128.40
  Q 138.41 127.86 131.75 127.81
  C 110.93 127.62 90.14 127.30 69.32 127.93
  Q 55.22 128.36 41.12 127.84
  A 0.89 0.89 0.0 0 0 40.20 128.73
  L 40.09 148.75
  Q 40.09 149.41 40.74 149.38
  L 44.80 149.19
  Q 45.40 149.17 45.47 148.57
  C 46.89 136.16 60.90 132.15 71.16 135.59
  C 76.99 137.55 80.19 143.67 81.66 149.27
  Q 81.80 149.81 82.36 149.80
  L 104.85 149.39
  Q 105.39 149.38 105.50 148.84
  C 109.14 129.74 137.38 127.22 141.53 148.02
  Q 141.65 148.62 142.25 148.56
  L 146.02 148.21
  Q 146.91 148.12 146.85 147.22
  L 145.49 128.77
  Q 145.46 128.43 145.12 128.40"
/>
<path stroke="#533d3e" vector-effect="non-scaling-stroke" d="
  M 134.90 160.91
  C 138.50 153.13 135.77 138.51 124.28 139.02
  C 110.02 139.65 106.72 155.01 116.78 163.24
  C 122.48 167.89 131.36 168.56 134.90 160.91"
/>
<path stroke="#533d3e" vector-effect="non-scaling-stroke" d="
  M 68.46 140.72
  C 57.51 137.76 48.97 143.69 51.24 155.54
  C 52.84 163.83 66.91 170.34 72.92 163.40
  C 78.24 157.27 77.20 143.09 68.46 140.72"
/>
<path stroke="#927a6d" vector-effect="non-scaling-stroke" d="
  M 146.3342 85.9189
  A 2.34 2.34 0.0 0 0 143.1563 84.9957
  L 142.9110 85.1306
  A 2.34 2.34 0.0 0 0 141.9877 88.3084
  L 143.8858 91.7611
  A 2.34 2.34 0.0 0 0 147.0637 92.6843
  L 147.3090 92.5494
  A 2.34 2.34 0.0 0 0 148.2323 89.3716
  L 146.3342 85.9189"
/>
<path stroke="#927a6d" vector-effect="non-scaling-stroke" d="
  M 147.29 98.37
  C 142.53 97.15 144.53 103.13 144.01 105.55
  Q 142.70 111.60 139.34 116.14
  A 2.11 2.11 0.0 0 0 139.61 118.94
  Q 142.02 121.15 143.91 118.72
  Q 150.39 110.40 148.90 100.16
  A 2.17 2.17 0.0 0 0 147.29 98.37"
/>
<path stroke="#927a6d" vector-effect="non-scaling-stroke" d="
  M 34.9417 89.3764
  A 2.33 2.33 0.0 0 0 33.3593 86.4861
  L 33.0713 86.4019
  A 2.33 2.33 0.0 0 0 30.1810 87.9843
  L 29.0583 91.8236
  A 2.33 2.33 0.0 0 0 30.6407 94.7139
  L 30.9287 94.7981
  A 2.33 2.33 0.0 0 0 33.8190 93.2157
  L 34.9417 89.3764"
/>
<path stroke="#927a6d" vector-effect="non-scaling-stroke" d="
  M 33.92 100.10
  Q 31.66 99.72 30.78 101.95
  Q 30.61 102.40 30.68 102.88
  Q 31.88 110.50 36.64 117.15
  C 39.48 121.12 44.17 118.35 41.32 114.55
  Q 36.98 108.74 35.45 101.56
  A 1.88 1.88 0.0 0 0 33.92 100.10"
/>
<path stroke="#927a6d" vector-effect="non-scaling-stroke" d="
  M 103.8636 88.8910
  A 2.22 2.22 0.0 0 0 101.5415 86.7781
  L 101.2618 86.7913
  A 2.22 2.22 0.0 0 0 99.1489 89.1134
  L 99.3364 93.0890
  A 2.22 2.22 0.0 0 0 101.6585 95.2019
  L 101.9382 95.1887
  A 2.22 2.22 0.0 0 0 104.0511 92.8666
  L 103.8636 88.8910"
/>
<path stroke="#927a6d" vector-effect="non-scaling-stroke" d="
  M 104.2572 104.6734
  A 2.42 2.42 0.0 0 0 101.7624 102.3306
  L 101.5425 102.3375
  A 2.42 2.42 0.0 0 0 99.1997 104.8323
  L 99.5628 116.3866
  A 2.42 2.42 0.0 0 0 102.0576 118.7294
  L 102.2775 118.7225
  A 2.42 2.42 0.0 0 0 104.6203 116.2277
  L 104.2572 104.6734"
/>
<path stroke="#533d3e" vector-effect="non-scaling-stroke" d="
  M 94.6734 138.0995
  A 2.65 2.65 0.0 0 0 91.9505 135.5245
  L 82.1743 135.7976
  A 2.65 2.65 0.0 0 0 79.5993 138.5206
  L 79.6066 138.7805
  A 2.65 2.65 0.0 0 0 82.3295 141.3555
  L 92.1057 141.0824
  A 2.65 2.65 0.0 0 0 94.6807 138.3594
  L 94.6734 138.0995"
/>
<path stroke="#533d3e" vector-effect="non-scaling-stroke" d="
  M 105.8893 138.6250
  A 4.30 2.85 -1.0 0 0 101.5403 135.8504
  A 4.30 2.85 -1.0 0 0 97.2907 138.7750
  A 4.30 2.85 -1.0 0 0 101.6397 141.5496
  A 4.30 2.85 -1.0 0 0 105.8893 138.6250"
/>
<path stroke="#533d3e" vector-effect="non-scaling-stroke" d="
  M 129.6320 144.9278
  A 2.35 2.35 0.0 0 0 126.3327 144.5285
  L 126.1438 144.6766
  A 2.35 2.35 0.0 0 0 125.7445 147.9759
  L 128.1880 151.0922
  A 2.35 2.35 0.0 0 0 131.4873 151.4915
  L 131.6762 151.3434
  A 2.35 2.35 0.0 0 0 132.0755 148.0441
  L 129.6320 144.9278"
/>
<path stroke="#533d3e" vector-effect="non-scaling-stroke" d="
  M 121.2348 146.1707
  A 2.51 2.51 0.0 0 0 117.6975 145.8737
  L 117.4684 146.0673
  A 2.51 2.51 0.0 0 0 117.1714 149.6045
  L 126.2852 160.3893
  A 2.51 2.51 0.0 0 0 129.8225 160.6863
  L 130.0516 160.4927
  A 2.51 2.51 0.0 0 0 130.3486 156.9555
  L 121.2348 146.1707"
/>
<path stroke="#533d3e" vector-effect="non-scaling-stroke" d="
  M 119.1135 155.0750
  A 2.28 2.28 0.0 0 0 115.8962 154.8613
  L 115.7005 155.0325
  A 2.28 2.28 0.0 0 0 115.4868 158.2498
  L 118.2665 161.4250
  A 2.28 2.28 0.0 0 0 121.4838 161.6387
  L 121.6795 161.4675
  A 2.28 2.28 0.0 0 0 121.8932 158.2502
  L 119.1135 155.0750"
/>
<path stroke="#533d3e" vector-effect="non-scaling-stroke" d="
  M 61.2645 144.9581
  A 2.32 2.32 0.0 0 0 57.9919 144.7235
  L 54.8929 147.4079
  A 2.32 2.32 0.0 0 0 54.6584 150.6805
  L 54.8155 150.8619
  A 2.32 2.32 0.0 0 0 58.0881 151.0965
  L 61.1871 148.4121
  A 2.32 2.32 0.0 0 0 61.4216 145.1395
  L 61.2645 144.9581"
/>
<path stroke="#533d3e" vector-effect="non-scaling-stroke" d="
  M 70.7904 149.3683
  A 2.29 2.29 0.0 0 0 70.6887 146.1314
  L 70.2513 145.7206
  A 2.29 2.29 0.0 0 0 67.0143 145.8224
  L 57.3896 156.0717
  A 2.29 2.29 0.0 0 0 57.4913 159.3086
  L 57.9287 159.7194
  A 2.29 2.29 0.0 0 0 61.1657 159.6176
  L 70.7904 149.3683"
/>
<path stroke="#533d3e" vector-effect="non-scaling-stroke" d="
  M 72.1680 158.5771
  A 2.32 2.32 0.0 0 0 71.8991 155.3072
  L 71.6856 155.1261
  A 2.32 2.32 0.0 0 0 68.4156 155.3949
  L 65.7120 158.5829
  A 2.32 2.32 0.0 0 0 65.9809 161.8528
  L 66.1944 162.0339
  A 2.32 2.32 0.0 0 0 69.4644 161.7651
  L 72.1680 158.5771"
/>
</g>
<g fill="#38383c">
<path d="
  M 81.83 156.14
  C 78.03 180.39 50.34 174.34 44.89 155.45
  Q 44.75 154.95 44.22 154.98
  C 41.64 155.12 35.02 155.41 34.69 151.50
  Q 34.00 143.10 34.99 126.81
  Q 35.02 126.27 34.57 125.99
  C 32.60 124.73 30.63 123.47 29.25 121.54
  C 19.98 108.52 15.69 90.42 24.85 76.33
  C 29.15 69.72 40.06 69.16 45.95 68.54
  Q 60.76 67.00 74.45 72.58
  Q 74.91 72.76 75.41 72.68
  Q 88.13 70.53 95.51 71.26
  C 99.99 71.70 106.67 73.23 110.91 71.75
  C 123.06 67.51 144.86 62.87 153.84 75.92
  C 164.63 91.62 164.22 111.84 150.76 125.70
  Q 150.40 126.07 150.48 126.58
  Q 152.77 142.04 152.27 151.74
  C 152.11 154.95 145.30 154.11 142.91 154.35
  Q 142.42 154.39 142.34 154.87
  C 140.84 163.13 138.23 169.91 129.91 171.95
  C 118.69 174.70 108.65 166.33 105.44 155.69
  A 0.82 0.82 0.0 0 0 104.64 155.11
  L 82.38 155.66
  Q 81.90 155.67 81.83 156.14
  Z
  M 150.39 80.64
  C 143.11 68.52 122.35 73.73 111.95 77.25
  A 0.69 0.68 -13.1 0 0 111.49 77.98
  Q 114.22 99.63 112.77 121.40
  Q 112.74 121.87 113.21 121.87
  L 146.22 122.32
  Q 146.62 122.32 146.85 122.00
  C 148.67 119.56 150.87 117.06 152.14 114.64
  C 157.73 104.01 156.50 90.81 150.39 80.64
  Z
  M 70.34 77.12
  C 61.44 74.10 53.39 73.12 43.87 74.43
  C 38.99 75.09 31.98 75.84 30.08 78.56
  Q 24.71 86.25 25.37 95.94
  C 25.87 103.17 31.37 122.12 41.78 122.23
  Q 55.65 122.37 69.62 122.12
  Q 70.15 122.11 70.09 121.58
  C 68.49 107.82 67.88 90.23 70.77 77.90
  A 0.66 0.66 0.0 0 0 70.34 77.12
  Z
  M 105.36 78.00
  C 95.38 77.25 86.78 76.46 76.75 78.17
  Q 76.25 78.26 76.13 78.76
  Q 75.36 82.19 75.04 87.27
  Q 73.93 105.12 75.75 121.20
  Q 75.79 121.63 76.22 121.63
  L 105.89 121.69
  A 1.08 1.07 3.0 0 0 106.96 120.73
  C 108.42 107.03 107.71 92.19 106.00 78.61
  Q 105.93 78.05 105.36 78.00
  Z
  M 145.12 128.40
  Q 138.41 127.86 131.75 127.81
  C 110.93 127.62 90.14 127.30 69.32 127.93
  Q 55.22 128.36 41.12 127.84
  A 0.89 0.89 0.0 0 0 40.20 128.73
  L 40.09 148.75
  Q 40.09 149.41 40.74 149.38
  L 44.80 149.19
  Q 45.40 149.17 45.47 148.57
  C 46.89 136.16 60.90 132.15 71.16 135.59
  C 76.99 137.55 80.19 143.67 81.66 149.27
  Q 81.80 149.81 82.36 149.80
  L 104.85 149.39
  Q 105.39 149.38 105.50 148.84
  C 109.14 129.74 137.38 127.22 141.53 148.02
  Q 141.65 148.62 142.25 148.56
  L 146.02 148.21
  Q 146.91 148.12 146.85 147.22
  L 145.49 128.77
  Q 145.46 128.43 145.12 128.40
  Z
  M 134.90 160.91
  C 138.50 153.13 135.77 138.51 124.28 139.02
  C 110.02 139.65 106.72 155.01 116.78 163.24
  C 122.48 167.89 131.36 168.56 134.90 160.91
  Z
  M 68.46 140.72
  C 57.51 137.76 48.97 143.69 51.24 155.54
  C 52.84 163.83 66.91 170.34 72.92 163.40
  C 78.24 157.27 77.20 143.09 68.46 140.72
  Z"
/>
<rect x="-2.48" y="-4.31" transform="translate(145.11,88.84) rotate(-28.8)" width="4.96" height="8.62" rx="2.34"/>
<rect x="-2.48" y="-4.33" transform="translate(32.00,90.60) rotate(16.3)" width="4.96" height="8.66" rx="2.33"/>
<rect x="-2.36" y="-4.21" transform="translate(101.60,90.99) rotate(-2.7)" width="4.72" height="8.42" rx="2.22"/>
<path d="
  M 147.29 98.37
  A 2.17 2.17 0.0 0 1 148.90 100.16
  Q 150.39 110.40 143.91 118.72
  Q 142.02 121.15 139.61 118.94
  A 2.11 2.11 0.0 0 1 139.34 116.14
  Q 142.70 111.60 144.01 105.55
  C 144.53 103.13 142.53 97.15 147.29 98.37
  Z"
/>
<path d="
  M 33.92 100.10
  A 1.88 1.88 0.0 0 1 35.45 101.56
  Q 36.98 108.74 41.32 114.55
  C 44.17 118.35 39.48 121.12 36.64 117.15
  Q 31.88 110.50 30.68 102.88
  Q 30.61 102.40 30.78 101.95
  Q 31.66 99.72 33.92 100.10
  Z"
/>
<rect x="-2.53" y="-8.20" transform="translate(101.91,110.53) rotate(-1.8)" width="5.06" height="16.40" rx="2.42"/>
<rect x="-7.54" y="-2.78" transform="translate(87.14,138.44) rotate(-1.6)" width="15.08" height="5.56" rx="2.65"/>
<ellipse cx="0.00" cy="0.00" transform="translate(101.59,138.70) rotate(-1.0)" rx="4.30" ry="2.85"/>
<rect x="-2.47" y="-4.33" transform="translate(128.91,148.01) rotate(-38.1)" width="4.94" height="8.66" rx="2.35"/>
<rect x="-4.37" y="-2.44" transform="translate(58.04,147.91) rotate(-40.9)" width="8.74" height="4.88" rx="2.32"/>
<rect x="-2.59" y="-9.32" transform="translate(64.09,152.72) rotate(43.2)" width="5.18" height="18.64" rx="2.29"/>
<rect x="-2.66" y="-9.57" transform="translate(123.76,153.28) rotate(-40.2)" width="5.32" height="19.14" rx="2.51"/>
<rect x="-2.41" y="-4.39" transform="translate(118.69,158.25) rotate(-41.2)" width="4.82" height="8.78" rx="2.28"/>
<rect x="-2.46" y="-4.41" transform="translate(68.94,158.58) rotate(40.3)" width="4.92" height="8.82" rx="2.32"/>
</g>
<g fill="#ebbc9e">
<path d="
  M 111.95 77.25
  C 122.35 73.73 143.11 68.52 150.39 80.64
  C 156.50 90.81 157.73 104.01 152.14 114.64
  C 150.87 117.06 148.67 119.56 146.85 122.00
  Q 146.62 122.32 146.22 122.32
  L 113.21 121.87
  Q 112.74 121.87 112.77 121.40
  Q 114.22 99.63 111.49 77.98
  A 0.69 0.68 -13.1 0 1 111.95 77.25
  Z
  M 146.3342 85.9189
  A 2.34 2.34 0.0 0 0 143.1563 84.9957
  L 142.9110 85.1306
  A 2.34 2.34 0.0 0 0 141.9877 88.3084
  L 143.8858 91.7611
  A 2.34 2.34 0.0 0 0 147.0637 92.6843
  L 147.3090 92.5494
  A 2.34 2.34 0.0 0 0 148.2323 89.3716
  L 146.3342 85.9189
  Z
  M 147.29 98.37
  C 142.53 97.15 144.53 103.13 144.01 105.55
  Q 142.70 111.60 139.34 116.14
  A 2.11 2.11 0.0 0 0 139.61 118.94
  Q 142.02 121.15 143.91 118.72
  Q 150.39 110.40 148.90 100.16
  A 2.17 2.17 0.0 0 0 147.29 98.37
  Z"
/>
<path d="
  M 70.34 77.12
  A 0.66 0.66 0.0 0 1 70.77 77.90
  C 67.88 90.23 68.49 107.82 70.09 121.58
  Q 70.15 122.11 69.62 122.12
  Q 55.65 122.37 41.78 122.23
  C 31.37 122.12 25.87 103.17 25.37 95.94
  Q 24.71 86.25 30.08 78.56
  C 31.98 75.84 38.99 75.09 43.87 74.43
  C 53.39 73.12 61.44 74.10 70.34 77.12
  Z
  M 34.9417 89.3764
  A 2.33 2.33 0.0 0 0 33.3593 86.4861
  L 33.0713 86.4019
  A 2.33 2.33 0.0 0 0 30.1810 87.9843
  L 29.0583 91.8236
  A 2.33 2.33 0.0 0 0 30.6407 94.7139
  L 30.9287 94.7981
  A 2.33 2.33 0.0 0 0 33.8190 93.2157
  L 34.9417 89.3764
  Z
  M 33.92 100.10
  Q 31.66 99.72 30.78 101.95
  Q 30.61 102.40 30.68 102.88
  Q 31.88 110.50 36.64 117.15
  C 39.48 121.12 44.17 118.35 41.32 114.55
  Q 36.98 108.74 35.45 101.56
  A 1.88 1.88 0.0 0 0 33.92 100.10
  Z"
/>
<path d="
  M 76.75 78.17
  C 86.78 76.46 95.38 77.25 105.36 78.00
  Q 105.93 78.05 106.00 78.61
  C 107.71 92.19 108.42 107.03 106.96 120.73
  A 1.08 1.07 3.0 0 1 105.89 121.69
  L 76.22 121.63
  Q 75.79 121.63 75.75 121.20
  Q 73.93 105.12 75.04 87.27
  Q 75.36 82.19 76.13 78.76
  Q 76.25 78.26 76.75 78.17
  Z
  M 103.8636 88.8910
  A 2.22 2.22 0.0 0 0 101.5415 86.7781
  L 101.2618 86.7913
  A 2.22 2.22 0.0 0 0 99.1489 89.1134
  L 99.3364 93.0890
  A 2.22 2.22 0.0 0 0 101.6585 95.2019
  L 101.9382 95.1887
  A 2.22 2.22 0.0 0 0 104.0511 92.8666
  L 103.8636 88.8910
  Z
  M 104.2572 104.6734
  A 2.42 2.42 0.0 0 0 101.7624 102.3306
  L 101.5425 102.3375
  A 2.42 2.42 0.0 0 0 99.1997 104.8323
  L 99.5628 116.3866
  A 2.42 2.42 0.0 0 0 102.0576 118.7294
  L 102.2775 118.7225
  A 2.42 2.42 0.0 0 0 104.6203 116.2277
  L 104.2572 104.6734
  Z"
/>
</g>
<g fill="#6e423f">
<path d="
  M 145.12 128.40
  Q 145.46 128.43 145.49 128.77
  L 146.85 147.22
  Q 146.91 148.12 146.02 148.21
  L 142.25 148.56
  Q 141.65 148.62 141.53 148.02
  C 137.38 127.22 109.14 129.74 105.50 148.84
  Q 105.39 149.38 104.85 149.39
  L 82.36 149.80
  Q 81.80 149.81 81.66 149.27
  C 80.19 143.67 76.99 137.55 71.16 135.59
  C 60.90 132.15 46.89 136.16 45.47 148.57
  Q 45.40 149.17 44.80 149.19
  L 40.74 149.38
  Q 40.09 149.41 40.09 148.75
  L 40.20 128.73
  A 0.89 0.89 0.0 0 1 41.12 127.84
  Q 55.22 128.36 69.32 127.93
  C 90.14 127.30 110.93 127.62 131.75 127.81
  Q 138.41 127.86 145.12 128.40
  Z
  M 94.6734 138.0995
  A 2.65 2.65 0.0 0 0 91.9505 135.5245
  L 82.1743 135.7976
  A 2.65 2.65 0.0 0 0 79.5993 138.5206
  L 79.6066 138.7805
  A 2.65 2.65 0.0 0 0 82.3295 141.3555
  L 92.1057 141.0824
  A 2.65 2.65 0.0 0 0 94.6807 138.3594
  L 94.6734 138.0995
  Z
  M 105.8893 138.6250
  A 4.30 2.85 -1.0 0 0 101.5403 135.8504
  A 4.30 2.85 -1.0 0 0 97.2907 138.7750
  A 4.30 2.85 -1.0 0 0 101.6397 141.5496
  A 4.30 2.85 -1.0 0 0 105.8893 138.6250
  Z"
/>
<path d="
  M 124.28 139.02
  C 135.77 138.51 138.50 153.13 134.90 160.91
  C 131.36 168.56 122.48 167.89 116.78 163.24
  C 106.72 155.01 110.02 139.65 124.28 139.02
  Z
  M 129.6320 144.9278
  A 2.35 2.35 0.0 0 0 126.3327 144.5285
  L 126.1438 144.6766
  A 2.35 2.35 0.0 0 0 125.7445 147.9759
  L 128.1880 151.0922
  A 2.35 2.35 0.0 0 0 131.4873 151.4915
  L 131.6762 151.3434
  A 2.35 2.35 0.0 0 0 132.0755 148.0441
  L 129.6320 144.9278
  Z
  M 121.2348 146.1707
  A 2.51 2.51 0.0 0 0 117.6975 145.8737
  L 117.4684 146.0673
  A 2.51 2.51 0.0 0 0 117.1714 149.6045
  L 126.2852 160.3893
  A 2.51 2.51 0.0 0 0 129.8225 160.6863
  L 130.0516 160.4927
  A 2.51 2.51 0.0 0 0 130.3486 156.9555
  L 121.2348 146.1707
  Z
  M 119.1135 155.0750
  A 2.28 2.28 0.0 0 0 115.8962 154.8613
  L 115.7005 155.0325
  A 2.28 2.28 0.0 0 0 115.4868 158.2498
  L 118.2665 161.4250
  A 2.28 2.28 0.0 0 0 121.4838 161.6387
  L 121.6795 161.4675
  A 2.28 2.28 0.0 0 0 121.8932 158.2502
  L 119.1135 155.0750
  Z"
/>
<path d="
  M 68.46 140.72
  C 77.20 143.09 78.24 157.27 72.92 163.40
  C 66.91 170.34 52.84 163.83 51.24 155.54
  C 48.97 143.69 57.51 137.76 68.46 140.72
  Z
  M 61.2645 144.9581
  A 2.32 2.32 0.0 0 0 57.9919 144.7235
  L 54.8929 147.4079
  A 2.32 2.32 0.0 0 0 54.6584 150.6805
  L 54.8155 150.8619
  A 2.32 2.32 0.0 0 0 58.0881 151.0965
  L 61.1871 148.4121
  A 2.32 2.32 0.0 0 0 61.4216 145.1395
  L 61.2645 144.9581
  Z
  M 70.7904 149.3683
  A 2.29 2.29 0.0 0 0 70.6887 146.1314
  L 70.2513 145.7206
  A 2.29 2.29 0.0 0 0 67.0143 145.8224
  L 57.3896 156.0717
  A 2.29 2.29 0.0 0 0 57.4913 159.3086
  L 57.9287 159.7194
  A 2.29 2.29 0.0 0 0 61.1657 159.6176
  L 70.7904 149.3683
  Z
  M 72.1680 158.5771
  A 2.32 2.32 0.0 0 0 71.8991 155.3072
  L 71.6856 155.1261
  A 2.32 2.32 0.0 0 0 68.4156 155.3949
  L 65.7120 158.5829
  A 2.32 2.32 0.0 0 0 65.9809 161.8528
  L 66.1944 162.0339
  A 2.32 2.32 0.0 0 0 69.4644 161.7651
  L 72.1680 158.5771
  Z"
/>
</g>
</svg>
