<?xml version="1.0" encoding="UTF-8" standalone="no"?>
<!DOCTYPE svg PUBLIC "-//W3C//DTD SVG 1.1//EN" "http://www.w3.org/Graphics/SVG/1.1/DTD/svg11.dtd">
<svg xmlns="http://www.w3.org/2000/svg" version="1.1" viewBox="0 0 180 180">
<g stroke-width="2.00" fill="none" stroke-linecap="butt">
<path stroke="#533d3e" vector-effect="non-scaling-stroke" d="
  M 87.47 40.62
  C 86.51 40.22 84.21 39.90 83.30 40.23
  Q 82.75 40.42 82.75 41.01
  L 82.75 45.50
  Q 82.75 46.25 83.50 46.25
  L 87.30 46.25
  Q 88.10 46.25 88.06 45.45
  L 87.85 41.16
  Q 87.83 40.77 87.47 40.62"
/>
<path stroke="#9c4249" vector-effect="non-scaling-stroke" d="
  M 121.05 52.78
  L 49.58 51.19
  A 0.77 0.76 -86.4 0 0 48.80 51.88
  Q 46.22 76.73 48.04 101.58
  C 48.10 102.49 47.90 103.80 48.49 104.79
  Q 48.76 105.23 49.27 105.31
  C 55.59 106.31 61.77 107.52 68.21 107.58
  Q 91.03 107.79 113.85 107.93
  C 116.28 107.95 118.72 107.37 121.14 107.02
  Q 121.68 106.94 121.82 106.42
  Q 122.85 102.72 122.94 97.75
  C 123.25 79.68 123.93 68.31 122.16 53.79
  Q 122.04 52.81 121.05 52.78"
/>
<path stroke="#533d3e" vector-effect="non-scaling-stroke" d="
  M 88.8195 113.7754
  A 0.27 0.27 0.0 0 0 88.5500 113.5050
  L 82.8700 113.4951
  A 0.27 0.27 0.0 0 0 82.5996 113.7646
  L 82.5805 124.7046
  A 0.27 0.27 0.0 0 0 82.8500 124.9750
  L 88.5300 124.9849
  A 0.27 0.27 0.0 0 0 88.8004 124.7154
  L 88.8195 113.7754"
/>
<path stroke="#533d3e" vector-effect="non-scaling-stroke" d="
  M 123.73 123.59
  Q 124.80 121.38 127.51 121.32
  Q 138.90 121.05 151.27 122.33
  A 1.20 1.20 0.0 0 0 152.59 121.11
  C 152.54 118.99 152.88 116.07 149.82 115.67
  C 144.43 114.97 119.27 112.27 118.24 117.75
  Q 117.39 122.29 116.40 126.86
  Q 116.28 127.41 115.83 127.76
  L 113.94 129.23
  Q 113.57 129.51 113.10 129.55
  Q 88.56 131.38 80.25 130.93
  Q 60.03 129.83 38.95 130.39
  Q 38.00 130.41 38.17 131.35
  L 39.03 136.01
  A 0.66 0.64 82.5 0 0 39.71 136.54
  Q 45.35 136.18 50.88 137.42
  A 2.00 1.99 1.5 0 1 52.42 139.04
  C 53.35 144.53 44.89 142.25 41.97 142.25
  Q 41.23 142.25 41.60 142.90
  Q 44.40 147.86 48.53 151.80
  Q 48.90 152.15 49.42 152.14
  Q 56.66 151.92 63.92 151.78
  C 66.86 151.73 68.23 153.67 66.59 156.30
  Q 66.30 156.77 65.76 156.91
  Q 61.12 158.09 56.34 157.59
  A 0.43 0.43 0.0 0 0 56.08 158.38
  C 67.11 164.81 78.55 166.63 91.61 167.06
  C 103.43 167.46 112.72 165.69 123.56 161.80
  Q 127.61 160.34 130.29 158.42
  Q 131.21 157.76 130.08 157.75
  C 128.03 157.73 122.50 158.74 122.40 154.88
  C 122.30 150.83 134.05 152.25 136.90 152.25
  Q 137.45 152.25 137.87 151.88
  Q 141.58 148.64 143.69 144.18
  Q 143.99 143.56 143.29 143.53
  C 141.17 143.45 132.45 144.79 132.43 140.70
  C 132.42 136.17 144.26 137.75 147.32 137.74
  A 0.80 0.80 0.0 0 0 148.06 137.20
  L 150.81 128.81
  Q 151.00 128.20 150.37 128.13
  Q 138.41 126.73 126.54 126.90
  C 124.86 126.93 124.02 126.06 123.63 124.54
  Q 123.50 124.05 123.73 123.59"
/>
<path stroke="#9c4249" vector-effect="non-scaling-stroke" d="
  M 88.09 77.89
  Q 95.75 71.73 103.67 65.90
  Q 106.62 63.73 103.39 61.13
  Q 102.93 60.76 102.37 60.94
  Q 100.56 61.50 98.26 63.28
  Q 91.29 68.69 84.25 74.01
  Q 83.84 74.32 83.44 73.99
  Q 75.71 67.48 67.74 61.26
  C 64.76 58.94 61.00 62.58 64.94 65.82
  Q 71.92 71.56 78.96 77.34
  A 0.60 0.59 43.5 0 1 78.99 78.24
  L 68.14 88.01
  Q 67.63 88.47 67.13 87.99
  L 65.36 86.27
  Q 65.03 85.94 64.57 85.96
  Q 62.03 86.07 61.53 88.54
  Q 61.42 89.07 61.74 89.50
  L 63.65 92.19
  Q 63.95 92.60 63.61 92.98
  C 61.92 94.91 62.36 97.42 65.10 97.74
  Q 65.61 97.80 66.02 97.49
  L 68.08 95.96
  Q 68.59 95.58 69.00 96.06
  C 71.00 98.45 74.72 98.12 74.46 94.50
  Q 74.42 93.96 74.03 93.58
  L 72.45 92.07
  Q 72.00 91.65 72.46 91.24
  L 82.85 81.95
  Q 83.16 81.67 83.46 81.96
  L 92.96 91.39
  Q 93.33 91.76 93.07 92.20
  L 91.70 94.54
  Q 91.39 95.08 91.52 95.68
  C 92.11 98.39 95.55 99.08 96.99 96.62
  Q 97.60 95.58 98.52 96.34
  C 103.58 100.49 107.35 95.99 101.96 92.03
  Q 101.50 91.69 101.73 91.16
  C 102.13 90.25 102.79 89.53 102.98 88.71
  C 103.87 84.88 99.49 84.15 97.57 87.12
  Q 97.21 87.69 96.73 87.22
  L 88.05 78.75
  Q 87.59 78.30 88.09 77.89"
/>
<path stroke="#533d3e" vector-effect="non-scaling-stroke" d="
  M 60.0540 146.1941
  A 7.14 6.65 127.9 0 0 69.6874 144.6450
  A 7.14 6.65 127.9 0 0 68.8260 134.9259
  A 7.14 6.65 127.9 0 0 59.1926 136.4750
  A 7.14 6.65 127.9 0 0 60.0540 146.1941"
/>
<path stroke="#533d3e" vector-effect="non-scaling-stroke" d="
  M 87.5233 146.9548
  A 7.32 6.76 128.8 0 0 97.3783 145.4858
  A 7.32 6.76 128.8 0 0 96.6967 135.5452
  A 7.32 6.76 128.8 0 0 86.8417 137.0142
  A 7.32 6.76 128.8 0 0 87.5233 146.9548"
/>
<path stroke="#533d3e" vector-effect="non-scaling-stroke" d="
  M 126.67 141.64
  A 6.43 6.43 0.0 0 0 120.24 135.21
  A 6.43 6.43 0.0 0 0 113.81 141.64
  A 6.43 6.43 0.0 0 0 120.24 148.07
  A 6.43 6.43 0.0 0 0 126.67 141.64"
/>
<path stroke="#533d3e" vector-effect="non-scaling-stroke" d="
  M 107.06 156.56
  Q 107.56 156.41 107.67 155.95
  C 108.39 152.85 106.63 152.13 103.95 152.00
  C 97.00 151.65 85.77 150.60 79.25 152.62
  Q 78.76 152.77 78.50 153.22
  Q 77.25 155.43 79.02 157.14
  Q 79.41 157.51 79.94 157.51
  Q 91.09 157.47 102.20 157.52
  C 104.01 157.53 105.47 158.37 107.06 156.56"
/>
</g>
<g fill="#38383c">
<path d="
  M 128.03 108.68
  Q 137.13 108.29 146.12 109.33
  C 152.09 110.03 155.90 109.97 157.71 115.76
  C 159.28 120.77 157.80 123.48 156.74 128.13
  C 155.03 135.65 152.74 140.43 148.63 147.14
  C 142.05 157.85 134.07 164.61 121.76 168.53
  C 106.77 173.30 93.22 173.81 77.23 171.78
  C 54.20 168.84 31.85 151.78 32.41 127.08
  A 2.25 2.25 0.0 0 1 34.47 124.89
  C 48.41 123.74 62.47 124.54 76.44 124.67
  Q 76.86 124.67 76.85 124.25
  L 76.70 114.14
  Q 76.69 113.59 76.15 113.57
  C 65.41 113.03 57.26 113.05 45.17 109.99
  Q 44.71 109.88 44.38 109.53
  Q 42.82 107.88 42.71 106.50
  Q 40.67 81.12 42.80 55.75
  C 43.12 51.96 43.20 45.84 47.44 45.77
  Q 61.40 45.55 76.26 46.35
  A 0.93 0.92 85.9 0 0 77.21 45.24
  Q 76.43 41.45 77.83 37.72
  C 79.26 33.91 82.62 34.64 85.80 34.52
  C 93.73 34.24 93.15 39.91 93.62 45.68
  Q 93.67 46.25 94.24 46.28
  Q 105.38 46.88 121.91 47.07
  C 125.81 47.12 127.05 49.51 127.53 53.15
  Q 128.73 62.31 128.74 65.25
  C 128.79 79.51 129.43 94.02 127.57 108.18
  Q 127.50 108.71 128.03 108.68
  Z
  M 87.47 40.62
  C 86.51 40.22 84.21 39.90 83.30 40.23
  Q 82.75 40.42 82.75 41.01
  L 82.75 45.50
  Q 82.75 46.25 83.50 46.25
  L 87.30 46.25
  Q 88.10 46.25 88.06 45.45
  L 87.85 41.16
  Q 87.83 40.77 87.47 40.62
  Z
  M 121.05 52.78
  L 49.58 51.19
  A 0.77 0.76 -86.4 0 0 48.80 51.88
  Q 46.22 76.73 48.04 101.58
  C 48.10 102.49 47.90 103.80 48.49 104.79
  Q 48.76 105.23 49.27 105.31
  C 55.59 106.31 61.77 107.52 68.21 107.58
  Q 91.03 107.79 113.85 107.93
  C 116.28 107.95 118.72 107.37 121.14 107.02
  Q 121.68 106.94 121.82 106.42
  Q 122.85 102.72 122.94 97.75
  C 123.25 79.68 123.93 68.31 122.16 53.79
  Q 122.04 52.81 121.05 52.78
  Z
  M 113.07 113.76
  L 95.40 113.33
  Q 94.80 113.31 94.80 113.91
  L 94.65 124.31
  Q 94.64 124.72 95.05 124.70
  L 110.36 124.12
  A 1.04 1.03 -84.9 0 0 111.33 123.30
  L 113.32 114.08
  Q 113.39 113.77 113.07 113.76
  Z
  M 88.8195 113.7754
  A 0.27 0.27 0.0 0 0 88.5500 113.5050
  L 82.8700 113.4951
  A 0.27 0.27 0.0 0 0 82.5996 113.7646
  L 82.5805 124.7046
  A 0.27 0.27 0.0 0 0 82.8500 124.9750
  L 88.5300 124.9849
  A 0.27 0.27 0.0 0 0 88.8004 124.7154
  L 88.8195 113.7754
  Z
  M 123.73 123.59
  Q 124.80 121.38 127.51 121.32
  Q 138.90 121.05 151.27 122.33
  A 1.20 1.20 0.0 0 0 152.59 121.11
  C 152.54 118.99 152.88 116.07 149.82 115.67
  C 144.43 114.97 119.27 112.27 118.24 117.75
  Q 117.39 122.29 116.40 126.86
  Q 116.28 127.41 115.83 127.76
  L 113.94 129.23
  Q 113.57 129.51 113.10 129.55
  Q 88.56 131.38 80.25 130.93
  Q 60.03 129.83 38.95 130.39
  Q 38.00 130.41 38.17 131.35
  L 39.03 136.01
  A 0.66 0.64 82.5 0 0 39.71 136.54
  Q 45.35 136.18 50.88 137.42
  A 2.00 1.99 1.5 0 1 52.42 139.04
  C 53.35 144.53 44.89 142.25 41.97 142.25
  Q 41.23 142.25 41.60 142.90
  Q 44.40 147.86 48.53 151.80
  Q 48.90 152.15 49.42 152.14
  Q 56.66 151.92 63.92 151.78
  C 66.86 151.73 68.23 153.67 66.59 156.30
  Q 66.30 156.77 65.76 156.91
  Q 61.12 158.09 56.34 157.59
  A 0.43 0.43 0.0 0 0 56.08 158.38
  C 67.11 164.81 78.55 166.63 91.61 167.06
  C 103.43 167.46 112.72 165.69 123.56 161.80
  Q 127.61 160.34 130.29 158.42
  Q 131.21 157.76 130.08 157.75
  C 128.03 157.73 122.50 158.74 122.40 154.88
  C 122.30 150.83 134.05 152.25 136.90 152.25
  Q 137.45 152.25 137.87 151.88
  Q 141.58 148.64 143.69 144.18
  Q 143.99 143.56 143.29 143.53
  C 141.17 143.45 132.45 144.79 132.43 140.70
  C 132.42 136.17 144.26 137.75 147.32 137.74
  A 0.80 0.80 0.0 0 0 148.06 137.20
  L 150.81 128.81
  Q 151.00 128.20 150.37 128.13
  Q 138.41 126.73 126.54 126.90
  C 124.86 126.93 124.02 126.06 123.63 124.54
  Q 123.50 124.05 123.73 123.59
  Z"
/>
<path d="
  M 88.05 78.75
  L 96.73 87.22
  Q 97.21 87.69 97.57 87.12
  C 99.49 84.15 103.87 84.88 102.98 88.71
  C 102.79 89.53 102.13 90.25 101.73 91.16
  Q 101.50 91.69 101.96 92.03
  C 107.35 95.99 103.58 100.49 98.52 96.34
  Q 97.60 95.58 96.99 96.62
  C 95.55 99.08 92.11 98.39 91.52 95.68
  Q 91.39 95.08 91.70 94.54
  L 93.07 92.20
  Q 93.33 91.76 92.96 91.39
  L 83.46 81.96
  Q 83.16 81.67 82.85 81.95
  L 72.46 91.24
  Q 72.00 91.65 72.45 92.07
  L 74.03 93.58
  Q 74.42 93.96 74.46 94.50
  C 74.72 98.12 71.00 98.45 69.00 96.06
  Q 68.59 95.58 68.08 95.96
  L 66.02 97.49
  Q 65.61 97.80 65.10 97.74
  C 62.36 97.42 61.92 94.91 63.61 92.98
  Q 63.95 92.60 63.65 92.19
  L 61.74 89.50
  Q 61.42 89.07 61.53 88.54
  Q 62.03 86.07 64.57 85.96
  Q 65.03 85.94 65.36 86.27
  L 67.13 87.99
  Q 67.63 88.47 68.14 88.01
  L 78.99 78.24
  A 0.60 0.59 43.5 0 0 78.96 77.34
  Q 71.92 71.56 64.94 65.82
  C 61.00 62.58 64.76 58.94 67.74 61.26
  Q 75.71 67.48 83.44 73.99
  Q 83.84 74.32 84.25 74.01
  Q 91.29 68.69 98.26 63.28
  Q 100.56 61.50 102.37 60.94
  Q 102.93 60.76 103.39 61.13
  Q 106.62 63.73 103.67 65.90
  Q 95.75 71.73 88.09 77.89
  Q 87.59 78.30 88.05 78.75
  Z"
/>
<ellipse cx="0.00" cy="0.00" transform="translate(64.44,140.56) rotate(127.9)" rx="7.14" ry="6.65"/>
<ellipse cx="0.00" cy="0.00" transform="translate(92.11,141.25) rotate(128.8)" rx="7.32" ry="6.76"/>
<circle cx="120.24" cy="141.64" r="6.43"/>
<path d="
  M 107.06 156.56
  C 105.47 158.37 104.01 157.53 102.20 157.52
  Q 91.09 157.47 79.94 157.51
  Q 79.41 157.51 79.02 157.14
  Q 77.25 155.43 78.50 153.22
  Q 78.76 152.77 79.25 152.62
  C 85.77 150.60 97.00 151.65 103.95 152.00
  C 106.63 152.13 108.39 152.85 107.67 155.95
  Q 107.56 156.41 107.06 156.56
  Z"
/>
</g>
<path fill="#ff4c55" d="
  M 49.58 51.19
  L 121.05 52.78
  Q 122.04 52.81 122.16 53.79
  C 123.93 68.31 123.25 79.68 122.94 97.75
  Q 122.85 102.72 121.82 106.42
  Q 121.68 106.94 121.14 107.02
  C 118.72 107.37 116.28 107.95 113.85 107.93
  Q 91.03 107.79 68.21 107.58
  C 61.77 107.52 55.59 106.31 49.27 105.31
  Q 48.76 105.23 48.49 104.79
  C 47.90 103.80 48.10 102.49 48.04 101.58
  Q 46.22 76.73 48.80 51.88
  A 0.77 0.76 -86.4 0 1 49.58 51.19
  Z
  M 88.09 77.89
  Q 95.75 71.73 103.67 65.90
  Q 106.62 63.73 103.39 61.13
  Q 102.93 60.76 102.37 60.94
  Q 100.56 61.50 98.26 63.28
  Q 91.29 68.69 84.25 74.01
  Q 83.84 74.32 83.44 73.99
  Q 75.71 67.48 67.74 61.26
  C 64.76 58.94 61.00 62.58 64.94 65.82
  Q 71.92 71.56 78.96 77.34
  A 0.60 0.59 43.5 0 1 78.99 78.24
  L 68.14 88.01
  Q 67.63 88.47 67.13 87.99
  L 65.36 86.27
  Q 65.03 85.94 64.57 85.96
  Q 62.03 86.07 61.53 88.54
  Q 61.42 89.07 61.74 89.50
  L 63.65 92.19
  Q 63.95 92.60 63.61 92.98
  C 61.92 94.91 62.36 97.42 65.10 97.74
  Q 65.61 97.80 66.02 97.49
  L 68.08 95.96
  Q 68.59 95.58 69.00 96.06
  C 71.00 98.45 74.72 98.12 74.46 94.50
  Q 74.42 93.96 74.03 93.58
  L 72.45 92.07
  Q 72.00 91.65 72.46 91.24
  L 82.85 81.95
  Q 83.16 81.67 83.46 81.96
  L 92.96 91.39
  Q 93.33 91.76 93.07 92.20
  L 91.70 94.54
  Q 91.39 95.08 91.52 95.68
  C 92.11 98.39 95.55 99.08 96.99 96.62
  Q 97.60 95.58 98.52 96.34
  C 103.58 100.49 107.35 95.99 101.96 92.03
  Q 101.50 91.69 101.73 91.16
  C 102.13 90.25 102.79 89.53 102.98 88.71
  C 103.87 84.88 99.49 84.15 97.57 87.12
  Q 97.21 87.69 96.73 87.22
  L 88.05 78.75
  Q 87.59 78.30 88.09 77.89
  Z"
/>
<g fill="#6e423f">
<path d="
  M 83.30 40.23
  C 84.21 39.90 86.51 40.22 87.47 40.62
  Q 87.83 40.77 87.85 41.16
  L 88.06 45.45
  Q 88.10 46.25 87.30 46.25
  L 83.50 46.25
  Q 82.75 46.25 82.75 45.50
  L 82.75 41.01
  Q 82.75 40.42 83.30 40.23
  Z"
/>
<rect x="-3.11" y="-5.74" transform="translate(85.70,119.24) rotate(0.1)" width="6.22" height="11.48" rx="0.27"/>
<path d="
  M 123.63 124.54
  C 124.02 126.06 124.86 126.93 126.54 126.90
  Q 138.41 126.73 150.37 128.13
  Q 151.00 128.20 150.81 128.81
  L 148.06 137.20
  A 0.80 0.80 0.0 0 1 147.32 137.74
  C 144.26 137.75 132.42 136.17 132.43 140.70
  C 132.45 144.79 141.17 143.45 143.29 143.53
  Q 143.99 143.56 143.69 144.18
  Q 141.58 148.64 137.87 151.88
  Q 137.45 152.25 136.90 152.25
  C 134.05 152.25 122.30 150.83 122.40 154.88
  C 122.50 158.74 128.03 157.73 130.08 157.75
  Q 131.21 157.76 130.29 158.42
  Q 127.61 160.34 123.56 161.80
  C 112.72 165.69 103.43 167.46 91.61 167.06
  C 78.55 166.63 67.11 164.81 56.08 158.38
  A 0.43 0.43 0.0 0 1 56.34 157.59
  Q 61.12 158.09 65.76 156.91
  Q 66.30 156.77 66.59 156.30
  C 68.23 153.67 66.86 151.73 63.92 151.78
  Q 56.66 151.92 49.42 152.14
  Q 48.90 152.15 48.53 151.80
  Q 44.40 147.86 41.60 142.90
  Q 41.23 142.25 41.97 142.25
  C 44.89 142.25 53.35 144.53 52.42 139.04
  A 2.00 1.99 1.5 0 0 50.88 137.42
  Q 45.35 136.18 39.71 136.54
  A 0.66 0.64 82.5 0 1 39.03 136.01
  L 38.17 131.35
  Q 38.00 130.41 38.95 130.39
  Q 60.03 129.83 80.25 130.93
  Q 88.56 131.38 113.10 129.55
  Q 113.57 129.51 113.94 129.23
  L 115.83 127.76
  Q 116.28 127.41 116.40 126.86
  Q 117.39 122.29 118.24 117.75
  C 119.27 112.27 144.43 114.97 149.82 115.67
  C 152.88 116.07 152.54 118.99 152.59 121.11
  A 1.20 1.20 0.0 0 1 151.27 122.33
  Q 138.90 121.05 127.51 121.32
  Q 124.80 121.38 123.73 123.59
  Q 123.50 124.05 123.63 124.54
  Z
  M 60.0540 146.1941
  A 7.14 6.65 127.9 0 0 69.6874 144.6450
  A 7.14 6.65 127.9 0 0 68.8260 134.9259
  A 7.14 6.65 127.9 0 0 59.1926 136.4750
  A 7.14 6.65 127.9 0 0 60.0540 146.1941
  Z
  M 87.5233 146.9548
  A 7.32 6.76 128.8 0 0 97.3783 145.4858
  A 7.32 6.76 128.8 0 0 96.6967 135.5452
  A 7.32 6.76 128.8 0 0 86.8417 137.0142
  A 7.32 6.76 128.8 0 0 87.5233 146.9548
  Z
  M 126.67 141.64
  A 6.43 6.43 0.0 0 0 120.24 135.21
  A 6.43 6.43 0.0 0 0 113.81 141.64
  A 6.43 6.43 0.0 0 0 120.24 148.07
  A 6.43 6.43 0.0 0 0 126.67 141.64
  Z
  M 107.06 156.56
  Q 107.56 156.41 107.67 155.95
  C 108.39 152.85 106.63 152.13 103.95 152.00
  C 97.00 151.65 85.77 150.60 79.25 152.62
  Q 78.76 152.77 78.50 153.22
  Q 77.25 155.43 79.02 157.14
  Q 79.41 157.51 79.94 157.51
  Q 91.09 157.47 102.20 157.52
  C 104.01 157.53 105.47 158.37 107.06 156.56
  Z"
/>
</g>
</svg>
