<?xml version="1.0" encoding="UTF-8" standalone="no"?>
<!DOCTYPE svg PUBLIC "-//W3C//DTD SVG 1.1//EN" "http://www.w3.org/Graphics/SVG/1.1/DTD/svg11.dtd">
<svg xmlns="http://www.w3.org/2000/svg" version="1.1" viewBox="0 0 180 180">
<g stroke-width="2.00" fill="none" stroke-linecap="butt">
<path stroke="#98989a" vector-effect="non-scaling-stroke" d="
  M 45.78 77.05
  C 40.70 74.42 34.80 71.85 29.15 70.78
  A 0.61 0.61 0.0 0 0 28.43 71.31
  C 27.58 77.83 26.41 91.29 29.63 97.11
  Q 29.88 97.55 30.39 97.52
  Q 36.05 97.08 41.39 95.22
  C 45.55 93.78 46.80 96.32 48.09 99.76
  Q 48.28 100.25 48.80 100.25
  L 54.95 100.25
  Q 55.65 100.25 55.63 99.55
  L 55.05 78.84
  A 0.84 0.84 0.0 0 0 54.02 78.05
  Q 49.62 79.04 45.78 77.05"
/>
<path stroke="#553d3e" vector-effect="non-scaling-stroke" d="
  M 50.81 106.51
  Q 51.03 125.96 51.45 145.33
  C 51.47 146.25 52.03 146.43 52.85 146.16
  A 0.67 0.66 -9.1 0 0 53.31 145.53
  L 53.25 106.70
  Q 53.25 106.13 52.69 106.04
  L 51.57 105.85
  Q 50.80 105.73 50.81 106.51"
/>
</g>
<path fill="#38383c" d="
  M 58.34 73.34
  Q 60.17 75.68 60.49 80.01
  C 61.17 89.37 62.89 99.67 59.20 104.67
  Q 58.92 105.06 58.93 105.54
  Q 59.48 125.48 59.04 145.45
  C 58.83 155.23 45.83 153.64 45.62 144.73
  Q 45.27 129.64 45.23 114.49
  Q 45.21 110.06 45.71 105.63
  Q 45.76 105.16 45.39 104.87
  Q 43.63 103.47 42.92 101.29
  Q 42.73 100.73 42.17 100.91
  Q 34.56 103.35 27.52 102.70
  C 24.56 102.43 23.05 96.02 22.84 94.44
  Q 21.11 81.50 23.77 68.80
  C 24.43 65.64 26.53 64.65 29.51 65.22
  Q 39.86 67.21 48.99 72.43
  Q 49.49 72.71 50.06 72.72
  L 57.18 72.77
  Q 57.90 72.78 58.34 73.34
  Z
  M 45.78 77.05
  C 40.70 74.42 34.80 71.85 29.15 70.78
  A 0.61 0.61 0.0 0 0 28.43 71.31
  C 27.58 77.83 26.41 91.29 29.63 97.11
  Q 29.88 97.55 30.39 97.52
  Q 36.05 97.08 41.39 95.22
  C 45.55 93.78 46.80 96.32 48.09 99.76
  Q 48.28 100.25 48.80 100.25
  L 54.95 100.25
  Q 55.65 100.25 55.63 99.55
  L 55.05 78.84
  A 0.84 0.84 0.0 0 0 54.02 78.05
  Q 49.62 79.04 45.78 77.05
  Z
  M 50.81 106.51
  Q 51.03 125.96 51.45 145.33
  C 51.47 146.25 52.03 146.43 52.85 146.16
  A 0.67 0.66 -9.1 0 0 53.31 145.53
  L 53.25 106.70
  Q 53.25 106.13 52.69 106.04
  L 51.57 105.85
  Q 50.80 105.73 50.81 106.51
  Z"
/>
<path fill="#f8f8f8" d="
  M 29.15 70.78
  C 34.80 71.85 40.70 74.42 45.78 77.05
  Q 49.62 79.04 54.02 78.05
  A 0.84 0.84 0.0 0 1 55.05 78.84
  L 55.63 99.55
  Q 55.65 100.25 54.95 100.25
  L 48.80 100.25
  Q 48.28 100.25 48.09 99.76
  C 46.80 96.32 45.55 93.78 41.39 95.22
  Q 36.05 97.08 30.39 97.52
  Q 29.88 97.55 29.63 97.11
  C 26.41 91.29 27.58 77.83 28.43 71.31
  A 0.61 0.61 0.0 0 1 29.15 70.78
  Z"
/>
<path fill="#71423f" d="
  M 50.81 106.51
  Q 50.80 105.73 51.57 105.85
  L 52.69 106.04
  Q 53.25 106.13 53.25 106.70
  L 53.31 145.53
  A 0.67 0.66 -9.1 0 1 52.85 146.16
  C 52.03 146.43 51.47 146.25 51.45 145.33
  Q 51.03 125.96 50.81 106.51
  Z"
/>
</svg>
