<?xml version="1.0" encoding="UTF-8" standalone="no"?>
<!DOCTYPE svg PUBLIC "-//W3C//DTD SVG 1.1//EN" "http://www.w3.org/Graphics/SVG/1.1/DTD/svg11.dtd">
<svg xmlns="http://www.w3.org/2000/svg" version="1.1" viewBox="0 0 180 180">
<path stroke="#533d3e" stroke-width="2.00" fill="none" stroke-linecap="butt" vector-effect="non-scaling-stroke" d="
  M 76.10 139.29
  C 54.81 145.07 42.34 129.39 45.49 109.48
  Q 46.21 104.96 50.41 99.25
  C 50.84 98.66 50.82 97.57 50.73 96.88
  Q 50.65 96.20 50.09 96.59
  C 44.66 100.41 43.60 107.02 43.03 113.19
  C 42.10 123.11 44.92 131.84 52.37 138.59
  C 58.48 144.13 67.94 144.22 75.42 141.82
  Q 75.87 141.67 76.14 141.30
  L 76.83 140.35
  A 0.68 0.68 0.0 0 0 76.10 139.29"
/>
<path fill="#38383c" d="
  M 52.55 91.46
  C 56.62 93.09 56.13 95.94 58.01 98.86
  C 65.22 110.07 71.14 120.99 80.95 136.83
  C 84.96 143.30 80.18 147.08 74.24 148.28
  C 66.04 149.94 56.00 149.38 49.39 143.68
  C 41.67 137.03 37.36 128.39 37.18 117.97
  C 37.03 108.61 39.04 96.06 48.01 91.29
  Q 49.78 90.35 52.55 91.46
  Z
  M 76.10 139.29
  C 54.81 145.07 42.34 129.39 45.49 109.48
  Q 46.21 104.96 50.41 99.25
  C 50.84 98.66 50.82 97.57 50.73 96.88
  Q 50.65 96.20 50.09 96.59
  C 44.66 100.41 43.60 107.02 43.03 113.19
  C 42.10 123.11 44.92 131.84 52.37 138.59
  C 58.48 144.13 67.94 144.22 75.42 141.82
  Q 75.87 141.67 76.14 141.30
  L 76.83 140.35
  A 0.68 0.68 0.0 0 0 76.10 139.29
  Z
  M 63.92 134.47
  C 66.74 134.78 69.29 135.01 71.89 134.23
  A 0.38 0.38 0.0 0 0 72.11 133.68
  L 54.56 103.81
  A 0.33 0.33 0.0 0 0 54.02 103.77
  C 46.88 112.63 50.93 133.02 63.92 134.47
  Z"
/>
<path fill="#6d423f" d="
  M 76.10 139.29
  A 0.68 0.68 0.0 0 1 76.83 140.35
  L 76.14 141.30
  Q 75.87 141.67 75.42 141.82
  C 67.94 144.22 58.48 144.13 52.37 138.59
  C 44.92 131.84 42.10 123.11 43.03 113.19
  C 43.60 107.02 44.66 100.41 50.09 96.59
  Q 50.65 96.20 50.73 96.88
  C 50.82 97.57 50.84 98.66 50.41 99.25
  Q 46.21 104.96 45.49 109.48
  C 42.34 129.39 54.81 145.07 76.10 139.29
  Z"
/>
</svg>
