<?xml version="1.0" encoding="UTF-8" standalone="no"?>
<!DOCTYPE svg PUBLIC "-//W3C//DTD SVG 1.1//EN" "http://www.w3.org/Graphics/SVG/1.1/DTD/svg11.dtd">
<svg xmlns="http://www.w3.org/2000/svg" version="1.1" viewBox="0 0 180 180">
<path stroke="#533d3e" stroke-width="2.00" fill="none" stroke-linecap="butt" vector-effect="non-scaling-stroke" d="
  M 46.85 76.92
  C 45.11 72.91 39.61 72.26 37.51 76.09
  C 33.80 82.89 35.89 96.50 38.27 102.75
  Q 45.90 122.71 52.50 143.04
  Q 52.73 143.73 53.44 143.56
  L 54.58 143.28
  Q 55.25 143.12 55.19 142.42
  Q 52.77 116.19 49.94 90.01
  Q 49.08 82.04 46.85 76.92"
/>
<path fill="#38383c" d="
  M 45.12 68.30
  C 53.69 71.43 55.10 82.69 55.83 90.50
  C 57.46 107.84 59.39 122.91 60.76 142.49
  C 60.97 145.47 60.63 147.34 57.56 148.42
  C 53.93 149.69 49.13 150.22 47.57 145.63
  Q 41.02 126.39 33.90 107.36
  C 30.42 98.07 28.33 87.54 30.75 77.75
  C 32.29 71.52 38.43 65.85 45.12 68.30
  Z
  M 46.85 76.92
  C 45.11 72.91 39.61 72.26 37.51 76.09
  C 33.80 82.89 35.89 96.50 38.27 102.75
  Q 45.90 122.71 52.50 143.04
  Q 52.73 143.73 53.44 143.56
  L 54.58 143.28
  Q 55.25 143.12 55.19 142.42
  Q 52.77 116.19 49.94 90.01
  Q 49.08 82.04 46.85 76.92
  Z"
/>
<path fill="#6e423f" d="
  M 37.51 76.09
  C 39.61 72.26 45.11 72.91 46.85 76.92
  Q 49.08 82.04 49.94 90.01
  Q 52.77 116.19 55.19 142.42
  Q 55.25 143.12 54.58 143.28
  L 53.44 143.56
  Q 52.73 143.73 52.50 143.04
  Q 45.90 122.71 38.27 102.75
  C 35.89 96.50 33.80 82.89 37.51 76.09
  Z"
/>
</svg>
