<?xml version="1.0" encoding="UTF-8" standalone="no"?>
<!DOCTYPE svg PUBLIC "-//W3C//DTD SVG 1.1//EN" "http://www.w3.org/Graphics/SVG/1.1/DTD/svg11.dtd">
<svg xmlns="http://www.w3.org/2000/svg" version="1.1" viewBox="0 0 180 180">
<path stroke="#98999a" stroke-width="2.00" fill="none" stroke-linecap="butt" vector-effect="non-scaling-stroke" d="
  M 55.51 125.37
  L 58.68 123.56
  Q 59.18 123.28 58.84 122.82
  L 53.10 115.12
  Q 52.48 114.28 52.68 115.30
  L 54.53 124.92
  Q 54.71 125.83 55.51 125.37"
/>
<path fill="#38383c" d="
  M 49.00 106.51
  C 53.09 103.98 63.35 119.67 65.06 122.75
  C 66.44 125.25 65.60 127.47 62.92 128.20
  Q 58.73 129.33 55.53 132.37
  Q 55.16 132.72 54.67 132.83
  C 52.17 133.38 50.89 132.14 50.22 129.80
  Q 46.96 118.45 46.75 109.74
  Q 46.70 107.93 49.00 106.51
  Z
  M 55.51 125.37
  L 58.68 123.56
  Q 59.18 123.28 58.84 122.82
  L 53.10 115.12
  Q 52.48 114.28 52.68 115.30
  L 54.53 124.92
  Q 54.71 125.83 55.51 125.37
  Z"
/>
<path fill="#f8f9f8" d="
  M 54.53 124.92
  L 52.68 115.30
  Q 52.48 114.28 53.10 115.12
  L 58.84 122.82
  Q 59.18 123.28 58.68 123.56
  L 55.51 125.37
  Q 54.71 125.83 54.53 124.92
  Z"
/>
</svg>
