<?xml version="1.0" encoding="UTF-8" standalone="no"?>
<!DOCTYPE svg PUBLIC "-//W3C//DTD SVG 1.1//EN" "http://www.w3.org/Graphics/SVG/1.1/DTD/svg11.dtd">
<svg xmlns="http://www.w3.org/2000/svg" version="1.1" viewBox="0 0 180 180">
<g stroke-width="2.00" fill="none" stroke-linecap="butt">
<path stroke="#98989a" vector-effect="non-scaling-stroke" d="
  M 65.1491 80.9744
  A 0.73 0.73 0.0 0 0 64.4115 80.2521
  L 37.9730 80.5290
  A 0.73 0.73 0.0 0 0 37.2507 81.2666
  L 37.4509 100.3856
  A 0.73 0.73 0.0 0 0 38.1885 101.1079
  L 64.6270 100.8310
  A 0.73 0.73 0.0 0 0 65.3493 100.0934
  L 65.1491 80.9744"
/>
<path stroke="#9c8f4d" vector-effect="non-scaling-stroke" d="
  M 50.95 107.52
  L 49.83 147.04
  Q 49.81 147.68 50.35 148.02
  Q 52.20 149.21 53.61 147.59
  Q 53.95 147.20 53.95 146.68
  L 54.03 107.26
  Q 54.03 106.75 53.51 106.75
  L 51.73 106.75
  Q 50.97 106.75 50.95 107.52"
/>
</g>
<path fill="#38383c" d="
  M 59.49 107.07
  Q 59.58 125.86 59.33 144.64
  Q 59.27 149.17 58.08 151.11
  C 55.05 156.08 45.73 154.46 44.55 148.71
  Q 44.37 147.84 44.53 141.13
  Q 44.92 124.52 45.78 107.52
  Q 45.82 106.78 45.07 106.77
  C 40.41 106.72 32.91 108.28 32.29 101.26
  Q 31.23 89.40 32.05 77.50
  Q 32.08 76.96 32.49 76.59
  C 34.95 74.36 37.25 75.06 40.18 74.97
  Q 57.44 74.45 67.24 74.81
  C 69.41 74.89 70.70 76.48 70.73 78.73
  Q 70.90 90.63 70.43 102.49
  C 70.24 107.49 63.42 106.53 60.04 106.52
  Q 59.48 106.52 59.49 107.07
  Z
  M 65.1491 80.9744
  A 0.73 0.73 0.0 0 0 64.4115 80.2521
  L 37.9730 80.5290
  A 0.73 0.73 0.0 0 0 37.2507 81.2666
  L 37.4509 100.3856
  A 0.73 0.73 0.0 0 0 38.1885 101.1079
  L 64.6270 100.8310
  A 0.73 0.73 0.0 0 0 65.3493 100.0934
  L 65.1491 80.9744
  Z
  M 50.95 107.52
  L 49.83 147.04
  Q 49.81 147.68 50.35 148.02
  Q 52.20 149.21 53.61 147.59
  Q 53.95 147.20 53.95 146.68
  L 54.03 107.26
  Q 54.03 106.75 53.51 106.75
  L 51.73 106.75
  Q 50.97 106.75 50.95 107.52
  Z"
/>
<rect fill="#f8f8f8" x="-13.95" y="-10.29" transform="translate(51.30,90.68) rotate(-0.6)" width="27.90" height="20.58" rx="0.73"/>
<path fill="#ffe65d" d="
  M 49.83 147.04
  L 50.95 107.52
  Q 50.97 106.75 51.73 106.75
  L 53.51 106.75
  Q 54.03 106.75 54.03 107.26
  L 53.95 146.68
  Q 53.95 147.20 53.61 147.59
  Q 52.20 149.21 50.35 148.02
  Q 49.81 147.68 49.83 147.04
  Z"
/>
</svg>
