<?xml version="1.0" encoding="UTF-8" standalone="no"?>
<!DOCTYPE svg PUBLIC "-//W3C//DTD SVG 1.1//EN" "http://www.w3.org/Graphics/SVG/1.1/DTD/svg11.dtd">
<svg xmlns="http://www.w3.org/2000/svg" version="1.1" viewBox="0 0 180 180">
<g stroke-width="2.00" fill="none" stroke-linecap="butt">
<path stroke="#98989a" vector-effect="non-scaling-stroke" d="
  M 50.02 71.13
  C 48.67 73.08 47.69 74.30 47.77 76.82
  Q 48.40 97.07 48.81 117.35
  Q 48.82 118.00 49.47 118.00
  L 53.18 118.00
  Q 53.79 118.00 53.77 117.39
  Q 53.31 97.00 52.64 76.62
  C 52.57 74.49 51.87 72.93 50.91 71.18
  Q 50.50 70.43 50.02 71.13"
/>
<path stroke="#3d504e" vector-effect="non-scaling-stroke" d="
  M 40.44 123.62
  C 38.88 122.80 38.65 124.98 39.44 125.85
  Q 39.81 126.26 40.34 126.13
  Q 44.82 125.01 48.10 128.04
  Q 48.50 128.41 48.50 128.95
  L 48.50 133.86
  Q 48.50 134.53 49.16 134.57
  L 52.51 134.81
  Q 53.12 134.85 53.16 134.23
  L 53.52 128.56
  Q 53.55 128.08 53.98 127.84
  Q 57.41 125.93 61.40 126.28
  Q 61.94 126.32 62.37 126.00
  Q 63.50 125.14 62.65 124.08
  Q 62.33 123.68 61.82 123.69
  L 41.10 123.78
  Q 40.75 123.78 40.44 123.62"
/>
</g>
<path fill="#38383c" d="
  M 43.14 116.56
  Q 42.85 98.52 42.42 79.25
  C 42.36 76.87 42.50 74.72 43.40 72.43
  C 44.96 68.52 48.45 60.36 53.09 65.40
  Q 58.15 70.88 58.13 78.11
  C 58.09 91.17 59.16 104.27 59.32 117.36
  Q 59.33 117.89 59.86 117.93
  C 67.40 118.49 70.13 120.93 68.14 128.66
  C 67.25 132.11 63.10 132.43 59.53 132.19
  Q 58.94 132.15 58.99 132.73
  C 59.54 139.29 55.13 141.01 49.51 140.24
  Q 43.25 139.38 43.00 132.23
  A 0.79 0.78 -3.7 0 0 42.13 131.47
  C 34.76 132.26 33.65 129.10 33.76 122.50
  C 33.84 117.99 37.83 117.74 41.63 117.99
  Q 43.16 118.09 43.14 116.56
  Z
  M 50.02 71.13
  C 48.67 73.08 47.69 74.30 47.77 76.82
  Q 48.40 97.07 48.81 117.35
  Q 48.82 118.00 49.47 118.00
  L 53.18 118.00
  Q 53.79 118.00 53.77 117.39
  Q 53.31 97.00 52.64 76.62
  C 52.57 74.49 51.87 72.93 50.91 71.18
  Q 50.50 70.43 50.02 71.13
  Z
  M 40.44 123.62
  C 38.88 122.80 38.65 124.98 39.44 125.85
  Q 39.81 126.26 40.34 126.13
  Q 44.82 125.01 48.10 128.04
  Q 48.50 128.41 48.50 128.95
  L 48.50 133.86
  Q 48.50 134.53 49.16 134.57
  L 52.51 134.81
  Q 53.12 134.85 53.16 134.23
  L 53.52 128.56
  Q 53.55 128.08 53.98 127.84
  Q 57.41 125.93 61.40 126.28
  Q 61.94 126.32 62.37 126.00
  Q 63.50 125.14 62.65 124.08
  Q 62.33 123.68 61.82 123.69
  L 41.10 123.78
  Q 40.75 123.78 40.44 123.62
  Z"
/>
<path fill="#f8f8f8" d="
  M 50.02 71.13
  Q 50.50 70.43 50.91 71.18
  C 51.87 72.93 52.57 74.49 52.64 76.62
  Q 53.31 97.00 53.77 117.39
  Q 53.79 118.00 53.18 118.00
  L 49.47 118.00
  Q 48.82 118.00 48.81 117.35
  Q 48.40 97.07 47.77 76.82
  C 47.69 74.30 48.67 73.08 50.02 71.13
  Z"
/>
<path fill="#42685f" d="
  M 41.10 123.78
  L 61.82 123.69
  Q 62.33 123.68 62.65 124.08
  Q 63.50 125.14 62.37 126.00
  Q 61.94 126.32 61.40 126.28
  Q 57.41 125.93 53.98 127.84
  Q 53.55 128.08 53.52 128.56
  L 53.16 134.23
  Q 53.12 134.85 52.51 134.81
  L 49.16 134.57
  Q 48.50 134.53 48.50 133.86
  L 48.50 128.95
  Q 48.50 128.41 48.10 128.04
  Q 44.82 125.01 40.34 126.13
  Q 39.81 126.26 39.44 125.85
  C 38.65 124.98 38.88 122.80 40.44 123.62
  Q 40.75 123.78 41.10 123.78
  Z"
/>
</svg>
