<?xml version="1.0" encoding="UTF-8" standalone="no"?>
<!DOCTYPE svg PUBLIC "-//W3C//DTD SVG 1.1//EN" "http://www.w3.org/Graphics/SVG/1.1/DTD/svg11.dtd">
<svg xmlns="http://www.w3.org/2000/svg" version="1.1" viewBox="0 0 180 180">
<g stroke-width="2.00" fill="none" stroke-linecap="butt">
<path stroke="#3d504e" vector-effect="non-scaling-stroke" d="
  M 39.50 65.54
  L 43.76 69.60
  Q 44.26 70.08 44.72 69.57
  L 52.25 61.38
  Q 52.70 60.89 52.24 60.41
  L 48.00 55.96"
/>
<path stroke="#576461" vector-effect="non-scaling-stroke" d="
  M 48.00 55.96
  L 44.03 51.76
  Q 43.53 51.23 43.04 51.77
  L 35.41 60.31
  Q 34.99 60.78 35.42 61.23
  L 39.50 65.54"
/>
<path stroke="#5c7c73" vector-effect="non-scaling-stroke" d="
  M 48.00 55.96
  L 39.50 65.54"
/>
<path stroke="#543d3e" vector-effect="non-scaling-stroke" d="
  M 49.73 94.65
  C 51.63 118.04 49.96 141.36 51.33 164.81
  A 0.53 0.53 0.0 0 0 52.02 165.28
  L 52.40 165.16
  Q 52.97 164.98 52.95 164.38
  Q 51.76 138.00 52.01 111.60
  C 52.04 108.55 51.15 104.75 51.26 102.25
  C 51.51 96.94 53.02 84.60 45.75 84.03
  C 37.96 83.42 31.66 86.93 33.13 95.57
  Q 33.36 96.94 34.84 97.19
  Q 35.47 97.30 35.40 96.67
  C 35.27 95.46 34.78 94.54 34.88 93.35
  C 35.35 87.69 40.14 84.50 45.42 86.14
  C 49.65 87.45 49.42 90.77 49.73 94.65"
/>
</g>
<g fill="#38383c">
<path d="
  M 42.54 45.40
  C 46.51 44.92 55.17 54.89 57.48 58.12
  C 58.98 60.19 58.63 61.37 57.30 63.32
  C 54.02 68.05 46.35 78.93 40.03 73.73
  Q 33.60 68.44 30.29 63.44
  Q 28.25 60.34 31.10 56.85
  C 32.78 54.80 40.37 45.66 42.54 45.40
  Z
  M 39.50 65.54
  L 43.76 69.60
  Q 44.26 70.08 44.72 69.57
  L 52.25 61.38
  Q 52.70 60.89 52.24 60.41
  L 48.00 55.96
  L 44.03 51.76
  Q 43.53 51.23 43.04 51.77
  L 35.41 60.31
  Q 34.99 60.78 35.42 61.23
  L 39.50 65.54
  Z"
/>
<path d="
  M 43.00 91.31
  C 40.64 90.14 40.04 94.23 41.29 95.88
  Q 41.60 96.30 41.55 96.82
  C 41.24 99.70 39.65 102.09 36.57 102.61
  C 26.09 104.37 25.68 90.88 30.09 84.69
  C 36.04 76.33 51.94 75.26 55.95 86.27
  C 57.57 90.71 56.47 97.55 56.96 102.82
  Q 57.51 108.89 57.55 111.73
  Q 57.87 136.61 58.53 161.50
  Q 58.58 163.31 57.85 165.43
  Q 57.69 165.89 57.86 166.34
  C 59.80 171.30 46.11 174.06 45.57 163.57
  C 44.37 140.27 44.79 116.98 44.61 93.61
  A 2.91 2.43 15.2 0 0 43.00 91.31
  Z
  M 49.73 94.65
  C 51.63 118.04 49.96 141.36 51.33 164.81
  A 0.53 0.53 0.0 0 0 52.02 165.28
  L 52.40 165.16
  Q 52.97 164.98 52.95 164.38
  Q 51.76 138.00 52.01 111.60
  C 52.04 108.55 51.15 104.75 51.26 102.25
  C 51.51 96.94 53.02 84.60 45.75 84.03
  C 37.96 83.42 31.66 86.93 33.13 95.57
  Q 33.36 96.94 34.84 97.19
  Q 35.47 97.30 35.40 96.67
  C 35.27 95.46 34.78 94.54 34.88 93.35
  C 35.35 87.69 40.14 84.50 45.42 86.14
  C 49.65 87.45 49.42 90.77 49.73 94.65
  Z"
/>
</g>
<path fill="#42685f" d="
  M 48.00 55.96
  L 52.24 60.41
  Q 52.70 60.89 52.25 61.38
  L 44.72 69.57
  Q 44.26 70.08 43.76 69.60
  L 39.50 65.54
  L 48.00 55.96
  Z"
/>
<path fill="#70423f" d="
  M 51.33 164.81
  C 49.96 141.36 51.63 118.04 49.73 94.65
  C 49.42 90.77 49.65 87.45 45.42 86.14
  C 40.14 84.50 35.35 87.69 34.88 93.35
  C 34.78 94.54 35.27 95.46 35.40 96.67
  Q 35.47 97.30 34.84 97.19
  Q 33.36 96.94 33.13 95.57
  C 31.66 86.93 37.96 83.42 45.75 84.03
  C 53.02 84.60 51.51 96.94 51.26 102.25
  C 51.15 104.75 52.04 108.55 52.01 111.60
  Q 51.76 138.00 52.95 164.38
  Q 52.97 164.98 52.40 165.16
  L 52.02 165.28
  A 0.53 0.53 0.0 0 1 51.33 164.81
  Z"
/>
<path fill="#759086" d="
  M 48.00 55.96
  L 39.50 65.54
  L 35.42 61.23
  Q 34.99 60.78 35.41 60.31
  L 43.04 51.77
  Q 43.53 51.23 44.03 51.76
  L 48.00 55.96
  Z"
/>
</svg>
