<?xml version="1.0" encoding="UTF-8" standalone="no"?>
<!DOCTYPE svg PUBLIC "-//W3C//DTD SVG 1.1//EN" "http://www.w3.org/Graphics/SVG/1.1/DTD/svg11.dtd">
<svg xmlns="http://www.w3.org/2000/svg" version="1.1" viewBox="0 0 180 180">
<g stroke-width="2.00" fill="none" stroke-linecap="butt">
<path stroke="#98989a" vector-effect="non-scaling-stroke" d="
  M 68.90 90.24
  C 54.51 88.47 39.25 89.46 26.96 96.13
  Q 26.06 96.62 27.08 96.48
  Q 37.10 95.18 42.75 94.92
  Q 48.05 94.68 48.78 100.07
  Q 48.85 100.59 49.38 100.61
  L 54.14 100.80
  Q 54.77 100.83 54.81 100.20
  C 55.22 93.65 64.07 94.95 68.23 95.67
  Q 68.90 95.78 69.00 95.11
  L 69.60 91.16
  Q 69.73 90.34 68.90 90.24"
/>
<path stroke="#533d3e" vector-effect="non-scaling-stroke" d="
  M 53.6911 106.8755
  A 0.51 0.51 0.0 0 0 53.1793 106.3673
  L 51.5793 106.3729
  A 0.51 0.51 0.0 0 0 51.0711 106.8847
  L 51.2089 146.3845
  A 0.51 0.51 0.0 0 0 51.7207 146.8927
  L 53.3207 146.8871
  A 0.51 0.51 0.0 0 0 53.8289 146.3753
  L 53.6911 106.8755"
/>
</g>
<path fill="#38383c" d="
  M 67.18 84.33
  C 76.96 84.95 75.44 92.54 74.05 99.03
  C 73.15 103.25 64.56 100.75 61.33 100.50
  Q 60.81 100.47 60.63 100.95
  C 59.88 103.03 59.09 104.55 59.17 106.83
  Q 60.10 130.66 59.19 147.43
  C 58.78 155.02 45.46 154.64 45.60 145.60
  Q 45.88 126.25 45.41 106.87
  C 45.35 104.35 44.25 103.40 43.36 101.17
  Q 43.17 100.69 42.65 100.69
  Q 31.04 100.78 19.94 103.90
  C 17.91 104.47 16.38 104.00 15.84 101.91
  C 14.95 98.50 20.25 94.19 22.83 92.60
  C 36.63 84.08 51.43 83.34 67.18 84.33
  Z
  M 68.90 90.24
  C 54.51 88.47 39.25 89.46 26.96 96.13
  Q 26.06 96.62 27.08 96.48
  Q 37.10 95.18 42.75 94.92
  Q 48.05 94.68 48.78 100.07
  Q 48.85 100.59 49.38 100.61
  L 54.14 100.80
  Q 54.77 100.83 54.81 100.20
  C 55.22 93.65 64.07 94.95 68.23 95.67
  Q 68.90 95.78 69.00 95.11
  L 69.60 91.16
  Q 69.73 90.34 68.90 90.24
  Z
  M 53.6911 106.8755
  A 0.51 0.51 0.0 0 0 53.1793 106.3673
  L 51.5793 106.3729
  A 0.51 0.51 0.0 0 0 51.0711 106.8847
  L 51.2089 146.3845
  A 0.51 0.51 0.0 0 0 51.7207 146.8927
  L 53.3207 146.8871
  A 0.51 0.51 0.0 0 0 53.8289 146.3753
  L 53.6911 106.8755
  Z"
/>
<path fill="#f8f8f8" d="
  M 68.90 90.24
  Q 69.73 90.34 69.60 91.16
  L 69.00 95.11
  Q 68.90 95.78 68.23 95.67
  C 64.07 94.95 55.22 93.65 54.81 100.20
  Q 54.77 100.83 54.14 100.80
  L 49.38 100.61
  Q 48.85 100.59 48.78 100.07
  Q 48.05 94.68 42.75 94.92
  Q 37.10 95.18 27.08 96.48
  Q 26.06 96.62 26.96 96.13
  C 39.25 89.46 54.51 88.47 68.90 90.24
  Z"
/>
<rect fill="#6e423f" x="-1.31" y="-20.26" transform="translate(52.45,126.63) rotate(-0.2)" width="2.62" height="40.52" rx="0.51"/>
</svg>
