<?xml version="1.0" encoding="UTF-8" standalone="no"?>
<!DOCTYPE svg PUBLIC "-//W3C//DTD SVG 1.1//EN" "http://www.w3.org/Graphics/SVG/1.1/DTD/svg11.dtd">
<svg xmlns="http://www.w3.org/2000/svg" version="1.1" viewBox="0 0 180 180">
<g stroke-width="2.00" fill="none" stroke-linecap="butt">
<path stroke="#98989a" vector-effect="non-scaling-stroke" d="
  M 45.67 76.74
  L 46.33 78.74
  Q 46.53 79.33 47.15 79.28
  L 52.52 78.86
  Q 53.04 78.82 53.14 78.30
  Q 53.64 75.66 56.09 74.70
  Q 56.65 74.48 56.52 73.90
  L 50.23 46.01
  Q 50.07 45.27 49.87 46.01
  Q 46.48 58.98 42.90 72.00
  Q 42.02 75.23 44.89 75.99
  Q 45.48 76.15 45.67 76.74"
/>
<path stroke="#553d3e" vector-effect="non-scaling-stroke" d="
  M 52.26 165.00
  L 50.91 85.42
  Q 50.90 84.75 50.23 84.75
  L 49.83 84.75
  Q 49.28 84.75 49.27 85.30
  C 49.12 93.54 50.11 165.39 51.64 165.43
  Q 52.26 165.44 52.26 165.00"
/>
</g>
<path fill="#38383c" d="
  M 41.14 80.82
  Q 35.99 77.58 37.46 71.74
  Q 41.77 54.63 47.05 37.81
  C 48.40 33.54 52.40 34.88 53.47 38.51
  Q 58.71 56.17 62.17 74.27
  C 62.72 77.10 61.37 78.93 59.18 80.37
  Q 58.74 80.66 58.56 81.15
  Q 58.04 82.59 56.75 83.40
  Q 56.28 83.70 56.30 84.26
  Q 57.65 122.88 58.01 161.50
  Q 58.04 163.75 57.53 167.77
  Q 57.47 168.27 57.11 168.63
  C 52.41 173.23 45.77 171.46 45.40 164.31
  C 44.34 143.75 44.25 122.98 43.64 102.24
  C 43.49 96.97 43.91 90.92 43.70 85.22
  Q 43.69 84.70 43.24 84.42
  Q 41.68 83.46 41.58 81.56
  Q 41.55 81.08 41.14 80.82
  Z
  M 45.67 76.74
  L 46.33 78.74
  Q 46.53 79.33 47.15 79.28
  L 52.52 78.86
  Q 53.04 78.82 53.14 78.30
  Q 53.64 75.66 56.09 74.70
  Q 56.65 74.48 56.52 73.90
  L 50.23 46.01
  Q 50.07 45.27 49.87 46.01
  Q 46.48 58.98 42.90 72.00
  Q 42.02 75.23 44.89 75.99
  Q 45.48 76.15 45.67 76.74
  Z
  M 52.26 165.00
  L 50.91 85.42
  Q 50.90 84.75 50.23 84.75
  L 49.83 84.75
  Q 49.28 84.75 49.27 85.30
  C 49.12 93.54 50.11 165.39 51.64 165.43
  Q 52.26 165.44 52.26 165.00
  Z"
/>
<path fill="#f8f8f8" d="
  M 44.89 75.99
  Q 42.02 75.23 42.90 72.00
  Q 46.48 58.98 49.87 46.01
  Q 50.07 45.27 50.23 46.01
  L 56.52 73.90
  Q 56.65 74.48 56.09 74.70
  Q 53.64 75.66 53.14 78.30
  Q 53.04 78.82 52.52 78.86
  L 47.15 79.28
  Q 46.53 79.33 46.33 78.74
  L 45.67 76.74
  Q 45.48 76.15 44.89 75.99
  Z"
/>
<path fill="#71423f" d="
  M 50.91 85.42
  L 52.26 165.00
  Q 52.26 165.44 51.64 165.43
  C 50.11 165.39 49.12 93.54 49.27 85.30
  Q 49.28 84.75 49.83 84.75
  L 50.23 84.75
  Q 50.90 84.75 50.91 85.42
  Z"
/>
</svg>
