<?xml version="1.0" encoding="UTF-8" standalone="no"?>
<!DOCTYPE svg PUBLIC "-//W3C//DTD SVG 1.1//EN" "http://www.w3.org/Graphics/SVG/1.1/DTD/svg11.dtd">
<svg xmlns="http://www.w3.org/2000/svg" version="1.1" viewBox="0 0 180 180">
<g stroke-width="2.00" fill="none" stroke-linecap="butt">
<path stroke="#98989a" vector-effect="non-scaling-stroke" d="
  M 45.35 76.50
  L 47.75 79.65
  Q 48.02 80.00 48.46 80.00
  L 51.70 80.00
  Q 52.30 80.00 52.41 79.41
  Q 52.79 77.39 54.26 76.01
  Q 54.63 75.66 55.13 75.69
  Q 59.37 75.91 63.55 74.97
  C 71.40 73.21 70.59 50.44 70.51 44.14
  A 0.47 0.46 62.7 0 0 69.67 43.87
  C 66.83 47.74 66.58 57.02 66.72 61.64
  C 66.93 68.36 60.57 72.77 54.93 67.96
  Q 54.65 67.73 54.29 67.76
  C 52.66 67.92 51.34 63.87 51.41 63.26
  C 52.31 55.66 52.92 48.36 50.13 42.52
  A 0.29 0.29 0.0 0 0 49.59 42.57
  Q 47.80 49.26 48.35 56.19
  C 48.64 59.96 49.62 63.13 47.45 66.22
  C 44.61 70.27 37.04 71.18 34.39 66.16
  Q 33.56 64.59 33.29 61.15
  C 32.85 55.50 32.87 49.34 30.34 44.19
  A 0.44 0.44 0.0 0 0 29.50 44.34
  Q 28.35 55.98 30.79 66.86
  C 32.55 74.69 37.89 75.14 44.50 76.01
  Q 45.03 76.08 45.35 76.50"
/>
<path stroke="#553d3e" vector-effect="non-scaling-stroke" d="
  M 49.56 85.98
  C 50.89 112.37 50.72 138.70 50.78 165.09
  Q 50.78 165.64 51.31 165.80
  L 51.97 165.99
  A 0.96 0.96 0.0 0 0 53.19 165.05
  Q 52.28 125.85 51.03 86.76
  Q 51.00 85.88 50.16 85.55
  A 0.44 0.44 0.0 0 0 49.56 85.98"
/>
</g>
<path fill="#38383c" d="
  M 57.78 81.79
  C 56.89 83.22 56.17 84.28 56.32 86.08
  C 57.40 98.49 57.26 113.53 57.62 123.31
  Q 58.41 144.27 58.53 165.25
  Q 58.53 166.61 57.33 169.57
  Q 57.14 170.03 56.70 170.28
  Q 51.71 173.07 47.57 169.70
  C 43.75 166.58 45.24 157.97 45.14 153.56
  C 44.62 131.18 44.90 110.67 44.01 86.43
  Q 43.99 86.03 44.14 85.67
  Q 44.33 85.21 44.20 84.68
  Q 44.07 84.18 43.69 83.83
  Q 42.81 83.06 42.35 81.97
  Q 42.13 81.45 41.58 81.34
  C 33.74 79.89 27.68 77.82 25.68 69.06
  C 24.32 63.16 21.20 43.15 26.85 39.47
  C 31.49 36.45 36.10 42.70 37.05 46.66
  C 37.86 50.05 38.24 57.31 38.64 62.37
  A 2.01 2.01 0.0 0 0 40.36 64.21
  C 43.35 64.63 43.65 61.17 43.38 58.83
  C 42.75 53.21 42.38 41.04 47.98 37.07
  Q 48.40 36.77 48.92 36.79
  C 58.92 37.12 56.97 56.54 56.66 62.47
  Q 56.63 63.04 57.13 63.30
  L 59.53 64.59
  Q 60.16 64.93 60.46 64.28
  Q 61.31 62.42 61.26 59.76
  C 61.15 54.08 62.03 40.54 68.69 38.24
  C 80.46 34.18 75.20 64.24 74.36 69.06
  C 72.69 78.64 67.43 80.83 58.57 81.32
  Q 58.05 81.35 57.78 81.79
  Z
  M 45.35 76.50
  L 47.75 79.65
  Q 48.02 80.00 48.46 80.00
  L 51.70 80.00
  Q 52.30 80.00 52.41 79.41
  Q 52.79 77.39 54.26 76.01
  Q 54.63 75.66 55.13 75.69
  Q 59.37 75.91 63.55 74.97
  C 71.40 73.21 70.59 50.44 70.51 44.14
  A 0.47 0.46 62.7 0 0 69.67 43.87
  C 66.83 47.74 66.58 57.02 66.72 61.64
  C 66.93 68.36 60.57 72.77 54.93 67.96
  Q 54.65 67.73 54.29 67.76
  C 52.66 67.92 51.34 63.87 51.41 63.26
  C 52.31 55.66 52.92 48.36 50.13 42.52
  A 0.29 0.29 0.0 0 0 49.59 42.57
  Q 47.80 49.26 48.35 56.19
  C 48.64 59.96 49.62 63.13 47.45 66.22
  C 44.61 70.27 37.04 71.18 34.39 66.16
  Q 33.56 64.59 33.29 61.15
  C 32.85 55.50 32.87 49.34 30.34 44.19
  A 0.44 0.44 0.0 0 0 29.50 44.34
  Q 28.35 55.98 30.79 66.86
  C 32.55 74.69 37.89 75.14 44.50 76.01
  Q 45.03 76.08 45.35 76.50
  Z
  M 49.56 85.98
  C 50.89 112.37 50.72 138.70 50.78 165.09
  Q 50.78 165.64 51.31 165.80
  L 51.97 165.99
  A 0.96 0.96 0.0 0 0 53.19 165.05
  Q 52.28 125.85 51.03 86.76
  Q 51.00 85.88 50.16 85.55
  A 0.44 0.44 0.0 0 0 49.56 85.98
  Z"
/>
<path fill="#f8f8f8" d="
  M 44.50 76.01
  C 37.89 75.14 32.55 74.69 30.79 66.86
  Q 28.35 55.98 29.50 44.34
  A 0.44 0.44 0.0 0 1 30.34 44.19
  C 32.87 49.34 32.85 55.50 33.29 61.15
  Q 33.56 64.59 34.39 66.16
  C 37.04 71.18 44.61 70.27 47.45 66.22
  C 49.62 63.13 48.64 59.96 48.35 56.19
  Q 47.80 49.26 49.59 42.57
  A 0.29 0.29 0.0 0 1 50.13 42.52
  C 52.92 48.36 52.31 55.66 51.41 63.26
  C 51.34 63.87 52.66 67.92 54.29 67.76
  Q 54.65 67.73 54.93 67.96
  C 60.57 72.77 66.93 68.36 66.72 61.64
  C 66.58 57.02 66.83 47.74 69.67 43.87
  A 0.47 0.46 62.7 0 1 70.51 44.14
  C 70.59 50.44 71.40 73.21 63.55 74.97
  Q 59.37 75.91 55.13 75.69
  Q 54.63 75.66 54.26 76.01
  Q 52.79 77.39 52.41 79.41
  Q 52.30 80.00 51.70 80.00
  L 48.46 80.00
  Q 48.02 80.00 47.75 79.65
  L 45.35 76.50
  Q 45.03 76.08 44.50 76.01
  Z"
/>
<path fill="#71423f" d="
  M 50.78 165.09
  C 50.72 138.70 50.89 112.37 49.56 85.98
  A 0.44 0.44 0.0 0 1 50.16 85.55
  Q 51.00 85.88 51.03 86.76
  Q 52.28 125.85 53.19 165.05
  A 0.96 0.96 0.0 0 1 51.97 165.99
  L 51.31 165.80
  Q 50.78 165.64 50.78 165.09
  Z"
/>
</svg>
