<?xml version="1.0" encoding="UTF-8" standalone="no"?>
<!DOCTYPE svg PUBLIC "-//W3C//DTD SVG 1.1//EN" "http://www.w3.org/Graphics/SVG/1.1/DTD/svg11.dtd">
<svg xmlns="http://www.w3.org/2000/svg" version="1.1" viewBox="0 0 180 180">
<g stroke-width="2.00" fill="none" stroke-linecap="butt">
<path stroke="#82883e" vector-effect="non-scaling-stroke" d="
  M 30.76 83.45
  C 36.57 77.85 46.69 75.96 52.97 81.59
  Q 53.40 81.97 53.62 81.45
  Q 54.87 78.49 53.32 75.68
  A 0.90 0.90 0.0 0 0 52.07 75.34
  C 49.14 77.10 47.65 75.31 46.81 72.69
  A 1.18 1.18 0.0 0 0 44.87 72.20
  C 38.03 78.83 39.30 68.22 37.57 65.77
  Q 37.27 65.35 36.84 65.64
  C 33.22 68.02 36.54 75.19 31.87 77.13
  Q 31.41 77.32 30.95 77.16
  C 28.35 76.24 30.00 82.48 30.23 83.30
  A 0.32 0.32 0.0 0 0 30.76 83.45"
/>
<path stroke="#543d3e" vector-effect="non-scaling-stroke" d="
  M 49.56 91.68
  C 51.40 116.11 49.90 140.38 51.35 164.81
  A 0.52 0.52 0.0 0 0 52.03 165.28
  L 52.39 165.16
  Q 52.94 164.99 52.92 164.41
  C 52.07 143.75 52.60 123.03 51.59 102.43
  C 51.31 96.72 53.69 84.04 44.24 83.90
  C 37.02 83.80 31.98 87.69 33.27 95.39
  Q 33.52 96.91 34.95 97.30
  A 0.41 0.41 0.0 0 0 35.45 96.79
  C 31.79 84.87 48.80 81.60 49.56 91.68"
/>
</g>
<path fill="#38383c" d="
  M 51.30 69.17
  A 0.88 0.86 -15.0 0 0 52.05 69.59
  C 61.39 69.57 60.96 81.58 56.83 86.85
  Q 56.52 87.25 56.55 87.75
  C 56.87 93.79 56.13 100.33 57.32 106.20
  Q 57.55 107.30 57.56 108.32
  Q 57.77 134.91 58.55 161.50
  Q 58.60 163.22 57.84 165.42
  Q 57.69 165.88 57.86 166.33
  C 59.81 171.31 46.10 174.05 45.57 163.59
  C 44.40 140.72 44.81 117.89 44.59 95.00
  C 44.57 92.93 44.18 91.02 41.69 91.42
  A 1.73 1.73 0.0 0 0 40.42 93.90
  C 45.96 104.98 24.61 107.36 27.55 90.55
  Q 27.63 90.06 27.35 89.64
  C 24.28 85.07 20.94 74.00 28.62 71.68
  Q 29.15 71.53 29.19 70.98
  C 29.62 65.09 31.85 60.10 38.43 59.64
  Q 38.90 59.61 39.31 59.85
  Q 42.76 61.90 43.59 65.81
  Q 43.70 66.32 44.21 66.20
  Q 48.79 65.12 51.30 69.17
  Z
  M 30.76 83.45
  C 36.57 77.85 46.69 75.96 52.97 81.59
  Q 53.40 81.97 53.62 81.45
  Q 54.87 78.49 53.32 75.68
  A 0.90 0.90 0.0 0 0 52.07 75.34
  C 49.14 77.10 47.65 75.31 46.81 72.69
  A 1.18 1.18 0.0 0 0 44.87 72.20
  C 38.03 78.83 39.30 68.22 37.57 65.77
  Q 37.27 65.35 36.84 65.64
  C 33.22 68.02 36.54 75.19 31.87 77.13
  Q 31.41 77.32 30.95 77.16
  C 28.35 76.24 30.00 82.48 30.23 83.30
  A 0.32 0.32 0.0 0 0 30.76 83.45
  Z
  M 49.56 91.68
  C 51.40 116.11 49.90 140.38 51.35 164.81
  A 0.52 0.52 0.0 0 0 52.03 165.28
  L 52.39 165.16
  Q 52.94 164.99 52.92 164.41
  C 52.07 143.75 52.60 123.03 51.59 102.43
  C 51.31 96.72 53.69 84.04 44.24 83.90
  C 37.02 83.80 31.98 87.69 33.27 95.39
  Q 33.52 96.91 34.95 97.30
  A 0.41 0.41 0.0 0 0 35.45 96.79
  C 31.79 84.87 48.80 81.60 49.56 91.68
  Z"
/>
<path fill="#ccd73f" d="
  M 30.76 83.45
  A 0.32 0.32 0.0 0 1 30.23 83.30
  C 30.00 82.48 28.35 76.24 30.95 77.16
  Q 31.41 77.32 31.87 77.13
  C 36.54 75.19 33.22 68.02 36.84 65.64
  Q 37.27 65.35 37.57 65.77
  C 39.30 68.22 38.03 78.83 44.87 72.20
  A 1.18 1.18 0.0 0 1 46.81 72.69
  C 47.65 75.31 49.14 77.10 52.07 75.34
  A 0.90 0.90 0.0 0 1 53.32 75.68
  Q 54.87 78.49 53.62 81.45
  Q 53.40 81.97 52.97 81.59
  C 46.69 75.96 36.57 77.85 30.76 83.45
  Z"
/>
<path fill="#6f423f" d="
  M 51.35 164.81
  C 49.90 140.38 51.40 116.11 49.56 91.68
  C 48.80 81.60 31.79 84.87 35.45 96.79
  A 0.41 0.41 0.0 0 1 34.95 97.30
  Q 33.52 96.91 33.27 95.39
  C 31.98 87.69 37.02 83.80 44.24 83.90
  C 53.69 84.04 51.31 96.72 51.59 102.43
  C 52.60 123.03 52.07 143.75 52.92 164.41
  Q 52.94 164.99 52.39 165.16
  L 52.03 165.28
  A 0.52 0.52 0.0 0 1 51.35 164.81
  Z"
/>
</svg>
