<?xml version="1.0" encoding="UTF-8" standalone="no"?>
<!DOCTYPE svg PUBLIC "-//W3C//DTD SVG 1.1//EN" "http://www.w3.org/Graphics/SVG/1.1/DTD/svg11.dtd">
<svg xmlns="http://www.w3.org/2000/svg" version="1.1" viewBox="0 0 180 180">
<g stroke-width="2.00" fill="none" stroke-linecap="butt">
<path stroke="#9c904e" vector-effect="non-scaling-stroke" d="
  M 65.10 116.70
  Q 61.32 119.13 57.37 117.35
  A 1.67 1.66 16.3 0 0 55.04 118.62
  C 54.55 122.00 58.52 123.88 54.75 126.96"
/>
<path stroke="#9c904e" vector-effect="non-scaling-stroke" d="
  M 55.33 135.65
  C 57.68 139.84 52.71 142.20 50.76 145.68
  C 45.79 154.58 60.80 153.96 64.71 154.25"
/>
</g>
<g fill="#ffe75f">
<path d="
  M 65.10 116.70
  Q 65.77 121.99 63.91 126.84
  C 62.81 129.71 60.05 130.67 57.92 128.10
  Q 57.60 127.72 57.11 127.59
  L 54.75 126.96
  C 58.52 123.88 54.55 122.00 55.04 118.62
  A 1.67 1.66 16.3 0 1 57.37 117.35
  Q 61.32 119.13 65.10 116.70
  Z"
/>
<path d="
  M 64.71 154.25
  C 60.80 153.96 45.79 154.58 50.76 145.68
  C 52.71 142.20 57.68 139.84 55.33 135.65
  Q 60.16 135.61 62.19 136.60
  C 65.99 138.47 64.85 150.54 64.71 154.25
  Z"
/>
</g>
<g fill="#38383c">
<path d="
  M 65.10 116.70
  Q 61.32 119.13 57.37 117.35
  A 1.67 1.66 16.3 0 0 55.04 118.62
  C 54.55 122.00 58.52 123.88 54.75 126.96
  C 51.26 126.62 50.05 123.70 49.59 120.69
  C 48.69 114.86 52.32 112.58 57.52 112.43
  C 60.91 112.33 65.53 112.26 65.10 116.70
  Z"
/>
<path d="
  M 55.33 135.65
  C 57.68 139.84 52.71 142.20 50.76 145.68
  C 45.79 154.58 60.80 153.96 64.71 154.25
  C 68.89 162.28 54.12 159.53 51.14 158.00
  C 44.82 154.76 42.66 149.59 45.99 142.99
  Q 49.19 136.68 55.33 135.65
  Z"
/>
</g>
</svg>
