<?xml version="1.0" encoding="UTF-8" standalone="no"?>
<!DOCTYPE svg PUBLIC "-//W3C//DTD SVG 1.1//EN" "http://www.w3.org/Graphics/SVG/1.1/DTD/svg11.dtd">
<svg xmlns="http://www.w3.org/2000/svg" version="1.1" viewBox="0 0 180 180">
<g stroke-width="2.00" fill="none" stroke-linecap="butt">
<path stroke="#9c8f4c" vector-effect="non-scaling-stroke" d="
  M 55.97 75.83
  C 57.29 69.67 47.46 71.08 48.82 75.95
  Q 48.94 76.39 49.40 76.38
  L 55.53 76.20
  Q 55.90 76.19 55.97 75.83"
/>
<path stroke="#9c4249" vector-effect="non-scaling-stroke" d="
  M 54.36 82.89
  C 55.40 89.01 54.50 94.67 54.79 100.27
  Q 54.81 100.76 55.29 100.86
  C 65.48 103.07 66.80 83.78 56.67 82.84
  Q 56.15 82.79 55.77 82.42
  Q 55.29 81.94 54.80 82.12
  Q 54.26 82.32 54.36 82.89"
/>
<path stroke="#9c4249" vector-effect="non-scaling-stroke" d="
  M 41.12 89.65
  C 40.09 94.29 43.57 101.49 48.57 100.94
  A 0.80 0.79 -3.2 0 0 49.28 100.15
  L 49.36 83.73
  Q 49.36 81.84 47.71 82.76
  C 44.82 84.37 42.02 85.60 41.12 89.65"
/>
<path stroke="#9c8f4c" vector-effect="non-scaling-stroke" d="
  M 53.63 147.25
  Q 53.98 144.76 53.99 142.25
  Q 54.00 124.76 54.00 107.27
  Q 54.00 106.75 53.48 106.75
  L 51.60 106.75
  Q 50.95 106.75 50.93 107.40
  L 49.83 147.01
  Q 49.82 147.57 50.26 147.93
  Q 51.66 149.04 53.10 148.08
  Q 53.55 147.78 53.63 147.25"
/>
</g>
<path fill="#38383c" d="
  M 45.28 106.65
  C 32.98 101.26 31.68 85.99 43.00 78.65
  Q 43.44 78.36 43.34 77.84
  C 40.31 62.78 65.46 62.05 61.30 77.85
  Q 61.16 78.39 61.64 78.66
  C 72.70 84.98 71.28 102.47 59.77 107.00
  Q 59.24 107.20 59.25 107.77
  Q 60.04 138.62 59.26 147.50
  C 58.43 156.89 44.04 156.68 44.41 144.92
  Q 44.99 126.17 45.74 107.39
  Q 45.76 106.86 45.28 106.65
  Z
  M 55.97 75.83
  C 57.29 69.67 47.46 71.08 48.82 75.95
  Q 48.94 76.39 49.40 76.38
  L 55.53 76.20
  Q 55.90 76.19 55.97 75.83
  Z
  M 54.36 82.89
  C 55.40 89.01 54.50 94.67 54.79 100.27
  Q 54.81 100.76 55.29 100.86
  C 65.48 103.07 66.80 83.78 56.67 82.84
  Q 56.15 82.79 55.77 82.42
  Q 55.29 81.94 54.80 82.12
  Q 54.26 82.32 54.36 82.89
  Z
  M 41.12 89.65
  C 40.09 94.29 43.57 101.49 48.57 100.94
  A 0.80 0.79 -3.2 0 0 49.28 100.15
  L 49.36 83.73
  Q 49.36 81.84 47.71 82.76
  C 44.82 84.37 42.02 85.60 41.12 89.65
  Z
  M 53.63 147.25
  Q 53.98 144.76 53.99 142.25
  Q 54.00 124.76 54.00 107.27
  Q 54.00 106.75 53.48 106.75
  L 51.60 106.75
  Q 50.95 106.75 50.93 107.40
  L 49.83 147.01
  Q 49.82 147.57 50.26 147.93
  Q 51.66 149.04 53.10 148.08
  Q 53.55 147.78 53.63 147.25
  Z"
/>
<g fill="#ff4b55">
<path d="
  M 54.79 100.27
  C 54.50 94.67 55.40 89.01 54.36 82.89
  Q 54.26 82.32 54.80 82.12
  Q 55.29 81.94 55.77 82.42
  Q 56.15 82.79 56.67 82.84
  C 66.80 83.78 65.48 103.07 55.29 100.86
  Q 54.81 100.76 54.79 100.27
  Z"
/>
<path d="
  M 48.57 100.94
  C 43.57 101.49 40.09 94.29 41.12 89.65
  C 42.02 85.60 44.82 84.37 47.71 82.76
  Q 49.36 81.84 49.36 83.73
  L 49.28 100.15
  A 0.80 0.79 -3.2 0 1 48.57 100.94
  Z"
/>
</g>
<g fill="#ffe65c">
<path d="
  M 48.82 75.95
  C 47.46 71.08 57.29 69.67 55.97 75.83
  Q 55.90 76.19 55.53 76.20
  L 49.40 76.38
  Q 48.94 76.39 48.82 75.95
  Z"
/>
<path d="
  M 53.10 148.08
  Q 51.66 149.04 50.26 147.93
  Q 49.82 147.57 49.83 147.01
  L 50.93 107.40
  Q 50.95 106.75 51.60 106.75
  L 53.48 106.75
  Q 54.00 106.75 54.00 107.27
  Q 54.00 124.76 53.99 142.25
  Q 53.98 144.76 53.63 147.25
  Q 53.55 147.78 53.10 148.08
  Z"
/>
</g>
</svg>
