<?xml version="1.0" encoding="UTF-8" standalone="no"?>
<!DOCTYPE svg PUBLIC "-//W3C//DTD SVG 1.1//EN" "http://www.w3.org/Graphics/SVG/1.1/DTD/svg11.dtd">
<svg xmlns="http://www.w3.org/2000/svg" version="1.1" viewBox="0 0 180 180">
<g stroke-width="2.00" fill="none" stroke-linecap="butt">
<path stroke="#98989a" vector-effect="non-scaling-stroke" d="
  M 45.25 95.68
  C 47.56 95.49 48.56 98.02 49.48 99.62
  Q 49.76 100.11 50.32 100.07
  L 54.67 99.74
  Q 55.32 99.69 55.56 99.08
  C 57.96 93.00 61.34 95.45 66.65 94.71
  Q 67.17 94.64 67.19 94.12
  C 67.56 85.15 66.68 75.21 62.32 67.18
  C 58.27 59.73 47.82 61.26 42.89 66.65
  C 35.44 74.81 35.95 84.48 36.33 94.81
  Q 36.34 95.31 36.84 95.39
  Q 41.03 96.04 45.25 95.68"
/>
<path stroke="#533d3e" vector-effect="non-scaling-stroke" d="
  M 45.51 160.36
  Q 52.48 160.69 59.31 161.05
  C 60.06 161.09 60.55 160.75 60.50 159.99
  Q 60.46 159.46 59.93 159.51
  C 55.75 159.91 54.61 157.31 54.39 153.55
  C 53.77 142.78 54.51 132.46 53.78 121.00
  Q 53.42 115.35 53.51 106.37
  Q 53.52 105.75 52.89 105.75
  L 52.26 105.75
  Q 51.63 105.75 51.65 106.38
  Q 52.46 130.44 51.40 154.50
  C 51.28 157.32 47.47 158.44 45.36 159.09
  A 0.65 0.65 0.0 0 0 45.51 160.36"
/>
<path stroke="#98989a" vector-effect="non-scaling-stroke" d="
  M 56.6611 88.2341
  A 2.48 2.48 0.0 0 0 54.0919 85.8467
  L 49.9946 85.9969
  A 2.48 2.48 0.0 0 0 47.6072 88.5661
  L 47.6189 88.8859
  A 2.48 2.48 0.0 0 0 50.1881 91.2733
  L 54.2854 91.1231
  A 2.48 2.48 0.0 0 0 56.6728 88.5539
  L 56.6611 88.2341"
/>
</g>
<g fill="#38383c">
<path d="
  M 43.95 101.41
  C 37.34 100.83 30.96 103.37 30.73 93.84
  C 30.52 84.44 30.01 75.01 35.63 66.54
  C 39.66 60.48 44.81 56.73 52.26 56.59
  C 58.45 56.48 63.37 58.19 66.83 63.60
  C 72.88 73.06 73.75 87.76 72.85 98.59
  A 1.81 1.79 -88.6 0 1 71.12 100.25
  L 61.44 100.58
  Q 60.98 100.60 60.76 101.00
  Q 60.19 102.07 59.57 103.12
  Q 59.33 103.55 59.34 104.04
  L 60.21 153.12
  Q 60.22 153.64 60.73 153.60
  C 64.76 153.28 66.38 155.78 66.21 159.55
  C 66.03 163.85 66.23 166.87 60.97 166.78
  Q 54.46 166.68 47.98 166.23
  C 44.66 166.00 41.62 167.25 40.25 163.00
  C 39.21 159.77 39.48 152.49 44.81 153.30
  A 0.69 0.69 0.0 0 0 45.60 152.65
  Q 46.57 128.08 45.91 103.49
  A 2.14 2.14 0.0 0 0 43.95 101.41
  Z
  M 45.25 95.68
  C 47.56 95.49 48.56 98.02 49.48 99.62
  Q 49.76 100.11 50.32 100.07
  L 54.67 99.74
  Q 55.32 99.69 55.56 99.08
  C 57.96 93.00 61.34 95.45 66.65 94.71
  Q 67.17 94.64 67.19 94.12
  C 67.56 85.15 66.68 75.21 62.32 67.18
  C 58.27 59.73 47.82 61.26 42.89 66.65
  C 35.44 74.81 35.95 84.48 36.33 94.81
  Q 36.34 95.31 36.84 95.39
  Q 41.03 96.04 45.25 95.68
  Z
  M 45.51 160.36
  Q 52.48 160.69 59.31 161.05
  C 60.06 161.09 60.55 160.75 60.50 159.99
  Q 60.46 159.46 59.93 159.51
  C 55.75 159.91 54.61 157.31 54.39 153.55
  C 53.77 142.78 54.51 132.46 53.78 121.00
  Q 53.42 115.35 53.51 106.37
  Q 53.52 105.75 52.89 105.75
  L 52.26 105.75
  Q 51.63 105.75 51.65 106.38
  Q 52.46 130.44 51.40 154.50
  C 51.28 157.32 47.47 158.44 45.36 159.09
  A 0.65 0.65 0.0 0 0 45.51 160.36
  Z"
/>
<rect x="-4.53" y="-2.64" transform="translate(52.14,88.56) rotate(-2.1)" width="9.06" height="5.28" rx="2.48"/>
</g>
<path fill="#f8f8f8" d="
  M 49.48 99.62
  C 48.56 98.02 47.56 95.49 45.25 95.68
  Q 41.03 96.04 36.84 95.39
  Q 36.34 95.31 36.33 94.81
  C 35.95 84.48 35.44 74.81 42.89 66.65
  C 47.82 61.26 58.27 59.73 62.32 67.18
  C 66.68 75.21 67.56 85.15 67.19 94.12
  Q 67.17 94.64 66.65 94.71
  C 61.34 95.45 57.96 93.00 55.56 99.08
  Q 55.32 99.69 54.67 99.74
  L 50.32 100.07
  Q 49.76 100.11 49.48 99.62
  Z
  M 56.6611 88.2341
  A 2.48 2.48 0.0 0 0 54.0919 85.8467
  L 49.9946 85.9969
  A 2.48 2.48 0.0 0 0 47.6072 88.5661
  L 47.6189 88.8859
  A 2.48 2.48 0.0 0 0 50.1881 91.2733
  L 54.2854 91.1231
  A 2.48 2.48 0.0 0 0 56.6728 88.5539
  L 56.6611 88.2341
  Z"
/>
<path fill="#6e423f" d="
  M 45.51 160.36
  A 0.65 0.65 0.0 0 1 45.36 159.09
  C 47.47 158.44 51.28 157.32 51.40 154.50
  Q 52.46 130.44 51.65 106.38
  Q 51.63 105.75 52.26 105.75
  L 52.89 105.75
  Q 53.52 105.75 53.51 106.37
  Q 53.42 115.35 53.78 121.00
  C 54.51 132.46 53.77 142.78 54.39 153.55
  C 54.61 157.31 55.75 159.91 59.93 159.51
  Q 60.46 159.46 60.50 159.99
  C 60.55 160.75 60.06 161.09 59.31 161.05
  Q 52.48 160.69 45.51 160.36
  Z"
/>
</svg>
