<?xml version="1.0" encoding="UTF-8" standalone="no"?>
<!DOCTYPE svg PUBLIC "-//W3C//DTD SVG 1.1//EN" "http://www.w3.org/Graphics/SVG/1.1/DTD/svg11.dtd">
<svg xmlns="http://www.w3.org/2000/svg" version="1.1" viewBox="0 0 180 180">
<g stroke-width="2.00" fill="none" stroke-linecap="butt">
<path stroke="#98989a" vector-effect="non-scaling-stroke" d="
  M 51.45 122.28
  C 54.19 123.78 58.63 119.47 59.59 117.54
  Q 63.07 110.53 60.04 104.07
  C 57.75 99.20 53.57 97.39 48.80 100.48
  Q 48.11 100.93 48.93 100.93
  C 60.26 100.99 61.23 115.79 51.54 119.74
  Q 51.04 119.94 51.02 120.47
  L 50.99 121.47
  Q 50.97 122.01 51.45 122.28"
/>
<path stroke="#533d3e" vector-effect="non-scaling-stroke" d="
  M 53.6663 129.2778
  A 1.05 1.05 0.0 0 0 52.5593 128.2880
  L 51.8604 128.3271
  A 1.05 1.05 0.0 0 0 50.8706 129.4341
  L 51.2937 137.0022
  A 1.05 1.05 0.0 0 0 52.4007 137.9920
  L 53.0996 137.9529
  A 1.05 1.05 0.0 0 0 54.0894 136.8459
  L 53.6663 129.2778"
/>
</g>
<path fill="#38383c" d="
  M 41.91 100.63
  C 49.31 88.41 65.11 93.37 66.80 107.42
  Q 68.15 118.66 59.56 125.58
  A 1.02 0.99 -23.1 0 0 59.19 126.47
  C 59.61 130.38 61.95 143.19 55.71 143.54
  C 52.15 143.73 48.60 144.67 46.50 140.48
  Q 45.43 138.33 45.54 132.50
  Q 45.66 126.11 45.46 119.71
  C 45.28 113.84 49.10 116.21 51.65 113.58
  C 54.26 110.89 52.37 105.28 47.84 106.57
  C 43.79 107.72 42.89 104.52 41.82 101.58
  Q 41.64 101.08 41.91 100.63
  Z
  M 51.45 122.28
  C 54.19 123.78 58.63 119.47 59.59 117.54
  Q 63.07 110.53 60.04 104.07
  C 57.75 99.20 53.57 97.39 48.80 100.48
  Q 48.11 100.93 48.93 100.93
  C 60.26 100.99 61.23 115.79 51.54 119.74
  Q 51.04 119.94 51.02 120.47
  L 50.99 121.47
  Q 50.97 122.01 51.45 122.28
  Z
  M 53.6663 129.2778
  A 1.05 1.05 0.0 0 0 52.5593 128.2880
  L 51.8604 128.3271
  A 1.05 1.05 0.0 0 0 50.8706 129.4341
  L 51.2937 137.0022
  A 1.05 1.05 0.0 0 0 52.4007 137.9920
  L 53.0996 137.9529
  A 1.05 1.05 0.0 0 0 54.0894 136.8459
  L 53.6663 129.2778
  Z"
/>
<path fill="#f8f8f7" d="
  M 59.59 117.54
  C 58.63 119.47 54.19 123.78 51.45 122.28
  Q 50.97 122.01 50.99 121.47
  L 51.02 120.47
  Q 51.04 119.94 51.54 119.74
  C 61.23 115.79 60.26 100.99 48.93 100.93
  Q 48.11 100.93 48.80 100.48
  C 53.57 97.39 57.75 99.20 60.04 104.07
  Q 63.07 110.53 59.59 117.54
  Z"
/>
<rect fill="#6d423f" x="-1.40" y="-4.84" transform="translate(52.48,133.14) rotate(-3.2)" width="2.80" height="9.68" rx="1.05"/>
</svg>
