<?xml version="1.0" encoding="UTF-8" standalone="no"?>
<!DOCTYPE svg PUBLIC "-//W3C//DTD SVG 1.1//EN" "http://www.w3.org/Graphics/SVG/1.1/DTD/svg11.dtd">
<svg xmlns="http://www.w3.org/2000/svg" version="1.1" viewBox="0 0 180 180">
<g stroke-width="2.00" fill="none" stroke-linecap="butt">
<path stroke="#98989a" vector-effect="non-scaling-stroke" d="
  M 44.79 67.02
  C 41.14 70.55 38.91 64.94 38.21 62.51
  Q 35.94 54.61 32.15 47.18
  A 0.34 0.34 0.0 0 0 31.51 47.35
  Q 31.92 57.54 34.24 67.75
  Q 35.22 72.10 36.31 74.30
  Q 36.61 74.90 37.27 75.00
  L 40.92 75.59
  Q 41.37 75.66 41.75 75.93
  L 45.51 78.58
  Q 45.87 78.84 45.95 79.27
  L 46.22 80.71
  Q 46.34 81.33 46.96 81.28
  L 52.29 80.90
  Q 52.79 80.86 52.98 80.39
  Q 54.96 75.39 60.38 75.03
  Q 60.90 74.99 61.21 74.57
  C 65.74 68.34 66.96 55.50 67.71 47.98
  A 0.33 0.33 0.0 0 0 67.10 47.77
  Q 61.76 56.06 58.55 65.31
  C 57.23 69.10 51.92 69.21 51.40 65.77
  Q 50.04 56.79 48.62 47.72
  A 0.21 0.21 0.0 0 0 48.20 47.73
  C 47.93 51.17 46.99 64.90 44.79 67.02"
/>
<path stroke="#553d3e" vector-effect="non-scaling-stroke" d="
  M 51.98 166.98
  C 52.57 148.81 51.40 131.09 51.29 113.94
  Q 51.21 101.04 50.96 87.71
  Q 50.94 86.41 49.70 86.82
  C 48.57 87.20 49.18 88.86 49.19 89.75
  Q 49.52 114.46 49.98 139.16
  C 50.14 147.62 50.89 157.57 51.04 166.80
  Q 51.05 167.03 51.24 167.15
  Q 51.35 167.22 51.43 167.33
  Q 51.95 168.04 51.98 166.98"
/>
</g>
<path fill="#38383c" d="
  M 41.51 54.92
  A 0.27 0.26 -51.5 0 0 42.03 54.86
  Q 42.29 47.84 44.28 41.28
  C 46.08 35.34 52.16 38.91 53.13 43.57
  Q 54.43 49.81 55.73 56.05
  Q 55.89 56.83 56.19 56.09
  C 58.17 51.31 62.32 42.83 66.92 40.59
  C 70.91 38.65 73.36 42.75 73.28 46.10
  C 73.09 54.93 71.56 71.15 65.17 78.40
  C 63.60 80.19 61.15 81.01 59.08 82.41
  Q 58.64 82.71 58.51 83.22
  Q 58.13 84.67 56.78 85.38
  Q 56.27 85.64 56.29 86.22
  Q 57.64 124.49 57.99 162.75
  Q 58.03 166.25 57.54 169.72
  Q 57.47 170.23 57.12 170.59
  C 53.61 174.21 46.00 174.27 45.55 167.62
  C 43.72 140.86 43.73 113.93 43.65 87.12
  Q 43.65 86.66 43.25 86.43
  Q 41.74 85.53 41.61 83.75
  Q 41.58 83.28 41.20 83.00
  L 38.93 81.34
  Q 38.51 81.04 38.00 81.01
  C 32.72 80.66 29.96 75.71 28.91 71.02
  Q 26.15 58.62 25.70 48.25
  Q 25.54 44.44 28.19 41.94
  C 35.15 35.39 40.39 50.92 41.51 54.92
  Z
  M 44.79 67.02
  C 41.14 70.55 38.91 64.94 38.21 62.51
  Q 35.94 54.61 32.15 47.18
  A 0.34 0.34 0.0 0 0 31.51 47.35
  Q 31.92 57.54 34.24 67.75
  Q 35.22 72.10 36.31 74.30
  Q 36.61 74.90 37.27 75.00
  L 40.92 75.59
  Q 41.37 75.66 41.75 75.93
  L 45.51 78.58
  Q 45.87 78.84 45.95 79.27
  L 46.22 80.71
  Q 46.34 81.33 46.96 81.28
  L 52.29 80.90
  Q 52.79 80.86 52.98 80.39
  Q 54.96 75.39 60.38 75.03
  Q 60.90 74.99 61.21 74.57
  C 65.74 68.34 66.96 55.50 67.71 47.98
  A 0.33 0.33 0.0 0 0 67.10 47.77
  Q 61.76 56.06 58.55 65.31
  C 57.23 69.10 51.92 69.21 51.40 65.77
  Q 50.04 56.79 48.62 47.72
  A 0.21 0.21 0.0 0 0 48.20 47.73
  C 47.93 51.17 46.99 64.90 44.79 67.02
  Z
  M 51.98 166.98
  C 52.57 148.81 51.40 131.09 51.29 113.94
  Q 51.21 101.04 50.96 87.71
  Q 50.94 86.41 49.70 86.82
  C 48.57 87.20 49.18 88.86 49.19 89.75
  Q 49.52 114.46 49.98 139.16
  C 50.14 147.62 50.89 157.57 51.04 166.80
  Q 51.05 167.03 51.24 167.15
  Q 51.35 167.22 51.43 167.33
  Q 51.95 168.04 51.98 166.98
  Z"
/>
<path fill="#f8f8f8" d="
  M 38.21 62.51
  C 38.91 64.94 41.14 70.55 44.79 67.02
  C 46.99 64.90 47.93 51.17 48.20 47.73
  A 0.21 0.21 0.0 0 1 48.62 47.72
  Q 50.04 56.79 51.40 65.77
  C 51.92 69.21 57.23 69.10 58.55 65.31
  Q 61.76 56.06 67.10 47.77
  A 0.33 0.33 0.0 0 1 67.71 47.98
  C 66.96 55.50 65.74 68.34 61.21 74.57
  Q 60.90 74.99 60.38 75.03
  Q 54.96 75.39 52.98 80.39
  Q 52.79 80.86 52.29 80.90
  L 46.96 81.28
  Q 46.34 81.33 46.22 80.71
  L 45.95 79.27
  Q 45.87 78.84 45.51 78.58
  L 41.75 75.93
  Q 41.37 75.66 40.92 75.59
  L 37.27 75.00
  Q 36.61 74.90 36.31 74.30
  Q 35.22 72.10 34.24 67.75
  Q 31.92 57.54 31.51 47.35
  A 0.34 0.34 0.0 0 1 32.15 47.18
  Q 35.94 54.61 38.21 62.51
  Z"
/>
<path fill="#71423f" d="
  M 51.29 113.94
  C 51.40 131.09 52.57 148.81 51.98 166.98
  Q 51.95 168.04 51.43 167.33
  Q 51.35 167.22 51.24 167.15
  Q 51.05 167.03 51.04 166.80
  C 50.89 157.57 50.14 147.62 49.98 139.16
  Q 49.52 114.46 49.19 89.75
  C 49.18 88.86 48.57 87.20 49.70 86.82
  Q 50.94 86.41 50.96 87.71
  Q 51.21 101.04 51.29 113.94
  Z"
/>
</svg>
