<?xml version="1.0" encoding="UTF-8" standalone="no"?>
<!DOCTYPE svg PUBLIC "-//W3C//DTD SVG 1.1//EN" "http://www.w3.org/Graphics/SVG/1.1/DTD/svg11.dtd">
<svg xmlns="http://www.w3.org/2000/svg" version="1.1" viewBox="0 0 180 180">
<path stroke="#543d3e" stroke-width="2.00" fill="none" stroke-linecap="butt" vector-effect="non-scaling-stroke" d="
  M 50.73 112.27
  C 50.72 129.81 50.31 147.26 51.36 164.82
  A 0.52 0.52 0.0 0 0 52.03 165.28
  L 52.40 165.16
  Q 52.97 164.98 52.95 164.38
  Q 51.76 138.00 52.01 111.60
  C 52.04 108.56 51.13 104.70 51.26 102.26
  C 51.57 96.56 53.13 84.92 45.54 84.04
  Q 32.91 82.57 32.90 95.24
  Q 32.89 96.74 34.88 97.16
  Q 35.48 97.29 35.41 96.68
  C 35.25 95.35 34.77 94.44 34.89 93.19
  C 35.79 83.80 49.62 82.44 49.69 93.25
  C 49.72 99.32 50.74 106.18 50.73 112.27"
/>
<path fill="#38383c" d="
  M 43.01 91.31
  C 40.55 90.07 40.16 94.31 41.26 95.92
  A 1.91 1.90 -54.2 0 1 41.51 97.50
  Q 39.49 104.64 32.22 102.02
  C 26.35 99.91 26.67 91.97 28.54 87.70
  Q 32.67 78.30 43.26 78.34
  Q 52.83 78.37 55.93 86.29
  C 57.64 90.67 56.50 97.48 56.94 102.49
  Q 57.51 109.14 57.55 112.05
  Q 57.88 136.77 58.53 161.50
  Q 58.58 163.32 57.85 165.43
  Q 57.69 165.89 57.86 166.34
  C 59.81 171.30 46.11 174.06 45.57 163.57
  C 44.37 140.27 44.79 116.99 44.61 93.63
  A 2.93 2.47 15.3 0 0 43.01 91.31
  Z
  M 50.73 112.27
  C 50.72 129.81 50.31 147.26 51.36 164.82
  A 0.52 0.52 0.0 0 0 52.03 165.28
  L 52.40 165.16
  Q 52.97 164.98 52.95 164.38
  Q 51.76 138.00 52.01 111.60
  C 52.04 108.56 51.13 104.70 51.26 102.26
  C 51.57 96.56 53.13 84.92 45.54 84.04
  Q 32.91 82.57 32.90 95.24
  Q 32.89 96.74 34.88 97.16
  Q 35.48 97.29 35.41 96.68
  C 35.25 95.35 34.77 94.44 34.89 93.19
  C 35.79 83.80 49.62 82.44 49.69 93.25
  C 49.72 99.32 50.74 106.18 50.73 112.27
  Z"
/>
<path fill="#70423f" d="
  M 51.36 164.82
  C 50.31 147.26 50.72 129.81 50.73 112.27
  C 50.74 106.18 49.72 99.32 49.69 93.25
  C 49.62 82.44 35.79 83.80 34.89 93.19
  C 34.77 94.44 35.25 95.35 35.41 96.68
  Q 35.48 97.29 34.88 97.16
  Q 32.89 96.74 32.90 95.24
  Q 32.91 82.57 45.54 84.04
  C 53.13 84.92 51.57 96.56 51.26 102.26
  C 51.13 104.70 52.04 108.56 52.01 111.60
  Q 51.76 138.00 52.95 164.38
  Q 52.97 164.98 52.40 165.16
  L 52.03 165.28
  A 0.52 0.52 0.0 0 1 51.36 164.82
  Z"
/>
</svg>
