<?xml version="1.0" encoding="UTF-8" standalone="no"?>
<!DOCTYPE svg PUBLIC "-//W3C//DTD SVG 1.1//EN" "http://www.w3.org/Graphics/SVG/1.1/DTD/svg11.dtd">
<svg xmlns="http://www.w3.org/2000/svg" version="1.1" viewBox="0 0 180 180">
<g stroke-width="2.00" fill="none" stroke-linecap="butt">
<path stroke="#533d3e" vector-effect="non-scaling-stroke" d="
  M 107.44 63.95
  Q 92.43 65.00 75.00 64.72
  Q 71.46 64.66 68.94 63.18"
/>
<path stroke="#533d3e" vector-effect="non-scaling-stroke" d="
  M 104.20 78.02
  L 104.68 70.47
  Q 104.71 69.98 104.22 69.99
  L 102.41 70.02
  Q 101.53 70.04 101.67 70.91
  L 102.76 78.09
  A 0.73 0.72 -47.6 0 0 104.20 78.02"
/>
</g>
<g fill="#6e423f">
<path d="
  M 107.44 63.95
  Q 92.43 65.00 75.00 64.72
  Q 71.46 64.66 68.94 63.18
  Q 69.47 56.56 74.79 52.84
  Q 87.88 43.68 101.03 51.69
  Q 103.98 53.48 105.54 57.47
  Q 105.73 57.94 106.11 58.25
  Q 108.60 60.28 107.44 63.95
  Z"
/>
<path d="
  M 104.20 78.02
  A 0.73 0.72 -47.6 0 1 102.76 78.09
  L 101.67 70.91
  Q 101.53 70.04 102.41 70.02
  L 104.22 69.99
  Q 104.71 69.98 104.68 70.47
  L 104.20 78.02
  Z"
/>
</g>
<path fill="#38383c" d="
  M 68.94 63.18
  Q 71.46 64.66 75.00 64.72
  Q 92.43 65.00 107.44 63.95
  Q 109.94 65.85 108.65 68.60
  Q 108.43 69.07 108.80 69.43
  C 113.25 73.65 108.26 88.65 100.42 83.56
  C 96.87 81.26 96.27 74.94 96.32 71.11
  Q 96.33 70.57 95.79 70.58
  C 87.92 70.69 75.97 71.72 68.67 69.33
  C 66.72 68.69 65.92 65.75 68.16 64.64
  Q 68.62 64.41 68.70 63.91
  Q 68.77 63.40 68.94 63.18
  Z
  M 104.20 78.02
  L 104.68 70.47
  Q 104.71 69.98 104.22 69.99
  L 102.41 70.02
  Q 101.53 70.04 101.67 70.91
  L 102.76 78.09
  A 0.73 0.72 -47.6 0 0 104.20 78.02
  Z"
/>
</svg>
