<?xml version="1.0" encoding="UTF-8" standalone="no"?>
<!DOCTYPE svg PUBLIC "-//W3C//DTD SVG 1.1//EN" "http://www.w3.org/Graphics/SVG/1.1/DTD/svg11.dtd">
<svg xmlns="http://www.w3.org/2000/svg" version="1.1" viewBox="0 0 180 180">
<path stroke="#9c904e" stroke-width="2.00" fill="none" stroke-linecap="butt" vector-effect="non-scaling-stroke" d="
  M 97.40 45.63
  C 93.94 47.06 90.14 37.61 88.74 35.15
  Q 88.45 34.64 88.10 35.11
  Q 85.37 38.63 83.12 42.46
  C 78.77 49.86 75.59 40.16 73.85 37.50
  A 0.37 0.37 0.0 0 0 73.18 37.64
  Q 71.07 49.45 71.23 61.46
  A 1.60 1.59 -88.2 0 0 72.70 63.03
  Q 88.78 64.20 104.85 62.79
  A 0.71 0.70 87.7 0 0 105.48 62.10
  Q 105.61 50.05 103.52 38.18
  Q 103.36 37.29 102.86 38.05
  C 101.46 40.23 99.71 44.68 97.40 45.63"
/>
<path fill="#38383c" d="
  M 96.94 37.33
  C 98.67 34.45 105.36 21.75 108.05 33.54
  Q 110.93 46.19 111.25 63.50
  C 111.34 68.95 103.21 68.81 99.51 68.95
  Q 84.93 69.49 70.39 68.48
  C 68.62 68.36 66.32 66.93 66.15 65.28
  Q 64.48 48.97 68.63 33.25
  C 71.22 23.47 78.04 33.31 79.76 36.71
  A 0.35 0.35 0.0 0 0 80.36 36.75
  C 81.92 34.47 85.04 28.61 87.55 27.90
  C 91.41 26.79 94.75 34.56 96.23 37.31
  Q 96.57 37.94 96.94 37.33
  Z
  M 97.40 45.63
  C 93.94 47.06 90.14 37.61 88.74 35.15
  Q 88.45 34.64 88.10 35.11
  Q 85.37 38.63 83.12 42.46
  C 78.77 49.86 75.59 40.16 73.85 37.50
  A 0.37 0.37 0.0 0 0 73.18 37.64
  Q 71.07 49.45 71.23 61.46
  A 1.60 1.59 -88.2 0 0 72.70 63.03
  Q 88.78 64.20 104.85 62.79
  A 0.71 0.70 87.7 0 0 105.48 62.10
  Q 105.61 50.05 103.52 38.18
  Q 103.36 37.29 102.86 38.05
  C 101.46 40.23 99.71 44.68 97.40 45.63
  Z"
/>
<path fill="#ffe75f" d="
  M 97.40 45.63
  C 99.71 44.68 101.46 40.23 102.86 38.05
  Q 103.36 37.29 103.52 38.18
  Q 105.61 50.05 105.48 62.10
  A 0.71 0.70 87.7 0 1 104.85 62.79
  Q 88.78 64.20 72.70 63.03
  A 1.60 1.59 -88.2 0 1 71.23 61.46
  Q 71.07 49.45 73.18 37.64
  A 0.37 0.37 0.0 0 1 73.85 37.50
  C 75.59 40.16 78.77 49.86 83.12 42.46
  Q 85.37 38.63 88.10 35.11
  Q 88.45 34.64 88.74 35.15
  C 90.14 37.61 93.94 47.06 97.40 45.63
  Z"
/>
</svg>
