<?xml version="1.0" encoding="UTF-8" standalone="no"?>
<!DOCTYPE svg PUBLIC "-//W3C//DTD SVG 1.1//EN" "http://www.w3.org/Graphics/SVG/1.1/DTD/svg11.dtd">
<svg xmlns="http://www.w3.org/2000/svg" version="1.1" viewBox="0 0 180 180">
<path stroke="#533d3e" stroke-width="2.00" fill="none" stroke-linecap="butt" vector-effect="non-scaling-stroke" d="
  M 104.54 54.25
  Q 102.45 55.48 103.26 57.83
  A 2.29 2.29 0.0 0 0 105.29 59.37
  C 111.56 59.73 119.96 58.91 126.05 60.63
  Q 127.05 60.91 126.05 61.20
  C 111.96 65.16 95.75 63.35 81.24 63.37
  Q 66.75 63.39 52.33 61.78
  Q 51.18 61.65 50.45 61.37
  A 0.44 0.44 0.0 0 1 50.55 60.52
  Q 59.60 59.14 68.71 59.25
  C 72.31 59.29 73.50 57.27 72.21 54.00"
/>
<path fill="#6e423f" d="
  M 104.54 54.25
  Q 102.45 55.48 103.26 57.83
  A 2.29 2.29 0.0 0 0 105.29 59.37
  C 111.56 59.73 119.96 58.91 126.05 60.63
  Q 127.05 60.91 126.05 61.20
  C 111.96 65.16 95.75 63.35 81.24 63.37
  Q 66.75 63.39 52.33 61.78
  Q 51.18 61.65 50.45 61.37
  A 0.44 0.44 0.0 0 1 50.55 60.52
  Q 59.60 59.14 68.71 59.25
  C 72.31 59.29 73.50 57.27 72.21 54.00
  C 75.32 46.78 78.29 41.88 85.48 39.36
  Q 92.85 36.79 97.77 42.45
  Q 99.94 44.95 104.54 54.25
  Z"
/>
<path fill="#38383c" d="
  M 72.21 54.00
  C 73.50 57.27 72.31 59.29 68.71 59.25
  Q 59.60 59.14 50.55 60.52
  A 0.44 0.44 0.0 0 0 50.45 61.37
  Q 51.18 61.65 52.33 61.78
  Q 66.75 63.39 81.24 63.37
  C 95.75 63.35 111.96 65.16 126.05 61.20
  Q 127.05 60.91 126.05 60.63
  C 119.96 58.91 111.56 59.73 105.29 59.37
  A 2.29 2.29 0.0 0 1 103.26 57.83
  Q 102.45 55.48 104.54 54.25
  Q 115.68 52.94 126.75 54.73
  Q 132.54 55.66 133.36 61.47
  C 133.83 64.81 126.00 67.76 123.43 68.09
  C 118.26 68.73 112.98 69.51 107.74 69.47
  C 93.93 69.35 79.91 69.72 66.14 68.68
  Q 59.02 68.14 51.89 67.65
  C 46.69 67.30 40.06 61.39 46.32 56.81
  C 51.34 53.14 65.47 53.22 72.21 54.00
  Z"
/>
</svg>
