<?xml version="1.0" encoding="UTF-8" standalone="no"?>
<!DOCTYPE svg PUBLIC "-//W3C//DTD SVG 1.1//EN" "http://www.w3.org/Graphics/SVG/1.1/DTD/svg11.dtd">
<svg xmlns="http://www.w3.org/2000/svg" version="1.1" viewBox="0 0 180 180">
<g stroke-width="2.00" fill="none" stroke-linecap="butt">
<path stroke="#98989a" vector-effect="non-scaling-stroke" d="
  M 73.37 71.47
  C 80.04 75.08 74.96 80.45 69.86 81.38
  Q 69.35 81.47 68.98 81.84
  Q 60.05 90.90 54.16 102.17
  A 0.42 0.42 0.0 0 0 54.64 102.77
  Q 66.05 99.73 76.72 94.93
  C 82.11 92.50 87.27 93.80 92.39 92.03
  Q 92.89 91.86 92.92 91.34
  Q 93.50 80.40 92.32 69.61
  C 91.73 64.26 90.54 61.22 84.78 61.02
  Q 73.50 60.64 71.40 70.53
  Q 71.25 71.25 71.98 71.25
  L 72.50 71.25
  Q 72.96 71.25 73.37 71.47"
/>
<path stroke="#98989a" vector-effect="non-scaling-stroke" d="
  M 91.89 76.93
  A 5.18 5.18 0.0 0 0 86.71 71.75
  A 5.18 5.18 0.0 0 0 81.53 76.93
  A 5.18 5.18 0.0 0 0 86.71 82.11
  A 5.18 5.18 0.0 0 0 91.89 76.93"
/>
<path stroke="#98989a" vector-effect="non-scaling-stroke" d="
  M 73.9440 86.5664
  A 2.41 2.41 0.0 0 0 70.7081 85.4963
  L 70.4579 85.6221
  A 2.41 2.41 0.0 0 0 69.3878 88.8580
  L 71.1760 92.4136
  A 2.41 2.41 0.0 0 0 74.4119 93.4837
  L 74.6621 93.3579
  A 2.41 2.41 0.0 0 0 75.7322 90.1220
  L 73.9440 86.5664"
/>
<path stroke="#98989a" vector-effect="non-scaling-stroke" d="
  M 68.1313 96.3954
  A 3.47 2.57 73.4 0 0 69.6029 92.3358
  A 3.47 2.57 73.4 0 0 66.1487 89.7446
  A 3.47 2.57 73.4 0 0 64.6771 93.8042
  A 3.47 2.57 73.4 0 0 68.1313 96.3954"
/>
<path stroke="#98989a" vector-effect="non-scaling-stroke" d="
  M 64.69 96.60
  A 2.45 2.45 0.0 0 0 62.24 94.15
  A 2.45 2.45 0.0 0 0 59.79 96.60
  A 2.45 2.45 0.0 0 0 62.24 99.05
  A 2.45 2.45 0.0 0 0 64.69 96.60"
/>
</g>
<g fill="#38383c">
<path d="
  M 102.88 48.61
  C 113.13 59.18 112.78 73.89 110.42 87.44
  Q 109.81 90.93 107.98 93.61
  C 105.52 97.20 97.22 107.98 93.44 98.17
  Q 93.25 97.68 92.74 97.80
  C 87.09 99.08 82.71 98.44 77.29 100.83
  Q 65.34 106.11 55.76 108.25
  C 51.26 109.26 45.61 107.13 48.53 101.25
  Q 55.00 88.22 64.29 78.78
  Q 65.32 77.73 65.27 77.02
  C 63.85 56.90 69.36 44.18 91.49 43.53
  C 95.92 43.39 99.71 45.34 102.88 48.61
  Z
  M 73.37 71.47
  C 80.04 75.08 74.96 80.45 69.86 81.38
  Q 69.35 81.47 68.98 81.84
  Q 60.05 90.90 54.16 102.17
  A 0.42 0.42 0.0 0 0 54.64 102.77
  Q 66.05 99.73 76.72 94.93
  C 82.11 92.50 87.27 93.80 92.39 92.03
  Q 92.89 91.86 92.92 91.34
  Q 93.50 80.40 92.32 69.61
  C 91.73 64.26 90.54 61.22 84.78 61.02
  Q 73.50 60.64 71.40 70.53
  Q 71.25 71.25 71.98 71.25
  L 72.50 71.25
  Q 72.96 71.25 73.37 71.47
  Z"
/>
<circle cx="86.71" cy="76.93" r="5.18"/>
<rect x="-2.55" y="-4.40" transform="translate(72.56,89.49) rotate(-26.7)" width="5.10" height="8.80" rx="2.41"/>
<ellipse cx="0.00" cy="0.00" transform="translate(67.14,93.07) rotate(73.4)" rx="3.47" ry="2.57"/>
<circle cx="62.24" cy="96.60" r="2.45"/>
</g>
<path fill="#f8f8f8" d="
  M 72.50 71.25
  L 71.98 71.25
  Q 71.25 71.25 71.40 70.53
  Q 73.50 60.64 84.78 61.02
  C 90.54 61.22 91.73 64.26 92.32 69.61
  Q 93.50 80.40 92.92 91.34
  Q 92.89 91.86 92.39 92.03
  C 87.27 93.80 82.11 92.50 76.72 94.93
  Q 66.05 99.73 54.64 102.77
  A 0.42 0.42 0.0 0 1 54.16 102.17
  Q 60.05 90.90 68.98 81.84
  Q 69.35 81.47 69.86 81.38
  C 74.96 80.45 80.04 75.08 73.37 71.47
  Q 72.96 71.25 72.50 71.25
  Z
  M 91.89 76.93
  A 5.18 5.18 0.0 0 0 86.71 71.75
  A 5.18 5.18 0.0 0 0 81.53 76.93
  A 5.18 5.18 0.0 0 0 86.71 82.11
  A 5.18 5.18 0.0 0 0 91.89 76.93
  Z
  M 73.9440 86.5664
  A 2.41 2.41 0.0 0 0 70.7081 85.4963
  L 70.4579 85.6221
  A 2.41 2.41 0.0 0 0 69.3878 88.8580
  L 71.1760 92.4136
  A 2.41 2.41 0.0 0 0 74.4119 93.4837
  L 74.6621 93.3579
  A 2.41 2.41 0.0 0 0 75.7322 90.1220
  L 73.9440 86.5664
  Z
  M 68.1313 96.3954
  A 3.47 2.57 73.4 0 0 69.6029 92.3358
  A 3.47 2.57 73.4 0 0 66.1487 89.7446
  A 3.47 2.57 73.4 0 0 64.6771 93.8042
  A 3.47 2.57 73.4 0 0 68.1313 96.3954
  Z
  M 64.69 96.60
  A 2.45 2.45 0.0 0 0 62.24 94.15
  A 2.45 2.45 0.0 0 0 59.79 96.60
  A 2.45 2.45 0.0 0 0 62.24 99.05
  A 2.45 2.45 0.0 0 0 64.69 96.60
  Z"
/>
</svg>
