<?xml version="1.0" encoding="UTF-8" standalone="no"?>
<!DOCTYPE svg PUBLIC "-//W3C//DTD SVG 1.1//EN" "http://www.w3.org/Graphics/SVG/1.1/DTD/svg11.dtd">
<svg xmlns="http://www.w3.org/2000/svg" version="1.1" viewBox="0 0 180 180">
<g stroke-width="2.00" fill="none" stroke-linecap="butt">
<path stroke="#9c904d" vector-effect="non-scaling-stroke" d="
  M 117.92 68.31
  C 117.19 65.02 112.11 65.27 116.29 60.76
  Q 119.31 57.50 116.58 53.19
  C 114.01 49.14 109.54 52.55 108.26 48.24
  Q 108.10 47.72 108.34 47.23
  C 113.22 37.21 98.77 36.19 95.20 45.31
  Q 94.96 45.92 95.59 46.08
  C 109.50 49.53 112.09 64.05 112.20 76.04
  A 0.97 0.96 89.7 0 0 113.16 77.00
  C 117.99 76.98 118.72 71.93 117.92 68.31"
/>
<path stroke="#98989a" vector-effect="non-scaling-stroke" d="
  M 89.00 81.25
  Q 88.82 81.21 88.57 81.25
  Q 88.06 81.33 88.04 81.85
  L 87.57 95.52
  Q 87.55 96.05 88.08 96.05
  L 105.68 95.90
  Q 106.18 95.90 106.17 95.40
  C 105.91 83.19 110.55 52.78 92.99 51.28
  Q 75.63 49.79 72.89 67.09
  Q 72.82 67.57 73.29 67.66
  C 80.14 68.97 85.49 68.50 93.98 68.30
  C 100.21 68.15 100.61 70.49 100.35 75.96
  C 100.04 82.32 93.99 81.28 89.68 81.42
  Q 89.62 81.43 89.00 81.25"
/>
<path stroke="#98989a" vector-effect="non-scaling-stroke" d="
  M 78.08 81.80
  A 0.36 0.36 0.0 0 0 77.80 81.44
  L 71.77 80.21
  A 0.36 0.36 0.0 0 0 71.34 80.55
  L 70.98 95.38
  A 0.36 0.36 0.0 0 0 71.34 95.75
  L 77.40 95.75
  A 0.36 0.36 0.0 0 0 77.76 95.40
  L 78.08 81.80"
/>
</g>
<path fill="#38383c" d="
  M 112.08 83.11
  Q 111.54 89.57 111.91 96.04
  C 112.24 102.00 107.34 101.37 103.18 101.47
  Q 86.59 101.86 70.00 101.26
  C 66.86 101.14 65.59 99.55 65.52 96.42
  Q 65.23 84.42 66.17 72.50
  C 67.31 57.87 73.47 46.41 89.48 45.57
  Q 89.98 45.54 90.14 45.06
  C 92.80 36.99 102.43 30.35 110.26 35.86
  Q 114.55 38.88 114.95 44.90
  Q 114.99 45.43 115.45 45.66
  Q 126.41 51.26 121.91 63.11
  Q 121.73 63.58 121.96 64.02
  C 126.06 72.06 123.14 82.47 112.70 82.53
  Q 112.13 82.54 112.08 83.11
  Z
  M 117.92 68.31
  C 117.19 65.02 112.11 65.27 116.29 60.76
  Q 119.31 57.50 116.58 53.19
  C 114.01 49.14 109.54 52.55 108.26 48.24
  Q 108.10 47.72 108.34 47.23
  C 113.22 37.21 98.77 36.19 95.20 45.31
  Q 94.96 45.92 95.59 46.08
  C 109.50 49.53 112.09 64.05 112.20 76.04
  A 0.97 0.96 89.7 0 0 113.16 77.00
  C 117.99 76.98 118.72 71.93 117.92 68.31
  Z
  M 89.00 81.25
  Q 88.82 81.21 88.57 81.25
  Q 88.06 81.33 88.04 81.85
  L 87.57 95.52
  Q 87.55 96.05 88.08 96.05
  L 105.68 95.90
  Q 106.18 95.90 106.17 95.40
  C 105.91 83.19 110.55 52.78 92.99 51.28
  Q 75.63 49.79 72.89 67.09
  Q 72.82 67.57 73.29 67.66
  C 80.14 68.97 85.49 68.50 93.98 68.30
  C 100.21 68.15 100.61 70.49 100.35 75.96
  C 100.04 82.32 93.99 81.28 89.68 81.42
  Q 89.62 81.43 89.00 81.25
  Z
  M 78.08 81.80
  A 0.36 0.36 0.0 0 0 77.80 81.44
  L 71.77 80.21
  A 0.36 0.36 0.0 0 0 71.34 80.55
  L 70.98 95.38
  A 0.36 0.36 0.0 0 0 71.34 95.75
  L 77.40 95.75
  A 0.36 0.36 0.0 0 0 77.76 95.40
  L 78.08 81.80
  Z"
/>
<g fill="#f8f8f8">
<path d="
  M 89.68 81.42
  C 93.99 81.28 100.04 82.32 100.35 75.96
  C 100.61 70.49 100.21 68.15 93.98 68.30
  C 85.49 68.50 80.14 68.97 73.29 67.66
  Q 72.82 67.57 72.89 67.09
  Q 75.63 49.79 92.99 51.28
  C 110.55 52.78 105.91 83.19 106.17 95.40
  Q 106.18 95.90 105.68 95.90
  L 88.08 96.05
  Q 87.55 96.05 87.57 95.52
  L 88.04 81.85
  Q 88.06 81.33 88.57 81.25
  Q 88.82 81.21 89.00 81.25
  Q 89.62 81.43 89.68 81.42
  Z"
/>
<path d="
  M 78.08 81.80
  L 77.76 95.40
  A 0.36 0.36 0.0 0 1 77.40 95.75
  L 71.34 95.75
  A 0.36 0.36 0.0 0 1 70.98 95.38
  L 71.34 80.55
  A 0.36 0.36 0.0 0 1 71.77 80.21
  L 77.80 81.44
  A 0.36 0.36 0.0 0 1 78.08 81.80
  Z"
/>
</g>
<path fill="#ffe75e" d="
  M 116.29 60.76
  C 112.11 65.27 117.19 65.02 117.92 68.31
  C 118.72 71.93 117.99 76.98 113.16 77.00
  A 0.97 0.96 89.7 0 1 112.20 76.04
  C 112.09 64.05 109.50 49.53 95.59 46.08
  Q 94.96 45.92 95.20 45.31
  C 98.77 36.19 113.22 37.21 108.34 47.23
  Q 108.10 47.72 108.26 48.24
  C 109.54 52.55 114.01 49.14 116.58 53.19
  Q 119.31 57.50 116.29 60.76
  Z"
/>
</svg>
