<?xml version="1.0" encoding="UTF-8" standalone="no"?>
<!DOCTYPE svg PUBLIC "-//W3C//DTD SVG 1.1//EN" "http://www.w3.org/Graphics/SVG/1.1/DTD/svg11.dtd">
<svg xmlns="http://www.w3.org/2000/svg" version="1.1" viewBox="0 0 180 180">
<g stroke-width="2.00" fill="none" stroke-linecap="butt">
<path stroke="#3d504e" vector-effect="non-scaling-stroke" d="
  M 118.03 69.75
  C 117.96 66.12 113.32 65.55 114.75 62.17
  C 115.44 60.54 117.15 60.71 117.46 58.53
  C 117.83 55.85 115.62 49.52 111.74 50.93
  Q 111.28 51.09 110.80 50.97
  C 104.91 49.47 112.11 43.77 107.28 39.98
  C 103.20 36.79 96.73 41.25 95.41 45.16
  Q 95.19 45.80 95.85 45.97
  C 109.52 49.38 112.26 64.04 112.39 76.27
  Q 112.40 76.86 113.00 76.87
  C 117.34 76.94 118.10 73.19 118.03 69.75"
/>
<path stroke="#98989a" vector-effect="non-scaling-stroke" d="
  M 89.12 81.30
  Q 88.89 81.19 88.57 81.25
  Q 88.05 81.33 88.04 81.85
  L 87.58 95.53
  Q 87.56 96.06 88.09 96.05
  L 105.67 95.89
  Q 106.18 95.89 106.17 95.38
  C 105.94 84.08 110.72 52.47 92.73 51.25
  Q 75.53 50.09 72.86 67.07
  Q 72.79 67.55 73.27 67.64
  C 80.77 69.10 88.46 68.39 95.92 68.43
  C 102.48 68.46 101.31 78.18 97.33 80.91
  Q 96.94 81.18 96.47 81.19
  L 89.59 81.39
  Q 89.34 81.40 89.12 81.30"
/>
<path stroke="#98989a" vector-effect="non-scaling-stroke" d="
  M 78.08 81.79
  A 0.36 0.36 0.0 0 0 77.80 81.43
  L 71.77 80.20
  A 0.36 0.36 0.0 0 0 71.34 80.54
  L 70.98 95.38
  A 0.36 0.36 0.0 0 0 71.34 95.75
  L 77.40 95.75
  A 0.36 0.36 0.0 0 0 77.76 95.40
  L 78.08 81.79"
/>
</g>
<path fill="#38383c" d="
  M 112.08 83.14
  Q 111.53 89.59 111.92 96.05
  C 112.28 101.99 107.31 101.37 103.18 101.47
  Q 86.59 101.86 70.00 101.26
  C 66.86 101.14 65.59 99.55 65.52 96.42
  Q 65.23 84.42 66.17 72.50
  C 67.31 57.87 73.47 46.41 89.48 45.57
  Q 89.98 45.54 90.13 45.06
  C 92.80 37.00 102.41 30.35 110.25 35.85
  Q 114.55 38.87 114.96 44.89
  Q 115.00 45.41 115.46 45.65
  Q 126.36 51.24 121.94 62.96
  Q 121.76 63.42 121.98 63.86
  C 125.90 71.79 123.27 82.60 112.69 82.58
  Q 112.13 82.58 112.08 83.14
  Z
  M 118.03 69.75
  C 117.96 66.12 113.32 65.55 114.75 62.17
  C 115.44 60.54 117.15 60.71 117.46 58.53
  C 117.83 55.85 115.62 49.52 111.74 50.93
  Q 111.28 51.09 110.80 50.97
  C 104.91 49.47 112.11 43.77 107.28 39.98
  C 103.20 36.79 96.73 41.25 95.41 45.16
  Q 95.19 45.80 95.85 45.97
  C 109.52 49.38 112.26 64.04 112.39 76.27
  Q 112.40 76.86 113.00 76.87
  C 117.34 76.94 118.10 73.19 118.03 69.75
  Z
  M 89.12 81.30
  Q 88.89 81.19 88.57 81.25
  Q 88.05 81.33 88.04 81.85
  L 87.58 95.53
  Q 87.56 96.06 88.09 96.05
  L 105.67 95.89
  Q 106.18 95.89 106.17 95.38
  C 105.94 84.08 110.72 52.47 92.73 51.25
  Q 75.53 50.09 72.86 67.07
  Q 72.79 67.55 73.27 67.64
  C 80.77 69.10 88.46 68.39 95.92 68.43
  C 102.48 68.46 101.31 78.18 97.33 80.91
  Q 96.94 81.18 96.47 81.19
  L 89.59 81.39
  Q 89.34 81.40 89.12 81.30
  Z
  M 78.08 81.79
  A 0.36 0.36 0.0 0 0 77.80 81.43
  L 71.77 80.20
  A 0.36 0.36 0.0 0 0 71.34 80.54
  L 70.98 95.38
  A 0.36 0.36 0.0 0 0 71.34 95.75
  L 77.40 95.75
  A 0.36 0.36 0.0 0 0 77.76 95.40
  L 78.08 81.79
  Z"
/>
<g fill="#f8f8f8">
<path d="
  M 89.59 81.39
  L 96.47 81.19
  Q 96.94 81.18 97.33 80.91
  C 101.31 78.18 102.48 68.46 95.92 68.43
  C 88.46 68.39 80.77 69.10 73.27 67.64
  Q 72.79 67.55 72.86 67.07
  Q 75.53 50.09 92.73 51.25
  C 110.72 52.47 105.94 84.08 106.17 95.38
  Q 106.18 95.89 105.67 95.89
  L 88.09 96.05
  Q 87.56 96.06 87.58 95.53
  L 88.04 81.85
  Q 88.05 81.33 88.57 81.25
  Q 88.89 81.19 89.12 81.30
  Q 89.34 81.40 89.59 81.39
  Z"
/>
<path d="
  M 78.08 81.79
  L 77.76 95.40
  A 0.36 0.36 0.0 0 1 77.40 95.75
  L 71.34 95.75
  A 0.36 0.36 0.0 0 1 70.98 95.38
  L 71.34 80.54
  A 0.36 0.36 0.0 0 1 71.77 80.20
  L 77.80 81.43
  A 0.36 0.36 0.0 0 1 78.08 81.79
  Z"
/>
</g>
<path fill="#42685f" d="
  M 114.75 62.17
  C 113.32 65.55 117.96 66.12 118.03 69.75
  C 118.10 73.19 117.34 76.94 113.00 76.87
  Q 112.40 76.86 112.39 76.27
  C 112.26 64.04 109.52 49.38 95.85 45.97
  Q 95.19 45.80 95.41 45.16
  C 96.73 41.25 103.20 36.79 107.28 39.98
  C 112.11 43.77 104.91 49.47 110.80 50.97
  Q 111.28 51.09 111.74 50.93
  C 115.62 49.52 117.83 55.85 117.46 58.53
  C 117.15 60.71 115.44 60.54 114.75 62.17
  Z"
/>
</svg>
