<?xml version="1.0" encoding="UTF-8" standalone="no"?>
<!DOCTYPE svg PUBLIC "-//W3C//DTD SVG 1.1//EN" "http://www.w3.org/Graphics/SVG/1.1/DTD/svg11.dtd">
<svg xmlns="http://www.w3.org/2000/svg" version="1.1" viewBox="0 0 180 180">
<path stroke="#533d3e" stroke-width="2.00" fill="none" stroke-linecap="butt" vector-effect="non-scaling-stroke" d="
  M 101.51 45.73
  C 96.39 42.18 90.73 40.10 95.14 32.72
  Q 95.57 31.99 94.72 31.95
  L 83.26 31.40
  Q 82.70 31.37 82.31 31.77
  Q 74.72 39.54 68.06 48.08
  C 66.43 50.16 60.81 51.16 57.90 52.35
  A 0.48 0.48 0.0 0 0 58.07 53.27
  Q 86.73 53.85 115.16 50.24
  A 0.36 0.36 0.0 0 0 115.14 49.53
  C 110.30 49.13 105.68 48.61 101.51 45.73"
/>
<path fill="#38383c" d="
  M 99.44 37.22
  C 101.52 39.00 105.54 42.21 108.21 42.61
  C 111.35 43.07 129.93 45.86 124.46 52.45
  C 121.99 55.43 116.59 55.97 112.99 56.38
  C 93.44 58.61 73.37 60.05 53.73 58.44
  C 50.40 58.17 48.45 56.92 48.08 53.57
  Q 48.03 53.07 48.28 52.65
  C 50.75 48.51 58.82 45.68 63.70 44.25
  Q 64.19 44.10 64.51 43.70
  Q 70.75 35.94 77.35 28.55
  Q 79.09 26.60 81.05 26.16
  C 86.05 25.04 93.02 26.08 98.15 26.63
  C 105.37 27.40 101.82 33.29 99.36 36.38
  Q 99.00 36.84 99.44 37.22
  Z
  M 101.51 45.73
  C 96.39 42.18 90.73 40.10 95.14 32.72
  Q 95.57 31.99 94.72 31.95
  L 83.26 31.40
  Q 82.70 31.37 82.31 31.77
  Q 74.72 39.54 68.06 48.08
  C 66.43 50.16 60.81 51.16 57.90 52.35
  A 0.48 0.48 0.0 0 0 58.07 53.27
  Q 86.73 53.85 115.16 50.24
  A 0.36 0.36 0.0 0 0 115.14 49.53
  C 110.30 49.13 105.68 48.61 101.51 45.73
  Z"
/>
<path fill="#6e423f" d="
  M 95.14 32.72
  C 90.73 40.10 96.39 42.18 101.51 45.73
  C 105.68 48.61 110.30 49.13 115.14 49.53
  A 0.36 0.36 0.0 0 1 115.16 50.24
  Q 86.73 53.85 58.07 53.27
  A 0.48 0.48 0.0 0 1 57.90 52.35
  C 60.81 51.16 66.43 50.16 68.06 48.08
  Q 74.72 39.54 82.31 31.77
  Q 82.70 31.37 83.26 31.40
  L 94.72 31.95
  Q 95.57 31.99 95.14 32.72
  Z"
/>
</svg>
