<?xml version="1.0" encoding="UTF-8" standalone="no"?>
<!DOCTYPE svg PUBLIC "-//W3C//DTD SVG 1.1//EN" "http://www.w3.org/Graphics/SVG/1.1/DTD/svg11.dtd">
<svg xmlns="http://www.w3.org/2000/svg" version="1.1" viewBox="0 0 180 180">
<g stroke-width="2.00" fill="none" stroke-linecap="butt">
<path stroke="#927a6d" vector-effect="non-scaling-stroke" d="
  M 108.12 71.03
  A 2.48 2.47 -4.9 0 1 105.44 68.78
  Q 103.80 49.71 86.21 50.35
  C 78.33 50.63 73.26 57.18 71.32 64.19
  C 69.87 69.40 70.61 76.03 71.01 81.60
  C 72.14 97.37 89.53 104.41 101.10 93.45
  C 104.69 90.06 103.09 85.45 106.14 81.66
  Q 110.70 75.99 114.56 69.71
  Q 115.12 68.80 114.17 69.29
  Q 111.36 70.75 108.12 71.03"
/>
<path stroke="#927a6d" vector-effect="non-scaling-stroke" d="
  M 72.28 97.42
  Q 72.10 97.12 71.78 96.95
  Q 71.31 96.71 71.14 97.21
  C 67.93 106.97 67.97 119.58 68.16 129.80
  A 0.34 0.34 0.0 0 0 68.50 130.14
  L 93.11 129.94
  Q 93.59 129.94 93.97 129.64
  Q 98.95 125.75 105.11 124.06
  Q 105.70 123.91 105.84 123.32
  C 106.46 120.70 103.59 116.09 108.63 116.09
  A 1.80 1.79 81.1 0 1 110.34 117.34
  Q 112.00 122.50 111.08 127.90
  Q 111.00 128.38 110.52 128.48
  C 108.02 128.96 95.96 131.61 98.13 136.09
  A 1.68 1.67 81.7 0 0 99.37 137.02
  Q 110.77 138.79 121.62 134.53
  Q 122.09 134.34 122.07 133.84
  C 121.71 120.42 119.86 100.33 109.52 90.12
  Q 108.91 89.51 108.75 90.36
  C 106.28 103.55 90.64 106.60 79.79 102.97
  C 76.93 102.01 74.77 99.84 72.59 97.80
  Q 72.41 97.63 72.28 97.42"
/>
<path stroke="#927a6d" vector-effect="non-scaling-stroke" d="
  M 54.88 133.09
  Q 58.10 134.78 61.80 134.70
  Q 62.25 134.69 62.25 134.24
  L 62.25 128.27
  Q 62.25 127.85 61.83 127.83
  Q 57.07 127.62 54.46 131.39
  A 1.16 1.16 0.0 0 0 54.88 133.09"
/>
<path stroke="#533d3e" vector-effect="non-scaling-stroke" d="
  M 92.24 139.31
  A 0.57 0.57 0.0 0 0 92.78 138.57
  L 92.03 136.15
  A 0.57 0.57 0.0 0 0 91.48 135.75
  L 68.82 135.75
  A 0.57 0.57 0.0 0 0 68.25 136.32
  L 68.25 139.00
  A 0.57 0.57 0.0 0 0 68.83 139.57
  L 92.24 139.31"
/>
<path stroke="#533d3e" vector-effect="non-scaling-stroke" d="
  M 114.97 145.44
  Q 92.77 144.66 70.57 145.65
  Q 70.03 145.68 69.57 145.40
  Q 68.94 145.01 68.37 145.66
  Q 68.04 146.03 68.12 146.52
  Q 68.36 147.83 68.30 148.25
  Q 67.08 156.51 68.40 164.29
  A 2.13 2.13 0.0 0 0 70.56 166.06
  L 84.48 165.71
  A 1.07 1.06 -1.4 0 0 85.52 164.63
  C 85.42 159.49 84.27 152.21 90.03 149.51
  C 100.28 144.70 108.07 153.10 106.63 163.25
  A 2.11 2.11 0.0 0 0 108.71 165.66
  L 121.45 165.70
  Q 122.34 165.70 122.34 164.80
  L 122.36 146.11
  Q 122.36 145.42 121.67 145.33
  C 119.43 145.02 116.69 145.50 114.97 145.44"
/>
<path stroke="#927a6d" vector-effect="non-scaling-stroke" d="
  M 85.0161 75.5010
  A 2.46 2.46 0.0 0 0 82.5475 73.0496
  L 82.2675 73.0505
  A 2.46 2.46 0.0 0 0 79.8161 75.5191
  L 79.8639 89.2190
  A 2.46 2.46 0.0 0 0 82.3325 91.6704
  L 82.6125 91.6695
  A 2.46 2.46 0.0 0 0 85.0639 89.2009
  L 85.0161 75.5010"
/>
</g>
<g fill="#38383c">
<path d="
  M 111.04 64.82
  C 113.73 63.91 121.28 60.56 123.55 62.91
  Q 124.83 64.24 123.67 65.96
  Q 117.76 74.78 111.53 83.79
  A 0.49 0.48 38.5 0 0 111.61 84.43
  C 125.49 96.53 127.30 117.71 127.74 135.09
  C 128.00 145.31 129.00 156.92 127.98 166.50
  Q 127.52 170.78 122.52 171.34
  C 116.58 172.01 101.73 173.10 101.39 165.30
  C 101.16 159.92 101.21 151.88 92.92 154.24
  A 2.51 2.50 80.4 0 0 91.11 156.80
  C 91.33 160.26 91.84 165.83 90.21 168.58
  C 87.58 173.02 77.67 171.75 71.76 171.69
  C 67.39 171.65 63.72 169.88 63.12 165.29
  C 62.87 163.45 62.21 161.69 62.23 159.87
  Q 62.32 150.51 62.57 141.32
  A 0.94 0.93 -0.8 0 0 61.58 140.36
  Q 53.46 140.84 48.71 134.54
  Q 48.35 134.06 48.40 133.46
  C 49.07 125.51 54.88 122.48 62.16 122.16
  Q 62.72 122.14 62.72 121.57
  C 62.60 111.52 62.85 100.71 67.73 91.70
  Q 67.98 91.23 67.80 90.73
  C 64.36 81.25 63.58 64.49 69.52 55.20
  Q 72.81 50.04 77.98 47.21
  C 91.56 39.76 109.37 48.76 110.50 64.46
  Q 110.54 64.99 111.04 64.82
  Z
  M 108.12 71.03
  A 2.48 2.47 -4.9 0 1 105.44 68.78
  Q 103.80 49.71 86.21 50.35
  C 78.33 50.63 73.26 57.18 71.32 64.19
  C 69.87 69.40 70.61 76.03 71.01 81.60
  C 72.14 97.37 89.53 104.41 101.10 93.45
  C 104.69 90.06 103.09 85.45 106.14 81.66
  Q 110.70 75.99 114.56 69.71
  Q 115.12 68.80 114.17 69.29
  Q 111.36 70.75 108.12 71.03
  Z
  M 72.28 97.42
  Q 72.10 97.12 71.78 96.95
  Q 71.31 96.71 71.14 97.21
  C 67.93 106.97 67.97 119.58 68.16 129.80
  A 0.34 0.34 0.0 0 0 68.50 130.14
  L 93.11 129.94
  Q 93.59 129.94 93.97 129.64
  Q 98.95 125.75 105.11 124.06
  Q 105.70 123.91 105.84 123.32
  C 106.46 120.70 103.59 116.09 108.63 116.09
  A 1.80 1.79 81.1 0 1 110.34 117.34
  Q 112.00 122.50 111.08 127.90
  Q 111.00 128.38 110.52 128.48
  C 108.02 128.96 95.96 131.61 98.13 136.09
  A 1.68 1.67 81.7 0 0 99.37 137.02
  Q 110.77 138.79 121.62 134.53
  Q 122.09 134.34 122.07 133.84
  C 121.71 120.42 119.86 100.33 109.52 90.12
  Q 108.91 89.51 108.75 90.36
  C 106.28 103.55 90.64 106.60 79.79 102.97
  C 76.93 102.01 74.77 99.84 72.59 97.80
  Q 72.41 97.63 72.28 97.42
  Z
  M 54.88 133.09
  Q 58.10 134.78 61.80 134.70
  Q 62.25 134.69 62.25 134.24
  L 62.25 128.27
  Q 62.25 127.85 61.83 127.83
  Q 57.07 127.62 54.46 131.39
  A 1.16 1.16 0.0 0 0 54.88 133.09
  Z
  M 92.24 139.31
  A 0.57 0.57 0.0 0 0 92.78 138.57
  L 92.03 136.15
  A 0.57 0.57 0.0 0 0 91.48 135.75
  L 68.82 135.75
  A 0.57 0.57 0.0 0 0 68.25 136.32
  L 68.25 139.00
  A 0.57 0.57 0.0 0 0 68.83 139.57
  L 92.24 139.31
  Z
  M 114.97 145.44
  Q 92.77 144.66 70.57 145.65
  Q 70.03 145.68 69.57 145.40
  Q 68.94 145.01 68.37 145.66
  Q 68.04 146.03 68.12 146.52
  Q 68.36 147.83 68.30 148.25
  Q 67.08 156.51 68.40 164.29
  A 2.13 2.13 0.0 0 0 70.56 166.06
  L 84.48 165.71
  A 1.07 1.06 -1.4 0 0 85.52 164.63
  C 85.42 159.49 84.27 152.21 90.03 149.51
  C 100.28 144.70 108.07 153.10 106.63 163.25
  A 2.11 2.11 0.0 0 0 108.71 165.66
  L 121.45 165.70
  Q 122.34 165.70 122.34 164.80
  L 122.36 146.11
  Q 122.36 145.42 121.67 145.33
  C 119.43 145.02 116.69 145.50 114.97 145.44
  Z"
/>
<rect x="-2.60" y="-9.31" transform="translate(82.44,82.36) rotate(-0.2)" width="5.20" height="18.62" rx="2.46"/>
</g>
<g fill="#ebbc9e">
<path d="
  M 108.12 71.03
  Q 111.36 70.75 114.17 69.29
  Q 115.12 68.80 114.56 69.71
  Q 110.70 75.99 106.14 81.66
  C 103.09 85.45 104.69 90.06 101.10 93.45
  C 89.53 104.41 72.14 97.37 71.01 81.60
  C 70.61 76.03 69.87 69.40 71.32 64.19
  C 73.26 57.18 78.33 50.63 86.21 50.35
  Q 103.80 49.71 105.44 68.78
  A 2.48 2.47 -4.9 0 0 108.12 71.03
  Z
  M 85.0161 75.5010
  A 2.46 2.46 0.0 0 0 82.5475 73.0496
  L 82.2675 73.0505
  A 2.46 2.46 0.0 0 0 79.8161 75.5191
  L 79.8639 89.2190
  A 2.46 2.46 0.0 0 0 82.3325 91.6704
  L 82.6125 91.6695
  A 2.46 2.46 0.0 0 0 85.0639 89.2009
  L 85.0161 75.5010
  Z"
/>
<path d="
  M 72.59 97.80
  C 74.77 99.84 76.93 102.01 79.79 102.97
  C 90.64 106.60 106.28 103.55 108.75 90.36
  Q 108.91 89.51 109.52 90.12
  C 119.86 100.33 121.71 120.42 122.07 133.84
  Q 122.09 134.34 121.62 134.53
  Q 110.77 138.79 99.37 137.02
  A 1.68 1.67 81.7 0 1 98.13 136.09
  C 95.96 131.61 108.02 128.96 110.52 128.48
  Q 111.00 128.38 111.08 127.90
  Q 112.00 122.50 110.34 117.34
  A 1.80 1.79 81.1 0 0 108.63 116.09
  C 103.59 116.09 106.46 120.70 105.84 123.32
  Q 105.70 123.91 105.11 124.06
  Q 98.95 125.75 93.97 129.64
  Q 93.59 129.94 93.11 129.94
  L 68.50 130.14
  A 0.34 0.34 0.0 0 1 68.16 129.80
  C 67.97 119.58 67.93 106.97 71.14 97.21
  Q 71.31 96.71 71.78 96.95
  Q 72.10 97.12 72.28 97.42
  Q 72.41 97.63 72.59 97.80
  Z"
/>
<path d="
  M 54.88 133.09
  A 1.16 1.16 0.0 0 1 54.46 131.39
  Q 57.07 127.62 61.83 127.83
  Q 62.25 127.85 62.25 128.27
  L 62.25 134.24
  Q 62.25 134.69 61.80 134.70
  Q 58.10 134.78 54.88 133.09
  Z"
/>
</g>
<g fill="#6e423f">
<path d="
  M 92.24 139.31
  L 68.83 139.57
  A 0.57 0.57 0.0 0 1 68.25 139.00
  L 68.25 136.32
  A 0.57 0.57 0.0 0 1 68.82 135.75
  L 91.48 135.75
  A 0.57 0.57 0.0 0 1 92.03 136.15
  L 92.78 138.57
  A 0.57 0.57 0.0 0 1 92.24 139.31
  Z"
/>
<path d="
  M 114.97 145.44
  C 116.69 145.50 119.43 145.02 121.67 145.33
  Q 122.36 145.42 122.36 146.11
  L 122.34 164.80
  Q 122.34 165.70 121.45 165.70
  L 108.71 165.66
  A 2.11 2.11 0.0 0 1 106.63 163.25
  C 108.07 153.10 100.28 144.70 90.03 149.51
  C 84.27 152.21 85.42 159.49 85.52 164.63
  A 1.07 1.06 -1.4 0 1 84.48 165.71
  L 70.56 166.06
  A 2.13 2.13 0.0 0 1 68.40 164.29
  Q 67.08 156.51 68.30 148.25
  Q 68.36 147.83 68.12 146.52
  Q 68.04 146.03 68.37 145.66
  Q 68.94 145.01 69.57 145.40
  Q 70.03 145.68 70.57 145.65
  Q 92.77 144.66 114.97 145.44
  Z"
/>
</g>
</svg>
