<?xml version="1.0" encoding="UTF-8" standalone="no"?>
<!DOCTYPE svg PUBLIC "-//W3C//DTD SVG 1.1//EN" "http://www.w3.org/Graphics/SVG/1.1/DTD/svg11.dtd">
<svg xmlns="http://www.w3.org/2000/svg" version="1.1" viewBox="0 0 180 180">
<g stroke-width="2.00" fill="none" stroke-linecap="butt">
<path stroke="#927a6d" vector-effect="non-scaling-stroke" d="
  M 70.92 80.36
  C 71.78 96.27 88.11 105.01 100.54 93.94
  C 103.14 91.62 101.18 86.75 106.50 87.00
  C 113.23 87.31 119.27 78.62 112.12 74.40
  C 109.71 72.98 104.41 76.27 104.99 69.99
  C 107.10 47.07 76.43 42.19 71.09 65.06
  C 70.04 69.56 70.64 75.29 70.92 80.36"
/>
<path stroke="#927a6d" vector-effect="non-scaling-stroke" d="
  M 71.54 97.16
  A 0.25 0.25 0.0 0 0 71.14 97.25
  C 70.63 98.56 70.04 99.90 69.84 101.35
  Q 67.89 115.53 68.16 129.80
  A 0.34 0.34 0.0 0 0 68.50 130.14
  L 93.10 129.94
  Q 93.59 129.94 93.97 129.64
  Q 98.94 125.75 105.10 124.08
  Q 105.69 123.92 105.83 123.33
  C 106.36 121.18 104.07 116.40 107.83 116.07
  C 112.20 115.68 111.46 125.27 111.09 127.83
  Q 111.02 128.34 110.51 128.44
  C 108.01 128.93 96.32 131.56 98.02 135.94
  A 1.65 1.63 83.9 0 0 99.29 136.98
  Q 110.74 138.81 121.65 134.52
  Q 122.13 134.33 122.11 133.82
  C 121.62 119.73 120.01 104.92 111.80 92.62
  Q 111.53 92.22 111.06 92.31
  L 108.34 92.85
  Q 107.81 92.95 107.57 93.44
  Q 104.03 100.59 96.84 103.04
  Q 82.87 107.79 71.54 97.16"
/>
<path stroke="#927a6d" vector-effect="non-scaling-stroke" d="
  M 54.88 133.09
  Q 58.10 134.78 61.80 134.70
  Q 62.25 134.69 62.25 134.24
  L 62.25 128.27
  Q 62.25 127.85 61.83 127.83
  Q 57.07 127.62 54.46 131.39
  A 1.16 1.16 0.0 0 0 54.88 133.09"
/>
<path stroke="#533d3e" vector-effect="non-scaling-stroke" d="
  M 92.24 139.31
  A 0.57 0.57 0.0 0 0 92.78 138.57
  L 92.03 136.15
  A 0.57 0.57 0.0 0 0 91.48 135.75
  L 68.82 135.75
  A 0.57 0.57 0.0 0 0 68.25 136.32
  L 68.25 139.00
  A 0.57 0.57 0.0 0 0 68.83 139.57
  L 92.24 139.31"
/>
<path stroke="#533d3e" vector-effect="non-scaling-stroke" d="
  M 68.82 145.36
  A 0.67 0.66 -0.8 0 0 68.15 146.04
  C 68.34 152.52 67.10 158.29 68.59 164.88
  Q 68.70 165.40 69.20 165.58
  C 72.67 166.86 80.60 165.82 84.56 165.69
  A 0.99 0.99 0.0 0 0 85.52 164.68
  C 85.42 159.54 84.26 152.22 90.03 149.51
  C 100.20 144.74 108.17 153.08 106.62 163.25
  A 2.08 2.08 0.0 0 0 108.66 165.65
  L 121.06 165.72
  A 1.28 1.28 0.0 0 0 122.35 164.44
  L 122.36 146.00
  Q 122.36 145.13 121.49 145.14
  L 68.82 145.36"
/>
<path stroke="#927a6d" vector-effect="non-scaling-stroke" d="
  M 85.0343 75.5364
  A 2.50 2.50 0.0 0 0 82.5213 73.0496
  L 82.3013 73.0507
  A 2.50 2.50 0.0 0 0 79.8144 75.5638
  L 79.8857 89.1836
  A 2.50 2.50 0.0 0 0 82.3987 91.6704
  L 82.6187 91.6693
  A 2.50 2.50 0.0 0 0 85.1056 89.1562
  L 85.0343 75.5364"
/>
</g>
<g fill="#38383c">
<path d="
  M 62.70 121.52
  C 62.63 111.46 62.86 100.76 67.73 91.69
  Q 67.98 91.22 67.80 90.72
  C 64.47 81.55 63.49 64.15 69.53 55.21
  C 82.60 35.88 110.69 44.45 110.80 67.81
  Q 110.81 68.34 111.32 68.44
  C 122.00 70.61 123.77 81.65 116.76 88.91
  Q 116.40 89.28 116.68 89.70
  C 125.95 103.76 127.22 118.73 127.71 135.07
  C 128.02 145.33 129.00 156.95 127.98 166.50
  Q 127.52 170.78 122.52 171.34
  C 116.58 172.01 101.73 173.10 101.39 165.30
  C 101.16 159.92 101.21 151.88 92.92 154.24
  A 2.51 2.50 80.4 0 0 91.11 156.80
  C 91.33 160.26 91.84 165.83 90.21 168.58
  C 87.58 173.02 77.67 171.75 71.76 171.69
  C 67.39 171.65 63.72 169.88 63.12 165.29
  C 62.87 163.45 62.21 161.69 62.23 159.87
  Q 62.32 150.51 62.57 141.32
  A 0.94 0.93 -0.8 0 0 61.58 140.36
  Q 53.46 140.84 48.71 134.54
  Q 48.35 134.06 48.40 133.46
  C 49.08 125.40 54.85 122.62 62.13 122.14
  Q 62.71 122.11 62.70 121.52
  Z
  M 70.92 80.36
  C 71.78 96.27 88.11 105.01 100.54 93.94
  C 103.14 91.62 101.18 86.75 106.50 87.00
  C 113.23 87.31 119.27 78.62 112.12 74.40
  C 109.71 72.98 104.41 76.27 104.99 69.99
  C 107.10 47.07 76.43 42.19 71.09 65.06
  C 70.04 69.56 70.64 75.29 70.92 80.36
  Z
  M 71.54 97.16
  A 0.25 0.25 0.0 0 0 71.14 97.25
  C 70.63 98.56 70.04 99.90 69.84 101.35
  Q 67.89 115.53 68.16 129.80
  A 0.34 0.34 0.0 0 0 68.50 130.14
  L 93.10 129.94
  Q 93.59 129.94 93.97 129.64
  Q 98.94 125.75 105.10 124.08
  Q 105.69 123.92 105.83 123.33
  C 106.36 121.18 104.07 116.40 107.83 116.07
  C 112.20 115.68 111.46 125.27 111.09 127.83
  Q 111.02 128.34 110.51 128.44
  C 108.01 128.93 96.32 131.56 98.02 135.94
  A 1.65 1.63 83.9 0 0 99.29 136.98
  Q 110.74 138.81 121.65 134.52
  Q 122.13 134.33 122.11 133.82
  C 121.62 119.73 120.01 104.92 111.80 92.62
  Q 111.53 92.22 111.06 92.31
  L 108.34 92.85
  Q 107.81 92.95 107.57 93.44
  Q 104.03 100.59 96.84 103.04
  Q 82.87 107.79 71.54 97.16
  Z
  M 54.88 133.09
  Q 58.10 134.78 61.80 134.70
  Q 62.25 134.69 62.25 134.24
  L 62.25 128.27
  Q 62.25 127.85 61.83 127.83
  Q 57.07 127.62 54.46 131.39
  A 1.16 1.16 0.0 0 0 54.88 133.09
  Z
  M 92.24 139.31
  A 0.57 0.57 0.0 0 0 92.78 138.57
  L 92.03 136.15
  A 0.57 0.57 0.0 0 0 91.48 135.75
  L 68.82 135.75
  A 0.57 0.57 0.0 0 0 68.25 136.32
  L 68.25 139.00
  A 0.57 0.57 0.0 0 0 68.83 139.57
  L 92.24 139.31
  Z
  M 68.82 145.36
  A 0.67 0.66 -0.8 0 0 68.15 146.04
  C 68.34 152.52 67.10 158.29 68.59 164.88
  Q 68.70 165.40 69.20 165.58
  C 72.67 166.86 80.60 165.82 84.56 165.69
  A 0.99 0.99 0.0 0 0 85.52 164.68
  C 85.42 159.54 84.26 152.22 90.03 149.51
  C 100.20 144.74 108.17 153.08 106.62 163.25
  A 2.08 2.08 0.0 0 0 108.66 165.65
  L 121.06 165.72
  A 1.28 1.28 0.0 0 0 122.35 164.44
  L 122.36 146.00
  Q 122.36 145.13 121.49 145.14
  L 68.82 145.36
  Z"
/>
<rect x="-2.61" y="-9.31" transform="translate(82.46,82.36) rotate(-0.3)" width="5.22" height="18.62" rx="2.50"/>
</g>
<g fill="#ebbc9e">
<path d="
  M 100.54 93.94
  C 88.11 105.01 71.78 96.27 70.92 80.36
  C 70.64 75.29 70.04 69.56 71.09 65.06
  C 76.43 42.19 107.10 47.07 104.99 69.99
  C 104.41 76.27 109.71 72.98 112.12 74.40
  C 119.27 78.62 113.23 87.31 106.50 87.00
  C 101.18 86.75 103.14 91.62 100.54 93.94
  Z
  M 85.0343 75.5364
  A 2.50 2.50 0.0 0 0 82.5213 73.0496
  L 82.3013 73.0507
  A 2.50 2.50 0.0 0 0 79.8144 75.5638
  L 79.8857 89.1836
  A 2.50 2.50 0.0 0 0 82.3987 91.6704
  L 82.6187 91.6693
  A 2.50 2.50 0.0 0 0 85.1056 89.1562
  L 85.0343 75.5364
  Z"
/>
<path d="
  M 71.54 97.16
  Q 82.87 107.79 96.84 103.04
  Q 104.03 100.59 107.57 93.44
  Q 107.81 92.95 108.34 92.85
  L 111.06 92.31
  Q 111.53 92.22 111.80 92.62
  C 120.01 104.92 121.62 119.73 122.11 133.82
  Q 122.13 134.33 121.65 134.52
  Q 110.74 138.81 99.29 136.98
  A 1.65 1.63 83.9 0 1 98.02 135.94
  C 96.32 131.56 108.01 128.93 110.51 128.44
  Q 111.02 128.34 111.09 127.83
  C 111.46 125.27 112.20 115.68 107.83 116.07
  C 104.07 116.40 106.36 121.18 105.83 123.33
  Q 105.69 123.92 105.10 124.08
  Q 98.94 125.75 93.97 129.64
  Q 93.59 129.94 93.10 129.94
  L 68.50 130.14
  A 0.34 0.34 0.0 0 1 68.16 129.80
  Q 67.89 115.53 69.84 101.35
  C 70.04 99.90 70.63 98.56 71.14 97.25
  A 0.25 0.25 0.0 0 1 71.54 97.16
  Z"
/>
<path d="
  M 54.88 133.09
  A 1.16 1.16 0.0 0 1 54.46 131.39
  Q 57.07 127.62 61.83 127.83
  Q 62.25 127.85 62.25 128.27
  L 62.25 134.24
  Q 62.25 134.69 61.80 134.70
  Q 58.10 134.78 54.88 133.09
  Z"
/>
</g>
<g fill="#6e423f">
<path d="
  M 92.24 139.31
  L 68.83 139.57
  A 0.57 0.57 0.0 0 1 68.25 139.00
  L 68.25 136.32
  A 0.57 0.57 0.0 0 1 68.82 135.75
  L 91.48 135.75
  A 0.57 0.57 0.0 0 1 92.03 136.15
  L 92.78 138.57
  A 0.57 0.57 0.0 0 1 92.24 139.31
  Z"
/>
<path d="
  M 68.82 145.36
  L 121.49 145.14
  Q 122.36 145.13 122.36 146.00
  L 122.35 164.44
  A 1.28 1.28 0.0 0 1 121.06 165.72
  L 108.66 165.65
  A 2.08 2.08 0.0 0 1 106.62 163.25
  C 108.17 153.08 100.20 144.74 90.03 149.51
  C 84.26 152.22 85.42 159.54 85.52 164.68
  A 0.99 0.99 0.0 0 1 84.56 165.69
  C 80.60 165.82 72.67 166.86 69.20 165.58
  Q 68.70 165.40 68.59 164.88
  C 67.10 158.29 68.34 152.52 68.15 146.04
  A 0.67 0.66 -0.8 0 1 68.82 145.36
  Z"
/>
</g>
</svg>
