<?xml version="1.0" encoding="UTF-8" standalone="no"?>
<!DOCTYPE svg PUBLIC "-//W3C//DTD SVG 1.1//EN" "http://www.w3.org/Graphics/SVG/1.1/DTD/svg11.dtd">
<svg xmlns="http://www.w3.org/2000/svg" version="1.1" viewBox="0 0 180 180">
<g stroke-width="2.00" fill="none" stroke-linecap="butt">
<path stroke="#82883e" vector-effect="non-scaling-stroke" d="
  M 97.21 95.26
  C 94.51 95.12 90.70 95.24 88.77 93.94
  C 84.55 91.10 91.83 82.61 94.94 79.68
  Q 96.55 78.16 99.67 78.05
  Q 100.20 78.04 100.59 78.38
  Q 103.67 81.04 103.83 85.46
  A 1.54 1.53 -16.5 0 0 106.16 86.72
  Q 112.59 82.86 115.45 75.84
  Q 115.96 74.58 114.60 74.71
  C 111.72 74.99 107.22 75.82 105.01 73.11
  Q 104.68 72.71 104.72 72.18
  C 105.03 68.51 105.26 64.42 103.84 61.02
  Q 98.79 48.91 85.37 50.44
  C 76.00 51.51 71.31 60.49 70.46 68.99
  Q 70.25 71.09 70.99 79.22
  Q 71.03 79.72 71.40 80.08
  C 74.66 83.26 80.59 89.95 77.44 93.69
  Q 77.12 94.07 77.43 94.47
  C 81.90 100.20 92.32 99.41 97.46 96.24
  Q 98.90 95.35 97.21 95.26"
/>
<path stroke="#99999b" vector-effect="non-scaling-stroke" d="
  M 68.44 89.78
  L 71.59 89.43
  Q 72.29 89.35 71.85 88.79
  L 68.22 84.17
  Q 67.50 83.24 67.50 84.42
  L 67.50 88.94
  A 0.85 0.84 86.7 0 0 68.44 89.78"
/>
<path stroke="#99999b" vector-effect="non-scaling-stroke" d="
  M 94.20 88.75
  A 0.43 0.43 0.0 0 0 94.50 89.44
  L 98.02 89.82
  A 0.43 0.43 0.0 0 0 98.50 89.39
  L 98.50 84.47
  A 0.43 0.43 0.0 0 0 97.73 84.21
  L 94.20 88.75"
/>
<path stroke="#82883e" vector-effect="non-scaling-stroke" d="
  M 108.09 92.19
  C 101.96 106.59 81.66 108.91 71.96 96.99
  Q 71.59 96.54 71.31 97.06
  Q 70.17 99.17 69.89 101.18
  Q 67.91 115.41 68.20 129.78
  A 0.32 0.32 0.0 0 0 68.52 130.09
  L 92.58 129.96
  Q 93.03 129.96 93.34 129.62
  Q 97.12 125.47 103.29 123.76
  Q 107.39 122.62 105.53 118.67
  Q 105.31 118.21 105.39 117.71
  C 105.88 114.35 109.86 114.15 110.76 117.51
  Q 111.64 120.78 111.25 123.87
  Q 111.18 124.37 110.84 124.76
  Q 107.26 128.76 102.14 130.18
  C 100.14 130.73 98.80 131.69 97.90 133.38
  A 1.56 1.56 0.0 0 0 98.88 135.62
  Q 103.08 136.71 107.36 136.96
  C 111.86 137.23 116.11 135.36 120.44 133.97
  Q 120.93 133.81 121.13 133.34
  C 123.12 128.62 121.26 122.10 120.42 115.31
  C 119.86 110.79 115.11 93.70 110.36 91.33
  A 1.67 1.65 -65.4 0 0 108.09 92.19"
/>
<path stroke="#82883e" vector-effect="non-scaling-stroke" d="
  M 54.87 133.09
  Q 58.12 134.67 61.77 134.72
  Q 62.24 134.73 62.25 134.25
  L 62.26 128.31
  Q 62.26 127.82 61.78 127.81
  Q 57.14 127.72 54.45 131.38
  A 1.15 1.14 -58.9 0 0 54.87 133.09"
/>
<path stroke="#533d3e" vector-effect="non-scaling-stroke" d="
  M 91.69 135.74
  L 68.89 135.78
  Q 68.25 135.78 68.25 136.42
  L 68.25 139.04
  Q 68.25 139.58 68.79 139.58
  L 93.25 139.30
  Q 94.48 139.29 93.57 138.46
  Q 92.62 137.60 92.38 136.31
  Q 92.28 135.74 91.69 135.74"
/>
<path stroke="#533d3e" vector-effect="non-scaling-stroke" d="
  M 68.78 145.36
  A 0.66 0.65 -1.3 0 0 68.13 146.03
  C 68.32 152.50 67.11 158.31 68.57 164.87
  Q 68.69 165.39 69.18 165.57
  C 72.64 166.86 80.63 165.82 84.60 165.69
  A 0.91 0.91 0.0 0 0 85.48 164.79
  C 85.55 160.98 84.82 156.08 86.56 152.92
  C 90.86 145.11 103.05 147.60 105.99 155.43
  C 106.99 158.08 106.84 161.00 106.74 163.90
  A 1.69 1.68 -88.8 0 0 108.41 165.65
  L 121.44 165.70
  Q 122.34 165.70 122.34 164.81
  L 122.38 146.02
  Q 122.38 145.17 121.52 145.17
  L 68.78 145.36"
/>
<path stroke="#82883e" vector-effect="non-scaling-stroke" d="
  M 85.0582 75.4323
  A 2.58 2.58 0.0 0 0 82.4514 72.8795
  L 82.2514 72.8816
  A 2.58 2.58 0.0 0 0 79.6985 75.4884
  L 79.8418 89.1677
  A 2.58 2.58 0.0 0 0 82.4486 91.7205
  L 82.6486 91.7184
  A 2.58 2.58 0.0 0 0 85.2015 89.1116
  L 85.0582 75.4323"
/>
</g>
<g fill="#38383c">
<path d="
  M 111.76 69.32
  C 116.31 68.99 123.13 68.80 121.40 75.14
  Q 119.62 81.66 115.03 86.68
  Q 114.68 87.07 115.00 87.48
  C 128.82 105.82 127.26 127.78 128.24 149.21
  Q 128.70 159.46 127.98 166.50
  C 127.25 173.67 110.99 171.78 106.75 170.99
  C 96.53 169.08 105.94 150.51 92.91 154.24
  A 2.51 2.50 -9.9 0 0 91.11 156.79
  C 91.33 160.26 91.84 165.83 90.21 168.58
  C 87.58 173.02 77.67 171.75 71.76 171.69
  C 67.39 171.65 63.72 169.88 63.12 165.29
  C 62.88 163.46 62.20 161.69 62.23 159.87
  Q 62.34 150.53 62.56 141.67
  A 1.20 1.20 0.0 0 0 61.36 140.44
  C 43.00 140.52 45.88 122.99 62.17 122.16
  Q 62.74 122.13 62.74 121.56
  C 62.62 113.65 62.72 102.44 65.88 95.48
  Q 66.11 94.99 65.61 94.79
  C 59.49 92.28 62.49 81.58 65.22 78.00
  Q 65.53 77.60 65.47 77.11
  C 64.21 66.18 67.31 53.49 77.12 47.64
  C 87.67 41.35 100.87 44.95 107.51 55.15
  C 110.14 59.18 110.62 63.87 111.02 68.69
  Q 111.08 69.37 111.76 69.32
  Z
  M 97.21 95.26
  C 94.51 95.12 90.70 95.24 88.77 93.94
  C 84.55 91.10 91.83 82.61 94.94 79.68
  Q 96.55 78.16 99.67 78.05
  Q 100.20 78.04 100.59 78.38
  Q 103.67 81.04 103.83 85.46
  A 1.54 1.53 -16.5 0 0 106.16 86.72
  Q 112.59 82.86 115.45 75.84
  Q 115.96 74.58 114.60 74.71
  C 111.72 74.99 107.22 75.82 105.01 73.11
  Q 104.68 72.71 104.72 72.18
  C 105.03 68.51 105.26 64.42 103.84 61.02
  Q 98.79 48.91 85.37 50.44
  C 76.00 51.51 71.31 60.49 70.46 68.99
  Q 70.25 71.09 70.99 79.22
  Q 71.03 79.72 71.40 80.08
  C 74.66 83.26 80.59 89.95 77.44 93.69
  Q 77.12 94.07 77.43 94.47
  C 81.90 100.20 92.32 99.41 97.46 96.24
  Q 98.90 95.35 97.21 95.26
  Z
  M 68.44 89.78
  L 71.59 89.43
  Q 72.29 89.35 71.85 88.79
  L 68.22 84.17
  Q 67.50 83.24 67.50 84.42
  L 67.50 88.94
  A 0.85 0.84 86.7 0 0 68.44 89.78
  Z
  M 94.20 88.75
  A 0.43 0.43 0.0 0 0 94.50 89.44
  L 98.02 89.82
  A 0.43 0.43 0.0 0 0 98.50 89.39
  L 98.50 84.47
  A 0.43 0.43 0.0 0 0 97.73 84.21
  L 94.20 88.75
  Z
  M 108.09 92.19
  C 101.96 106.59 81.66 108.91 71.96 96.99
  Q 71.59 96.54 71.31 97.06
  Q 70.17 99.17 69.89 101.18
  Q 67.91 115.41 68.20 129.78
  A 0.32 0.32 0.0 0 0 68.52 130.09
  L 92.58 129.96
  Q 93.03 129.96 93.34 129.62
  Q 97.12 125.47 103.29 123.76
  Q 107.39 122.62 105.53 118.67
  Q 105.31 118.21 105.39 117.71
  C 105.88 114.35 109.86 114.15 110.76 117.51
  Q 111.64 120.78 111.25 123.87
  Q 111.18 124.37 110.84 124.76
  Q 107.26 128.76 102.14 130.18
  C 100.14 130.73 98.80 131.69 97.90 133.38
  A 1.56 1.56 0.0 0 0 98.88 135.62
  Q 103.08 136.71 107.36 136.96
  C 111.86 137.23 116.11 135.36 120.44 133.97
  Q 120.93 133.81 121.13 133.34
  C 123.12 128.62 121.26 122.10 120.42 115.31
  C 119.86 110.79 115.11 93.70 110.36 91.33
  A 1.67 1.65 -65.4 0 0 108.09 92.19
  Z
  M 54.87 133.09
  Q 58.12 134.67 61.77 134.72
  Q 62.24 134.73 62.25 134.25
  L 62.26 128.31
  Q 62.26 127.82 61.78 127.81
  Q 57.14 127.72 54.45 131.38
  A 1.15 1.14 -58.9 0 0 54.87 133.09
  Z
  M 91.69 135.74
  L 68.89 135.78
  Q 68.25 135.78 68.25 136.42
  L 68.25 139.04
  Q 68.25 139.58 68.79 139.58
  L 93.25 139.30
  Q 94.48 139.29 93.57 138.46
  Q 92.62 137.60 92.38 136.31
  Q 92.28 135.74 91.69 135.74
  Z
  M 68.78 145.36
  A 0.66 0.65 -1.3 0 0 68.13 146.03
  C 68.32 152.50 67.11 158.31 68.57 164.87
  Q 68.69 165.39 69.18 165.57
  C 72.64 166.86 80.63 165.82 84.60 165.69
  A 0.91 0.91 0.0 0 0 85.48 164.79
  C 85.55 160.98 84.82 156.08 86.56 152.92
  C 90.86 145.11 103.05 147.60 105.99 155.43
  C 106.99 158.08 106.84 161.00 106.74 163.90
  A 1.69 1.68 -88.8 0 0 108.41 165.65
  L 121.44 165.70
  Q 122.34 165.70 122.34 164.81
  L 122.38 146.02
  Q 122.38 145.17 121.52 145.17
  L 68.78 145.36
  Z"
/>
<rect x="-2.68" y="-9.42" transform="translate(82.45,82.30) rotate(-0.6)" width="5.36" height="18.84" rx="2.58"/>
</g>
<g fill="#ccd73f">
<path d="
  M 97.21 95.26
  Q 98.90 95.35 97.46 96.24
  C 92.32 99.41 81.90 100.20 77.43 94.47
  Q 77.12 94.07 77.44 93.69
  C 80.59 89.95 74.66 83.26 71.40 80.08
  Q 71.03 79.72 70.99 79.22
  Q 70.25 71.09 70.46 68.99
  C 71.31 60.49 76.00 51.51 85.37 50.44
  Q 98.79 48.91 103.84 61.02
  C 105.26 64.42 105.03 68.51 104.72 72.18
  Q 104.68 72.71 105.01 73.11
  C 107.22 75.82 111.72 74.99 114.60 74.71
  Q 115.96 74.58 115.45 75.84
  Q 112.59 82.86 106.16 86.72
  A 1.54 1.53 -16.5 0 1 103.83 85.46
  Q 103.67 81.04 100.59 78.38
  Q 100.20 78.04 99.67 78.05
  Q 96.55 78.16 94.94 79.68
  C 91.83 82.61 84.55 91.10 88.77 93.94
  C 90.70 95.24 94.51 95.12 97.21 95.26
  Z
  M 85.0582 75.4323
  A 2.58 2.58 0.0 0 0 82.4514 72.8795
  L 82.2514 72.8816
  A 2.58 2.58 0.0 0 0 79.6985 75.4884
  L 79.8418 89.1677
  A 2.58 2.58 0.0 0 0 82.4486 91.7205
  L 82.6486 91.7184
  A 2.58 2.58 0.0 0 0 85.2015 89.1116
  L 85.0582 75.4323
  Z"
/>
<path d="
  M 71.96 96.99
  C 81.66 108.91 101.96 106.59 108.09 92.19
  A 1.67 1.65 -65.4 0 1 110.36 91.33
  C 115.11 93.70 119.86 110.79 120.42 115.31
  C 121.26 122.10 123.12 128.62 121.13 133.34
  Q 120.93 133.81 120.44 133.97
  C 116.11 135.36 111.86 137.23 107.36 136.96
  Q 103.08 136.71 98.88 135.62
  A 1.56 1.56 0.0 0 1 97.90 133.38
  C 98.80 131.69 100.14 130.73 102.14 130.18
  Q 107.26 128.76 110.84 124.76
  Q 111.18 124.37 111.25 123.87
  Q 111.64 120.78 110.76 117.51
  C 109.86 114.15 105.88 114.35 105.39 117.71
  Q 105.31 118.21 105.53 118.67
  Q 107.39 122.62 103.29 123.76
  Q 97.12 125.47 93.34 129.62
  Q 93.03 129.96 92.58 129.96
  L 68.52 130.09
  A 0.32 0.32 0.0 0 1 68.20 129.78
  Q 67.91 115.41 69.89 101.18
  Q 70.17 99.17 71.31 97.06
  Q 71.59 96.54 71.96 96.99
  Z"
/>
<path d="
  M 54.87 133.09
  A 1.15 1.14 -58.9 0 1 54.45 131.38
  Q 57.14 127.72 61.78 127.81
  Q 62.26 127.82 62.26 128.31
  L 62.25 134.25
  Q 62.24 134.73 61.77 134.72
  Q 58.12 134.67 54.87 133.09
  Z"
/>
</g>
<g fill="#6e423f">
<path d="
  M 68.89 135.78
  L 91.69 135.74
  Q 92.28 135.74 92.38 136.31
  Q 92.62 137.60 93.57 138.46
  Q 94.48 139.29 93.25 139.30
  L 68.79 139.58
  Q 68.25 139.58 68.25 139.04
  L 68.25 136.42
  Q 68.25 135.78 68.89 135.78
  Z"
/>
<path d="
  M 68.78 145.36
  L 121.52 145.17
  Q 122.38 145.17 122.38 146.02
  L 122.34 164.81
  Q 122.34 165.70 121.44 165.70
  L 108.41 165.65
  A 1.69 1.68 -88.8 0 1 106.74 163.90
  C 106.84 161.00 106.99 158.08 105.99 155.43
  C 103.05 147.60 90.86 145.11 86.56 152.92
  C 84.82 156.08 85.55 160.98 85.48 164.79
  A 0.91 0.91 0.0 0 1 84.60 165.69
  C 80.63 165.82 72.64 166.86 69.18 165.57
  Q 68.69 165.39 68.57 164.87
  C 67.11 158.31 68.32 152.50 68.13 146.03
  A 0.66 0.65 -1.3 0 1 68.78 145.36
  Z"
/>
</g>
<g fill="#fafafa">
<path d="
  M 68.44 89.78
  A 0.85 0.84 86.7 0 1 67.50 88.94
  L 67.50 84.42
  Q 67.50 83.24 68.22 84.17
  L 71.85 88.79
  Q 72.29 89.35 71.59 89.43
  L 68.44 89.78
  Z"
/>
<path d="
  M 94.20 88.75
  L 97.73 84.21
  A 0.43 0.43 0.0 0 1 98.50 84.47
  L 98.50 89.39
  A 0.43 0.43 0.0 0 1 98.02 89.82
  L 94.50 89.44
  A 0.43 0.43 0.0 0 1 94.20 88.75
  Z"
/>
</g>
</svg>
