<?xml version="1.0" encoding="UTF-8" standalone="no"?>
<!DOCTYPE svg PUBLIC "-//W3C//DTD SVG 1.1//EN" "http://www.w3.org/Graphics/SVG/1.1/DTD/svg11.dtd">
<svg xmlns="http://www.w3.org/2000/svg" version="1.1" viewBox="0 0 180 180">
<g stroke-width="2.00" fill="none" stroke-linecap="butt">
<path stroke="#533d3e" vector-effect="non-scaling-stroke" d="
  M 123.57 147.31
  C 129.50 147.26 143.87 148.96 145.47 140.33
  Q 146.29 135.88 145.93 131.33
  A 0.34 0.34 0.0 0 0 145.37 131.10
  Q 137.73 138.01 129.00 143.53
  A 2.10 2.10 0.0 0 1 126.17 142.98
  Q 124.32 140.37 127.16 138.41
  Q 137.02 131.59 145.52 123.13
  Q 145.84 122.81 145.82 122.35
  L 145.47 115.60
  A 0.36 0.36 0.0 0 0 144.85 115.37
  C 142.05 118.20 129.16 130.10 125.60 129.18
  C 123.26 128.59 123.32 125.35 125.04 124.27
  Q 131.90 119.94 137.75 114.23
  A 0.30 0.30 0.0 0 0 137.52 113.71
  L 123.38 114.37
  Q 122.96 114.39 122.69 114.70
  L 122.49 114.93"
/>
<path stroke="#533d3e" vector-effect="non-scaling-stroke" d="
  M 120.09 108.73
  L 148.22 107.20
  A 0.56 0.56 0.0 0 0 148.56 106.23
  C 146.49 104.42 123.16 105.73 119.01 105.94"
/>
<path stroke="#3d504e" vector-effect="non-scaling-stroke" d="
  M 116.51 96.94
  Q 119.89 94.03 126.01 94.26
  Q 128.37 94.35 135.80 93.06
  Q 136.25 92.98 136.55 92.66
  L 144.66 84.17
  Q 145.00 83.82 144.68 83.44
  L 142.04 80.25"
/>
<path stroke="#576461" vector-effect="non-scaling-stroke" d="
  M 142.04 80.25
  Q 139.46 76.30 135.48 73.77
  Q 135.06 73.50 134.55 73.50
  C 130.94 73.50 126.38 76.48 123.46 78.50"
/>
<path stroke="#3d504e" vector-effect="non-scaling-stroke" d="
  M 123.46 78.50
  Q 120.98 80.83 117.79 80.00"
/>
<path stroke="#5c7c73" vector-effect="non-scaling-stroke" d="
  M 142.04 80.25
  L 140.25 81.79"
/>
<path stroke="#576461" vector-effect="non-scaling-stroke" d="
  M 140.25 81.79
  C 136.59 79.79 131.98 86.19 130.30 88.93"
/>
<path stroke="#5c7c73" vector-effect="non-scaling-stroke" d="
  M 130.30 88.93
  Q 123.95 85.76 123.46 78.50"
/>
<path stroke="#3d504e" vector-effect="non-scaling-stroke" d="
  M 130.30 88.93
  C 130.63 96.54 139.11 86.70 140.36 85.34
  Q 141.65 83.93 140.25 81.79"
/>
</g>
<g fill="#38383c">
<path d="
  M 123.57 147.31
  C 129.50 147.26 143.87 148.96 145.47 140.33
  Q 146.29 135.88 145.93 131.33
  A 0.34 0.34 0.0 0 0 145.37 131.10
  Q 137.73 138.01 129.00 143.53
  A 2.10 2.10 0.0 0 1 126.17 142.98
  Q 124.32 140.37 127.16 138.41
  Q 137.02 131.59 145.52 123.13
  Q 145.84 122.81 145.82 122.35
  L 145.47 115.60
  A 0.36 0.36 0.0 0 0 144.85 115.37
  C 142.05 118.20 129.16 130.10 125.60 129.18
  C 123.26 128.59 123.32 125.35 125.04 124.27
  Q 131.90 119.94 137.75 114.23
  A 0.30 0.30 0.0 0 0 137.52 113.71
  L 123.38 114.37
  Q 122.96 114.39 122.69 114.70
  L 122.49 114.93
  Q 118.99 112.76 120.09 108.73
  L 148.22 107.20
  A 0.56 0.56 0.0 0 0 148.56 106.23
  C 146.49 104.42 123.16 105.73 119.01 105.94
  Q 117.51 103.78 118.52 101.76
  Q 118.75 101.30 118.52 100.84
  L 116.51 96.94
  Q 119.89 94.03 126.01 94.26
  Q 128.37 94.35 135.80 93.06
  Q 136.25 92.98 136.55 92.66
  L 144.66 84.17
  Q 145.00 83.82 144.68 83.44
  L 142.04 80.25
  Q 139.46 76.30 135.48 73.77
  Q 135.06 73.50 134.55 73.50
  C 130.94 73.50 126.38 76.48 123.46 78.50
  Q 120.98 80.83 117.79 80.00
  C 115.04 74.84 125.13 71.07 128.41 69.22
  Q 134.76 65.63 140.55 70.41
  C 148.73 77.17 155.29 87.75 154.06 98.26
  C 153.57 102.49 155.65 110.06 151.05 112.14
  Q 150.55 112.37 150.62 112.91
  Q 152.13 125.99 151.50 139.06
  C 150.82 153.22 134.18 153.88 123.97 152.55
  A 2.31 2.30 -9.8 0 1 122.23 151.33
  Q 121.06 149.08 123.57 147.31
  Z"
/>
<path d="
  M 140.25 81.79
  Q 141.65 83.93 140.36 85.34
  C 139.11 86.70 130.63 96.54 130.30 88.93
  C 131.98 86.19 136.59 79.79 140.25 81.79
  Z"
/>
</g>
<path fill="#42685f" d="
  M 123.46 78.50
  Q 123.95 85.76 130.30 88.93
  C 130.63 96.54 139.11 86.70 140.36 85.34
  Q 141.65 83.93 140.25 81.79
  L 142.04 80.25
  L 144.68 83.44
  Q 145.00 83.82 144.66 84.17
  L 136.55 92.66
  Q 136.25 92.98 135.80 93.06
  Q 128.37 94.35 126.01 94.26
  Q 119.89 94.03 116.51 96.94
  Q 116.48 95.63 115.85 94.47
  Q 115.59 94.01 115.07 94.02
  Q 112.17 94.07 111.76 91.22
  Q 111.68 90.67 112.00 90.22
  Q 113.19 88.51 113.57 86.46
  Q 113.65 86.01 113.92 85.63
  L 117.79 80.00
  Q 120.98 80.83 123.46 78.50
  Z"
/>
<g fill="#6e423f">
<path d="
  M 120.09 108.73
  Q 118.61 107.57 119.01 105.94
  C 123.16 105.73 146.49 104.42 148.56 106.23
  A 0.56 0.56 0.0 0 1 148.22 107.20
  L 120.09 108.73
  Z"
/>
<path d="
  M 123.57 147.31
  L 122.49 114.93
  L 122.69 114.70
  Q 122.96 114.39 123.38 114.37
  L 137.52 113.71
  A 0.30 0.30 0.0 0 1 137.75 114.23
  Q 131.90 119.94 125.04 124.27
  C 123.32 125.35 123.26 128.59 125.60 129.18
  C 129.16 130.10 142.05 118.20 144.85 115.37
  A 0.36 0.36 0.0 0 1 145.47 115.60
  L 145.82 122.35
  Q 145.84 122.81 145.52 123.13
  Q 137.02 131.59 127.16 138.41
  Q 124.32 140.37 126.17 142.98
  A 2.10 2.10 0.0 0 0 129.00 143.53
  Q 137.73 138.01 145.37 131.10
  A 0.34 0.34 0.0 0 1 145.93 131.33
  Q 146.29 135.88 145.47 140.33
  C 143.87 148.96 129.50 147.26 123.57 147.31
  Z"
/>
</g>
<path fill="#759086" d="
  M 142.04 80.25
  L 140.25 81.79
  C 136.59 79.79 131.98 86.19 130.30 88.93
  Q 123.95 85.76 123.46 78.50
  C 126.38 76.48 130.94 73.50 134.55 73.50
  Q 135.06 73.50 135.48 73.77
  Q 139.46 76.30 142.04 80.25
  Z"
/>
</svg>
