<?xml version="1.0" encoding="UTF-8" standalone="no"?>
<!DOCTYPE svg PUBLIC "-//W3C//DTD SVG 1.1//EN" "http://www.w3.org/Graphics/SVG/1.1/DTD/svg11.dtd">
<svg xmlns="http://www.w3.org/2000/svg" version="1.1" viewBox="0 0 180 180">
<g fill="#38383c">
<path d="
  M 125.68 132.33
  A 0.96 0.96 0.0 0 0 126.08 131.07
  C 124.66 128.10 118.34 114.46 124.00 113.54
  A 2.24 2.24 0.0 0 1 126.53 115.18
  C 129.99 128.17 135.93 140.64 142.11 152.54
  C 144.22 156.59 144.68 161.53 140.47 163.94
  C 137.17 165.83 128.41 170.17 124.90 168.60
  Q 122.05 167.31 123.93 164.57
  Q 124.20 164.17 124.21 163.68
  C 124.27 158.49 125.85 154.62 124.91 148.76
  C 124.42 145.74 123.09 133.77 125.68 132.33
  Z"
/>
<path d="
  M 105.04 163.90
  C 109.39 164.35 108.86 169.43 104.31 169.61
  Q 97.36 169.90 90.41 169.96
  C 88.03 169.98 85.81 169.33 86.05 166.56
  Q 86.10 165.98 86.59 165.67
  Q 88.54 164.43 86.98 162.76
  Q 86.56 162.30 86.70 161.70
  C 88.09 155.71 90.16 149.90 97.41 150.83
  C 103.61 151.62 105.51 157.79 104.54 163.24
  Q 104.43 163.83 105.04 163.90
  Z"
/>
</g>
</svg>
