<?xml version="1.0" encoding="UTF-8" standalone="no"?>
<!DOCTYPE svg PUBLIC "-//W3C//DTD SVG 1.1//EN" "http://www.w3.org/Graphics/SVG/1.1/DTD/svg11.dtd">
<svg xmlns="http://www.w3.org/2000/svg" version="1.1" viewBox="0 0 180 180">
<g stroke-width="2.00" fill="none" stroke-linecap="butt">
<path stroke="#9c904e" vector-effect="non-scaling-stroke" d="
  M 124.37 162.09
  L 136.32 162.73
  Q 136.89 162.76 137.03 162.21
  Q 137.51 160.29 137.51 158.74
  C 137.53 144.37 137.76 128.36 133.81 114.22
  Q 129.98 100.48 117.01 93.67
  C 116.66 93.49 116.16 93.48 115.79 93.50"
/>
<path stroke="#9c904e" vector-effect="non-scaling-stroke" d="
  M 104.21 162.50
  L 104.01 162.72
  Q 103.79 162.96 103.46 162.99
  Q 95.63 163.61 87.75 162.95"
/>
</g>
<g fill="#ffe75f">
<path d="
  M 115.79 93.50
  C 116.16 93.48 116.66 93.49 117.01 93.67
  Q 129.98 100.48 133.81 114.22
  C 137.76 128.36 137.53 144.37 137.51 158.74
  Q 137.51 160.29 137.03 162.21
  Q 136.89 162.76 136.32 162.73
  L 124.37 162.09
  Q 123.89 159.10 125.71 157.06
  Q 126.07 156.67 126.06 156.14
  Q 126.06 153.59 125.27 149.00
  Q 124.08 142.08 124.89 128.07
  C 125.18 123.02 123.30 117.94 122.48 112.96
  Q 121.68 108.17 120.29 105.13
  C 118.89 102.05 114.34 96.59 115.79 93.50
  Z"
/>
<path d="
  M 104.21 162.50
  L 104.01 162.72
  Q 103.79 162.96 103.46 162.99
  Q 95.63 163.61 87.75 162.95
  C 85.18 148.23 104.47 148.32 104.21 162.50
  Z"
/>
</g>
<g fill="#38383c">
<path d="
  M 124.37 162.09
  L 136.32 162.73
  Q 136.89 162.76 137.03 162.21
  Q 137.51 160.29 137.51 158.74
  C 137.53 144.37 137.76 128.36 133.81 114.22
  Q 129.98 100.48 117.01 93.67
  C 116.66 93.49 116.16 93.48 115.79 93.50
  C 113.78 91.94 109.81 93.31 110.83 89.05
  A 2.41 2.40 10.2 0 1 113.46 87.23
  Q 118.20 87.82 122.24 90.24
  C 145.02 103.89 142.45 133.65 143.30 156.00
  Q 143.39 158.31 142.53 165.55
  Q 142.47 166.08 142.07 166.45
  C 138.84 169.45 132.74 168.09 128.57 167.79
  C 124.96 167.53 121.74 166.60 124.37 162.09
  Z"
/>
<path d="
  M 104.21 162.50
  L 106.16 164.78
  Q 106.45 165.12 106.44 165.57
  Q 106.36 168.71 103.74 168.73
  C 100.53 168.75 88.12 169.68 86.27 167.40
  A 2.21 2.21 0.0 0 1 86.88 164.10
  Q 87.72 163.61 87.75 162.95
  Q 95.63 163.61 103.46 162.99
  Q 103.79 162.96 104.01 162.72
  L 104.21 162.50
  Z"
/>
</g>
</svg>
