<?xml version="1.0" encoding="UTF-8" standalone="no"?>
<!DOCTYPE svg PUBLIC "-//W3C//DTD SVG 1.1//EN" "http://www.w3.org/Graphics/SVG/1.1/DTD/svg11.dtd">
<svg xmlns="http://www.w3.org/2000/svg" version="1.1" viewBox="0 0 180 180">
<g stroke-width="2.00" fill="none" stroke-linecap="butt">
<path stroke="#3d504e" vector-effect="non-scaling-stroke" d="
  M 124.25 162.54
  C 127.81 161.54 132.57 162.36 136.12 162.49
  A 1.08 1.08 0.0 0 0 137.25 161.41
  C 137.25 145.88 137.61 132.24 134.14 115.82
  Q 131.14 101.65 117.44 94.04"
/>
<path stroke="#3d504e" vector-effect="non-scaling-stroke" d="
  M 103.75 162.96
  Q 96.37 163.56 89.05 162.92"
/>
</g>
<g fill="#42685f">
<path d="
  M 117.44 94.04
  Q 131.14 101.65 134.14 115.82
  C 137.61 132.24 137.25 145.88 137.25 161.41
  A 1.08 1.08 0.0 0 1 136.12 162.49
  C 132.57 162.36 127.81 161.54 124.25 162.54
  C 123.01 158.40 125.67 152.72 125.32 147.60
  C 124.37 134.10 126.98 121.74 121.15 108.85
  C 118.87 103.80 116.04 99.05 117.44 94.04
  Z"
/>
<path d="
  M 103.75 162.96
  Q 96.37 163.56 89.05 162.92
  C 85.65 159.85 90.22 153.84 92.60 151.90
  Q 92.98 151.59 93.48 151.57
  C 100.57 151.38 104.51 155.92 103.75 162.96
  Z"
/>
</g>
<g fill="#38383c">
<path d="
  M 124.25 162.54
  C 127.81 161.54 132.57 162.36 136.12 162.49
  A 1.08 1.08 0.0 0 0 137.25 161.41
  C 137.25 145.88 137.61 132.24 134.14 115.82
  Q 131.14 101.65 117.44 94.04
  Q 115.35 93.15 113.16 92.64
  C 109.59 91.80 109.95 87.38 113.51 87.22
  Q 116.23 87.10 120.90 89.65
  C 140.44 100.34 142.29 121.44 142.94 141.45
  C 143.22 150.16 143.52 156.80 142.72 164.05
  C 142.04 170.13 133.23 168.25 129.01 167.80
  C 126.17 167.49 121.26 167.19 124.25 162.54
  Z"
/>
<path d="
  M 89.05 162.92
  Q 96.37 163.56 103.75 162.96
  C 107.20 164.07 107.26 168.73 103.75 168.74
  Q 96.12 168.76 88.50 168.75
  C 86.05 168.75 84.94 165.42 86.94 163.80
  Q 87.32 163.48 87.82 163.50
  Q 88.70 163.54 89.05 162.92
  Z"
/>
</g>
</svg>
