<?xml version="1.0" encoding="UTF-8" standalone="no"?>
<!DOCTYPE svg PUBLIC "-//W3C//DTD SVG 1.1//EN" "http://www.w3.org/Graphics/SVG/1.1/DTD/svg11.dtd">
<svg xmlns="http://www.w3.org/2000/svg" version="1.1" viewBox="0 0 180 180">
<g stroke-width="2.00" fill="none" stroke-linecap="butt">
<path stroke="#9c904e" vector-effect="non-scaling-stroke" d="
  M 124.62 129.83
  Q 135.28 127.74 143.32 121.20
  A 1.92 1.91 48.6 0 0 143.49 118.38
  C 141.86 116.68 140.06 116.38 138.07 117.94
  Q 133.27 121.71 128.13 125.15
  Q 125.40 126.98 123.29 125.50"
/>
<path stroke="#9c904e" vector-effect="non-scaling-stroke" d="
  M 124.54 120.50
  Q 136.19 114.65 142.64 104.19
  A 1.08 1.08 0.0 0 0 141.46 102.58
  L 136.05 103.96
  Q 135.62 104.07 135.29 104.36
  L 125.87 112.55
  Q 125.36 112.99 124.75 112.72
  Q 123.85 112.31 123.04 112.50"
/>
<path stroke="#9c904e" vector-effect="non-scaling-stroke" d="
  M 122.04 108.75
  C 126.58 105.26 137.69 95.85 138.69 90.22
  A 1.25 1.25 0.0 0 0 137.08 88.81
  L 131.03 90.76
  Q 130.53 90.92 130.23 91.35
  C 127.84 94.78 123.28 102.63 119.00 103.29"
/>
<path stroke="#9c904e" vector-effect="non-scaling-stroke" d="
  M 118.00 98.04
  Q 118.17 98.03 118.33 98.01
  Q 118.67 97.95 118.89 97.68
  Q 124.61 90.39 129.50 82.53
  Q 130.94 80.21 131.03 78.16
  A 1.24 1.24 0.0 0 0 129.18 77.03
  Q 123.61 80.19 119.42 85.08
  Q 119.05 85.51 118.48 85.57
  Q 116.90 85.74 115.29 85.25"
/>
</g>
<path fill="#38383c" d="
  M 124.62 129.83
  Q 135.28 127.74 143.32 121.20
  A 1.92 1.91 48.6 0 0 143.49 118.38
  C 141.86 116.68 140.06 116.38 138.07 117.94
  Q 133.27 121.71 128.13 125.15
  Q 125.40 126.98 123.29 125.50
  Q 122.18 122.66 124.54 120.50
  Q 136.19 114.65 142.64 104.19
  A 1.08 1.08 0.0 0 0 141.46 102.58
  L 136.05 103.96
  Q 135.62 104.07 135.29 104.36
  L 125.87 112.55
  Q 125.36 112.99 124.75 112.72
  Q 123.85 112.31 123.04 112.50
  Q 121.83 110.83 122.04 108.75
  C 126.58 105.26 137.69 95.85 138.69 90.22
  A 1.25 1.25 0.0 0 0 137.08 88.81
  L 131.03 90.76
  Q 130.53 90.92 130.23 91.35
  C 127.84 94.78 123.28 102.63 119.00 103.29
  Q 116.60 101.19 118.00 98.04
  Q 118.17 98.03 118.33 98.01
  Q 118.67 97.95 118.89 97.68
  Q 124.61 90.39 129.50 82.53
  Q 130.94 80.21 131.03 78.16
  A 1.24 1.24 0.0 0 0 129.18 77.03
  Q 123.61 80.19 119.42 85.08
  Q 119.05 85.51 118.48 85.57
  Q 116.90 85.74 115.29 85.25
  C 113.83 80.00 124.43 72.93 128.78 71.99
  C 136.83 70.26 137.44 78.12 135.07 83.45
  Q 134.79 84.08 135.46 83.95
  C 145.21 82.02 145.76 91.05 141.43 96.87
  Q 141.07 97.36 141.68 97.37
  C 152.04 97.63 147.77 107.24 143.99 111.78
  Q 143.65 112.18 144.13 112.40
  C 150.44 115.21 151.22 122.25 145.68 126.44
  C 143.33 128.22 124.81 139.71 123.60 132.85
  Q 123.51 132.37 123.71 131.92
  L 124.62 129.83
  Z"
/>
<g fill="#ffe75f">
<path d="
  M 118.00 98.04
  C 114.58 94.31 112.32 89.87 115.29 85.25
  Q 116.90 85.74 118.48 85.57
  Q 119.05 85.51 119.42 85.08
  Q 123.61 80.19 129.18 77.03
  A 1.24 1.24 0.0 0 1 131.03 78.16
  Q 130.94 80.21 129.50 82.53
  Q 124.61 90.39 118.89 97.68
  Q 118.67 97.95 118.33 98.01
  Q 118.17 98.03 118.00 98.04
  Z"
/>
<path d="
  M 122.04 108.75
  L 119.00 103.29
  C 123.28 102.63 127.84 94.78 130.23 91.35
  Q 130.53 90.92 131.03 90.76
  L 137.08 88.81
  A 1.25 1.25 0.0 0 1 138.69 90.22
  C 137.69 95.85 126.58 105.26 122.04 108.75
  Z"
/>
<path d="
  M 124.54 120.50
  Q 122.78 116.74 123.04 112.50
  Q 123.85 112.31 124.75 112.72
  Q 125.36 112.99 125.87 112.55
  L 135.29 104.36
  Q 135.62 104.07 136.05 103.96
  L 141.46 102.58
  A 1.08 1.08 0.0 0 1 142.64 104.19
  Q 136.19 114.65 124.54 120.50
  Z"
/>
<path d="
  M 124.62 129.83
  L 123.29 125.50
  Q 125.40 126.98 128.13 125.15
  Q 133.27 121.71 138.07 117.94
  C 140.06 116.38 141.86 116.68 143.49 118.38
  A 1.92 1.91 48.6 0 1 143.32 121.20
  Q 135.28 127.74 124.62 129.83
  Z"
/>
</g>
</svg>
