<?xml version="1.0" encoding="UTF-8" standalone="no"?>
<!DOCTYPE svg PUBLIC "-//W3C//DTD SVG 1.1//EN" "http://www.w3.org/Graphics/SVG/1.1/DTD/svg11.dtd">
<svg xmlns="http://www.w3.org/2000/svg" version="1.1" viewBox="0 0 180 180">
<g stroke-width="2.00" fill="none" stroke-linecap="butt">
<path stroke="#533d3e" vector-effect="non-scaling-stroke" d="
  M 124.60 144.94
  Q 128.67 145.45 135.98 145.04
  Q 141.38 144.74 140.34 139.52
  Q 140.24 138.98 139.69 139.00
  L 124.32 139.34"
/>
<path stroke="#533d3e" vector-effect="non-scaling-stroke" d="
  M 124.29 134.25
  C 129.73 133.23 134.91 133.34 140.46 133.17
  Q 141.23 133.14 141.24 132.38
  L 141.26 128.81
  Q 141.26 128.18 140.62 128.14
  L 124.50 127.29"
/>
<path stroke="#533d3e" vector-effect="non-scaling-stroke" d="
  M 123.99 122.04
  Q 132.29 121.50 140.61 122.36
  Q 141.25 122.43 141.25 121.78
  L 141.25 118.01
  A 0.98 0.96 2.6 0 0 140.36 117.05
  L 123.50 115.54"
/>
<path stroke="#533d3e" vector-effect="non-scaling-stroke" d="
  M 121.79 110.25
  Q 130.86 109.99 139.94 111.29
  Q 140.67 111.39 140.56 110.66
  L 140.06 107.08
  Q 139.97 106.47 139.37 106.31
  Q 130.19 103.91 120.75 104.54"
/>
<path stroke="#9c904e" vector-effect="non-scaling-stroke" d="
  M 116.54 98.50
  L 127.70 98.95
  Q 128.27 98.97 128.41 98.41
  C 129.74 92.84 130.22 88.68 136.47 87.20
  Q 136.92 87.09 136.93 86.63
  C 137.21 74.79 126.02 69.99 119.84 81.77
  C 118.65 84.03 117.27 84.65 115.04 83.25"
/>
<path stroke="#9c904e" vector-effect="non-scaling-stroke" d="
  M 134.28 99.54
  L 140.00 100.55
  Q 140.56 100.65 140.72 100.10
  C 143.07 91.69 133.37 89.49 133.89 99.10
  Q 133.91 99.47 134.28 99.54"
/>
</g>
<path fill="#38383c" d="
  M 124.60 144.94
  Q 128.67 145.45 135.98 145.04
  Q 141.38 144.74 140.34 139.52
  Q 140.24 138.98 139.69 139.00
  L 124.32 139.34
  Q 123.69 136.95 124.29 134.25
  C 129.73 133.23 134.91 133.34 140.46 133.17
  Q 141.23 133.14 141.24 132.38
  L 141.26 128.81
  Q 141.26 128.18 140.62 128.14
  L 124.50 127.29
  Q 122.26 125.09 123.99 122.04
  Q 132.29 121.50 140.61 122.36
  Q 141.25 122.43 141.25 121.78
  L 141.25 118.01
  A 0.98 0.96 2.6 0 0 140.36 117.05
  L 123.50 115.54
  Q 120.00 114.02 121.79 110.25
  Q 130.86 109.99 139.94 111.29
  Q 140.67 111.39 140.56 110.66
  L 140.06 107.08
  Q 139.97 106.47 139.37 106.31
  Q 130.19 103.91 120.75 104.54
  L 116.84 103.70
  Q 116.31 103.59 116.01 103.16
  Q 114.35 100.81 116.54 98.50
  L 127.70 98.95
  Q 128.27 98.97 128.41 98.41
  C 129.74 92.84 130.22 88.68 136.47 87.20
  Q 136.92 87.09 136.93 86.63
  C 137.21 74.79 126.02 69.99 119.84 81.77
  C 118.65 84.03 117.27 84.65 115.04 83.25
  Q 114.55 81.61 114.75 81.03
  C 117.45 73.19 127.43 65.53 135.34 71.72
  Q 143.19 77.86 142.61 87.94
  Q 142.58 88.44 142.90 88.82
  Q 148.03 94.95 145.98 102.62
  Q 145.40 104.78 145.64 106.58
  Q 147.66 121.46 146.19 140.01
  C 145.86 144.15 145.46 147.95 141.20 149.63
  C 135.49 151.89 128.58 151.30 122.34 150.76
  Q 121.78 150.71 121.46 150.25
  Q 118.39 145.69 124.60 144.94
  Z
  M 134.28 99.54
  L 140.00 100.55
  Q 140.56 100.65 140.72 100.10
  C 143.07 91.69 133.37 89.49 133.89 99.10
  Q 133.91 99.47 134.28 99.54
  Z"
/>
<g fill="#ffe75f">
<path d="
  M 116.54 98.50
  Q 113.35 94.16 112.89 88.85
  C 112.69 86.56 113.79 85.02 115.04 83.25
  C 117.27 84.65 118.65 84.03 119.84 81.77
  C 126.02 69.99 137.21 74.79 136.93 86.63
  Q 136.92 87.09 136.47 87.20
  C 130.22 88.68 129.74 92.84 128.41 98.41
  Q 128.27 98.97 127.70 98.95
  L 116.54 98.50
  Z"
/>
<path d="
  M 134.28 99.54
  Q 133.91 99.47 133.89 99.10
  C 133.37 89.49 143.07 91.69 140.72 100.10
  Q 140.56 100.65 140.00 100.55
  L 134.28 99.54
  Z"
/>
</g>
<g fill="#6e423f">
<path d="
  M 121.79 110.25
  Q 120.54 107.54 120.75 104.54
  Q 130.19 103.91 139.37 106.31
  Q 139.97 106.47 140.06 107.08
  L 140.56 110.66
  Q 140.67 111.39 139.94 111.29
  Q 130.86 109.99 121.79 110.25
  Z"
/>
<path d="
  M 123.50 115.54
  L 140.36 117.05
  A 0.98 0.96 2.6 0 1 141.25 118.01
  L 141.25 121.78
  Q 141.25 122.43 140.61 122.36
  Q 132.29 121.50 123.99 122.04
  L 123.50 115.54
  Z"
/>
<path d="
  M 124.50 127.29
  L 140.62 128.14
  Q 141.26 128.18 141.26 128.81
  L 141.24 132.38
  Q 141.23 133.14 140.46 133.17
  C 134.91 133.34 129.73 133.23 124.29 134.25
  L 124.50 127.29
  Z"
/>
<path d="
  M 124.60 144.94
  Q 123.54 142.17 124.32 139.34
  L 139.69 139.00
  Q 140.24 138.98 140.34 139.52
  Q 141.38 144.74 135.98 145.04
  Q 128.67 145.45 124.60 144.94
  Z"
/>
</g>
</svg>
