<?xml version="1.0" encoding="UTF-8" standalone="no"?>
<!DOCTYPE svg PUBLIC "-//W3C//DTD SVG 1.1//EN" "http://www.w3.org/Graphics/SVG/1.1/DTD/svg11.dtd">
<svg xmlns="http://www.w3.org/2000/svg" version="1.1" viewBox="0 0 180 180">
<g stroke-width="2.00" fill="none" stroke-linecap="butt">
<path stroke="#533d3e" vector-effect="non-scaling-stroke" d="
  M 123.08 145.76
  Q 126.41 145.59 126.99 143.71
  Q 129.45 135.76 132.77 118.00
  Q 134.24 110.13 134.38 105.21
  Q 134.40 104.67 134.06 104.24
  C 131.80 101.42 126.11 100.50 123.28 99.76
  Q 122.73 99.61 122.50 100.13
  Q 121.72 101.86 119.70 103.17"
/>
<path stroke="#9c3d44" vector-effect="non-scaling-stroke" d="
  M 130.81 78.69
  Q 129.26 77.38 127.29 76.69
  Q 126.33 76.36 126.77 77.27
  Q 127.93 79.73 130.34 80.97
  Q 130.83 81.22 131.12 80.76
  C 131.50 80.17 131.91 78.80 130.81 78.69"
/>
<path stroke="#9c3d44" vector-effect="non-scaling-stroke" d="
  M 136.84 80.37
  L 136.10 83.11
  Q 135.87 83.98 136.70 83.63
  L 142.73 81.08
  A 0.56 0.56 0.0 0 0 142.51 80.00
  L 137.33 80.00
  A 0.52 0.51 -81.6 0 0 136.84 80.37"
/>
<path stroke="#9c3d44" vector-effect="non-scaling-stroke" d="
  M 129.37 86.65
  L 125.05 84.67
  A 0.62 0.62 0.0 0 0 124.24 85.52
  Q 125.56 88.07 128.16 89.45
  Q 128.82 89.79 129.07 89.09
  L 129.68 87.36
  Q 129.85 86.87 129.37 86.65"
/>
<path stroke="#9c3d44" vector-effect="non-scaling-stroke" d="
  M 142.79 88.30
  Q 138.62 88.08 134.72 89.78
  Q 134.20 90.01 134.10 90.56
  L 133.81 92.07
  Q 133.68 92.72 134.31 92.51
  L 142.97 89.64
  A 0.69 0.69 0.0 0 0 142.79 88.30"
/>
</g>
<path fill="#38383c" d="
  M 123.08 145.76
  Q 126.41 145.59 126.99 143.71
  Q 129.45 135.76 132.77 118.00
  Q 134.24 110.13 134.38 105.21
  Q 134.40 104.67 134.06 104.24
  C 131.80 101.42 126.11 100.50 123.28 99.76
  Q 122.73 99.61 122.50 100.13
  Q 121.72 101.86 119.70 103.17
  Q 113.87 97.76 120.48 94.73
  C 122.23 93.92 123.47 94.35 125.34 94.50
  Q 127.25 94.66 125.50 93.90
  C 120.52 91.72 115.45 84.01 120.99 79.72
  Q 121.43 79.38 121.33 78.83
  Q 120.02 71.98 126.58 70.67
  Q 127.12 70.57 127.61 70.81
  L 132.66 73.34
  Q 133.06 73.54 133.33 73.19
  Q 134.66 71.56 136.75 72.41
  Q 137.26 72.62 137.53 73.11
  L 138.23 74.38
  Q 138.50 74.89 139.08 74.82
  C 143.87 74.28 154.56 77.04 147.35 83.89
  Q 146.98 84.24 147.29 84.64
  C 153.47 92.84 142.21 95.97 135.90 97.55
  Q 135.15 97.74 135.80 98.17
  Q 141.01 101.55 140.30 107.01
  Q 138.08 123.95 133.46 141.74
  C 132.60 145.04 131.74 148.39 128.65 150.12
  Q 123.86 152.79 123.08 145.76
  Z
  M 130.81 78.69
  Q 129.26 77.38 127.29 76.69
  Q 126.33 76.36 126.77 77.27
  Q 127.93 79.73 130.34 80.97
  Q 130.83 81.22 131.12 80.76
  C 131.50 80.17 131.91 78.80 130.81 78.69
  Z
  M 136.84 80.37
  L 136.10 83.11
  Q 135.87 83.98 136.70 83.63
  L 142.73 81.08
  A 0.56 0.56 0.0 0 0 142.51 80.00
  L 137.33 80.00
  A 0.52 0.51 -81.6 0 0 136.84 80.37
  Z
  M 129.37 86.65
  L 125.05 84.67
  A 0.62 0.62 0.0 0 0 124.24 85.52
  Q 125.56 88.07 128.16 89.45
  Q 128.82 89.79 129.07 89.09
  L 129.68 87.36
  Q 129.85 86.87 129.37 86.65
  Z
  M 142.79 88.30
  Q 138.62 88.08 134.72 89.78
  Q 134.20 90.01 134.10 90.56
  L 133.81 92.07
  Q 133.68 92.72 134.31 92.51
  L 142.97 89.64
  A 0.69 0.69 0.0 0 0 142.79 88.30
  Z"
/>
<path fill="#6e423f" d="
  M 123.08 145.76
  C 124.32 131.12 122.69 118.06 119.70 103.17
  Q 121.72 101.86 122.50 100.13
  Q 122.73 99.61 123.28 99.76
  C 126.11 100.50 131.80 101.42 134.06 104.24
  Q 134.40 104.67 134.38 105.21
  Q 134.24 110.13 132.77 118.00
  Q 129.45 135.76 126.99 143.71
  Q 126.41 145.59 123.08 145.76
  Z"
/>
<g fill="#ff424c">
<path d="
  M 130.81 78.69
  C 131.91 78.80 131.50 80.17 131.12 80.76
  Q 130.83 81.22 130.34 80.97
  Q 127.93 79.73 126.77 77.27
  Q 126.33 76.36 127.29 76.69
  Q 129.26 77.38 130.81 78.69
  Z"
/>
<path d="
  M 136.84 80.37
  A 0.52 0.51 -81.6 0 1 137.33 80.00
  L 142.51 80.00
  A 0.56 0.56 0.0 0 1 142.73 81.08
  L 136.70 83.63
  Q 135.87 83.98 136.10 83.11
  L 136.84 80.37
  Z"
/>
<path d="
  M 129.68 87.36
  L 129.07 89.09
  Q 128.82 89.79 128.16 89.45
  Q 125.56 88.07 124.24 85.52
  A 0.62 0.62 0.0 0 1 125.05 84.67
  L 129.37 86.65
  Q 129.85 86.87 129.68 87.36
  Z"
/>
<path d="
  M 142.79 88.30
  A 0.69 0.69 0.0 0 1 142.97 89.64
  L 134.31 92.51
  Q 133.68 92.72 133.81 92.07
  L 134.10 90.56
  Q 134.20 90.01 134.72 89.78
  Q 138.62 88.08 142.79 88.30
  Z"
/>
</g>
</svg>
